<?xml version="1.0" encoding="UTF-8" standalone="no"?>
<!-- Created with Inkscape (http://www.inkscape.org/) -->

<svg
   xmlns:dc="http://purl.org/dc/elements/1.1/"
   xmlns:cc="http://creativecommons.org/ns#"
   xmlns:rdf="http://www.w3.org/1999/02/22-rdf-syntax-ns#"
   xmlns:svg="http://www.w3.org/2000/svg"
   xmlns="http://www.w3.org/2000/svg"
   xmlns:xlink="http://www.w3.org/1999/xlink"
   xmlns:sodipodi="http://sodipodi.sourceforge.net/DTD/sodipodi-0.dtd"
   xmlns:inkscape="http://www.inkscape.org/namespaces/inkscape"
   width="443"
   height="443"
   id="svg2"
   sodipodi:version="0.32"
   inkscape:version="0.48.4 r9939"
   sodipodi:docname="brass-pin.svg"
   inkscape:output_extension="org.inkscape.output.svg.inkscape"
   version="1.0">
  <sodipodi:namedview
     id="base"
     pagecolor="#ffffff"
     bordercolor="#666666"
     borderopacity="1.0"
     gridtolerance="10000"
     guidetolerance="10"
     objecttolerance="10"
     inkscape:pageopacity="0.0"
     inkscape:pageshadow="2"
     inkscape:zoom="1.2054176"
     inkscape:cx="229.35191"
     inkscape:cy="221.5"
     inkscape:document-units="px"
     inkscape:current-layer="layer1"
     showgrid="false"
     inkscape:window-width="959"
     inkscape:window-height="712"
     inkscape:window-x="399"
     inkscape:window-y="0"
     inkscape:window-maximized="0" />
  <defs
     id="defs4">
    <linearGradient
       id="linearGradient3367">
      <stop
         id="stop3369"
         offset="0"
         style="stop-color:#b1b1b1;stop-opacity:1;" />
      <stop
         id="stop3371"
         offset="1"
         style="stop-color:#6d6d6d;stop-opacity:1;" />
    </linearGradient>
    <linearGradient
       id="linearGradient3351">
      <stop
         style="stop-color:#b1b1b1;stop-opacity:1;"
         offset="0"
         id="stop3353" />
      <stop
         style="stop-color:#5e5e5e;stop-opacity:1;"
         offset="1"
         id="stop3355" />
    </linearGradient>
    <linearGradient
       id="linearGradient3227">
      <stop
         id="stop3229"
         offset="0"
         style="stop-color:#fdf8bf;stop-opacity:1;" />
      <stop
         style="stop-color:#fdf8bf;stop-opacity:1;"
         offset="0.69999999"
         id="stop3235" />
      <stop
         id="stop3231"
         offset="1"
         style="stop-color:#fdf8bf;stop-opacity:0;" />
    </linearGradient>
    <inkscape:perspective
       id="perspective10"
       inkscape:persp3d-origin="372.04724 : 350.78739 : 1"
       inkscape:vp_z="744.09448 : 526.18109 : 1"
       inkscape:vp_y="0 : 1000 : 0"
       inkscape:vp_x="0 : 526.18109 : 1"
       sodipodi:type="inkscape:persp3d" />
    <inkscape:perspective
       sodipodi:type="inkscape:persp3d"
       inkscape:vp_x="0 : 526.18109 : 1"
       inkscape:vp_y="0 : 1000 : 0"
       inkscape:vp_z="744.09448 : 526.18109 : 1"
       inkscape:persp3d-origin="372.04724 : 350.78739 : 1"
       id="perspective3219" />
    <radialGradient
       gradientUnits="userSpaceOnUse"
       gradientTransform="matrix(1,0,0,2.7,0,-453.5533)"
       r="37.055008"
       fy="266.79605"
       fx="340.90607"
       cy="266.79605"
       cx="340.90607"
       id="radialGradient3233"
       xlink:href="#linearGradient3227"
       inkscape:collect="always" />
    <linearGradient
       inkscape:collect="always"
       xlink:href="#linearGradient3351"
       id="linearGradient3357"
       x1="540.97028"
       y1="435.73093"
       x2="313.20016"
       y2="617.6875"
       gradientUnits="userSpaceOnUse" />
    <radialGradient
       inkscape:collect="always"
       xlink:href="#linearGradient3367"
       id="radialGradient3393"
       cx="533.19055"
       cy="338.35117"
       fx="533.19055"
       fy="338.35117"
       r="221.5"
       gradientUnits="userSpaceOnUse"
       gradientTransform="matrix(-2.0140418,-3.5454495e-3,3.2226587e-3,-1.8306729,1623.5053,973.20774)" />
  </defs>
  <metadata
     id="metadata7">
    <rdf:RDF>
      <cc:Work
         rdf:about="">
        <dc:format>image/svg+xml</dc:format>
        <dc:type
           rdf:resource="http://purl.org/dc/dcmitype/StillImage" />
        <dc:title>Brass Pin</dc:title>
        <dc:date>March 21, 2010</dc:date>
        <dc:creator>
          <cc:Agent>
            <dc:title>Klaas van Gend</dc:title>
          </cc:Agent>
        </dc:creator>
        <cc:license
           rdf:resource="http://creativecommons.org/licenses/publicdomain/" />
      </cc:Work>
      <cc:License
         rdf:about="http://creativecommons.org/licenses/publicdomain/">
        <cc:permits
           rdf:resource="http://creativecommons.org/ns#Reproduction" />
        <cc:permits
           rdf:resource="http://creativecommons.org/ns#Distribution" />
        <cc:permits
           rdf:resource="http://creativecommons.org/ns#DerivativeWorks" />
      </cc:License>
    </rdf:RDF>
  </metadata>
  <g
     id="layer1"
     inkscape:groupmode="layer"
     inkscape:label="Layer 1"
     transform="translate(-240.02101,-75.387197)">
    <path
       transform="translate(81.521014,-161.18928)"
       d="m 600,458.07648 c 0,121.50264 -98.49736,220 -220,220 -121.50264,0 -220,-98.49736 -220,-220 0,-121.50265 98.49736,-220 220,-220 121.50264,0 220,98.49735 220,220 z"
       sodipodi:ry="220"
       sodipodi:rx="220"
       sodipodi:cy="458.07648"
       sodipodi:cx="380"
       id="path2383"
       style="fill:url(#radialGradient3393);fill-opacity:1;stroke:url(#linearGradient3357);stroke-width:3;stroke-miterlimit:4;stroke-dasharray:none;stroke-opacity:1"
       sodipodi:type="arc" />
    <g
       id="g3787">
      <path
         id="path3273"
         d="m 649.15245,190.6249 c 32.20896,58.71173 23.20515,158.92781 2.84751,183.86428 -1.63821,2.00668 -3.34995,3.52587 -5.11965,4.49672 -23.76132,13.03534 -42.3871,-96.42353 -69.93348,-146.63612 -0.5439,-0.99144 -1.10822,-1.99578 -1.69173,-3.01223 -28.96917,-50.46247 -105.27767,-130.7583 -81.98552,-143.536261 2.3712,-1.30083 5.4614,-1.954561 9.13941,-2.011906 33.17865,-0.51721 114.19097,47.497617 146.74345,106.835517 0,0 0,0 0,0"
         style="fill:#dddddd;fill-opacity:0.15294118;stroke:none"
         inkscape:connector-curvature="0" />
      <path
         id="path3275"
         d="m 649.26186,190.82434 c 29.85422,54.41941 22.91723,148.92452 3.7657,171.66951 -1.54634,1.83317 -3.16879,3.19579 -4.85178,4.03837 -22.27282,11.37333 -40.97072,-89.7174 -66.59724,-136.42648 -0.50906,-0.92784 -1.03572,-1.86632 -1.57898,-2.81459 -26.83641,-46.83522 -96.65345,-122.11999 -75.64605,-134.739328 2.14625,-1.31653 4.96861,-2.015095 8.35698,-2.131354 30.54796,-1.038976 106.39183,45.427852 136.5514,100.403862 0,0 0,0 0,0"
         style="fill:#dddddd;fill-opacity:0.15294118;stroke:none"
         inkscape:connector-curvature="0" />
      <path
         id="path3277"
         d="m 649.37127,191.02378 c 27.49948,50.1271 22.62932,138.92123 4.68391,159.47472 -1.45447,1.65967 -2.98764,2.86572 -4.58393,3.58004 -20.7843,9.71131 -39.55433,-83.01126 -63.26099,-126.21685 -0.47423,-0.86425 -0.96313,-1.73691 -1.46631,-2.61692 -24.70367,-43.20794 -88.02922,-113.48165 -69.3066,-125.942367 1.92132,-1.332231 4.47582,-2.075619 7.57455,-2.25081 27.91729,-1.560739 98.5927,43.358097 126.35935,93.972207 0,0 0,0 0,0"
         style="fill:#dddddd;fill-opacity:0.15294118;stroke:none"
         inkscape:connector-curvature="0" />
      <path
         id="path3279"
         d="m 649.48069,191.22323 c 25.14473,45.83478 22.34138,128.91794 5.6021,147.27994 -1.36261,1.48616 -2.80649,2.53564 -4.31608,3.12169 -19.29579,8.04929 -38.13794,-76.30512 -59.92475,-116.0072 -0.43939,-0.80066 -0.89089,-1.60731 -1.35356,-2.41929 -22.57089,-39.5807 -79.40499,-104.84334 -62.96713,-117.14544 1.69639,-1.34793 3.98303,-2.13614 6.79213,-2.37026 25.28661,-2.08249 90.79355,41.28833 116.1673,87.54056 0,0 0,0 0,0"
         style="fill:#dddddd;fill-opacity:0.15294118;stroke:none"
         inkscape:connector-curvature="0" />
      <path
         id="path3281"
         d="m 649.5901,191.42267 c 22.78999,41.54247 22.05346,118.91465 6.52031,135.08515 -1.27075,1.31266 -2.62535,2.20557 -4.04822,2.66335 -17.80728,6.38728 -36.72155,-69.59897 -56.58851,-105.79755 -0.40455,-0.73707 -0.81865,-1.47771 -1.24081,-2.22167 -20.43815,-35.95342 -70.78076,-96.20501 -56.62767,-108.34849 1.47145,-1.36362 3.49025,-2.19666 6.0097,-2.48971 22.65592,-2.60425 82.99441,39.21858 105.97524,81.1089 0,0 0,0 0,0"
         style="fill:#dddddd;fill-opacity:0.15294118;stroke:none"
         inkscape:connector-curvature="0" />
      <path
         id="path3283"
         d="m 647.94605,192.58407 c 20.43524,37.25013 21.76553,108.91135 7.43849,122.89036 -1.17888,1.13916 -2.44419,1.87549 -3.78036,2.20501 -16.31877,4.72526 -35.30516,-62.89284 -53.25227,-95.58792 -0.3697,-0.67347 -0.74553,-1.3486 -1.12814,-2.02398 -18.30539,-32.32616 -62.15653,-87.56669 -50.28821,-99.55155 1.24651,-1.37933 2.99746,-2.2572 5.22726,-2.60917 20.02526,-3.12601 75.19529,37.14882 95.78321,74.67726 0,0 0,0 0,0"
         style="fill:#dddddd;fill-opacity:0.15294118;stroke:none"
         inkscape:connector-curvature="0" />
      <path
         id="path3285"
         d="m 648.05546,192.78351 c 18.0805,32.95782 21.47761,98.90805 8.3567,110.69557 -1.08701,0.96566 -2.26304,1.54543 -3.51252,1.74668 -14.83025,3.06325 -33.88877,-56.18671 -49.91601,-85.37828 -0.33487,-0.60989 -0.6733,-1.21899 -1.01539,-1.82636 -16.17264,-28.6989 -53.5323,-78.92837 -43.94875,-90.7546 1.02158,-1.39503 2.50468,-2.31772 4.44484,-2.72863 17.39457,-3.64777 67.39615,35.07907 85.59115,68.24561 0,0 0,0 0,0"
         style="fill:#dddddd;fill-opacity:0.15294118;stroke:none"
         inkscape:connector-curvature="0" />
      <path
         id="path3287"
         d="m 648.16488,192.98295 c 15.72575,28.6655 21.18967,88.90476 9.27489,98.5008 -0.99515,0.79215 -2.08189,1.21534 -3.24466,1.28833 -13.34175,1.40123 -32.47238,-49.48056 -46.57978,-75.16864 -0.30002,-0.54629 -0.60105,-1.08939 -0.90263,-1.62873 -14.03989,-25.07164 -44.90808,-70.29005 -37.60929,-81.95766 0.79664,-1.41072 2.01188,-2.37824 3.66241,-2.84807 14.7639,-4.16952 59.59701,33.0093 75.3991,61.81395 0,0 0,0 0,0"
         style="fill:#dddddd;fill-opacity:0.15294118;stroke:none"
         inkscape:connector-curvature="0" />
      <path
         id="path3289"
         d="m 646.52082,194.14434 c 13.37101,24.37319 20.90176,78.90147 10.19309,86.30602 -0.90328,0.61863 -1.90074,0.88526 -2.9768,0.82998 -11.85323,-0.26078 -31.05599,-42.77443 -43.24353,-64.959 -0.26519,-0.48269 -0.52881,-0.95979 -0.78971,-1.4312 -11.90713,-21.44437 -36.28384,-61.65173 -31.26982,-73.16071 0.5717,-1.42642 1.5191,-2.43877 2.87998,-2.96753 12.13322,-4.69128 51.79787,30.93954 65.20705,55.3823 0,0 0,0 0,0"
         style="fill:#dddddd;fill-opacity:0.15294118;stroke:none"
         inkscape:connector-curvature="0" />
      <path
         id="path3291"
         d="m 646.63023,194.34379 c 11.01627,20.08086 20.61383,68.89817 11.11128,74.11123 -0.8114,0.44513 -1.71957,0.55519 -2.70894,0.37165 -10.36473,-1.92281 -29.63959,-36.06829 -39.90728,-54.74937 -0.23035,-0.4191 -0.45617,-0.83041 -0.67725,-1.23341 -9.77438,-17.8171 -27.65962,-53.0134 -24.93036,-64.36377 0.34676,-1.44212 1.02631,-2.4993 2.09755,-3.08698 9.50254,-5.21304 43.99874,28.86978 55.015,48.95065 0,0 0,0 0,0"
         style="fill:#dddddd;fill-opacity:0.15294118;stroke:none"
         inkscape:connector-curvature="0" />
    </g>
  </g>
</svg>
