<?xml version="1.0" encoding="UTF-8" standalone="no"?>
<!-- Created with Inkscape (http://www.inkscape.org/) -->
<svg
   xmlns:dc="http://purl.org/dc/elements/1.1/"
   xmlns:cc="http://creativecommons.org/ns#"
   xmlns:rdf="http://www.w3.org/1999/02/22-rdf-syntax-ns#"
   xmlns:svg="http://www.w3.org/2000/svg"
   xmlns="http://www.w3.org/2000/svg"
   xmlns:xlink="http://www.w3.org/1999/xlink"
   xmlns:sodipodi="http://sodipodi.sourceforge.net/DTD/sodipodi-0.dtd"
   xmlns:inkscape="http://www.inkscape.org/namespaces/inkscape"
   width="333.65698"
   height="405.4985"
   id="svg2"
   sodipodi:version="0.32"
   inkscape:version="0.46"
   sodipodi:docname="CactusBracket.svg"
   inkscape:output_extension="org.inkscape.output.svg.inkscape"
   version="1.0">
  <defs
     id="defs4">
    <linearGradient
       id="linearGradient4057">
      <stop
         style="stop-color:#ff0000;stop-opacity:1;"
         offset="0"
         id="stop4059" />
      <stop
         style="stop-color:#8d0000;stop-opacity:1;"
         offset="1"
         id="stop4061" />
    </linearGradient>
    <inkscape:perspective
       sodipodi:type="inkscape:persp3d"
       inkscape:vp_x="0 : 526.18109 : 1"
       inkscape:vp_y="0 : 1000 : 0"
       inkscape:vp_z="744.09448 : 526.18109 : 1"
       inkscape:persp3d-origin="372.04724 : 350.78739 : 1"
       id="perspective10" />
    <inkscape:perspective
       id="perspective2605"
       inkscape:persp3d-origin="372.04724 : 350.78739 : 1"
       inkscape:vp_z="744.09448 : 526.18109 : 1"
       inkscape:vp_y="0 : 1000 : 0"
       inkscape:vp_x="0 : 526.18109 : 1"
       sodipodi:type="inkscape:persp3d" />
    <linearGradient
       id="linearGradient3160">
      <stop
         id="stop3162"
         offset="0"
         style="stop-color:#441600;stop-opacity:1;" />
      <stop
         id="stop3164"
         offset="1"
         style="stop-color:#944c00;stop-opacity:1;" />
    </linearGradient>
    <linearGradient
       id="linearGradient3170">
      <stop
         id="stop3172"
         offset="0"
         style="stop-color:#084d00;stop-opacity:1;" />
      <stop
         id="stop3174"
         offset="1"
         style="stop-color:#11a400;stop-opacity:1;" />
    </linearGradient>
    <linearGradient
       id="linearGradient3229">
      <stop
         id="stop3231"
         offset="0"
         style="stop-color:#c80054;stop-opacity:1;" />
      <stop
         style="stop-color:#ff9bc5;stop-opacity:1;"
         offset="0.5"
         id="stop3243" />
      <stop
         id="stop3233"
         offset="1"
         style="stop-color:#ffebf3;stop-opacity:1;" />
    </linearGradient>
    <linearGradient
       inkscape:collect="always"
       xlink:href="#linearGradient3170"
       id="linearGradient3196"
       gradientUnits="userSpaceOnUse"
       x1="159.99998"
       y1="363.79074"
       x2="502.85712"
       y2="363.79074" />
    <linearGradient
       inkscape:collect="always"
       xlink:href="#linearGradient3170"
       id="linearGradient3198"
       gradientUnits="userSpaceOnUse"
       x1="306.03766"
       y1="230.63902"
       x2="407.24695"
       y2="230.63902" />
    <linearGradient
       inkscape:collect="always"
       xlink:href="#linearGradient3160"
       id="linearGradient3200"
       gradientUnits="userSpaceOnUse"
       gradientTransform="matrix(0.6391209,0,0,0.6635456,-466.35461,600.222)"
       x1="200.61868"
       y1="666.41901"
       x2="543.47583"
       y2="666.41901" />
    <linearGradient
       inkscape:collect="always"
       xlink:href="#linearGradient3229"
       id="linearGradient3202"
       gradientUnits="userSpaceOnUse"
       x1="156.07956"
       y1="209.35223"
       x2="175.70633"
       y2="209.35223" />
    <linearGradient
       inkscape:collect="always"
       xlink:href="#linearGradient3229"
       id="linearGradient3204"
       gradientUnits="userSpaceOnUse"
       x1="156.07956"
       y1="209.35223"
       x2="175.70633"
       y2="209.35223" />
    <linearGradient
       inkscape:collect="always"
       xlink:href="#linearGradient3229"
       id="linearGradient3206"
       gradientUnits="userSpaceOnUse"
       x1="156.07956"
       y1="209.35223"
       x2="175.70633"
       y2="209.35223" />
    <linearGradient
       inkscape:collect="always"
       xlink:href="#linearGradient3229"
       id="linearGradient3208"
       gradientUnits="userSpaceOnUse"
       x1="156.07956"
       y1="209.35223"
       x2="175.70633"
       y2="209.35223" />
    <linearGradient
       inkscape:collect="always"
       xlink:href="#linearGradient3229"
       id="linearGradient3210"
       gradientUnits="userSpaceOnUse"
       x1="156.07956"
       y1="209.35223"
       x2="175.70633"
       y2="209.35223" />
    <linearGradient
       inkscape:collect="always"
       xlink:href="#linearGradient3229"
       id="linearGradient3212"
       gradientUnits="userSpaceOnUse"
       x1="156.07956"
       y1="209.35223"
       x2="175.70633"
       y2="209.35223" />
    <linearGradient
       inkscape:collect="always"
       xlink:href="#linearGradient3229"
       id="linearGradient3214"
       gradientUnits="userSpaceOnUse"
       x1="156.07956"
       y1="209.35223"
       x2="175.70633"
       y2="209.35223" />
    <linearGradient
       inkscape:collect="always"
       xlink:href="#linearGradient3229"
       id="linearGradient3216"
       gradientUnits="userSpaceOnUse"
       x1="156.07956"
       y1="209.35223"
       x2="175.70633"
       y2="209.35223" />
    <linearGradient
       inkscape:collect="always"
       xlink:href="#linearGradient3229"
       id="linearGradient3218"
       gradientUnits="userSpaceOnUse"
       x1="156.07956"
       y1="209.35223"
       x2="175.70633"
       y2="209.35223" />
    <linearGradient
       inkscape:collect="always"
       xlink:href="#linearGradient3229"
       id="linearGradient3220"
       gradientUnits="userSpaceOnUse"
       x1="156.07956"
       y1="209.35223"
       x2="175.70633"
       y2="209.35223" />
    <linearGradient
       inkscape:collect="always"
       xlink:href="#linearGradient3229"
       id="linearGradient3222"
       gradientUnits="userSpaceOnUse"
       x1="156.07956"
       y1="209.35223"
       x2="175.70633"
       y2="209.35223" />
    <linearGradient
       inkscape:collect="always"
       xlink:href="#linearGradient3229"
       id="linearGradient3224"
       gradientUnits="userSpaceOnUse"
       x1="156.07956"
       y1="209.35223"
       x2="175.70633"
       y2="209.35223" />
    <linearGradient
       inkscape:collect="always"
       xlink:href="#linearGradient3229"
       id="linearGradient3226"
       gradientUnits="userSpaceOnUse"
       x1="156.07956"
       y1="209.35223"
       x2="175.70633"
       y2="209.35223" />
    <linearGradient
       inkscape:collect="always"
       xlink:href="#linearGradient3229"
       id="linearGradient3228"
       gradientUnits="userSpaceOnUse"
       x1="156.07956"
       y1="209.35223"
       x2="175.70633"
       y2="209.35223" />
    <linearGradient
       inkscape:collect="always"
       xlink:href="#linearGradient3229"
       id="linearGradient3230"
       gradientUnits="userSpaceOnUse"
       x1="156.07956"
       y1="209.35223"
       x2="175.70633"
       y2="209.35223" />
    <linearGradient
       inkscape:collect="always"
       xlink:href="#linearGradient3229"
       id="linearGradient3232"
       gradientUnits="userSpaceOnUse"
       x1="156.07956"
       y1="209.35223"
       x2="175.70633"
       y2="209.35223" />
    <linearGradient
       inkscape:collect="always"
       xlink:href="#linearGradient3229"
       id="linearGradient3234"
       gradientUnits="userSpaceOnUse"
       x1="156.07956"
       y1="209.35223"
       x2="175.70633"
       y2="209.35223" />
    <linearGradient
       inkscape:collect="always"
       xlink:href="#linearGradient3229"
       id="linearGradient3236"
       gradientUnits="userSpaceOnUse"
       x1="156.07956"
       y1="209.35223"
       x2="175.70633"
       y2="209.35223" />
    <linearGradient
       inkscape:collect="always"
       xlink:href="#linearGradient3229"
       id="linearGradient3238"
       gradientUnits="userSpaceOnUse"
       x1="156.07956"
       y1="209.35223"
       x2="175.70633"
       y2="209.35223" />
    <linearGradient
       inkscape:collect="always"
       xlink:href="#linearGradient3229"
       id="linearGradient3240"
       gradientUnits="userSpaceOnUse"
       x1="156.07956"
       y1="209.35223"
       x2="175.70633"
       y2="209.35223" />
    <linearGradient
       inkscape:collect="always"
       xlink:href="#linearGradient4057"
       id="linearGradient4063"
       x1="241.91814"
       y1="209.16646"
       x2="230.18149"
       y2="227.97607"
       gradientUnits="userSpaceOnUse" />
    <linearGradient
       inkscape:collect="always"
       xlink:href="#linearGradient4057"
       id="linearGradient4111"
       gradientUnits="userSpaceOnUse"
       x1="241.91814"
       y1="209.16646"
       x2="230.18149"
       y2="227.97607" />
  </defs>
  <sodipodi:namedview
     id="base"
     pagecolor="#ffffff"
     bordercolor="#666666"
     borderopacity="1.0"
     gridtolerance="10000"
     guidetolerance="10"
     objecttolerance="10"
     inkscape:pageopacity="0.0"
     inkscape:pageshadow="2"
     inkscape:zoom="1.400745"
     inkscape:cx="166.82848"
     inkscape:cy="202.74925"
     inkscape:document-units="px"
     inkscape:current-layer="layer3"
     showgrid="false"
     inkscape:window-width="904"
     inkscape:window-height="783"
     inkscape:window-x="203"
     inkscape:window-y="0" />
  <metadata
     id="metadata7">
    <rdf:RDF>
      <cc:Work
         rdf:about="">
        <dc:format>image/svg+xml</dc:format>
        <dc:type
           rdf:resource="http://purl.org/dc/dcmitype/StillImage" />
      </cc:Work>
    </rdf:RDF>
  </metadata>
  <g
     inkscape:label="cactus"
     inkscape:groupmode="layer"
     id="layer1"
     style="display:inline"
     transform="translate(-191.18678,-132.69277)" />
  <g
     inkscape:groupmode="layer"
     id="layer3"
     inkscape:label="tuigje"
     style="display:inline"
     transform="translate(-191.18678,-132.69277)">
    <path
       style="fill:#00ff00;fill-opacity:1;stroke:#0000ff;stroke-width:4;stroke-linecap:round;stroke-linejoin:round;stroke-miterlimit:4;stroke-dashoffset:0;stroke-opacity:1"
       d="M 487.5,356.5625 C 486.40833,356.58032 485.3217,356.62426 484.25,356.65625 C 466.38816,357.18937 449.42559,356.54263 448.5625,386.65625 L 448.5625,533.0625 L 522.84375,507.3125 L 522.84375,386.65625 C 521.86966,358.4276 503.87509,356.29515 487.5,356.5625 z M 485.6875,373.53125 C 493.97928,373.53125 500.71875,380.27071 500.71875,388.5625 C 500.71874,396.85428 493.97929,403.59375 485.6875,403.59375 C 477.39571,403.59376 470.65625,396.85429 470.65625,388.5625 C 470.65626,380.27071 477.39571,373.53125 485.6875,373.53125 z"
       id="rect3250" />
    <path
       style="fill:#00ff00;fill-opacity:1;stroke:#0000ff;stroke-width:4;stroke-linecap:round;stroke-linejoin:round;stroke-miterlimit:4;stroke-dashoffset:0;stroke-opacity:1;display:inline"
       d="M 228.53053,359.69127 C 229.6222,359.70909 230.70883,359.75303 231.78053,359.78502 C 249.64237,360.31814 266.60494,359.6714 267.46803,389.78502 L 267.46803,536.19127 L 193.18678,510.44127 L 193.18678,389.78502 C 194.16087,361.55637 212.15544,359.42392 228.53053,359.69127 z M 230.34303,376.66002 C 222.05125,376.66002 215.31178,383.39948 215.31178,391.69127 C 215.31179,399.98305 222.05124,406.72252 230.34303,406.72252 C 238.63482,406.72253 245.37428,399.98306 245.37428,391.69127 C 245.37427,383.39948 238.63482,376.66002 230.34303,376.66002 z"
       id="path3256" />
    <path
       sodipodi:type="arc"
       style="opacity:1;fill:url(#linearGradient4063);fill-opacity:1;stroke:#800000;stroke-width:2.33899999;stroke-linecap:round;stroke-linejoin:round;stroke-miterlimit:4;stroke-dasharray:none;stroke-dashoffset:0;stroke-opacity:1"
       id="path3267"
       sodipodi:cx="237.12277"
       sodipodi:cy="220.82304"
       sodipodi:rx="9.6565838"
       sodipodi:ry="9.6565838"
       d="M 246.77936,220.82304 A 9.6565838,9.6565838 0 1 1 227.46619,220.82304 A 9.6565838,9.6565838 0 1 1 246.77936,220.82304 z"
       transform="translate(-1.3406447,-70.706636)" />
    <path
       style="fill:none;fill-rule:evenodd;stroke:#ffff00;stroke-width:3.48176098;stroke-linecap:butt;stroke-linejoin:miter;stroke-miterlimit:4;stroke-dasharray:none;stroke-opacity:1"
       d="M 231.00635,378.81302 C 231.00635,378.81302 248.44927,160.51125 248.45129,151.85955 C 248.45332,143.20586 243.25886,137.5991 235.99276,137.48158 C 228.72667,137.36404 222.79941,142.68099 222.75532,152.11494 C 222.71124,161.54887 227.79505,357.6515 227.79505,357.6515"
       id="path4065"
       sodipodi:nodetypes="czzzc" />
    <path
       sodipodi:type="arc"
       style="opacity:1;fill:#ffff00;fill-opacity:1;stroke:#ffff00;stroke-width:3;stroke-linecap:round;stroke-linejoin:round;stroke-miterlimit:4;stroke-dasharray:none;stroke-dashoffset:0;stroke-opacity:1"
       id="path4067"
       sodipodi:cx="228.53268"
       sodipodi:cy="380.14667"
       sodipodi:rx="1.098055"
       sodipodi:ry="1.1666834"
       d="M 229.63074,380.14667 A 1.098055,1.1666834 0 1 1 227.43463,380.14667 A 1.098055,1.1666834 0 1 1 229.63074,380.14667 z"
       transform="matrix(0.7669433,0,0,0.6630054,55.641627,127.46973)" />
    <path
       style="fill:none;fill-rule:evenodd;stroke:#ffff00;stroke-width:3;stroke-linecap:butt;stroke-linejoin:miter;stroke-miterlimit:4;stroke-dasharray:none;stroke-opacity:1"
       d="M 239.51324,302.25338 C 245.016,303.11423 251.01354,297.88584 253.78796,293.74345 C 255.03883,291.87582 256.25802,288.11212 254.88601,286.33158 C 253.74805,284.85479 250.36553,284.78896 248.70946,285.64529 C 243.65051,288.2612 243.10877,297.74193 239.51324,302.25338 z"
       id="path4069"
       sodipodi:nodetypes="csssc" />
    <path
       style="fill:none;fill-rule:evenodd;stroke:#ffff00;stroke-width:3;stroke-linecap:butt;stroke-linejoin:miter;stroke-miterlimit:4;stroke-dasharray:none;stroke-opacity:1;display:inline"
       d="M 240.04695,303.83812 C 244.32716,302.25556 250.328,304.72038 253.47734,307.03173 C 254.89724,308.07382 256.70215,310.40985 255.97415,311.86832 C 255.37036,313.07798 252.63898,313.73598 251.10922,313.45444 C 246.43615,312.59438 243.94274,306.25133 240.04695,303.83812 z"
       id="path4071"
       sodipodi:nodetypes="csssc" />
    <path
       style="opacity:1;fill:none;fill-opacity:1;stroke:#ffff00;stroke-width:3;stroke-linecap:round;stroke-linejoin:round;stroke-miterlimit:4;stroke-dasharray:none;stroke-dashoffset:0;stroke-opacity:1"
       d="M 237.45439,304.31223 C 236.82612,304.5297 235.10089,305.1753 234.02297,305.82206 C 232.62646,306.65996 232.23863,307.54278 232.23863,309.11622 C 232.23863,310.34448 232.62915,311.77635 232.92491,312.95942 C 233.25941,314.29739 233.75244,315.37833 234.84651,316.25358 C 235.92429,317.11581 237.27683,317.37597 238.00342,318.58695 C 238.65672,319.6758 238.38523,321.21227 238.6897,322.43014 C 238.73545,322.61315 238.7812,322.79616 238.82696,322.97917 C 239.09786,324.0628 239.22189,325.10708 239.78775,325.86156 C 239.92515,326.04476 239.96347,326.03728 240.06227,326.13608"
       id="path4073" />
    <path
       style="opacity:1;fill:none;fill-opacity:1;stroke:#ffff00;stroke-width:3;stroke-linecap:round;stroke-linejoin:round;stroke-miterlimit:4;stroke-dasharray:none;stroke-dashoffset:0;stroke-opacity:1"
       d="M 237.59164,304.44949 C 237.80669,304.73621 238.07622,306.10493 238.41519,306.78286 C 239.00572,307.96392 239.17767,309.26862 239.78775,310.48879 C 240.36466,311.64261 240.72236,312.9919 241.02307,314.19473 C 241.23351,315.03649 241.63797,315.97355 241.98386,316.66535"
       id="path4077" />
    <path
       sodipodi:type="arc"
       style="fill:url(#linearGradient4111);fill-opacity:1;stroke:#800000;stroke-width:2.33899999;stroke-linecap:round;stroke-linejoin:round;stroke-miterlimit:4;stroke-dasharray:none;stroke-dashoffset:0;stroke-opacity:1;display:inline"
       id="path4085"
       sodipodi:cx="237.12277"
       sodipodi:cy="220.82304"
       sodipodi:rx="9.6565838"
       sodipodi:ry="9.6565838"
       d="M 246.77936,220.82304 A 9.6565838,9.6565838 0 1 1 227.46619,220.82304 A 9.6565838,9.6565838 0 1 1 246.77936,220.82304 z"
       transform="translate(254.11502,-70.70663)" />
    <path
       style="fill:none;fill-rule:evenodd;stroke:#ffff00;stroke-width:3.48176098;stroke-linecap:butt;stroke-linejoin:miter;stroke-miterlimit:4;stroke-dasharray:none;stroke-opacity:1;display:inline"
       d="M 486.86052,375.75787 C 486.86052,375.75787 503.90494,160.51125 503.90696,151.85955 C 503.90899,143.20586 498.71453,137.5991 491.44843,137.48158 C 484.18234,137.36404 478.25508,142.68099 478.21099,152.11494 C 478.16691,161.54887 482.45372,354.72918 482.45372,354.72918"
       id="path4087"
       sodipodi:nodetypes="czzzc" />
    <path
       sodipodi:type="arc"
       style="fill:#ffff00;fill-opacity:1;stroke:#ffff00;stroke-width:3;stroke-linecap:round;stroke-linejoin:round;stroke-miterlimit:4;stroke-dasharray:none;stroke-dashoffset:0;stroke-opacity:1;display:inline"
       id="path4089"
       sodipodi:cx="228.53268"
       sodipodi:cy="380.14667"
       sodipodi:rx="1.098055"
       sodipodi:ry="1.1666834"
       d="M 229.63074,380.14667 A 1.098055,1.1666834 0 1 1 227.43463,380.14667 A 1.098055,1.1666834 0 1 1 229.63074,380.14667 z"
       transform="matrix(0.7669433,0,0,0.6630054,311.62862,124.28175)" />
    <path
       style="fill:none;fill-rule:evenodd;stroke:#ffff00;stroke-width:3;stroke-linecap:butt;stroke-linejoin:miter;stroke-miterlimit:4;stroke-dasharray:none;stroke-opacity:1;display:inline"
       d="M 503.16987,151.35563 C 508.67263,152.21648 514.67017,146.98809 517.44459,142.8457 C 518.69546,140.97807 519.91465,137.21437 518.54264,135.43383 C 517.40468,133.95704 514.02216,133.89121 512.36609,134.74754 C 507.30714,137.36345 506.7654,146.84418 503.16987,151.35563 z"
       id="path4091"
       sodipodi:nodetypes="csssc" />
    <path
       style="fill:none;fill-rule:evenodd;stroke:#ffff00;stroke-width:3;stroke-linecap:butt;stroke-linejoin:miter;stroke-miterlimit:4;stroke-dasharray:none;stroke-opacity:1;display:inline"
       d="M 503.70358,152.94037 C 507.98379,151.35781 513.98463,153.82263 517.13397,156.13398 C 518.55387,157.17607 520.35878,159.5121 519.63078,160.97057 C 519.02699,162.18023 516.29561,162.83823 514.76585,162.55669 C 510.09278,161.69663 507.59937,155.35358 503.70358,152.94037 z"
       id="path4093"
       sodipodi:nodetypes="csssc" />
    <path
       style="fill:none;fill-opacity:1;stroke:#ffff00;stroke-width:3;stroke-linecap:round;stroke-linejoin:round;stroke-miterlimit:4;stroke-dasharray:none;stroke-dashoffset:0;stroke-opacity:1;display:inline"
       d="M 501.11102,153.41448 C 500.48275,153.63195 498.75752,154.27755 497.6796,154.92431 C 496.28309,155.76221 495.89526,156.64503 495.89526,158.21847 C 495.89526,159.44673 496.28578,160.8786 496.58154,162.06167 C 496.91604,163.39964 497.40907,164.48058 498.50314,165.35583 C 499.58092,166.21806 500.93346,166.47822 501.66005,167.6892 C 502.31335,168.77805 502.04186,170.31452 502.34633,171.53239 C 502.39208,171.7154 502.43783,171.89841 502.48359,172.08142 C 502.75449,173.16505 502.87852,174.20933 503.44438,174.96381 C 503.58178,175.14701 503.6201,175.13953 503.7189,175.23833"
       id="path4095" />
    <path
       style="fill:none;fill-opacity:1;stroke:#ffff00;stroke-width:3;stroke-linecap:round;stroke-linejoin:round;stroke-miterlimit:4;stroke-dasharray:none;stroke-dashoffset:0;stroke-opacity:1;display:inline"
       d="M 501.24827,153.55174 C 501.46332,153.83846 501.73285,155.20718 502.07182,155.88511 C 502.66235,157.06617 502.8343,158.37087 503.44438,159.59104 C 504.02129,160.74486 504.37899,162.09415 504.6797,163.29698 C 504.89014,164.13874 505.2946,165.0758 505.64049,165.7676"
       id="path4097" />
  </g>
</svg>
