<?xml version="1.0" encoding="UTF-8" standalone="no"?>
<!-- Created with Inkscape (http://www.inkscape.org/) -->
<svg
   xmlns:dc="http://purl.org/dc/elements/1.1/"
   xmlns:cc="http://creativecommons.org/ns#"
   xmlns:rdf="http://www.w3.org/1999/02/22-rdf-syntax-ns#"
   xmlns:svg="http://www.w3.org/2000/svg"
   xmlns="http://www.w3.org/2000/svg"
   xmlns:xlink="http://www.w3.org/1999/xlink"
   xmlns:sodipodi="http://sodipodi.sourceforge.net/DTD/sodipodi-0.dtd"
   xmlns:inkscape="http://www.inkscape.org/namespaces/inkscape"
   width="450"
   height="100"
   id="svg2"
   sodipodi:version="0.32"
   inkscape:version="0.46"
   version="1.0"
   sodipodi:docname="i-beam.svg"
   inkscape:output_extension="org.inkscape.output.svg.inkscape">
  <defs
     id="defs4">
    <linearGradient
       id="linearGradient3188">
      <stop
         style="stop-color:#000000;stop-opacity:1;"
         offset="0"
         id="stop3190" />
      <stop
         style="stop-color:#000000;stop-opacity:0;"
         offset="1"
         id="stop3192" />
    </linearGradient>
    <linearGradient
       id="linearGradient3307">
      <stop
         id="stop3309"
         offset="0"
         style="stop-color:#000000;stop-opacity:0.84210527;" />
      <stop
         style="stop-color:#000000;stop-opacity:0;"
         offset="0.5"
         id="stop3313" />
      <stop
         id="stop3311"
         offset="1"
         style="stop-color:#000000;stop-opacity:0;" />
    </linearGradient>
    <linearGradient
       id="linearGradient3245">
      <stop
         style="stop-color:#111111;stop-opacity:1;"
         offset="0"
         id="stop3247" />
      <stop
         style="stop-color:#b6b6b6;stop-opacity:1;"
         offset="1"
         id="stop3249" />
    </linearGradient>
    <inkscape:perspective
       sodipodi:type="inkscape:persp3d"
       inkscape:vp_x="0 : 526.18109 : 1"
       inkscape:vp_y="0 : 1000 : 0"
       inkscape:vp_z="744.09448 : 526.18109 : 1"
       inkscape:persp3d-origin="372.04724 : 350.78739 : 1"
       id="perspective10" />
    <linearGradient
       inkscape:collect="always"
       xlink:href="#linearGradient3245"
       id="linearGradient3251"
       x1="39.733963"
       y1="195.78059"
       x2="107.24761"
       y2="96.306755"
       gradientUnits="userSpaceOnUse" />
    <linearGradient
       inkscape:collect="always"
       xlink:href="#linearGradient3245"
       id="linearGradient3261"
       x1="146.11707"
       y1="223.67336"
       x2="632.7229"
       y2="99.193542"
       gradientUnits="userSpaceOnUse" />
    <linearGradient
       inkscape:collect="always"
       xlink:href="#linearGradient3245"
       id="linearGradient3269"
       x1="-108.69185"
       y1="218.62175"
       x2="423.10138"
       y2="99.649902"
       gradientUnits="userSpaceOnUse" />
    <linearGradient
       inkscape:collect="always"
       xlink:href="#linearGradient3245"
       id="linearGradient3277"
       x1="35.593529"
       y1="178.85956"
       x2="504.67661"
       y2="47.770191"
       gradientUnits="userSpaceOnUse" />
    <linearGradient
       inkscape:collect="always"
       xlink:href="#linearGradient3245"
       id="linearGradient3285"
       x1="84.405289"
       y1="161.83388"
       x2="726.7608"
       y2="164.17072"
       gradientUnits="userSpaceOnUse" />
    <linearGradient
       inkscape:collect="always"
       xlink:href="#linearGradient3245"
       id="linearGradient3293"
       x1="66.07312"
       y1="186.57309"
       x2="478.42142"
       y2="186.57309"
       gradientUnits="userSpaceOnUse" />
    <linearGradient
       inkscape:collect="always"
       xlink:href="#linearGradient3245"
       id="linearGradient3301"
       x1="36.279472"
       y1="178.84254"
       x2="57.35136"
       y2="178.84254"
       gradientUnits="userSpaceOnUse" />
    <linearGradient
       inkscape:collect="always"
       xlink:href="#linearGradient3307"
       id="linearGradient3305"
       gradientUnits="userSpaceOnUse"
       x1="306.18021"
       y1="128.39128"
       x2="305.85614"
       y2="161.88925"
       gradientTransform="translate(2e-6,-2e-6)" />
    <linearGradient
       inkscape:collect="always"
       xlink:href="#linearGradient3245"
       id="linearGradient3194"
       x1="261.19229"
       y1="160.60739"
       x2="282.39737"
       y2="160.60739"
       gradientUnits="userSpaceOnUse" />
    <linearGradient
       inkscape:collect="always"
       xlink:href="#linearGradient3245"
       id="linearGradient3242"
       x1="276.45645"
       y1="161.19264"
       x2="286.06738"
       y2="152.91655"
       gradientUnits="userSpaceOnUse" />
    <linearGradient
       inkscape:collect="always"
       xlink:href="#linearGradient3245"
       id="linearGradient3244"
       x1="269.46747"
       y1="161.27481"
       x2="277.73672"
       y2="152.53152"
       gradientUnits="userSpaceOnUse" />
    <linearGradient
       inkscape:collect="always"
       xlink:href="#linearGradient3245"
       id="linearGradient3246"
       x1="261.57281"
       y1="161.86008"
       x2="270.51636"
       y2="152.78307"
       gradientUnits="userSpaceOnUse" />
  </defs>
  <sodipodi:namedview
     id="base"
     pagecolor="#ffffff"
     bordercolor="#666666"
     borderopacity="1.0"
     gridtolerance="10000"
     guidetolerance="10"
     objecttolerance="10"
     inkscape:pageopacity="0.0"
     inkscape:pageshadow="2"
     inkscape:zoom="0.90777778"
     inkscape:cx="225"
     inkscape:cy="50"
     inkscape:document-units="px"
     inkscape:current-layer="layer1"
     showgrid="false"
     inkscape:snap-global="true"
     showguides="true"
     inkscape:guide-bbox="true"
     inkscape:window-width="1272"
     inkscape:window-height="783"
     inkscape:window-x="0"
     inkscape:window-y="0">
    <sodipodi:guide
       orientation="0,1"
       position="232.04639,951.87364"
       id="guide2410" />
  </sodipodi:namedview>
  <metadata
     id="metadata7">
    <rdf:RDF>
      <cc:Work
         rdf:about="">
        <dc:format>image/svg+xml</dc:format>
        <dc:type
           rdf:resource="http://purl.org/dc/dcmitype/StillImage" />
      </cc:Work>
    </rdf:RDF>
  </metadata>
  <g
     inkscape:label="Layer 1"
     inkscape:groupmode="layer"
     id="layer1"
     transform="translate(-34.847972,-104.57538)">
    <path
       style="fill:url(#linearGradient3301);fill-opacity:1.0;stroke:none;stroke-width:3;stroke-linecap:round;stroke-linejoin:round;stroke-miterlimit:4;stroke-dashoffset:0;stroke-opacity:1"
       d="M 36.279471,175.57903 L 57.351361,175.57903 L 55.607973,182.10607 L 36.279471,175.57903 z"
       id="rect2434"
       sodipodi:nodetypes="cccc" />
    <path
       style="fill:url(#linearGradient3261);fill-opacity:1;stroke:none;stroke-width:3;stroke-linecap:round;stroke-linejoin:round;stroke-miterlimit:4;stroke-dashoffset:0;stroke-opacity:1"
       d="M 80.021589,189.25161 L 478.50013,188.84401 L 477.10322,204.03728 L 84.823102,204.52472 L 80.021589,189.25161 z"
       id="rect2416"
       sodipodi:nodetypes="ccccc" />
    <path
       style="fill:url(#linearGradient3285);fill-opacity:1;stroke:none;stroke-width:3;stroke-linecap:round;stroke-linejoin:round;stroke-miterlimit:4;stroke-dashoffset:0;stroke-opacity:1"
       d="M 72.195678,128.84719 L 465.03606,128.39128 L 459.98687,183.57902 L 64.931722,184.37128 L 72.195678,128.84719 z"
       id="rect2418"
       sodipodi:nodetypes="ccccc" />
    <path
       style="fill:url(#linearGradient3305);fill-opacity:1;stroke:none;stroke-width:3;stroke-linecap:round;stroke-linejoin:round;stroke-miterlimit:4;stroke-dashoffset:0;stroke-opacity:1"
       d="M 72.19568,128.84719 L 465.03606,128.39128 L 459.98687,183.57902 L 64.931724,184.37128 L 72.19568,128.84719 z"
       id="path3303"
       sodipodi:nodetypes="ccccc" />
    <path
       style="fill:url(#linearGradient3269);fill-opacity:1;stroke:none;stroke-width:3;stroke-linecap:round;stroke-linejoin:round;stroke-miterlimit:4;stroke-dashoffset:0;stroke-opacity:1"
       d="M 42.776936,105.33018 L 434.82449,104.57538 L 484.79051,118.57928 L 91.715063,120.06102 L 42.776936,105.33018 z"
       id="rect2420"
       sodipodi:nodetypes="ccccc" />
    <path
       style="fill:url(#linearGradient3293);fill-opacity:1.0;stroke:none;stroke-width:3;stroke-linecap:round;stroke-linejoin:round;stroke-miterlimit:4;stroke-dashoffset:0;stroke-opacity:1"
       d="M 66.073118,184.34226 L 459.9168,183.52855 L 478.42141,188.84701 L 79.12557,189.61764 L 66.073118,184.34226 z"
       id="rect2424"
       sodipodi:nodetypes="ccccc" />
    <path
       style="fill:url(#linearGradient3251);fill-opacity:1;stroke:none;stroke-width:3;stroke-linecap:round;stroke-linejoin:round;stroke-miterlimit:4;stroke-dashoffset:0;stroke-opacity:1"
       d="M 42.579138,105.30199 L 41.221295,120.26918 L 59.773575,125.48295 L 54.758095,180.76744 L 36.205815,175.55366 L 34.847972,190.52085 L 84.858465,204.57538 L 86.216307,189.6082 L 67.695052,184.40313 L 72.710532,129.11866 L 91.231788,134.32371 L 92.589631,119.35653 L 42.579138,105.30199 z"
       id="rect2383" />
    <path
       style="fill:url(#linearGradient3277);fill-opacity:1;stroke:none;stroke-width:3;stroke-linecap:round;stroke-linejoin:round;stroke-miterlimit:4;stroke-dashoffset:0;stroke-opacity:1"
       d="M 92.562893,119.38852 L 484.84797,118.60097 L 483.5099,133.52995 L 91.22388,134.46695 L 92.562893,119.38852 z"
       id="rect2422"
       sodipodi:nodetypes="ccccc" />
    <path
       style="font-size:12px;font-style:normal;font-variant:normal;font-weight:normal;font-stretch:normal;text-align:start;line-height:125%;writing-mode:lr-tb;text-anchor:start;fill:url(#linearGradient3246);fill-opacity:1;stroke:none;stroke-width:1px;stroke-linecap:butt;stroke-linejoin:miter;stroke-opacity:1;font-family:Bitstream Vera Sans;-inkscape-font-specification:Bitstream Vera Sans"
       d="M 265.14737,160.25876 C 265.71377,160.37986 266.15518,160.63181 266.47159,161.01462 C 266.79189,161.39743 266.95205,161.87009 266.95206,162.43259 C 266.95205,163.29587 266.65518,163.96384 266.06143,164.43649 C 265.46768,164.90915 264.62393,165.14548 263.53018,165.14548 C 263.16299,165.14548 262.78409,165.10837 262.39346,165.03415 C 262.00674,164.96384 261.60635,164.85641 261.19229,164.71188 L 261.19229,163.56931 C 261.52042,163.76071 261.87979,163.90524 262.27042,164.0029 C 262.66104,164.10056 263.06924,164.14938 263.49503,164.14938 C 264.23721,164.14938 264.80166,164.0029 265.18839,163.70993 C 265.579,163.41696 265.77432,162.99118 265.77432,162.43259 C 265.77432,161.91696 265.59268,161.51462 265.2294,161.22556 C 264.87002,160.93259 264.36807,160.78611 263.72354,160.7861 L 262.70401,160.7861 L 262.70401,159.81345 L 263.77042,159.81345 C 264.35244,159.81345 264.79776,159.69822 265.10635,159.46774 C 265.41494,159.23337 265.56924,158.89744 265.56924,158.45993 C 265.56924,158.01072 265.40908,157.66697 265.08878,157.42868 C 264.77236,157.1865 264.31729,157.06541 263.72354,157.0654 C 263.39932,157.06541 263.05166,157.10056 262.68057,157.17087 C 262.30948,157.24119 261.90127,157.35056 261.45596,157.49899 L 261.45596,156.44431 C 261.90518,156.31931 262.3251,156.22556 262.71573,156.16306 C 263.11026,156.10056 263.48135,156.06931 263.82901,156.06931 C 264.72744,156.06931 265.43838,156.27439 265.96182,156.68454 C 266.48525,157.0908 266.74697,157.64158 266.74698,158.33688 C 266.74697,158.82126 266.6083,159.23142 266.33096,159.56735 C 266.05361,159.89939 265.65908,160.12986 265.14737,160.25876"
       id="path3206" />
    <path
       id="path3204"
       style="font-size:12px;font-style:normal;font-variant:normal;font-weight:normal;font-stretch:normal;text-align:start;line-height:125%;writing-mode:lr-tb;text-anchor:start;fill:url(#linearGradient3244);fill-opacity:1;stroke:none;stroke-width:1px;stroke-linecap:butt;stroke-linejoin:miter;stroke-opacity:1;font-family:Bitstream Vera Sans;-inkscape-font-specification:Bitstream Vera Sans"
       d="M 271.73331,160.82126 C 271.1708,160.82126 270.72744,160.97165 270.40323,161.27243 C 270.08291,161.57322 269.92276,161.98728 269.92276,162.51462 C 269.92276,163.04196 270.08291,163.45603 270.40323,163.75681 C 270.72744,164.05759 271.1708,164.20798 271.73331,164.20798 C 272.2958,164.20798 272.73916,164.05759 273.06339,163.75681 C 273.3876,163.45212 273.54971,163.03806 273.54971,162.51462 C 273.54971,161.98728 273.3876,161.57322 273.06339,161.27243 C 272.74307,160.97165 272.29971,160.82126 271.73331,160.82126M 270.54971,160.31735 C 270.0419,160.19236 269.64541,159.95603 269.36026,159.60837 C 269.07901,159.26072 268.93838,158.83689 268.93839,158.33688 C 268.93838,157.63767 269.18643,157.08494 269.68253,156.67868 C 270.18252,156.27244 270.86612,156.06931 271.73331,156.06931 C 272.6044,156.06931 273.28799,156.27244 273.78409,156.67868 C 274.28018,157.08494 274.52822,157.63767 274.52823,158.33688 C 274.52822,158.83689 274.38564,159.26072 274.10049,159.60837 C 273.81924,159.95603 273.42666,160.19236 272.92276,160.31735 C 273.49307,160.45017 273.93643,160.70993 274.25284,161.09665 C 274.57314,161.48337 274.7333,161.95603 274.73331,162.51462 C 274.7333,163.36228 274.47353,164.01267 273.95401,164.46579 C 273.43838,164.91891 272.69815,165.14548 271.73331,165.14548 C 270.76846,165.14548 270.02627,164.91891 269.50674,164.46579 C 268.99112,164.01267 268.73331,163.36228 268.73331,162.51462 C 268.73331,161.95603 268.89346,161.48337 269.21378,161.09665 C 269.53409,160.70993 269.9794,160.45017 270.54971,160.31735M 270.11612,158.44821 C 270.11612,158.90134 270.25674,159.25486 270.53799,159.50876 C 270.82315,159.76267 271.22158,159.88962 271.73331,159.88962 C 272.24112,159.88962 272.6376,159.76267 272.92276,159.50876 C 273.21182,159.25486 273.35635,158.90134 273.35635,158.44821 C 273.35635,157.99509 273.21182,157.64158 272.92276,157.38766 C 272.6376,157.13377 272.24112,157.00681 271.73331,157.00681 C 271.22158,157.00681 270.82315,157.13377 270.53799,157.38766 C 270.25674,157.64158 270.11612,157.99509 270.11612,158.44821" />
    <path
       id="path3198"
       style="font-size:12px;font-style:normal;font-variant:normal;font-weight:normal;font-stretch:normal;text-align:start;line-height:125%;writing-mode:lr-tb;text-anchor:start;fill:url(#linearGradient3242);fill-opacity:1;stroke:none;stroke-width:1px;stroke-linecap:butt;stroke-linejoin:miter;stroke-opacity:1;font-family:Bitstream Vera Sans;-inkscape-font-specification:Bitstream Vera Sans"
       d="M 279.37393,157.00681 C 278.76455,157.00681 278.30557,157.30759 277.99698,157.90915 C 277.69229,158.50681 277.53995,159.4072 277.53995,160.61032 C 277.53995,161.80954 277.69229,162.70993 277.99698,163.31149 C 278.30557,163.90915 278.76455,164.20798 279.37393,164.20798 C 279.98721,164.20798 280.44619,163.90915 280.75089,163.31149 C 281.05947,162.70993 281.21377,161.80954 281.21378,160.61032 C 281.21377,159.4072 281.05947,158.50681 280.75089,157.90915 C 280.44619,157.30759 279.98721,157.00681 279.37393,157.00681M 279.37393,156.06931 C 280.3544,156.06931 281.10244,156.45799 281.61807,157.23532 C 282.1376,158.00877 282.39736,159.13376 282.39737,160.61032 C 282.39736,162.08298 282.1376,163.20798 281.61807,163.98532 C 281.10244,164.75876 280.3544,165.14548 279.37393,165.14548 C 278.39346,165.14548 277.64346,164.75876 277.12393,163.98532 C 276.60831,163.20798 276.35049,162.08298 276.35049,160.61032 C 276.35049,159.13376 276.60831,158.00877 277.12393,157.23532 C 277.64346,156.45799 278.39346,156.06931 279.37393,156.06931" />
  </g>
</svg>
