<?xml version="1.0" encoding="UTF-8" standalone="no"?>
<svg
   xmlns:dc="http://purl.org/dc/elements/1.1/"
   xmlns:cc="http://creativecommons.org/ns#"
   xmlns:rdf="http://www.w3.org/1999/02/22-rdf-syntax-ns#"
   xmlns:svg="http://www.w3.org/2000/svg"
   xmlns="http://www.w3.org/2000/svg"
   xmlns:xlink="http://www.w3.org/1999/xlink"
   xmlns:sodipodi="http://sodipodi.sourceforge.net/DTD/sodipodi-0.dtd"
   xmlns:inkscape="http://www.inkscape.org/namespaces/inkscape"
   id="svg2928"
   viewBox="0 0 3663.1849 1660.0425"
   version="1.1"
   inkscape:version="0.48.4 r9939"
   width="100%"
   height="100%"
   sodipodi:docname="penguin_gliding.svg">
  <sodipodi:namedview
     pagecolor="#ffffff"
     bordercolor="#666666"
     borderopacity="1"
     objecttolerance="10"
     gridtolerance="10"
     guidetolerance="10"
     inkscape:pageopacity="0"
     inkscape:pageshadow="2"
     inkscape:window-width="1366"
     inkscape:window-height="723"
     id="namedview112"
     showgrid="false"
     inkscape:zoom="0.33140561"
     inkscape:cx="1831.5924"
     inkscape:cy="831.52996"
     inkscape:window-x="-4"
     inkscape:window-y="-6"
     inkscape:window-maximized="1"
     inkscape:current-layer="svg2928"
     fit-margin-top="0"
     fit-margin-left="0"
     fit-margin-right="0"
     fit-margin-bottom="0"
     showguides="true"
     inkscape:guide-bbox="true" />
  <defs
     id="defs2932">
    <filter
       id="filter4171"
       y="-2.4546001"
       width="2.2413001"
       height="5.9092999"
       x="-0.62066001"
       color-interpolation-filters="sRGB">
      <feGaussianBlur
         id="feGaussianBlur4173"
         stdDeviation="2.4929408" />
    </filter>
    <radialGradient
       id="radialGradient4233"
       gradientUnits="userSpaceOnUse"
       cy="146.98"
       cx="2460.1001"
       gradientTransform="matrix(-0.024447,-0.2575,1.0845,-0.10296,2315.8,786.74)"
       r="181.64">
      <stop
         id="stop4215"
         stop-color="#fff"
         offset="0" />
      <stop
         id="stop4207"
         stop-color="#808080"
         offset="1" />
    </radialGradient>
    <radialGradient
       id="radialGradient4233-2"
       xlink:href="#linearGradient4203-9"
       gradientUnits="userSpaceOnUse"
       cy="226.12"
       cx="1229.1"
       gradientTransform="matrix(0.26049,-0.48682,0.89522,0.47902,1989.2,907.45)"
       r="181.64" />
    <linearGradient
       id="linearGradient4203-9">
      <stop
         id="stop4215-2"
         stop-color="#fff"
         offset="0" />
      <stop
         id="stop4207-8"
         stop-color="#808080"
         offset="1" />
    </linearGradient>
    <radialGradient
       id="radialGradient4296"
       xlink:href="#linearGradient4203-9"
       gradientUnits="userSpaceOnUse"
       cy="609.72998"
       cx="1692.3"
       gradientTransform="matrix(0.13115,0.2549,-0.73984,0.38065,1829.2,-264.04)"
       r="239.14999" />
    <radialGradient
       id="radialGradient4304"
       xlink:href="#linearGradient4203-9"
       gradientUnits="userSpaceOnUse"
       cy="99.168999"
       cx="1756.6"
       gradientTransform="matrix(0.64417,0.12576,-0.035432,0.18149,618.09,-113.88)"
       r="168.39" />
  </defs>
  <path
     inkscape:connector-curvature="0"
     id="path2976"
     style="color:#000000;fill:#ffcc00;stroke:#000000;stroke-width:8.82999992"
     d="m 2799.8594,842.41624 c 19.4412,12.22918 29.5247,61.59641 -0.4742,71.83401 -30.0374,28.68675 -68.1504,35.4463 -102.7188,27.74133 -13.2945,-15.53058 19.5503,-37.4342 26.9383,-50.92042 18.0301,-17.60995 50.6271,-48.73037 76.252,-48.65367 z"
     inkscape:transform-center-x="-238.30699"
     inkscape:transform-center-y="-737.50282" />
  <path
     inkscape:connector-curvature="0"
     id="path3913-4"
     d="m 2752.7471,867.69973 a 10.579,10.579 0 1 0 0.1947,-0.64298"
     style="color:#000000;fill:#d40000"
     inkscape:transform-center-x="-245.33808"
     inkscape:transform-center-y="-760.73912" />
  <path
     inkscape:connector-curvature="0"
     id="path3913-50"
     d="m 2786.6928,852.07318 a 10.579,10.579 0 1 0 0.1946,-0.64297"
     style="color:#000000;fill:#d40000"
     inkscape:transform-center-x="-279.28415"
     inkscape:transform-center-y="-776.36706" />
  <path
     inkscape:connector-curvature="0"
     id="path3913-689"
     d="m 2737.3548,929.37957 a 10.579,10.579 0 1 0 0.1948,-0.64297"
     style="color:#000000;fill:#d40000"
     inkscape:transform-center-x="-229.94538"
     inkscape:transform-center-y="-699.05779" />
  <path
     inkscape:connector-curvature="0"
     id="path2980"
     d="m 2828.9301,918.0081 c 24.8068,7.4617 0.1793,41.55688 -15.9293,46.59813 -31.0725,9.54342 -29.0754,-32.26971 -6.7984,-38.64863 6.6984,-4.42334 14.5523,-7.92662 22.7288,-7.94901 z"
     style="color:#000000;fill:#ffcc00"
     inkscape:transform-center-x="-296.88958"
     inkscape:transform-center-y="-689.16985" />
  <path
     inkscape:connector-curvature="0"
     id="path2978"
     d="m 2875.2941,938.72097 c 48.5653,-25.0869 47.7873,29.56198 15.9133,38.07904 -15.7927,9.60128 -88.5552,59.99969 -78.8366,13.49721 -6.7907,-11.04692 43.7355,-45.32011 62.9233,-51.57566 z"
     style="color:#000000;fill:#ffcc00"
     inkscape:transform-center-x="-344.95649"
     inkscape:transform-center-y="-660.23211" />
  <path
     inkscape:connector-curvature="0"
     id="path3913-3"
     d="m 2843.1543,961.84042 a 10.579,10.579 0 1 0 0.1948,-0.64298"
     style="color:#000000;fill:#d40000"
     inkscape:transform-center-x="-335.74489"
     inkscape:transform-center-y="-666.59699" />
  <path
     inkscape:connector-curvature="0"
     id="path3913-7"
     d="m 2820.5835,985.23718 a 10.579,10.579 0 1 0 0.1948,-0.64297"
     style="color:#000000;fill:#d40000"
     inkscape:transform-center-x="-313.17408"
     inkscape:transform-center-y="-643.20018" />
  <path
     inkscape:connector-curvature="0"
     id="path3913-71"
     d="m 2820.8527,932.07402 a 10.579,10.579 0 1 0 0.1948,-0.64297"
     style="color:#000000;fill:#d40000"
     inkscape:transform-center-x="-313.44328"
     inkscape:transform-center-y="-696.36334" />
  <path
     inkscape:connector-curvature="0"
     id="path3913-6"
     d="m 2771.4577,915.51606 a 10.579,10.579 0 1 0 0.1948,-0.64297"
     style="color:#000000;fill:#d40000"
     inkscape:transform-center-x="-264.04828"
     inkscape:transform-center-y="-712.9213" />
  <path
     inkscape:connector-curvature="0"
     id="path3913-68"
     d="m 2844.234,991.85062 a 10.579,10.579 0 1 0 0.1948,-0.64297"
     style="color:#000000;fill:#d40000"
     inkscape:transform-center-x="-336.82458"
     inkscape:transform-center-y="-636.58674" />
  <path
     inkscape:connector-curvature="0"
     id="path3913-52"
     d="m 2872.0813,967.95519 a 10.579,10.579 0 1 0 0.1948,-0.64297"
     style="color:#000000;fill:#d40000"
     inkscape:transform-center-x="-364.67188"
     inkscape:transform-center-y="-660.48217" />
  <path
     inkscape:connector-curvature="0"
     id="path3913-0"
     d="m 2889.0523,941.54392 a 10.579,10.579 0 1 0 0.1947,-0.64297"
     style="color:#000000;fill:#d40000"
     inkscape:transform-center-x="-381.64326"
     inkscape:transform-center-y="-686.89488" />
  <path
     inkscape:connector-curvature="0"
     id="path3913-07"
     d="m 2864.3164,942.12318 a 10.579,10.579 0 1 0 0.1947,-0.64297"
     style="color:#000000;fill:#d40000"
     inkscape:transform-center-x="-356.90736"
     inkscape:transform-center-y="-686.31561" />
  <path
     id="path2940"
     d="m 2372.4166,1508.5141 c 117.3896,-80.6157 189.7399,-184.4987 256.0664,-308.9909 18.9316,-28.5711 36.4889,-78.3814 68.7292,-95.9958 16.2215,-18.6407 34.2159,-35.9289 49.9387,-55.2746 7.6264,-11.0338 35.6287,-41.3556 37.026,-53.67771 -0.091,-0.9582 0.2751,-1.78397 0.809,-1.83463 0.5337,-0.0506 0.8438,1.16298 0.6888,2.69698 2.2044,14.76276 10.8815,28.34286 25.0713,33.78176 25.5553,8.0037 40.3323,-0.7952 58.9917,-16.9183 7.6151,-6.3414 17.317,-7.6257 25.6676,-13.13845 38.0381,-25.72429 40.6808,-47.03423 21.6426,-86.38375 29.2686,-10.07057 60.5218,-9.82159 90.616,-15.53255 62.5908,-20.10252 125.2406,-63.61529 177.9496,-103.17131 49.5972,-36.14682 95.8462,-69.36425 137.1752,-115.47457 33.3078,-34.09889 42.538,-72.64318 79.6483,-103.08492 -0.045,-0.47278 0.8233,-0.9454 1.9293,-1.05034 32.3281,-13.17378 60.5589,-34.59437 88.67,-55.11565 26.4467,-17.36694 52.6856,-35.0828 79.4459,-51.97023 31.2465,-26.82765 89.7088,-66.96073 90.7027,-114.14863 -7.2581,-24.01576 -46.4026,-50.06147 -66.8403,-62.02733 -68.9563,-35.93878 -140.8242,-44.82555 -217.3301,-47.19405 -21.604,0.0589 -65.5119,4.33947 -82.294,-3.72679 -4.7659,-17.61557 -6.5771,-21.70376 -32.7282,-73.87871 -30.0948,-58.88141 -140.668,-132.524478 -191.359,-145.062036 -163.6544,-40.465408 -175.621,-17.9493076 -315.5436,22.310256 -92.8191,26.707552 -101.1454,76.29182 -188.6732,143.44439 -76.3131,94.42815 -113.098,139.07567 -185.6565,209.32402 -36.7899,33.40572 -78.389,53.52835 -122.6509,76.30035 -43.6113,19.65463 -98.9327,32.07107 -145.9976,22.81454 l -533.5142,-37.82605 c -109.9478,3.00461 -217.0102,26.25579 -326.424,37.42918 -95.2701,8.37216 -186.2448,37.77144 -277.76929,63.2281 -88.19416,26.36111 -226.95988,93.20949 -313.95204,122.18173 -302.65759,109.09728 -472.38161,103.32739 -516.12338,171.75343 16.01212,4.70566 86.59172,54.11011 101.49251,61.5538 50.76198,31.62019 103.58569,62.28233 149.53448,100.94567 42.58344,27.8731 69.2629,54.1704 98.72348,96.5761 7.0784,14.934 23.2888,24.9475 14.3252,40.3552 -5.12577,8.319 -9.87325,21.1603 -11.99026,32.4286 -2.36244,12.5785 -0.57982,42.5893 3.47092,58.4335 l 15.47068,48.9655 c -17.57695,19.4745 -20.26108,35.0768 -44.24303,49.7097 -9.11359,4.1578 -17.17488,12.9142 -27.66504,13.2185 -2.31199,-0.6527 -25.64358,-19.7208 -30.35407,-24.8065 -18.49676,-17.5945 -34.03081,-39.3654 -44.94579,-62.561 -10.05551,-17.1107 -0.10581,-37.0588 -26.45574,-27.0519 -13.80933,11.7973 -22.30802,30.559 -25.73067,48.2022 -2.73835,18.5286 1.20505,37.1553 0.9662,55.6375 -13.79273,-8.1834 -28.38056,-15.3988 -43.2727,-21.5868 -7.48052,-3.9016 -12.58016,-9.7381 -21.49016,-8.988 -15.09855,0.095 -16.5302,13.0388 -23.68392,22.315 -5.37976,-3.6014 -10.83225,-7.6728 -16.39424,-11.2416 -16.2555,-7.5352 -32.03118,-27.0572 -49.71264,-29.6867 -4.33868,0.4258 -12.2539,5.3661 -14.77493,9.2219 -6.47249,9.8984 -7.05468,11.6083 -9.42195,27.6738 -9.60643,40.6663 27.84174,78.3282 28.30825,115.3517 -26.14354,2.1529 -47.48543,1.6294 -70.730229,-1.7353 -24.62205,-0.7405 -48.46585,-12.1541 -72.986615,-12.2824 -12.963523,1.6985 -21.6883278,9.8838 -24.5962508,23.0748 -2.29654,11.8438 18.9869328,34.2776 28.4915468,41.8054 14.229706,10.8302 30.406506,20.0132 44.582049,25.3077 6.72494,2.5118 12.13347,4.9883 12.01961,5.5034 -16.21722,14.2095 -89.5701058,1.2325 -73.438365,35.8867 23.497448,19.0164 65.840105,36.3912 95.344284,39.4849 35.95169,6.5202 76.88863,9.663 113.96492,9.7953 61.78547,-2.2001 124.36619,-14.714 181.17226,-39.5694 38.08277,-14.2332 73.25925,-34.1541 107.73053,-55.5893 25.14085,-16.6685 50.13348,-30.654 75.01703,-48.4882 12.37701,-2.3431 25.36357,0.043 40.7985,-1.2698 166.86108,-26.8365 354.83157,42.9239 510.37036,94.0888 8.2172,2.6978 46.1597,-7.3275 54.3974,-4.7038 3.8758,7.6753 -36.1315,47.9268 -39.5048,55.1357 -5.9496,105.1902 169.8845,1.8662 227.1996,-14.6452 l 111.6887,2.7759 c 314.3377,-13.4943 621.0494,95.0475 882.4109,-93.0288 z m -270.9238,-447.4295 c 0.1424,1.0453 -0.037,1.6557 -0.3989,1.3563 -0.3622,-0.2995 -0.4791,-1.1547 -0.2598,-1.9007 0.6642,-0.4196 0.2531,-0.6052 0.6587,0.5444 z m 717.8088,-69.35056 c 3.8591,-20.82367 56.4652,-59.24189 73.8058,-57.69504 42.9379,7.82087 7.6981,36.50203 -24.1984,52.47154 -7.2321,9.41105 -44.9597,19.07036 -49.6075,5.22281 z m -25.3606,-35.23188 c -7.8077,-5.17911 8.1064,-29.12098 18.8611,-32.42771 10.2475,-10.40957 32.4105,0.37664 21.1274,22.97093 -7.6805,11.20765 -25.3607,26.07027 -39.9885,9.45688 z m -46.5989,-19.31442 c -17.4021,0.34713 -77.0894,16.21032 -45.8792,-12.81937 10.179,-25.52871 52.0479,-48.95861 84.1559,-72.42361 31.3519,-7.87938 38.5316,36.82178 18.3615,58.42877 -6.4276,-5.20098 -36.7339,21.09036 -56.6382,26.81421 z m 91.4549,-98.49169 c -4.3978,-7.33275 -11.6741,-14.35439 -18.5464,-17.89604 -11.6007,-5.97899 -21.2824,-14.47429 -37.9105,-8.47872 -4.2599,0.68327 3.7851,-8.51333 4.9889,-9.72968 5.1762,-3.60016 7.735,-10.10185 12.9252,-13.50336 82.1397,-84.8216 144.9401,-182.58819 221.0549,-275.06187 34.543,-32.90624 60.9636,-47.3416 106.7238,-61.96472 42.6237,29.16599 79.9006,47.86226 120.1167,73.9911 27.7329,17.95251 52.3416,25.46545 74.9515,49.78939 -27.5074,95.60801 -114.3315,161.01028 -198.3896,208.62371 -30.2519,21.01771 -62.3679,40.74575 -94.5199,59.15229 -29.343,17.53228 -63.891,15.71653 -96.3479,22.05007 -22.754,4.59089 -51.1229,27.3727 -73.0415,35.33686 l -13.2566,-12.6744 c -1.8784,-14.39292 -1.8938,-37.01363 -8.7401,-49.62931 z M 2458.8351,374.37566 c 25.6379,-22.98063 41.526,-53.18055 59.2749,-81.99002 69.3945,-90.04297 152.1424,-163.74428 253.0565,-218.230758 51.8509,-20.050724 58.7519,-26.506495 113.81,-34.605755 53.6969,-2.553476 146.1857,-10.882835 194.7227,12.724494 55.2752,33.143674 151.3712,70.124369 159.0705,140.572079 25.1144,42.16613 -24.506,19.83364 -53.5198,13.38639 -21.9209,-5.51381 -28.1507,-4.55031 -50.6614,-3.21637 -22.3838,1.32634 -49.4852,11.58238 -56.2524,30.96533 -8.2847,23.72671 -27.3642,58.34182 -9.4391,89.58024 15.3716,26.79074 36.6116,53.82821 55.456,78.38891 8.3471,13.18244 -65.7189,26.21031 -77.8249,31.64319 -43.981,32.98214 -83.8958,71.46978 -123.4979,109.61034 -60.6209,80.36088 -102.8849,166.99574 -174.7977,238.43843 -269.446,250.86544 -481.7335,-206.89626 -289.3974,-407.2665 z m 234.8546,504.24643 c 26.0936,-24.50851 44.1715,-42.59913 48.8564,-40.22808 13.6257,13.41987 -62.0546,46.30201 -48.8564,40.22808 z m 661.2691,-333.088 c -23.206,-24.68826 -73.3208,-48.83215 -101.7843,-66.89413 -30.1842,-15.65869 157.8332,-10.29569 217.9164,-41.15944 54.8876,-18.60815 96.2984,-63.96281 138.199,-57.68285 -31.2959,44.90617 -86.3687,79.15675 -131.7258,107.48206 -22.6978,10.93212 -102.3493,78.53056 -122.6073,58.23346 z M 3309.8132,442.3875 c -44.7755,13.31414 -87.6628,-8.86863 -102.8286,-7.18547 -17.634,7.02722 57.4753,-65.42896 65.7326,-76.06454 20.6953,-28.12976 31.6686,-47.00175 36.4936,-62.76 l 3.4155,-11.11234 c 36.6381,-0.59024 73.4122,-2.79516 110.052,-0.84891 59.0023,6.7174 134.8898,21.87851 178.1243,64.76316 -28.7889,12.65865 -57.9507,26.85136 -87.4524,38.47621 -58.6644,44.33297 -125.5213,40.75657 -203.5299,54.73212 z m -155.3926,-46.44861 c -21.891,-14.08004 -34.1833,-46.92072 -49.9733,-67.1345 -39.736,-45.09904 -13.3268,-90.62334 19.6689,-103.92274 39.6919,-5.50017 113.6225,3.85794 146.1467,63.23108 -1.4422,6.91926 -15.8695,-3.38173 -19.5827,11.83468 -3.3775,-12.97898 -34.9216,-43.14307 -53.9538,-49.96168 -26.731,-0.47028 -72.5881,26.1208 -65.5293,74.58573 6.6732,45.81649 76.9709,50.06886 23.2262,71.36406 z"
     inkscape:connector-curvature="0"
     sodipodi:nodetypes="cccccsccccccccccccccccccscccccccccccccccccccccccccccccccccccscccccccccccccccsccccccccccccccccccccccccccccccccccccccccscccccccccccccccccccccccccccccccccscc"
     inkscape:transform-center-x="686.03381"
     inkscape:transform-center-y="-801.16049" />
  <path
     inkscape:connector-curvature="0"
     id="path3913-2"
     d="m 2703.4949,927.27873 a 10.579,10.579 0 1 0 0.1948,-0.64296"
     style="color:#000000;fill:#d40000"
     inkscape:transform-center-x="-196.08546"
     inkscape:transform-center-y="-701.15858" />
  <path
     inkscape:connector-curvature="0"
     id="path2968"
     d="m 3359.0513,278.62122 c 85.6402,0.24543 192.549,7.60092 259.7695,64.65812 -10.2984,19.50606 -31.7597,15.45928 -74.4763,38.93147 -54.9641,19.4853 -91.8774,47.17712 -144.504,52.31846 -65.4467,9.76024 -137.3062,28.98218 -200.0161,0.72267 11.621,-28.04116 43.601,-47.51925 60.8605,-73.54705 21.5246,-23.34872 35.9003,-53.11281 50.1735,-80.55785 14.7964,-3.98907 32.4873,-1.13247 48.1871,-2.52416 z"
     style="color:#000000;fill:#ff6600"
     inkscape:transform-center-x="-891.6964"
     inkscape:transform-center-y="-1266.8571" />
  <path
     inkscape:connector-curvature="0"
     id="path2970"
     d="m 3621.4115,360.10183 c -1.2446,25.11387 -43.3654,57.56089 -60.5761,75.17948 -59.6091,42.20972 -118.4661,88.53677 -185.7756,117.66339 -49.076,-2.34385 -66.2293,-22.62285 -88.7,-42.55831 -19.5509,-17.34469 -92.1436,-38.60331 -72.4515,-53.32637 30.4949,15.04661 232.8016,0.95779 318.8957,-56.53415 24.6518,-12.32664 71.1616,-34.7165 88.6085,-40.42414 z"
     style="color:#000000;fill:#ff6600"
     inkscape:transform-center-x="-898.35668"
     inkscape:transform-center-y="-1174.6585" />
  <path
     inkscape:connector-curvature="0"
     id="path2972"
     d="m 174.68885,1339.6253 c 62.67147,49.1847 121.94861,107.059 201.4577,126.7864 26.33758,9.4724 58.21967,35.5935 83.54053,9.294 33.80757,-25.561 59.35532,-64.6602 98.73381,-81.3819 15.34627,7.5547 26.41325,27.8002 33.80795,42.8179 -116.31968,81.4111 -255.75837,150.4831 -402.44696,136.9052 -35.52958,-3.4903 -76.66001,-1.3043 -109.007209,-13.2298 -12.50679,-16.6822 19.636229,-17.907 29.654839,-19.0948 13.46978,-3.731 37.18014,-0.2765 46.20067,-9.7067 -21.88528,-29.8038 -67.721339,-28.3755 -94.053579,-52.4427 1.31516,-21.7354 33.09272,-6.3226 46.612339,-7.4114 30.8587,0.6533 65.87913,17.9491 95.5852,6.2858 5.08614,-28.5824 -18.93839,-56.1873 -25.72953,-83.952 -3.10872,-17.161 -24.00753,-43.1078 -9.04104,-56.4614 l 4.69088,1.5902 z"
     style="color:#000000;fill:#ff6600"
     inkscape:transform-center-x="2190.2236"
     inkscape:transform-center-y="-174.28432" />
  <path
     inkscape:connector-curvature="0"
     id="path2974"
     d="m 353.85345,1301.1284 c 27.91913,23.1864 38.49386,68.9119 78.63327,78.0149 36.78476,6.5026 73.69144,-14.4507 91.8713,-46.4463 10.34497,-18.4015 36.95364,-5.5217 28.55728,13.8844 -25.7609,46.9625 -70.11079,84.3462 -117.26531,108.814 -40.13704,-1.8372 -85.80781,-32.2825 -114.48198,-40.0154 -28.67417,-7.7329 -90.39913,-50.7403 -56.99354,-65.2504 8.75181,4.6734 89.64369,61.0886 82.91959,38.2119 -0.36143,-27.5852 -17.92153,-63.1283 1.63327,-86.7271 1.6364,-0.5751 3.40387,-0.7511 5.12,-0.4858 z"
     style="color:#000000;fill:#ff6600"
     sodipodi:nodetypes="ccccczccccc"
     inkscape:transform-center-x="2113.1026"
     inkscape:transform-center-y="-252.98017" />
  <path
     inkscape:connector-curvature="0"
     id="path2982"
     d="m 2740.8915,832.8438 c 11.6806,0.068 11.375,15.55602 3.3597,20.82474 -12.909,11.53703 -27.8821,21.95203 -43.9885,28.1402 -10.0794,0.0171 -9.0063,-12.83664 -1.9064,-16.59011 13.221,-11.01055 24.4156,-26.60839 41.1041,-32.29429 l 0.4389,-0.0416 0.9926,-0.0389 z"
     style="color:#000000;fill:#ffcc00"
     inkscape:transform-center-x="-203.80645"
     inkscape:transform-center-y="-773.85546" />
  <path
     inkscape:connector-curvature="0"
     id="path3774"
     d="m 3147.5,224.18076 c 50.9685,-2.36559 107.4599,19.36544 134.2075,64.75773 4.6229,10.66097 -4.9852,19.75124 -13.3261,20.72151 -7.1663,4.39883 -9.4007,13.50141 -14.9051,2.84322 2.3193,-13.82894 -34.921,-52.20767 -59.4821,-48.94995 -42.7214,4.08202 -66.2904,57.23806 -37.1647,89.18055 9.9821,15.1739 50.5774,22.0428 36.0257,32.1034 -8.5843,8.42319 -22.3317,24.03203 -35.0816,20.98481 -21.9195,-16.2872 -33.2124,-43.18974 -49.1721,-64.79974 -17.9773,-23.82834 -30.6041,-58.16109 -12.8498,-85.63108 10.2775,-18.85918 29.7051,-32.23221 51.753,-31.2114 z"
     style="color:#000000;fill:#ffffff"
     inkscape:transform-center-x="-659.42659"
     inkscape:transform-center-y="-1322.0732"
     sodipodi:nodetypes="cccccccccccc" />
  <path
     inkscape:connector-curvature="0"
     id="path3776"
     d="m 3141.3578,433.17668 c 26.6808,52.53252 84.7547,53.85753 126.8939,83.27341 24.9403,17.28431 47.5009,48.8061 76.8243,50.08982 -21.8824,76.89094 -84.3249,134.29625 -147.8642,178.97827 -59.6082,39.16198 -119.7794,77.97862 -182.3938,112.01967 -39.9069,11.60661 -84.0829,8.47939 -119.6676,32.68352 -12.5525,3.91307 -24.9106,19.5074 -38.0616,15.08091 -19.5782,-10.4553 -16.4985,-33.99951 -20.7016,-52.35857 -3.4646,-18.53259 -20.881,-32.92874 -40.0325,-29.23307 -9.5919,-0.42893 -36.0169,5.60128 -28.4141,-11.54952 42.2898,-39.68032 70.892,-91.06099 107.0846,-135.86326 52.1092,-66.51993 103.2304,-135.40713 167.5402,-190.96054 29.0613,-21.79272 60.4633,-43.26512 95.8601,-52.27917 l 2.4906,0.12294 0.4453,0.0219 0,4e-5 z"
     style="color:#000000;fill:#ffffff"
     inkscape:transform-center-x="-538.20422"
     inkscape:transform-center-y="-961.60967" />
  <path
     id="path3778"
     d="m 2680.965,880.91972 c 8.9716,10.9615 -7.6478,22.38152 -9.5315,34.01449 -10.3811,25.73873 16.2046,52.12633 41.9383,50.96923 16.0942,2.24681 32.3047,-1.68117 47.7713,-4.82035 14.3835,4.34259 -1.0585,18.64337 -5.9858,24.86866 -48.0129,58.98325 -98.9345,115.89405 -142.6236,177.67745 -44.595,79.24 -87.9267,161.1868 -153.031,226.2577 -59.3226,60.834 -123.8508,120.0765 -203.9087,151.9417 -255.5124,100.9596 -578.9827,25.5192 -844.9637,22.8389 111.3199,-69.3863 184.8518,-188.7245 230.954,-292.1931 23.0639,-51.7629 63.4145,-80.6818 99.8265,-112.3822 19.854,-17.2853 63.8185,-36.5355 88.5956,-44.0382 46.5138,-33.824 311.2736,-52.8026 399.5066,-75.3659 41.4683,-16.6189 183.3095,-91.9613 210.7156,-104.76446 58.4426,-26.48319 122.5277,-36.63033 185.8305,-43.62046 18.5698,-1.87518 36.4731,-11.09353 54.8852,-11.39166 z"
     style="color:#000000;fill:#ffffff"
     inkscape:connector-curvature="0"
     sodipodi:nodetypes="cccccccccsscccccc"
     inkscape:transform-center-x="428.74852"
     inkscape:transform-center-y="-393.5984" />
  <path
     inkscape:connector-curvature="0"
     id="path3784"
     d="m 925.59297,1204.7202 c 138.73673,-0.2307 270.16983,-7.576 385.24023,-40.2025 -65.4402,120.444 -70.4326,251.839 -107.0758,365.1324 -13.9696,5.5044 -42.8336,4.3413 -56.5969,1.9518 -85.993,-28.3967 -168.10129,-60.47 -255.01824,-85.7525 -85.31484,-21.0167 -173.75419,-15.0024 -260.89015,-18.1392 -17.91456,-6.8962 -28.80552,-25.7631 -38.00021,-41.6376 -11.29057,-26.76 -13.6641,-56.9789 -28.98536,-82.2185 -12.22242,-33.3657 -29.11755,-66.9177 -30.75994,-102.7939 4.91543,-22.1836 95.30738,-19.212 112.91964,-26.7546 159.56558,-11.3495 180.49909,29.9129 279.16673,30.4146 z"
     style="color:#000000;fill:#ffffff"
     sodipodi:nodetypes="ccccccccccc"
     inkscape:transform-center-x="1595.4564"
     inkscape:transform-center-y="-282.12608" />
  <path
     inkscape:connector-curvature="0"
     style="color:#000000;fill:#1a1a1a"
     d="m 2894.1391,21.162664 c 4.1259,-0.383468 8.2092,-0.688553 12.2158,-0.939419 l -0.034,-0.02813 c 54.1979,-2.153615 113.2971,-6.107684 165.9153,10.436049 47.3103,19.773261 86.0929,56.243269 126.6049,87.745196 27.3897,21.05781 44.1133,52.34066 50.3154,85.97518 5.9008,9.98222 -3.2195,20.9036 -13.9922,18.27851 -32.3793,-3.18144 -63.3864,-19.10191 -96.3516,-11.7319 -21.0183,0.33568 -46.3409,5.29163 -55.3779,27.07105 -11.3195,27.02715 -23.9214,59.72355 -6.2208,86.9452 14.9629,28.06303 39.0775,50.85447 52.7086,79.43863 -3.1584,15.52378 -24.3422,16.44628 -36.3402,21.93722 -21.4102,7.36343 -46.1093,8.21397 -61.6204,26.78446 -42.1314,35.85526 -84.8275,71.11194 -119.1982,114.36518 -63.9096,90.52389 -117.5941,193.70478 -209.5367,259.95637 -28.6199,19.89341 -59.5735,38.65162 -95.3256,41.09475 -65.9193,11.06653 -133.1594,19.29071 -193.9355,48.56843 -9.0803,1.65075 -102.5563,68.77237 -108.2276,55.97398 142.7061,-276.0256 -30.1269,-392.4504 -216.9315,-337.62969 -186.8047,54.8207 -252.1044,101.76059 -339.2215,136.39156 -64.8605,29.66923 -140.042,53.83262 -201.367,80.41294 -37.2961,12.43467 -68.5865,4.32072 -92.509,40.01145 -42.0569,69.21512 -83.581,221.63262 -162.0111,249.91572 -47.1026,18.1225 -55.8,13.8347 -105.2379,19.7859 -91.4318,5.4311 -181.7546,30.4148 -273.38127,23.4611 -71.11934,-7.5414 -138.73492,-26.5932 -208.9575,-39.2802 -47.90291,2.0251 -101.91528,6.8976 -148.9512,13.1921 -14.10492,-7.8658 -19.64226,-27.1407 -27.72525,-39.7776 -16.00487,-33.3733 -40.24867,-69.2797 -72.04419,-90.3484 -75.80492,-59.93814 -142.93843,-125.19974 -228.48695,-170.99321 -9.64903,-4.0902 -40.55062,-11.95035 -29.42799,-21.00151 19.7142,-12.37564 61.22371,-25.76173 83.39232,-30.89082 93.37079,-16.15155 161.4869,-40.28318 253.4199,-63.12775 51.11264,-11.66499 112.46505,-31.08747 160.49283,-52.3324 132.08024,-53.35856 283.99071,-109.59695 419.1348,-154.37755 l 275.8738,-42.84564 c 167.5669,-21.62578 299.2723,-26.41764 483.2828,10.55032 71.0705,-2.90445 200.1068,19.64229 295.4093,24.42223 51.1966,-13.77005 107.3626,-25.38281 150.0314,-44.15133 57.293,-37.29594 91.9825,-86.12723 137.2197,-136.82425 26.0236,-33.79945 62.3013,-82.13255 93.0424,-112.7936 72.8742,-79.94152 155.1338,-155.163504 256.9378,-194.767485 26.2623,-10.191422 57.5345,-16.187723 86.4162,-18.87266 z"
     id="path3786"
     sodipodi:nodetypes="cccccccccccccccccczccccccccccccccccccccccccc"
     inkscape:transform-center-x="793.56806"
     inkscape:transform-center-y="-1028.7974" />
  <path
     style="color:#000000;fill:#1a1a1a"
     d="m 2248.0849,658.54213 c 33.8312,9.80297 65.93,32.46934 76.1053,67.64443 14.4451,36.83316 16.0887,78.4297 0.7689,115.2867 -19.3617,52.29384 -38.1609,105.5393 -65.8744,153.97384 -20.827,21.5548 -53.4228,23.8256 -81.1938,30.2427 -99.3462,17.5519 -199.7846,27.2455 -299.8027,38.7753 -54.2976,6.7038 -106.0151,29.0605 -150.0727,60.9179 -32.7726,31.8442 -72.7162,43.0644 -94.947,81.8037 -44.6236,81.4273 -96.866,159.0653 -141.925,240.0741 -15.5792,11.7769 -31.1586,23.5538 -46.7378,35.3307 -36.3171,32.7211 -82.1214,72.2799 -87.1915,76.2023 -30.6679,35.8042 -78.8078,32.8359 -120.3207,52.9152 -17.5018,5.8259 -34.9083,18.7232 -53.9047,16.7922 -13.4155,-8.8232 4.4921,-22.3273 8.8709,-31.2276 16.4227,-20.5654 37.706,-50.2246 51.3569,-72.4253 5.8624,-6.7924 9.4992,-37.27 13.9917,-64.2654 20.6689,-102.5396 50.7125,-213.7401 88.1047,-314.9262 29.237,-86.3038 99.0663,-133.936 117.119,-223.28089 9.329,-27.39376 41.5255,-36.47802 66.8981,-42.28991 58.4312,-10.62851 111.8301,-38.03025 167.595,-57.87179 63.9053,-26.42696 130.0029,-46.85399 192.6311,-75.87993 124.5623,-63.42167 223.2605,-139.44175 358.5287,-87.79205 z"
     id="path3792"
     inkscape:connector-curvature="0"
     sodipodi:nodetypes="cccccccccccccccccccccc"
     inkscape:transform-center-x="760.705"
     inkscape:transform-center-y="-496.10486" />
  <path
     inkscape:connector-curvature="0"
     id="path3913-06"
     d="m 2787.832,882.07975 a 10.579,11.460231 84.579495 1 0 0.2158,-0.64498"
     style="color:#000000;fill:#d40000"
     inkscape:transform-center-x="-281.24502"
     inkscape:transform-center-y="-746.43722" />
  <path
     inkscape:connector-curvature="0"
     id="path3913-5"
     d="m 2727.4943,900.20055 a 10.579,10.579 0 1 0 0.1948,-0.64297"
     style="color:#000000;fill:#d40000"
     inkscape:transform-center-x="-220.08488"
     inkscape:transform-center-y="-728.23681" />
  <path
     inkscape:connector-curvature="0"
     id="path3913-9"
     d="m 2798.7022,941.26758 a 10.579,10.579 0 1 0 0.1946,-0.64297"
     style="color:#000000;fill:#d40000"
     inkscape:transform-center-x="-291.29355"
     inkscape:transform-center-y="-687.17266" />
  <path
     inkscape:connector-curvature="0"
     id="path3913-64"
     d="m 2760.511,893.52178 a 10.579,10.579 0 1 0 0.1948,-0.64297"
     style="color:#000000;fill:#d40000"
     inkscape:transform-center-x="-253.10158"
     inkscape:transform-center-y="-734.91558" />
  <path
     style="opacity:0.79000005;fill:none;stroke:#5d3a17;stroke-width:17.60000038;stroke-linecap:round;stroke-linejoin:round;filter:url(#filter4171)"
     inkscape:connector-curvature="0"
     id="path4103"
     d="m 459.52,789.23 c 13.105,-1.5704 9.9756,-3.8787 6.1859,-2.6853 -3.924,1.2357 -6.1859,2.6853 -6.1859,2.6853 z"
     transform="matrix(-0.9862703,0.1651421,0.1651421,0.9862703,3690.1775,-549.12297)"
     inkscape:transform-center-x="-844.78772"
     inkscape:transform-center-y="-1326.8296" />
  <path
     inkscape:connector-curvature="0"
     id="path4175"
     d="m 3193.354,293.16372 c 1.4035,3.00755 3.966,5.67393 6.9773,7.26027 3.0113,1.58635 6.4354,2.07388 9.3227,1.32772 2.8873,-0.74617 5.2035,-2.71716 6.3076,-5.36676 1.104,-2.6496 0.9831,-5.94652 -0.3286,-8.97747 -1.3116,-3.03095 -3.7984,-5.76013 -6.7721,-7.43118 -2.9738,-1.67106 -6.3996,-2.26412 -9.3287,-1.61452 -2.929,0.64959 -5.3267,2.53418 -6.5276,5.13132 -1.2009,2.59714 -1.1907,5.87601 0.028,8.92791"
     style="color:#000000;fill:#ffffff"
     inkscape:transform-center-x="-682.79102"
     inkscape:transform-center-y="-1349.0829"
     sodipodi:nodetypes="csssssssc" />
  <flowRoot
     style="font-size:40px;fill:#000000;font-family:Bitstream Vera Sans"
     id="flowRoot4308"
     xml:space="preserve"
     font-size="40px"
     transform="matrix(-0.99552822,0.09446459,0.09446459,0.99552822,3750.1011,-523.25495)"><flowRegion
       id="flowRegion4310"><rect
         id="rect4312"
         y="-441.32001"
         width="937.59003"
         x="-3151.8999"
         height="478.76999" /></flowRegion><flowPara
       id="flowPara4314" /></flowRoot>  <flowRoot
     style="font-size:40px;fill:#000000;font-family:Bitstream Vera Sans"
     id="flowRoot4316"
     xml:space="preserve"
     font-size="40px"
     transform="matrix(-0.99552822,0.09446459,0.09446459,0.99552822,3750.1011,-523.25495)"><flowRegion
       id="flowRegion4318"><rect
         id="rect4320"
         y="-471.25"
         width="1087.2"
         x="-3072.1001"
         height="638.35999" /></flowRegion><flowPara
       id="flowPara4322" /></flowRoot>  <flowRoot
     style="font-size:40px;fill:#000000;font-family:Bitstream Vera Sans"
     id="flowRoot4340"
     xml:space="preserve"
     font-size="40px"
     transform="matrix(-0.99552822,0.09446459,0.09446459,0.99552822,3750.1011,-523.25495)"><flowRegion
       id="flowRegion4342"><rect
         id="rect4344"
         y="1563.5"
         width="1406.4"
         x="-2942.3999"
         height="538.62" /></flowRegion><flowPara
       id="flowPara4346" /></flowRoot>  <metadata
     id="metadata110">
    <rdf:RDF>
      <cc:Work>
        <dc:format>image/svg+xml</dc:format>
        <dc:type
           rdf:resource="http://purl.org/dc/dcmitype/StillImage" />
        <cc:license
           rdf:resource="http://creativecommons.org/licenses/publicdomain/" />
        <dc:publisher>
          <cc:Agent
             rdf:about="http://openclipart.org/">
            <dc:title>Openclipart</dc:title>
          </cc:Agent>
        </dc:publisher>
        <dc:title />
        <dc:date>2011-05-02T14:45:12</dc:date>
        <dc:description>Penguin flying with a suitcase, designed for web site - World Migratory Bird Day is on second weekend in May.</dc:description>
        <dc:source>http://openclipart.org/detail/135385/migrating-penguin-by-moini</dc:source>
        <dc:creator>
          <cc:Agent>
            <dc:title>Moini</dc:title>
          </cc:Agent>
        </dc:creator>
        <dc:subject>
          <rdf:Bag>
            <rdf:li>Berlin</rdf:li>
            <rdf:li>South Pole</rdf:li>
            <rdf:li>bird</rdf:li>
            <rdf:li>bow tie</rdf:li>
            <rdf:li>cartoon</rdf:li>
            <rdf:li>clip art</rdf:li>
            <rdf:li>clipart</rdf:li>
            <rdf:li>fly</rdf:li>
            <rdf:li>holiday</rdf:li>
            <rdf:li>migrate</rdf:li>
            <rdf:li>migration</rdf:li>
            <rdf:li>migratory</rdf:li>
            <rdf:li>penguin</rdf:li>
            <rdf:li>propeller</rdf:li>
            <rdf:li>suitcase</rdf:li>
            <rdf:li>travel</rdf:li>
            <rdf:li>tux</rdf:li>
          </rdf:Bag>
        </dc:subject>
      </cc:Work>
      <cc:License
         rdf:about="http://creativecommons.org/licenses/publicdomain/">
        <cc:permits
           rdf:resource="http://creativecommons.org/ns#Reproduction" />
        <cc:permits
           rdf:resource="http://creativecommons.org/ns#Distribution" />
        <cc:permits
           rdf:resource="http://creativecommons.org/ns#DerivativeWorks" />
      </cc:License>
    </rdf:RDF>
  </metadata>
</svg>
