<?xml version="1.0" encoding="UTF-8" standalone="no"?>
<!-- Created with Inkscape (http://www.inkscape.org/) -->
<svg xmlns:dc="http://purl.org/dc/elements/1.1/" xmlns:cc="http://creativecommons.org/ns#" xmlns:rdf="http://www.w3.org/1999/02/22-rdf-syntax-ns#" xmlns:svg="http://www.w3.org/2000/svg" xmlns="http://www.w3.org/2000/svg" xmlns:sodipodi="http://sodipodi.sourceforge.net/DTD/sodipodi-0.dtd" xmlns:inkscape="http://www.inkscape.org/namespaces/inkscape" width="466.88074" height="314.89825" id="svg2" sodipodi:version="0.32" inkscape:version="0.46" version="1.0" sodipodi:docname="b1.svg" inkscape:output_extension="org.inkscape.output.svg.inkscape">
  <defs id="defs4">
    <inkscape:perspective sodipodi:type="inkscape:persp3d" inkscape:vp_x="0 : 526.18109 : 1" inkscape:vp_y="0 : 1000 : 0" inkscape:vp_z="744.09448 : 526.18109 : 1" inkscape:persp3d-origin="372.04724 : 350.78739 : 1" id="perspective10"/>
    <inkscape:perspective id="perspective2515" inkscape:persp3d-origin="372.04724 : 350.78739 : 1" inkscape:vp_z="744.09448 : 526.18109 : 1" inkscape:vp_y="0 : 1000 : 0" inkscape:vp_x="0 : 526.18109 : 1" sodipodi:type="inkscape:persp3d"/>
    <clipPath clipPathUnits="userSpaceOnUse" id="clipPath2625">
      <rect style="opacity: 0.538793; fill: rgb(204, 204, 204); fill-opacity: 1; fill-rule: nonzero; stroke: rgb(204, 204, 204); stroke-width: 1.10528; stroke-linejoin: round; stroke-miterlimit: 4; stroke-dasharray: none; stroke-dashoffset: 0pt; stroke-opacity: 1;" id="rect2627" width="492.31775" height="406.8559" x="-543.2406" y="437.90347"/>
    </clipPath>
    <inkscape:perspective id="perspective2728" inkscape:persp3d-origin="372.04724 : 350.78739 : 1" inkscape:vp_z="744.09448 : 526.18109 : 1" inkscape:vp_y="0 : 1000 : 0" inkscape:vp_x="0 : 526.18109 : 1" sodipodi:type="inkscape:persp3d"/>
  </defs>
  <sodipodi:namedview id="base" pagecolor="#ffffff" bordercolor="#666666" borderopacity="1.0" gridtolerance="10000" guidetolerance="10" objecttolerance="10" inkscape:pageopacity="0.0" inkscape:pageshadow="2" inkscape:zoom="0.69501155" inkscape:cx="564.97722" inkscape:cy="209.02724" inkscape:document-units="px" inkscape:current-layer="layer1" showgrid="false" inkscape:window-width="1679" inkscape:window-height="975" inkscape:window-x="0" inkscape:window-y="25"/>
  <metadata id="metadata7">
    <rdf:RDF>
      <cc:Work rdf:about="">
        <dc:format>image/svg+xml</dc:format>
        <dc:type rdf:resource="http://purl.org/dc/dcmitype/StillImage"/>
      </cc:Work>
    </rdf:RDF>
  </metadata>
  <g inkscape:label="Layer 1" inkscape:groupmode="layer" id="layer1" transform="translate(-152.157, -56.9699)">
    <g id="g2763" transform="translate(635.877, -90.5489)">
      <path style="fill: rgb(224, 198, 117);" d="M -330.68961,460.2963 C -337.60754,439.79469 -318.45568,419.8447 -323.59892,399.44637 C -335.64306,396.17224 -341.54686,389.70357 -340.63769,376.23668 C -347.33839,363.41783 -364.83672,364.39024 -360.9998,346.52585 C -371.435,329.33084 -377.79015,303.25674 -366.96627,284.52711 C -379.69502,279.17465 -402.59592,274.99527 -414.33205,260.68957 C -421.48363,253.14508 -431.85524,235.49824 -432.81775,233.09023 C -434.08696,239.00619 -447.73345,216.89225 -445.79328,218.18936 C -456.94421,217.23487 -461.45087,205.17888 -469.89661,200.28952 C -478.64769,191.52805 -491.18303,176.03884 -473.67161,166.60147 C -441.19699,140.54316 -395.86573,145.75809 -358.3502,155.97296 C -321.59254,166.05067 -285.84946,183.06826 -259.65173,211.41312 C -255.95258,198.03403 -251.03806,190.4316 -265.82515,181.7296 C -272.61189,173.44044 -291.70552,158.56736 -286.61369,149.87893 C -279.73979,166.69012 -266.11354,180.90501 -252.38437,192.56389 C -234.45865,193.69127 -226.84237,171.93737 -218.75526,158.97819 C -218.41662,148.15729 -208.25738,143.52853 -216.01658,157.61104 C -221.80839,175.99395 -248.83024,188.0183 -236.71417,208.14434 C -232.71806,217.70575 -218.70388,192.80504 -209.26566,191.17977 C -168.44769,166.4464 -120.32884,151.82251 -72.400478,153.44932 C -51.746505,154.97699 -29.370962,163.38043 -17.661498,181.22781 C -18.263886,200.29801 -42.570633,207.70214 -52.65289,221.96316 C -66.042899,236.83837 -75.030304,255.33854 -91.30429,268.09727 C -101.44412,282.91355 -132.4893,276.7159 -120.55467,300.63224 C -120.9098,319.04941 -124.67534,332.83486 -133.36801,348.00318 C -128.33733,366.63122 -159.29599,367.80854 -151.10959,388.94772 C -173.01415,392.69517 -168.46591,419.08839 -159.85052,433.44505 C -151.10266,443.83766 -159.44394,472.07464 -169.96577,450.8161 C -170.18712,434.98128 -180.1103,411.87947 -196.71667,422.88078 C -205.01715,405.72805 -235.63136,407.37207 -228.205,381.41311 C -245.29828,366.36074 -240.37636,344.74633 -238.16947,323.2979 C -236.5118,301.95559 -233.7705,277.6078 -237.86619,257.81143 C -238.24274,271.78195 -238.65069,303.04563 -247.70491,304.90476 C -259.57705,303.5952 -253.89972,271.26213 -259.14786,270.44752 C -260.72047,292.82218 -258.35081,315.20103 -256.78116,337.47998 C -260.62966,347.715 -253.74116,352.23427 -255.67145,364.99265 C -260.3092,376.55502 -271.50904,375.45605 -265.25252,391.48592 C -260.1789,412.47892 -289.15865,409.3188 -294.33844,424.76211 C -315.12571,403.18115 -318.73333,443.53447 -321.36554,457.46241 C -323.06265,460.63804 -327.8026,465.06 -330.68961,460.2963 z M -269.5849,354.45737 C -254.98162,352.52201 -269.30183,349.37957 -271.69632,355.48553 L -269.58489,354.45737 L -269.5849,354.45737 z M -223.68745,351.987 C -231.12815,348.06381 -239.54694,353.57492 -226.24632,352.39299 C -225.34136,357.06175 -220.53581,352.44886 -223.68745,351.987 z" id="path2746"/>
      <path style="fill: rgb(212, 177, 93);" d="M -330.68961,460.2963 C -337.1319,439.95221 -319.41171,420.54967 -323.0014,400.11243 C -330.63804,392.57656 -344.07445,394.49666 -339.69207,378.25063 C -343.87312,362.67845 -366.51261,364.46555 -360.25232,344.49788 C -374.02603,336.48567 -364.56714,319.41991 -370.70954,308.86631 C -377.4959,296.98855 -357.31081,275.75078 -382.60505,279.74948 C -389.62508,272.53361 -402.90194,275.85119 -407.36916,264.6398 C -390.41451,272.08735 -422.91753,261.02503 -417.89492,251.92801 C -424.73887,246.19729 -429.63832,241.01102 -432.80838,232.01327 C -443.51013,229.95425 -442.47148,216.04642 -454.64392,215.50863 C -457.13841,204.57695 -471.69901,206.25924 -472.29478,194.10918 C -482.69456,192.12607 -479.43759,179.12525 -482.32145,182.83185 C -481.81195,164.02602 -456.08843,154.52748 -439.60756,150.14641 C -395.55252,142.29602 -350.44262,155.8096 -310.64959,174.14813 C -291.6085,183.35113 -274.15526,195.82982 -259.86676,211.45558 C -254.24847,198.12692 -252.21553,190.00338 -266.20691,181.57761 C -273.16221,174.25842 -291.43917,156.43757 -286.43196,150.51515 C -279.81194,167.47043 -265.32196,182.39011 -250.74611,192.51862 C -234.06789,192.35042 -226.35406,172.11272 -219.20101,159.31817 C -217.82142,147.10842 -209.21087,144.81506 -216.38837,158.15581 C -222.59987,176.26826 -248.21869,188.11092 -237.06375,208.703 C -235.57735,219.63477 -226.01888,200.35765 -220.68333,199.43772 C -184.52448,171.97626 -139.2299,158.35487 -94.516555,153.57563 C -67.178266,151.22818 -35.04687,156.60255 -18.120829,180.4388 C -17.394027,194.38778 -29.121884,195.17256 -35.010609,203.79944 C -38.650469,208.44702 -49.604098,215.07355 -52.714703,221.93144 C -63.320644,229.84312 -68.79596,244.60969 -76.80089,252.06536 C -83.602554,262.93092 -91.71491,262.26003 -95.371395,272.83478 C -106.67295,280.7762 -131.05412,278.38955 -120.29749,297.48218 C -128.34706,311.2654 -115.88497,330.73284 -132.26043,338.58959 C -133.9816,350.35062 -129.66317,364.00195 -146.05543,365.01783 C -157.99595,369.99335 -144.00417,387.48791 -155.40106,390.71069 C -169.12029,389.93561 -168.80852,407.07629 -165.69733,417.57975 C -164.30757,429.53137 -146.3432,455.34962 -164.0167,458.85415 C -175.4564,449.07635 -169.67979,409.65818 -191.24632,419.98256 C -201.21296,430.94745 -199.72206,399.95725 -215.20183,407.74114 C -237.09293,402.27761 -217.88432,373.14132 -239.58371,366.8557 C -242.33311,355.9369 -237.20897,352.40115 -238.54449,340.75263 C -230.68964,352.64709 -204.11488,336.6512 -223.6732,326.98163 C -228.87651,327.48282 -237.86283,320.11494 -237.91839,328.03599 C -237.27764,313.52399 -235.68835,297.34521 -235.90922,281.46834 C -234.8873,272.01686 -238.27972,243.51622 -238.18872,268.20767 C -238.64474,279.14112 -239.97725,312.89042 -252.05399,302.7688 C -256.91974,294.51252 -255.80538,269.11006 -258.67471,268.41563 C -262.45288,287.18703 -260.7778,294.69677 -258.68213,312.04344 C -257.91304,321.62209 -255.78524,351.81073 -259.17985,326.5648 C -257.45918,315.92949 -263.26962,332.88513 -272.61399,328.47513 C -279.23652,328.84033 -275.82704,341.39742 -274.62106,343.97016 C -265.91281,342.85656 -254.16924,340.49623 -257.49632,348.85652 C -253.85249,352.74518 -258.28692,356.18815 -255.75856,359.69466 C -254.39608,372.50905 -275.52568,377.04708 -265.33922,391.82655 C -257.43802,415.49858 -293.42255,402.32925 -289.10047,418.38997 C -294.01273,432.43741 -307.83681,405.59253 -314.47312,422.22958 C -323.34495,429.3299 -311.7526,467.43566 -330.68961,460.2963 z M -179.86702,405.18201 C -189.58927,401.10511 -198.23761,408.3602 -183.06819,406.81542 C -181.34736,407.67539 -175.39984,408.90403 -179.86702,405.18201 z M -168.1571,382.5188 C -151.93864,372.61247 -182.37714,386.85343 -168.1571,382.5188 z M -150.24632,356.9118 C -154.90976,350.65629 -157.06147,363.02197 -150.24632,356.9118 z M -339.45004,356.10214 C -345.14442,348.31573 -358.67657,357.3914 -344.24632,354.46941 C -343.15931,354.7005 -338.06991,361.77112 -339.45004,356.10214 z M -269.5849,354.45737 C -254.98162,352.52201 -269.30183,349.37957 -271.69632,355.48553 L -269.58489,354.45737 L -269.5849,354.45737 z M -223.68745,351.987 C -231.12815,348.06381 -239.54694,353.57492 -226.24632,352.39299 C -225.34136,357.06175 -220.53581,352.44886 -223.68745,351.987 z M -280.05466,342.41623 C -274.68406,328.48768 -287.55736,303.4741 -289.55894,296.76277 C -289.26097,311.48584 -297.49374,333.91128 -288.8669,343.97097 C -285.89353,343.81668 -282.83303,343.59125 -280.05466,342.41623 z M -204.99632,339.88727 C -196.19922,332.45369 -206.61128,304.16943 -207.67031,298.67717 C -209.0366,309.17033 -228.80602,346.87773 -204.99632,339.88727 z M -294.41766,337.97134 C -293.23893,324.62055 -292.88455,311.2018 -291.70428,297.84464 C -305.40316,304.19417 -304.07048,324.58181 -303.93982,337.03822 C -301.26784,339.3464 -297.30106,341.01611 -294.41766,337.97134 z M -309.49908,337.2688 C -306.52654,329.62254 -296.02272,296.34518 -310.5723,306.1145 C -312.99112,315.70756 -323.6198,329.10527 -316.0848,336.89826 C -314.23073,337.46717 -311.10089,339.65043 -309.49908,337.2688 z M -314.62726,323.8045 C -316.20062,319.12108 -304.11184,303.11775 -309.96415,316.85904 C -311.03237,318.92906 -311.37233,324.11608 -314.62726,323.8045 z M -176.39746,335.44498 C -172.40699,325.31521 -182.86475,298.48634 -193.85906,302.08561 C -188.10518,310.21366 -192.41024,344.98586 -176.39746,335.44498 z M -191.17902,334.93768 C -188.07202,323.8323 -194.31299,294.58244 -204.41444,298.08911 C -200.15816,305.96777 -205.88185,340.89226 -191.17902,334.93768 z M -355.11877,326.83157 C -356.05293,321.31667 -366.99487,330.27216 -355.11876,326.83157 L -355.11877,326.83157 z M -317.6293,317.8905 C -316.28952,302.23649 -305.24082,299.97942 -316.00895,288.88369 C -321.53689,299.26054 -332.38287,305.14821 -327.08002,312.38831 C -322.88315,318.20379 -319.54336,297.53241 -320.44386,313.82248 C -324.00092,318.4947 -321.12671,332.67416 -317.6293,317.8905 z M -317.88794,302.32492 C -317.34898,290.89819 -308.67443,298.02737 -317.88794,302.32492 z M -269.38135,321.65323 C -265.18674,304.33786 -270.7116,283.5183 -268.21999,264.88027 C -267.3036,252.59942 -280.92276,281.17646 -277.81983,288.15155 C -274.66812,293.99046 -282.77689,331.84145 -269.38135,321.65323 z M -219.31329,321.09949 C -217.72414,306.2269 -217.81887,290.84386 -218.4303,275.96414 C -221.05641,267.53736 -230.79677,243.68541 -227.31708,266.12478 C -222.41946,283.63147 -233.43942,309.5898 -223.99199,321.99238 L -221.20959,321.99387 L -219.31329,321.09949 L -219.31329,321.09949 z M -172.61594,317.42883 C -159.41843,307.1112 -171.07066,297.90792 -178.96537,287.99307 C -184.26801,277.64829 -184.17621,292.65357 -186.33821,297.06754 C -182.95714,304.75749 -178.97562,315.69488 -173.35435,320.55575 L -172.61594,317.42884 L -172.61594,317.42883 z M -278.66,303.7688 C -277.37632,295.37798 -281.46152,274.08042 -284.53798,293.57462 C -283.39955,302.66542 -276.9803,329.36223 -278.50677,307.12341 L -278.66,303.7688 L -278.66,303.7688 z M -213.64291,302.26743 C -208.31704,298.23056 -213.40254,276.66534 -216.15949,284.3977 C -215.45369,290.74646 -217.7597,311.15513 -214.66928,308.5188 L -213.77244,304.82621 L -213.64291,302.26742 L -213.64291,302.26743 z M -327.68365,301.2688 C -320.53913,294.35929 -305.42862,269.70809 -313.80027,267.26682 C -317.52851,272.59013 -333.7002,280.62306 -329.70383,286.11917 C -332.88501,289.45753 -334.51072,312.43578 -327.68365,301.2688 z M -163.24632,300.88287 C -144.94845,287.83208 -171.54425,276.41194 -180.64884,266.25547 C -194.45608,256.48813 -179.79032,286.55663 -173.71576,291.95727 C -172.17299,292.35122 -163.68865,309.8845 -163.24632,300.88287 z M -167.58586,293.07635 C -167.7772,284.32263 -161.11958,294.39012 -167.58586,293.07635 z M -296.64636,298.66519 C -281.36914,288.36879 -297.14888,270.46013 -299.95123,261.99959 C -308.37608,248.96288 -311.89628,290.77485 -307.43973,275.76278 C -304.82191,264.65181 -302.75581,284.52972 -312.21539,282.18857 C -311.19128,288.89489 -307.42523,308.67325 -296.64636,298.66519 z M -187.58357,288.9342 C -181.82835,279.89007 -192.47669,241.45315 -198.49369,267.2071 C -200.35484,278.93747 -213.70536,295.23296 -195.12549,298.69266 C -189.1656,301.31082 -188.78884,292.29619 -187.58357,288.9342 z M -152.34509,284.96164 C -152.66073,271.47378 -180.18263,267.74409 -189.7192,255.91669 C -179.1536,263.16494 -161.53824,286.17427 -152.3451,284.96164 L -152.34509,284.96164 z M -278.63495,277.77652 C -273.8175,264.24582 -262.11015,250.27457 -270.74631,235.63786 C -280.39894,242.68473 -299.63233,248.91049 -289.69941,263.41834 C -285.31219,270.12871 -288.43324,299.90313 -278.63495,277.77652 z M -208.73064,279.43314 C -206.08064,263.12654 -196.1868,244.51744 -219.34833,239.62583 C -230.42693,234.10418 -221.07297,248.49473 -226.21333,251.31023 C -220.78018,260.44854 -216.87147,282.2266 -209.20946,283.37492 L -208.73063,279.43315 L -208.73064,279.43314 z M -324.56042,272.87137 C -336.84194,275.69997 -337.76161,284.14338 -325.43741,274.45764 L -324.56041,272.87137 L -324.56042,272.87137 z M -342.40341,272.84344 C -335.3482,270.71766 -314.80294,258.74881 -333.61726,265.98053 C -341.12385,270.37314 -350.70207,265.76759 -346.82703,274.18814 L -344.79891,273.51351 L -342.40342,272.84345 L -342.40341,272.84344 z M -348.922,259.33112 C -335.11009,243.39885 -363.68733,264.98705 -348.922,259.33112 z M -363.25128,254.14636 C -373.38754,257.93097 -367.2638,264.26151 -363.25128,254.14636 z M -367.62436,253.5188 C -364.35674,245.15544 -382.01598,263.22682 -367.62435,253.5188 L -367.62436,253.5188 z M -375.23535,252.72321 C -372.1165,245.18314 -385.28869,258.25041 -375.23535,252.72321 z M -337.02029,250.07816 C -329.17283,243.46841 -348.10924,253.78116 -337.02029,250.07816 z M -379.22479,242.48856 C -375.93351,237.77713 -386.02449,242.87067 -376.57836,238.65819 C -370.80814,230.97853 -382.06184,239.32799 -379.49632,234.53411 C -392.17567,235.22679 -387.65397,250.46806 -379.22479,242.48856 z M -386.75394,236.33846 C -378.87785,224.10823 -398.8443,243.4164 -386.75394,236.33846 z M -362.24631,235.5188 C -346.63844,225.80025 -371.03235,237.12828 -362.24631,235.5188 z M -239.30908,225.56662 C -237.46475,215.45003 -241.94549,204.68532 -240.86565,221.57597 C -241.36117,228.60933 -240.20929,239.04848 -239.30908,225.56662 L -239.30908,225.56662 z M -334.92453,214.39626 C -317.96872,210.14324 -353.31091,209.00714 -339.63227,214.08218 C -335.92184,208.06456 -337.54789,220.91957 -334.92453,214.39626 z M -161.55379,210.15993 C -148.25321,209.6532 -157.02935,196.05748 -161.18253,204.35715 C -144.02939,204.60204 -172.24156,207.65026 -161.63933,211.5188 L -161.55379,210.15993 L -161.55379,210.15993 z M -152.87132,197.31654 C -165.39837,194.272 -156.10846,204.64145 -152.87132,197.31654 z M -131.83385,196.91402 C -127.28333,195.39075 -118.34903,187.16984 -130.57659,188.38761 C -127.1142,192.69972 -138.87687,195.67609 -131.83385,196.91402 L -131.83385,196.91402 z M -154.83945,193.01703 C -156.83082,182.55731 -159.90894,189.4385 -159.24632,191.22905 C -167.33938,190.97549 -147.66144,199.41699 -154.83945,193.01703 z M -122.55173,184.95004 C -133.50045,172.73366 -134.17289,190.48953 -122.55173,184.95004 z M -468.76312,180.66866 C -476.38873,177.65304 -466.21283,172.79554 -475.13595,177.12169 C -475.55609,179.13603 -467.64105,184.33297 -468.76312,180.66866 z M -28.628929,177.70872 C -38.318966,174.30614 -32.409032,188.65755 -28.628929,177.70872 z M -158.12132,179.5188 C -157.24022,174.74651 -171.96467,183.6764 -158.12132,179.5188 z M -130.6142,176.08012 C -126.38702,170.35677 -137.06117,173.7555 -129.41422,178.79907 L -130.61419,176.08012 L -130.6142,176.08012 z M -91.680992,170.87701 C -92.484508,168.99037 -101.27872,175.54102 -91.286523,172.82332 L -91.68099,170.87702 L -91.680992,170.87701 z M -237.99632,334.85651 C -243.37639,327.67199 -227.47097,335.06057 -237.99632,334.85651 z" id="path2744"/>
      <path style="fill: rgb(171, 147, 96);" d="M -330.68961,460.2963 C -337.1319,439.95221 -319.41171,420.54967 -323.0014,400.11243 C -330.63804,392.57656 -344.07445,394.49666 -339.69207,378.25063 C -343.87312,362.67845 -366.51261,364.46555 -360.25232,344.49788 C -374.02603,336.48567 -364.56714,319.41991 -370.70954,308.86631 C -377.4959,296.98855 -357.31081,275.75078 -382.60505,279.74948 C -389.62508,272.53361 -402.90194,275.85119 -407.36916,264.6398 C -390.41451,272.08735 -422.91753,261.02503 -417.89492,251.92801 C -424.73887,246.19729 -429.63832,241.01102 -432.80838,232.01327 C -443.51013,229.95425 -442.47148,216.04642 -454.64392,215.50863 C -457.13841,204.57695 -471.69901,206.25924 -472.29478,194.10918 C -482.69456,192.12607 -479.43759,179.12525 -482.32145,182.83185 C -481.81195,164.02602 -456.08843,154.52748 -439.60756,150.14641 C -395.55252,142.29602 -350.44262,155.8096 -310.64959,174.14813 C -291.6085,183.35113 -274.15526,195.82982 -259.86676,211.45558 C -254.24847,198.12692 -252.21553,190.00338 -266.20691,181.57761 C -273.16221,174.25842 -291.43917,156.43757 -286.43196,150.51515 C -279.81194,167.47043 -265.32196,182.39011 -250.74611,192.51862 C -234.06789,192.35042 -226.35406,172.11272 -219.20101,159.31817 C -217.82142,147.10842 -209.21087,144.81506 -216.38837,158.15581 C -222.59987,176.26826 -248.21869,188.11092 -237.06375,208.703 C -235.44752,219.7043 -225.5934,199.6837 -220.03744,198.97216 C -181.092,170.55122 -132.80142,155.60835 -84.894177,153.09403 C -60.34532,151.97637 -33.110535,159.90507 -18.000235,180.23181 C -16.331096,192.66817 -28.903744,192.96905 -31.0799,202.93867 C -42.232943,201.88262 -36.432721,213.69953 -51.026602,216.88494 C -59.201708,226.62113 -64.33276,238.91227 -74.70954,248.35116 C -75.523233,253.95284 -88.575734,264.01701 -91.878766,265.87631 C -92.326281,282.99166 -129.63783,274.26885 -120.97653,291.75731 C -121.44695,305.62673 -124.47889,318.72913 -124.11967,332.69925 C -142.6755,337.00539 -122.96714,365.57382 -146.05543,365.01783 C -157.99595,369.99335 -144.00417,387.48791 -155.40106,390.71069 C -173.54922,390.87036 -167.0133,416.91903 -162.26896,428.47435 C -155.56081,436.46805 -152.89352,470.85357 -168.00982,453.90046 C -171.51508,442.48226 -174.64932,408.55975 -191.62266,420.88212 C -200.24431,430.61661 -200.96993,399.1231 -215.55924,407.84099 C -236.74964,401.6472 -217.55348,373.00807 -239.65057,366.72505 C -242.24715,355.89007 -237.2354,352.35986 -238.54451,340.75266 C -236.80319,344.98454 -217.7248,346.03643 -217.59676,339.64321 C -211.87645,322.28228 -236.58231,326.25807 -238.12801,325.2688 C -236.49597,311.31602 -235.87266,294.51756 -235.91494,279.02329 C -234.895,269.17062 -238.52421,244.77449 -238.18872,268.20767 C -238.64474,279.14112 -239.97725,312.89042 -252.05399,302.7688 C -256.91974,294.51252 -255.80538,269.11006 -258.67471,268.41563 C -262.45288,287.18703 -260.7778,294.69677 -258.68213,312.04344 C -257.91304,321.62209 -255.78524,351.81073 -259.17985,326.5648 C -257.42914,315.68349 -263.19886,331.84731 -271.74201,327.75147 C -285.50147,337.2966 -271.04292,349.97128 -258.9735,343.77241 C -254.85335,348.02996 -258.08166,349.76144 -255.26163,356.2688 C -258.46672,355.47146 -252.55201,372.78361 -264.98386,374.37374 C -268.15,386.84925 -258.92549,415.49557 -284.08761,408.87408 C -290.23057,411.23426 -291.27836,434.66664 -299.49439,418.17 C -315.41545,410.12635 -320.31239,433.22854 -318.77053,445.53731 C -317.95538,451.15129 -323.25557,467.94068 -330.68961,460.2963 z M -179.7925,405.1087 C -189.69779,400.43648 -198.23128,408.5858 -183.03073,406.82476 C -181.11131,407.43204 -175.63646,409.25218 -179.7925,405.1087 z M -305.69864,405.37656 C -288.20924,409.80937 -307.47231,396.27617 -312.19863,406.68904 L -309.65084,405.85829 L -305.69863,405.37657 L -305.69864,405.37656 z M -320.97662,384.44208 C -333.43719,373.47777 -326.02653,388.9858 -320.97662,384.44208 z M -166.32648,382.00925 C -153.42331,371.77189 -182.84862,388.31433 -166.32648,382.00925 z M -338.24631,358.95306 C -339.50835,348.02375 -361.42091,355.02909 -344.18746,356.91488 C -342.88904,357.53908 -339.69928,360.94916 -338.24631,358.95306 z M -149.70087,357.06424 C -142.32731,344.19625 -165.84677,365.677 -149.70087,357.06425 L -149.70087,357.06424 z M -269.5849,354.45737 C -254.98162,352.52201 -269.30183,349.37957 -271.69632,355.48553 L -269.58489,354.45737 L -269.5849,354.45737 z M -223.68745,351.987 C -231.12815,348.06381 -239.54694,353.57492 -226.24632,352.39299 C -225.34136,357.06175 -220.53581,352.44886 -223.68745,351.987 z M -282.2803,343.56213 C -272.06641,338.95579 -282.5351,320.28821 -284.40162,311.4268 C -286.26919,302.91501 -286.96429,287.90382 -297.57995,301.17309 C -313.63058,299.16693 -315.36869,317.15398 -319.39999,329.63726 C -320.46416,348.57856 -303.21817,328.92108 -305.32967,330.27067 C -307.70775,346.18374 -290.98024,333.20221 -292.04021,342.96726 C -289.01779,345.98858 -285.74342,344.26328 -282.2803,343.56213 z M -293.15829,324.22379 C -291.45845,303.78228 -292.68758,344.74198 -293.15828,324.2238 L -293.15829,324.22379 z M -305.56485,324.5188 C -302.25755,307.90315 -304.94569,331.47338 -305.56485,324.5188 z M -303.02832,313.0188 C -301.12797,296.67203 -301.19837,314.0617 -303.01669,314.89252 L -303.02368,313.76624 L -303.02832,313.0188 z M -208.7485,344.68329 C -199.47586,342.03573 -201.03806,329.14547 -201.32547,324.8876 C -203.42276,336.28102 -189.29474,342.75654 -188.30064,329.61429 C -186.26115,346.76709 -169.76013,332.0877 -173.99484,324.63771 C -168.35884,311.82657 -162.80598,301.11651 -176.41848,290.49778 C -187.12055,270.48563 -185.20274,307.41882 -185.24713,303.01729 C -192.84542,294.07175 -195.43078,305.49646 -193.61869,306.93944 C -200.51115,288.19508 -212.33108,298.71089 -212.67394,314.59802 C -218.29483,325.69504 -217.49049,340.42963 -209.70233,345.18547 L -208.7485,344.68328 L -208.7485,344.68329 z M -203.53789,314.80353 C -205.29495,307.25999 -205.44854,292.24565 -203.37213,308.41791 C -203.38322,308.98147 -201.32003,322.54891 -203.53789,314.80353 z M -353.42215,326.36484 C -371.71449,318.51599 -346.04536,343.25887 -353.42215,326.36484 z M -139.11876,330.86389 C -114.21804,316.38314 -156.37275,329.46545 -139.11876,330.86389 z M -316.68558,316.94281 C -307.74927,308.60983 -310.41357,276.25075 -323.1789,297.3051 C -336.42761,306.37492 -323.76076,317.06861 -320.03917,324.57981 C -318.57858,322.19416 -317.66455,319.54397 -316.68558,316.94281 z M -270.03391,322.36752 C -262.94313,315.5223 -271.02416,301.59805 -268.48516,292.26837 C -271.181,274.79654 -262.33539,248.55554 -272.55888,236.5515 C -282.83857,240.9263 -298.23475,248.58 -289.56414,264.7787 C -287.69236,274.92845 -285.6696,297.91958 -277.74154,276.10371 C -275.15228,265.96866 -262.84693,248.32939 -273.30232,268.13487 C -280.73557,274.88499 -275.94832,302.71894 -281.19028,285.07914 C -289.27003,291.31216 -280.44062,327.91664 -270.03391,322.36752 z M -277.92624,310.5188 C -277.38578,297.24494 -277.38578,323.79267 -277.92624,310.5188 z M -219.37469,321.17349 C -213.53862,311.74362 -206.40402,283.25454 -215.98783,282.37139 C -217.60545,301.70238 -216.09253,272.82502 -221.31002,267.21247 C -223.12322,260.21404 -230.33461,246.67461 -227.54944,263.1974 C -224.13708,282.19445 -229.51039,303.87666 -226.24632,321.20371 C -224.46958,322.38771 -220.98089,323.28101 -219.37469,321.17349 z M -326.61841,300.2688 C -320.13606,293.43569 -304.42287,267.65101 -313.21584,266.26632 C -317.58275,273.89547 -340.29131,281.69229 -336.02025,291.81772 C -331.37585,294.67612 -332.65934,312.34998 -326.61841,300.2688 z M -163.24632,302.46915 C -159.53882,292.9577 -149.56968,288.73659 -163.1154,281.33876 C -170.23942,275.71265 -195.21967,247.98313 -184.71946,273.16934 C -181.65557,282.18303 -169.62183,303.02993 -163.24632,302.46915 z M -132.31161,302.09747 C -133.98674,299.85752 -140.65795,292.51909 -136.35364,302.73542 L -134.33089,303.26097 L -132.31161,302.09747 L -132.31161,302.09747 z M -295.72098,298.50137 C -281.84649,290.12481 -296.21565,263.89504 -303.14602,258.66128 C -308.36621,267.17627 -315.45079,279.69528 -311.21945,289.69836 C -308.94838,297.90967 -304.77487,306.34297 -295.72098,298.50137 z M -187.39339,289.5188 C -183.33541,280.05003 -187.09503,270.41893 -189.65772,261.09267 C -200.42088,248.53338 -200.16859,283.23132 -205.65273,290.14824 C -202.98926,297.965 -186.16247,306.1823 -187.39339,289.5188 z M -153.24632,287.42316 C -145.39082,272.75632 -175.39298,267.00478 -185.18967,257.34566 C -201.14648,250.33128 -172.14471,270.60804 -168.01019,275.70197 C -163.69095,278.28785 -157.37809,288.78024 -153.24632,287.42316 z M -317.74631,268.08185 C -311.65842,265.5299 -296.5171,251.08376 -311.82259,258.82339 C -318.46074,268.96445 -348.46889,272.81256 -338.70613,286.13869 C -330.9885,281.0705 -325.124,273.62974 -317.74631,268.08185 z M -207.77287,274.2688 C -203.32782,259.14232 -199.91571,243.63617 -219.66239,238.93633 C -234.01349,233.00159 -222.8893,263.22942 -219.14338,269.34403 C -215.51395,277.10805 -208.42213,296.87654 -207.77287,274.2688 z M -136.49632,276.57523 C -132.01241,268.95014 -159.84215,260.03103 -157.49583,256.48442 C -149.15364,260.4878 -140.15467,270.15432 -132.23722,271.99084 C -124.62345,264.17598 -142.73856,255.05447 -128.50266,264.56067 C -108.85833,255.1615 -137.76339,245.93579 -145.67129,238.10191 C -154.28786,233.06851 -185.17115,206.18635 -175.96071,232.93879 C -163.88092,236.31911 -189.77933,236.08925 -175.45937,243.93986 C -169.05531,247.88488 -151.79003,261.41371 -169.24632,249.97569 C -179.54199,236.71637 -189.97802,254.58579 -175.78003,258.31919 C -163.46174,264.63275 -150.3907,279.57824 -136.49632,276.57523 z M -161.77615,242.70518 C -175.20723,235.05988 -161.24272,239.79634 -157.86841,244.41569 L -161.77616,242.70519 L -161.77615,242.70518 z M -345.71167,274.43335 C -331.86825,268.97755 -318.74884,261.39183 -307.38251,251.76251 C -314.95731,234.93336 -328.5685,252.34102 -338.5405,258.27036 C -342.62354,257.31878 -300.55399,236.48831 -322.74632,233.99001 C -313.37446,228.87864 -318.93674,209.71385 -330.24632,223.74437 C -342.46865,233.80223 -371.64873,244.45989 -372.42349,257.92718 C -362.24942,261.53771 -364.85713,262.81331 -359.8117,273.28675 C -352.04786,268.21872 -335.72694,254.86977 -351.74346,268.88975 C -362.01983,275.81915 -352.78884,278.51294 -345.71167,274.43335 z M -342.82126,245.2953 C -337.17307,240.02241 -325.03228,235.86902 -338.34878,243.50376 C -340.0843,244.15531 -350.07074,250.91017 -342.82126,245.2953 z M -113.25129,250.09753 C -121.28825,242.9421 -104.61721,251.70741 -109.07784,239.265 C -119.13738,230.4671 -142.38903,212.85798 -145.52806,232.98409 C -138.12425,238.64477 -120.18351,265.75604 -113.25129,250.09754 L -113.25129,250.09753 z M -368.90491,248.50565 C -356.70866,246.36946 -347.12969,223.04148 -360.57069,222.21194 C -367.58598,224.55071 -395.04868,244.05014 -375.74551,229.44087 C -363.55253,226.01869 -349.17957,206.58764 -368.4032,206.86677 C -377.17655,211.36039 -399.91697,217.38044 -398.55192,227.47628 C -393.77775,231.7695 -389.79154,238.74043 -386.59133,238.34754 C -391.08723,256.94407 -364.93716,232.82185 -367.71771,236.90496 C -371.92653,242.15361 -391.25841,248.41913 -377.34982,254.03504 C -374.1851,252.75887 -371.67908,250.40185 -368.90491,248.50565 z M -288.46909,245.70021 C -279.49471,235.6947 -302.97971,255.9569 -288.46909,245.70021 z M -202.28203,247.14601 C -214.91357,238.27817 -212.64689,242.60675 -201.28203,248.4932 L -202.28203,247.14601 L -202.28203,247.14601 z M -287.08459,239.02904 C -278.40535,238.25036 -263.83189,223.36443 -280.23399,226.25017 C -289.36185,224.22868 -306.79196,242.91185 -293.69387,242.85963 L -290.86773,241.26498 L -287.08459,239.02903 L -287.08459,239.02904 z M -198.40405,242.7688 C -192.36984,225.84113 -241.32231,228.28453 -211.70178,237.75762 C -209.27844,237.29474 -198.17415,247.32802 -198.40405,242.7688 z M -101.82545,232.39078 C -111.02989,226.2821 -121.73858,217.47994 -105.91925,227.7603 C -92.901115,236.95573 -96.298509,214.83355 -109.48997,216.3597 C -118.50056,205.73931 -149.15895,210.10478 -128.96373,223.90563 C -120.65282,225.06933 -110.45795,241.41877 -103.55583,235.80647 L -102.14395,233.70123 L -101.82545,232.39077 L -101.82545,232.39078 z M -239.30908,225.56662 C -237.46475,215.45003 -241.94549,204.68532 -240.86565,221.57597 C -241.36117,228.60933 -240.20929,239.04848 -239.30908,225.56662 L -239.30908,225.56662 z M -197.89017,232.28606 C -189.56255,214.28085 -224.59013,218.53487 -217.71554,227.5348 C -208.20578,226.0443 -205.26118,233.61773 -197.89017,232.28606 z M -338.64938,227.24332 C -330.68919,222.53351 -309.7509,212.8753 -331.47398,211.1068 C -348.02645,203.70525 -345.14008,222.89571 -347.51068,232.5188 C -344.36015,231.10757 -341.54072,229.09885 -338.64938,227.24332 z M -291.45648,228.64084 C -284.40515,225.4919 -263.52152,220.95634 -283.93609,218.00401 C -296.73161,211.15653 -296.86877,224.80384 -294.77527,225.6327 C -300.17061,229.53036 -296.03114,232.37008 -291.45648,228.64084 z M -151.7085,228.39964 C -149.45376,215.39015 -154.18408,211.9442 -167.32428,216.78487 C -181.77695,217.60931 -157.15736,226.61147 -154.33449,230.00573 L -152.57364,229.97823 L -151.7085,228.39964 L -151.7085,228.39964 z M -397.68167,221.03729 C -392.45926,215.10024 -361.95409,203.51601 -373.70426,198.45074 C -380.29888,197.08055 -397.18026,203.77147 -406.47392,209.39298 C -422.38628,223.48005 -383.4727,207.7692 -400.74632,215.60571 C -410.81883,217.09184 -402.86957,227.72985 -397.68167,221.03729 z M -91.803017,219.2963 C -88.778789,212.16502 -108.85866,207.13892 -92.118342,212.94725 C -86.377337,217.04544 -81.061634,205.73825 -90.494843,206.18816 C -99.026639,201.17861 -127.65931,194.37547 -125.08132,206.9948 C -114.78823,209.90315 -101.39814,223.10651 -91.803017,219.2963 z M -199.95334,215.62352 C -197.547,204.79625 -199.27867,192.11099 -208.96611,206.45063 C -219.90646,219.33459 -212.23909,218.87385 -199.95334,215.62352 z M -277.24631,215.96915 C -279.57459,207.3499 -305.18419,183.95222 -297.06537,206.7849 C -297.417,215.7394 -282.9525,215.33855 -277.24631,215.96915 z M -165.74632,213.34662 C -143.77339,210.9184 -157.09013,185.40589 -159.49068,177.9945 C -180.47321,178.62926 -167.84377,201.736 -175.80952,214.38932 C -175.04017,217.06969 -168.17005,212.93144 -165.74632,213.34662 z M -322.90665,206.7688 C -323.14391,197.00454 -331.82483,183.80016 -333.26899,179.71258 C -323.92649,182.21953 -344.03679,167.0743 -339.82808,180.03532 C -351.03101,190.1973 -346.98333,212.68108 -327.26017,209.33827 C -325.12472,208.99147 -319.58815,213.20988 -322.90665,206.7688 z M -406.35513,206.98454 C -393.74305,200.24986 -377.63109,198.78633 -387.46564,183.05706 C -395.66502,188.30583 -429.21341,194.51525 -417.39779,204.45411 C -410.48854,200.63046 -389.80688,190.84505 -407.74632,201.05713 C -421.06938,204.9394 -420.1066,213.34177 -406.35513,206.98454 z M -81.464844,204.41498 C -88.120171,198.16107 -99.207103,195.52022 -83.467687,199.70973 C -64.719778,198.9797 -108.56453,184.51504 -108.08371,189.98292 C -118.01293,199.03399 -85.696693,206.43043 -81.464844,204.41498 z M -133.24632,202.5188 C -114.67598,199.49503 -126.44409,161.5288 -133.66308,176.45943 C -126.33182,184.2837 -137.74814,192.88154 -133.49891,203.90985 L -133.24632,202.5188 L -133.24632,202.5188 z M -417.24631,193.15433 C -396.22285,173.15684 -449.27357,191.1605 -423.75032,189.23995 C -409.14846,180.88295 -438.56688,200.61502 -420.81345,195.12807 L -417.24632,193.15432 L -417.24631,193.15433 z M -365.56412,190.0675 C -375.31985,180.31848 -354.07837,162.78338 -371.28395,171.2205 C -375.97724,174.61182 -371.16802,208.0293 -365.56412,190.0675 z M -71.746323,193.75279 C -85.408348,184.3116 -61.014249,194.87093 -69.067318,185.24909 C -79.195759,174.37919 -97.036533,191.60716 -77.440108,194.38987 C -76.188321,194.43508 -72.201995,196.49131 -71.746323,193.75279 z M -93.861328,184.05399 C -88.730809,174.40729 -113.66705,169.70754 -107.77736,182.25966 C -111.17205,186.9501 -95.274721,188.01007 -93.861328,184.05399 z M -420.46619,178.38889 C -415.00935,169.68157 -453.32966,173.44751 -434.53598,184.5282 C -430.57518,185.23121 -424.45005,179.9414 -420.46619,178.38889 z M -394.51117,182.9799 C -380.54789,181.61622 -390.16729,162.74454 -400.94733,174.69564 C -409.50139,180.01167 -402.33655,189.53264 -394.51117,182.9799 z M -61.421009,181.54121 C -53.620679,172.6291 -92.820221,178.13549 -70.24632,182.43826 C -67.483837,184.07342 -63.02814,185.65979 -61.421009,181.54121 z M -468.99118,179.07321 C -477.70653,165.08133 -473.21326,188.45374 -468.99118,179.07321 z M -28.628929,177.70872 C -38.318966,174.30614 -32.409032,188.65755 -28.628929,177.70872 z M -54.408298,172.59322 C -49.538973,156.87632 -87.671037,175.15346 -62.871941,175.78806 C -59.465667,176.74185 -55.764802,176.73579 -54.408298,172.59322 z M -432.93784,172.16347 C -418.43271,170.54191 -442.73465,158.97918 -448.01126,165.11915 C -456.66947,167.15658 -438.8285,179.75935 -432.93784,172.16347 z M -90.268562,172.65222 C -90.083682,152.79753 -122.2878,168.43394 -102.69207,172.81872 C -98.76855,172.8941 -93.94599,174.35059 -90.268562,172.65222 z M -395.04391,169.6505 C -381.62303,169.93226 -390.07563,155.2784 -400.31173,158.76684 C -411.88337,159.99565 -414.86309,179.74073 -395.04391,169.6505 z M -237.99632,334.85651 C -243.27437,327.2098 -229.79954,336.4093 -237.99632,334.85651 z" id="path2742"/>
      <path style="fill: rgb(143, 115, 72);" d="M -330.79736,459.05093 C -335.67955,439.03776 -319.93003,420.54597 -321.96156,400.811 C -327.8323,390.96291 -344.81382,395.64879 -339.32545,378.80495 C -341.50879,361.62792 -366.7321,366.04122 -360.20122,345.37262 C -367.18545,336.18458 -370.83025,327.79834 -367.63295,315.11734 C -378.56627,304.56899 -366.43669,288.61379 -367.8035,281.11413 C -388.76774,281.12672 -402.3636,267.57196 -417.89491,256.78184 C -416.59317,244.87609 -431.47925,244.43987 -431.57406,231.95621 C -443.1775,230.74431 -441.94559,215.42533 -454.61713,215.37643 C -456.65679,204.47555 -470.9286,205.77988 -471.94726,193.86034 C -494.83608,183.20021 -472.1119,159.48336 -454.62676,155.08047 C -411.35131,139.47977 -364.36873,153.16057 -323.09196,168.61201 C -299.05735,178.15971 -277.66,193.35607 -259.41473,211.5591 C -261.542,198.3521 -243.93475,182.71856 -239.16229,200.83477 C -239.50809,216.37723 -233.80582,214.49557 -226.41402,204.69884 C -191.35401,174.4178 -144.80265,160.64693 -99.696106,154.36051 C -71.342771,151.86992 -36.53319,154.85314 -18.61817,180.07404 C -17.55753,194.18606 -35.582014,200.05715 -40.507107,210.1591 C -53.95997,217.19269 -61.946767,230.5006 -69.13301,242.5188 C -78.149101,248.76115 -80.114793,260.72761 -91.617877,264.87986 C -94.937294,283.13462 -134.85517,273.35011 -120.53638,296.93768 C -128.94527,311.09331 -116.03061,329.91358 -132.88153,338.76089 C -134.53669,349.87269 -129.88262,363.9866 -146.08374,364.32998 C -157.66837,373.95605 -143.65067,393.61591 -164.42743,393.2556 C -175.44572,410.50811 -159.16487,429.64522 -156.94201,447.31214 C -157.22154,473.58152 -176.93142,443.59045 -172.59586,431.27684 C -174.83979,419.55244 -188.31965,411.54082 -195.79172,423.29127 C -198.84889,402.45158 -238.77031,409.11573 -225.50926,381.91903 C -235.06784,370.84616 -242.45315,360.64242 -236.8532,344.89722 C -229.04954,342.10557 -217.28534,345.19255 -211.65238,347.99827 C -204.31156,344.19053 -199.30047,352.34614 -198.60892,341.76864 C -192.07841,344.05477 -186.32295,334.22851 -179.24632,339.31527 C -169.62371,329.41642 -172.45014,311.84479 -162.78056,301.68368 C -154.39032,289.99402 -139.20132,275.85711 -161.71564,270.39706 C -174.20893,264.22462 -197.28348,239.9246 -199.70313,267.80375 C -204.52574,283.46099 -208.3361,301.01176 -214.26089,315.51759 C -216.04549,307.60809 -206.3567,281.16273 -205.95184,266.23314 C -202.20229,258.0374 -200.54564,243.03002 -205.88745,241.42616 C -190.08875,255.97648 -192.20173,207.45623 -211.41618,220.09749 C -225.3681,220.6883 -214.23873,229.00045 -223.24632,232.03109 C -214.75828,236.69526 -201.06008,244.37538 -219.23444,236.25353 C -235.11986,234.15433 -219.26035,262.49882 -229.01562,255.21182 C -226.8064,276.85629 -225.42823,298.84648 -229.41647,320.39136 C -210.21152,328.96683 -245.97143,326.2202 -235.76682,310.21318 C -233.67616,293.15377 -233.42221,275.15372 -236.06247,259.04437 C -241.1276,233.85496 -236.96363,280.38942 -241.18497,287.37365 C -241.81551,304.25127 -251.44298,307.69355 -253.85028,288.97405 C -258.09549,276.41684 -256.82312,251.96519 -257.29734,246.0188 C -264.61704,270.85466 -260.7196,297.18206 -261.74201,322.76345 C -263.77545,329.03422 -287.16424,327.5956 -268.68619,322.02642 C -263.36758,314.04062 -270.59009,301.08546 -267.97291,291.50436 C -269.42935,272.23979 -263.06757,251.39374 -271.32056,233.37261 C -285.72825,238.85986 -302.12893,247.48608 -290.29078,265.14101 C -285.55115,284.67887 -284.20191,305.30664 -278.35505,324.31589 C -290.20041,301.91997 -286.85746,273.16535 -303.77325,252.87178 C -310.28397,256.17618 -325.33018,266.18298 -311.1843,255.47669 C -298.19282,249.16856 -323.98911,238.64552 -316.63778,224.96494 C -321.27599,214.59787 -321.08358,211.37357 -336.19258,209.83876 C -347.78139,203.45724 -309.54959,219.55457 -323.27318,202.03649 C -324.62068,191.46158 -327.39714,165.6802 -339.64218,175.44467 C -343.51444,185.18008 -349.65975,198.89168 -343.61103,209.36931 C -348.9981,216.17273 -346.04944,240.4022 -353.74812,236.22363 C -351.98356,225.9429 -357.16032,215.65584 -366.26996,223.75437 C -348.13728,216.36098 -364.03569,200.28203 -374.44589,206.85148 C -360.4812,190.37722 -394.59901,200.20565 -401.45766,206.29474 C -425.67074,212.84373 -391.80449,230.30553 -388.25264,241.59449 C -379.70622,254.86375 -364.85995,266.02315 -354.89102,275.95212 C -333.83126,277.73369 -335.02235,307.72218 -322.83871,320.43268 C -320.29481,326.86891 -319.89444,343.9987 -308.24632,338.45978 C -308.53435,339.14174 -293.01968,345.67556 -290.996,349.96466 C -282.56999,353.73346 -276.89606,342.30153 -276.50497,344.60845 C -264.0943,343.54902 -253.94975,344.88487 -257.45073,360.86604 C -257.42013,372.23913 -275.78777,378.28503 -265.58082,393.09679 C -259.63537,417.501 -294.9262,398.90905 -291.05307,422.603 C -297.67133,426.13648 -305.87042,405.44421 -314.35844,420.60781 C -323.97892,427.60688 -313.07242,470.42987 -330.79736,459.05093 z M -177.97427,406.66516 C -183.61572,396.70153 -203.48817,409.86189 -184.36227,406.72814 C -181.31645,406.18316 -173.24956,414.09494 -177.97427,406.66516 z M -302.00095,405.86145 C -288.47017,403.25762 -317.45796,399.74239 -312.90381,407.66768 C -309.41292,406.39884 -305.75945,405.20795 -302.00095,405.86145 z M -321.31348,382.94733 C -330.2063,377.58676 -339.23498,385.64758 -323.67488,385.43949 C -320.59423,388.09389 -317.35929,385.76367 -321.31348,382.94733 z M -164.00989,381.34961 C -146.26364,374.89347 -182.27968,382.78342 -168.99632,383.80309 L -166.19093,382.41301 L -164.00989,381.3496 L -164.00989,381.34961 z M -285.83368,370.2688 C -286.1898,356.21511 -289.16803,384.54963 -285.83368,370.2688 z M -207.22125,371.55936 C -200.19531,370.81599 -206.91633,363.47708 -205.25221,370.42333 C -213.07834,360.28502 -211.85747,375.86093 -207.22126,371.55935 L -207.22125,371.55936 z M -336.82306,360.2688 C -338.55009,346.59305 -361.48395,354.07009 -343.06371,358.9313 C -340.37222,358.23593 -336.95268,366.70245 -336.82306,360.2688 z M -149.83844,358.01672 C -127.64168,351.88922 -164.9198,352.01781 -155.80233,361.56528 L -153.52824,360.0895 L -149.83844,358.01672 L -149.83844,358.01672 z M -270.81271,356.2865 C -262.55013,353.65793 -258.22391,350.60433 -270.21746,352.70924 C -272.8426,353.28804 -274.7577,364.3548 -270.81271,356.2865 z M -232.92953,352.54578 C -222.923,353.87571 -217.2408,352.76734 -230.46763,349.92059 C -233.34376,348.8771 -241.84994,358.41565 -232.92953,352.54578 z M -134.37352,328.5188 C -122.79079,319.0634 -152.94886,327.5423 -140.97152,334.06205 C -138.80652,332.19492 -137.29284,329.35798 -134.37352,328.5188 z M -350.42957,331.71179 C -352.29629,319.43586 -371.1474,326.57861 -354.56598,332.5188 C -352.55779,333.7506 -352.02429,336.36925 -350.42957,331.71179 z M -133.80032,303.90115 C -125.66175,302.54549 -142.90492,289.63654 -137.21114,302.58454 L -135.90841,304.3768 L -133.80033,303.90115 L -133.80032,303.90115 z M -355.81775,301.94736 C -349.23745,290.15567 -366.49028,306.06634 -357.56752,303.04789 L -355.81775,301.94737 L -355.81775,301.94736 z M -362.8847,295.0188 C -353.05305,286.84359 -371.36482,297.26146 -362.8847,295.0188 z M -127.79086,293.26334 C -135.40886,284.49363 -128.07164,300.81185 -127.79086,293.26334 z M -135.19138,275.7688 C -127.74762,261.90288 -110.83891,255.0791 -107.25283,239.01096 C -98.200654,235.42353 -89.835438,217.61258 -108.99801,216.24343 C -121.46969,203.66801 -145.82391,212.18104 -131.6442,223.86322 C -145.47543,215.62536 -147.53531,237.27518 -141.73996,240.30027 C -160.10678,237.82989 -142.22809,211.17909 -159.76249,214.96247 C -181.54829,212.68984 -178.8303,230.06992 -182.45968,246.1065 C -185.03667,262.46861 -155.9818,268.128 -144.40482,277.41082 C -141.30559,280.09964 -137.78218,277.3341 -135.19138,275.7688 z M -126.99632,250.93521 C -143.06364,238.51518 -110.39394,261.34906 -126.99632,250.93521 L -126.99632,250.93521 z M -397.24631,260.58618 C -403.83638,245.34007 -399.82659,269.72121 -397.24631,260.58618 z M -92.424889,257.48309 C -98.506482,256.3163 -94.476048,266.56557 -92.424889,257.48309 z M -289.88235,241.07285 C -275.70471,238.96441 -261.72333,222.07624 -282.00588,217.99812 C -303.2184,206.95044 -299.57006,234.08054 -297.08726,245.21018 C -294.52828,244.11623 -292.26083,242.48857 -289.88235,241.07285 z M -409.24631,243.05399 C -413.69816,233.98451 -413.71591,248.22855 -409.24632,243.05398 L -409.24631,243.05399 z M -255.09953,240.2688 C -255.46815,229.84469 -256.16107,214.71474 -255.27416,207.11225 C -259.07582,211.59629 -260.03853,246.04426 -255.09953,240.2688 z M -238.87361,227.73058 C -234.29734,218.45545 -245.05092,191.89689 -241.54387,215.74883 C -242.12918,224.01693 -242.04695,250.44307 -238.87361,227.73058 z M -420.24631,228.60059 C -423.92432,216.18084 -426.34022,232.51869 -420.24631,228.60059 z M -87.496323,214.2179 C -82.557191,200.63275 -115.4457,197.46544 -126.42958,201.73431 C -128.14588,212.09055 -102.69757,215.90968 -93.838172,221.50851 C -90.881293,219.87899 -89.596795,216.64851 -87.496323,214.2179 z M -199.49632,215.71864 C -197.17467,206.25824 -195.89503,188.54541 -207.05061,203.63568 C -219.90609,215.63181 -215.80825,222.97444 -199.49632,215.71864 z M -279.47281,210.75903 C -285.67068,202.59972 -306.23399,183.56813 -298.07197,205.53962 C -302.85575,214.66927 -268.61463,222.00837 -279.47281,210.75903 z M -432.24631,215.14125 C -438.35436,204.33404 -437.53024,220.75802 -432.24631,215.14125 z M -169.24632,214.46255 C -148.62385,215.3079 -151.56816,192.79164 -157.49632,181.59327 C -152.96597,171.74248 -179.16175,180.7378 -172.66918,190.45182 C -168.99593,197.6391 -186.49035,222.22254 -169.24632,214.46255 z M -406.24631,207.42332 C -396.33496,199.68752 -372.79707,200.10709 -386.24632,186.3784 C -386.88017,174.38603 -406.84915,194.8519 -414.81623,194.47227 C -431.77421,195.75106 -414.61955,216.96511 -406.24631,207.42332 z M -266.24631,210.10854 C -270.89977,204.03889 -300.40641,184.23825 -280.24632,200.17257 C -275.66251,203.42408 -271.41738,208.12258 -266.24631,210.10854 z M -210.62328,197.80852 C -219.23754,200.45458 -230.14096,213.01892 -214.91683,201.51536 L -212.54264,199.73098 L -210.62327,197.80852 L -210.62328,197.80852 z M -80.635422,204.65234 C -65.535817,190.99921 -102.05886,191.71921 -109.91729,186.94991 C -122.17705,203.14018 -91.796747,200.629 -81.740832,206.36706 L -80.63542,204.65235 L -80.635422,204.65234 z M -446.24631,204.6738 C -452.61899,192.9372 -453.38446,209.1763 -446.24631,204.6738 z M -125.57423,196.5188 C -115.91471,188.03709 -124.77849,165.16505 -136.24683,173.87725 C -126.81437,180.00824 -142.62884,205.79636 -131.79163,202.2202 L -128.64297,199.63734 L -125.57423,196.5188 L -125.57423,196.5188 z M -416.89368,193.42732 C -396.22725,183.07944 -435.82841,175.42486 -430.49299,191.39437 C -424.26816,192.36217 -428.67766,202.73596 -416.89368,193.42732 z M -365.07135,195.2688 C -366.11319,185.82219 -364.06439,175.0132 -361.80447,168.23585 C -378.38891,161.64112 -376.52978,200.07188 -365.07135,195.2688 z M -67.967239,190.48454 C -61.987058,174.17648 -103.54023,185.07001 -80.77774,193.57624 C -75.97924,196.17684 -70.470534,196.56041 -67.967239,190.48454 z M -456.83942,192.2688 C -463.18451,181.80399 -464.15008,192.38212 -456.60119,193.52279 L -456.83941,192.2688 L -456.83942,192.2688 z M -36.41758,190.42142 C -34.752916,181.03777 -44.739044,197.62235 -36.41758,190.42142 z M -95.260658,186.52647 C -80.241124,176.12406 -117.51159,166.56644 -108.19694,181.30976 C -113.7278,187.10566 -97.832553,187.84425 -95.260658,186.52647 z M -427.58612,182.75414 C -401.86023,173.82877 -442.86425,169.20222 -441.58951,178.19534 C -437.68068,182.28031 -433.68831,188.47025 -427.58612,182.75414 z M -394.53384,183.37616 C -383.06055,184.57573 -385.08665,170.88945 -387.4563,169.92699 C -400.80264,166.76124 -416.2811,190.48515 -394.53384,183.37616 z M -61.005211,182.08334 C -55.321898,171.45457 -94.504297,177.12518 -69.933669,183.19656 C -66.498042,184.9062 -63.015981,186.99857 -61.005211,182.08334 z M -27.682051,177.62279 C -41.068356,172.84107 -31.679721,191.99605 -27.682051,177.62279 z M -468.24631,180.45306 C -471.07524,164.20849 -483.00773,184.52832 -468.24631,180.45306 z M -53.313931,171.90881 C -46.34563,158.17965 -87.918987,172.33303 -65.673485,175.70833 C -60.776001,177.05641 -55.361583,177.94425 -53.313931,171.90881 z M -439.67783,174.11719 C -423.05587,175.9259 -427.85763,160.47826 -441.22429,163.80185 C -458.0078,159.76795 -449.3985,178.77574 -439.67783,174.11719 z M -89.433311,173.03912 C -88.903326,160.93629 -107.51391,158.48483 -110.50727,167.37401 C -112.76842,175.70445 -93.9082,173.82173 -89.433311,173.03912 z M -399.62204,171.16104 C -388.60186,173.59889 -379.47229,161.23471 -393.76004,159.04737 C -403.78493,155.35482 -410.02068,164.0637 -411.04465,170.80564 C -407.31164,172.02225 -403.35046,173.22019 -399.62204,171.16104 z M -47.386002,164.04578 C -56.242508,160.08973 -81.393616,159.98602 -58.24632,163.0001 C -54.860308,163.20283 -50.453416,165.13179 -47.386002,164.04578 z M -434.74631,158.42346 C -424.06638,157.9797 -417.06941,154.14276 -432.86675,156.33404 C -439.1039,156.05265 -463.05321,162.51512 -443.5432,159.40121 C -440.61312,159.05566 -437.6807,158.73016 -434.74631,158.42346 z M -400.84323,152.54427 C -409.41133,150.31774 -425.92685,151.94995 -407.41761,152.88358 C -407.19058,152.55461 -395.67781,154.35919 -400.84323,152.54427 z M -218.99632,322.92282 C -213.62929,308.04975 -215.71545,329.50599 -218.99632,322.92282 z M -309.64081,301.1044 C -312.4703,291.67924 -317.55246,283.02296 -311.29356,273.68195 C -310.22543,271.7242 -315.84347,292.63486 -308.04387,298.79849 C -304.83475,301.29428 -308.89377,304.76572 -309.64081,301.1044 z M -187.82898,294.2688 C -186.94379,284.57153 -181.07969,271.41454 -184.91687,289.31755 C -184.88283,290.70901 -188.45529,300.92706 -187.82898,294.2688 z M -204.58096,232.83266 C -218.1022,226.91605 -188.75981,237.20732 -204.58096,232.83266 z M -281.09753,164.2688 C -287.02911,159.62105 -290.86925,140.90571 -283.97291,157.54982 C -281.19678,161.91072 -272.94818,174.94131 -281.09753,164.2688 z M -218.05782,158.2688 C -215.39257,149.23263 -211.47499,144.23488 -216.36847,157.2688 C -216.24917,157.92274 -220.78154,165.91227 -218.05782,158.2688 z" id="path2740"/>
      <path style="fill: rgb(104, 96, 79);" d="M -329.01459,461.68317 C -336.46172,444.21129 -323.7063,425.55304 -321.47201,407.88816 C -317.11123,389.18638 -346.86241,399.27266 -339.09235,379.43688 C -339.92578,361.2789 -367.01901,366.50114 -360.05031,345.56519 C -367.85786,335.75378 -370.13085,326.46938 -367.80127,313.16962 C -377.32197,304.06645 -367.45924,289.02405 -367.1873,281.5188 C -385.44582,280.68 -398.99849,270.86767 -413.31722,260.97508 C -418.65596,254.15194 -419.6204,245.41432 -428.51864,241.68114 C -428.08148,229.88218 -442.88491,228.81067 -446.06387,218.23149 C -457.47439,219.05783 -454.98046,203.9422 -467.02077,204.19815 C -471.36959,191.84528 -493.24398,180.08062 -474.14357,167.52355 C -442.31054,141.05678 -397.31324,146.33086 -360.14136,156.24346 C -322.65386,166.0096 -286.34906,183.20151 -259.47205,211.7328 C -261.74543,198.32271 -242.77764,182.52908 -239.24383,201.0158 C -238.94727,211.37566 -235.74103,218.13261 -228.92841,207.24423 C -195.55658,177.02613 -150.77634,162.29671 -106.98544,155.41605 C -76.484492,151.41122 -38.830659,152.71216 -18.924935,179.74384 C -16.251913,194.29893 -36.494478,199.12623 -40.628701,210.19334 C -52.661718,217.95672 -62.91708,227.8837 -67.490269,241.7843 C -78.374758,247.63496 -80.313365,260.54748 -92.292336,265.83291 C -95.159719,282.80801 -134.9741,273.96831 -120.87224,294.69684 C -124.05373,307.09069 -124.44198,319.29569 -124.44337,331.63012 C -143.32268,336.33402 -123.16702,364.78906 -145.92979,364.28765 C -158.5783,372.89902 -142.96062,394.36401 -164.50188,392.64592 C -175.34658,410.94461 -158.50151,430.52135 -156.74178,449.22347 C -162.84468,474.17601 -174.12724,438.0935 -173.82068,427.9968 C -177.47051,416.41743 -189.9311,413.48815 -195.86437,422.91654 C -197.82426,401.89461 -238.16367,410.72373 -224.76141,383.95433 C -219.16804,374.22724 -252.50506,364.89761 -233.831,352.73468 C -223.82809,353.99213 -216.43634,352.43886 -230.46786,349.93649 C -242.87297,358.69035 -238.00336,338.34376 -226.97292,344.76428 C -216.12264,347.25765 -202.30423,351.85728 -196.54566,344.61946 C -189.76045,335.46288 -170.45471,346.17345 -172.24074,326.76592 C -170.60168,308.05222 -156.95703,292.616 -144.78815,279.53671 C -128.46341,275.10679 -119.44055,256.44029 -108.18881,244.36571 C -97.986358,229.98487 -89.080539,214.65835 -77.88755,201.55038 C -70.856856,196.35413 -86.024065,193.45458 -72.981365,196.02098 C -67.356485,187.81106 -50.975908,175.34651 -52.37914,167.6584 C -66.644133,159.15287 -74.837822,176.20432 -81.65049,180.93484 C -93.096986,183.19655 -86.740969,193.18161 -83.856928,193.504 C -91.518977,191.60633 -110.17436,188.25074 -92.977436,185.34588 C -85.072069,176.38823 -107.56934,173.82518 -89.340189,173.51931 C -87.574511,162.47493 -109.85665,156.02572 -112.17927,170.54196 C -104.35368,178.09254 -111.52992,194.16507 -116.02027,198.02304 C -128.99635,197.39186 -128.87097,207.74739 -128.65193,208.49657 C -144.92829,210.40514 -129.22212,223.45956 -143.06055,223.81666 C -145.27028,235.90991 -152.39721,238.43519 -150.67182,223.92014 C -141.63571,204.45029 -182.95792,221.28264 -160.14549,213.11874 C -146.83801,207.44911 -153.89824,178.67578 -161.49896,177.52205 C -180.88905,182.3156 -171.85374,208.80542 -179.18464,223.41624 C -179.18898,238.74397 -185.85748,250.72946 -196.72356,258.09752 C -204.41282,276.09697 -205.79822,296.05275 -214.41032,313.63915 C -211.49658,299.30079 -207.67136,281.35929 -205.3868,265.46622 C -200.31605,249.37298 -188.98018,233.4034 -199.24846,217.02137 C -191.60517,203.54302 -202.17971,190.22068 -211.58281,208.39135 C -218.60533,222.44763 -227.45071,235.68375 -228.54867,251.78625 C -228.84146,274.00113 -225.08893,296.94409 -229.5193,319.17681 C -216.757,330.00985 -243.90093,323.42173 -235.37557,311.79533 C -234.02023,290.89959 -231.992,269.81859 -237.92758,249.5188 C -239.64025,258.733 -238.2067,279.83356 -242.21669,292.5188 C -252.2878,318.63302 -256.8128,271.79743 -257.0375,262.03011 C -254.99159,243.74022 -256.15058,222.5539 -254.77556,206.29595 C -263.45151,223.02549 -253.92022,242.81022 -261.02078,260.28576 C -262.70325,281.43714 -259.99141,302.86083 -262.65056,323.88662 C -274.80567,329.55224 -263.38719,304.13645 -267.88354,295.941 C -268.63839,272.25354 -263.95824,248.20052 -271.74873,225.19002 C -277.18859,214.68955 -284.11478,199.7781 -299.87171,193.71365 C -304.65817,204.64839 -288.47277,216.41392 -298.445,217.63162 C -299.90782,235.7071 -300.05578,245.66205 -292.03005,259.97527 C -287.71072,272.91707 -285.93479,288.89295 -285.08135,301.00466 C -290.67554,282.9865 -293.23316,261.25044 -306.81372,247.63059 C -317.95609,238.7724 -317.13818,217.2808 -320.85284,208.12009 C -326.76291,195.23739 -319.97671,169.78813 -341.31838,172.91123 C -340.51421,184.12333 -351.98624,198.17874 -344.27491,209.77987 C -348.29841,217.89988 -350.34944,246.68142 -354.47854,222.0188 C -363.51902,220.54607 -350.85407,209.37967 -363.62653,204.85246 C -375.64126,206.95247 -372.01059,207.82728 -369.07474,199.58074 C -387.15655,198.35537 -387.33889,177.00762 -385.61431,168.93535 C -383.92982,150.90837 -415.91929,157.32171 -409.61998,171.5473 C -394.89171,168.09275 -412.4786,186.97616 -399.70695,186.44384 C -404.98203,190.67901 -421.63661,197.91382 -410.03416,187.75619 C -412.40291,179.95447 -420.8803,181.76035 -419.33102,174.47915 C -427.74097,167.80339 -441.52776,157.68386 -451.01787,166.67357 C -442.90542,178.95915 -430.5271,190.84747 -422.36472,200.77018 C -411.78643,213.72781 -401.21573,226.6514 -390.17049,239.64449 C -379.81868,253.6224 -366.34036,267.72002 -352.57133,276.83466 C -333.40161,285.64382 -332.71735,309.62566 -321.72806,325.08341 C -323.15705,342.84007 -297.60537,343.38732 -288.32358,349.83996 C -276.50851,356.92898 -273.70723,338.48151 -259.43106,346.09945 C -255.72471,357.90445 -255.40472,368.95554 -267.73757,373.33975 C -269.03844,385.79678 -258.77334,415.28548 -282.37536,407.46693 C -293.49283,408.5125 -289.02516,436.9759 -300.08731,416.63409 C -328.47085,412.1367 -312.82555,449.71865 -325.27803,461.90884 L -327.1152,462.32344 L -329.01459,461.68318 L -329.01459,461.68317 z M -178.84105,405.41992 C -185.75583,396.18965 -203.28149,411.0872 -185.00544,406.91901 C -180.743,407.03521 -172.49282,413.66527 -178.84105,405.41992 z M -311.04272,407.40985 C -302.02809,406.71948 -289.92737,404.80859 -306.44732,401.93078 C -308.66604,400.89063 -320.35414,411.54114 -311.04272,407.40985 z M -283.44901,402.66522 C -284.7369,395.78773 -295.07638,405.32646 -283.44901,402.66522 z M -203.78903,402.58789 C -210.54837,394.86388 -215.47057,406.90395 -203.78903,402.5879 L -203.78903,402.58789 z M -319.9209,384.3363 C -326.66937,375.70765 -341.72509,385.23054 -323.55337,385.53806 C -321.73417,386.9535 -316.38507,388.87394 -319.9209,384.3363 z M -170.91608,384.85522 C -164.06336,383.34776 -151.20087,378.25741 -165.5897,377.89013 C -167.51053,377.67206 -177.59475,386.84813 -170.91608,384.85522 z M -285.83368,370.2688 C -286.1898,356.21511 -289.16803,384.54963 -285.83368,370.2688 z M -207.22125,371.55936 C -200.19531,370.81599 -206.91633,363.47708 -205.25221,370.42333 C -213.07834,360.28502 -211.85747,375.86093 -207.22126,371.55935 L -207.22125,371.55936 z M -337.98904,357.11145 C -340.97019,346.17492 -361.4662,355.73826 -344.33149,357.83249 C -341.40598,360.11636 -332.98742,367.63506 -337.98904,357.11145 z M -153.0647,360.23123 C -145.34116,357.4197 -137.24296,351.77185 -151.15031,352.9902 C -155.57693,353.01816 -164.08201,367.66486 -153.0647,360.23123 z M -270.81271,356.2865 C -262.55013,353.65793 -258.22391,350.60433 -270.21746,352.70924 C -272.8426,353.28804 -274.7577,364.3548 -270.81271,356.2865 z M -133.28252,328.17603 C -123.18911,318.37936 -153.81406,328.14225 -141.00427,334.16828 C -138.7202,331.85588 -136.62623,329.01338 -133.28252,328.17603 z M -350.24631,331.95306 C -351.79833,317.87794 -371.66071,326.68084 -353.99047,333.29605 C -353.03828,335.08264 -349.22959,334.47244 -350.24631,331.95306 z M -131.45717,302.05972 C -117.69208,283.93569 -147.96304,294.18448 -134.9899,304.49758 L -133.31184,303.85512 L -131.45717,302.05973 L -131.45717,302.05972 z M -355.44632,302.31879 C -351.09925,286.66528 -375.14154,291.91111 -360.62541,303.16733 C -358.91327,303.73644 -356.83809,303.56646 -355.44632,302.31879 z M -361.24631,300.48657 C -355.9862,295.61812 -368.77375,296.4614 -357.10352,295.69471 C -355.42796,297.98381 -358.94481,302.36658 -361.24631,300.48657 z M -397.42676,260.2688 C -405.75432,248.02116 -398.38672,269.43871 -397.42676,260.2688 z M -92.853127,259.25723 C -91.893438,250.17989 -100.25972,266.9038 -92.853127,259.25723 z M -408.68915,242.61131 C -416.80137,232.88284 -410.11228,251.60069 -408.68915,242.61131 z M -78.226257,242.99463 C -76.572532,234.6089 -85.459979,248.41335 -78.226257,242.99463 z M -238.8718,228.44095 C -234.20794,218.12814 -245.26459,191.93433 -241.95508,216.82885 C -242.76418,225.46636 -241.30989,250.79792 -238.87179,228.44095 L -238.8718,228.44095 z M -420.24631,227.64124 C -425.85434,214.87202 -423.89343,235.75107 -420.24631,227.64124 z M -432.24899,214.51379 C -440.86247,205.45847 -432.56469,222.83874 -432.24899,214.5138 L -432.24899,214.51379 z M -57.246319,209.89636 C -61.23757,205.13531 -61.482152,219.01923 -57.246319,209.89636 z M -269.625,206.62379 C -277.62339,199.3629 -293.14938,188.71144 -298.67152,186.33336 C -288.6562,193.56973 -275.12207,206.04142 -266.6453,209.43161 L -269.62501,206.6238 L -269.625,206.62379 z M -208.49632,197.4025 C -201.77137,193.31938 -191.13699,185.00959 -204.31902,192.9488 C -212.27291,196.01119 -235.523,216.05309 -215.76158,202.26716 C -213.34056,200.64451 -210.91876,199.023 -208.49632,197.4025 z M -446.24631,204.5312 C -455.244,191.52257 -451.66025,210.08319 -446.24631,204.5312 z M -128.09441,199.57114 C -114.01654,193.34808 -123.98257,162.06328 -136.17757,174.74307 C -128.09952,179.85794 -144.9221,215.75874 -128.09441,199.57114 z M -46.746319,200.18547 C -48.938513,194.10889 -49.756593,207.07266 -46.746319,200.18547 z M -364.92865,195.2688 C -366.40236,185.7852 -363.3042,173.88815 -361.39852,167.75447 C -379.0732,161.19905 -377.06984,202.18674 -364.92865,195.2688 z M -456.24631,192.67435 C -462.71376,179.22434 -464.20957,194.89095 -456.24632,192.67434 L -456.24631,192.67435 z M -36.638371,190.7688 C -33.14596,181.13251 -46.367505,196.92174 -36.63837,190.7688 L -36.638371,190.7688 z M -29.434879,181.47984 C -23.76617,167.81602 -42.473669,186.35014 -29.434879,181.47984 z M -468.24631,179.84753 C -476.38693,158.26806 -477.48051,192.13747 -468.24631,179.84753 z M -142.96477,167.43999 C -124.39311,160.70934 -149.80743,166.68156 -150.21477,169.5188 C -147.74046,169.0397 -145.35755,168.20951 -142.96477,167.43999 z M -46.246319,164.96777 C -54.368577,158.96019 -90.426019,158.73991 -62.24632,162.5748 C -56.963855,162.61623 -51.286794,165.67059 -46.246319,164.96777 z M -365.24631,163.57973 C -376.84283,158.2952 -372.15315,166.64399 -365.24631,163.57973 z M -350.48911,162.94267 C -356.63078,158.79732 -394.5373,149.55904 -370.43304,157.11338 C -364.12714,158.18593 -355.90753,163.57052 -350.48911,162.94267 z M -445.06155,160.05444 C -435.96891,160.29459 -406.94413,153.34102 -431.83362,155.49525 C -440.14326,155.42244 -469.1272,164.14696 -445.06156,160.05444 L -445.06155,160.05444 z M -81.414528,157.48839 C -50.060706,154.41711 -117.50714,157.91398 -86.08962,157.54561 L -83.795816,157.50625 L -81.41453,157.48839 L -81.414528,157.48839 z M -432.24631,153.86646 C -422.16735,150.06079 -394.09523,156.48981 -394.45672,153.01398 C -409.90461,149.81194 -433.31328,150.35028 -443.88488,155.39151 C -439.98629,155.03566 -436.12156,154.40474 -432.24631,153.86646 z M -281.58121,163.2688 C -288.25815,155.12307 -289.93179,142.65193 -283.23239,159.06478 C -282.09733,160.92449 -274.85644,171.50635 -281.58121,163.2688 z" id="path2738"/>
      <path style="fill: rgb(44, 43, 41);" d="M -330.21115,459.58453 C -335.32634,439.12011 -318.77184,420.15063 -321.68228,399.78008 C -330.10702,391.808 -341.92556,395.09328 -338.79202,379.41339 C -339.15113,360.97693 -365.83389,365.9934 -359.30533,345.7582 C -366.25373,335.93436 -370.45567,327.92902 -366.91106,315.03556 C -374.8725,304.28152 -370.05837,290.96637 -365.96702,281.66119 C -382.25198,278.45529 -397.68186,274.51617 -409.24203,261.5188 C -419.47377,258.9561 -417.37189,244.09088 -427.93524,242.00623 C -428.01271,229.40063 -442.85205,229.79516 -445.01731,217.64136 C -455.70658,217.8746 -458.16336,204.07035 -468.3905,201.7198 C -471.47614,190.22329 -492.8873,178.38163 -473.57986,167.69697 C -455.25485,151.23308 -429.18179,147.31908 -405.55884,149.21545 C -422.79496,152.86922 -445.19022,148.30309 -457.90813,161.99636 C -444.07151,159.99185 -425.8386,159.34518 -414.59466,154.2688 C -408.05334,152.90644 -377.77622,158.98009 -382.91423,156.34853 C -393.96212,151.51712 -362.57484,159.30078 -357.95998,161.70414 C -350.95174,164.26463 -329.05963,170.66952 -348.49943,162.90154 C -354.96628,159.30924 -392.98321,149.71835 -368.41988,154.65575 C -332.65853,164.03396 -296.61377,176.9092 -269.46151,203.09629 C -262.78084,213.54257 -254.32478,213.26075 -256.11172,199.67285 C -250.37021,199.10669 -253.39136,199.93811 -248.65417,192.5794 C -237.27674,204.63191 -246.74309,229.98199 -240.26826,246.65081 C -237.96116,265.33558 -240.17399,285.64837 -248.07942,302.48976 C -256.9809,281.82483 -257.26551,257.30423 -253.6454,234.88707 C -257.7771,226.59204 -251.93572,205.89803 -254.48278,203.99924 C -265.54232,217.67268 -255.65018,234.18758 -259.59997,250.67355 C -263.61391,274.5265 -263.33399,298.97538 -261.78929,323.03855 C -271.4451,310.74225 -266.77445,283.42392 -267.07558,265.61125 C -264.28101,249.25542 -268.51844,232.53051 -273.69361,217.73829 C -277.45068,209.82804 -298.04289,186.81863 -301.55432,196.62926 C -296.76831,212.04453 -301.72562,225.25242 -299.7423,240.77902 C -315.72247,256.88896 -314.22933,222.06132 -317.86988,212.938 C -324.28195,202.93391 -321.30924,186.24073 -326.0882,176.01654 C -336.82353,169.09086 -341.28217,171.06792 -343.66288,179.82814 C -348.68832,193.35785 -345.85714,210.78956 -348.37459,220.36342 C -348.23091,229.64289 -352.31773,239.70877 -353.34488,223.58242 C -355.11765,214.8392 -357.96894,204.79342 -368.0052,202.92908 C -363.64294,194.32529 -395.5769,195.98182 -384.09698,179.10987 C -387.77625,172.35875 -378.77351,158.98311 -393.38231,158.27335 C -405.6094,153.89332 -407.96079,161.12317 -413.19006,170.55346 C -400.36235,170.32216 -410.01291,183.8026 -401.9912,187.56445 C -410.93561,192.0693 -413.45603,195.02805 -409.4061,184.31505 C -421.55855,177.86858 -429.29449,156.22577 -450.46765,164.30911 C -451.1556,177.57434 -428.28173,189.24203 -421.36683,203.82952 C -410.32367,215.97799 -399.89644,228.92443 -389.25264,241.7688 C -377.96481,255.25552 -365.35989,271.6121 -349.58803,278.4318 C -333.77021,289.54313 -334.08372,310.05644 -322.72823,323.60779 C -324.94314,338.09563 -310.03726,343.9831 -301.67161,345.0188 C -295.5968,351.3775 -293.28739,354.63733 -282.58333,353.56957 C -273.82924,366.45654 -279.64432,344.86372 -266.48759,347.1927 C -254.0936,348.2405 -260.36628,353.4347 -269.18469,351.78181 C -276.31466,359.60691 -272.80485,365.22825 -267.20312,354.95627 C -252.85594,354.81094 -258.59848,371.44264 -269.21621,372.73955 C -271.19649,384.71613 -256.78121,414.24569 -282.63271,407.09961 C -293.53675,407.53388 -290.11928,435.27851 -299.28093,416.68755 C -327.07081,409.02117 -313.84817,448.03217 -325.0983,460.5366 C -326.65154,461.93698 -329.38533,461.69137 -330.21115,459.58453 z M -305.71948,406.38043 C -284.43574,409.74964 -313.86271,393.03559 -315.35894,409.30996 C -312.14721,409.7983 -309.13589,406.1577 -305.71948,406.38043 z M -281.81143,402.54355 C -272.84061,393.6841 -301.75947,402.74028 -284.48335,403.29613 L -281.81142,402.54355 L -281.81143,402.54355 z M -318.24631,386.6077 C -322.25854,372.24015 -345.18896,386.53997 -323.24632,386.39781 C -322.40669,386.48162 -317.69992,390.34313 -318.24631,386.6077 z M -283.22345,374.95862 C -271.74042,366.94895 -297.42228,360.05823 -290.89058,374.59118 C -287.19505,373.33731 -284.37186,380.63258 -283.22345,374.95862 z M -336.24631,361.2413 C -334.31602,346.09131 -364.26474,354.16867 -345.22754,358.03879 C -343.37259,358.58865 -336.01701,366.96969 -336.24631,361.2413 z M -349.8533,333.93701 C -347.44234,318.47502 -373.23942,324.75919 -355.83358,332.5188 C -353.80206,332.25534 -351.07107,337.99677 -349.8533,333.93701 z M -354.8533,302.93701 C -349.60505,287.48173 -375.58197,290.56311 -361.34799,302.8931 C -359.97372,304.65432 -355.81872,306.09214 -354.8533,302.93701 z M -381.1691,274.0188 C -387.19588,265.51105 -384.83623,279.21235 -381.1691,274.0188 z M -249.3333,264.45197 C -249.27141,244.06707 -254.23575,267.26589 -249.71645,274.5188 C -249.24481,271.18319 -249.39898,267.80707 -249.3333,264.45197 z M -396.95197,261.50122 C -400.86083,248.25157 -403.74182,267.05222 -396.95197,261.50121 L -396.95197,261.50122 z M -249.24632,250.5188 C -251.36684,241.21124 -251.36683,259.82637 -249.24632,250.5188 z M -408.24631,243.7188 C -415.04206,231.01979 -414.53203,249.64757 -408.24632,243.7188 L -408.24631,243.7188 z M -419.75909,228.53947 C -421.19676,215.37325 -430.78096,231.62001 -419.75909,228.53947 z M -249.34853,218.43613 C -250.73983,199.13289 -251.76151,238.71371 -249.34852,218.43613 L -249.34853,218.43613 z M -431.24631,216.12958 C -437.42864,201.52158 -440.41262,221.48867 -431.24631,216.12958 z M -267.74631,207.84586 C -278.95658,197.55753 -304.30455,179.52431 -312.15194,179.41899 C -294.73929,187.75053 -280.78043,203.04645 -264.19485,211.5588 L -265.22109,210.25397 L -267.74632,207.84585 L -267.74631,207.84586 z M -445.71924,205.47499 C -450.40433,191.37524 -456.81484,208.30465 -445.71924,205.47499 z M -363.98431,185.82736 C -366.64231,177.44958 -352.37413,162.25434 -369.32552,168.22076 C -383.2221,173.84488 -367.48545,211.63256 -363.97716,189.95233 L -363.9843,185.82736 L -363.98431,185.82736 z M -456.24631,192.83325 C -463.16879,177.21027 -466.1204,195.54924 -456.24631,192.83325 z M -467.65274,182.13553 C -468.80108,162.16672 -485.53713,182.75304 -467.65274,182.13553 z M -322.24631,174.04448 C -330.26952,168.06643 -343.48773,166.54476 -327.18153,172.45276 C -326.00251,171.37777 -323.14553,176.06205 -322.24631,174.04448 z M -359.86523,164.21338 C -356.58676,161.98345 -374.71122,162.96591 -370.97398,159.10647 C -384.4517,161.51811 -363.85138,167.42172 -359.86523,164.21338 z M -165.62482,456.05542 C -171.65559,444.04688 -171.41625,406.82298 -192.76049,420.54621 C -199.56189,423.8353 -202.07229,400.99955 -215.57781,406.39403 C -241.45037,401.59117 -207.21705,366.57216 -235.84996,366.16906 C -246.54808,352.49614 -222.32761,353.59956 -220.4032,355.35587 C -222.05409,345.69889 -247.23711,352.71752 -229.14173,345.74888 C -216.99782,352.05159 -207.1857,349.09905 -195.94832,350.46333 C -192.94006,342.94704 -185.0946,340.88678 -182.25129,344.7688 C -166.40509,339.33678 -177.04867,315.68692 -162.85563,307.76606 C -161.07872,287.89014 -140.26576,281.73932 -128.31826,269.75934 C -114.42696,255.17701 -102.85689,238.46456 -91.64393,221.46408 C -79.171332,202.47737 -62.426029,186.90259 -49.138149,168.51044 C -66.007641,157.55865 -73.829691,175.52877 -86.561252,182.6385 C -87.61539,189.90453 -89.917273,195.89307 -95.188243,188.24278 C -84.889118,182.61094 -96.901434,174.17564 -88.726759,172.21507 C -89.826218,158.80654 -102.11705,159.90103 -110.95108,164.85366 C -110.51072,177.47034 -106.18413,198.12655 -126.84007,200.11589 C -114.51579,191.22435 -122.91761,162.62003 -137.16679,173.20995 C -129.34255,183.01309 -142.16674,208.79924 -129.61919,203.37833 C -120.4196,211.27429 -144.37687,207.86779 -136.40337,219.92579 C -141.64491,217.69604 -145.51777,229.40211 -149.70341,233.24859 C -149.70007,224.35504 -149.29695,214.11296 -155.15412,210.3214 C -148.03531,200.70632 -155.14209,180.70768 -158.87415,175.87645 C -173.54718,176.29768 -178.40848,189.05653 -173.55504,197.84795 C -181.97369,213.09674 -177.96184,231.17257 -185.89811,246.73368 C -200.5114,252.12537 -192.48658,232.01692 -195.11161,224.7033 C -200.06031,213.58674 -189.38287,183.06238 -209.02989,202.77962 C -215.90089,207.47882 -243.54405,222.45235 -221.15752,211.47428 C -201.64808,197.74978 -226.64454,228.33011 -226.33433,237.18599 C -234.11161,257.73124 -224.40764,279.54856 -228.20379,300.74339 C -226.94273,309.34089 -235.15259,334.50525 -234.72961,312.66788 C -231.72644,289.35613 -232.32359,264.85384 -239.16472,242.34462 C -239.2101,225.96889 -236.42699,213.44475 -224.29403,203.68738 C -189.17518,174.34645 -143.32945,160.93299 -98.683492,154.83223 C -70.450374,151.50738 -37.674602,156.31231 -18.970725,179.92582 C -19.267535,196.7123 -38.790058,199.60788 -43.654559,212.97301 C -54.293748,214.47572 -56.550304,227.24853 -65.203484,232.60589 C -65.539101,243.72135 -78.739768,247.15046 -81.573068,257.78714 C -93.10797,263.99967 -98.248122,276.40005 -111.78945,278.6547 C -123.48746,279.89271 -125.57063,286.47271 -121.19812,297.53839 C -128.74448,312.5594 -117.97239,329.91378 -134.30223,340.3149 C -134.82268,350.83954 -130.19827,363.17704 -145.79355,363.42908 C -158.95022,372.24617 -142.95067,394.00908 -164.49073,392.17823 C -176.38609,410.62491 -158.46157,431.0877 -157.53136,450.2844 C -156.40931,455.97559 -160.24822,463.07924 -165.62482,456.05542 z M -175.79387,409.2688 C -177.85199,393.92519 -207.38856,408.64191 -184.49551,407.54786 C -181.2993,404.67011 -175.52293,416.32325 -175.79387,409.2688 z M -202.24632,402.49405 C -212.7638,393.48902 -219.2781,407.75022 -202.24632,402.49405 z M -165.45367,382.84027 C -144.54879,379.44512 -176.52324,372.86949 -173.42465,387.99017 C -171.14888,385.75302 -168.52169,383.85487 -165.45367,382.84027 z M -203.51106,372.41446 C -198.62343,354.3514 -225.35287,368.58843 -208.51932,375.99801 C -206.35865,375.83829 -204.56797,374.19428 -203.51106,372.41446 z M -147.79633,357.42667 C -129.23181,350.11868 -166.54504,352.16203 -157.26047,363.03841 C -154.06904,361.23403 -150.75682,359.6075 -147.79633,357.42667 z M -139.45537,333.04422 C -122.46109,328.91857 -137.51539,314.8315 -142.98832,329.35818 C -143.58232,332.49785 -143.58239,338.63598 -139.45537,333.04422 z M -133.02449,304.2688 C -120.10915,296.16375 -134.61364,282.82314 -138.7054,298.43177 C -139.23769,301.05365 -136.3067,308.04451 -133.02449,304.2688 z M -92.211151,259.97641 C -91.430507,250.36159 -100.95019,265.75015 -92.211151,259.97641 z M -77.200478,242.43315 C -76.296519,232.8441 -85.958776,249.59446 -77.200478,242.43315 z M -67.246323,225.89636 C -72.490007,219.47086 -71.549374,236.10761 -67.246323,225.89636 z M -57.638371,211.7688 C -54.323984,202.08532 -66.270721,217.47641 -57.63837,211.7688 L -57.638371,211.7688 z M -209.74632,198.86626 C -201.74404,194.06538 -180.30386,179.1765 -200.96103,190.46665 C -209.55609,195.53012 -226.16338,205.4279 -227.48085,210.14539 C -221.39834,206.66472 -215.60751,202.70022 -209.74632,198.86626 z M -46.091389,200.0188 C -50.619019,191.75467 -50.671531,208.3301 -46.091389,200.0188 z M -36.285278,191.33025 C -30.310624,178.56425 -49.052505,198.62607 -36.28528,191.33024 L -36.285278,191.33025 z M -29.07506,181.86382 C -24.362333,166.96048 -43.68851,186.56175 -29.07506,181.86381 L -29.07506,181.86382 z M -150.35007,171.45468 C -146.10736,166.84489 -107.04731,157.95498 -132.41506,162.53021 C -140.76404,161.93059 -161.42137,175.72911 -150.35007,171.45468 L -150.35007,171.45468 z M -120.74632,167.5188 C -116.93789,161.64258 -140.73162,171.53938 -123.01172,168.75051 L -120.74632,167.5188 L -120.74632,167.5188 z M -46.01733,163.96664 C -61.244857,154.52941 -80.543004,154.02803 -97.60255,157.39948 C -110.65726,163.1667 -80.662888,157.43774 -74.780303,159.02158 C -61.242784,158.77167 -86.882727,160.12021 -72.09255,161.66721 C -65.348237,161.44388 -46.203947,167.90772 -46.01733,163.96664 z M -228.87769,373.95865 C -245.34656,365.44142 -219.3436,368.62701 -225.83486,376.43585 L -227.336,375.69645 L -228.87768,373.95866 L -228.87769,373.95865 z M -209.16737,295.47543 C -206.66528,279.40708 -206.38884,261.14105 -197.77107,247.37858 C -192.75793,258.38807 -207.56615,281.14598 -209.16737,295.47543 z M -289.26086,282.46881 C -286.99857,270.93196 -311.05042,251.97454 -296.52016,247.46231 C -293.37681,256.95001 -286.14501,278.68124 -289.26086,282.46881 z M -238.60872,212.2688 C -242.17564,199.03577 -236.92369,206.72539 -237.50193,215.5188 L -238.60872,212.2688 L -238.60872,212.2688 z M -395.99631,151.27934 C -422.32834,145.57696 -366.19982,153.27999 -391.37315,151.77991 L -393.5607,151.55327 L -395.99632,151.27935 L -395.99631,151.27934 z" id="path2736"/>
    </g>
  </g>
</svg>