<?xml version="1.0" encoding="UTF-8" standalone="no"?>
<!-- Created with Inkscape (http://www.inkscape.org/) -->
<svg xmlns:dc="http://purl.org/dc/elements/1.1/" xmlns:cc="http://creativecommons.org/ns#" xmlns:rdf="http://www.w3.org/1999/02/22-rdf-syntax-ns#" xmlns:svg="http://www.w3.org/2000/svg" xmlns="http://www.w3.org/2000/svg" xmlns:sodipodi="http://sodipodi.sourceforge.net/DTD/sodipodi-0.dtd" xmlns:inkscape="http://www.inkscape.org/namespaces/inkscape" width="305.52682" height="268.28827" id="svg2934" sodipodi:version="0.32" inkscape:version="0.46" sodipodi:docname="papilio-turnus-side.svg" inkscape:output_extension="org.inkscape.output.svg.inkscape" version="1.0">
  <defs id="defs2936">
    <inkscape:perspective sodipodi:type="inkscape:persp3d" inkscape:vp_x="0 : 526.18109 : 1" inkscape:vp_y="0 : 1000 : 0" inkscape:vp_z="744.09448 : 526.18109 : 1" inkscape:persp3d-origin="372.04724 : 350.78739 : 1" id="perspective2942"/>
    <inkscape:perspective id="perspective2988" inkscape:persp3d-origin="372.04724 : 350.78739 : 1" inkscape:vp_z="744.09448 : 526.18109 : 1" inkscape:vp_y="0 : 1000 : 0" inkscape:vp_x="0 : 526.18109 : 1" sodipodi:type="inkscape:persp3d"/>
  </defs>
  <sodipodi:namedview id="base" pagecolor="#ffffff" bordercolor="#666666" borderopacity="1.0" gridtolerance="10000" guidetolerance="10" objecttolerance="10" inkscape:pageopacity="0.0" inkscape:pageshadow="2" inkscape:zoom="0.35" inkscape:cx="935.65619" inkscape:cy="197.28948" inkscape:document-units="px" inkscape:current-layer="layer1" showgrid="false" inkscape:window-width="1679" inkscape:window-height="975" inkscape:window-x="0" inkscape:window-y="25"/>
  <metadata id="metadata2939">
    <rdf:RDF>
      <cc:Work rdf:about="">
        <dc:format>image/svg+xml</dc:format>
        <dc:type rdf:resource="http://purl.org/dc/dcmitype/StillImage"/>
      </cc:Work>
    </rdf:RDF>
  </metadata>
  <g inkscape:label="Layer 1" inkscape:groupmode="layer" id="layer1" transform="translate(-166.356, -207.794)">
    <g id="g3032" transform="matrix(0.996285, -0.0861169, 0.0861169, 0.996285, -29.0822, 29.0734)">
      <path style="fill: rgb(227, 216, 155);" d="M 409.31308,483.29971 C 397.15217,483.16488 395.11821,457.09723 388.35395,460.65144 C 390.255,464.38236 398.45188,481.74612 390.75288,469.80103 C 388.84806,461.38242 384.53283,459.23338 376.3221,461.98553 C 367.35248,465.29984 358.27156,455.24428 353.3189,454.75199 C 349.67759,462.52214 339.31983,467.85401 335.61541,472.1442 C 327.8255,474.2442 324.54907,478.37991 319.78389,471.90562 C 315.19806,470.29881 307.15675,480.4648 309.75751,470.27205 C 321.70896,463.64363 333.76106,455.08791 340.40655,442.88725 C 328.83006,436.84002 316.57547,447.84088 304.94134,449.89088 C 288.01902,450.00085 306.94189,429.61245 315.27771,428.16654 C 316.81268,423.52037 296.54924,426.77137 290.37327,425.75208 C 274.57766,426.26266 255.75475,430.48173 243.07146,418.16458 C 235.24854,407.51225 217.45896,415.97663 212.44929,401.63544 C 209.56193,391.66112 209.73328,380.64303 199.40063,375.65715 C 210.63052,364.23245 197.23137,347.77884 183.071,349.02743 C 173.02997,350.01992 157.20158,332.64234 175.35178,332.34115 C 190.25736,332.08234 201.23173,344.70713 215.22916,347.64789 C 231.66197,350.65977 227.82352,326.8501 244.13526,332.27488 C 260.75776,334.32944 257.59166,308.60971 274.48538,316.95424 C 287.01304,319.25029 292.34892,301.19917 306.09701,310.05775 C 317.68088,308.9758 329.82811,310.86254 338.94109,317.02979 C 341.8235,304.72635 348.27015,291.53413 359.13227,284.47135 C 366.57976,277.09112 375.48993,270.85032 385.22581,264.27318 C 398.90494,258.84007 410.63819,249.32677 421.27431,239.04325 C 430.16536,229.58639 441.26062,220.42335 454.71331,218.69203 C 469.41336,225.46989 475.51153,243.19857 477.24272,258.37247 C 481.42279,300.94426 461.95958,340.91218 444.48621,378.46088 C 437.10772,392.46822 428.44917,405.92779 419.19455,418.68532 C 415.42709,426.21029 397.66523,432.09081 398.63263,437.47151 C 402.1366,440.11928 405.07618,446.88944 409.6109,442.00873 C 425.07702,433.55038 444.21534,435.64496 458.81163,425.21442 C 466.06513,428.29664 446.42341,434.98645 441.10808,435.21169 C 432.5726,436.69979 421.6136,437.58432 415.00751,442.1476 C 429.90753,440.25861 445.8949,450.2881 459.50719,440.42044 C 473.73881,437.03067 452.40268,449.70064 446.86608,446.47061 C 436.00446,447.44792 416.38316,439.04641 411.03104,447.57237 C 409.78997,453.82346 399.26209,460.73754 394.47188,460.38509 C 397.97942,468.84797 401.22502,480.42221 412.49242,479.89359 C 416.72417,485.83089 416.86629,484.98152 409.31308,483.29971 z M 329.67249,467.8891 C 335.7648,464.46275 351.9879,451.81435 346.59525,448.25998 C 339.56434,457.09957 326.31029,465.8347 319.49856,470.60227 C 322.95889,473.43761 326.43295,468.63723 329.67249,467.8891 z M 335.63232,468.54443 C 344.0039,467.03717 358.24479,442.89381 345.30121,457.39202 C 343.23882,462.11421 316.5987,477.46196 335.63232,468.54443 z M 325.07147,464.33994 C 331.551,459.2818 343.09951,451.40311 343.51881,444.62637 C 337.28016,452.76239 320.40595,466.18725 317.55505,468.53068 C 320.14983,467.30164 322.63481,465.85426 325.07147,464.33994 z M 302.25897,417.96478 C 296.1102,416.9617 304.11651,419.89931 302.25897,417.96478 z M 280.56439,414.65933 C 278.74445,412.7822 277.2455,417.71834 280.56438,414.65934 L 280.56439,414.65933 z M 292.07147,410.08887 C 289.29194,408.17888 290.11195,413.62432 292.07147,410.08887 z M 280.63034,402.17969 C 282.73165,398.22519 269.44869,407.18925 280.63033,402.17969 L 280.63034,402.17969 z M 284.73373,393.39789 C 283.0832,394.95897 285.75819,397.64602 284.73373,393.39789 z M 283.07147,390.86349 C 273.91028,381.60949 276.26556,390.53874 283.07147,390.86349 z M 278.32147,381.9856 C 273.30762,381.0912 276.7448,383.70248 278.32147,381.9856 z M 283.32147,381.9856 C 278.30762,381.0912 281.7448,383.70248 283.32147,381.9856 z M 291.63077,381.55194 C 290.67054,373.3677 287.40862,384.6605 291.63077,381.55194 z M 285.07147,375.64789 C 277.26822,372.05992 288.15477,378.99801 285.07147,375.64789 z M 293.71936,372.22485 C 282.89119,369.68533 289.93752,374.45039 295.25013,373.01872 L 293.71935,372.22486 L 293.71936,372.22485 z M 297.03494,369.96103 C 292.6005,364.73174 286.77043,362.92762 294.66902,369.40055 C 295.55667,370.24125 299.81571,374.30523 297.03494,369.96103 z M 276.07147,331.08887 C 273.83783,327.11104 274.95632,335.94721 276.07147,331.08887 z" id="path3010"/>
      <path style="fill: rgb(171, 165, 146);" d="M 409.31308,483.29971 C 397.10782,480.64979 396.083,463.05262 388.72347,458.30598 C 387.98769,463.07728 399.46506,481.9933 390.59802,469.59355 C 388.15695,462.79593 385.91816,457.58835 378.26075,462.0528 C 368.85638,465.0261 358.60011,456.07747 353.3189,454.75199 C 349.81503,462.72096 338.80134,467.68292 335.6529,472.42321 C 327.26078,473.4532 324.94031,478.93074 318.965,471.62328 C 314.22386,473.54774 305.19904,477.7144 311.18807,469.10361 C 322.56181,462.96084 336.30023,453.71532 340.13051,441.57866 C 325.68997,437.36057 313.81569,451.22801 299.77935,449.76611 C 290.34602,438.32134 317.39216,430.45066 315.30933,426.33688 C 299.0156,424.76176 282.66518,426.31303 266.42743,426.9411 C 249.08833,430.19653 241.79325,407.96391 225.4957,411.63696 C 212.95708,410.46422 209.73478,393.60341 208.9247,385.75975 C 209.24586,379.81231 190.9407,374.37504 206.21603,369.66204 C 210.86262,363.48277 199.47459,348.44308 205.53079,361.50713 C 207.46973,369.50839 203.34302,372.56493 204.36366,362.54215 C 201.8529,351.53358 201.25736,353.76249 189.93737,350.45917 C 180.16813,351.15729 155.39178,337.82809 174.1382,332.06956 C 190.02862,332.694 202.15283,345.95181 217.57146,347.84726 C 207.25329,352.32299 240.55936,348.12008 230.59151,336.7296 C 237.19253,327.25585 252.9926,336.32245 258.55669,328.52396 C 264.07392,323.08096 256.97632,312.55748 270.21135,316.30642 C 281.44067,322.54555 286.19902,316.00893 292.24413,308.11584 C 300.99928,308.27507 314.94335,313.567 314.07146,312.40481 C 321.93114,307.86419 329.63869,312.39931 338.94368,317.14629 C 340.39112,308.41762 341.04824,312.53185 342.19342,310.74664 C 345.12302,298.57919 349.53102,296.33185 355.33839,287.05066 C 361.41126,284.18958 367.21802,276.17353 360.6566,285.64789 C 365.74723,271.95113 381.35346,271.75514 389.66079,261.53526 C 396.09602,259.82119 402.60294,260.03452 400.30912,257.25884 C 410.29386,251.6516 414.52813,245.13253 423.80682,237.96804 C 429.4024,231.20557 438.9858,221.28593 450.07146,220.36771 C 458.72128,215.20289 467.85609,228.97349 471.56256,237.10444 C 480.77566,257.06515 477.95223,280.21571 474.28565,301.19303 C 466.39524,332.5371 453.09492,362.43191 437.56259,390.69744 C 428.643,404.62896 421.09138,420.0155 406.98145,429.54473 C 400.8016,433.94916 393.31183,435.66527 402.40003,441.09092 C 408.3337,448.329 417.32922,435.15566 425.1417,436.33098 C 437.91899,435.38971 451.16148,428.01536 461.81303,426.08131 C 449.05785,438.15206 429.4353,434.13041 414.45833,441.89415 C 413.49612,442.83827 433.028,441.675 438.64959,444.35539 C 447.2888,449.98606 460.61952,435.80674 464.70681,441.07736 C 448.48843,453.19886 428.14493,440.19161 410.32144,445.06458 C 413.61693,453.38394 398.922,460.19494 394.47229,460.38492 C 398.01156,468.77573 400.96766,480.17835 412.10776,480.12545 C 416.46551,484.68839 417.26225,485.54185 409.31308,483.29971 z M 329.67249,467.8891 C 335.7648,464.46275 351.9879,451.81435 346.59525,448.25998 C 339.56434,457.09957 326.31029,465.8347 319.49856,470.60227 C 322.95889,473.43761 326.43295,468.63723 329.67249,467.8891 z M 335.57227,468.57339 C 343.66207,467.23234 358.19913,443.45506 345.30121,457.39202 C 342.67402,462.31812 317.98005,476.74523 335.57227,468.57339 z M 325.0925,464.29532 C 331.5377,459.22931 343.08003,451.35941 343.51302,444.62933 C 337.27986,452.77347 320.39278,466.18511 317.55671,468.53678 C 320.16119,467.29544 322.6517,465.82922 325.0925,464.29532 z M 389.07147,454.58887 C 387.03839,452.39425 386.80742,457.93512 389.07147,454.58887 z M 397.06366,450.44992 C 388.3968,450.12804 392.02108,456.15902 397.06366,450.44992 z M 376.77441,451.40955 C 386.84139,446.34721 380.72956,440.14261 373.84026,449.46077 C 369.79283,449.84254 374.94042,454.8216 376.77441,451.40955 z M 362.52875,445.5788 C 359.30977,442.83388 362.29026,450.28481 362.52875,445.5788 z M 308.57147,443.56256 C 308.5722,439.64216 295.21637,447.97204 306.29985,444.32805 L 308.57146,443.56257 L 308.57147,443.56256 z M 367.92145,443.39789 C 379.92222,441.76377 370.9553,435.16325 366.91036,441.09411 C 365.4324,440.3638 362.88427,446.52913 367.92145,443.39789 z M 386.53714,441.79776 C 382.91339,441.71391 384.60758,446.56635 386.53713,441.79775 L 386.53714,441.79776 z M 318.57147,438.79822 C 329.24328,427.97933 301.26205,437.22819 307.97469,438.63797 C 311.42609,439.38941 315.12476,439.83461 318.57147,438.79822 z M 324.56439,435.65933 C 322.74445,433.7822 321.2455,438.71834 324.56438,435.65934 L 324.56439,435.65933 z M 384.49408,433.24466 C 392.61024,426.55673 393.88759,405.39238 386.07146,399.48435 C 378.57787,402.47212 386.5494,420.93398 386.63771,420.60697 C 379.22034,418.17631 376.09681,441.21185 375.72089,424.66209 C 369.73209,414.41596 365.83958,393.53793 349.87889,402.20871 C 343.38327,402.59757 327.36905,404.41599 341.21467,410.71769 C 353.94717,418.06302 366.17971,426.24767 378.50139,434.18498 C 380.53091,435.07931 382.64109,434.01809 384.49408,433.24466 z M 402.48438,427.74414 C 408.33166,419.08522 387.76515,438.22562 400.25476,429.66245 L 402.48436,427.74414 L 402.48438,427.74414 z M 358.07147,424.16821 C 346.85911,417.97036 336.13682,409.09921 322.62908,409.10374 C 313.89938,409.61367 291.13413,402.48255 291.06163,414.8755 C 301.62849,422.36807 317.29895,417.37785 329.94184,420.66017 C 339.37782,421.07886 348.86083,424.24409 358.07147,424.16821 z M 380.6225,420.18002 C 384.54175,408.22716 380.38007,416.48231 378.56485,414.89789 C 381.3048,407.38941 383.473,395.54539 372.07802,401.82307 C 359.33184,398.23494 376.57633,421.33224 379.45024,422.6292 L 380.62249,420.18001 L 380.6225,420.18002 z M 410.14349,411.92072 C 427.7556,399.63727 390.9326,398.74599 396.24677,414.88934 C 391.11975,428.18498 399.98072,420.97602 406.02796,415.52844 C 407.42556,414.35575 408.80365,413.15922 410.14349,411.92072 z M 288.51416,421.34805 C 286.05561,416.58868 288.93197,404.64307 279.82194,407.64789 C 272.78819,406.38194 287.29302,414.46169 276.19334,415.9141 C 265.47695,423.38424 285.56853,423.03593 288.51416,421.34805 z M 243.03189,414.59232 C 238.7278,407.9848 226.28848,408.68092 239.18325,412.74566 C 240.59831,414.50939 248.09871,421.52002 243.03189,414.59232 z M 331.03574,406.2547 C 326.21084,402.6284 298.66606,404.23022 317.52967,406.60071 C 319.71285,406.24413 332.57002,409.33934 331.03574,406.2547 z M 303.07147,401.95596 C 308.78956,398.29847 332.42056,400.88699 314.53533,395.88233 C 304.45975,393.19762 281.13931,384.76648 278.51723,388.80513 C 289.15255,393.75314 281.17682,402.80225 275.66155,404.01706 C 284.78292,405.38574 294.39957,405.54782 303.07147,401.95596 z M 347.07147,394.98584 C 368.98843,388.32768 334.3488,371.69839 324.26717,380.71921 C 308.55447,384.98139 329.81965,406.21908 341.05101,396.79314 C 343.077,396.25623 345.08123,395.64163 347.07147,394.98584 z M 317.8176,390.99008 C 310.25051,383.27432 298.69175,381.29502 289.02267,376.81964 C 292.22387,384.57788 284.01332,381.4365 279.21229,381.70887 C 271.25487,383.00288 294.36068,386.8993 299.44729,388.94295 C 303.09954,388.27329 320.23797,397.79173 317.8176,390.99008 z M 213.05615,387.47968 C 210.53804,370.37103 210.47012,400.41338 213.05615,387.47968 L 213.05615,387.47968 z M 370.10236,388.56851 C 385.93027,383.34951 366.90075,363.20404 364.17221,353.25265 C 360.78656,348.65907 350.66337,328.20003 347.40384,334.55981 C 346.86061,344.37536 327.90922,345.03122 339.99856,356.23506 C 348.89373,365.8611 350.37539,386.13125 362.52484,390.02735 C 365.06881,389.64467 367.60035,389.16825 370.10236,388.56851 z M 343.73813,344.98123 C 337.88023,339.10363 349.6458,346.42061 343.73813,344.98123 z M 316.07147,382.75717 C 308.75794,374.20807 298.2356,368.98017 288.57147,363.36862 C 293.58807,367.45965 301.53276,375.77123 288.61523,371.43034 C 284.55213,375.26121 304.90297,379.32141 309.92819,382.67172 C 311.5927,382.55764 316.33959,386.86373 316.07147,382.75717 z M 384.82199,383.23068 C 380.16806,363.40613 366.39086,347.75593 354.07146,332.23132 C 364.74425,337.07535 372.958,350.98277 378.80271,361.97082 C 382.39501,367.36079 388.398,389.06142 394.69372,378.68916 C 386.56262,356.66253 375.64878,335.80041 365.58908,314.61176 C 363.35944,319.1718 359.53458,323.77162 364.17194,328.16057 C 371.27944,338.80712 353.88939,316.96395 352.36662,331.16521 C 348.53443,329.55242 362.47261,344.08914 363.98406,349.25631 C 371.68806,359.43457 373.55283,376.85701 381.99684,384.13048 L 384.822,383.23068 L 384.82199,383.23068 z M 413.42117,379.66696 C 420.90265,375.13617 433.66544,380.8489 438.19824,373.52038 C 442.78952,367.1087 449.91588,355.18889 435.61575,359.15351 C 427.91923,349.30813 409.33016,347.97369 407.06234,362.80523 C 408.09524,367.9229 397.8627,381.62849 403.58014,381.23508 C 406.82815,380.53194 410.13079,380.11354 413.42117,379.66696 z M 402.99265,367.49866 C 405.36464,361.20201 408.77008,350.93797 398.23161,357.15523 C 383.10906,354.96937 395.52129,379.02516 399.43343,378.05732 C 400.8489,374.61983 401.94444,371.06158 402.99265,367.49866 z M 348.46533,376.39789 C 340.84724,366.29673 337.30714,340.90868 321.05778,353.29516 C 310.2736,351.68186 314.3023,355.90171 319.63439,360.78928 C 327.1045,370.74524 337.91364,376.56821 349.84714,379.56135 L 349.55495,378.66779 L 348.46532,376.39789 L 348.46533,376.39789 z M 324.32147,376.32391 C 334.74814,373.53369 318.02238,364.17186 314.54857,358.55203 C 310.02027,351.42496 302.55211,362.48476 295.56163,361.40384 C 287.62075,362.02782 299.30086,366.17309 301.48284,368.61377 C 308.6644,372.59746 315.63497,381.08298 324.32147,376.32391 z M 285.57147,375.64789 C 276.38868,366.38548 285.66862,380.90658 285.57147,375.64789 z M 220.07146,373.14789 C 220.03117,367.59792 214.26987,377.91658 220.07146,373.14789 z M 219.35938,360.40115 C 205.08237,346.63382 223.80071,372.26897 219.35938,360.40115 z M 240.07146,353.64789 C 236.09278,350.48609 234.1926,357.56218 240.07146,353.64789 z M 244.59947,344.90347 C 239.80651,331.11833 240.94311,355.71324 244.59947,344.90348 L 244.59947,344.90347 z M 389.23517,344.73376 C 408.13086,340.92015 387.47703,319.59793 385.87205,308.47274 C 380.29041,300.54351 372.57127,311.39592 380.30483,316.9489 C 384.4273,324.19778 385.50918,331.73967 380.53219,320.1227 C 381.15592,309.57463 363.84515,308.47129 370.25765,318.9633 C 375.80918,324.46168 378.87769,351.11067 389.23517,344.73376 z M 449.86386,337.6488 C 446.19935,330.14077 418.50084,328.8363 428.62545,339.37732 C 435.84384,335.16927 450.51617,349.15052 449.86386,337.6488 z M 266.67413,340.14813 C 258.50958,337.02668 269.73417,345.18148 266.67413,340.14813 z M 410.32651,337.79282 C 413.998,324.50004 405.01841,311.22278 401.83418,298.43725 C 393.19603,289.27646 395.59026,309.83132 396.87315,309.13924 C 396.09005,297.06593 380.34147,300.31851 388.98035,310.87695 C 395.18237,319.61931 396.00806,343.20602 410.32652,337.79283 L 410.32651,337.79282 z M 456.64203,328.88513 C 451.82077,332.34623 453.01711,344.78154 455.85494,332.59026 L 456.37573,330.77602 L 456.64203,328.88513 L 456.64203,328.88513 z M 276.07147,331.22968 C 275.59117,314.22886 262.24197,341.39489 276.07147,331.22968 z M 325.13931,329.22012 C 313.66099,322.48284 329.74997,336.95337 325.13932,329.22012 L 325.13931,329.22012 z M 422.44901,326.20981 C 426.09512,313.21459 420.24958,299.55619 417.9041,286.66996 C 411.5039,280.68566 411.44684,298.00995 408.18431,290.9293 C 399.10784,291.42795 404.30772,298.52558 405.75374,303.65602 C 409.88835,312.6794 410.68794,326.24158 419.64467,331.06269 C 421.0901,329.77527 421.68248,327.90752 422.44901,326.20981 z M 294.88171,329.02957 C 285.07141,325.16884 299.55474,334.61943 294.88171,329.02957 z M 304.07147,321.3479 C 303.48982,308.60247 294.25196,327.20328 303.93061,323.50799 L 304.07146,321.34789 L 304.07147,321.3479 z M 335.07147,321.68307 C 328.11524,313.68434 328.95824,324.47693 335.07147,321.68307 z M 434.41544,319.87204 C 442.4345,320.17595 435.33278,307.76437 436.38229,303.02219 C 432.89019,296.81421 435.88283,271.93247 425.49382,279.38354 C 428.18509,288.54185 420.48351,276.6229 420.82702,285.92529 C 423.23711,297.17275 423.19156,312.53791 428.91641,321.0566 L 431.21446,320.40653 L 434.41545,319.87205 L 434.41544,319.87204 z M 426.64288,289.07645 C 425.51313,279.84427 429.84656,296.04309 426.64288,289.07645 z M 450.77643,309.39789 C 449.56154,295.51478 448.97384,278.08986 442.49674,267.00219 C 435.24938,268.24341 441.45311,278.21812 436.07046,272.16479 C 428.5918,281.83787 442.12416,295.97447 439.34384,308.14789 C 439.85633,314.09719 439.57508,320.85081 447.80814,319.22714 C 453.55142,321.39685 450.01069,311.90491 450.77643,309.39789 z M 444.45679,298.85254 C 439.44102,291.62337 443.51252,295.45677 445.72875,297.30518 C 447.2892,292.55071 447.3488,300.2081 444.45679,298.85254 z M 288.07147,315.52985 C 285.303,313.80112 286.4674,320.09596 288.07147,315.52985 z M 461.36093,310.09042 C 471.85304,300.81108 449.99421,290.05106 453.13526,304.62143 C 451.47888,313.24283 455.4713,325.54822 461.36093,310.09042 z M 455.52008,288.52072 C 456.86797,280.63694 461.18895,250.60278 446.78086,263.91143 C 447.53427,271.77046 450.31962,290.79624 453.9649,292.14179 L 454.73622,290.51151 L 455.52007,288.52073 L 455.52008,288.52072 z M 369.70023,286.94333 C 364.43712,285.54303 365.71712,293.11141 369.70023,286.94333 z M 465.8064,286.83286 C 473.28683,276.23331 462.60105,280.69736 461.54244,287.22306 C 462.88713,287.96063 464.55971,287.56311 465.8064,286.83286 z M 388.49023,274.99899 C 384.28265,273.55183 378.91404,283.39977 387.14526,276.55886 L 388.49023,274.99899 L 388.49023,274.99899 z M 465.0325,277.45932 C 471.09345,269.19166 466.28257,242.3061 457.66571,260.36627 C 459.94236,264.8718 455.48684,285.53166 465.0325,277.45932 z M 401.52875,270.71698 C 400.6647,264.66385 393.78523,275.96308 401.52875,270.71698 z M 407.07147,266.49292 C 399.03772,261.58321 401.92805,276.76401 407.07147,266.49292 z M 418.07147,260.02545 C 416.31756,256.23653 413.62209,265.91057 418.07147,260.02545 z M 423.07147,256.58652 C 417.09447,254.9681 419.36766,265.05343 423.07146,256.58653 L 423.07147,256.58652 z M 433.07147,249.07457 C 428.85611,243.73551 427.92922,255.23168 433.07147,249.07457 z M 435.71188,244.95499 C 430.50115,245.71928 436.71094,252.71695 435.71188,244.95499 z M 458.57147,247.64789 C 463.68723,240.49558 451.10883,254.92046 458.57147,247.64789 z M 467.67563,242.91873 C 465.68879,244.73933 469.02977,246.75035 467.67563,242.91873 z M 447.97687,241.04102 C 453.79338,226.42029 430.10435,247.39274 446.2505,242.58533 L 447.97687,241.04102 L 447.97687,241.04102 z M 458.41415,237.53761 C 470.2363,231.23216 453.73177,221.91422 452.82146,233.77833 C 454.67195,236.48358 453.4841,240.75603 458.41415,237.53761 z M 219.07146,348.43701 C 228.52336,343.401 227.33793,347.8614 219.07146,348.43701 z M 227.07146,344.95786 C 231.37484,336.66645 232.84483,343.94311 227.07146,344.95786 z M 256.51025,327.71179 C 265.73801,318.79157 250.52301,336.34388 256.51025,327.71179 z" id="path3008"/>
      <path style="fill: rgb(170, 153, 100);" d="M 408.07147,482.35226 C 396.09733,480.12903 396.90255,457.43134 387.76421,459.20379 C 382.50548,462.37609 363.21638,462.98429 356.55813,454.73048 C 352.43526,448.4786 342.81466,471.46092 342.14852,465.48672 C 347.65616,462.20858 357.75606,443.16439 346.35607,455.28573 C 336.4214,465.94238 358.38863,441.58783 345.26636,448.74394 C 343.15872,450.72874 326.68178,468.24195 332.79923,459.68199 C 338.80012,453.26278 354.54444,440.35809 335.76558,440.42363 C 322.87336,437.24459 309.07213,455.43054 298.51633,447.09335 C 295.5933,435.65162 317.77439,431.24429 317.32146,425.52027 C 308.38045,423.43073 292.0157,427.46675 289.29577,418.38666 C 287.78923,409.73391 281.17068,403.85077 272.45328,407.36304 C 285.04599,410.19525 274.1277,414.19726 272.74019,420.64763 C 277.70017,423.30898 293.2857,424.05643 280.27726,424.37391 C 267.59723,427.44112 248.72729,427.87982 242.4937,413.78069 C 232.90849,405.98419 211.81052,414.7254 211.21772,394.96967 C 218.14645,383.6986 207.7634,380.50188 200.33933,376.90091 C 202.60266,370.4082 213.69466,363.51286 203.45729,355.2986 C 194.34832,345.35576 176.18263,352.35569 168.05529,340.11491 C 168.7558,324.50737 192.79852,338.02446 201.12923,342.44122 C 212.00919,355.03061 234.45324,350.90802 233.38608,333.29093 C 246.70552,336.05462 263.82877,332.32148 263.2233,316.56663 C 273.03567,317.38973 288.20597,324.39979 290.43038,309.53065 C 302.78234,309.327 315.7147,313.34664 327.94892,312.09263 C 338.25669,321.2612 349.38306,328.35859 357.62437,339.82797 C 367.38375,353.52536 374.35574,368.97181 379.70124,384.85788 C 391.78121,380.89926 374.98353,364.03537 372.20964,355.86738 C 363.5911,341.64882 350.79971,330.57808 339.85893,318.57363 C 342.78531,305.44695 349.02343,289.92583 362.33523,284.53386 C 367.5842,270.67794 383.57216,272.07438 391.70054,261.28625 C 402.3392,261.5442 406.90562,250.36662 416.0864,246.33413 C 419.48013,238.76006 429.32987,237.21152 432.64304,229.29092 C 443.09457,222.35286 458.46726,213.35474 466.69415,229.37244 C 483.60922,254.90937 477.47019,287.79168 469.96326,315.46152 C 457.63079,352.71808 440.95896,389.04071 417.11515,420.39854 C 412.53733,429.58658 386.78519,434.08341 403.75498,442.69928 C 413.58216,441.77631 410.82125,453.74628 403.07146,455.46643 C 400.41153,461.80632 389.00648,457.50064 397.00779,467.63644 C 394.5613,474.2319 421.49233,486.70242 408.07147,482.35226 z M 389.07147,454.58887 C 387.03839,452.39425 386.80742,457.93512 389.07147,454.58887 z M 397.06366,450.42926 C 388.37275,449.38657 391.26182,456.42496 397.06366,450.42926 z M 376.77441,451.40955 C 386.84139,446.34721 380.72956,440.14261 373.84026,449.46077 C 369.79283,449.84254 374.94042,454.8216 376.77441,451.40955 z M 362.52875,445.5788 C 359.30977,442.83388 362.29026,450.28481 362.52875,445.5788 z M 307.59937,444.07669 C 316.86225,439.43451 293.10008,446.42026 304.51427,444.74757 L 307.59936,444.07668 L 307.59937,444.07669 z M 367.92145,443.39789 C 379.34327,441.53803 372.05919,434.46026 366.91036,441.11451 C 365.44295,440.32918 362.8967,446.55448 367.92145,443.39789 z M 386.34149,441.29114 C 382.70767,440.82585 384.42251,448.62212 386.34149,441.29114 z M 318.57147,438.79822 C 328.25054,427.93175 304.11143,436.59602 307.17336,438.46237 C 310.88981,439.30377 314.84109,439.91985 318.57147,438.79822 z M 324.56439,435.65933 C 322.74445,433.7822 321.2455,438.71834 324.56438,435.65934 L 324.56439,435.65933 z M 360.07147,435.08887 C 357.29194,433.17888 358.11195,438.62432 360.07147,435.08887 z M 386.31134,432.67383 C 391.38221,424.35643 396.06196,402.4302 384.8872,398.64775 C 377.83947,402.76366 386.96624,421.3903 386.96391,420.67376 C 379.05964,416.76706 376.571,439.98675 375.61722,423.63088 C 369.29987,411.35779 364.13666,392.31197 347.10648,402.24183 C 340.18423,402.82685 327.14836,404.11212 339.83789,410.16663 C 352.48194,417.85912 364.91928,425.93385 377.48216,433.7088 C 380.37313,435.17395 383.88156,434.89245 386.31134,432.67383 z M 404.43259,426.43713 C 404.43163,418.67694 384.90511,442.07792 400.25327,430.0384 L 402.14376,428.61341 L 404.4326,426.43713 L 404.43259,426.43713 z M 359.52145,424.72253 C 348.02602,418.24806 337.39134,408.81463 323.39912,408.9748 C 313.09645,409.52833 294.11552,403.48957 289.74467,413.40357 C 302.07295,424.78282 323.73575,416.64867 339.53454,422.04848 C 345.65494,422.0967 355.2651,426.18455 359.52145,424.72253 z M 382.02954,414.89789 C 378.28765,409.80836 385.80807,393.69039 372.76834,401.24559 C 357.84821,396.95628 373.11687,412.69561 375.66969,420.0254 C 378.78573,429.93576 381.03816,419.5501 382.02954,414.89789 z M 379.15042,414.23123 C 379.94404,409.15618 380.11182,418.29378 379.15042,414.23123 z M 400.58481,420.28796 C 406.88756,415.87272 426.56494,400.67435 407.12228,402.37191 C 395.70991,397.52339 391.89278,423.62142 397.20463,422.44791 L 398.72246,421.51439 L 400.58481,420.28797 L 400.58481,420.28796 z M 263.59793,419.84103 C 260.35397,419.88877 260.66033,423.61371 263.59793,419.84103 z M 265.07147,413.58887 C 263.03839,411.39425 262.80742,416.93512 265.07147,413.58887 z M 332.29553,406.68335 C 326.75621,402.5594 306.16581,402.48794 307.53856,406.38328 C 311.3212,404.91209 336.17586,410.76251 332.29553,406.68335 z M 302.31958,402.68268 C 307.39535,398.54036 333.72679,401.12114 316.13574,396.01881 C 304.14298,393.48757 282.19646,383.89224 275.07101,387.8584 C 289.59483,392.73823 280.27584,406.13718 268.55836,402.38851 C 258.65455,404.39514 281.08854,404.99774 284.13083,405.16064 C 290.34241,406.01677 296.50468,404.88628 302.31958,402.68268 z M 394.44647,402.44565 C 390.65399,399.66123 394.64445,408.81336 394.44647,402.44565 z M 340.07147,397.26373 C 349.19439,397.02584 362.82402,391.1786 350.63269,382.50077 C 343.86059,380.60125 336.64661,375.5036 329.55996,378.84476 C 312.69279,376.93299 317.82154,399.50441 331.05891,399.16168 C 334.03404,398.40144 337.06172,397.86437 340.07147,397.26373 z M 252.82132,395.06442 C 247.83755,393.80921 252.43571,400.95236 252.82132,395.06442 z M 319.07147,393.69495 C 312.00349,381.33035 293.58492,380.44752 281.57146,373.55833 C 275.44777,372.55448 298.97271,384.17211 282.43767,381.10164 C 277.6362,382.90315 281.69216,370.97717 276.68403,380.1708 C 261.15482,381.65601 288.32123,385.73467 293.89971,387.58856 C 302.17638,388.80627 311.86795,393.66482 319.07147,393.69495 z M 367.65469,389.47964 C 376.63669,389.53335 379.74167,384.29603 375.12982,377.33774 C 368.71063,360.29885 360.36576,343.39841 347.57147,330.21735 C 351.37856,342.07909 329.95741,343.28273 337.22934,351.51205 C 344.02683,363.52333 351.45544,376.17439 356.59185,388.24811 C 359.02887,392.56041 363.98465,389.72376 367.65469,389.47964 z M 251.43309,387.14789 C 248.58674,382.30333 251.23096,392.15242 251.43309,387.14789 z M 316.67374,383.48239 C 311.74771,376.04003 289.8666,362.23457 288.18659,363.83597 C 292.41489,367.86191 300.07983,373.12345 289.6154,371.11513 C 270.62018,369.85368 298.42999,377.75294 303.80896,380.3591 C 307.70006,380.98449 313.20961,386.45422 316.67374,383.48239 z M 392.93762,374.28073 C 385.41268,354.29915 376.11178,334.9888 366.27658,316.02968 C 363.66262,316.8266 358.15636,326.36929 353.39996,328.97018 C 363.23179,338.47295 372.55446,349.96996 378.641,362.71475 C 384.55254,369.27755 383.26639,384.92321 395.18577,382.42435 C 396.75,381.83097 393.14032,376.16499 392.93762,374.28073 z M 407.57147,380.96823 C 419.85598,376.34982 438.13616,383.44877 442.52735,366.90925 C 452.51129,353.58051 432.2226,361.92234 427.68939,353.32767 C 411.0662,343.66264 404.75327,364.99922 402.39408,377.36577 C 398.74059,384.64597 402.98189,381.66402 407.57147,380.96823 z M 402.02524,371.64789 C 405.98086,362.19779 410.30542,349.11051 395.70752,357.48864 C 383.30568,357.19122 395.70135,376.80474 399.05148,379.67621 C 400.57447,377.23205 401.12026,374.34393 402.02524,371.64789 z M 349.33972,377.89789 C 343.34318,368.63767 338.99277,354.31727 331.31377,348.40932 C 326.51873,355.17881 305.85094,349.26305 318.16942,359.52473 C 325.40338,368.66055 339.7427,380.62547 349.33972,377.89789 z M 323.3302,376.93253 C 337.11736,374.69176 318.54698,364.51291 314.45694,358.37575 C 309.28313,349.94592 301.23699,363.89797 293.05797,361.40306 C 288.42494,362.3646 299.53425,366.70369 301.65147,369.1135 C 308.81295,372.76906 314.59191,381.72907 323.3302,376.93253 z M 220.64056,373.5361 C 218.16224,364.71975 214.09079,378.11043 220.64056,373.5361 z M 250.06673,366.93558 C 247.38777,363.01907 252.18726,375.20034 250.06673,366.93558 z M 219.64316,359.78656 C 204.392,344.08661 222.92086,374.75133 219.64316,359.78656 z M 266.07147,353.58887 C 263.4889,350.28702 264.18041,358.41466 266.07147,353.58887 z M 240.07146,353.70691 C 236.99768,348.66176 233.2517,358.19485 240.07146,353.70691 z M 280.07147,353.58887 C 278.03839,351.39425 277.80742,356.93512 280.07147,353.58887 z M 285.56439,352.65933 C 283.74445,350.7822 282.2455,355.71834 285.56438,352.65934 L 285.56439,352.65933 z M 243.60019,341.05139 C 235.88642,334.39533 244.75794,357.07263 244.64712,343.50619 L 243.60019,341.05139 L 243.60019,341.05139 z M 388.66034,345.14789 C 409.36992,342.49714 388.31741,321.18803 386.47852,309.40164 C 384.87122,299.85548 365.4358,312.05849 368.88421,316.88886 C 375.42626,323.51051 378.08168,350.43674 388.66034,345.14789 z M 320.41354,342.19882 C 318.98705,338.56729 316.99803,346.76047 320.41354,342.19882 z M 449.87897,338.88925 C 448.91263,331.15718 423.94481,325.5865 424.40611,338.15958 C 432.40289,339.75868 442.77904,341.38452 449.2445,342.24652 L 449.64228,340.87631 L 449.87896,338.88926 L 449.87897,338.88925 z M 454.42538,338.89789 C 456.4027,332.43681 464.88893,311.42119 456.3284,327.75366 C 453.67452,329.85367 449.75493,352.07977 454.42538,338.89789 z M 267.63034,340.11609 C 261.38451,335.95838 262.14927,345.70839 268.60384,340.9256 L 267.63033,340.11609 L 267.63034,340.11609 z M 407.85947,339.57196 C 418.55444,327.59253 403.1554,310.19061 401.20116,296.38525 C 397.39357,295.88823 378.68888,301.38864 388.62881,310.48599 C 394.65801,318.24697 395.67982,341.7024 407.85947,339.57196 z M 276.66626,330.37192 C 274.37486,315.46784 261.7646,338.03529 276.29805,333.76913 L 276.89448,332.62172 L 276.66627,330.37192 L 276.66626,330.37192 z M 324.9126,329.03448 C 309.93344,321.63286 331.40243,338.49364 324.9126,329.03448 z M 422.56729,327.01965 C 424.93423,314.42726 422.31117,292.6057 415.39942,285.79401 C 392.8847,290.54869 410.31021,312.23775 413.71238,325.97837 C 415.35396,331.41609 420.99179,334.54622 422.56729,327.01965 z M 295.60059,328.68008 C 288.92419,324.74475 290.45326,332.60021 296.86733,330.36361 L 295.60058,328.68007 L 295.60059,328.68008 z M 303.84442,317.39789 C 292.49341,312.54146 305.78678,334.36275 304.27606,319.5878 L 303.84442,317.39789 L 303.84442,317.39789 z M 333.94333,319.54755 C 320.60029,313.49695 338.71178,327.45067 333.94333,319.54755 z M 433.92151,320.24121 C 441.25692,320.60886 436.9085,312.46549 437.38658,307.94671 C 436.14873,296.99839 433.24048,286.3581 430.57147,275.69849 C 421.00962,279.64355 417.05384,287.20553 422.3389,297.15479 C 426.96269,303.20786 420.65324,329.79288 433.92151,320.24121 z M 451.07147,308.96451 C 450.65268,294.3169 447.97923,279.73808 443.57147,265.77341 C 434.26443,270.38106 430.33454,278.04394 435.67474,287.93731 C 437.88799,298.07023 439.32265,308.34283 440.43152,318.64789 C 451.10374,319.19977 451.22127,323.48299 451.07147,308.96451 z M 461.99878,309.68015 C 471.99531,301.86423 455.8198,292.27249 453.50315,299.60506 C 453.33591,305.61934 453.1687,311.63361 453.0015,317.64789 C 458.82155,318.80758 460.46522,314.60964 461.99878,309.68015 z M 353.00616,300.22656 C 352.67934,296.3793 346.31871,304.84138 353.00616,300.22656 z M 455.40479,290.89789 C 458.37937,281.81861 459.1438,263.63153 452.91837,259.47391 C 438.17161,266.01339 454.42699,283.41016 452.35103,294.95042 C 453.64214,297.30441 455.09156,291.37791 455.40479,290.89789 z M 467.7413,285.14789 C 474.16902,271.23891 451.23261,290.09844 464.85028,290.3145 C 466.54208,289.0763 467.21218,287.05538 467.7413,285.14789 z M 370.24271,287.99292 C 375.51531,279.31989 358.37447,294.44816 370.24272,287.99291 L 370.24271,287.99292 z M 471.73373,282.39789 C 470.0832,283.95897 472.75819,286.64602 471.73373,282.39789 z M 410.36548,281.25122 C 422.67832,272.57601 402.59224,283.02854 408.21477,282.94363 L 410.36547,281.25121 L 410.36548,281.25122 z M 472.73373,277.39789 C 471.0832,278.95897 473.75819,281.64602 472.73373,277.39789 z M 385.82147,277.65884 C 395.07944,267.7627 368.98621,285.04288 385.82146,277.65885 L 385.82147,277.65884 z M 465.66647,277.54071 C 469.27029,270.07553 470.01875,243.35027 457.37686,258.90434 C 459.99915,263.24198 455.20661,286.36796 465.66647,277.54071 z M 423.52133,273.57706 C 436.62083,263.36989 413.09771,270.79636 417.52133,276.64789 C 419.72683,276.06758 421.63215,274.79136 423.52133,273.57706 z M 404.99472,269.05899 C 415.35354,260.40271 392.06707,269.09794 397.1004,271.56321 C 399.94335,271.96406 402.79698,270.79051 404.99472,269.05899 z M 473.7608,266.89789 C 472.2416,268.27251 474.59716,273.89964 473.7608,266.89789 z M 475.77719,265.39789 C 474.32704,267.28308 476.58214,274.31024 475.77719,265.39789 z M 439.42905,262.25842 C 449.16574,246.10416 417.54239,272.73834 434.78675,265.65537 C 436.37724,264.58397 437.94119,263.46961 439.42905,262.25842 z M 419.82147,260.65884 C 432.17037,248.57694 405.49691,263.88148 416.96088,262.05943 L 419.82146,260.65885 L 419.82147,260.65884 z M 448.55997,255.22025 C 462.27066,248.76606 442.60309,247.48396 443.34051,257.19277 C 445.1616,258.55396 447.08576,255.31406 448.55997,255.22025 z M 434.75702,249.47359 C 443.52281,234.95356 419.81192,256.38538 434.75701,249.47358 L 434.75702,249.47359 z M 459.57147,247.64789 C 463.85121,240.41739 472.02808,253.29835 468.01181,242.37229 C 466.00226,235.51102 461.00236,246.46206 455.28728,245.8551 C 454.06585,253.45116 456.03475,250.12382 459.57147,247.64789 z M 446.82147,242.65884 C 459.55249,230.40059 430.20676,237.80847 443.01611,244.48535 L 444.46181,244.03557 L 446.82146,242.65885 L 446.82147,242.65884 z M 460.61691,236.19334 C 471.08193,221.74126 442.8391,229.41747 456.25401,238.5531 L 458.26248,238.04397 L 460.61691,236.19335 L 460.61691,236.19334 z M 324.32153,475.82361 C 322.91222,469.32788 341.17542,470.70899 326.19807,473.79625 C 324.53313,474.46806 327.64433,478.50109 324.32153,475.82361 z M 309.50912,473.54703 C 309.50709,466.65437 321.86234,470.3557 312.07146,473.14789 C 312.32931,474.94682 309.9903,474.97741 309.50912,473.54703 z M 319.07147,468.59909 C 327.79581,462.46714 317.86485,471.77083 319.07147,468.59909 z M 332.95023,453.89789 C 338.07479,447.07614 341.1925,446.43323 334.16864,453.86392 C 334.97087,455.25828 329.90407,456.49523 332.95023,453.89789 z M 445.82147,445.9856 C 450.83538,445.09119 447.39795,447.70248 445.82147,445.9856 z M 340.07147,445.39279 C 342.7285,441.34763 344.01591,443.9098 340.07147,445.39279 z M 451.07147,445.0217 C 456.63695,440.50039 471.15832,437.9251 457.74435,444.34965 C 456.58082,444.53086 450.99482,446.15102 451.07147,445.0217 z M 413.82147,442.9856 C 418.83538,442.09119 415.39795,444.70248 413.82147,442.9856 z M 436.57147,434.64789 C 444.63845,436.52346 457.00753,422.78825 460.62909,427.41528 C 454.81779,431.83114 439.44238,436.4987 436.57147,434.64789 z" id="path3006"/>
      <path style="fill: rgb(149, 110, 75);" d="M 408.07147,482.35226 C 395.57957,477.84619 395.34017,458.49362 387.67382,453.29869 C 379.86015,457.23872 386.33761,462.62062 374.76192,461.21962 C 366.26572,464.22277 358.44644,453.38467 353.80369,453.54095 C 350.41538,458.58024 340.17515,468.94774 348.80398,457.77967 C 352.50296,454.01807 353.06545,449.42681 349.66314,449.95504 C 348.2073,438.89184 330.11165,467.67999 331.96821,460.72018 C 338.02507,454.4079 354.71905,440.08225 335.78363,440.05178 C 327.38438,437.22551 309.19333,452.0481 307.13934,446.58902 C 314.09443,444.71707 322.14629,440.15299 309.06637,442.06948 C 303.56797,444.41321 292.64602,443.44412 303.35685,439.64272 C 315.05023,439.41622 327.42225,438.37038 337.93461,437.16135 C 344.69394,442.36477 356.36835,442.76643 359.29104,434.65307 C 348.9024,432.50266 339.19572,434.39938 334.05615,432.89789 C 326.87648,429.93869 310.68277,434.70845 304.83591,435.8263 C 309.61342,431.34759 328.36622,424.17848 311.25301,424.82027 C 299.0697,426.93584 285.33325,420.66937 285.84825,406.85184 C 280.89861,406.23851 265.8221,406.30584 278.4417,410.50451 C 279.94254,413.66843 264.90389,423.16736 277.53358,422.79369 C 286.96806,421.52641 264.01092,428.37716 261.55429,425.23603 C 259.33872,423.40297 267.55265,412.02812 260.99982,419.34086 C 257.985,434.77107 243.49705,414.53775 238.19361,409.36018 C 224.48674,415.56644 205.95671,403.0125 213.0432,387.63277 C 215.98555,378.61988 190.46768,378.77569 205.07432,371.49534 C 216.21409,354.83112 190.60015,347.00704 177.98835,346.86113 C 166.29261,345.61712 164.03561,328.96111 178.48212,333.10628 C 192.53834,335.22479 203.00534,346.17086 216.14647,350.15821 C 226.93422,352.44666 233.82363,342.43914 232.64051,333.74116 C 244.17373,334.70816 265.47126,334.51061 261.97458,317.34477 C 271.25366,314.67622 287.90164,327.42625 289.21456,310.44971 C 301.63645,307.72043 315.57367,313.97334 328.12189,312.45818 C 337.02835,319.96893 350.87731,330.66557 354.6761,337.19749 C 351.54044,334.73194 346.07727,324.56094 346.72491,334.15964 C 342.63542,346.5035 333.20263,347.72229 323.38191,352.0422 C 315.34974,351.72906 309.20684,353.69623 318.19786,360.18598 C 323.61617,370.78477 344.40894,378.18584 346.8033,380.31819 C 337.28668,376.06425 327.49929,379.00396 318.06732,381.70618 C 309.03004,375.22422 299.33822,369.33467 290.47195,362.91407 C 303.17708,367.6996 313.93029,384.18588 328.52648,375.61826 C 329.31028,370.07017 318.52737,363.14394 314.07671,357.15659 C 308.34776,351.1548 299.15407,364.40662 290.91239,361.04958 C 281.96437,361.47795 292.90836,367.24173 296.1684,371.27731 C 289.48447,370.76676 280.45038,370.88642 280.26941,373.10633 C 275.81658,372.87108 299.05115,384.06553 282.43767,381.10164 C 277.64317,382.88739 281.67946,370.97021 276.67484,380.19367 C 260.72298,381.91821 290.13119,386.3553 295.31318,388.38461 C 303.80039,391.28681 330.5752,399.23045 312.23225,385.72673 C 305.51378,383.18194 286.35317,374.6775 304.06306,380.78788 C 313.68419,384.17093 319.71456,383.11912 321.38808,394.24259 C 328.84149,404.43229 352.12667,396.18645 356.05255,389.8957 C 351.26868,383.41292 350.03374,375.51806 355.25333,386.55277 C 362.58736,398.47529 375.99097,383.00361 384.01789,384.16679 C 396.09536,381.51518 398.35988,380.7015 408.46827,381.10219 C 417.56243,379.23901 426.83704,378.20672 436.12247,378.634 C 439.89346,372.99013 453.49712,355.22166 439.224,358.38755 C 429.10372,354.07927 418.98992,346.71081 408.04708,355.19196 C 396.70949,357.74795 380.20314,360.50889 383.26533,346.92965 C 388.9541,346.12475 403.35188,343.16446 397.8303,333.84406 C 404.59345,348.7541 418.3202,333.58444 411.33036,323.05013 C 414.37901,334.12086 425.34145,333.24996 424.15988,321.14789 C 425.38812,322.22892 439.66216,321.09338 439.80522,316.08852 C 448.19346,324.60779 462.56056,317.80106 464.91925,305.82176 C 469.06666,306.38623 470.12618,286.96439 465.72966,302.04914 C 463.81131,297.00124 449.04612,297.45824 456.71486,287.24986 C 457.21166,277.21584 472.8268,278.08238 467.88801,264.54831 C 469.67991,254.45549 464.74718,248.8138 457.2772,257.74945 C 456.9394,269.48539 456.86197,251.45539 450.15396,261.18409 C 441.5925,261.94576 450.22558,281.95932 444.61606,267.79601 C 434.66149,269.16041 425.62191,282.24344 415.1361,285.96397 C 409.82323,288.88485 399.28171,291.68523 403.50259,299.65185 C 400.23671,288.0746 385.97717,305.06721 383.57129,304.35432 C 377.26264,305.56127 365.64126,315.38487 366.77921,315.18032 C 362.70986,314.71605 356.87248,332.24581 348.87807,327.10074 C 341.19532,324.1074 336.83856,313.96884 344.82349,312.02839 C 334.59482,303.56429 356.01735,300.50915 352.95369,299.1389 C 343.24061,299.4243 356.42353,283.95182 362.70439,284.46394 C 367.18825,271.45367 383.2897,271.4214 391.52913,261.75076 C 403.14838,263.85702 403.58042,249.60184 414.20971,248.95756 C 418.04441,239.77422 428.33376,237.89919 432.57146,229.2833 C 442.96145,222.32132 459.29641,213.3178 467.16485,230.22678 C 480.44843,250.90034 479.23181,277.65832 473.06042,300.4625 C 468.91879,326.31419 456.53545,350.47852 445.77981,374.34106 C 433.21369,397.0358 420.93309,422.97569 396.82841,435.45988 C 396.75925,441.40453 416.76065,444.81432 407.9464,452.73345 C 403.98933,456.31249 391.45688,464.66462 395.17136,453.17804 C 405.1489,446.47107 384.38934,449.5371 392.91928,457.4224 C 395.04988,468.73966 405.0278,480.96576 412.61425,483.60004 L 410.52544,483.23173 L 408.07146,482.35225 L 408.07147,482.35226 z M 368.07147,456.28888 C 362.05812,445.22021 359.78887,464.52789 368.07147,456.28888 z M 377.91257,453.53336 C 381.68978,446.92231 388.71248,442.93662 392.69853,442.00839 C 385.27403,435.73003 360.38703,453.69328 374.58591,455.733 L 376.178,454.74267 L 377.91257,453.53335 L 377.91257,453.53336 z M 363.71701,446.24057 C 357.49753,438.28555 357.32175,457.33249 364.33769,447.3372 L 363.71701,446.24058 L 363.71701,446.24057 z M 371.57449,443.39789 C 386.24461,435.98089 356.35181,435.23952 364.27145,443.2623 C 366.20902,448.94359 368.47433,445.37999 371.57449,443.39789 z M 359.45978,443.17801 C 362.31884,435.92435 352.7601,450.46859 359.45978,443.17801 z M 396.67236,432.64789 C 403.15652,431.63617 408.55791,418.26027 399.01324,427.25879 C 395.76077,430.1368 388.06245,439.45935 396.67236,432.64789 z M 387.42261,432.21399 C 390.36627,423.1067 397.31162,407.56491 391.82146,400.28863 C 380.8244,396.36449 368.95147,402.32297 357.53171,399.65661 C 350.91728,403.36996 322.67748,400.6943 339.95987,410.7272 C 353.89377,417.91387 366.02814,428.85509 380.39062,434.75332 C 382.96871,435.10899 385.69229,434.18246 387.42261,432.21399 z M 377.07147,425.64789 C 379.55951,421.75477 379.55941,429.54102 377.07147,425.64789 z M 381.15042,407.23123 C 381.94405,402.15619 382.11181,411.29377 381.15042,407.23123 z M 359.62704,424.73782 C 352.3917,418.02955 334.81205,411.58781 331.57146,408.73508 C 338.58683,405.55676 316.26826,401.75885 311.13654,404.15527 C 302.4678,404.38401 277.93785,411.55436 296.68476,418.73732 C 317.70341,419.43339 338.74765,422.05949 359.38113,425.35876 L 359.62704,424.73782 L 359.62704,424.73782 z M 321.80243,407.99194 C 328.8815,407.24228 322.19118,409.60081 321.80243,407.99194 z M 306.82147,406.9856 C 311.83538,406.09119 308.39795,408.70248 306.82147,406.9856 z M 401.07147,420.20355 C 408.01551,415.4479 426.98433,399.82596 406.98989,401.9422 C 394.89429,396.15642 388.23168,433.72845 401.07146,420.20354 L 401.07147,420.20355 z M 265.07147,413.67926 C 261.42802,413.29373 257.63775,400.72432 260.63955,411.70727 C 260.23425,414.209 263.67347,415.89969 265.07147,413.67926 z M 301.7077,402.9494 C 307.54386,398.70796 335.68976,401.97767 316.00271,395.70651 C 302.23104,391.91565 288.23242,386.64502 274.02544,386.009 C 281.0689,389.94269 288.64567,401.96639 274.50225,402.34397 C 270.55201,400.10362 255.00421,403.6354 268.71689,404.39356 C 279.63741,405.38583 291.20053,407.06108 301.7077,402.9494 z M 253.04456,394.45691 C 252.87996,387.95908 243.53639,378.47306 247.5574,389.18686 C 246.11051,388.02644 245.13755,410.02409 251.25718,398.11499 L 252.16233,396.71176 L 253.04456,394.45691 L 253.04456,394.45691 z M 277.07147,396.64789 C 274.58343,392.75475 274.58345,400.54103 277.07147,396.64789 z M 251.05643,370.08124 C 246.97539,352.13515 243.31992,390.4013 251.16365,373.21654 L 251.05643,370.08124 L 251.05643,370.08124 z M 221.06316,373.1579 C 220.46445,365.11575 212.57784,378.34997 221.06316,373.15789 L 221.06316,373.1579 z M 220.97711,361.89972 C 215.34036,349.77476 207.87444,358.43957 218.74355,364.15648 C 220.42451,365.43357 223.09353,364.15122 220.97711,361.89972 z M 259.68835,359.64789 C 271.98733,356.42189 260.96679,348.51997 257.65896,354.17729 C 267.94792,351.74816 244.16932,366.60705 259.68835,359.64789 z M 238.82146,355.01761 C 249.05506,347.38937 223.55757,356.61652 238.82146,355.01761 z M 280.07147,353.64789 C 275.4865,349.95192 274.83238,355.76787 280.07147,353.64789 z M 286.48392,353.04312 C 289.15322,350.8869 299.66104,350.4145 296.16663,341.76599 C 290.50883,333.02165 289.98487,347.38671 291.49519,345.58996 C 285.95427,350.08006 285.4925,346.35226 283.74527,353.55731 L 286.48393,353.04311 L 286.48392,353.04312 z M 245.07146,345.47662 C 239.68377,324.14932 238.79481,358.55628 245.07146,345.47662 z M 320.26245,342.39169 C 323.92088,330.42482 318.42881,336.0186 313.59779,339.38841 C 311.9696,338.52484 304.40181,348.27958 314.83805,344.47001 C 316.72714,344.0523 318.74047,343.72275 320.26245,342.39169 z M 455.07147,339.16031 C 457.01404,331.59461 462.73366,317.71117 462.98564,312.84133 C 460.54577,322.26833 448.11112,336.07387 453.57146,343.29075 L 454.63083,341.45868 L 455.07146,339.1603 L 455.07147,339.16031 z M 450.33972,339.69247 C 450.35892,330.4313 425.68096,325.75886 424.07146,337.52068 C 431.33072,341.96645 443.3304,340.8647 449.31669,342.01883 L 450.33971,339.69248 L 450.33972,339.69247 z M 270.07147,341.00656 C 263.62038,335.0705 255.96777,344.94831 270.07147,341.00656 z M 306.57147,341.64789 C 303.50501,338.43271 306.25547,345.09363 306.57147,341.64789 z M 337.12784,334.42502 C 345.7524,325.5547 331.20494,333.69091 333.25186,337.246 C 335.0186,338.37914 335.85627,334.23295 337.12784,334.42502 z M 276.43594,328.409 C 271.92319,317.5628 263.12704,338.51773 275.68115,335.26479 C 277.16187,333.32554 276.86412,330.62892 276.43594,328.409 z M 459.88309,331.89789 C 464.48846,320.7024 458.60476,328.02672 458.00637,334.64789 L 458.89691,333.84008 L 459.88309,331.89789 L 459.88309,331.89789 z M 325.9201,329.04199 C 312.48026,323.85123 323.44051,335.05514 327.94662,331.0685 C 327.27111,330.393 326.59561,329.7175 325.9201,329.04199 z M 295.83939,328.64789 C 284.97805,320.68605 294.01879,338.1071 295.83939,328.64789 z M 340.07147,326.64789 C 337.67655,322.65274 338.47666,330.36683 340.07147,326.64789 z M 305.07147,322.02313 C 304.03939,306.82967 292.16669,327.4438 304.73143,324.26345 L 305.07146,322.02313 L 305.07147,322.02313 z M 336.07147,322.71933 C 333.5013,314.20295 322.21512,323.58095 333.73237,322.51793 C 333.29717,323.89642 336.68161,324.10184 336.07147,322.71933 z M 464.04083,320.14789 C 461.13837,320.82905 462.59855,326.73851 464.04083,320.14789 z M 467.93088,307.64789 C 465.10447,308.89542 466.96431,315.65017 467.93088,307.64789 z M 472.58054,280.14789 C 473.96471,268.23363 470.30321,287.89573 469.688,290.64789 C 468.6981,298.14513 473.29907,280.05042 472.58054,280.14789 z M 467.7413,286.14789 C 475.36243,268.51512 450.40459,291.19085 464.98572,291.24325 C 466.59278,289.984 467.22445,288.01342 467.7413,286.14789 z M 370.24271,287.99292 C 375.20981,279.12329 357.50753,294.15689 370.24271,287.99292 z M 406.92865,283.47498 C 415.25294,280.88799 415.76639,272.86012 407.82302,281.05283 C 403.98782,283.84245 395.48492,288.58383 406.92865,283.47498 z M 386.43661,277.57532 C 395.79641,267.64366 369.63213,283.25219 383.83808,279.03907 L 386.4366,277.57531 L 386.43661,277.57532 z M 422.07147,274.7251 C 426.39951,270.01245 447.6953,261.1747 438.67876,256.53516 C 432.0796,256.48383 429.47703,269.35772 427.07146,267.1944 C 422.95214,264.30923 407.27994,282.06167 422.07147,274.7251 z M 473.78772,265.89789 C 472.38899,268.27291 474.56717,276.73654 473.78771,265.89789 L 473.78772,265.89789 z M 405.43661,269.57532 C 415.47253,257.29862 382.58587,275.50526 402.88955,270.898 L 405.4366,269.57531 L 405.43661,269.57532 z M 475.79993,260.89789 C 474.57835,262.13578 476.21575,275.74055 475.92128,262.64984 L 475.79993,260.89789 L 475.79993,260.89789 z M 418.94394,261.21384 C 436.2186,246.07567 401.50029,266.84237 418.94394,261.21384 z M 449.71481,254.89789 C 463.92153,244.07059 437.0511,250.28682 444.32359,257.64789 C 446.27419,257.05772 447.98793,255.93801 449.71481,254.89789 z M 469.05832,246.07822 C 470.97057,229.39637 446.67181,250.05603 458.12618,249.08196 C 463.16263,241.01184 470.18381,247.9712 469.75283,253.84062 C 470.00498,251.22615 469.48458,248.639 469.05832,246.07822 z M 435.0325,249.45934 C 444.2393,232.70912 416.88082,257.80399 435.0325,249.45934 z M 447.43661,242.57532 C 458.32089,227.08107 427.88286,242.92843 445.22025,244.03907 L 447.4366,242.57531 L 447.43661,242.57532 z M 460.75702,236.47359 C 471.77891,223.26435 445.07923,226.11526 454.34837,237.56265 C 456.10028,239.84979 459.35926,238.03555 460.75702,236.47359 z M 323.70984,474.14789 C 329.20506,467.98467 324.51916,479.69551 323.70984,474.14789 z M 309.57147,471.64789 C 316.84589,468.00638 312.95856,474.5034 309.57147,471.64789 z M 320.80478,467.5238 C 326.64402,464.29619 318.14898,470.96299 320.80478,467.5238 z M 385.07147,458.64789 C 389.26565,454.64759 387.23343,462.43818 385.07147,458.64789 z M 300.82147,448.9856 C 305.83538,448.09119 302.39795,450.70248 300.82147,448.9856 z M 451.07147,444.93924 C 455.61553,441.28643 470.91032,438.32652 458.36042,444.04311 C 457.71984,444.53295 448.66666,446.66051 451.07147,444.93924 z M 451.88373,429.72733 C 456.82774,425.29275 465.69539,425.32451 455.85115,429.98813 C 450.8639,433.14276 442.44425,434.34741 451.88372,429.72732 L 451.88373,429.72733 z M 282.57147,423.64789 C 282.36093,419.616 286.68056,427.41368 282.57147,423.64789 z M 291.07147,376.92535 C 280.20844,373.62999 290.43241,373.80988 293.05825,377.5494 L 291.07146,376.92536 L 291.07147,376.92535 z M 403.07147,371.19669 C 403.4732,366.09886 409.15817,351.81023 405.62352,365.3997 C 405.50972,365.5781 403.77855,373.67023 403.07147,371.19669 z M 340.57147,360.64789 C 337.17385,351.02054 346.09528,370.31889 340.57147,360.64789 z M 337.07147,354.64789 C 334.61945,347.5501 341.82599,361.8241 337.07147,354.64789 z M 409.69501,320.10922 C 407.28497,310.96771 412.78592,325.0193 409.695,320.10923 L 409.69501,320.10922 z M 438.32364,311.14789 C 438.84006,302.63059 438.97202,318.93979 438.32364,311.14789 z M 423.53033,310.58136 C 421.93283,305.11484 427.0217,314.55544 423.53033,310.58136 z M 386.69501,309.10922 C 384.66357,302.06185 389.80149,313.54353 386.69501,309.10922 z M 451.32364,298.14789 C 451.84006,289.63059 451.97202,305.93979 451.32364,298.14789 z M 436.15042,295.23123 C 436.94405,290.15629 437.11181,299.29372 436.15042,295.23123 z M 449.67145,289.54788 C 448.45844,275.92353 452.75083,301.11452 449.67145,289.54788 z M 448.15042,281.23123 C 448.94405,276.15629 449.11181,285.29372 448.15042,281.23123 z M 447.15042,277.23123 C 447.94405,272.15629 448.11181,281.29372 447.15042,277.23123 z M 457.22934,266.64789 C 457.96614,261.70337 457.90549,271.56649 457.22934,266.64789 z" id="path3004"/>
      <path style="fill: rgb(73, 97, 144);" d="M 409.57147,482.64789 C 409.33971,477.83981 418.15247,487.79298 409.57147,482.64789 z M 398.90408,474.42911 C 394.82232,468.09377 388.15388,447.46243 395.55588,464.36432 C 395.54889,466.09981 404.43453,480.4003 398.90408,474.42911 z M 310.80478,471.5238 C 316.64402,468.29619 308.14898,474.96299 310.80478,471.5238 z M 320.80478,467.5238 C 326.64402,464.29619 318.14898,470.96299 320.80478,467.5238 z M 348.10361,458.94528 C 357.01301,452.04369 347.6483,440.4159 341.3207,452.585 C 337.75556,457.07487 325.83965,467.72984 335.69369,456.89789 C 342.50137,447.29793 351.02495,440.41448 360.53913,435.11226 C 345.47906,431.66867 329.19038,430.67578 313.81476,433.37965 C 297.8202,439.40818 315.19637,428.69625 320.05439,426.07302 C 306.01935,425.29378 283.88485,424.37539 285.86207,405.96701 C 299.77995,405.10952 312.86297,398.91694 326.82514,399.24863 C 342.52816,400.13248 355.70259,390.95379 370.67689,389.05015 C 382.92122,382.25915 397.38642,383.32933 411.04062,381.00132 C 419.33023,376.71625 431.629,382.08864 437.86985,376.1281 C 440.94909,371.87444 450.52932,359.18666 443.62753,357.76217 C 431.46695,360.98099 421.76986,342.75335 409.93048,354.4205 C 401.83854,355.2933 378.88346,362.05762 386.67698,347.31713 C 392.071,344.12222 400.88266,342.27791 399.58711,337.06312 C 407.51847,348.77892 414.10342,329.02281 413.71141,328.01391 C 422.60206,338.69813 424.98709,315.30821 437.16005,320.35414 C 444.75278,318.53219 452.69086,318.78603 460.07146,319.3943 C 457.23496,324.57624 451.83831,336.43688 451.19663,337.89789 C 447.89011,330.06596 422.06139,325.56667 425.23546,339.01709 C 436.56659,339.70545 449.06521,344.93867 454.16235,342.99246 C 460.4344,331.95265 467.41939,313.5679 467.96181,304.64789 C 468.19901,299.57215 472.83216,283.1029 474.879,276.78994 C 475.66064,269.44362 477.38455,257.46629 473.64934,263.4941 C 471.3648,274.04267 472.90503,294.73601 463.57146,298.64789 C 448.45675,298.02002 458.50496,278.73773 467.04273,276.00208 C 468.34194,267.02173 470.87585,243.43438 456.58041,257.33536 C 438.85409,267.68296 423.4322,281.74115 404.97712,291.20298 C 397.4231,298.08884 385.83809,300.89244 377.143,307.06169 C 364.86097,310.61296 363.27864,322.71588 352.37193,327.76928 C 347.3983,327.92329 337.78846,320.09141 340.80669,313.93166 C 349.64756,315.31989 337.1568,299.50692 349.7207,302.33358 C 360.00314,298.48759 344.09481,300.97877 351.07146,293.57418 C 354.55095,285.62457 366.82397,284.9761 368.8972,274.91128 C 381.775,273.8261 386.71344,259.36995 400.19317,260.3664 C 405.46789,251.3108 416.15954,249.52601 420.87674,240.10618 C 429.92804,238.69292 429.46393,226.47374 440.04484,226.53713 C 450.20076,211.95228 469.02308,225.2292 472.01691,239.27156 C 479.63482,258.03647 478.03733,279.31371 473.69607,298.64922 C 471.0089,307.50863 468.69035,319.90631 465.34589,328.79469 C 452.33108,361.58171 438.16397,395.02664 414.89486,422.00839 C 409.73906,430.37446 386.99261,434.92046 404.45675,443.33766 C 417.70746,447.44739 402.97877,457.08603 397.75502,459.45629 C 388.30916,458.3045 405.37504,443.84358 391.7126,450.83136 C 385.358,455.79845 372.0076,467.57123 368.72184,458.08815 C 368.45695,449.01654 361.35804,455.40393 361.50964,459.01483 C 355.85608,448.12406 352.51367,453.92846 347.00351,461.82925 C 343.80682,466.04735 347.59797,458.8471 348.10361,458.94528 z M 379.83609,452.66205 C 383.26088,445.69036 388.85848,444.40755 393.07146,441.87166 C 386.29067,436.3714 369.4567,446.88405 369.58686,453.67768 C 371.70485,459.14521 377.23431,455.34583 379.83609,452.66205 z M 367.95593,446.12225 C 376.26106,443.0199 380.32058,434.70781 368.32572,437.79657 C 357.02283,434.87891 352.64756,456.30022 365.18845,447.98914 L 366.4818,447.1209 L 367.95594,446.12226 L 367.95593,446.12225 z M 360.80478,442.5238 C 366.64402,439.29619 358.14898,445.96299 360.80478,442.5238 z M 401.43307,450.14789 C 401.09795,444.65498 398.47049,455.32891 401.43307,450.14789 z M 355.07147,448.08887 C 352.29194,446.17888 353.11195,451.62432 355.07147,448.08887 z M 387.3172,432.80414 C 389.69758,423.07429 402.18564,402.46078 387.99661,398.50743 C 375.14107,401.12677 362.53481,398.75545 349.55992,401.20599 C 331.25744,406.1374 311.70313,400.82933 293.87112,408.31566 C 280.42791,415.34746 303.04138,422.20753 310.16405,419.7635 C 326.8558,420.03849 343.33473,423.37616 359.76134,425.33838 C 350.09468,413.37484 374.56944,437.52991 381.97232,435.07462 L 384.9837,434.25993 L 387.31719,432.80415 L 387.3172,432.80414 z M 340.37723,412.07495 C 332.15298,404.66159 350.71167,419.77236 340.37723,412.07495 z M 333.75763,407.55585 C 334.38324,403.02674 338.94067,414.25471 333.75764,407.55584 L 333.75763,407.55585 z M 394.07147,434.7692 C 399.81586,434.23349 411.02651,417.51938 399.94723,426.23001 C 398.98548,426.77597 388.01579,438.01972 394.07147,434.7692 z M 402.80063,418.89969 C 408.95221,414.59546 426.40666,400.37082 408.27988,401.89137 C 395.10499,396.97374 392.6959,420.75835 394.72021,424.72967 C 397.50299,422.91456 400.1272,420.8691 402.80063,418.89969 z M 463.67563,328.91873 C 461.68878,330.73936 465.02979,332.75033 463.67563,328.91873 z M 468.76004,281.90335 C 472.70675,271.96247 456.21209,285.93901 461.05831,290.55245 C 466.84898,295.67134 468.04978,285.50531 468.76004,281.90335 z M 369.43661,288.57532 C 377.01071,278.77295 356.97264,294.47591 369.4366,288.57531 L 369.43661,288.57532 z M 410.07062,282.14844 C 423.44316,270.96873 402.25706,281.30896 401.7483,286.09808 C 404.81257,285.54103 407.43533,283.69013 410.07062,282.14844 z M 386.99741,277.05673 C 396.23625,266.39844 367.60926,283.96482 384.24126,278.66438 L 386.99742,277.05674 L 386.99741,277.05673 z M 423.1875,274.26105 C 433.2503,270.54043 426.29033,261.74382 420.11262,269.4713 C 411.56113,272.95275 416.53702,281.39077 423.1875,274.26105 z M 405.07147,269.7095 C 415.6309,256.91004 383.16368,274.90943 402.45816,271.29271 L 405.07146,269.7095 L 405.07147,269.7095 z M 434.17358,266.16931 C 444.41848,264.3404 443.12886,249.04596 433.34746,259.53453 C 427.15551,260.87415 426.55347,273.41439 434.17358,266.16931 z M 421.94473,259.22766 C 428.09034,247.23159 402.58521,269.162 419.61287,260.84729 L 421.94474,259.22766 L 421.94473,259.22766 z M 470.67563,256.91873 C 468.68879,258.73933 472.02977,260.75035 470.67563,256.91873 z M 453.81061,251.40913 C 459.48038,245.60964 470.74191,242.80512 469.7357,254.95724 C 471.29763,245.76788 467.27788,231.43467 457.55184,243.08454 C 454.95776,247.27325 435.45605,254.03779 445.67377,257.26827 C 448.61167,255.71446 451.86453,254.2569 453.81061,251.40913 z M 435.51477,249.42538 C 442.12553,232.14968 416.98225,259.03401 435.51477,249.42538 z M 447.43661,242.57532 C 458.36632,226.80441 427.67811,243.074 445.19571,244.03907 L 447.4366,242.57531 L 447.43661,242.57532 z M 460.96866,236.25731 C 470.69577,222.72712 445.4662,226.7697 453.74807,237.89789 C 455.88856,239.86292 459.26892,237.82102 460.96866,236.25731 z M 310.47119,446.91483 C 320.15821,443.84651 317.97642,436.22509 329.64847,440.08813 C 322.7797,438.98726 315.26356,448.08083 310.47119,446.91483 z M 456.5043,442.63699 C 472.64946,435.55039 454.66681,448.55563 452.59254,444.55717 L 454.15512,443.70657 L 456.50429,442.637 L 456.5043,442.63699 z M 298.07147,442.79007 C 301.47343,435.90987 320.66681,441.73911 305.10368,442.0748 C 302.95259,441.68258 299.69595,444.36784 298.07147,442.79007 z M 343.07147,441.96738 C 333.51425,435.53048 345.89485,440.21696 343.07147,441.96738 z M 450.57147,430.67435 C 454.92378,426.20062 466.55833,424.05762 455.85124,429.98809 C 453.09575,432.02302 441.3259,435.20596 450.57147,430.67435 z M 262.80923,425.95621 C 257.3412,421.69808 269.12729,413.92353 261.39506,407.9994 C 250.19573,398.80468 269.75891,430.17488 253.89731,423.56795 C 246.41667,417.98156 248.2741,397.66629 233.47632,408.14789 C 217.0271,417.51125 207.46861,395.47264 212.98634,382.99629 C 207.24729,379.70024 192.97636,375.72244 206.47909,370.17093 C 213.85537,351.53396 189.15398,348.20324 176.46284,346.34542 C 162.93874,343.19884 168.33792,327.978 180.80129,333.82354 C 195.21821,335.60548 204.87958,349.55843 219.21331,350.23416 C 230.81269,351.5451 231.39629,340.24551 233.77309,333.33718 C 244.65704,335.62363 265.73082,333.80245 261.58423,317.62722 C 271.38939,315.00291 288.1298,327.27889 289.91545,310.07384 C 301.7307,307.14031 314.12919,316.18641 326.10995,311.66268 C 340.18516,314.48856 342.66983,330.08861 330.16541,336.71235 C 341.15964,341.29434 338.20426,315.10798 347.31523,329.38683 C 347.76668,342.44171 333.61968,347.99374 323.24548,352.05246 C 318.1721,351.56709 311.08121,353.88981 313.0293,355.94794 C 305.35966,356.84315 292.58165,361.74932 286.97305,362.46968 C 289.56303,366.28037 301.49469,373.21114 290.43502,371.11685 C 285.02732,370.17606 280.42783,371.64346 281.07146,373.14681 C 273.32438,371.47168 300.07146,384.47298 282.43767,381.10164 C 281.06434,378.74352 262.39892,360.42723 258.10326,374.94892 C 261.87249,384.984 279.51759,375.81399 272.146,382.37751 C 276.43801,384.40823 281.13837,385.28575 274.20039,386.74126 C 287.73058,391.24128 282.75001,406.5996 269.3386,401.9523 C 283.37802,397.40482 270.34684,386.7581 261.74455,382.15086 C 254.72437,381.95015 265.85361,398.66009 261.1878,403.73277 C 269.74714,404.46674 272.48207,404.00475 275.28872,409.14555 C 287.04388,411.03918 262.92763,422.80025 276.0079,422.75914 C 286.64249,422.5711 269.37703,424.17303 267.08124,426.48936 L 265.10384,426.40488 L 262.80922,425.95621 L 262.80923,425.95621 z M 274.76099,412.07932 C 269.62945,405.9361 261.51324,404.21613 271.18574,411.7461 C 271.74144,412.45121 274.3826,414.11299 274.76099,412.07932 z M 250.8875,398.93677 C 260.09701,391.58394 239.86893,373.98619 240.7245,384.14215 C 253.88205,386.40527 231.49024,406.28966 248.3054,401.92303 L 249.55227,400.81607 L 250.8875,398.93676 L 250.8875,398.93677 z M 223.2868,395.07458 C 226.60426,388.1357 216.5022,378.2816 219.17773,391.35801 C 219.14613,393.95384 220.53102,401.41669 223.2868,395.07458 z M 249.87743,375.69647 C 257.22158,369.15936 240.67127,356.91929 244.99001,369.89789 C 244.54696,372.27233 242.07573,385.22432 249.87743,375.69647 z M 220.54637,373.67563 C 228.56376,367.84311 212.69854,349.94867 213.04927,357.59121 C 218.7312,360.23403 213.53031,381.37613 220.54637,373.67563 z M 282.33368,367.00406 C 291.90413,364.05999 273.93107,365.42891 281.56747,361.86796 C 273.23722,358.81053 258.19937,368.84475 274.96546,367.60769 C 277.4301,367.55605 279.89771,367.39682 282.33368,367.00406 z M 256.07147,361.72543 C 267.48554,361.90412 266.38018,342.39251 257.37799,350.0043 C 257.20031,355.06041 239.08855,362.69722 256.07147,361.72543 z M 243.02045,352.11487 C 250.75102,345.89357 237.77188,331.02105 239.32826,346.35596 C 236.5118,352.67193 229.81946,360.18851 243.02045,352.11487 z M 280.07147,353.71899 C 292.88784,356.808 303.94531,342.89584 290.07085,334.86016 C 282.84578,331.908 291.1031,339.78555 285.95535,343.52801 C 283.44143,347.8224 275.99192,344.89145 278.14458,350.19596 C 268.87478,347.26071 279.04623,356.19804 280.07147,353.71899 z M 320.26245,342.39169 C 324.33184,337.48079 315.96811,325.73355 325.92365,332.07215 C 338.71457,332.55836 336.90251,311.6655 324.84054,321.64789 C 317.43552,329.53354 314.8464,336.02892 305.52553,340.23882 C 292.66516,339.41227 318.29087,349.21668 320.26245,342.39169 z M 323.72937,324.09695 C 327.14491,319.53531 325.15586,327.7285 323.72937,324.09695 z M 273.23462,339.49319 C 282.21638,334.27989 272.30655,316.03749 268.50188,331.1845 C 264.64629,336.59543 258.44082,345.49786 270.50585,340.97204 L 273.23462,339.4932 L 273.23462,339.49319 z M 329.07147,336.08887 C 326.29194,334.17888 327.11195,339.62432 329.07147,336.08887 z M 300.79462,328.67517 C 310.47411,324.26328 300.67006,307.95963 296.63464,321.85203 C 288.9613,328.55404 288.19578,333.27144 300.79462,328.67517 z M 264.57147,401.64789 C 269.98768,397.57223 267.86041,405.94128 264.57147,401.64789 z M 313.83533,394.88889 C 305.64828,392.85284 304.51309,390.50771 313.76859,393.65128 C 321.45125,395.31627 326.73012,399.43015 315.64409,395.4278 L 313.83532,394.88888 L 313.83533,394.88889 z M 318.69501,391.10922 C 316.66357,384.06185 321.80149,395.54352 318.69501,391.10922 z M 300.07147,390.64789 C 296.97596,387.08682 309.78734,394.22371 300.07147,390.64789 z M 313.57147,385.60519 C 305.82926,380.662 326.62944,390.95157 313.57146,385.60518 L 313.57147,385.60519 z M 280.34229,386.04373 C 283.59986,384.94167 283.03165,387.90063 280.34229,386.04373 z M 316.26804,380.38474 C 323.4646,375.08177 337.11323,372.14599 346.43884,379.76751 C 338.79934,375.13878 325.32248,381.02633 316.26804,380.38474 z M 460.0835,325.39789 C 461.23219,318.65669 470.54478,296.8918 464.55961,315.44464 C 463.18696,318.56566 462.20974,323.64695 460.0835,325.39789 z" id="path3002"/>
      <path style="fill: rgb(104, 97, 83);" d="M 409.57147,482.64789 C 409.33971,477.83981 418.15247,487.79298 409.57147,482.64789 z M 398.90408,474.42911 C 394.82232,468.09377 388.15388,447.46243 395.55588,464.36432 C 395.54889,466.09981 404.43453,480.4003 398.90408,474.42911 z M 310.80478,471.5238 C 316.64402,468.29619 308.14898,474.96299 310.80478,471.5238 z M 320.80478,467.5238 C 326.64402,464.29619 318.14898,470.96299 320.80478,467.5238 z M 348.10361,458.94528 C 357.01301,452.04369 347.6483,440.4159 341.3207,452.585 C 337.75556,457.07487 325.83965,467.72984 335.69369,456.89789 C 342.50137,447.29793 351.02495,440.41448 360.53913,435.11226 C 345.47906,431.66867 329.19038,430.67578 313.81476,433.37965 C 297.8202,439.40818 315.19637,428.69625 320.05439,426.07302 C 306.01935,425.29378 283.88485,424.37539 285.86207,405.96701 C 299.77995,405.10952 312.86297,398.91694 326.82514,399.24863 C 342.52816,400.13248 355.70259,390.95379 370.67689,389.05015 C 382.92122,382.25915 397.38642,383.32933 411.04062,381.00132 C 419.33023,376.71625 431.629,382.08864 437.86985,376.1281 C 440.94909,371.87444 450.52932,359.18666 443.62753,357.76217 C 431.46695,360.98099 421.76986,342.75335 409.93048,354.4205 C 401.83854,355.2933 378.88346,362.05762 386.67698,347.31713 C 392.071,344.12222 400.88266,342.27791 399.58711,337.06312 C 407.51847,348.77892 414.10342,329.02281 413.71141,328.01391 C 422.60206,338.69813 424.98709,315.30821 437.16005,320.35414 C 444.75278,318.53219 452.69086,318.78603 460.07146,319.3943 C 457.23496,324.57624 451.83831,336.43688 451.19663,337.89789 C 447.89011,330.06596 422.06139,325.56667 425.23546,339.01709 C 436.56659,339.70545 449.06521,344.93867 454.16235,342.99246 C 460.4344,331.95265 467.41939,313.5679 467.96181,304.64789 C 468.19901,299.57215 472.83216,283.1029 474.879,276.78994 C 475.66064,269.44362 477.38455,257.46629 473.64934,263.4941 C 471.3648,274.04267 472.90503,294.73601 463.57146,298.64789 C 448.45675,298.02002 458.50496,278.73773 467.04273,276.00208 C 468.34194,267.02173 470.87585,243.43438 456.58041,257.33536 C 438.85409,267.68296 423.4322,281.74115 404.97712,291.20298 C 397.4231,298.08884 385.83809,300.89244 377.143,307.06169 C 364.86097,310.61296 363.27864,322.71588 352.37193,327.76928 C 347.3983,327.92329 337.78846,320.09141 340.80669,313.93166 C 349.64756,315.31989 337.1568,299.50692 349.7207,302.33358 C 360.00314,298.48759 344.09481,300.97877 351.07146,293.57418 C 354.55095,285.62457 366.82397,284.9761 368.8972,274.91128 C 381.775,273.8261 386.71344,259.36995 400.19317,260.3664 C 405.46789,251.3108 416.15954,249.52601 420.87674,240.10618 C 429.92804,238.69292 429.46393,226.47374 440.04484,226.53713 C 450.20076,211.95228 469.02308,225.2292 472.01691,239.27156 C 479.63482,258.03647 478.03733,279.31371 473.69607,298.64922 C 471.0089,307.50863 468.69035,319.90631 465.34589,328.79469 C 452.33108,361.58171 438.16397,395.02664 414.89486,422.00839 C 409.73906,430.37446 386.99261,434.92046 404.45675,443.33766 C 417.70746,447.44739 402.97877,457.08603 397.75502,459.45629 C 388.30916,458.3045 405.37504,443.84358 391.7126,450.83136 C 385.358,455.79845 372.0076,467.57123 368.72184,458.08815 C 368.45695,449.01654 361.35804,455.40393 361.50964,459.01483 C 355.85608,448.12406 352.51367,453.92846 347.00351,461.82925 C 343.80682,466.04735 347.59797,458.8471 348.10361,458.94528 z M 379.83609,452.66205 C 383.26088,445.69036 388.85848,444.40755 393.07146,441.87166 C 386.29067,436.3714 369.4567,446.88405 369.58686,453.67768 C 371.70485,459.14521 377.23431,455.34583 379.83609,452.66205 z M 367.95593,446.12225 C 376.26106,443.0199 380.32058,434.70781 368.32572,437.79657 C 357.02283,434.87891 352.64756,456.30022 365.18845,447.98914 L 366.4818,447.1209 L 367.95594,446.12226 L 367.95593,446.12225 z M 360.80478,442.5238 C 366.64402,439.29619 358.14898,445.96299 360.80478,442.5238 z M 401.43307,450.14789 C 401.09795,444.65498 398.47049,455.32891 401.43307,450.14789 z M 355.07147,448.08887 C 352.29194,446.17888 353.11195,451.62432 355.07147,448.08887 z M 387.3172,432.80414 C 389.69758,423.07429 402.18564,402.46078 387.99661,398.50743 C 375.14107,401.12677 362.53481,398.75545 349.55992,401.20599 C 331.25744,406.1374 311.70313,400.82933 293.87112,408.31566 C 280.42791,415.34746 303.04138,422.20753 310.16405,419.7635 C 326.8558,420.03849 343.33473,423.37616 359.76134,425.33838 C 350.09468,413.37484 374.56944,437.52991 381.97232,435.07462 L 384.9837,434.25993 L 387.31719,432.80415 L 387.3172,432.80414 z M 340.37723,412.07495 C 332.15298,404.66159 350.71167,419.77236 340.37723,412.07495 z M 333.75763,407.55585 C 334.38324,403.02674 338.94067,414.25471 333.75764,407.55584 L 333.75763,407.55585 z M 394.07147,434.7692 C 399.81586,434.23349 411.02651,417.51938 399.94723,426.23001 C 398.98548,426.77597 388.01579,438.01972 394.07147,434.7692 z M 402.80063,418.89969 C 408.95221,414.59546 426.40666,400.37082 408.27988,401.89137 C 395.10499,396.97374 392.6959,420.75835 394.72021,424.72967 C 397.50299,422.91456 400.1272,420.8691 402.80063,418.89969 z M 463.67563,328.91873 C 461.68878,330.73936 465.02979,332.75033 463.67563,328.91873 z M 468.76004,281.90335 C 472.70675,271.96247 456.21209,285.93901 461.05831,290.55245 C 466.84898,295.67134 468.04978,285.50531 468.76004,281.90335 z M 369.43661,288.57532 C 377.01071,278.77295 356.97264,294.47591 369.4366,288.57531 L 369.43661,288.57532 z M 410.07062,282.14844 C 423.44316,270.96873 402.25706,281.30896 401.7483,286.09808 C 404.81257,285.54103 407.43533,283.69013 410.07062,282.14844 z M 386.99741,277.05673 C 396.23625,266.39844 367.60926,283.96482 384.24126,278.66438 L 386.99742,277.05674 L 386.99741,277.05673 z M 423.1875,274.26105 C 433.2503,270.54043 426.29033,261.74382 420.11262,269.4713 C 411.56113,272.95275 416.53702,281.39077 423.1875,274.26105 z M 405.07147,269.7095 C 415.6309,256.91004 383.16368,274.90943 402.45816,271.29271 L 405.07146,269.7095 L 405.07147,269.7095 z M 434.17358,266.16931 C 444.41848,264.3404 443.12886,249.04596 433.34746,259.53453 C 427.15551,260.87415 426.55347,273.41439 434.17358,266.16931 z M 421.94473,259.22766 C 428.09034,247.23159 402.58521,269.162 419.61287,260.84729 L 421.94474,259.22766 L 421.94473,259.22766 z M 470.67563,256.91873 C 468.68879,258.73933 472.02977,260.75035 470.67563,256.91873 z M 453.81061,251.40913 C 459.48038,245.60964 470.74191,242.80512 469.7357,254.95724 C 471.29763,245.76788 467.27788,231.43467 457.55184,243.08454 C 454.95776,247.27325 435.45605,254.03779 445.67377,257.26827 C 448.61167,255.71446 451.86453,254.2569 453.81061,251.40913 z M 435.51477,249.42538 C 442.12553,232.14968 416.98225,259.03401 435.51477,249.42538 z M 447.43661,242.57532 C 458.36632,226.80441 427.67811,243.074 445.19571,244.03907 L 447.4366,242.57531 L 447.43661,242.57532 z M 460.96866,236.25731 C 470.69577,222.72712 445.4662,226.7697 453.74807,237.89789 C 455.88856,239.86292 459.26892,237.82102 460.96866,236.25731 z M 310.47119,446.91483 C 320.15821,443.84651 317.97642,436.22509 329.64847,440.08813 C 322.7797,438.98726 315.26356,448.08083 310.47119,446.91483 z M 456.5043,442.63699 C 472.64946,435.55039 454.66681,448.55563 452.59254,444.55717 L 454.15512,443.70657 L 456.50429,442.637 L 456.5043,442.63699 z M 298.07147,442.79007 C 301.47343,435.90987 320.66681,441.73911 305.10368,442.0748 C 302.95259,441.68258 299.69595,444.36784 298.07147,442.79007 z M 343.07147,441.96738 C 333.51425,435.53048 345.89485,440.21696 343.07147,441.96738 z M 450.57147,430.67435 C 454.92378,426.20062 466.55833,424.05762 455.85124,429.98809 C 453.09575,432.02302 441.3259,435.20596 450.57147,430.67435 z M 262.57147,425.64789 C 259.74515,422.43207 261.78707,420.68541 264.12868,423.26827 C 270.82104,420.61668 263.34321,405.18056 263.17859,413.2141 C 262.51472,405.39072 252.20774,403.41741 259.59639,412.51054 C 266.01515,424.0899 251.25264,429.42345 248.81295,416.79771 C 248.89923,391.61877 219.24962,423.65811 213.20837,401.21577 C 208.86944,393.00237 219.3246,378.33694 203.17451,378.69316 C 194.18461,372.74157 215.7362,368.87012 206.77242,359.42358 C 199.90718,343.08041 176.42353,353.94328 167.89784,339.39088 C 172.76039,324.61263 195.49602,339.56815 205.06673,345.22336 C 213.29623,354.20496 236.09849,351.25343 231.61917,335.87769 C 239.74998,329.92314 262.67216,339.01391 262.05557,320.61819 C 264.4994,309.67668 289.96905,330.42058 289.91545,310.07384 C 301.7307,307.14031 314.12919,316.18641 326.10995,311.66268 C 341.41372,314.77876 341.15969,330.34592 330.39103,337.44682 C 333.76965,337.37165 326.58888,343.37567 335.40238,339.90333 C 347.92861,338.61783 334.42279,316.51737 347.54687,329.05187 C 347.7908,341.16695 335.39671,347.38614 325.48147,351.26075 C 316.79544,350.95044 313.64454,355.8447 310.79978,355.47902 C 304.82905,361.24537 285.35731,359.27931 285.77292,363.89379 C 286.76049,366.02991 275.23784,364.47528 281.47748,361.88014 C 275.03749,358.97744 258.83,367.59445 273.57146,367.7213 C 281.47729,368.15988 270.87949,369.09286 281.20849,371.99619 C 283.87576,375.13681 268.73867,368.94138 278.57147,375.59387 C 272.3784,370.16385 253.17178,365.31994 259.92195,378.40833 C 265.93268,382.5836 269.6343,376.20211 270.19679,381.91297 C 279.50467,384.65538 278.19319,386.61701 269.57146,384.0768 C 272.36814,388.49895 283.14675,400.07129 271.96607,389.89976 C 267.16345,383.03155 252.47973,377.31452 261.4186,390.43507 C 263.0278,398.46716 256.93436,407.31989 270.07146,404.59636 C 276.97842,403.77708 267.91317,409.66351 277.12379,410.10771 C 278.2388,415.03695 265.59701,424.13851 279.48114,422.85375 C 278.40357,422.13466 267.02273,428.22885 262.57147,425.64789 z M 274.76099,412.07932 C 269.62945,405.9361 261.51324,404.21613 271.18574,411.7461 C 271.74144,412.45121 274.3826,414.11299 274.76099,412.07932 z M 249.85097,400.39789 C 258.56059,406.44372 256.29756,379.09957 249.07146,383.14789 C 251.36998,385.25158 232.66404,376.14011 242.20883,385.87321 C 252.55387,387.16486 230.04667,410.87968 249.85097,400.39789 z M 223.2868,395.07458 C 226.60426,388.1357 216.5022,378.2816 219.17773,391.35801 C 219.14613,393.95384 220.53102,401.41669 223.2868,395.07458 z M 252.65324,379.64789 C 253.56485,373.34626 246.56285,377.70544 253.43254,371.28303 C 255.78893,360.97218 272.5507,359.85669 275.07312,354.30372 C 266.8715,352.97016 259.21961,343.67533 254.68496,352.92806 C 250.65953,359.06536 245.66347,360.74045 256.46216,363.565 C 251.56534,366.48861 239.43978,359.82961 245.39669,372.97052 C 240.08392,377.03147 248.80547,380.66648 252.65324,379.64789 z M 261.15479,359.36493 C 268.81642,352.19557 264.01995,360.04701 261.15479,359.36493 z M 220.54637,373.67563 C 228.56376,367.84311 212.69854,349.94867 213.04927,357.59121 C 218.7312,360.23403 213.53031,381.37613 220.54637,373.67563 z M 305.08636,352.13361 C 315.47997,347.55028 336.22722,347.38846 321.77771,332.97661 C 316.93749,327.60814 334.64856,335.49627 334.85766,325.7102 C 333.91234,309.47547 317.33762,329.23079 314.07146,334.25488 C 312.26109,339.61415 293.91158,339.37577 307.99435,344.30389 C 313.85478,348.78302 295.3361,339.9002 296.79497,346.5689 C 299.3675,338.66927 282.15333,328.27537 287.94166,339.21981 C 287.28015,344.89016 280.59203,345.84245 277.94304,348.06852 C 279.78567,351.85424 271.43555,348.75161 276.43062,353.51127 C 283.90244,357.51218 297.85329,356.71637 305.08636,352.13361 z M 280.34229,353.04373 C 283.59986,351.94167 283.03165,354.90063 280.34229,353.04373 z M 293.25998,352.02899 C 298.77012,347.53276 292.53323,353.87436 293.25998,352.02899 z M 311.80243,344.99194 C 318.8815,344.24228 312.19118,346.60081 311.80243,344.99194 z M 323.72937,324.09695 C 327.14491,319.53531 325.15586,327.7285 323.72937,324.09695 z M 243.02045,352.11487 C 250.75102,345.89357 237.77188,331.02105 239.32826,346.35596 C 236.5118,352.67193 229.81946,360.18851 243.02045,352.11487 z M 273.23462,339.49319 C 282.21638,334.27989 272.30655,316.03749 268.50188,331.1845 C 264.64629,336.59543 258.44082,345.49786 270.50585,340.97204 L 273.23462,339.4932 L 273.23462,339.49319 z M 329.07147,336.08887 C 326.29194,334.17888 327.11195,339.62432 329.07147,336.08887 z M 300.79462,328.67517 C 310.47411,324.26328 300.67006,307.95963 296.63464,321.85203 C 288.9613,328.55404 288.19578,333.27144 300.79462,328.67517 z M 264.57147,401.64789 C 269.98768,397.57223 267.86041,405.94128 264.57147,401.64789 z M 269.07147,401.74634 C 271.25056,396.9304 273.26073,401.76863 269.07147,401.74634 z M 313.83533,394.88889 C 305.64828,392.85284 304.51309,390.50771 313.76859,393.65128 C 321.45125,395.31627 326.73012,399.43015 315.64409,395.4278 L 313.83532,394.88888 L 313.83533,394.88889 z M 318.69501,391.10922 C 316.66357,384.06185 321.80149,395.54352 318.69501,391.10922 z M 300.07147,390.64789 C 296.97596,387.08682 309.78734,394.22371 300.07147,390.64789 z M 313.57147,385.60519 C 305.82926,380.662 326.62944,390.95157 313.57146,385.60518 L 313.57147,385.60519 z M 280.34229,386.04373 C 283.59986,384.94167 283.03165,387.90063 280.34229,386.04373 z M 316.26804,380.38474 C 323.4646,375.08177 337.11323,372.14599 346.43884,379.76751 C 338.79934,375.13878 325.32248,381.02633 316.26804,380.38474 z M 271.80243,378.99194 C 278.8815,378.24228 272.19118,380.60081 271.80243,378.99194 z M 281.80243,366.99194 C 288.8815,366.24228 282.19118,368.60081 281.80243,366.99194 z M 460.0835,325.39789 C 461.23219,318.65669 470.54478,296.8918 464.55961,315.44464 C 463.18696,318.56566 462.20974,323.64695 460.0835,325.39789 z" id="path3000"/>
      <path style="fill: rgb(84, 79, 55);" d="M 374.07669,460.76624 C 368.95014,457.25614 362.52376,447.87713 361.06331,458.56686 C 360.40029,452.3426 352.64073,451.90661 354.78172,450.0695 C 356.6534,443.46101 347.7344,453.05605 350.10715,444.40435 C 356.44503,440.15012 366.47135,432.51905 352.02538,433.11801 C 336.91444,432.56262 320.9836,430.21178 306.46824,435.16322 C 316.88006,424.54277 332.41918,426.80356 345.57146,429.62498 C 350.66082,431.03875 370.86196,432.6552 355.06811,429.6313 C 335.77384,426.13045 316.20453,424.63539 296.74139,422.65516 C 284.01676,419.67559 284.43388,401.99396 298.84414,404.62135 C 315.80457,397.58115 335.06458,401.89633 352.22705,395.14969 C 366.90097,390.598 381.31029,383.96139 396.78231,383.19435 C 409.85259,382.61481 422.6976,377.62141 435.93245,378.93093 C 442.34308,373.2495 455.73639,352.18384 437.8553,357.9013 C 428.47677,351.61965 418.31657,347.36131 407.64128,354.36495 C 400.59198,354.62656 380.97129,361.68413 386.48062,348.20017 C 393.02179,346.72862 399.23514,338.33571 401.31975,338.98709 C 409.94801,347.76892 413.08974,329.26363 414.26583,329.42131 C 422.87471,337.22918 426.75985,315.3566 438.88476,320.37261 C 445.55531,319.68088 451.49558,320.12858 457.75545,319.15877 C 458.8292,323.60974 453.58296,339.43711 446.70739,333.08538 C 440.19877,328.16079 416.02731,329.72563 426.75584,340.09408 C 436.99231,339.11084 447.34716,345.53957 454.4009,344.50168 C 450.22716,359.47024 455.62527,343.22785 460.15806,340.09184 C 449.9099,367.40707 436.49551,394.07972 418.34191,417.0998 C 412.88895,423.94441 400.91085,436.02119 394.95175,434.29214 C 405.17865,431.06608 404.55578,420.43119 412.25744,414.71132 C 405.96472,419.62636 395.90184,428.14391 390.21431,435.82715 C 396.92935,438.13459 410.36822,444.79447 408.85437,451.18256 C 404.89423,456.38473 388.74961,462.66999 397.31366,452.44285 C 398.33763,438.55067 378.2303,466.16257 374.07669,460.76624 z M 377.57147,454.65863 C 385.06079,446.65406 376.61013,464.54405 382.6291,452.38544 C 382.73015,444.82384 402.83955,442.51564 388.23217,439.19245 C 381.28067,441.97351 358.38075,452.21238 375.01084,456.43721 L 377.57146,454.65862 L 377.57147,454.65863 z M 385.07147,445.20691 C 387.59398,441.29091 387.82547,447.30907 385.07147,445.20691 z M 363.27145,449.64789 C 367.90977,446.82193 387.14813,434.82861 370.57146,437.21809 C 360.76918,434.96657 347.99504,452.62854 363.27145,449.64789 z M 401.9368,449.09686 C 400.06452,445.13352 398.04448,456.03646 401.9368,449.09686 z M 387.34912,433.72107 C 392.40052,423.62591 393.4056,412.09595 395.73721,401.14551 C 386.77925,394.27047 376.51569,401.61821 366.96343,399.62751 C 353.35599,397.52661 340.18566,405.0982 326.34337,403.5347 C 313.81763,401.21007 300.35937,406.23646 289.16279,409.06907 C 287.73821,418.0627 294.9481,420.85934 302.01115,419.69349 C 323.46953,420.20191 345.07355,422.47884 365.80139,427.87289 C 372.6554,431.03737 379.40004,440.74496 387.34912,433.72107 z M 399.87222,421.51846 C 406.30223,416.87535 428.37547,400.58647 408.56923,401.52225 C 393.28818,397.36919 394.74925,417.92043 392.89794,426.10716 C 395.38101,424.82714 397.56805,423.07805 399.87222,421.51846 z M 344.07147,448.14789 C 352.50254,439.29925 337.91812,456.55983 344.07147,448.14789 z M 349.07147,442.14789 C 356.6634,434.51395 344.12011,449.91107 349.07147,442.14789 z M 456.07147,443.5004 C 463.95682,438.85116 465.85231,441.32861 457.06487,444.13299 C 455.19363,445.84876 453.14279,443.91494 456.07147,443.5004 z M 299.94391,441.31653 C 305.29444,437.05239 318.59868,441.70637 305.32146,441.84431 C 304.40192,441.30045 296.98331,444.43635 299.94391,441.31653 z M 317.15479,440.28595 C 325.0171,437.63076 333.69599,441.05036 320.54327,440.61933 L 318.67198,440.54157 L 317.15479,440.28594 L 317.15479,440.28595 z M 452.99091,430.14545 C 459.55632,426.1165 464.36226,424.77411 454.81098,430.22621 C 450.94366,432.19449 446.91407,432.82154 452.99091,430.14545 z M 264.79578,425.84024 C 263.43296,423.73754 271.29297,411.33263 261.28885,407.75145 C 255.73073,399.56211 278.01022,412.93076 271.91834,420.03953 C 271.84541,423.71252 268.60806,426.83515 264.79578,425.84024 z M 251.19328,421.073 C 250.05565,408.93642 241.24988,400.24587 229.74607,409.62552 C 214.29057,413.45586 209.35482,394.39683 213.40624,383.64422 C 210.31952,379.28562 193.28663,376.27079 205.54844,371.96281 C 215.04405,356.43181 194.10308,346.02203 180.80875,347.30069 C 167.39423,347.1235 162.29322,328.39274 179.69093,333.84342 C 193.42845,335.52054 203.13327,347.79084 216.14684,350.12655 C 227.99125,352.95262 233.26106,342.50245 233.13199,334.39779 C 246.01584,335.11199 263.87152,333.60321 264.35599,317.08045 C 274.85453,319.65752 288.94941,323.4782 291.38096,309.40435 C 303.66803,310.70628 315.7946,314.28391 327.62875,312.66946 C 347.33384,315.26166 334.29572,345.20241 320.60416,330.87814 C 329.8498,340.33242 343.44349,314.86133 328.71982,319.50851 C 320.50883,326.23706 314.01746,327.90131 308.48219,335.62503 C 307.33087,343.64952 289.69048,332.82869 300.15252,342.76664 C 296.36202,341.40525 284.11827,324.54751 284.25392,340.02714 C 287.36543,348.2244 278.44938,340.02365 276.78716,349.34409 C 261.1074,345.01365 284.394,361.38858 291.44401,355.73454 C 304.31623,353.71744 316.76454,348.26397 328.70334,343.48381 C 334.39884,340.24272 347.13557,335.32475 340.37124,325.70627 C 356.34647,332.72144 336.93121,347.70211 327.1534,350.31203 C 312.62733,352.00716 300.73476,362.09447 285.43088,361.08564 C 280.35058,360.73764 256.28791,363.66682 269.10375,368.69264 C 261.0711,364.63433 257.49844,373.98228 257.15925,382.60591 C 262.7018,388.87911 265.20698,402.82509 254.57093,405.10036 C 260.70823,408.92941 263.65662,429.88959 251.19328,421.073 z M 251.43806,402.34784 C 263.46164,394.91545 251.32458,375.56818 238.54205,380.9647 C 237.71962,389.76003 245.10903,384.66728 241.05619,395.34393 C 237.42365,406.31905 244.54111,402.09801 251.43806,402.34784 z M 223.64935,394.08432 C 225.15992,386.08818 217.3032,378.41132 219.0961,391.11198 C 218.29793,395.00624 221.81739,401.89491 223.64935,394.08432 z M 251.90765,379.77029 C 253.65275,372.73115 257.68061,364.55063 254.4496,363.33302 C 262.0016,365.00826 268.48008,356.55081 276.07146,355.55032 C 265.66872,350.55117 259.12878,338.80751 253.07146,353.08887 C 250.45998,358.85231 234.68124,362.81605 249.25482,361.69633 C 256.98885,367.0119 234.81198,359.07142 243.72609,368.39892 C 234.87215,366.49325 250.71197,375.40325 239.12146,370.76389 C 238.77098,370.96942 239.54614,374.47661 237.32146,374.33722 C 240.78238,377.77416 228.07199,376.47507 239.24024,378.22177 C 244.58431,377.62772 240.16774,374.2531 246.92329,379.94146 L 250.07146,380.48275 L 251.90765,379.77029 L 251.90765,379.77029 z M 220.63033,374.22849 C 230.7326,366.92408 208.56355,345.68603 214.64674,361.14789 C 219.71044,363.81134 212.28658,379.98724 220.63033,374.22849 z M 232.57146,359.64789 C 227.49922,355.70297 233.26093,363.15405 232.57146,359.64789 z M 242.67146,352.24789 C 251.41449,346.00331 238.7298,331.00303 238.52595,346.68566 C 235.40117,352.25348 231.28506,360.55544 242.67146,352.24789 z M 272.17358,340.36426 C 283.52405,334.53192 271.67121,315.38533 267.60724,332.13364 C 261.42633,339.64902 258.47954,346.42296 272.17358,340.36426 z M 302.63373,327.58939 C 310.50151,314.91121 297.14988,312.82822 294.31246,324.68045 C 283.42844,332.75762 299.26442,331.2111 302.63373,327.58939 z M 268.07147,406.64789 C 265.43697,402.98937 273.9651,409.29309 268.07147,406.64789 z M 267.72318,386.04807 C 263.18842,376.13759 277.28891,394.96983 267.72319,386.04807 L 267.72318,386.04807 z M 317.62146,379.72818 C 323.54001,375.39073 340.29839,374.44659 341.40302,378.16131 C 333.65822,374.2764 323.52031,382.47541 317.62146,379.72818 z M 271.07147,369.64789 C 272.56443,366.4877 273.32824,373.08237 271.07147,369.64789 z M 279.70056,363.43903 C 286.50273,360.0423 286.22557,366.79804 279.70056,363.43903 z M 459.13541,337.8215 C 464.03161,322.81711 467.97174,307.53192 472.20162,292.44376 C 474.0645,287.15399 477.64501,262.07246 476.49438,280.30116 C 474.229,295.8801 468.97555,310.93172 464.44961,325.9818 C 462.90587,329.55927 461.47308,335.76722 459.13541,337.8215 z M 344.82147,323.56363 C 338.47512,319.60462 339.31327,313.27992 345.46274,311.73139 C 333.65549,302.72913 361.77692,300.86487 350.36777,299.13578 C 350.27169,286.47095 366.44373,286.1232 370.03846,274.96737 C 382.45491,273.36961 387.27673,260.11586 400.2206,260.71307 C 405.66062,251.56872 416.01077,249.7142 421.51852,240.21587 C 430.35946,237.05476 431.65069,226.73028 442.19646,225.52657 C 449.16932,215.02449 465.9796,222.92649 469.53415,234.67312 C 472.75079,242.27788 478.90199,256.21052 472.59917,254.90229 C 471.68928,267.84803 474.24984,291.59112 462.6993,297.22476 C 461.70031,291.14338 453.72738,300.35394 456.74862,289.94282 C 456.89289,278.82883 473.26567,277.49821 467.87191,264.11631 C 468.54935,255.73508 466.87117,246.54034 458.32998,256.26371 C 447.40129,262.11602 438.01812,269.67983 427.75545,276.73772 C 409.60101,289.77366 389.11743,299.38992 370.3155,311.11704 C 361.16614,313.66797 356.96146,336.2592 344.82147,323.56363 z M 467.96344,287.38046 C 468.92648,281.35862 472.3444,270.34712 465.49138,280.28402 C 451.44828,284.88035 465.77214,301.69092 467.96344,287.38046 z M 369.11429,289.62497 C 381.69477,277.66072 355.14978,292.83796 369.11429,289.62497 z M 407.42624,284.07309 C 427.84726,273.23713 444.73887,256.83805 464.92725,245.70944 C 470.44526,247.89107 470.46399,271.33788 470.41723,253.23271 C 470.05234,246.29153 468.5742,230.65497 459.27821,241.09049 C 449.13304,247.32805 436.37462,253.81952 426.77092,262.99556 C 417.28765,270.35437 405.39931,277.2225 398.25614,286.19404 C 401.18168,287.50663 404.70299,285.15083 407.42624,284.07309 z M 385.09894,279.00159 C 398.5601,269.51569 378.06466,274.54443 378.09949,279.68638 C 380.25523,281.27794 383.13772,280.46966 385.09894,279.00159 z M 406.32147,268.63461 C 416.75696,256.54086 381.85162,273.51763 400.75768,272.11483 C 402.93636,271.56939 404.83028,270.26778 406.32147,268.63461 z M 422.32147,259.89352 C 430.38425,246.14993 401.55058,267.5204 418.52644,261.87769 L 420.03343,261.25785 L 422.32146,259.89352 L 422.32147,259.89352 z M 436.41986,248.39517 C 441.15463,235.67628 417.64432,256.11145 434.10882,250.50697 L 436.41987,248.39517 L 436.41986,248.39517 z M 448.4408,241.6208 C 453.60306,221.94816 428.10829,252.73433 448.44079,241.62081 L 448.4408,241.6208 z M 459.52667,238.0267 C 472.05991,229.23731 452.23342,221.83473 451.82146,233.78103 C 452.9909,237.70929 454.82361,240.22184 459.52667,238.0267 z M 323.72937,324.09695 C 327.14491,319.53531 325.15586,327.7285 323.72937,324.09695 z M 476.22934,263.64789 C 476.96614,258.70337 476.90549,268.56649 476.22934,263.64789 z" id="path2998"/>
      <path style="fill: rgb(47, 46, 42);" d="M 371.22446,458.78058 C 364.8428,451.61919 376.9349,461.14071 379.99069,454.49497 C 378.61471,457.41175 374.51571,463.25074 371.22446,458.78058 z M 379.07147,459.70691 C 381.50913,454.36759 380.15894,463.32412 379.07147,459.70691 z M 359.4057,454.76501 C 358.98233,447.32942 381.54543,443.28986 379.75538,436.93354 C 385.94002,435.60974 395.15301,435.27491 384.31032,440.3482 C 375.59698,442.7098 364.2211,456.75528 359.4057,454.76501 z M 398.0589,456.2002 C 407.68158,453.20388 393.28288,460.76841 398.0589,456.2002 z M 383.0871,452.83386 C 391.01273,443.59595 386.84147,455.30186 380.73444,457.01987 C 381.51866,455.62453 382.30288,454.2292 383.0871,452.83386 z M 395.57147,454.64789 C 404.75365,445.38636 395.47379,459.9071 395.57147,454.64789 z M 401.60397,450.89706 C 404.93435,441.67722 387.47222,455.89771 390.56157,447.15071 C 398.62912,443.22114 393.7478,441.29594 391.07068,438.92598 C 400.69699,436.01345 414.2486,454.03633 405.27513,451.69337 C 407.58609,442.94847 399.58276,458.2734 401.60397,450.89706 z M 356.12418,448.28659 C 354.80388,444.19153 346.30589,449.70687 352.66345,444.04482 C 355.13051,439.65074 370.12137,434.2846 355.39024,433.47078 C 339.69148,430.88913 322.83508,429.03561 307.57147,434.65128 C 317.60518,424.61307 331.72514,428.47532 344.09968,429.96921 C 350.13109,431.65342 374.11311,433.52701 356.41644,429.35483 C 336.39635,425.7269 316.07748,424.23602 295.89336,422.06854 C 288.95048,421.93517 285.12042,402.70974 289.8826,415.59604 C 300.47,425.26661 317.84762,417.48563 331.17754,422.11165 C 345.10829,424.08202 360.14588,425.17532 372.25742,432.90785 C 381.40975,439.99712 356.53805,434.1828 355.58165,444.74348 C 356.51491,446.3499 359.25898,453.50504 356.12418,448.28659 z M 301.07147,440.64789 C 314.60466,437.06182 307.31068,443.65592 301.07147,440.64789 z M 326.34229,440.04373 C 329.59986,438.94167 329.03165,441.90063 326.34229,440.04373 z M 400.9032,430.67825 C 407.87521,426.62752 406.34381,417.66831 413.29571,413.1019 C 405.07935,417.44696 395.17517,432.1447 389.73748,432.39789 C 391.88693,423.28144 390.10475,426.35657 392.28466,427.87826 C 401.42714,420.31607 412.80038,414.03429 418.3947,403.30981 C 407.69492,400.27899 393.3285,399.69433 381.87104,397.64588 C 368.14214,400.29888 354.52178,397.35846 340.8725,401.97117 C 331.86041,403.39235 316.67788,403.51953 311.3299,401.938 C 326.86303,401.51538 342.30366,399.43275 356.88476,393.84781 C 367.43228,394.128 375.84513,386.81265 386.57244,384.55874 C 402.27827,384.98416 417.4557,378.59103 433.11441,379.63011 C 445.07627,375.97178 448.62756,356.75017 456.00897,346.39789 C 464.51261,331.9705 453.214,357.6718 450.72337,361.92323 C 439.04069,385.32521 427.78018,410.4119 407.61551,427.84845 C 404.73628,431.57317 389.71734,437.99679 400.90321,430.67824 L 400.9032,430.67825 z M 265.07147,424.23123 C 272.73645,418.40796 255.61453,398.58067 270.53617,412.23438 C 274.19393,415.52792 270.20609,429.60911 265.07147,424.23123 z M 252.60271,421.0871 C 249.91651,411.81627 244.22322,397.81757 232.21835,408.18455 C 217.1493,416.21182 208.81754,395.01617 213.68673,383.74425 C 212.30301,378.16892 193.14029,377.57574 205.9987,371.68893 C 215.67997,357.89845 196.03488,345.75452 183.37019,347.52558 C 171.63306,348.73141 160.61259,330.25972 178.82097,334.10572 C 192.49542,335.92602 202.37771,346.85177 215.09252,350.55009 C 226.77518,353.98925 234.39439,342.49386 233.39083,334.14789 C 243.35672,333.61746 256.06191,336.97484 262.03562,326.48543 C 258.74913,304.22782 286.8164,332.72987 289.83063,312.79975 C 297.18231,302.9657 313.71858,319.1289 324.78072,311.99474 C 341.54264,311.74586 339.96278,338.97012 324.28365,332.87749 C 339.82574,334.96353 337.1442,309.97775 324.21816,320.80097 C 321.97293,331.54069 312.16775,322.80405 309.76522,323.00566 C 315.73191,339.13854 290.07784,337.90647 283.12831,328.02059 C 273.67092,322.44862 287.56582,334.30291 282.02061,338.63644 C 277.19018,350.9395 261.32579,344.46429 252.0653,340.73855 C 241.12506,337.52891 262.1214,351.76995 248.5945,351.30163 C 254.42671,361.69056 231.56903,357.0301 225.33905,356.99192 C 224.6976,359.5596 229.22204,365.96878 233.56472,366.65879 C 225.20581,366.75131 240.59213,370.52758 229.37827,369.84848 C 234.12946,373.32393 223.97222,380.25614 218.99163,379.15343 C 226.267,383.60534 237.08985,383.17906 229.3722,386.43764 C 241.36492,388.64977 227.90003,391.73871 233.43057,396.94164 C 235.31747,404.39253 246.70625,402.80903 251.59789,407.6518 C 249.97919,410.78228 260.4243,427.72809 252.60271,421.0871 z M 223.79025,395.50299 C 227.62017,388.02504 216.28974,376.32763 218.68674,390.62692 C 218.85954,394.27197 219.36491,403.29963 223.79025,395.50299 z M 221.82664,372.89789 C 226.31006,366.41125 217.4203,356.44505 222.08967,355.97285 C 215.47452,353.8038 208.82727,350.73093 214.13896,361.40494 C 219.17576,364.66155 211.90873,382.70909 221.82664,372.89789 z M 243.14838,352.72482 C 252.41028,346.39208 236.97281,330.03247 238.63208,346.16735 C 235.10744,351.20253 231.45315,359.55584 241.82058,353.83581 L 243.14838,352.72481 L 243.14838,352.72482 z M 272.09149,341.13754 C 284.32018,336.37055 271.7036,313.18592 267.46253,331.73829 C 264.30815,338.14923 253.07476,346.27036 272.09149,341.13754 z M 298.46643,330.68781 C 311.04192,328.68834 302.52622,304.2483 296.26903,321.35252 C 291.85615,325.96061 285.28443,331.60022 296.45214,331.33889 L 298.46643,330.68782 L 298.46643,330.68781 z M 395.15042,406.23123 C 395.94405,401.15619 396.11181,410.29377 395.15042,406.23123 z M 297.07147,406.25488 C 301.32956,402.62855 299.4892,408.06678 297.07147,406.25488 z M 254.10326,402.89789 C 261.86748,389.37107 245.30155,380.62657 255.54288,368.18028 C 260.65791,361.26772 275.39341,354.53628 278.20498,355.90952 C 292.37184,359.1447 304.95573,351.89567 317.88489,348.46401 C 327.97164,344.42474 344.71577,339.71357 342.32683,326.33092 C 354.70661,336.9284 333.57922,347.65474 324.48446,351.09253 C 309.45326,352.49887 296.80074,363.0564 280.64781,360.58747 C 267.76768,359.51228 255.88701,369.65518 256.21665,382.11223 C 261.96499,386.98556 264.56837,407.11177 254.10326,402.89789 z M 247.57146,380.64789 C 248.20665,377.33996 251.34502,384.07523 247.57146,380.64789 z M 318.57147,379.64789 C 323.19759,376.03533 320.60236,383.12185 318.57147,379.64789 z M 230.82146,373.9856 C 235.83532,373.0912 232.39807,375.70248 230.82146,373.9856 z M 432.01843,354.55978 C 421.16126,343.91745 410.05457,356.28475 397.79052,354.65797 C 388.88773,359.06811 386.14006,353.32619 387.82146,349.64554 C 392.89147,337.62703 413.94228,346.52298 414.21126,331.30357 C 425.04147,334.22098 431.00113,314.14605 445.50871,320.29909 C 450.35391,322.89694 461.72104,314.40197 456.23171,325.76312 C 452.36941,343.918 425.20469,317.55185 423.22013,338.13433 C 431.05791,344.82529 446.77588,337.86967 450.97178,348.89789 C 454.8181,346.27771 447.69308,361.24796 449.16766,351.64789 C 449.19156,360.34436 436.53749,357.96645 432.01843,354.55978 z M 390.49704,354.31458 C 385.09456,348.16065 390.13891,359.95158 390.49704,354.31458 z M 437.07147,322.64789 C 434.58343,318.75475 434.58345,326.54103 437.07147,322.64789 z M 456.07147,320.58887 C 454.03839,318.39425 453.80742,323.93512 456.07147,320.58887 z M 345.38556,323.63589 C 337.29844,319.33517 341.51475,314.48936 345.84466,311.7929 C 336.94484,302.07463 356.27563,303.57711 353.49365,298.22649 C 344.81565,299.54316 357.3342,284.02761 363.44878,284.61405 C 367.57377,270.66325 383.45912,275.93284 389.39054,262.88514 C 401.82265,264.32745 404.98153,251.29403 415.82381,248.19763 C 418.08399,239.16663 430.30544,240.66477 431.215,230.55575 C 441.24093,228.40094 450.71718,214.66702 461.30947,224.53473 C 466.65305,227.62768 443.81364,227.89654 453.46708,237.89789 C 464.54438,246.85727 462.11328,217.15809 468.46896,233.43511 C 472.24685,238.09663 478.28257,261.73706 471.00879,244.57325 C 467.43863,237.83164 465.42312,232.80374 458.35538,241.05257 C 445.40412,247.60935 433.4312,256.42834 422.26337,266.07407 C 413.98403,272.37188 399.89096,277.53707 398.37764,287.91893 C 412.75682,283.98291 424.13078,273.18689 436.59085,265.4002 C 446.04216,260.17956 457.80006,244.60972 467.57146,249.14789 C 458.41489,256.04069 446.34941,261.7366 436.99001,269.60191 C 417.71564,283.92952 396.80898,295.8183 375.64315,307.02132 C 362.3804,308.79323 360.43581,333.92722 345.38556,323.63589 z M 370.82147,288.32458 C 379.51272,275.8641 354.79511,295.01749 369.29028,289.56345 L 370.82146,288.32457 L 370.82147,288.32458 z M 380.49689,280.64789 C 388.41866,281.46762 393.98698,266.23787 383.07146,274.7668 C 377.94152,275.04397 372.53404,287.95264 380.49689,280.64789 z M 405.72708,270.09698 C 419.31447,256.08513 378.92509,272.19354 400.11199,272.48851 L 402.98617,271.69232 L 405.72707,270.097 L 405.72708,270.09698 z M 418.35358,262.28592 C 427.88883,259.93935 424.11101,248.53539 416.79825,257.55175 C 411.83102,261.06926 409.17963,266.11144 418.35358,262.28592 z M 429.07147,252.60406 C 438.0697,253.87259 440.64919,236.28141 430.12338,246.52245 C 427.65509,246.47013 425.71414,256.66214 429.07147,252.60406 z M 448.82147,242.35864 C 459.10106,226.52082 426.7274,240.22528 444.0585,245.08857 L 446.2665,244.30944 L 448.82146,242.35864 L 448.82147,242.35864 z M 467.21204,314.64789 C 468.17863,306.64556 470.03843,313.40043 467.21204,314.64789 z M 469.15042,307.23123 C 469.94405,302.15629 470.11181,311.29372 469.15042,307.23123 z M 470.10208,300.14789 C 471.16871,293.55769 473.45529,299.60804 470.10208,300.14789 z M 456.14755,293.89789 C 458.61805,273.37653 461.61802,300.95275 456.14755,293.89789 z M 473.67072,289.64789 C 474.5789,282.74198 476.89548,275.08537 475.48583,286.14789 C 475.0418,288.34088 471.77817,297.56498 473.67072,289.64789 z M 469.28946,284.64789 C 470.08353,272.86782 472.28301,277.55063 469.57164,286.20856 C 469.01319,288.66475 469.38488,285.13434 469.28946,284.64789 z M 476.30347,275.64789 C 476.90243,268.50502 476.90241,282.79078 476.30347,275.64789 z M 468.15042,273.23123 C 468.94405,268.15629 469.11181,277.29372 468.15042,273.23123 z M 468.15042,256.23123 C 468.94405,251.15629 469.11181,260.29372 468.15042,256.23123 z M 471.22934,254.64789 C 471.96614,249.70337 471.90549,259.56649 471.22934,254.64789 z" id="path2996"/>
    </g>
  </g>
</svg>