<?xml version="1.0" encoding="UTF-8" standalone="no"?>
<!-- Created with Inkscape (http://www.inkscape.org/) -->
<svg
   xmlns:dc="http://purl.org/dc/elements/1.1/"
   xmlns:cc="http://creativecommons.org/ns#"
   xmlns:rdf="http://www.w3.org/1999/02/22-rdf-syntax-ns#"
   xmlns:svg="http://www.w3.org/2000/svg"
   xmlns="http://www.w3.org/2000/svg"
   xmlns:xlink="http://www.w3.org/1999/xlink"
   xmlns:sodipodi="http://sodipodi.sourceforge.net/DTD/sodipodi-0.dtd"
   xmlns:inkscape="http://www.inkscape.org/namespaces/inkscape"
   width="499.33749"
   height="499.36874"
   id="svg2"
   sodipodi:version="0.32"
   inkscape:version="0.46"
   sodipodi:docname="Cirkelzaag.svg"
   inkscape:output_extension="org.inkscape.output.svg.inkscape"
   version="1.0">
  <defs
     id="defs4">
    <linearGradient
       id="linearGradient3800">
      <stop
         style="stop-color:#ececec;stop-opacity:1;"
         offset="0"
         id="stop3802" />
      <stop
         style="stop-color:#b9b946;stop-opacity:0;"
         offset="1"
         id="stop3804" />
    </linearGradient>
    <linearGradient
       id="linearGradient3787">
      <stop
         style="stop-color:#b0b0b0;stop-opacity:1;"
         offset="0"
         id="stop3789" />
      <stop
         style="stop-color:#e8e8e8;stop-opacity:1;"
         offset="1"
         id="stop3791" />
    </linearGradient>
    <inkscape:path-effect
       effect="gears"
       id="path-effect2399"
       teeth="36"
       phi="5" />
    <inkscape:path-effect
       effect="gears"
       id="path-effect2393"
       teeth="35" />
    <inkscape:perspective
       sodipodi:type="inkscape:persp3d"
       inkscape:vp_x="0 : 526.18109 : 1"
       inkscape:vp_y="0 : 1000 : 0"
       inkscape:vp_z="744.09448 : 526.18109 : 1"
       inkscape:persp3d-origin="372.04724 : 350.78739 : 1"
       id="perspective10" />
    <linearGradient
       inkscape:collect="always"
       xlink:href="#linearGradient3787"
       id="linearGradient3793"
       x1="199.32672"
       y1="451.81888"
       x2="511.81143"
       y2="106.73085"
       gradientUnits="userSpaceOnUse" />
    <radialGradient
       inkscape:collect="always"
       xlink:href="#linearGradient3800"
       id="radialGradient3808"
       cx="373.25641"
       cy="288.67181"
       fx="373.25641"
       fy="288.67181"
       r="113.5625"
       gradientTransform="matrix(1.0300718,-1.650706,0.2597183,0.1620691,-64.448827,817.58239)"
       gradientUnits="userSpaceOnUse" />
  </defs>
  <sodipodi:namedview
     id="base"
     pagecolor="#ffffff"
     bordercolor="#666666"
     borderopacity="1.0"
     gridtolerance="10000"
     guidetolerance="10"
     objecttolerance="10"
     inkscape:pageopacity="0.0"
     inkscape:pageshadow="2"
     inkscape:zoom="1.137436"
     inkscape:cx="248.78958"
     inkscape:cy="249.68437"
     inkscape:document-units="px"
     inkscape:current-layer="layer1"
     showgrid="false"
     inkscape:window-width="1272"
     inkscape:window-height="783"
     inkscape:window-x="0"
     inkscape:window-y="0"
     showguides="true"
     inkscape:guide-bbox="true" />
  <metadata
     id="metadata7">
    <rdf:RDF>
      <cc:Work
         rdf:about="">
        <dc:format>image/svg+xml</dc:format>
        <dc:type
           rdf:resource="http://purl.org/dc/dcmitype/StillImage" />
        <dc:creator>
          <cc:Agent>
            <dc:title>Klaas van Gend</dc:title>
          </cc:Agent>
        </dc:creator>
        <cc:license
           rdf:resource="http://creativecommons.org/licenses/publicdomain/" />
      </cc:Work>
      <cc:License
         rdf:about="http://creativecommons.org/licenses/publicdomain/">
        <cc:permits
           rdf:resource="http://creativecommons.org/ns#Reproduction" />
        <cc:permits
           rdf:resource="http://creativecommons.org/ns#Distribution" />
        <cc:permits
           rdf:resource="http://creativecommons.org/ns#DerivativeWorks" />
      </cc:License>
    </rdf:RDF>
  </metadata>
  <g
     inkscape:label="Layer 1"
     inkscape:groupmode="layer"
     id="layer1"
     transform="translate(-115.14375,-38.39375)">
    <path
       style="fill:url(#linearGradient3793);fill-opacity:1;stroke:#000000;stroke-width:0.40000001;stroke-linecap:butt;stroke-linejoin:miter;stroke-miterlimit:4;stroke-dasharray:none;stroke-dashoffset:0;stroke-opacity:1"
       d="M 353.28125,38.59375 L 348.59375,52.65625 L 310.125,44.40625 L 307.9375,59.0625 L 268.625,57.625 L 269.03125,72.03125 C 268.60688,72.213392 268.20434,72.409188 267.78125,72.59375 L 230.09375,77.84375 L 232.875,91.5 C 231.99615,92.07658 231.12061,92.662019 230.25,93.25 L 195.625,104.40625 L 200.5625,116.96875 C 199.41925,118.0441 198.30908,119.15222 197.1875,120.25 L 166.3125,136.59375 L 173.09375,147.71875 C 171.85983,149.3705 170.65989,151.03395 169.46875,152.71875 L 143,173.34375 L 151.375,182.8125 C 150.24072,185.06747 149.18815,187.36057 148.125,189.65625 L 126.46875,213.625 L 136.15625,221.3125 C 135.35569,224.00745 134.58057,226.70317 133.875,229.4375 L 117.125,256.15625 L 127.9375,261.96875 C 127.61327,264.8734 127.31108,267.78325 127.09375,270.71875 L 115.34375,299.65625 L 126.96875,303.5 C 127.15819,306.47083 127.35738,309.43505 127.65625,312.375 C 127.65724,312.38476 127.65525,312.39649 127.65625,312.40625 L 121.15625,342.78125 L 133.21875,344.59375 C 133.92715,347.47655 134.68633,350.31621 135.5,353.15625 L 134.34375,384.25 L 146.6875,383.90625 C 147.81318,386.43256 149.00753,388.95904 150.21875,391.4375 L 154.5625,422.84375 L 166.9375,420.3125 C 168.29077,422.30467 169.71283,424.23962 171.125,426.1875 L 181.15625,457.28125 L 193.28125,452.53125 C 194.66775,453.95306 196.04695,455.3635 197.46875,456.75 L 213.34375,486.625 L 224.78125,479.59375 C 226.0487,480.50299 227.30769,481.39674 228.59375,482.28125 L 250.09375,509.90625 L 260.46875,500.75 C 261.44686,501.2173 262.42077,501.63962 263.40625,502.09375 L 290.34375,526.46875 L 299.3125,515.21875 C 299.79296,515.35067 300.26833,515.4648 300.75,515.59375 L 332.875,535.78125 L 339.96875,522.71875 L 376.375,537.5625 L 381.0625,523.5 L 419.53125,531.75 L 421.71875,517.09375 L 461,518.53125 L 460.59375,503.75 L 499.5625,498.34375 L 496.59375,483.84375 L 534.03125,471.78125 L 528.59375,458 L 563.34375,439.59375 L 555.59375,426.9375 L 586.625,402.8125 L 576.8125,391.75 L 603.21875,362.53125 L 591.59375,353.3125 L 612.53125,320 L 599.5,312.96875 L 614.28125,276.53125 L 600.21875,271.84375 L 608.46875,233.40625 L 593.84375,231.21875 L 595.28125,191.90625 L 580.46875,192.3125 L 575.09375,153.34375 L 560.59375,156.3125 L 548.5,118.90625 L 534.75,124.3125 L 516.3125,89.5625 L 503.71875,97.3125 L 479.53125,66.25 L 468.46875,76.0625 L 439.28125,49.71875 L 430.09375,61.3125 L 396.75,40.40625 L 389.71875,53.4375 L 353.28125,38.59375 z M 364.8125,246.53125 C 387.75457,246.53125 406.375,265.15167 406.375,288.09375 C 406.37499,311.03581 387.75458,329.625 364.8125,329.625 C 341.87041,329.62501 323.25,311.03583 323.25,288.09375 C 323.24999,265.15166 341.87042,246.53125 364.8125,246.53125 z M 308.8125,279.6875 C 313.44463,279.68749 317.21875,283.46164 317.21875,288.09375 C 317.21876,292.72585 313.44461,296.46875 308.8125,296.46875 C 304.1804,296.46874 300.4375,292.72586 300.4375,288.09375 C 300.43749,283.46163 304.18039,279.6875 308.8125,279.6875 z M 420.8125,279.6875 C 425.44463,279.68751 429.21875,283.46164 429.21875,288.09375 C 429.21876,292.72587 425.44461,296.46875 420.8125,296.46875 C 416.1804,296.46876 412.4375,292.72586 412.4375,288.09375 C 412.43749,283.46165 416.18039,279.6875 420.8125,279.6875 z"
       id="path2383" />
    <path
       style="opacity:1;fill:url(#radialGradient3808);fill-opacity:1;stroke:none;stroke-width:5;stroke-linecap:butt;stroke-linejoin:miter;stroke-miterlimit:4;stroke-dasharray:none;stroke-dashoffset:0;stroke-opacity:0.8755556"
       d="M 362.2487,235.05388 L 421.23708,271.86375 C 421.3926,271.61485 421.54479,271.37063 421.7003,271.12142 C 487.81533,165.17106 528.28039,70.942186 511.99618,60.780551 C 495.71198,50.618903 428.82695,128.36121 362.71193,234.31156 C 362.55641,234.56077 362.40393,234.80481 362.2487,235.05388 z"
       id="path3795"
       inkscape:transform-center-x="-47.180701"
       inkscape:transform-center-y="-87.583108" />
    <path
       style="opacity:1;fill:#000000;fill-opacity:0.8745098;stroke:#000000;stroke-width:1.20000005;stroke-linecap:butt;stroke-linejoin:miter;stroke-miterlimit:4;stroke-dasharray:none;stroke-dashoffset:0;stroke-opacity:1"
       d="M 364.8125,215.8125 C 324.92487,215.8125 292.56251,248.20613 292.5625,288.09375 C 292.5625,327.98138 324.92486,360.34374 364.8125,360.34375 C 404.70013,360.34375 437.06249,327.9814 437.0625,288.09375 C 437.0625,248.20612 404.70012,215.81251 364.8125,215.8125 z M 364.8125,246.53125 C 387.75457,246.53125 406.375,265.15167 406.375,288.09375 C 406.37499,311.03581 387.75458,329.625 364.8125,329.625 C 341.87041,329.62501 323.25,311.03583 323.25,288.09375 C 323.24999,265.15166 341.87042,246.53125 364.8125,246.53125 z M 308.8125,279.6875 C 313.44463,279.68749 317.21875,283.46164 317.21875,288.09375 C 317.21876,292.72585 313.44461,296.46875 308.8125,296.46875 C 304.1804,296.46874 300.4375,292.72586 300.4375,288.09375 C 300.43749,283.46163 304.18039,279.6875 308.8125,279.6875 z M 420.8125,279.6875 C 425.44463,279.68751 429.21875,283.46164 429.21875,288.09375 C 429.21876,292.72587 425.44461,296.46875 420.8125,296.46875 C 416.1804,296.46876 412.4375,292.72586 412.4375,288.09375 C 412.43749,283.46165 416.18039,279.6875 420.8125,279.6875 z"
       id="path2858" />
    <path
       style="opacity:1;fill:#ffff00;fill-opacity:0.8755556;stroke:none;stroke-width:1.80005252;stroke-linecap:butt;stroke-linejoin:miter;stroke-miterlimit:4;stroke-dasharray:none;stroke-dashoffset:0;stroke-opacity:1"
       d="M 364.8125,58.96875 C 243.90563,58.96875 144.78973,152.80278 136.3125,271.5625 L 294.5,271.5625 C 301.9806,239.62956 330.61289,215.8125 364.8125,215.8125 C 399.0121,215.81251 427.6444,239.62955 435.125,271.5625 L 593.3125,271.5625 C 584.83527,152.80277 485.71937,58.968748 364.8125,58.96875 z"
       id="path2997" />
    <path
       style="font-size:86.08522034px;font-style:normal;font-variant:normal;font-weight:bold;font-stretch:normal;text-align:start;line-height:125%;writing-mode:lr-tb;text-anchor:start;fill:#000000;fill-opacity:0.8755556;stroke:none;stroke-width:1px;stroke-linecap:butt;stroke-linejoin:miter;stroke-opacity:1;font-family:Bitstream Vera Sans;-inkscape-font-specification:Bitstream Vera Sans Bold"
       d="M 329.4375,172.5 C 323.00447,172.50008 318.08719,174.45133 314.65625,178.40625 C 311.2253,182.36131 309.49999,188.02536 309.5,195.375 C 309.49999,201.24162 310.73341,205.91442 313.1875,209.375 C 315.66539,212.83565 319.56923,215.35553 324.90625,216.9375 L 330.25,218.5625 C 331.32425,218.89031 332.2578,219.23697 333.09375,219.59375 C 338.36318,217.14713 343.93901,215.2749 349.78125,214.09375 C 349.25001,212.79982 348.60918,211.62234 347.84375,210.59375 C 345.34198,207.23205 341.15138,204.7417 335.21875,203.09375 L 329.34375,201.46875 C 326.55609,200.6778 324.63464,199.71267 323.5625,198.625 C 322.51414,197.50447 321.96872,195.97754 321.96875,194 C 321.96873,191.36339 322.77121,189.40872 324.34375,188.15625 C 325.91624,186.9039 328.33699,186.28131 331.625,186.28125 C 334.10287,186.28131 336.74357,186.73347 339.53125,187.65625 C 342.31885,188.57914 345.16312,189.9686 348.09375,191.78125 L 348.09375,176.15625 C 344.7819,174.93687 341.59733,174.03082 338.5,173.4375 C 335.40259,172.81137 332.36807,172.50008 329.4375,172.5 z M 174.75,173.8125 L 174.75,247.625 L 189.25,247.625 C 197.25549,247.625 203.2472,246.83199 207.25,245.25 C 211.25272,243.63505 214.70334,240.91692 217.5625,237.09375 C 220.06417,233.76498 221.90982,229.94425 223.125,225.59375 C 224.34007,221.21033 224.93744,216.22623 224.9375,210.65625 C 224.93744,205.15226 224.34007,200.22554 223.125,195.875 C 221.90982,191.52456 220.06417,187.6726 217.5625,184.34375 C 214.72716,180.52066 211.32265,177.83207 207.34375,176.25 C 203.38861,174.63512 197.35079,173.81258 189.25,173.8125 L 174.75,173.8125 z M 235.5,173.8125 L 235.5,247.625 L 273.40625,247.625 L 273.40625,233.25 L 249.25,233.25 L 249.25,216.34375 L 271.21875,216.34375 L 271.21875,201.9375 L 249.25,201.9375 L 249.25,188.21875 L 272.625,188.21875 L 272.625,173.8125 L 235.5,173.8125 z M 357.375,173.8125 L 357.375,188.21875 L 375.09375,188.21875 L 375.09375,213.3125 C 379.83528,213.95908 384.42416,215.0145 388.84375,216.5 L 388.84375,188.21875 L 406.53125,188.21875 L 406.53125,173.8125 L 357.375,173.8125 z M 413.625,173.8125 L 413.625,230.53125 C 419.40849,235.44241 424.44141,241.19915 428.53125,247.625 L 451.53125,247.625 L 451.53125,233.25 L 427.375,233.25 L 427.375,216.34375 L 449.34375,216.34375 L 449.34375,201.9375 L 427.375,201.9375 L 427.375,188.21875 L 450.75,188.21875 L 450.75,173.8125 L 413.625,173.8125 z M 457.28125,173.8125 L 477.0625,247.625 L 493.46875,247.625 L 513.21875,173.8125 L 499.40625,173.8125 L 485.28125,228.3125 L 471.125,173.8125 L 457.28125,173.8125 z M 520.25,173.8125 L 520.25,247.625 L 558.1875,247.625 L 558.1875,233.25 L 534.03125,233.25 L 534.03125,216.34375 L 556,216.34375 L 556,201.9375 L 534.03125,201.9375 L 534.03125,188.21875 L 557.40625,188.21875 L 557.40625,173.8125 L 520.25,173.8125 z M 188.5,188.21875 L 193.4375,188.21875 C 199.08422,188.21881 203.3893,190.11439 206.34375,193.9375 C 209.29813,197.76071 210.74996,203.33956 210.75,210.65625 C 210.74996,218.00597 209.25945,223.61266 206.28125,227.46875 C 203.3268,231.32488 199.06039,233.25001 193.4375,233.25 L 188.5,233.25 L 188.5,188.21875 z M 309.96875,227.71875 L 309.96875,236.25 C 311.65642,234.46482 313.42803,232.77027 315.28125,231.15625 C 313.5454,230.17239 311.77129,229.04394 309.96875,227.71875 z"
       id="text2993" />
  </g>
</svg>
