<?xml version="1.0" encoding="UTF-8"?>
<svg xmlns:rdf="http://www.w3.org/1999/02/22-rdf-syntax-ns#" xmlns="http://www.w3.org/2000/svg" xmlns:cc="http://creativecommons.org/ns#" xmlns:xlink="http://www.w3.org/1999/xlink" xmlns:dc="http://purl.org/dc/elements/1.1/" xmlns:svg="http://www.w3.org/2000/svg" id="svg2928" viewBox="0 0 4179 3329" version="1.1">
  <defs id="defs2932">
    <filter id="filter4171" y="-2.4546" width="2.2413" height="5.9093" x="-.62066">
      <feGaussianBlur id="feGaussianBlur4173" stdDeviation="2.4929408"/>
    </filter>
    <radialGradient id="radialGradient4233" gradientUnits="userSpaceOnUse" cy="146.98" cx="2460.1" gradientTransform="matrix(-.024447 -.25750 1.0845 -.10296 2315.8 786.74)" r="181.64">
      <stop id="stop4215" stop-color="#fff" offset="0"/>
      <stop id="stop4207" stop-color="#808080" offset="1"/>
    </radialGradient>
    <radialGradient id="radialGradient4233-2" xlink:href="#linearGradient4203-9" gradientUnits="userSpaceOnUse" cy="226.12" cx="1229.1" gradientTransform="matrix(.26049 -.48682 .89522 .47902 1989.2 907.45)" r="181.64"/>
    <linearGradient id="linearGradient4203-9">
      <stop id="stop4215-2" stop-color="#fff" offset="0"/>
      <stop id="stop4207-8" stop-color="#808080" offset="1"/>
    </linearGradient>
    <radialGradient id="radialGradient4296" xlink:href="#linearGradient4203-9" gradientUnits="userSpaceOnUse" cy="609.73" cx="1692.3" gradientTransform="matrix(.13115 .25490 -.73984 .38065 1829.2 -264.04)" r="239.15"/>
    <radialGradient id="radialGradient4304" xlink:href="#linearGradient4203-9" gradientUnits="userSpaceOnUse" cy="99.169" cx="1756.6" gradientTransform="matrix(.64417 .12576 -.035432 .18149 618.09 -113.88)" r="168.39"/>
  </defs>
  <path id="path2976" style="color:#000000" d="m1075 1269.8c-18.199 14.011-23.574 64.11 7.2577 71.468 32.613 25.721 71.194 28.85 104.88 17.914 11.768-16.717-22.999-35.42-31.628-48.148-19.613-15.828-55.004-43.73-80.507-41.233z" stroke="#000" stroke-width="8.83" fill="#fc0"/>
  <path id="path3913-4" d="m713.45 1521.5a10.579 10.579 0 1 1 -0.25461 -0.6217" style="color:#000000" fill="#d40000" transform="translate(410.84 -230.98)"/>
  <path id="path3913-50" d="m713.45 1521.5a10.579 10.579 0 1 1 -0.25461 -0.6217" style="color:#000000" fill="#d40000" transform="translate(375.57 -243.33)"/>
  <path id="path3913-689" d="m713.45 1521.5a10.579 10.579 0 1 1 -0.25461 -0.6217" style="color:#000000" fill="#d40000" transform="translate(431.99 -171.03)"/>
  <path id="path2980" d="m1053.2 1347.8c-23.991 9.7717 3.7471 41.388 20.26 44.885 31.835 6.5655 25.897-34.872 3.117-39.118-7.0863-3.7708-15.236-6.5165-23.378-5.7664z" style="color:#000000" fill="#fc0"/>
  <path id="path2978" d="m1009 1372.8c-50.718-20.387-44.781 33.944-12.245 39.412 16.629 8.0665 93.827 51.366 79.759 5.9896 5.7168-11.639-47.821-40.986-67.514-45.401z" style="color:#000000" fill="#fc0"/>
  <path id="path3913-3" d="m713.45 1521.5a10.579 10.579 0 1 1 -0.25461 -0.6217" style="color:#000000" fill="#d40000" transform="translate(329.73 -128.72)"/>
  <path id="path3913-7" d="m713.45 1521.5a10.579 10.579 0 1 1 -0.25461 -0.6217" style="color:#000000" fill="#d40000" transform="translate(354.41 -107.56)"/>
  <path id="path3913-71" d="m713.45 1521.5a10.579 10.579 0 1 1 -0.25461 -0.6217" style="color:#000000" fill="#d40000" transform="translate(349.12 -160.46)"/>
  <path id="path3913-6" d="m713.45 1521.5a10.579 10.579 0 1 1 -0.25461 -0.6217" style="color:#000000" fill="#d40000" transform="translate(396.73 -181.61)"/>
  <path id="path3913-68" d="m713.45 1521.5a10.579 10.579 0 1 1 -0.25461 -0.6217" style="color:#000000" fill="#d40000" transform="translate(331.49 -98.742)"/>
  <path id="path3913-52" d="m713.45 1521.5a10.579 10.579 0 1 1 -0.25461 -0.6217" style="color:#000000" fill="#d40000" transform="translate(301.51 -119.9)"/>
  <path id="path3913-0" d="m713.45 1521.5a10.579 10.579 0 1 1 -0.25461 -0.6217" style="color:#000000" fill="#d40000" transform="translate(282.12 -144.59)"/>
  <path id="path3913-07" d="m713.45 1521.5a10.579 10.579 0 1 1 -0.25461 -0.6217" style="color:#000000" fill="#d40000" transform="translate(306.8 -146.35)"/>
  <path id="path2940" d="m2752.5 3120.4c-33.88-5.2549-68.221-15.662-101.4-25.739-126.88-29.676-336.04-104.57-384.89-125.84-83.062-26.818-287.01-123.98-368.23-160.3-68.897-28.682-131.56-70.907-182.43-125.48-18.171-35.581-11.573-99.418-11.236-137.5-4.3767-77.511 25.844-153.65 45.86-227.76 23.595-115.27 122.62-222.64 137.14-323.97-100.82-24.198-233.3-46.215-323.86-101.27-124.48-69.166-206.32-165.75-284.11-283.42-21.546-26.655-43.73-74.584-77.49-89.074-17.91-17.025-37.457-32.536-54.937-50.31-8.6345-10.264-39.376-37.805-41.931-49.94 0-0.9625-0.4424-1.75-0.9787-1.75-0.5362 0-0.7302 1.2375-0.431 2.75-0.8 14.905-8.1554 29.244-21.768 35.999-24.685 10.382-40.227 3.0183-60.326-11.27-8.1801-5.5937-17.96-5.9557-26.794-10.655-40.298-22.016-44.942-42.981-29.706-83.953-30.089-7.2607-61.179-4.0605-91.678-6.9031-64.21-14.1-130.69-51.5-186.9-85.9-52.79-31.3-101.97-60-147.47-102-36.38-30.8-49.21-68.3-89.03-95.1 0-0.4749-0.90894-0.8634-2.0199-0.8634-33.428-10.061-63.556-28.719-93.48-46.493-27.969-14.791-55.764-29.949-84-44.233-33.641-23.756-95.633-58.187-101.08-105.07 4.957-24.594 41.466-54.221 60.682-68.064 65.253-42.292 135.96-57.928 211.9-67.513 21.513-1.9822 65.629-1.8685 81.574-11.484 3.0805-17.987 4.4974-22.228 25.603-76.64 24.398-61.461 127.52-145.22 176.8-162.49 159.1-55.744 173.14-34.459 316.24-7.5972 94.927 17.82 107.9 66.396 201.38 124.98 84.892 86.797 125.73 127.77 204.6 190.85 39.781 29.781 83.095 45.884 129.31 64.373 45.273 15.447 101.52 22.582 147.5 8.9209 33.417-10.034 65.525-23.747 99-33.629 43.92-5.1795 116.85-26.967 160.64-17.331 13.682-91.538 6.4403-201.98 9.4939-296.46 0.8162-25.254 0.7403-83.043-0.6729-111.62-0.904-18.28-1.1933-106.86-0.3772-115.5 1.1043-11.686 5.4447-39.12-0.9974-53.457-7.0914-15.783-120.06 98.746-156.05 119.27-57.148 32.592-128.09 127.17-180.17 139.13-84.888 19.495-192.46 30.419-161.92-67.395 32.4-103.7 61.1-108.99 142.1-135.79 89.73-29.671 180.82-59.822 274.55-76.685 142.71-25.676-71.965-28.477-118.15-29.166-119.74-1.7867-160.29-52.549-137.54-86.427 24.659-36.718 88.174-35.029 152.88-10.3 72.459 27.694 136.35 32.381 202.95 47.807 26.797 6.2072 56.806 14.853 81.006 12.424 13.699-1.3752 48.984-12.141 70.437-16.482 46.264-9.3615 90.437-7.2739 135.14-23.16 23.616-8.3923 65.416-28.913 91.411-29.554 56.083-1.3814 63.514-2.5465 94.616 13.821 16.416 8.6391 16.912 26.526 16.512 39.666-2.0187 66.311-122.61 61.195-181.02 61.092-98.729-0.17424-131.11 8.6257-129.51 9.5619 40.508 23.7 90.668 40.176 134.56 58.768 32.285 13.677 67.017 10.709 100.22 19.772 81.99 22.381 131.28 78.14 152.86 153.57 2.9158 10.19 0.2444 38.115-2.3717 44.5-22.061 53.842-103.07 36.015-137.54 13.987-71.439-45.644-128.99-116.22-202.14-161.99-46.294-28.958-83.926-81.006-129.09-94.635-13.23-3.9928-4.629 97.142-6.846 125.63-5.8083 74.644-4.3618 147.28-1.183 221.74 4.9958 70.283-4.0561 152.38 7.2675 222.25 48.454-6.7523 98.757-25.33 147.49-31.463 109.74-7.395 218.52 5.6386 328.5 6.4263 95.635-0.66493 188.98 20.009 282.5 36.706 90.29 17.912 234.75 71.353 324.09 91.978 311.61 80.019 480.03 58.242 530.04 122.23-15.496 6.1972-81.093 62.048-95.224 70.866-47.548 36.274-97.239 71.789-139.33 114.62-39.76 31.771-63.836 60.471-89.159 105.47-5.636 15.536-20.828 27.036-10.449 41.528 5.8887 7.7976 11.828 20.133 15 31.151 3.5401 12.299 4.6004 42.344 2.0645 58.5l-10.776 50.208c19.338 17.727 23.484 33.006 48.741 45.308 9.4656 3.2783 18.318 11.234 28.79 10.546 2.24-0.8682 23.666-22.055 27.875-27.563 16.752-19.263 30.16-42.404 38.835-66.527 8.3942-17.984-3.3954-36.903 23.782-29.43 14.862 10.44 25.095 28.315 30.169 45.556 4.4764 18.187 2.3102 37.103 4.2939 55.48 12.958-9.4498 26.799-18.011 41.04-25.578 7.0785-4.5909 11.604-10.883 20.545-10.978 15.04-1.3318 17.688 11.419 25.686 19.978 5.0155-4.0935 10.059-8.6618 15.259-12.74 15.471-9.0371 29.332-29.962 46.686-34.25 4.3595 0.014 12.706 4.1845 15.58 7.7849 7.3786 9.2428 8.1197 10.89 11.994 26.66 13.405 39.577-20.318 80.608-17.285 117.51 26.23-0.3264 47.427-2.8636 70.25-8.4091 24.442-3.0631 47.101-16.678 71.5-19.122 13.066 0.4663 22.525 7.7907 26.666 20.648 3.4051 11.574-15.664 35.918-24.415 44.31-13.143 12.126-28.38 22.796-41.992 29.406-6.4576 3.1358-11.608 6.1121-11.446 6.6141 17.487 12.614 89.286-7.2342 76.5 28.789-21.596 21.151-62.108 42.448-91.188 48.315-35.175 9.8871-75.632 16.883-112.53 20.517-61.717 3.6464-125.2-2.8999-184.1-22.278-39.257-10.572-76.158-27.081-112.5-45.164-26.603-14.219-52.805-25.781-79.262-41.185-12.543-1.1634-25.246 2.4397-40.736 2.59-168.65-10.954-349.19 76.251-499.2 141.88-7.9256 3.4619-16.345 5.6654-24.298 9.0555-3.1335 8.0072-8.3363 22.415-4.2971 29.273 10.87 11.486 16.617 17.055 19.317 36.222-1.128 11.997 5.1386 24.03 6.9803 36.064 19.986 5.5651 43.861 19.325 64.026 24.411 90.913 29.592 164.3 64.477 266.24 101.42 69.538 22.302 120.1 54.365 180.89 85.989 14.269 9.7484 42.388 14.216 50.37 29.674 28.195 48.789 24.905 77.73 28.141 130.31 1.4441 0.3727 1.4901 0.4988 0.2154 0.59-4.4766 40.762-14.785 88.6-28.257 128.48-25.897 99.53-65.335 194.6-104.24 289.56-34.801 78.454-80.415 151.35-117.88 228.57-26.895 64.344-132.2 186.43-212.26 165.93-56.147 49.38-115.66-12.052-171.72-5.0751zm167.44-34.36c19.091-21.503 30.485-47.936 43.413-73.324 36.537-61.496 68.334-125.49 99.795-189.65 34.958-74.115 61.491-151.71 92.311-227.52 40.157-97.665 61.318-181.41 68.103-286 1.8181-23.003 2.577-42.036 1.7995-45.134-20.298-16.387-43.252-37.664-65.377-51.104-44.298 187.57-127.37 379.65-199.6 564.46-42.463 96.571-84.03 201.62-147.03 287.78-12.112 35.84 88.672 45.082 106.59 20.496zm-162.12-17.823c65.475-95.285 116.76-194.08 160.17-301.17 23.95-64.025 48.435-127.74 74.988-190.73 31.959-77.869 64.732-155.67 92.225-235.27 18.746-53.106 20.583-107.02 31.613-161.62 5.794-16.318 9.5816-33.776 13.156-50.819 0.2027-4.3533 6.1417-21.064 3.2926-23.801-1.7036-1.4813-12.821-5.6605-13.065-4.9273-7.3102 10.349-9.3267 16.551-30.01 24.66-23.005-2.2429-24.155-26.058-27.428-46.247-6.8516-1.8193-10.38-12.08-14.281-3.5 1.9793 12.55 2.5248 17.196 3.5524 30.25 0.9938 12.625 0.9395 21.623-0.3035 50.25-2.7499 22.868-6.1701 45.641-9.3532 68.436-8.3684 42.943-19.11 85.425-29.91 127.81-38.706 163.18-114.28 313.4-176.78 468-18.868 67.522-168.78 230.57-77.871 248.67zm293.35-25.316c47.201-46.702 71.433-122.52 102.26-179.87 54.418-109.63 80.505-181.36 120.76-272.99 49.014-109.55 67.519-224.39 74.484-343.73 0.9969-15.582 0.1309-21.439-10.973-15.842-19.223 10.541-40.08 27.186-61.88 28.579-8.6982-0.2907-7.29 36.874-6.416 43.82-1.078 67.819-30.03 143.6-47.96 209.18-54.226 152.83-135.04 378.41-223.09 517.67-63.541 80.936 14.864 38.603 52.814 13.183zm-352.7-51.9c37.915-63.778 71.674-130.22 104.13-197 90.023-188.05 162.15-438.33 208.33-641.63-87.364-44.433-135.83-62.956-195.92-80.163-71.87-17.817-142.75-39.24-212.29-64.681-60.87-18.127-118.36-41.654-179.71-59.598-16.768-3.4815-39.001-25.569-49.445-14.707-34.396 35.77-85.195 103.77-112.62 173.2-44.661 77.982-80.633 160.74-121.94 240.57-53.984 130.91-106.06 271.86-120.93 414.16-1.8483 16.641-37.64 52.467 46.934 72.852 163.53 71.488 329.36 138.38 499 193.97 67.033 25.944 99.986 29.679 134.46-36.982zm-714.49-291.5c26.354-136.04 73.48-266.07 125.57-394 53.15-122.88 118.15-229.43 191.35-340.23-6.3443 4.6632 66.49-66.727 87.075-92.558l-0.04-3.2139c-2.8705 6.2992-9.6384 9.1581-14.961 13.05-0.884 4.0837-27.546 14.578-31.212-7.7352 3.7111-13.286 9.8964-21.084 9.2937-24.516-40.292 31.151-70.697 82.149-106.56 119.4-20.068 25.921-38.659 53.06-59.604 78.298-49.256 53.176-82.518 116.67-111.88 182.29-14.975 28.165-29.107 57.216-42.708 86.206-40.774 83.346-68.728 172.44-85.889 263.5-25.26 59.532-1.1964 129.2-16.365 189.29 62.275 45.486 50.959-20.426 55.929-69.787zm-91.648 45.919c-18.482-154.51 40.882-310.04 100.94-449.42 61.07-145.95 167.34-278.13 270.95-397.63-72.184-27.146-113.99-46.348-173.82-55.001-46.859-8.8394-50.498-7.2103-77.76 35.711-58.989 80.931-118.22 196.54-166.64 284.35-81.323 156.36-103.22 306.69-96.925 479.95 4.3981 34.469 112.04 129.64 143.25 102.04zm1432.4-556.19c-43.272-32.033-120.28-66.121-148.64-76.537-19.327-7.4577-9.8298 4.0409-19.847 42.152 0.3942 29.631 19.526 43.122 97.429 76.596 26.018-5.5755 47.998-12.578 71.062-42.211zm-148.12-14.966zm-69.3-81.71c-8.161-3.7088-20.961-10.062-29.986-7.8832-5.1763 14.594 0.4212 25.096 13.037 29.353 7.4131 0.2787 20.109-13.721 16.949-21.47zm-88.257-41.726c-42.775-5.2611-200.06-103.23-234.68-80.281 4.393 28.599 15.752 49.438 30.977 56.145 26.72 17.753 187.69 80.299 199.89 76.724 5.9529-9.3219 11.158-29.971 3.8147-52.589zm-241.63-46.304c-12.717-19.99-45.365-45.171-54.393-67.026-8.0748-27.244-56.068-20.355-78.029-17.714-13.85-1.1209-28.028 10.97-41.595 9.0602-17.524 0.1386 25.151 28.789 28.095 30.712 25.606 15.162 54.716 22.097 81.97 33.426 6.3476 1.4321 74.078 27.989 63.952 11.542zm-804.24-141.66c32.009-45.347 57.162-68.257 112.07-87.27 89.92-25.611 150.58 5.6092 232.75 27.865 18.505 5.7685 37.269 10.585 56 15.574 5.775 1.6372 47.9 17.08 48.355 17.077-7.4719-13.063-43.213-43.148-51.372-55.95-15.739-25.072-44.031-47.012-60.789-68.662-24.06-35.569-52.439-68.258-76.216-104-29.896-39.742-55.085-82.833-80.478-125.56-24.669-26.772-80.437-35.277-116.5-44.832-124.23-11.196-262.82 3.7656-384.43-26.13-56.798-8.4581-102.44-42.293-151.63-67.437-29.556 1.4132-65.363-7.6484-92.842-18.922-38.858-11.995-80.298-9.0129-119.85-16.12-26.75 2.2154-54.253 1.2675-80.25-5.9334-12.306-4.1837-14.013-3.1823-6.3833 3.7446 10.986 9.9747 18.383 25.782 18.383 39.285-4.2184 40.85-38.002 47.948-72.473 48.147-7.8888-0.4444-19.632-3.4091-29.292-7.3953 49.995 46.262 113.52 109.69 165.7 164.6 30.17 37.096 53.22 79.02 82.72 116.68 47.674 66.927 110.13 120.25 175.85 168.59 85.688 65.641 181.39 87.771 285.48 106.34 26.944 4.653 53.147 14.09 80.24 17.688 18.546-34.512 41.17-66.314 64.961-97.383zm797.42 72.399c-0.1353-27.899-11.448-47.737-36.087-61.804-21.348-5.7036-44.899-5.6386-67.022-6.3896-19.351 0.076-42.731-8.7795-61.308-0.5705-23.161 13.092-35.836 5.1683-52.192 29-2.3179 1.4326 12.739 6.2959 16.465 9.9636 10.765 6.3967 23.902-8.197 38.085-11.406 30.846-14.764 64.226-4.9309 96.613-2.5633 37.725 2.7243 45.188 24.673 54.624 54.756 9.6051 6.3191 11.285-4.0437 10.822-10.986zm-204.34 11.002c-9.9418 7.7623-13.14-9.0329-14.863-16.894-42.541-25.744-102.89-55.953-133.29-56.735-2.412 2.3767-10.485 10.915-12.577 13.689 36.101 33.559 131.34 52.816 160.73 59.941zm43.965-122.81c22.39-4.6959 43.251-6.8173 72.631-1.2965 21.388 4.224-28.139-30.314-33.81-40.308-45.391-43.851-60.909-109.73-82.363-167.85-22.555-62.754-55.917-119.71-83.215-180.51-30.01-65.645-82.072-129.2-97.873-199.94-5.7444-14.441-9.9176-17.769-23.825-25.732-13.081-3.2872-51.232-13.085-67.621-14.321-82.251-21.867-158.89-25.096-241.13-47.537-100.99-20.09-156.11-67.037-247.9-108.87-60.864-8.0291-127.45-6.623-185.94 26.058-43.61 16.85-53.923 44.716-55.698 85.167-0.6635 34.576-3.6484 77.693 11.227 108.49 20.073 41.805 45.204 58.522 72.293 95.915 7.2115 12.538 36.924 10.143 50.117 11.836 40.741 3.8199 39.055 8.9965 91.391 10.516 44.119 3.4488 95.778 3.1393 139.98 3.3037 87.479 0.4656 126.27 7.5695 152.94 14.251 32.932 7.7346 61.836 25.734 93.087 38.329 29.986 20.182 62.919 82.711 83.25 115.18 8.1766 13.116 2.9536 27.868 4.5089 27.868 25.511 4.9872-1.7146 0.2661 0.4538 0.5913 29.459 47.228 79.297 76.973 113.26 121.45 14.437 18.941 25.48 36.25 38.042 56.506 24.404 34.46 50.217 67.181 88.284 88.756 45.106 18.115 64.153-1.869 107.9-17.85zm-234.45 39.101c-3.8479-1.498-13.066-6.7944-13.066-5.3607-41.874 39.663 27.962 15.97 13.066 5.3607zm-83.97 19.848c16.957-17.121 22.615-28.824 13.799-31.341l-127.8-40.6c-15.767-8.0604-28.959-8.1938-63.745 7.6421 47.93 14.414 121.48 45.675 177.55 64.319zm461.5-86.3c72.553-33.902 147.49-62.237 222.5-90.224 84.754-40.252 169.58-50.664 262-58.768 16.94-0.9474 33.823-2.7703 50.75-3.8726 8.5471-5.6045 24.292-31.422 29.495-41.11 7.6917-21.341 4.7967-44.594 11.445-66.406 6.3208-8.3282 9.6512-14.095 10.849-24.594 3.1957-20.196 11.882-38.969 15.914-59l3.6763-36.086c-5.7609-20.478-38.807-22.035-55.571-26.204-96.221-30.44-195.16 45.004-289.75 64.608-110.02 18.096-222.57 14.952-333.81 17.783-37.056 0.7885-75.28 1.0308-111.38-8.7487-17.351-7.871 12.908 41.893 14.365 44.647 34.618 68.775 54.534 139.01 92.529 207 16.888 25.826 36.756 49.451 54.595 74.632 10.769 15.822 8.0946 13.88 22.387 6.3418l0.0004 0.0005zm942.5-43c29.625-1.9925 58.666-7.5912 87.698-13.542 10.724-3.2976 65.361-9.9813 75.62-14.684-7.053-11.52-47.888-4.715-63.555-8.0699-15.95-3.4156-21.868 3.3976-29.373-4.4944-11.268-17.492 26.492-35.407 38.782-40.184 27.848-15.059 48.068-18.01 55.121-34.378-17.375-2.5586-107.59 29.606-125.04 30.878-9.5599 1.4238-16.886-0.846-23.842-7.3117-5.7635-15.159-0.094-30.767 7.709-48.237 8.3254-20.897 24.981-87.646 24.054-91.831-12.773 3.3478-30.694 22.977-60.848 55.276-7.4432 7.9726-21.337 21.491-26.564 25.731-18.904 17.034-38.376 32.83-60.942 44.815-21.209 9.1647-37.557 13.961-58.07 24.546-11.258 9.6435-27.554 17.803-39.325 23.856-34.698 1.2507-72.01-39.47-99.058-60.997-13.385-11.765-28.083-13.445-41.286-25.421-5.3219 15.64-15.083 28.882-23.077 42.998 7.3692 6.0041 18.462 8.7473 27.352 12.888 33.841 14.634 66.044 32.661 99.648 47.776 74.73 28.268 154.84 46.234 235 40.386zm-165.71-117.99c13.665-7.9429 27.953-14.759 42.028-21.937 9.2125-5.3098 19.569-8.2664 28.007-14.767 5.1211-4.0732 5.7445-4.9465 5.1688-7.2405-0.3601-1.4348 15.084-25.661 14.925-25.82-12.672 6.5464-39.707 38.494-54.699 36.319-12.724-15.262 13.771-78.586-10.342-105.41-8.1473 8.7293-24.548 52.723-33.938 62.697-13.924 15.222-31.105 32.981-53.6 31.913-21.618-4.4565-35.978-3.3686-54.821-14.402-15.457-5.0769-34.875-43.207-39.145-38.753-15.059 10.879-17.072 1.3642-6.2941 24.661 8.3998 19.505 25.639 31.336 40.922 44.729l76.874 47.617c15.652-5.0069 30.554-11.587 44.914-19.608zm-643.3-210c96.709-0.8703 183.44-31.863 274.78-58.614 40.715-17.886 79.022-8.8285 122.67-9.6427 14.819-2.5786 37.388-6.8983 48.371 3.378 4.2725 1.9137 11.765-33.688 16.64-48.133 10.396-23.925 26.341-62.018 47.013-78.879 60.213-59.486 125.2-114.61 192.02-166.55 23.354-15.467 28.056-18.322 43.5-26.406 37.583-29.703-33.391-26.829-53.967-23.242-142.08-16.424-248.22-45.003-359.69-57.265-178.85-56.796-285.05-80.018-428.84-112.68-85.546-30.37-247.85-31.127-282.44-34.45-40.362-3.8784-145.95 5.966-176.99 8.0155 12.282 14.055 34.818 41.135 19.608 59.915-24.127 29.254-128.18 32.995-93.221 74.445l42.228 181.32c18.907 6.2206 23.924 14.499 43.313 18.26 47.497 7.1252 81.235 7.2682 105 55.212 0 0.3008-0.675-0.013-1.5-0.698-0.8367-0.6944-1.5-0.8027-1.5-0.2449 18.667 39.943 36.473 85.781 55.363 127.74 17.475 26.324 30.829 50.873 38.097 70.035 17.742 28.926 78.181 23.865 110.04 23.921 79.759-2.9112 159.89 0.7508 239.5-5.445zm-1095.9-3.5944c-0.043 1.0541 0.193 1.6448 0.5253 1.3125s0.3678-1.1948 0.079-1.9167c-0.7008-0.355-0.3091-0.5786-0.6043 0.6042zm-721.15-1.2329c-5.809-20.366-61.809-53.643-78.926-50.465-42.007 11.842-4.2155 37.066 29.047 49.951 8.0887 8.6858 46.56 14.738 49.879 0.5133zm21.919-37.47c7.2835-5.8935-10.821-28.225-21.84-30.501-11.185-9.395-32.23 3.4366-18.863 24.864 8.7049 10.432 27.71 23.558 40.703 5.6371zm44.566-23.63c17.357-1.2983 78.276 8.8556 44.463-17.096-12.545-24.453-56.44-43.823-90.621-64.15-31.956-4.8825-34.881 40.297-12.76 59.902 5.9076-5.7849 38.562 17.526 58.918 21.344zm422.98-23.457c-25.114-29.08-27.743-63.563-42.719-98.627-14.45-39.671-16.999-82.303-12.322-124 5.9276-69.408 54.174-102.38 119.15-115.96 54.138-3.5646 117.89-26.422 169.03-5.0618 4.3775-1.252 4.3617-14.946 2.9927-20.933-36.92 0.0422-72.566-4.1698-109.78-8.0411-113.57-3.9755-185.48 43.397-208.8 156-2.9428 28.005 0.3229 67.482 7.5214 90.92 15.522 40.701-1.6096 96.544 35.294 123.05 18.532 6.3753 69.245 35.018 39.632 2.6577zm-523.33-65.955c3.6855-7.7154 10.266-15.393 16.773-19.568 10.984-7.0481 19.82-16.42 36.94-12.022 4.3054 0.2778-4.5724-8.1177-5.8857-9.2149-5.4931-3.0951-8.6546-9.326-14.143-12.222-89.785-76.683-161.54-168.08-246.05-252.95-37.497-29.496-65.163-41.371-112.1-51.606-39.678 33.062-75.022 55.196-112.59 85.007-25.913 20.492-49.702 30.296-69.913 56.647 36.416 92.582 129.03 149.49 217.21 188.95 32.102 18.066 65.938 34.672 99.685 49.959 30.868 14.682 65.09 9.6108 98 12.85 23.086 2.4209 53.48 22.421 76.053 28.279l12-13.87c0.5104-14.506-1.6112-37.027 4.0128-50.233zm424.69-175.73c13.396-52.843 31.568-82.01 72.741-117.13 35.97-24.935 83.054-39.614 125.66-42.529 236.79 23.839-3.6318-25.441-138.66-56.748-56.021-29.839-102.06-64.756-150.03-106-27.694-20.456-46.364-49.02-66.755-76.024-77.59-83.085-166.93-148.64-272.54-193.35-53.513-15.063-60.993-20.838-116.57-23.7-53.698 2.5304-146.56 2.9752-192.65 31.062-51.897 38.217-144.07 84.11-145.08 154.97-21.019 44.35 26.27 17.43 54.545 8.2708 21.302-7.5599 27.595-7.1892 50.131-7.9877 22.409-0.79406 50.358 6.856 58.926 25.513 10.489 22.838 32.753 55.496 17.859 88.288-12.772 28.123-31.363 57.046-47.803 83.277-7.0645 13.912 67.901 19.885 80.466 24.15 46.9 28.68 90.272 63.225 133.3 97.454 67.941 74.275 118.2 156.53 196.54 220.86 33.289 29.69 72.577 49.731 114.16 65.062 63.413 6.5115 125.25 3.7191 187.5 18.456 13.939 4.1703 55.083 17.596 69.304 20.758-16.214-42.112-38.39-146.36-31.05-214.64zm-276.46 201.77c-28.292-21.934-47.998-38.236-52.438-35.433-12.297 14.647 66.151 40.233 52.438 35.433zm1003.1-351.85c8.6263 32.17 18.779 139.29 27.047 167.22 3.9672 13.401 42.679 8.5376 42.679 11.151 0 0-30.647-165.86-42.442-187.46-21.595 7.0123-12.896 2.4986-27.284 9.0873zm-26.077 99.018c-4.644-39.579 8.0842-49.582-17.616-79.14-10.614-10.545-67.571 13.381-86.734 14.398-54.991 4.9041-106.26 6.5742-161.47 7.4806-35.595-1.7214-21.495-8.586-47.127 5.4461-14.547 10.071 65.46 8.5501 61.818 28.881 33.768 13.026 61.726 22.41 96.229 33.237 40.524 12.432 74.483 19.728 115.45 30.621 18.058 4.767 29.259 0.01 58.053 27.733 23.132 9.2813-17.468-56.182-18.596-68.658zm-1666.8-16.3c20.77-26.77 68.38-55.54 95.01-76.21 28.57-18.44-158.1 4.66-220.83-20.39-56.4-13.34-101.91-54.58-143.03-44.37 35.398 41.749 93.46 70.644 141.29 94.558 23.629 8.7391 109.31 68.511 127.56 46.391zm1329.2-97.6c54.328-1.1555 108.53-2.2601 162.67-7.4928 48.528-4.3515 97.198-6.0834 145.66-11.446 26.946-4.3199 53.761-8.838 79.972-16.598 27.79-7.9401 54.347-20.044 79.872-33.527 25.668-12.02-8.5527-35.187-21.629-43.057-50.168 5.3262-102.3 13.534-152.17 22.238-23.36 15.293 16.238 42.311-37.649 38.218-16.93-7.5266-15.308-27.801-10.634-42.24-7.5395-31.025 0.062-68.442-0.2861-100.7 0.05-24.845-3.2008-43.688-0.694-79.152 1.769-104.49-1.4739-210.24-5.0735-314.76-1.0776-31.292 21.64-145.62-27.826-127.74-14.49 5.237-14.165 86.416-13.663 97.594 3.9728 88.49-5.0681 184.09-4.9854 272.67-3.7373 107.72 14.495 196.53 14.351 296.5-7.2278 13.506-39.01 8.7479-37.371-2.1485-10.853-4.6342-4.3411-25.23-5.006-35.329-63.199-10.763-165.28 18.275-225.05 38.446-29.757 21.427 38.211 47.283 59.514 48.528zm-1294-9.35c45.833 9.0249 86.433-17.11 101.69-16.867 18.219 5.33-63.399-59.707-72.624-69.515-23.26-26.049-35.967-43.8-42.259-59.032l-4.45-10.74c-36.53 2.8734-73.348 4.1522-109.64 9.5509-58.104 12.261-132.22 34.523-171.21 81.3 29.856 9.8825 60.228 21.257 90.696 30.043 62.59 38.593 128.81 28.717 207.79 35.261zm150.31-60.92c20.463-16.085 29.598-49.94 43.408-71.555 35.298-48.651 4.7065-91.477-29.398-101.6-40.034-1.7261-112.75 14.574-139.52 76.754 2.0893 6.7521 15.479-4.8657 20.613 9.9319 2.1364-13.24 30.69-46.249 48.993-54.835 26.567-2.9933 74.731 19.147 72.282 68.062-2.3154 46.242-71.897 57.116-16.381 73.239zm1742.5-554.16c-80.652-10.77-246.98-99.119-275.74-89.07-14.347 5.0127 112.8 103.06 150.7 129.71 48.711 34.251 86.719 90.196 139.61 114.9 204.16 95.358 85.627-142.16-14.57-155.54zm-814.17 167.7c63.227-14.602 63.472-8.4485 130.15-80.362 29.85-32.196 208.14-140.01 232.78-174.16 6.8055-9.4339-189.42 57.956-210.84 61.699-44.424 7.7638-122.11 29.374-164.26 45.025-51.938 19.284-53.627 26.884-78.38 82.821-32.386 73.186 32.119 78.475 90.559 64.979zm845-316.27c108.58-41.688-83.593-81.929-136.62-32.981-11.677 10.778-192.72 23.814-177.99 36.887 36.228 32.162 268.85 13.665 314.62-3.9063zm-658.93-48.23c-42.722-10.11-62.57-26.893-78.26-25.578-15.69 1.3145-22.792 10.056-29.308 16.532-40.433 40.177 38.674 50.841 85.944 52.118 168.64 4.5562 304.32 23.826 21.625-43.071zm2190.5 1850.2c0.825-0.5332 2.175-0.9694 3-0.9694 1.3333 0 1.3333 0.1077 0 0.9694-0.825 0.5332-2.175 0.9694-3 0.9694-1.3333 0-1.3333-0.1077 0-0.9694z"/>
  <path id="path3913-2" d="m713.45 1521.5a10.579 10.579 0 1 1 -0.25461 -0.6217" style="color:#000000" fill="#d40000" transform="translate(465.5 -176.32)"/>
  <path id="path2968" d="m465.05 761.35c-85.234 8.3343-190.97 25.756-252.5 88.908 12.095 18.446 33.078 12.39 77.821 31.722 56.559 14.206 95.923 38.287 148.8 38.434 66.076 3.5342 139.43 15.882 199.19-18.175-14.218-26.818-47.895-43.188-67.536-67.469-23.634-21.211-40.757-49.484-57.559-75.458-15.107-2.5735-32.449 1.9415-48.21 2.0391z" style="color:#000000" fill="#f60"/>
  <path id="path2970" d="m211.56 867.25c3.6114 24.884 48.609 53.207 67.407 69.121 63.33 36.39 126.3 76.95 196.06 99.588 48.635-6.9693 63.796-28.778 84.283-50.747 17.825-19.114 88.085-47.135 67.09-59.932-28.937 17.86-231.67 22.945-322.81-26.157-25.706-9.9428-74.123-27.839-92.031-31.873z" style="color:#000000" fill="#f60"/>
  <path id="path2972" d="m3735.4 1516.8c-57.745 54.885-111.29 118.1-188.58 145.25-25.325 11.918-54.597 40.934-82.289 17.144-36.071-22.253-65.198-58.764-105.98-71.691-14.564 8.9705-23.669 30.171-29.612 45.82 123.49 70.059 268.83 125.65 413.58 98.276 35.041-6.8309 76.194-8.5401 107.27-23.468 10.875-17.789-21.24-15.972-31.326-16.208-13.762-2.4419-37.04 3.2369-46.911-5.2989 18.972-31.738 64.738-34.646 88.679-61.093-3.3625-21.514-33.542-3.1683-47.104-2.975-30.659 3.5654-63.889 24.092-94.564 15.287-7.7634-27.974 13.546-57.725 17.684-86.007 1.4737-17.378 19.828-45.183 3.667-57.063l-4.5197 2.0261z" style="color:#000000" fill="#f60"/>
  <path id="path2974" d="m3553.4 1495.4c-25.604 25.72-31.812 72.24-70.912 85.094-36.006 9.9484-74.727-7.4249-95.848-37.56-12.037-17.342-37.31-2.0062-27.118 16.52 30.082 44.319 77.765 77.346 127.02 97.25 39.784-5.6206 74.37-33.201 110.19-50.651 19.294-3.1706 16.882-35.972-3.8963-26.027-8.2712 5.4793-29.001 24.968-24.468 1.5585-2.246-27.496 11.878-64.539-9.8186-86.185-1.6834-0.4179-3.4596-0.4262-5.143 0z" style="color:#000000" fill="#f60"/>
  <path id="path2982" d="m1132.8 1254.7c-11.622 1.1714-9.8547 16.561-1.3775 21.049 13.941 10.266 29.831 19.22 46.45 23.859 10.036-0.9351 7.7534-13.63 0.3307-16.696-14.202-9.7124-26.82-24.183-43.971-28.267h-0.4408l-0.9918 0.055z" style="color:#000000" fill="#fc0"/>
  <path id="path2984" d="m1950.7 217.17c-80.634 17.375-171.17 52.407-251.74 69.961-46.086 13.227-94.037 23.38-136.67 46.11-28.196 18.66-41.308 52.173-53.145 82.445-4.1122 18.865-8.6535 43.527 10.13 56.262 20.609 18.217 50.584 9.2807 75.276 8.1821 38.154-6.301 82.113-8.2332 110.18-38.599 21.282-21.728 38.718-47.747 65.051-63.877 61.433-44.958 157.36-112.67 213.5-163.91 4.7487-7.2562-25.218 1.0768-32.583 3.424z" style="color:#000000" fill="url(#radialGradient4296)"/>
  <path id="path2986" d="m1719.4 77.486c-23.078 1.2329-47.646 20.043-49.404 43.56 4.8935 24.875 34.511 33.823 56.652 35.923 47.415 2.767 94.956 3.5025 142.37 6.5457 32.876-0.56894 103.8 14.034 136.07 7.3066 11.177-5.8413-36.509-29.158-45.912-30.294-54.911-19.098-113.71-24.671-168.71-42.859-23.202-9.451-45.327-20.817-71.068-20.183z" style="color:#000000" fill="url(#radialGradient4304)"/>
  <path id="path2988" d="m2399.6 91.123c-30.247-0.25978-61.508 5.8016-85.562 24.858-47.424 12.776-139.33 22.98-184.95 42.061-10.728 3.0235-7.4757 16.703 5.0974 19.451 44.433 12.791 70.137-3.9263 180.41 3.5463 50.076-3.3357 106.05-6.9769 141.11-20.719 16.606-6.4045 40.994-22.535 31.716-43.404-16.108-23.08-48.376-23.598-73.871-25.654-4.6462-0.19536-9.3014-0.28293-13.95-0.13915z" style="color:#000000" fill="url(#radialGradient4233)"/>
  <path id="path2990" d="m2134.6 212.22c-14.084 2.8025 27.757 33.047 35.45 38.341 72.569 66.206 156.97 118.47 229.21 184.98 24.053 22.979 52.971 41.573 86.652 45.686 23.09 3.7014 56.822 7.775 68.387-18.324 9.9594-36.164-13.14-71.341-34.988-98.186-29.115-36.112-69.739-65.741-117.24-69.245-79.546-15.378-163.02-68.702-241.31-88.701l-26.166 5.4456z" style="color:#000000" fill="url(#radialGradient4233-2)"/>
  <path id="path2992" d="m2046.8 203.18c-16.567-0.33795-26.683 14.61-26.261 29.923-6.105 104.78-5.5847 209.88-7.3037 314.82-1.3608 89.574 1.9974 179.12 9.4856 268.37 0.7 20.435 3.2321 42.068 1.1689 61.872-12.728 9.2823-29.296-1.9112-29.3-16.676 1.7477-10.533 2.7298-26.317-12.234-26.572-73.123-3.9877-145.73 14.853-214.22 39.04-12.154 2.5851-23.427 16.758-13.169 27.819 16.076 19.947 43.073 29.864 67.947 32.544 99.049-0.24829 197.93-8.9706 296.57-17.384 62.45-7.3352 126.87-21.6 179.94-56.305 13.895-9.8208 5.4867-28.659-7.0133-35.456-10.642-9.0782-22.474-18.465-37.3-12.499-47.547 6.6685-96.39 10.594-142.63 24.032-11.798 6.7172-5.701 23.389-10.364 32.573-9.0603 2.2846-22.318 5.7292-26.84-6.2169-3.5147-30.208-0.012-62.959-0.8225-94.147 2.7471-140.81-3.041-281.56-3.3646-422.36-1.2043-41.914 3.3345-84.774-3.0264-126.16-2.2742-9.8316-10.389-18.799-21.274-17.221z" style="color:#000000" fill="#808080"/>
  <path id="path2996" d="m2206.5 931.36c-15.578-0.44058-29.418 14.9-21.82 29.755 9.601 50.813 13.339 102.98 25.347 153.18 11.658 12.674 32.485 13.309 48.489 13.114 9.8002-13.409-3.909-32.839-3.7926-48.355-11.463-46.822-15.504-96.473-33.786-141.19-3.0158-4.9505-8.7792-7.2701-14.436-6.502z" style="color:#000000" fill="#214478"/>
  <path id="path2998" stroke-linejoin="round" d="m2101.8 1445.9c-92.33 222.67-212.02 394.14-370.28 504.29 21.542 14.811 38.647 32.559 77.583 3.5265 150.8-109.26 254.08-281.89 349.12-465.5-10.512-12.723 5.549-21.018-56.424-42.318z" stroke="#000" stroke-linecap="round" stroke-width="25.2" fill="#2c5aa0"/>
  <path id="path3772" stroke-linejoin="round" d="m1572.8 964.49c-76.355 32.575-111.49 108.04-109.32 188.67-0.3166 90.062 25.351 100.04 33.502 139.3 60.875 102.82 76.54 115.53 119.9 174.56 48.195 53.613 119.31 96.038 167.51 112.85l95.215 31.738 74.056 24.685 52.897 10.58c47.118-15.069 39.756-39.218 31.738-63.477l-130.48-24.685-112.85-31.738c-72.611-29.747-117.82-66.646-162.22-134.01-132.71-225.52-110.06-230.85-102.27-268.01-1.3428-109.43 137.92-120.44 222.17-123.43l49.371 3.5265c-9.43 5.9165 6.2089-25.77 14.106-45.844-82.688-35.474-152.85-18.523-243.33 5.2897z" stroke="#000" stroke-linecap="round" stroke-width="20.9" fill="#2c5aa0"/>
  <path id="path3774" d="m677.91 680.44c-50.964 2.4597-105.15 29.43-127.49 77.146-3.5952 11.05 6.8286 19.192 15.224 19.37 7.5497 3.7022 10.634 12.553 15.107 1.4225-3.6153-13.548 29.833-55.273 54.592-54.35 42.916 0.0281 71.401 50.72 45.423 85.271-8.5041 16.049-48.269 26.722-32.832 35.363 9.3416 7.5746 24.502 21.815 36.907 17.577 20.283-18.285 28.984-46.134 42.831-69.155 15.646-25.42 24.973-60.792 4.7032-86.462-12.013-17.804-32.617-29.282-54.47-26.183z" style="color:#000000" fill="#fff"/>
  <path id="path3776" d="m696.37 894.65c-21.599 54.818-79.288 61.623-118.46 94.888-23.196 19.563-42.678 53.075-71.749 57.123 29.048 74.48 96.634 125.73 164.11 164.21 63.041 33.356 126.61 66.315 192.16 94.289 40.825 7.7849 84.508 0.4986 122.22 21.233 12.866 2.7098 26.642 17.067 39.316 11.418 18.503-12.258 13.213-35.406 15.663-54.08 1.6984-18.777 17.677-34.754 37.092-32.884 9.5084-1.3331 36.385 2.1739 27.196-14.182-45.849-35.508-79.177-83.957-119.44-125.14-58.16-61.3-115.56-125.05-184.83-174.28-30.99-18.95-64.28-37.36-100.37-42.99l-2.4678 0.35766-0.44119 0.0639v0.00004z" style="color:#000000" fill="#fff"/>
  <path id="path3778" d="m1197 1296.9c-7.8961 11.76 9.7278 21.559 12.702 32.962 12.766 24.643-11.208 53.424-36.936 54.703-15.81 3.7571-32.319 1.378-48.013-0.2861-13.909 5.6819 2.8149 18.46 8.3082 24.192 53.37 54.184 109.44 106.03 158.77 163.41 51.881 74.673 102.76 152.16 173.72 210.79 64.804 54.958 134.64 107.84 217.35 132 20.823 4.9664 41.435 15.628 62.849 15.757 35.875-22.041 64.972-54.258 95.556-82.776 55.653-53.933 101.08-117.54 142.82-182.56 8.3622-8.7196 0.5784-20.085-9.8965-20.494-68.524-16.606-135-42.047-201.41-65.994-56.976-22.327-109.28-57.702-151.27-102.25-34.91-37.385-61.358-81.343-92.964-121.41-21.777-25.597-58.237-15.87-86.73-26.027-60.683-20.844-125.44-24.892-189.12-25.871-18.664-0.1126-37.358-7.5985-55.716-6.156z" style="color:#000000" fill="#fff"/>
  <path id="path3780" d="m1667 1409c-13.035 0.6584-9.4591 16.528-1.4806 21.741 33.822 37.017 73.914 69.478 121.69 86.512 76.491 30.215 158.67 44.838 238.95 59.597 13.505-4.8782 16.939-24.009 24.78-35.3 13.689-29.593 30.674-58.563 38.495-90.315-3.5725-13.412-22.379-11.02-32.908-15.478-49.41-10.845-100.67-6.6499-150.91-9.633-79.308-1.6445-159-3.0675-237.13-17.203h-0.6234l-0.8572 0.078z" style="color:#000000" fill="#fff"/>
  <path id="path3782" d="m2163.2 1498.6c-15.039 13.226-19.569 35.317-30.915 51.675-76.548 139.92-162.84 279.51-286.01 382.76-7.3878 3.7674-12.379 15.948-1.6365 18.858 20.48 5.6191 41.884 12.802 62.886 13.325 17.998-14.314 25.309-38.306 40.018-55.758 31.914-42.727 59.839-94.032 111.6-115.37 57.917-30.483 126.77-24.178 186.98-5.0869 57.024 15.672 113.53 32.986 170.02 50.288 11.471 1.1452 9.9678-13.902 2.104-17.923-32.652-32.484-61.461-68.769-92.51-102.77-55.366-68.902-107.07-140.99-153.34-216.41-2.0034-2.9452-5.6959-4.6202-9.1952-3.5845z" style="color:#000000" fill="#fff"/>
  <path id="path3784" d="m3249.7 1376.6c-96.422 7.1314-178.48 69.208-274.59 76.832-99.096 10.563-199.39 10.748-299.1 11.73-35.663 0.011-71.638-0.8253-106.68-7.052-16.023 2.7269-7.0738 22.057-2.2257 30.862 36.804 69.592 60.526 145.31 97.407 214.76 21.461 35.664 44.956 71.078 73.605 101.3 14.427 4.1602 27.357-9.88 40.833-13.559 82.926-36.393 168.1-67.77 252.24-101.15 82.948-28.982 171.56-31.349 258.01-42.703 17.183-8.5576 26.243-28.369 33.897-45.041 8.7122-27.707 8.2205-58.015 21.089-84.589 9.0159-34.371 22.666-69.369 20.912-105.24-6.989-21.62-34.839-22.125-53.085-27.97-20.545-4.5252-41.214-8.9875-62.322-8.1867z" style="color:#000000" fill="#fff"/>
  <path id="path3786" d="m891.35 461.31c-54.159 2.9758-113.36 4.6377-164.18 26.078-45.231 24.154-80.395 64.116-117.75 99.304-25.278 23.551-38.997 56.284-41.994 90.354-4.9315 10.495 5.1784 20.502 15.655 16.871 31.934-6.2259 61.321-25.029 94.835-20.806 20.956-1.6513 46.61 0.91265 57.664 21.741 13.822 25.837 29.466 57.179 14.416 85.951-12.245 29.351-34.093 54.337-44.963 84.081 4.6107 15.156 25.798 14.057 38.261 18.39 22.01 5.308 46.655 3.8308 63.851 20.853 45.33 31.715 91.177 62.767 129.48 102.58 72.175 84.082 135.36 181.73 233.15 239 30.371 17.101 62.958 32.854 98.781 31.909 66.67 4.79 134.38 6.6352 197.65 30.041 9.1956 0.7856 25.911 13.379 30.348 0.1021-7.0561-39.039-34.788-73.017-34.312-113.95 0.31-43.486-6.5737-89.662 12.053-130.43 19.939-52.011 64.045-96.655 118.7-108.88 39.655-11.714 109.06-16.135 150.32-18.108 11.482-0.49283 4.4424-23.312-5.9911-24.119-64.43-19.35-155-22.973-218.94-44.147-60.56-31.717-99.706-77.043-149.53-123.24-29.1-31.19-69.8-75.9-103.3-103.52-80.1-72.7-169.1-139.8-274.19-169.61-30.98-8.76-67.96-11.45-100.06-10.42z" style="color:#000000" fill="#1a1a1a"/>
  <path id="path3788" d="m2130.7 947.8c-89.954 4.8407-179.53 18.627-269.7 17.299-16.803 0.73157-36.127 5.9752-46.755 19.637-1.2117 14.465 17.978 19.15 27.556 25.817 86.422 41.251 180.55 62.84 272.12 89.741 25.137 4.9099 49.883 17.854 75.609 16.602 14.974-6.3221 5.9196-26.374 5.8763-38.391-8.9562-39.61 2.5639-84.648-21.617-119.95-9.911-13.731-28.469-10.413-43.092-10.754z" style="color:#000000" fill="#1a1a1a"/>
  <path id="path3790" d="m2443.8 789.53c-40.496 1.1976-93.98 4.0386-134.03 10.364-13.027 4.1053 21.253 34.315 27.975 41.222 8.7352 11.005 1.9502 22.979-13.247 32.573-33.213 20.565-59.163 15.347-88.289 42.625-11.282 13.872 7.0495 45.185 7.6366 60.08 14.168 55.984 25.684 117.65 39.43 173.69 8.8592 10.91 26.315 6.8704 38.698 11.242 38.304 8.8559 68.691-2.2005 95.878 31.071 30.787 60.019 53.495 127.71 88.536 185.71 10.782 19.252 28.537 45.594 53.209 51.105 48.604 13.592 99.991 5.1977 149.77 6.4523 91.536-3.2304 183.81 13.1 274.37-2.4781 70.089-14.226 135.61-39.569 204.32-58.833 47.88-2.5091 102.12-2.7583 149.54-0.9351 13.299-9.1631 16.992-28.891 23.845-42.235 12.781-34.736 33.529-72.752 63.192-96.73 69.804-66.831 130.47-138.17 211.31-191.84 9.2196-4.9834 39.233-15.714 27.305-23.674-20.795-10.458-63.389-19.861-85.943-22.873-94.479-7.2591-164.57-24.864-258.25-38.922-51.986-6.7845-114.89-20.326-164.71-36.939-136.53-40.643-293.07-82.266-431.84-114.08l-278.7-16.597z" style="color:#000000" fill="#1a1a1a"/>
  <path id="path3792" d="m1736.6 1008.4c-44.648-0.8806-89.509 5.7977-129.67 26.228-32.754 12.955-62.551 38.548-69.358 74.527-10.901 38.033-8.62 79.585 10.113 114.83 24.215 50.231 47.962 101.48 80.127 147.08 22.77 19.491 55.423 18.678 83.676 22.443 100.56 8.0887 201.47 8.2559 302.13 10.286 54.688 1.5446 108.28 18.89 155.15 46.443 35.634 28.606 50.485 74.004 76.276 110.47 52.116 76.848 111.46 149.23 163.97 225.62 26.621 33.149 54.315 68.826 93.744 86.964 28.782 7.4983 58.036-2.1795 83.21-16.17 20.313-8.7663 39.2-23.602 62.51-19.343 18.611-1.5377 37.215 2.7774 55.561 2.0829 13.795-7.4189-1.043-22.691-6.0929-31.196-24.616-37.344-59.368-67.71-76.43-109.93-33.02-75.028-59.626-152.74-95.819-226.45-37.259-83.156-85.288-161.97-111.7-249.21-11.875-26.39-44.778-32.404-70.586-35.793-59.174-5.0613-114.94-27.308-172.33-41.793-66.116-20.272-133.82-34.345-198.91-57.325-60.727-23.031-118.52-53.83-177.99-79.85-19.196 0.038-38.392-0.085-57.587 0.078z" style="color:#000000" fill="#1a1a1a"/>
  <path id="path3794" d="m2673.7 1912.9c-22.875-0.3459-45.498 3.1206-67.327 9.4289-12.004-2.0759-15.893 13.316-6.3899 19.325 33.913 32.747 81.536 45.259 124.76 61.327 17.974 4.1465 36.52 15.328 55.249 11.611 12.522-10.051-6.5669-21.788-11.767-30.235-18.292-18.922-33.172-40.671-48.859-61.483-12.055-11.553-30.292-9.9952-45.664-9.9744z" style="color:#000000" fill="#1a1a1a"/>
  <path id="path3796" d="m2613.1 1857.2c-23.765 3.9531-58.089 17.451-69.275 42.859 15.121 14.25 30.209 12.884 38.027 7.6366 29.787-9.7752 55.919-19.736 87.887-13.704 21.164 4.0616 46.127 0.8347 63.833 14.95 14.95 11.088 13.072 34.627 29.144 43.95 15.463 2.5538 14.854-18.978 12.78-28.91-3.4152-30.555-28.271-58.507-60.002-59.301-33.963-3.8731-69.723-12.915-102.39-7.4808z" style="color:#000000" fill="#f0a839"/>
  <path id="path3798" d="m2363.6 1851.8c-9.9133 3.1273-18.091 13.52-19.726 23.694 1.1851 13.406 18.703 11.096 26.834 5.1796 9.2378-3.0795 18-15.794 8.2652-23.418-4.3815-3.1703-9.868-5.6519-15.373-5.455z" style="color:#000000" fill="#f0a839"/>
  <path id="path3800" d="m3080.1 2078.1c-15.673 3.2736-12.556 25.195-3.6918 34.163 6.7641 8.3786 19.303 10.426 26.944 2.0939 7.922-6.1628 16.849-22.229 3.9122-28.047-8.4444-4.1079-17.631-8.2273-27.165-8.2101z" style="color:#000000" fill="#f0a839"/>
  <path id="path3833" d="m2378 1924.3c-18.853 9.5551-29.615 30.055-43.444 45.381-37.44 46.717-64.637 100.11-90.275 153.87-51.758 99.578-103.2 199.68-144.02 304.33-40.604 104.53-72.487 212.74-88.043 323.94-2.0405 20.212-18.104 43.102-1.714 61.605 20.672 22.561 53.803 24.742 79.758 38.6 167.88 72.006 338.08 138.92 511.93 195.25 29.178 9.5798 64.614 1.9005 82.678-24.468 48.575-73.731 87.538-153.38 126.13-232.6 93.44-201.31 154.28-416.27 204.81-631.9-0.2113-17.221-23.168-19.238-34.18-27.262-71.808-36.694-148.61-62.123-226.59-81.442-111.59-32.866-221.44-72.19-331.77-109.41-15.362-4.2571-28.982-15.054-45.274-15.897z" style="color:#000000" fill="#502d16"/>
  <path id="path3835" d="m2055.5 1833.7c-27.553 1.2877-38.838 31.669-53.923 50.04-62.539 91.728-114.65 190.02-165.98 288.08-65.593 125.45-93.689 267.74-93.003 408.79 1.3295 23.805-3.2212 48.91 2.0085 71.89 24.692 43.494 65.515 76.934 109.95 98.922 12.579 5.5457 31.829 8.6804 41.905-2.5713 3.0588-26.536-3.4976-53.452-0.9448-80.262 6.1253-124.95 50.278-244.21 98.86-358.43 56.3-137.05 146.8-256.28 241.67-368.4 10.29-14.545 25.027-26.872 31.888-43.303-5.1447-12.68-23.076-11.738-33.625-18.301-57.58-21.86-116.78-43.352-178.8-46.455z" style="color:#000000" fill="#502d16"/>
  <path id="path3837" d="m3153.9 2210.8c-43.587 179.44-114.96 350.44-182.98 521.88-46.66 111.94-90.964 225.78-160.2 326.02-12.766 15.576 3.1178 35.029 19.325 39.196 26.499 9.609 57.602 10.433 84.081 0.2338 32.608-25.111 43.597-67.654 65.599-100.98 52.651-96.34 103.1-194.29 141.63-297.32 40.049-104.63 87.675-208.23 101.08-320.62 4.4162-38.865 10.861-78.498 7.7683-117.4-17.588-18.297-39.114-34.093-59.626-49.38-5.0189-3.2246-11.921-8.2772-16.676-1.6364z" style="color:#000000" fill="#502d16"/>
  <path id="path3839" d="m3343.2 2222.7c-24.121 8.5387-44.775 25.344-69.665 31.793-16.276 11.864-8.7801 35.88-11.065 52.911-4.7413 73.632-30.104 143.87-52.21 213.69-58.995 170.45-121.28 341.05-212.58 497.3-9.1507 18.849-30.883 34.872-28.209 57.509 6.7162 15.976 26.412 2.2174 37.248-1.091 32.214-13.846 62.351-34.72 79.523-66.064 36.514-59.266 62.533-124.28 93.57-186.56 43.994-94.585 84.983-190.66 123.18-287.78 32.74-96.926 48.422-199.73 51.898-301.96-0.2491-5.8058-5.8878-10.639-11.689-9.7406z" style="color:#000000" fill="#502d16"/>
  <path id="path3841" d="m3167.4 2105.2c-15.824 3.9037-11.392 25.628-15.425 37.608-8.3283 27.08 12.07 52.341 35.218 63.305 22.136 11.446 44.39 24.561 67.873 32.105 29.199-8.2562 60.927-21.672 76.444-48.937-9.0626-13.862-27.612-19.341-41.066-28.832-39.008-20.257-77.74-43.173-120.16-55.405-0.9632 0.019-1.9338-0.082-2.8833 0.1558z" style="color:#000000" fill="#502d16"/>
  <path id="path3843" d="m2796.4 1960.8c-11.267-1.4387-21.058 8.7129-16.364 19.715 5.2872 22.731 16.601 46.942 40.053 55.483 59.304 28.693 120.74 53.769 184.14 71.847 15.434 4.7431 23.961-12.157 23.689-25.17 2.5764-15.669 0.7647-37.363-18.39-41.066-68.481-24.087-130.88-64.586-202.22-80.107-3.59-0.5611-7.2882-0.8362-10.91-0.7013z" style="color:#000000" fill="#502d16"/>
  <path id="path3845" d="m2416.2 1867c-7.1973 7.0253-26.167 20.383-9.7887 28.154 49.89 32.986 140.86 64.02 197.73 80.094 11.638 3.694-39.426-27.939-35.915-44.634-20.993-11.442-38.462-19.204-60.957-32.655-30.605-12.321-58.081-29.892-91.065-30.96z" style="color:#000000" fill="#502d16"/>
  <path id="path3847" d="m2155.1 1798.5c-13.865 3.5214-30.138 5.7147-41.044 15.27-4.4539 14.102 17.263 14.143 25.53 19.669 50.301 18.044 100.38 38.178 150.87 54.8 12.699-5.3607 25.32-20.562 25.016-35.426-6.9108-11.809-24.685-10.634-36.104-16.567-41.351-12.587-82.236-28.162-124.27-37.747z" style="color:#000000" fill="#502d16"/>
  <path id="path3849" d="m3047.6 2066.3c-7.4251 13.419-1.7929 31.118-3.0391 46.132 3.6303 93.724-26.402 184.43-48.328 274.42-39.178 140.83-101.72 273.95-157.33 408.89-26.354 70.546-77.971 126.85-109.05 195-8.4982 20.575-42.049 49.228-25.359 67.832 8.4866 7.4662 52.517 21.42 60.784 8.0462 45.649-63.498 82.291-133.34 116.73-203.38 48.976-103.6 85.669-212.24 130.56-317.84 32.374-83.843 71.844-165.09 91.607-253.11 10.023-52.658 16.073-106.04 30.78-157.56 1.3853-12.997 14.233-34.527-6.0002-38.339-16.395 8.5129-25.346 37.185-46.57 22.774-28.122-5.2185-9.102-45.98-29.563-54.256-1.7403 0.4675-3.4807 0.9351-5.221 1.4026z" style="color:#000000" fill="#803300"/>
  <path id="path3851" d="m2343.5 1848.6c-35.047 29.647-61.7 68.056-91.508 102.8-37.024 46.809-74.227 93.227-110.32 140.56-47.181 72.061-81.543 151.57-119.93 228.48-39.553 81.352-64.186 168.89-84.159 256.84-16.587 47.894-8.5041 99.35-11.924 148.99 2.3502 16.233-7.4347 35.563 2.4947 50.03 14.077 11.495 42.423 22.964 52.911 1.1689 11.682-35.586 5.0446-73.795 16.045-109.58 33.188-141.88 82.455-280.63 143.08-413.14 46.929-97.955 102.83-191.82 164.62-281.03 24.425-31.313 64.795-69.912 90.103-100.29 4.9671-12.376-20.429 14.648-32.34 12.304-5.8709 4.6228-23.332-3.5908-19.813-14.738 2.0945-8.0494 17.149-20.814 3.8581-23.173l-2.4192 0.6048-0.6978 0.1745z" style="color:#000000" fill="#803300"/>
  <path id="path3853" stroke-linejoin="round" d="m3076.3 2067.5c-14.469 23.313-14.469 41.446 0.0002 54.398 15.558 4.5132 32.932-0.7278 54.259-27.199" stroke="#000" stroke-linecap="round" stroke-width="13.393" fill="none"/>
  <path id="path3853-6" stroke-linejoin="round" d="m2350.7 1849.8c-10.984 16.031-10.984 28.5 0.0002 37.406 11.811 3.1035 25.002-0.5004 41.193-18.703" stroke="#000" stroke-linecap="round" stroke-width="9.6765" fill="none"/>
  <path id="path3890" d="m2087.4 174.31a32.62 15.869 0 1 1 -0.7851 -0.93256" style="color:#000000" fill="#808080" transform="translate(-5.2897 -3.5265)"/>
  <path id="path3913-06" d="m713.45 1521.5a10.579 10.579 0 1 1 -0.25461 -0.6217" style="color:#000000" fill="#d40000" transform="matrix(1.0833 0 0 1 317.84 -213.35)"/>
  <path id="path3913-5" d="m713.45 1521.5a10.579 10.579 0 1 1 -0.25461 -0.6217" style="color:#000000" fill="#d40000" transform="translate(439.05 -201.01)"/>
  <path id="path3913-9" d="m713.45 1521.5a10.579 10.579 0 1 1 -0.25461 -0.6217" style="color:#000000" fill="#d40000" transform="translate(372.04 -153.4)"/>
  <path id="path3913-64" d="m713.45 1521.5a10.579 10.579 0 1 1 -0.25461 -0.6217" style="color:#000000" fill="#d40000" transform="translate(405.55 -204.54)"/>
  <path id="path4103" opacity=".79" stroke-linejoin="round" d="m459.52 789.23c13.105-1.5704 9.9756-3.8787 6.1859-2.6853-3.924 1.2357-6.1859 2.6853-6.1859 2.6853z" transform="matrix(.99746 .071236 -.071236 .99746 57.212 -31.413)" filter="url(#filter4171)" stroke="#5d3a17" stroke-linecap="round" stroke-width="17.6" fill="none"/>
  <path id="path4175" d="m620.55 750.81a1.7632 2.2041 0 1 1 -0.0424 -0.12953" style="color:#000000" fill="#fff" transform="matrix(5.1565 3.4555 -3.6168 4.8115 150.27 -5005)"/>
  <flowRoot id="flowRoot4308" xml:space="preserve" font-family="Bitstream Vera Sans" font-size="40px" fill="black">
    <flowRegion id="flowRegion4310">
      <rect id="rect4312" y="-441.32" width="937.59" x="-3151.9" height="478.77"/>
    </flowRegion>
    <flowPara id="flowPara4314"/>
  </flowRoot>
  <flowRoot id="flowRoot4316" xml:space="preserve" font-family="Bitstream Vera Sans" font-size="40px" fill="black">
    <flowRegion id="flowRegion4318">
      <rect id="rect4320" y="-471.25" width="1087.2" x="-3072.1" height="638.36"/>
    </flowRegion>
    <flowPara id="flowPara4322"/>
  </flowRoot>
  <g id="g4439" transform="matrix(.97096 0 0 .97841 -2466.1 -290.64)">
    <rect id="rect4306" ry="84.812" style="color:#000000" rx="77.717" transform="rotate(-15.401)" height="309.91" width="458.27" y="4056.3" x="3737.3" fill="#5df"/>
    <g id="flowRoot4324" transform="matrix(.42972 -.11837 .090374 .32807 6021.2 2765.1)">
      <path id="path4411" d="m-2870.6-300.05c-0.1628 1.9532-0.3256 3.418-0.4883 4.3945-0.1628 0.81387-0.3255 1.4649-0.4883 1.9531v4.1504c3.0924 2.1159 6.5918 3.6622 10.498 4.6387 4.0689 0.97662 8.2193 1.6277 12.451 1.9531 4.2318 0.16282 8.4635 0.16282 12.695 0 4.2317-0.1627 8.1379-0.24408 11.719-0.24414 6.5103 0.00006 12.939-0.0813 19.287-0.24414 6.3476-0.1627 12.858-0.40684 19.531-0.73242 0.3254 0.00006 2.1157 0.00006 5.3711 0 3.4178 0.00006 7.0799-0.24408 10.986-0.73242 3.9061-0.48823 7.4054-1.302 10.498-2.4414 3.2551-1.302 4.8827-3.1738 4.8829-5.6152-0.0002-0.9765-0.0002-1.8717 0-2.6856-0.0002-0.97649-0.082-1.8717-0.2442-2.6856-2.6043-11.556-6.185-22.542-10.742-32.959-4.5574-10.579-11.312-19.857-20.264-27.832-3.4181-3.0923-7.243-5.5337-11.475-7.3242-4.0691-1.953-8.3008-3.662-12.695-5.127-4.3946-1.4647-8.7891-2.8482-13.184-4.1504-4.2318-1.4647-8.3008-3.0923-12.207-4.8828-5.6967-2.604-10.742-5.9406-15.137-10.01-4.2318-4.0688-7.8126-8.6261-10.742-13.672-2.9297-5.0454-5.2084-10.416-6.8359-16.113-1.4649-5.8592-2.1973-11.881-2.1973-18.066 0-9.2771 1.3834-16.601 4.1504-21.973 2.9296-5.3709 6.7545-9.4399 11.475-12.207 4.72-2.7667 10.091-4.4757 16.113-5.127 6.1848-0.81356 12.451-1.2205 18.799-1.2207h7.3242c17.578 0.00025 30.436 2.1975 38.574 6.5918 8.1379 4.232 12.207 11.882 12.207 22.949v3.1738l-0.2442 0.73242c-0.0001 2.4416-0.6512 4.9644-1.9531 7.5684-0.3257 0.48849-0.8953 1.3837-1.709 2.6855-0.6512 1.3023-1.7091 1.9533-3.1738 1.9531h-0.9766c0.1627 0.0002-0.082-0.0812-0.7324-0.24414-0.6512-0.32532-1.465-0.89498-2.4414-1.709-0.8139-0.97635-1.6277-2.3598-2.4414-4.1504-0.6512-1.9529-0.9767-4.5571-0.9766-7.8125-0.0001-0.97634-0.8953-1.7088-2.6855-2.1973-1.6277-0.65082-3.5809-1.1391-5.8594-1.4648-2.116-0.32529-4.2319-0.56944-6.3476-0.73242-2.116-0.3253-3.5809-0.48806-4.3946-0.48828l-15.869-0.73242c0.1626 0.00022-0.0001 0.0816-0.4883 0.24414-0.4884 0.00022-1.058 0.00022-1.709 0 0.3254 0.00022 0.651 0.00022 0.9766 0 0.3254-0.16254 0.6509-0.24392 0.9765-0.24414-0.3256 0.00022-0.8139 0.00022-1.4648 0-0.6511 0.00022-1.3022 0.00022-1.9531 0-0.4884 0.00022-0.8953 0.0816-1.2207 0.24414-0.1629 0.00022-0.081 0.00022 0.2441 0h1.9531c-5.3711 0.65126-9.9284 1.2209-13.672 1.709-3.5808 0.48851-6.7547 1.0582-9.5215 1.709-2.767 0.65126-5.3712 1.3837-7.8125 2.1973-2.2787 0.81402-4.7201 1.7906-7.3242 2.9297v0.24414c-0.0001 0.16298-0.081 0.32574-0.2442 0.48828v3.9062l0.7324 5.3711c2.2786 6.8361 5.4525 12.126 9.5215 15.869 4.2317 3.5809 8.9518 6.5106 14.16 8.7891 5.2082 2.1161 10.661 3.9064 16.357 5.3711 5.8593 1.3023 11.556 3.0112 17.09 5.127 1.7903 0.81397 3.4993 1.7092 5.127 2.6855 1.7902 0.81397 3.5806 1.6278 5.3711 2.4414l4.3945 2.9297c6.9986 5.0457 13.265 11.149 18.799 18.311 5.6964 7.1616 10.498 14.893 14.404 23.193 4.0688 8.3009 7.324 16.927 9.7656 25.879 2.4412 8.7892 4.0688 17.415 4.8828 25.879 0.3253 3.7436 0.3253 7.4057 0 10.986-0.1629 3.418-0.5698 6.9988-1.2207 10.742-1.1395 6.5105-3.7437 11.963-7.8125 16.357-4.0692 4.2318-8.952 7.6498-14.648 10.254-5.534 2.6042-11.556 4.5573-18.066 5.8594-6.5105 1.3021-12.94 2.1973-19.287 2.6855-6.185 0.48829-11.963 0.73243-17.334 0.73242-5.2084-0.16275-9.3588-0.24413-12.451-0.24414h-7.0801c-2.9298 0.16277-6.1036 0.32553-9.5215 0.48828-3.2553 0.16278-6.6732 0.24416-10.254 0.24415-6.0222 0.00001-11.637-0.32552-16.846-0.97657-5.2084-0.81379-9.9284-2.1972-14.16-4.1504-4.069-2.1159-7.6497-4.9642-10.742-8.5449-2.9297-3.7435-5.2898-8.5449-7.0801-14.404 0-0.16272-0.081-0.2441-0.2442-0.24414v-0.48828c-0.9765-2.6041-1.6276-5.2897-1.9531-8.0566s-0.5697-5.5338-0.7324-8.3008c-0.3255-4.8828-0.1628-10.172 0.4883-15.869 0.651-5.6965 1.3834-10.823 2.1972-15.381l27.344 15.869"/>
      <path id="path4413" d="m-2605.5-273.68c2.1158-0.32548 4.0689-0.73238 5.8594-1.2207 1.7902-0.48823 3.3365-1.302 4.6387-2.4414 1.4647-1.302 2.604-3.011 3.4179-5.127 0.9765-2.2786 1.5461-5.371 1.709-9.2774-0.4884-10.091-1.2208-20.019-2.1973-29.785-0.9766-9.9283-1.8718-20.019-2.6855-30.273-0.0001 0.00012-0.0001-1.5461 0-4.6387 0.1626-3.2551 0.081-6.9986-0.2441-11.23-0.3257-4.3944-0.8953-8.6262-1.709-12.695-0.814-4.2316-2.1974-7.3241-4.1504-9.2773-1.7905-1.4647-3.9878-2.604-6.5918-3.418-2.4415-0.9764-5.1271-1.7088-8.0567-2.1973-2.9297-0.48812-5.9408-0.81364-9.0332-0.97657-3.0925-0.16259-6.0222-0.24397-8.789-0.24414-4.8829 0.00017-10.091 0.16293-15.625 0.48828-5.3712 0.32569-10.335 1.0581-14.893 2.1973-4.3946 0.97673-8.0567 2.523-10.986 4.6387-2.9298 1.9533-4.3946 4.6388-4.3946 8.0566-0.8138 8.7892-1.4648 17.66-1.9531 26.611-0.4883 8.7892-1.1393 17.578-1.9531 26.367-0.3256 4.2319-0.7325 8.7892-1.2207 13.672-0.3256 4.7201-0.5697 9.4402-0.7324 14.16-0.0001 4.7201 0.081 9.1146 0.2441 13.184 0.3255 4.0691 0.8952 7.4056 1.709 10.01 0.4882 1.4649 2.7669 2.6042 6.8359 3.418 4.2318 0.65108 8.8704 1.058 13.916 1.2207 5.2083 0.1628 10.091 0.24418 14.648 0.24414 4.72-0.16272 7.8124-0.2441 9.2773-0.24414l32.959-1.2207m-31.738-147.22c2.9296-0.16257 5.6966-0.24395 8.3008-0.24414 2.6041-0.16257 5.2896-0.24395 8.0567-0.24414 4.7199 0.00019 9.4399 0.40709 14.16 1.2207 4.7199 0.65123 8.9517 2.2788 12.695 4.8828 3.2551 2.2788 5.9406 5.4526 8.0567 9.5215 2.1157 3.9064 3.8247 8.301 5.1269 13.184 1.302 4.883 2.2785 10.01 2.9297 15.381 0.6509 5.2085 1.2206 10.173 1.709 14.893 0.8136 5.534 1.5461 11.068 2.1973 16.602 0.8136 5.534 1.4646 11.068 1.9531 16.602 0.8136 6.6733 1.8716 14.16 3.1738 22.461 1.3019 8.3008 1.953 16.602 1.9531 24.902-0.0001 4.8829-0.407 9.7657-1.2207 14.648-0.6512 4.7201-1.8719 9.196-3.6621 13.428-1.6277 4.2318-3.9878 8.0567-7.0801 11.475-2.9298 3.418-6.6733 6.2663-11.23 8.5449-3.4181 1.6276-7.3244 3.0111-11.719 4.1504-4.2319 1.1393-9.2774 1.9531-15.137 2.4414-5.6967 0.48828-12.288 0.65104-19.775 0.48828-7.487 0-16.195-0.40691-26.123-1.2207-8.7891-0.65105-16.195-2.4414-22.217-5.3711-6.0222-3.0924-10.905-6.9173-14.648-11.475-3.7435-4.5573-6.5104-9.7656-8.3008-15.625-1.6276-5.8593-2.4414-12.126-2.4414-18.799 0-5.0455 0.3256-10.172 0.9766-15.381 0.651-5.371 1.3835-10.579 2.1973-15.625 0.9765-5.2082 1.8717-10.254 2.6855-15.137 0.9766-5.0455 1.709-9.8469 2.1973-14.404 1.6276-15.299 3.0924-28.157 4.3945-38.574 1.4648-10.417 3.9062-18.799 7.3242-25.146 3.5807-6.3475 8.7077-10.823 15.381-13.428 6.6731-2.7667 16.276-4.1502 28.809-4.1504 1.6275 0.00019 3.1737 0.0816 4.6387 0.24414 1.4647 0.00019 3.0109-0.0812 4.6386-0.24414"/>
      <path id="path4415" d="m-2402.6-213.14c-2.7671-6.6732-5.7782-13.753-9.0332-21.24-3.0926-7.487-6.2664-15.706-9.5215-24.658-2.4416 6.0222-5.6968 10.905-9.7656 14.648-3.9064 3.7435-8.3823 6.6732-13.428 8.7891-4.8829 2.1159-10.091 3.5807-15.625 4.3945-5.5339 0.65104-10.986 0.97656-16.357 0.97656-6.9988 0-13.509-0.24414-19.531-0.73242-13.672-1.1393-24.658-6.0221-32.959-14.648-8.3008-8.6263-12.451-21.484-12.451-38.574 0-12.37 0.7324-23.763 2.1973-34.18 1.4648-10.579 2.6041-20.752 3.4179-30.518 0.9766-9.9283 1.1393-19.857 0.4883-29.785-0.651-9.9282-3.0925-20.67-7.3242-32.227-0.9766-2.4412-1.4649-5.0454-1.4649-7.8125 0-3.255 0.5697-6.1847 1.709-8.7891 1.3021-2.7667 2.8483-4.1502 4.6387-4.1504 2.2786 0.00021 4.4759 1.9533 6.5918 5.8594 5.0455 11.719 8.6263 23.6 10.742 35.645 2.1158 12.044 3.1738 24.333 3.1738 36.865 0 10.742-0.8138 21.322-2.4414 31.738-1.4649 10.254-2.1973 20.671-2.1973 31.25 0 2.1159-0.081 4.7201-0.2441 7.8125 0 2.9297 0.651 5.2898 1.9531 7.0801 2.2786 3.5808 5.9407 6.1036 10.986 7.5684 5.2082 1.3021 10.824 1.9532 16.846 1.9531 6.3475 0.00003 12.37-0.40687 18.066-1.2207 5.8593-0.81376 11.068-1.9531 15.625-3.418 4.5572-1.6276 8.3006-3.4179 11.23-5.3711 3.0924-2.1158 5.0455-4.3945 5.8594-6.8359 1.302-4.2317 2.5227-8.789 3.6621-13.672 1.1392-4.8827 2.0344-9.9283 2.6856-15.137-0.0002-0.65096-0.082-1.1392-0.2442-1.4648-1.4649-10.417-2.4415-21.077-2.9297-31.982-0.0001-6.3475 0.2441-12.614 0.7325-18.799 0.6509-6.3475 1.3833-12.614 2.1972-18.799 0.3254-1.1392 0.8137-3.0923 1.4649-5.8594 0.6509-2.9295 1.4647-6.1847 2.4414-9.7656 0.9764-3.7433 2.0344-7.5682 3.1738-11.475 1.302-4.0688 2.604-7.7309 3.9063-10.986 1.4647-3.255 2.9295-5.9406 4.3945-8.0566 1.4647-2.1157 3.0109-3.1736 4.6387-3.1738 1.7902 0.00021 3.255 1.3837 4.3945 4.1504 1.3019 2.6044 1.953 5.2899 1.9531 8.0566-0.0001 1.7906-0.2443 3.4182-0.7324 4.8828-0.4884 1.3023-0.7326 2.523-0.7324 3.6621-1.7905 4.2319-3.2554 8.7078-4.3946 13.428-1.1394 4.5575-2.116 9.1147-2.9296 13.672-0.814 5.0457-1.3836 9.2775-1.709 12.695-0.1629 3.2553-0.2443 6.2664-0.2442 9.0332 1.1392 20.345 4.9641 40.365 11.475 60.059 6.5103 19.694 16.032 39.388 28.564 59.082l-22.949 30.029"/>
      <path id="path4417" d="m-2285.4-394.04c-2.9298 0.32568-5.8595 0.56983-8.7891 0.73242-2.9298 0.16293-5.8594 0.24431-8.7891 0.24414-1.4649 0.00017-2.9297 0.00017-4.3945 0-1.4649 0.00017-2.9297-0.0812-4.3945-0.24414-0.8139 15.625-1.7904 31.169-2.9297 46.631-0.9766 15.462-1.4649 31.087-1.4648 46.875 0.1627 0.16283 0.244 0.48835 0.2441 0.97656 3.7434 5.8594 8.789 11.312 15.137 16.357 6.3476 4.8829 12.695 9.196 19.043 12.939 6.6731 3.9063 12.858 8.6263 18.555 14.16 5.6965 5.5339 10.986 11.312 15.869 17.334-0.1629 0.16277-0.2443 0.40691-0.2441 0.73242 0.3254 1.3021 0.6509 2.6856 0.9765 4.1504 0.3254 1.4648 0.4882 3.0111 0.4883 4.6387-0.0001 3.418-0.7325 6.2663-2.1973 8.5449-1.3022 2.4414-3.5808 2.9297-6.8359 1.4648-0.1629 0.16275-0.2442 0.40689-0.2441 0.73242-6.6733-6.9987-13.591-13.184-20.752-18.555-7.1615-5.3711-14.974-10.417-23.438-15.137-6.5105-3.5807-11.963-7.08-16.357-10.498-4.2318-3.5807-7.6498-7.1614-10.254-10.742-2.6042-3.5807-4.6387-7.3242-6.1035-11.23-1.3021-4.069-2.2787-8.4635-2.9297-13.184v-3.418c0-0.32545-0.081-1.5462-0.2442-3.6621v-39.55c0-2.4413-0.081-5.7779-0.2441-10.01 0-4.3944-0.081-9.1144-0.2441-14.16-0.0001-5.0454-0.081-10.091-0.2442-15.137 0-5.2082-0.081-9.8468-0.2441-13.916-2.1159-0.48811-4.8829-1.1392-8.3008-1.9531-3.2552-0.97639-6.5104-2.1971-9.7656-3.6621-3.2552-1.6274-6.1035-3.7433-8.5449-6.3477-2.2787-2.604-3.418-5.8592-3.418-9.7656v-1.709c0-2.7667 0.8138-5.2081 2.4414-7.3242 1.6276-2.2784 4.069-3.0109 7.3242-2.1973 2.7669 0.65124 4.9642 1.2209 6.5918 1.709 1.7903 0.48848 3.9876 0.89538 6.5918 1.2207-0.8138-0.16257-1.709-0.32533-2.6855-0.48829-0.8139-0.16256-1.1394-0.24394-0.9766-0.24414 0 0.0002 0.081-0.0812 0.2441-0.24414 1.3021-0.16256 2.6042-0.16256 3.9063 0 1.4648 0.16296 2.8483 0.24434 4.1504 0.24414h2.1972c0-1.7902-0.081-3.5805-0.2441-5.3711v-28.32h29.297c-0.3256 4.883-0.6511 9.7658-0.9766 14.648-0.3256 4.7203-0.6511 9.6031-0.9766 14.648 3.418-0.97636 6.5918-2.1157 9.5215-3.418 3.0924-1.3019 5.2897-2.604 6.5918-3.9062 0.1627-0.16255 0.081-0.24393-0.2441-0.24414-0.1628 0.16297-0.407 0.32573-0.7324 0.48828-0.1629 0.00021-0.407 0.0816-0.7325 0.24414-0.1628 0.00021-0.5697 0.16297-1.2207 0.48829-0.4883 0.32573-1.058 0.65125-1.7089 0.97656-0.6512 0.32573-1.2208 0.65125-1.709 0.97656-0.4884 0.16297-0.7325 0.0816-0.7324-0.24414-0.1629 0.00021-0.0001-0.24393 0.4882-0.73242l0.9766-0.97656c0.8137-0.8136 1.7903-1.3019 2.9297-1.4648 1.302-0.32531 2.4413-0.81359 3.418-1.4648l7.3242 47.363"/>
      <path id="path4419" d="m-2175.1-484.62c2.1159 10.254 3.6621 20.508 4.6387 30.762 0.9765 10.254 1.4648 20.345 1.4648 30.273 1.7903-1.7902 4.069-3.3364 6.836-4.6387 2.7668-1.3019 5.6151-2.3598 8.5449-3.1738 3.0924-0.97636 6.1848-1.6274 9.2774-1.9531 3.0923-0.48808 5.8592-0.73222 8.3007-0.73242 9.9283 0.0002 18.148 2.2788 24.658 6.8359 6.5103 4.5575 11.8 10.417 15.869 17.578 4.0688 6.9989 7.2427 14.811 9.5215 23.438 2.2785 8.6264 4.1502 17.009 5.6152 25.146 3.4178 19.369 7.4054 37.598 11.963 54.688 4.7199 17.09 10.661 34.342 17.822 51.758 1.3018 3.418 2.7667 6.9173 4.3945 10.498 1.6274 3.418 2.8481 6.9987 3.6621 10.742v3.9062c-0.0002 2.7669-0.5699 5.4525-1.709 8.0566-0.9767 2.7669-2.523 4.1504-4.6387 4.1504h-0.4882c-1.7906-0.65105-3.4996-2.0345-5.127-4.1504-7.3244-15.462-14.16-31.006-20.508-46.631-6.3478-15.788-11.719-31.982-16.113-48.584-1.465-5.371-2.8484-10.823-4.1504-16.357-1.3022-5.5338-2.6043-11.068-3.9062-16.602-1.3023-4.7199-2.4416-9.5214-3.418-14.404-0.9767-4.8827-2.4415-9.6027-4.3945-14.16-0.0002 0.16291-0.2443-0.16261-0.7325-0.97656-0.4884-0.81365-1.1394-1.7902-1.9531-2.9297-0.8139-1.3019-1.7091-2.6854-2.6855-4.1504-0.9767-1.4647-1.9533-2.6854-2.9297-3.6621-2.2788-1.7902-4.8016-3.0109-7.5684-3.6621-2.767-0.81364-5.6967-1.2205-8.789-1.2207-7.8126 0.00016-14.567 1.7092-20.264 5.127-5.6967 3.2554-10.01 7.9754-12.94 14.16l-1.4648 3.1738c-0.3256 0.65118-0.4884 1.0581-0.4883 1.2207-1.7904 1.9533-3.1739 4.476-4.1504 7.5684-0.9766 3.0926-1.9532 6.8361-2.9297 11.23-0.9766 4.2319-2.2787 9.1147-3.9062 14.648-1.4649 5.3712-3.7436 11.312-6.836 17.822-4.3945 16.439-9.6029 32.471-15.625 48.096-5.8594 15.462-12.126 31.087-18.799 46.875-0.3255 0.48828-0.8138 1.4648-1.4648 2.9297-0.6511 1.4648-1.2207 2.36-1.709 2.6856-2.2787 2.4414-4.5573 2.5228-6.8359 0.24414-2.2787-2.1159-3.418-5.6152-3.418-10.498v-1.9531l0.7324-4.8828c3.0924-8.789 6.1849-17.659 9.2774-26.611 3.2551-8.9518 6.2662-17.985 9.0332-27.1 1.1393-4.2317 2.36-8.9518 3.6621-14.16 1.4648-5.371 3.011-11.719 4.6386-19.043 1.6276-7.3241 3.3366-15.788 5.127-25.391 1.7903-9.7655 3.6621-21.077 5.6152-33.936v-0.24414c0.3255-4.7199 0.5696-9.5213 0.7324-14.404 0.3255-5.0454 0.4069-10.01 0.2442-14.893-0.1628-5.2081-0.407-10.742-0.7324-16.602-0.3256-5.8592-1.1394-11.393-2.4414-16.602v-0.73242c-0.1628-0.65083-0.3256-1.3832-0.4883-2.1973-0.1628-0.97634-0.4883-2.2784-0.9766-3.9062-0.4883-1.6274-1.1393-3.7433-1.9531-6.3477-0.6511-2.6039-1.5463-6.0219-2.6856-10.254l27.588-15.869"/>
      <path id="path4421" d="m-2690.9-9.1813c4.8827 0.65122 9.7655 1.1395 14.648 1.4648 4.8827 0.16294 9.7656 0.24432 14.648 0.24414 5.2082 0.0001777 10.335-0.081202 15.381-0.24414 5.0455-0.32534 10.091-0.895 15.137-1.709 1.1392 0.0001797 2.0344-0.16258 2.6856-0.48828 6.1847-3.255 11.23-7.4054 15.137-12.451 3.9061-5.0454 5.6151-11.23 5.127-18.555-1.7906-1.1391-4.4761-2.0343-8.0567-2.6855-3.4181-0.65083-7.243-1.1391-11.475-1.4648-3.7436 0.000216-7.4057 0.0816-10.986 0.24414-3.5809 0.16298-7.243 0.16298-10.986 0-7.8127-0.3253-15.381-1.0577-22.705-2.1973-7.3243-1.3019-14.486-3.1736-21.484-5.6152v0.48828c0.8137 2.7671 1.302 5.6155 1.4648 8.5449 0.1627 2.9299 0.4069 5.8596 0.7325 8.7891l0.7324 23.438v2.1973m1.4648 48.34c-1.1394-0.16263-2.2787-0.24401-3.4179-0.24414-0.9767-0.16263-2.0346-0.24401-3.1739-0.24414-2.9297 18.718-7.6498 37.109-14.16 55.176-6.5105 18.066-13.509 35.726-20.996 52.979-0.4883 1.1394-1.5463 3.6621-3.1738 7.5684-1.4649 3.9063-3.2553 7.9753-5.3711 12.207-1.9532 4.069-4.0691 7.7311-6.3477 10.986-2.1159 3.418-3.9876 5.1269-5.6152 5.127h-0.4883c-1.7904-0.00001-2.9297-0.89519-3.418-2.6855-0.3255-1.6276-0.9765-3.418-1.9531-5.3711v-0.73242c-0.3255-1.7904-0.4883-3.5807-0.4883-5.3711 0.1628-1.7904 0.4069-3.418 0.7324-4.8828 6.1849-13.672 12.126-27.506 17.822-41.504 5.8594-14.16 10.986-28.564 15.381-43.213 4.5572-14.648 8.1379-29.541 10.742-44.678 2.6041-15.299 3.8248-30.843 3.6621-46.631-0.1629-10.254-1.1394-19.857-2.9297-28.809-1.6277-9.1144-3.8249-17.415-6.5918-24.902-0.3256-1.4646-0.8139-2.9294-1.4649-4.3945-0.4883-1.6274-0.7324-3.4991-0.7324-5.6152-0.1628-1.7901-0.1628-3.6619 0-5.6152 0.1627-2.1156 0.4883-4.0688 0.9766-5.8594 0.651-1.7901 1.4648-3.3363 2.4414-4.6387 1.1393-1.3018 2.6041-2.197 4.3945-2.6855h0.7324c0.8138-0.1625 2.2786-0.08111 4.3946 0.24414 9.2772 5.2086 18.88 8.4638 28.809 9.7656 9.9283 1.3023 20.101 1.9534 30.518 1.9531h16.846c1.7903-0.16251 3.5806-0.24389 5.3711-0.24414 1.953-0.16251 3.9061-0.24389 5.8594-0.24414 8.1379 0.000254 14.648 1.3023 19.531 3.9062 4.8826 2.6044 8.6261 5.8596 11.23 9.7656 2.7668 3.9065 4.5571 8.2196 5.3711 12.939 0.9764 4.7203 1.6274 9.2776 1.9531 13.672 0.4881 7.1617 0.081 14.567-1.2207 22.217-1.3022 7.4872-3.4995 14.649-6.5918 21.484-3.0926 6.8361-7.0802 13.102-11.963 18.799-4.883 5.6968-10.742 10.173-17.578 13.428-4.5574 2.116-9.4402 3.4181-14.648 3.9062-5.2085 0.32565-10.173 0.81394-14.893 1.4648h-1.4648c-3.7436 0.81393-8.0568 1.2208-12.94 1.2207-4.7201 0.00013-9.2774 0.00013-13.672 0-1.9532 0.00013-3.9063 0.00013-5.8593 0-1.9532 0.00013-3.825-0.08125-5.6153-0.24414"/>
      <path id="path4423" d="m-2464.4 126.32c2.1158-0.32548 4.0689-0.73238 5.8594-1.2207 1.7902-0.48823 3.3364-1.302 4.6386-2.4414 1.4648-1.302 2.6041-3.011 3.418-5.127 0.9764-2.2786 1.5461-5.371 1.709-9.2774-0.4884-10.091-1.2208-20.019-2.1973-29.785-0.9767-9.9283-1.8718-20.019-2.6855-30.273-0.0001 0.000122-0.0001-1.5461 0-4.6387 0.1626-3.2551 0.081-6.9986-0.2442-11.23-0.3256-4.3944-0.8953-8.6262-1.7089-12.695-0.814-4.2316-2.1974-7.3241-4.1504-9.2773-1.7905-1.4647-3.9878-2.604-6.5918-3.418-2.4415-0.9764-5.1271-1.7088-8.0567-2.1973-2.9298-0.48812-5.9408-0.81364-9.0332-0.97656-3.0925-0.16259-6.0222-0.24397-8.789-0.24414-4.8829 0.0001668-10.091 0.16293-15.625 0.48828-5.3712 0.32569-10.335 1.0581-14.893 2.1973-4.3946 0.97673-8.0567 2.5229-10.986 4.6387-2.9298 1.9533-4.3946 4.6388-4.3946 8.0566-0.8138 8.7892-1.4649 17.66-1.9531 26.611-0.4883 8.7892-1.1394 17.578-1.9531 26.367-0.3256 4.2319-0.7325 8.7892-1.2207 13.672-0.3256 4.7201-0.5697 9.4402-0.7325 14.16 0 4.7201 0.081 9.1146 0.2442 13.184 0.3255 4.0691 0.8951 7.4056 1.709 10.01 0.4882 1.4649 2.7669 2.6042 6.8359 3.418 4.2317 0.65108 8.8704 1.058 13.916 1.2207 5.2083 0.1628 10.091 0.24418 14.648 0.24414 4.7199-0.16272 7.8124-0.2441 9.2773-0.24414l32.959-1.2207m-31.738-147.22c2.9296-0.16257 5.6965-0.24395 8.3008-0.24414 2.6041-0.16257 5.2896-0.24395 8.0566-0.24414 4.72 0.000192 9.44 0.40709 14.16 1.2207 4.7199 0.65123 8.9517 2.2788 12.695 4.8828 3.2551 2.2788 5.9406 5.4527 8.0566 9.5215 2.1158 3.9064 3.8248 8.3009 5.127 13.184 1.3019 4.883 2.2785 10.01 2.9297 15.381 0.6509 5.2085 1.2205 10.173 1.709 14.893 0.8136 5.534 1.546 11.068 2.1972 16.602 0.8137 5.534 1.4647 11.068 1.9532 16.602 0.8136 6.6733 1.8716 14.16 3.1738 22.461 1.3019 8.3008 1.953 16.602 1.9531 24.902-0.0001 4.8829-0.407 9.7657-1.2207 14.648-0.6512 4.7201-1.8719 9.196-3.6621 13.428-1.6278 4.2318-3.9878 8.0567-7.0801 11.475-2.9298 3.418-6.6733 6.2663-11.23 8.5449-3.4181 1.6276-7.3244 3.0111-11.719 4.1504-4.2319 1.1393-9.2775 1.9531-15.137 2.4414-5.6967 0.48828-12.288 0.65104-19.775 0.48828-7.4871 0-16.195-0.40691-26.123-1.2207-8.7891-0.65105-16.195-2.4414-22.217-5.3711-6.0221-3.0924-10.905-6.9173-14.648-11.475-3.7435-4.5573-6.5104-9.7656-8.3008-15.625-1.6276-5.8593-2.4414-12.126-2.4414-18.799 0-5.0455 0.3255-10.172 0.9766-15.381 0.651-5.371 1.3834-10.579 2.1973-15.625 0.9765-5.2082 1.8717-10.254 2.6855-15.137 0.9765-5.0455 1.709-9.8469 2.1973-14.404 1.6275-15.299 3.0924-28.157 4.3945-38.574 1.4648-10.417 3.9062-18.799 7.3242-25.146 3.5807-6.3475 8.7077-10.823 15.381-13.428 6.6731-2.7667 16.276-4.1502 28.809-4.1504 1.6275 0.000191 3.1737 0.08157 4.6386 0.24414 1.4648 0.000191 3.011-0.08119 4.6387-0.24414"/>
      <path id="path4425" d="m-2343.8 184.67c0.9765 2.9297 0.8137 4.72-0.4883 5.3711-1.3022 0.65102-2.9298 0.7324-4.8828 0.24414-1.9532-0.32554-3.825-0.81382-5.6153-1.4648-1.7904-0.65106-2.6856-0.73244-2.6855-0.24414h-31.738c0.3255-12.207 0.7324-26.204 1.2207-41.992s0.9765-31.982 1.4649-48.584c0.651-16.601 1.1392-32.959 1.4648-49.072 0.4882-16.276 0.8951-31.006 1.2207-44.189 0.4883-13.346 0.8138-24.495 0.9766-33.447 0.3255-9.1144 0.4882-14.811 0.4882-17.09-4.2318-0.97634-7.9752-2.5226-11.23-4.6387-3.0925-2.1157-6.0222-4.6384-8.7891-7.5684l-1.4648-1.4648c-1.4649-1.7901-2.767-3.5805-3.9063-5.3711-0.9765-1.9529-1.4648-4.2315-1.4648-6.8359 0-2.2784 0.1627-4.8826 0.4883-7.8125 0.4882-2.9294 1.8717-4.8826 4.1503-5.8594 0.9766-0.32526 2.0345-0.1625 3.1739 0.48828 1.1393 0.48854 2.2786 1.221 3.4179 2.1973 1.1393 0.97682 2.2787 2.1161 3.418 3.418 1.1393 1.1396 2.1973 2.0348 3.1738 2.6855l0.4883 0.48828c2.4414 1.3023 4.3131 2.1975 5.6153 2.6855 1.4648 0.32576 3.5807 0.81404 6.3476 1.4648h0.7324c0.3255 0.000242 0.9766 0.08162 1.9532 0.24414 1.1392 0.000242 2.2786 0.163 3.4179 0.48828 1.3021 0.163 2.4414 0.5699 3.418 1.2207 0.9765 0.65128 1.4648 1.5465 1.4648 2.6855l0.7325 1.4648c0.1627 0.32576 0.2441 0.5699 0.2441 0.73242 0 0.000235 0.081 0.163 0.2441 0.48828l0.7325 4.6387c0.4882 1.9534 0.651 4.0692 0.4882 6.3477-0.1628 2.2789-0.1628 4.4761 0 6.5918l1.4649 54.199c0.1627 4.2319 0.3255 10.254 0.4883 18.066 0.1627 7.6499 0.4068 16.439 0.7324 26.367 0.4882 9.7657 1.1393 20.427 1.9531 31.982 0.8138 11.393 1.9531 22.949 3.418 34.668 1.4648 11.719 3.2551 23.275 5.3711 34.668 2.2786 11.393 5.0455 21.973 8.3008 31.738"/>
      <path id="path4427" d="m-2297.6 33.543c-0.1628 0.9767-0.2441 2.0346-0.2441 3.1738 0 0.9767-0.081 2.116-0.2441 3.418 2.4413 0.32565 4.8013 0.48841 7.08 0.48828 2.4414 0.000129 4.8014 0.000129 7.0801 0 10.254 0.000129 20.264-0.65091 30.029-1.9531 9.9283-1.302 20.426-2.5227 31.494-3.6621-0.0002-3.4178-0.2443-6.9172-0.7325-10.498-0.3256-3.5806-1.7091-6.673-4.1504-9.2773-3.7436-1.7902-8.7891-3.1737-15.137-4.1504-6.3477-1.1392-12.94-1.7088-19.775-1.709-6.1849 0.0001609-12.044 0.56982-17.578 1.709-5.5339 0.97672-9.9284 2.7671-13.184 5.3711-1.3021 2.2788-2.1973 4.5574-2.6855 6.8359-0.3256 2.2788-0.8953 5.0457-1.709 8.3008v1.2207c-0.0001 0.1629-0.081 0.32566-0.2442 0.48828v0.24414m91.797 31.738c-11.393 1.4649-22.705 2.6043-33.936 3.418-11.231 0.8139-22.461 1.2208-33.691 1.2207-4.7201 0.0001-9.5216-0.08128-14.404-0.24414-4.7201-0.16266-9.4402-0.4068-14.16-0.73242-0.8138 6.6733-1.5462 13.265-2.1973 19.775-0.4883 6.3477-0.7324 12.777-0.7324 19.287v7.3242c0 2.4415 0.1628 4.9642 0.4883 7.5684 1.9531 2.9297 4.4759 5.2084 7.5684 6.8359 3.2551 1.6276 6.6731 2.9297 10.254 3.9062 3.7434 0.81383 7.4869 1.3835 11.23 1.709 3.7435 0.32556 7.1614 0.65108 10.254 0.97656 1.9531 0.1628 4.3945 0.32556 7.3243 0.48828 2.9296 0.1628 6.022 0.24418 9.2773 0.24415 3.7434 0.00003 7.6497-0.16273 11.719-0.48829 4.0689-0.32548 7.8123-0.89514 11.23-1.709 3.5806-0.81377 6.7545-1.9531 9.5215-3.418 2.9296-1.6276 5.0455-3.6621 6.3477-6.1035 1.6274-2.9296 2.6854-6.2662 3.1738-10.01 0.4881-3.9062 0.895-7.5683 1.2207-10.986 0.4881-3.4179 1.1392-6.2662 1.9531-8.5449 0.9765-2.4413 2.6041-3.662 4.8828-3.6621 1.7903 0.000078 3.4179 1.3022 4.8828 3.9062 1.4647 2.4415 2.3599 5.5339 2.6856 9.2773-0.3257 4.2318-0.7326 8.545-1.2207 12.939-0.3257 4.3946-0.9767 8.7077-1.9531 12.939-1.465 7.3242-4.3947 13.184-8.7891 17.578-4.2319 4.3945-9.2775 7.7311-15.137 10.01-5.6967 2.2787-11.882 3.8249-18.555 4.6387-6.6733 0.65105-13.265 0.97657-19.775 0.97657-4.8829 0-10.661-0.16276-17.334-0.48829-6.6732-0.32551-13.265-1.3834-19.775-3.1738-6.3477-1.9531-12.126-4.8014-17.334-8.5449-5.0455-3.9062-8.4635-9.3587-10.254-16.357-1.3021-4.8828-2.2786-9.847-2.9296-14.893-0.4883-5.2083-0.7325-10.417-0.7325-15.625 0-10.579 0.7324-21.159 2.1973-31.738 1.4648-10.742 2.7669-20.996 3.9062-30.762 0.4883-4.3944 0.8138-8.8703 0.9766-13.428 0.3255-4.7199 0.7324-9.3586 1.2207-13.916 0.651-4.7199 1.6276-9.2772 2.9297-13.672 1.3021-4.3944 3.3366-8.4634 6.1035-12.207 2.6042-3.5805 5.8594-6.5102 9.7656-8.7891 3.9062-2.2785 8.138-4.0688 12.695-5.3711 4.5572-1.3019 9.2772-2.1971 14.16-2.6855 5.0455-0.65084 9.9283-0.97636 14.648-0.97656 10.417 0.000199 18.962 0.97676 25.635 2.9297 6.6731 1.9533 12.044 4.5575 16.113 7.8125 4.2316 3.2554 7.4055 7.0803 9.5215 11.475 2.1157 4.3947 3.662 9.1148 4.6386 14.16 0.9765 4.883 1.7089 9.9285 2.1973 15.137 0.4882 5.2085 1.302 10.335 2.4414 15.381 0.3254 5.3712-0.081 10.417-1.2207 15.137-0.9767 4.7202-3.9877 8.545-9.0332 11.475"/>
    </g>
  </g>
  <flowRoot id="flowRoot4340" xml:space="preserve" font-family="Bitstream Vera Sans" font-size="40px" fill="black">
    <flowRegion id="flowRegion4342">
      <rect id="rect4344" y="1563.5" width="1406.4" x="-2942.4" height="538.62"/>
    </flowRegion>
    <flowPara id="flowPara4346"/>
  </flowRoot>
  <g id="g4429" transform="translate(-2242.8 112.85)">
    <rect id="rect4338" ry="77.259" style="color:#000000" rx="79.593" transform="rotate(32.45)" height="288.31" width="570.62" y="-926.2" x="5016.1" fill="#a02c2c"/>
    <g id="flowRoot4348" transform="matrix(.32554 .20699 -.27945 .43949 6101.4 1888.3)">
      <path id="path4392" d="m-2742.7 1688.7c10.058 0.0002 17.92-2.5389 23.584-7.6171 5.664-5.078 8.496-12.06 8.4961-20.947-0.0001-5.7616-2.0021-10.156-6.0058-13.184-3.9064-3.0272-9.5705-4.5408-16.992-4.541h-31.494l-9.082 46.289h31.494m-16.699 95.654c12.89 0.0001 22.803-3.0761 29.736-9.2285 6.9334-6.1523 10.4-14.99 10.4-26.514-0.0002-7.3242-2.3928-12.744-7.1778-16.26-4.7853-3.5155-12.11-5.2734-21.973-5.2734h-33.252l-11.133 57.275h33.398m66.797-78.662c9.5701 2.7345 16.943 7.7638 22.119 15.088 5.2733 7.2267 7.91 16.211 7.9102 26.953-0.0002 23.535-8.7892 41.943-26.367 55.225-17.481 13.184-42.09 19.775-73.828 19.775h-93.604l42.627-218.7h84.522c25.976 0.0002 45.166 3.8088 57.568 11.426 12.5 7.6173 18.75 19.385 18.75 35.303-0.0002 13.379-3.6623 25.147-10.986 35.303-7.3244 10.059-16.895 16.602-28.711 19.629"/>
      <path id="path4394" d="m-2585.2 1604h152.05l-8.3496 42.627h-95.654l-7.9101 40.723h90.088l-8.4961 42.627h-89.941l-9.668 50.098h98.73l-8.0567 42.627h-155.42l42.627-218.7"/>
      <path id="path4396" d="m-2318.9 1701c12.793 0.0002 22.461-2.9784 29.004-8.9355 6.6404-5.9569 9.9607-14.697 9.9609-26.221-0.0002-7.2264-2.2951-12.5-6.8848-15.82-4.4923-3.4178-11.621-5.1268-21.387-5.127h-23.291l-11.133 56.104h23.73m-31.201 38.965-16.26 82.764h-56.396l42.627-218.7h83.35c24.023 0.0002 42.236 4.4924 54.639 13.476 12.402 8.9846 18.603 22.217 18.604 39.697-0.0002 17.676-4.883 32.227-14.648 43.652-9.7658 11.426-22.998 17.969-39.697 19.629 7.617 1.5626 13.965 5.4688 19.043 11.719 5.078 6.1524 9.5213 15.625 13.33 28.418l18.604 62.109h-56.104l-16.406-54.346c-3.3205-10.84-7.3732-18.262-12.158-22.266-4.6876-4.1015-11.524-6.1522-20.508-6.1523h-18.018"/>
      <path id="path4398" d="m-2149.3 1604h56.396l-34.277 176.07h98.73l-8.0567 42.627h-155.42l42.627-218.7"/>
      <path id="path4400" d="m-1958.3 1604h56.396l-42.627 218.7h-56.396l42.627-218.7"/>
      <path id="path4402" d="m-1846.3 1604h62.988l50.098 151.46 29.443-151.46h53.32l-42.627 218.7h-62.988l-50.098-151.46-29.297 151.46h-53.467l42.627-218.7"/>
    </g>
  </g>
  <metadata>
    <rdf:RDF>
      <cc:Work>
        <dc:format>image/svg+xml</dc:format>
        <dc:type rdf:resource="http://purl.org/dc/dcmitype/StillImage"/>
        <cc:license rdf:resource="http://creativecommons.org/licenses/publicdomain/"/>
        <dc:publisher>
          <cc:Agent rdf:about="http://openclipart.org/">
            <dc:title>Openclipart</dc:title>
          </cc:Agent>
        </dc:publisher>
        <dc:title>Migrating Penguin</dc:title>
        <dc:date>2011-05-02T14:45:12</dc:date>
        <dc:description>Penguin flying with a suitcase, designed for web site - World Migratory Bird Day is on second weekend in May.</dc:description>
        <dc:source>http://openclipart.org/detail/135385/migrating-penguin-by-moini</dc:source>
        <dc:creator>
          <cc:Agent>
            <dc:title>Moini</dc:title>
          </cc:Agent>
        </dc:creator>
        <dc:subject>
          <rdf:Bag>
            <rdf:li>Berlin</rdf:li>
            <rdf:li>South Pole</rdf:li>
            <rdf:li>bird</rdf:li>
            <rdf:li>bow tie</rdf:li>
            <rdf:li>cartoon</rdf:li>
            <rdf:li>clip art</rdf:li>
            <rdf:li>clipart</rdf:li>
            <rdf:li>fly</rdf:li>
            <rdf:li>holiday</rdf:li>
            <rdf:li>migrate</rdf:li>
            <rdf:li>migration</rdf:li>
            <rdf:li>migratory</rdf:li>
            <rdf:li>penguin</rdf:li>
            <rdf:li>propeller</rdf:li>
            <rdf:li>suitcase</rdf:li>
            <rdf:li>travel</rdf:li>
            <rdf:li>tux</rdf:li>
          </rdf:Bag>
        </dc:subject>
      </cc:Work>
      <cc:License rdf:about="http://creativecommons.org/licenses/publicdomain/">
        <cc:permits rdf:resource="http://creativecommons.org/ns#Reproduction"/>
        <cc:permits rdf:resource="http://creativecommons.org/ns#Distribution"/>
        <cc:permits rdf:resource="http://creativecommons.org/ns#DerivativeWorks"/>
      </cc:License>
    </rdf:RDF>
  </metadata>
</svg>