<?xml version="1.0" encoding="UTF-8" standalone="no"?>
<svg xmlns:rdf="http://www.w3.org/1999/02/22-rdf-syntax-ns#" xmlns="http://www.w3.org/2000/svg" height="782.13" width="543.08" version="1.0" y="0" x="0" xmlns:cc="http://creativecommons.org/ns#" xmlns:xlink="http://www.w3.org/1999/xlink" xmlns:dc="http://purl.org/dc/elements/1.1/">
	<metadata>
		<rdf:RDF>
			<cc:Work rdf:about="">
				<dc:title/>
				<dc:description/>
				<dc:subject>
					<rdf:Bag>
						<rdf:li/>
						<rdf:li>balloons</rdf:li>
						<rdf:li>festive</rdf:li>
						<rdf:li>party</rdf:li>
						<rdf:li>recreation</rdf:li>
					</rdf:Bag>
				</dc:subject>
				<dc:publisher>
					<cc:Agent rdf:about="http://www.openclipart.org">
						<dc:title>AJ Ashton</dc:title>
					</cc:Agent>
				</dc:publisher>
				<dc:creator>
					<cc:Agent>
						<dc:title>AJ Ashton</dc:title>
					</cc:Agent>
				</dc:creator>
				<dc:rights>
					<cc:Agent>
						<dc:title>AJ Ashton</dc:title>
					</cc:Agent>
				</dc:rights>
				<dc:date/>
				<dc:format>image/svg+xml</dc:format>
				<dc:type rdf:resource="http://purl.org/dc/dcmitype/StillImage"/>
				<cc:license rdf:resource="http://web.resource.org/cc/PublicDomain"/>
				<dc:language>en</dc:language>
			</cc:Work>
			<cc:License rdf:about="http://web.resource.org/cc/PublicDomain">
				<cc:permits rdf:resource="http://web.resource.org/cc/Reproduction"/>
				<cc:permits rdf:resource="http://web.resource.org/cc/Distribution"/>
				<cc:permits rdf:resource="http://web.resource.org/cc/DerivativeWorks"/>
			</cc:License>
		</rdf:RDF>
	</metadata>
	<defs>
		<linearGradient id="c">
			<stop stop-color="#ff6134" offset="0"/>
			<stop stop-color="#f00" offset="1"/>
		</linearGradient>
		<linearGradient id="d">
			<stop stop-color="#5f0000" stop-opacity="0" offset="0"/>
			<stop stop-color="#f00" stop-opacity="0" offset=".5"/>
			<stop stop-color="#590000" offset="1"/>
		</linearGradient>
		<linearGradient id="a">
			<stop offset="0"/>
			<stop stop-opacity="0" offset="1"/>
		</linearGradient>
		<linearGradient id="b">
			<stop stop-color="#fff" offset="0"/>
			<stop stop-color="#fff" stop-opacity="0" offset="1"/>
		</linearGradient>
		<radialGradient id="n" fy="1161.4" cx="247.71" xlink:href="#a" gradientUnits="userSpaceOnUse" cy="1161.1" r="14.647" gradientTransform="matrix(1.483 -.54585 .21816 .59399 -178.7 266.69)"/>
		<radialGradient id="m" cx="214.76" xlink:href="#b" gradientUnits="userSpaceOnUse" cy="1378.8" r="15.406" gradientTransform="matrix(1.3782 -.50725 .14662 .39921 -29.154 405.4)"/>
		<linearGradient id="u" y2="927.12" xlink:href="#a" gradientUnits="userSpaceOnUse" x2="310.45" gradientTransform="matrix(1.144 -.42106 .28281 .77004 -161.41 256.05)" y1="923.83" x1="293.24"/>
		<linearGradient id="t" y2="937.79" xlink:href="#a" gradientUnits="userSpaceOnUse" x2="311.93" gradientTransform="matrix(1.144 -.42106 .28281 .77004 -161.41 256.05)" y1="901.66" x1="293.05"/>
		<linearGradient id="s" y2="945.18" xlink:href="#a" gradientUnits="userSpaceOnUse" x2="301.38" gradientTransform="matrix(1.144 -.42106 .28281 .77004 -161.41 256.05)" y1="959.69" x1="299.34"/>
		<linearGradient id="r" y2="958.59" xlink:href="#c" gradientUnits="userSpaceOnUse" x2="302.31" gradientTransform="matrix(1.144 -.42106 .28281 .77004 -161.41 256.05)" y1="900.84" x1="309.16"/>
		<radialGradient id="l" cx="269.79" xlink:href="#a" gradientUnits="userSpaceOnUse" cy="1031.8" r="32.826" gradientTransform="matrix(1.178 -.65266 .25888 .40725 -140.83 577.09)"/>
		<radialGradient id="k" cx="413.89" gradientUnits="userSpaceOnUse" cy="440.37" r="359.53" gradientTransform="matrix(.94214 -.31018 .42774 1.2992 -214.4 82.076)">
			<stop stop-color="#f00" stop-opacity="0" offset="0"/>
			<stop stop-color="#f00" stop-opacity="0" offset=".5"/>
			<stop stop-color="#a60000" stop-opacity="0" offset=".75"/>
			<stop stop-color="#540000" offset="1"/>
		</radialGradient>
		<linearGradient id="q" y2="608.36" xlink:href="#a" gradientUnits="userSpaceOnUse" x2="345.4" gradientTransform="matrix(1.197 -.39408 .24816 .75375 -200.28 124.99)" y1="1203.6" x1="336.15"/>
		<radialGradient id="j" cx="480.13" xlink:href="#b" gradientUnits="userSpaceOnUse" cy="516.87" r="175.44" gradientTransform="matrix(.38873 -.31541 .42025 .51793 -35.161 543.49)"/>
		<radialGradient id="i" cx="480.13" xlink:href="#b" gradientUnits="userSpaceOnUse" cy="516.87" r="175.44" gradientTransform="matrix(.65225 -.52924 .75014 .92449 -378.41 379.69)"/>
		<linearGradient id="p" y2="504.58" xlink:href="#d" gradientUnits="userSpaceOnUse" x2="1100.7" gradientTransform="matrix(.80888 -.26631 .36722 1.1154 -200.28 124.99)" y1="-283.39" x1="-683.5"/>
		<radialGradient id="h" cx="457.14" xlink:href="#b" gradientUnits="userSpaceOnUse" cy="263.79" r="94.286" gradientTransform="matrix(1.1513 -.37905 .37905 1.1513 -309.88 102.16)"/>
		<radialGradient id="g" cx="457.14" xlink:href="#b" gradientUnits="userSpaceOnUse" cy="263.79" r="94.286" gradientTransform="matrix(.40297 -.13267 .13267 .40297 97.222 186.94)"/>
		<linearGradient id="o" y2="601.16" xlink:href="#b" gradientUnits="userSpaceOnUse" x2="285.9" gradientTransform="matrix(1.1516 -.37914 .25794 .78345 -200.28 124.99)" y1="168.43" x1="350.37"/>
		<radialGradient id="f" cx="478.66" xlink:href="#d" gradientUnits="userSpaceOnUse" cy="290.04" r="372.49" gradientTransform="matrix(.94214 -.31018 .42774 1.2992 -214.4 82.076)"/>
		<radialGradient id="e" cx="462.46" xlink:href="#c" gradientUnits="userSpaceOnUse" cy="233.67" r="330.33" gradientTransform="matrix(.94214 -.31018 .42774 1.2992 -214.4 82.076)"/>
	</defs>
	<g transform="matrix(.95530 .29637 -.29674 .95411 86.434 -179.54)">
		<g fill-rule="evenodd">
			<path opacity=".75" d="m586.15 348.33c57.22 173.78-23.94 444.05-127.36 481.11-100.72 36.16-331.05-137.57-388.27-311.34-57.208-173.78 11.86-352.84 154.17-399.69 142.32-46.855 304.25 56.15 361.46 229.92z" fill="url(#e)"/>
			<path d="m586.15 348.33c57.22 173.78-23.94 444.05-127.36 481.11-100.72 36.16-331.05-137.57-388.27-311.34-57.208-173.78 11.861-352.84 154.17-399.69 142.32-46.855 304.25 56.15 361.46 229.92z" fill="url(#f)"/>
			<path opacity=".6" d="m179.32 172.45c-12.085 1.3313-34.371 23.294-42.595 35.08-16.91 24.233-26.944 40.528-35.48 65.825-13.106 38.838 8.4362 38.436 34.286 12.776 19.749-19.604-9.2562 36.704-11.022 48.749-2.9496 20.116-21.686 34.073-29.986 45.968-8.6579 12.408-3.9097 33.769-22.771 49.609-20.582 17.285 20.481 21.385 32.433 25.418 19.096 6.444-6.0822 47.372 29.752 17.277 21.131-17.746 13.552-33.057 31.639-4.4007 5.9653 9.451 43.662-41.679 45.342-45.008 1.9628-3.8897-9.4891-56.231-10.622-59.671-.023-.0698 11.096-20.327 27.172-17.97 24.936 3.6564 19.514 26.955 38.854-.75993 9.8258-14.081 30.706 47.582 31.439 49.809 10.517 31.945 48.063-9.6906 62.352-2.4801 15.262 7.7016 12.946 38.214 30.545 47.096 13.884 7.0063 40.046-34.514 43.522-41.401 11.373-22.538-1.6507-23.463 37.96-3.4738 27.9 14.079 19.118-34.042 57.851-7.0143 23.572 16.448 4.7416-20.65 3.7409-34.32-1.6887-23.068-17.566-55.721-27.731-75.094-5.7524-10.963 45.756 11.634 37.034 2.8474-15.909-16.027-35.727-28.737-50.436-43.555-19.057-19.199-27.75-32.28-42.261-55.271-12.537-19.863-8.4352-24.623-26.078-33.526-18.629-9.4008-31.699 21.183-45.175-.16694-9.3733-14.85-36.745 13.139-52.423 5.2274-4.4149-2.2279-19.819-30.849-23.364-34.42-7.8018-7.8597-41.975 7.8034-53.35 11.549-3.6185 1.1913-7.2369 2.3826-10.855 3.5739-12.451 4.0992-28.129 6.2529-41.601 10.688-.97996.32263-10.547 20.636-18.17 27.038z" fill="url(#o)"/>
			<path d="m354.43 220.08c6.9084 20.983-4.5016 43.594-25.485 50.503-20.983 6.9084-43.594-4.5016-50.503-25.485-6.9084-20.983 4.5016-43.594 25.485-50.503 20.983-6.9084 43.594 4.5016 50.503 25.485z" fill="url(#g)"/>
			<path opacity=".6" d="m424.99 196.85c19.738 59.953-12.862 124.55-72.814 144.29-59.953 19.738-124.55-12.862-144.29-72.814-19.738-59.953 12.862-124.55 72.814-144.29 59.953-19.738 124.55 12.862 144.29 72.814z" fill="url(#h)"/>
			<path opacity=".4" d="m224.7 118.42c-142.31 46.85-211.4 225.89-154.18 399.66 57.21 173.78 287.56 347.52 388.27 311.35 103.43-37.05 184.58-307.34 127.37-481.11-57.21-173.78-219.14-276.76-361.46-229.9zm-4.686 5.8527c5.0148-2.1127 10.745-3.5148 17.338-3.9975 19.323-1.4146 35.137 23.137 40.552 22.741 20.432-1.4957 28.649-22.274 43.469-23.359 18.537-1.357 21.95 6.5721 34.283 12.796 11.454 5.7802 26.177 17.714 41.47 25.432 12.527 6.3217 34.938 20.632 49.613 22.784 13.777 2.0201 32.638 7.7975 36.961 20.929 9.1348 27.746-12.253 22.705-11.007 39.715 1.7109 23.371 43.087 12.055 52.268 39.939 9.4914 28.829-26.557 44.184-17.352 47.825.1859.0735 77.955 54.048 36.847 57.058-23.013 1.6847-70.872-27.598-75.008.61222-1.5032 10.251-19.632 63.679-39.916 43.245-43.436-43.758-16.268 9.5048-67.811 13.278-16.975 1.2427-16.57-17.487-17.941-36.205-5.7181-78.109-55.479-5.9875-58.612-31.83-9.4534-77.967 5.5369-10.748-21.531-38.017-16.307-16.428-29.142-34.047-54.146-18.265-38.555 24.335-3.4441 29.967.70873 56.914 3.8615 25.057-29.434 24.763-13.708 40.605 5.2796 5.3188 36.015 49.856 26.949 45.281-3.6073-1.8204-7.2428-3.6549-10.85-5.4753-38.888-19.624-32.519 47.093-65.047 3.3864-25.289-33.979-18.825 22.841-46.247 42.303-7.7904 34.455-14.325 11.251-19.843-5.5085-4.9852-15.142-3.3345-28.415-8.8652-45.214-9.022-27.403 13.603-22.494 24.543-44.172 6.3652-12.614 33.053-33.898 5.5754-37.927-14.432-2.1161-36.676 10.229-20.762-8.1999 10.238-11.85 54.46-56.08 30.1-73.08-13.717-9.57-53.551-36.52-13.384-49.74 35.854-11.81 44.864-13.58 42.624-44.11-1.8199-24.859 36.809-14.624 48.035-36.871 6.9471-13.767 15.653-26.535 30.697-32.873z" fill="url(#p)"/>
			<path opacity="0.53" d="m442.64 489.2c81.03 99.865 89.602 227.17 19.145 284.33-70.457 57.169-193.26 22.557-274.29-77.308s-89.602-227.17-19.145-284.33c70.457-57.169 193.26-22.557 274.29 77.308z" fill="url(#i)"/>
			<path opacity=".3" d="m440.6 592.04c45.396 55.948 48.157 128.92 6.1664 162.99-41.99 34.071-112.83 16.337-158.23-39.611-45.396-55.948-48.157-128.92-6.1664-162.99 41.99-34.071 112.83-16.337 158.23 39.611z" fill="url(#j)"/>
			<path opacity=".1" d="m288.67 744.39c-20.656-22.32-67.291-60.291-94.213-92.347-15.246-18.154-28.174-48.051-3.6491-49.846 37.181-2.7219 38.721 56.013 30.704-10.109-.51461-4.2442 33.299 41.825 54.948-1.0747 17.191-34.066 32.385 46.68 38.096 64.029 2.2218 6.7483 37.01 9.0928 49.846-3.6491 32.273-32.035 10.314 33.513 11.325 47.319 2.4586 33.584 68.667-48.672 71.752-53.401 28.727-44.038 49.53-15.706 67.914-52.137 19.301-38.248 41.658-69.868 56.589-99.456 11.829-23.441-26-28.786 5.2904-48.535 23.691-14.953 26.22 43.17 21.528 52.468-11.441 22.673-37.009 17.942-34.683 49.705 1.4547 19.871 2.4356 33.239 10.014 56.259 6.7693 20.561-15.068 55.228-23.264 71.469-11.601 22.988-.46685 30.425-27.007 47.177-18.204 11.49-16.687 52.209-34.683 49.705-12.546 12.454-33.335 30.543-42.312 39.454-16.79 16.666-40.666-12.135-68.989-2.8104-21.38 7.0389-46.546-4.8879-60.002-14.277-12.961-9.044-24.377-35.279-29.204-49.941z" fill="url(#q)"/>
			<path d="m586.15 348.33c57.22 173.78-23.94 444.05-127.36 481.11-100.72 36.16-331.05-137.57-388.27-311.34-57.208-173.78 11.861-352.84 154.17-399.69 142.32-46.855 304.25 56.15 361.46 229.92z" fill="url(#k)"/>
			<path opacity=".3" d="m482.78 799.8c4.7006 7.3813-8.8083 22.962-30.17 34.797-21.361 11.835-42.483 15.44-47.171 8.0518-4.7006-7.3813 8.8083-22.962 30.17-34.797 21.361-11.835 42.483-15.44 47.171-8.0518z" fill="url(#l)"/>
			<path d="m443.93 823.13c-4.3118 5.4757-8.492 21.57-8.7042 29.039-.11801 4.155-6.7903 7.8817-9.8852 11.174-6.0887 6.4761.32192 11.723 7.6228 9.0354 9.7243-3.5791 19.031-6.9891 29.134-8.5703 7.6204-1.1925 14.83-4.382 22.151-7.0763 7.4545-2.7437 6.6064-8.0542 3.501-10.977-2.8258-2.6594-12.959-3.5093-16.502-6.8437-3.3628-3.1647-8.1023-16.563-14.298-18.42-.456-.13663-8.36-3.2784-13.02 2.6391z" fill="url(#r)"/>
			<path d="m443.93 823.13c-4.3118 5.4757-8.492 21.57-8.7042 29.039-.11801 4.155-6.7903 7.8817-9.8852 11.174-6.0887 6.4761.32192 11.723 7.6228 9.0354 9.7243-3.5791 19.031-6.9891 29.134-8.5703 7.6204-1.1925 14.83-4.382 22.151-7.0763 7.4545-2.7437 6.6064-8.0542 3.501-10.977-2.8258-2.6594-12.959-3.5093-16.502-6.8437-3.3628-3.1647-8.1023-16.563-14.298-18.42-.456-.13663-8.36-3.2784-13.02 2.6391z" fill="url(#s)"/>
			<path opacity=".46759" d="m443.93 823.13c-4.3118 5.4757-8.492 21.57-8.7042 29.039-.11801 4.155-6.7903 7.8817-9.8852 11.174-6.0887 6.4761.32192 11.723 7.6228 9.0354 9.7243-3.5791 19.031-6.9891 29.134-8.5703 7.6204-1.1925 14.83-4.382 22.151-7.0763 7.4545-2.7437 6.6064-8.0542 3.501-10.977-2.8258-2.6594-12.959-3.5093-16.502-6.8437-3.3628-3.1647-8.1023-16.563-14.298-18.42-.456-.13663-8.36-3.2784-13.02 2.6391z" fill="url(#t)"/>
			<path opacity=".50926" d="m443.93 823.13c-4.3118 5.4757-8.492 21.57-8.7042 29.039-.11801 4.155-6.7903 7.8817-9.8852 11.174-6.0887 6.4761.32192 11.723 7.6228 9.0354 9.7243-3.5791 19.031-6.9891 29.134-8.5703 7.6204-1.1925 14.83-4.382 22.151-7.0763 7.4545-2.7437 6.6064-8.0542 3.501-10.977-2.8258-2.6594-12.959-3.5093-16.502-6.8437-3.3628-3.1647-8.1023-16.563-14.298-18.42-.456-.13663-8.36-3.2784-13.02 2.6391z" fill="url(#u)"/>
			<path opacity=".67593" d="m441.39 857.23c3.3253-.75713 10.466-4.1784 15.025-7.1689 3.8585-2.5311 6.3198-3.7254 8.0076-7.0442 2.4421-4.8022 3.4234-1.8236 9.2087-1.3699 3.8285 1.9249 7.4523-.52338 12.315 4.1002 3.6871 1.54-11.077 4.0771-14.966 5.5084-4.1778 1.5377-8.0536 2.1447-11.931 3.5721-2.6753.98467-8.4934 2.0085-10.641 2.2778-3.3421.41895-1.9608-.73905-7.0174.12461z" fill="url(#m)"/>
		</g>
		<path opacity=".63889" d="m443.4 822.61c-1.4994 24.199-11.692 5.8406-19.032 9.9389-11.967 4.378-17.565.87699-3.916-4.4875l22.948-5.4514z" fill="url(#n)"/>
	</g>
</svg>
