<?xml version="1.0" encoding="UTF-8" standalone="no"?>
<svg xmlns:rdf="http://www.w3.org/1999/02/22-rdf-syntax-ns#" xmlns="http://www.w3.org/2000/svg" height="782.13" width="543.08" version="1.0" y="0" x="0" xmlns:cc="http://creativecommons.org/ns#" xmlns:xlink="http://www.w3.org/1999/xlink" xmlns:dc="http://purl.org/dc/elements/1.1/">
	<metadata>
		<rdf:RDF>
			<cc:Work rdf:about="">
				<dc:title/>
				<dc:description/>
				<dc:subject>
					<rdf:Bag>
						<rdf:li/>
						<rdf:li>balloons</rdf:li>
						<rdf:li>festive</rdf:li>
						<rdf:li>party</rdf:li>
						<rdf:li>recreation</rdf:li>
					</rdf:Bag>
				</dc:subject>
				<dc:publisher>
					<cc:Agent rdf:about="http://www.openclipart.org">
						<dc:title>AJ Ashton</dc:title>
					</cc:Agent>
				</dc:publisher>
				<dc:creator>
					<cc:Agent>
						<dc:title>AJ Ashton</dc:title>
					</cc:Agent>
				</dc:creator>
				<dc:rights>
					<cc:Agent>
						<dc:title>AJ Ashton</dc:title>
					</cc:Agent>
				</dc:rights>
				<dc:date/>
				<dc:format>image/svg+xml</dc:format>
				<dc:type rdf:resource="http://purl.org/dc/dcmitype/StillImage"/>
				<cc:license rdf:resource="http://web.resource.org/cc/PublicDomain"/>
				<dc:language>en</dc:language>
			</cc:Work>
			<cc:License rdf:about="http://web.resource.org/cc/PublicDomain">
				<cc:permits rdf:resource="http://web.resource.org/cc/Reproduction"/>
				<cc:permits rdf:resource="http://web.resource.org/cc/Distribution"/>
				<cc:permits rdf:resource="http://web.resource.org/cc/DerivativeWorks"/>
			</cc:License>
		</rdf:RDF>
	</metadata>
	<defs>
		<linearGradient id="b">
			<stop offset="0"/>
			<stop stop-opacity="0" offset="1"/>
		</linearGradient>
		<linearGradient id="a">
			<stop stop-color="#fff" offset="0"/>
			<stop stop-color="#fff" stop-opacity="0" offset="1"/>
		</linearGradient>
		<linearGradient id="c">
			<stop stop-color="#ffff34" offset="0"/>
			<stop stop-color="#ffc200" offset="1"/>
		</linearGradient>
		<linearGradient id="d">
			<stop stop-color="#5a5f00" stop-opacity="0" offset="0"/>
			<stop stop-color="#ffde00" stop-opacity="0" offset=".5"/>
			<stop stop-color="#cf9800" offset="1"/>
		</linearGradient>
		<radialGradient id="n" xlink:href="#a" gradientUnits="userSpaceOnUse" cy="752.36" cx="378.57" gradientTransform="matrix(.48526 -.11685 .23412 .97221 343.55 101.28)" r="8.5714"/>
		<radialGradient id="m" xlink:href="#a" gradientUnits="userSpaceOnUse" cy="1378.8" cx="214.76" gradientTransform="matrix(1.459 .16803 -.048656 .42247 457.38 190.99)" r="15.406"/>
		<linearGradient id="u" y2="927.12" xlink:href="#b" gradientUnits="userSpaceOnUse" y1="923.83" gradientTransform="matrix(1.2111 .13948 -.093852 .81490 406.46 -1.9325)" x2="310.45" x1="293.24"/>
		<linearGradient id="t" y2="937.79" xlink:href="#b" gradientUnits="userSpaceOnUse" y1="901.66" gradientTransform="matrix(1.2111 .13948 -.093852 .81490 406.46 -1.9325)" x2="311.93" x1="293.05"/>
		<linearGradient id="s" y2="945.18" xlink:href="#b" gradientUnits="userSpaceOnUse" y1="959.69" gradientTransform="matrix(1.2111 .13948 -.093852 .81490 406.46 -1.9325)" x2="301.38" x1="299.34"/>
		<linearGradient id="r" y2="958.59" xlink:href="#c" gradientUnits="userSpaceOnUse" y1="900.84" gradientTransform="matrix(1.2111 .13948 -.093852 .81490 406.46 -1.9325)" x2="302.31" x1="309.16"/>
		<radialGradient id="l" xlink:href="#b" gradientUnits="userSpaceOnUse" cy="1031.8" cx="269.79" gradientTransform="matrix(1.3076 .32203 -.086631 .47478 437 201.86)" r="32.826"/>
		<radialGradient id="k" gradientUnits="userSpaceOnUse" cy="440.37" cx="413.89" gradientTransform="matrix(.97653 .17388 -.23978 1.3466 466 -180.42)" r="359.53">
			<stop stop-color="#ffdf00" stop-opacity="0" offset="0"/>
			<stop stop-color="#ff9f00" stop-opacity="0" offset=".5"/>
			<stop stop-color="#ff9a00" stop-opacity="0" offset=".75"/>
			<stop stop-color="#793900" offset="1"/>
		</radialGradient>
		<linearGradient id="q" y2="608.36" xlink:href="#b" gradientUnits="userSpaceOnUse" y1="1203.6" gradientTransform="matrix(1.2406 .22090 -.13911 .78126 458.08 -135.94)" x2="345.4" x1="336.15"/>
		<radialGradient id="j" xlink:href="#a" gradientUnits="userSpaceOnUse" cy="516.87" cx="480.13" gradientTransform="matrix(.49183 -.093258 .12426 .65531 404.91 310.8)" r="175.44"/>
		<radialGradient id="i" xlink:href="#a" gradientUnits="userSpaceOnUse" cy="516.87" cx="480.13" gradientTransform="matrix(.82525 -.15648 .22179 1.1697 180.44 3.7704)" r="175.44"/>
		<linearGradient id="p" y2="504.58" xlink:href="#d" gradientUnits="userSpaceOnUse" y1="-283.39" gradientTransform="matrix(.83840 .14928 -.20585 1.1561 458.08 -135.94)" x2="1100.7" x1="-683.5"/>
		<radialGradient id="h" xlink:href="#a" gradientUnits="userSpaceOnUse" cy="263.79" cx="457.14" gradientTransform="matrix(1.1934 .21248 -.21248 1.1934 372.42 -208.03)" r="94.286"/>
		<radialGradient id="g" xlink:href="#a" gradientUnits="userSpaceOnUse" cy="263.79" cx="457.14" gradientTransform="matrix(.41767 .074369 -.074369 .41767 690.59 59.723)" r="94.286"/>
		<linearGradient id="o" y2="160.02" xlink:href="#a" gradientUnits="userSpaceOnUse" y1="1.5028" gradientTransform="matrix(1.1936 .21253 -.14459 .81205 0 0)" x2="606.26" x1="681"/>
		<radialGradient id="f" xlink:href="#d" gradientUnits="userSpaceOnUse" cy="290.04" cx="478.66" gradientTransform="matrix(.97653 .17388 -.23978 1.3466 466 -180.42)" r="372.49"/>
		<radialGradient id="e" xlink:href="#c" gradientUnits="userSpaceOnUse" cy="233.67" cx="462.46" gradientTransform="matrix(.97653 .17388 -.23978 1.3466 466 -180.42)" r="330.33"/>
	</defs>
	<g fill-rule="evenodd" transform="matrix(.98897 -.15111 .14990 .99694 -555.01 66.616)">
		<path opacity=".75" d="m1044.4 433.74c-32 180.12-231.68 379.54-340.31 363.1-105.82-15.94-226.17-278.15-194.1-458.26 32.07-180.12 177.82-304.98 325.32-278.72 147.51 26.269 241.19 193.77 209.09 373.88z" fill="url(#e)"/>
		<path d="m1044.4 433.74c-32 180.12-231.68 379.54-340.31 363.1-105.82-15.94-226.17-278.15-194.1-458.26 32.07-180.12 177.82-304.98 325.32-278.72 147.51 26.269 241.19 193.77 209.09 373.88z" fill="url(#f)"/>
		<path opacity=".6" d="m769.73 85.914c-11.27-4.5609-41.308 4.2011-54.138 10.675-26.381 13.311-42.945 22.896-62.46 41.116-29.961 27.973-10.807 37.838 24.122 27.512 26.685-7.8888-25.56 27.921-32.829 37.686-12.139 16.309-35.254 19.708-48.204 26.242-13.508 6.8155-19.461 27.872-43.58 32.87-26.319 5.4529 7.8851 28.542 16.493 37.762 13.754 14.732-27.827 38.817 17.996 29.323 27.02-5.5982 27.612-22.672 29.94 11.135.76797 11.15 58.208-15.978 61.267-18.112 3.5731-2.493 18.322-54.003 18.957-57.568.0129-.0724 19.41-12.631 32.444-2.9293 20.217 15.048 4.3917 32.987 34.564 17.763 15.33-7.7349 4.4585 56.453 4.0474 58.762-5.8957 33.111 46.908 14.269 56.066 27.395 9.7818 14.02-6.7319 39.782 4.5483 55.949 8.8988 12.754 51.626-11.386 57.953-15.8 20.703-14.445 9.6772-21.438 35.065 14.95 17.882 25.629 32.979-20.898 54.255 21.269 12.948 25.661 13.97-15.929 19.574-28.438 9.4565-21.108 10.969-57.385 11.211-79.262.137-12.38 34.76 31.948 31.251 20.075-6.4022-21.656-17.819-42.246-23.738-62.268-7.6688-25.941-9.1154-41.581-10.984-68.704-1.6141-23.433 4.2552-25.678-7.0526-41.885-11.94-17.113-37.954 3.6099-39.689-21.577-1.2067-17.52-38.58-5.8649-48.629-20.267-2.8297-4.0556-2.8132-36.559-4.2397-41.384-3.1396-10.62-40.653-13.043-52.443-15.142-3.7505-.66781-7.5011-1.3356-11.252-2.0034-12.905-2.2978-27.729-7.8393-41.693-10.326-1.0157-.18086-19.074 13.163-28.822 15.183z" fill="url(#o)"/>
		<path d="m901.29 210.91c-3.8726 21.749-24.643 36.241-46.393 32.369-21.749-3.8726-36.241-24.643-32.369-46.393 3.8726-21.749 24.643-36.241 46.393-32.369 21.749 3.8726 36.241 24.643 32.369 46.393z" fill="url(#g)"/>
		<path opacity=".6" d="m974.42 223.93c-11.06 62.14-70.41 103.55-132.55 92.49-62.14-11.07-103.55-70.41-92.48-132.55 11.06-62.15 70.41-103.55 132.55-92.487 62.14 11.067 103.55 70.407 92.48 132.55z" fill="url(#h)"/>
		<path opacity=".4" d="m835.32 59.873c-147.51-26.265-293.26 98.577-325.33 278.69-32.07 180.12 88.29 442.34 194.11 458.28 108.62 16.44 308.3-182.99 340.4-363.11 32-180.12-61.67-347.59-209.18-373.86zm-6.9016 2.9293c5.4168.51906 11.126 2.0029 17.16 4.7059 17.682 7.9213 19.956 37.036 24.91 39.256 18.696 8.3757 35.787-6.0177 49.348.0577 16.962 7.599 16.206 16.198 24.11 27.528 7.3415 10.522 14.64 28.012 24.443 42.061 8.0292 11.508 20.969 34.737 32.867 43.593 11.17 8.3139 25.033 22.347 22.609 35.958-5.1206 28.759-21.557 14.175-28.53 29.74-9.5807 21.386 32.212 31.052 27.065 59.954-5.3206 29.881-44.339 26.297-37.963 33.87.12877.15292 42.986 84.56 5.3702 67.709-21.058-9.434-49.298-57.915-66.321-35.044-6.1864 8.3115-47.491 46.745-55.653 19.134-17.479-59.127-18.83.64981-65.994-20.48-15.533-6.9586-6.2918-23.255 1.3818-40.383 32.02-71.473-45.999-31.589-36.498-55.825 28.664-73.121 9.9731-6.8354-.91946-43.681-6.562-22.197-9.5024-43.797-39.001-41.765-45.485 3.1329-17.248 24.746-26.375 50.439-8.4872 23.89-37.658 7.8361-31.33 29.242 2.1246 7.1868 8.0537 60.974 2.2435 52.646-2.312-3.3138-4.6422-6.6534-6.9542-9.9671-24.925-35.723-50.967 26.031-58.869-27.876-6.1429-41.909-27.407 11.177-60.78 15.301-23.203 26.636-17.948 3.1084-14.855-14.262 2.7945-15.694 10.544-26.596 13.645-44.008 5.0574-28.403 22.646-13.348 42.56-27.242 11.587-8.0845 45.177-14.161 22.9-30.743-11.7-8.7089-37.139-8.394-14.387-17.068 14.628-5.5763 74.54-23.533 61.159-50.054-7.535-14.934-29.817-57.556 11.817-50.142 37.162 6.6169 45.933 9.3303 58.448-18.605 10.191-22.747 39.341 4.5877 59.777-9.6709 12.646-8.8235 26.367-15.934 42.618-14.377z" fill="url(#p)"/>
		<path opacity="0.53" d="m851.27 489.67c23.96 126.35-28.88 242.48-118.03 259.38-89.14 16.9-180.83-71.82-204.79-198.17-23.95-126.36 28.89-242.49 118.03-259.39 89.144-16.903 180.83 71.823 204.79 198.18z" fill="url(#i)"/>
		<path opacity=".3" d="m800.7 579.23c13.422 70.787-18.765 136.34-71.893 146.41-53.128 10.074-107.08-39.144-120.5-109.93-13.422-70.787 18.765-136.34 71.893-146.41 53.128-10.074 107.08 39.144 120.5 109.93z" fill="url(#j)"/>
		<path opacity=".1" d="m594.67 641.27c-7.5955-29.447-30.637-84.997-39.13-125.99-4.8096-23.214-2.0073-55.665 20.434-45.612 34.022 15.242 7.515 67.678 31.824 5.6665 1.5604-3.9803 9.473 52.616 48.881 25.12 31.294-21.834 6.3642 56.456 3.1625 74.438-1.2454 6.9946 28.267 25.561 45.612 20.434 43.607-12.891-6.8184 34.395-12.478 47.028-13.768 30.731 83.538-10.272 88.497-12.972 46.18-25.14 51.052 9.6701 84.519-13.68 35.135-24.514 69.816-41.744 96.997-60.708 21.533-15.024-9.2324-37.674 27.682-40.217 27.949-1.9251 2.603 50.441-5.9384 56.401-20.828 14.532-41.09-1.762-54.111 27.303-8.1459 18.183-13.624 30.417-17.872 54.276-3.7946 21.311-39.464 41.47-54.383 51.879-21.118 14.734-14.844 26.563-46.155 28.719-21.476 1.4792-39.457 38.045-54.111 27.303-16.953 5.0117-43.834 11.074-55.964 14.66-22.687 6.7067-30.042-29.974-59.399-35.201-22.16-3.9457-38.657-26.384-46.048-41.032-7.1194-14.11-4.7236-42.621-2.0177-57.818z" fill="url(#q)"/>
		<path d="m1044.4 433.74c-32 180.12-231.68 379.54-340.31 363.1-105.82-15.94-226.17-278.15-194.1-458.26 32.07-180.12 177.82-304.98 325.32-278.72 147.51 26.269 241.19 193.77 209.09 373.88z" fill="url(#k)"/>
		<path opacity=".3" d="m743.31 789.2c-1.5639 8.6109-22.057 10.858-45.768 5.0187-23.711-5.8394-41.657-17.553-40.079-26.161 1.5639-8.6109 22.057-10.858 45.768-5.0187 23.711 5.8394 41.657 17.553 40.079 26.161z" fill="url(#l)"/>
		<path d="m691.95 777.08c-6.3141 2.9461-17.288 15.432-20.837 22.004-1.9746 3.6564-9.6099 3.9775-13.855 5.5222-8.351 3.0387-4.9862 10.611 2.7427 11.501 10.295 1.1856 20.14 2.3339 29.874 5.4743 7.342 2.3685 15.216 2.7692 22.965 3.6618 7.8916.90888 9.5233-4.2144 8.0648-8.2226-1.3272-3.6474-9.9948-8.9716-11.659-13.545-1.5794-4.3405.21566-18.438-4.482-22.886-.34576-.32743-5.9911-6.6933-12.815-3.5095z" fill="url(#r)"/>
		<path d="m691.95 777.08c-6.3141 2.9461-17.288 15.432-20.837 22.004-1.9746 3.6564-9.6099 3.9775-13.855 5.5222-8.351 3.0387-4.9862 10.611 2.7427 11.501 10.295 1.1856 20.14 2.3339 29.874 5.4743 7.342 2.3685 15.216 2.7692 22.965 3.6618 7.8916.90888 9.5233-4.2144 8.0648-8.2226-1.3272-3.6474-9.9948-8.9716-11.659-13.545-1.5794-4.3405.21566-18.438-4.482-22.886-.34576-.32743-5.9911-6.6933-12.815-3.5095z" fill="url(#s)"/>
		<path opacity=".46759" d="m691.95 777.08c-6.3141 2.9461-17.288 15.432-20.837 22.004-1.9746 3.6564-9.6099 3.9775-13.855 5.5222-8.351 3.0387-4.9862 10.611 2.7427 11.501 10.295 1.1856 20.14 2.3339 29.874 5.4743 7.342 2.3685 15.216 2.7692 22.965 3.6618 7.8916.90888 9.5233-4.2144 8.0648-8.2226-1.3272-3.6474-9.9948-8.9716-11.659-13.545-1.5794-4.3405.21566-18.438-4.482-22.886-.34576-.32743-5.9911-6.6933-12.815-3.5095z" fill="url(#t)"/>
		<path opacity=".50926" d="m691.95 777.08c-6.3141 2.9461-17.288 15.432-20.837 22.004-1.9746 3.6564-9.6099 3.9775-13.855 5.5222-8.351 3.0387-4.9862 10.611 2.7427 11.501 10.295 1.1856 20.14 2.3339 29.874 5.4743 7.342 2.3685 15.216 2.7692 22.965 3.6618 7.8916.90888 9.5233-4.2144 8.0648-8.2226-1.3272-3.6474-9.9948-8.9716-11.659-13.545-1.5794-4.3405.21566-18.438-4.482-22.886-.34576-.32743-5.9911-6.6933-12.815-3.5095z" fill="url(#u)"/>
		<path opacity=".67593" d="m674.34 806.38c3.3103.82215 11.227.98482 16.643.36879 4.5845-.52139 7.3199-.47879 10.32-2.6815 4.3414-3.1872 3.8777-.0858 8.8402 2.9257 2.5531 3.4434 6.8908 2.8901 9.1533 9.2088 2.6 3.036-11.727-1.3506-15.844-1.8247-4.4228-.50937-8.1572-1.7135-12.263-2.1863-2.8322-.32618-8.4887-2.0333-10.528-2.7605-3.1732-1.1317-1.4187-1.5432-6.323-3.0502z" fill="url(#m)"/>
		<path opacity=".46759" d="m707.56 787.5c1.1083 4.6023.14449 8.7817-2.1527 9.3348-2.2972.55317-5.0578-2.7293-6.1661-7.3316s-.14449-8.7817 2.1527-9.3348c2.2972-.55317 5.0578 2.7293 6.1661 7.3316z" fill="url(#n)"/>
	</g>
</svg>
