<?xml version="1.0" encoding="UTF-8" standalone="no"?>
<!-- Created with Inkscape (http://www.inkscape.org/) -->
<svg xmlns:rdf="http://www.w3.org/1999/02/22-rdf-syntax-ns#" xmlns="http://www.w3.org/2000/svg" height="782.13" width="543.08" version="1.0" y="0" x="0" xmlns:cc="http://creativecommons.org/ns#" xmlns:xlink="http://www.w3.org/1999/xlink" xmlns:dc="http://purl.org/dc/elements/1.1/">
	<metadata>
		<rdf:RDF>
			<cc:Work rdf:about="">
				<dc:title/>
				<dc:description/>
				<dc:subject>
					<rdf:Bag>
						<rdf:li/>
						<rdf:li>balloons</rdf:li>
						<rdf:li>festive</rdf:li>
						<rdf:li>party</rdf:li>
						<rdf:li>recreation</rdf:li>
					</rdf:Bag>
				</dc:subject>
				<dc:publisher>
					<cc:Agent rdf:about="http://www.openclipart.org">
						<dc:title>AJ Ashton</dc:title>
					</cc:Agent>
				</dc:publisher>
				<dc:creator>
					<cc:Agent>
						<dc:title>AJ Ashton</dc:title>
					</cc:Agent>
				</dc:creator>
				<dc:rights>
					<cc:Agent>
						<dc:title>AJ Ashton</dc:title>
					</cc:Agent>
				</dc:rights>
				<dc:date/>
				<dc:format>image/svg+xml</dc:format>
				<dc:type rdf:resource="http://purl.org/dc/dcmitype/StillImage"/>
				<cc:license rdf:resource="http://web.resource.org/cc/PublicDomain"/>
				<dc:language>en</dc:language>
			</cc:Work>
			<cc:License rdf:about="http://web.resource.org/cc/PublicDomain">
				<cc:permits rdf:resource="http://web.resource.org/cc/Reproduction"/>
				<cc:permits rdf:resource="http://web.resource.org/cc/Distribution"/>
				<cc:permits rdf:resource="http://web.resource.org/cc/DerivativeWorks"/>
			</cc:License>
		</rdf:RDF>
	</metadata>
	<defs>
		<linearGradient id="b">
			<stop offset="0"/>
			<stop stop-opacity="0" offset="1"/>
		</linearGradient>
		<linearGradient id="a">
			<stop stop-color="#fff" offset="0"/>
			<stop stop-color="#fff" stop-opacity="0" offset="1"/>
		</linearGradient>
		<linearGradient id="c">
			<stop stop-color="#5a5f00" stop-opacity="0" offset="0"/>
			<stop stop-color="#ffde00" stop-opacity="0" offset=".5"/>
			<stop stop-color="#cf9800" offset="1"/>
		</linearGradient>
		<linearGradient id="d">
			<stop stop-color="#ffff34" offset="0"/>
			<stop stop-color="#ffc200" offset="1"/>
		</linearGradient>
		<radialGradient id="n" xlink:href="#a" gradientUnits="userSpaceOnUse" cy="752.36" cx="378.57" gradientTransform="matrix(.49114 -.088952 .17821 .98399 -26.916 38.03)" r="8.5714"/>
		<radialGradient id="m" xlink:href="#a" gradientUnits="userSpaceOnUse" cy="1378.8" cx="214.76" gradientTransform="matrix(1.447 .25108 -.072703 0.419 81.607 134.09)" r="15.406"/>
		<linearGradient id="u" y2="927.12" xlink:href="#b" gradientUnits="userSpaceOnUse" x2="310.45" gradientTransform="matrix(1.2011 .20841 -.14024 .80821 41.782 -61.424)" y1="923.83" x1="293.24"/>
		<linearGradient id="t" y2="937.79" xlink:href="#b" gradientUnits="userSpaceOnUse" x2="311.93" gradientTransform="matrix(1.2011 .20841 -.14024 .80821 41.782 -61.424)" y1="901.66" x1="293.05"/>
		<linearGradient id="s" y2="945.18" xlink:href="#b" gradientUnits="userSpaceOnUse" x2="301.38" gradientTransform="matrix(1.2011 .20841 -.14024 .80821 41.782 -61.424)" y1="959.69" x1="299.34"/>
		<linearGradient id="r" y2="958.59" xlink:href="#d" gradientUnits="userSpaceOnUse" x2="302.31" gradientTransform="matrix(1.2011 .20841 -.14024 .80821 41.782 -61.424)" y1="900.84" x1="309.16"/>
		<radialGradient id="l" xlink:href="#b" gradientUnits="userSpaceOnUse" cy="1031.8" cx="269.79" gradientTransform="matrix(1.3464 .024973 .020477 .48218 -100.96 226.79)" r="32.826"/>
		<radialGradient id="k" gradientUnits="userSpaceOnUse" cy="440.37" cx="413.89" gradientTransform="matrix(.99081 -.046319 .063872 1.3663 -157.19 -152.45)" r="359.53">
			<stop stop-color="#ffdf00" stop-opacity="0" offset="0"/>
			<stop stop-color="#ff9f00" stop-opacity="0" offset=".5"/>
			<stop stop-color="#ff9a00" stop-opacity="0" offset=".75"/>
			<stop stop-color="#793900" offset="1"/>
		</radialGradient>
		<linearGradient id="q" y2="608.36" xlink:href="#b" gradientUnits="userSpaceOnUse" x2="345.4" gradientTransform="matrix(1.2588 -.058845 .037057 .79268 -155.08 -107.32)" y1="1203.6" x1="336.15"/>
		<radialGradient id="j" xlink:href="#a" gradientUnits="userSpaceOnUse" cy="516.87" cx="480.13" gradientTransform="matrix(.45904 -.19968 .26606 .61162 -108.17 340.12)" r="175.44"/>
		<radialGradient id="i" xlink:href="#a" gradientUnits="userSpaceOnUse" cy="516.87" cx="480.13" gradientTransform="matrix(.77023 -.33505 .47490 1.0917 -394.96 90.322)" r="175.44"/>
		<linearGradient id="p" y2="504.58" xlink:href="#c" gradientUnits="userSpaceOnUse" x2="1100.7" gradientTransform="matrix(.85066 -.039766 .054834 1.173 -155.08 -107.32)" y1="-283.39" x1="-683.5"/>
		<radialGradient id="h" xlink:href="#a" gradientUnits="userSpaceOnUse" cy="263.79" cx="457.14" gradientTransform="matrix(1.2108 -.056601 .056601 1.2108 -254.55 -158.68)" r="94.286"/>
		<radialGradient id="g" xlink:href="#a" gradientUnits="userSpaceOnUse" cy="263.79" cx="457.14" gradientTransform="matrix(.42378 -.019811 .019811 .42378 114.93 32.106)" r="94.286"/>
		<linearGradient id="o" y2="601.16" xlink:href="#a" gradientUnits="userSpaceOnUse" x2="285.9" gradientTransform="matrix(1.2111 -.056615 .038516 .82392 -155.08 -107.32)" y1="168.43" x1="350.37"/>
		<radialGradient id="f" xlink:href="#c" gradientUnits="userSpaceOnUse" cy="290.04" cx="478.66" gradientTransform="matrix(.99081 -.046319 .063872 1.3663 -157.19 -152.45)" r="372.49"/>
		<radialGradient id="e" xlink:href="#d" gradientUnits="userSpaceOnUse" cy="233.67" cx="462.46" gradientTransform="matrix(.99081 -.046319 .063872 1.3663 -157.19 -152.45)" r="330.33"/>
	</defs>
	<g fill-rule="evenodd">
		<path opacity=".75" d="m542.72 318.64c8.54 182.75-142.08 421.38-251.65 429.36-106.73 7.85-282.07-221.26-290.62-404.01-8.5395-182.75 105.99-336.75 255.66-343.74 149.66-6.9998 278.07 135.64 286.61 318.39z" fill="url(#e)"/>
		<path d="m542.72 318.64c8.54 182.75-142.08 421.38-251.65 429.36-106.73 7.85-282.07-221.26-290.62-404.01-8.5395-182.75 105.99-336.75 255.66-343.74 149.66-6.9998 278.07 135.64 286.61 318.39z" fill="url(#f)"/>
		<path opacity=".6" d="m197.91 40.151c-12-1.957-39.36 13.229-50.44 22.38-22.79 18.814-36.82 31.823-51.824 53.909-23.036 33.9-2.174 39.29 29.604 21.5 24.28-13.6-18.75 32.88-23.68 44.01-8.235 18.59-30.026 27.01-41.211 36.25-11.667 9.63-12.817 31.48-35.234 41.69-24.462 11.13 14 26.09 24.433 33.18 16.67 11.33-18.556 44.01 24.033 24.62 25.114-11.44 21.916-28.22 31.659 4.24 3.22 10.7 53.24-28.45 55.75-31.21 2.93-3.22 5.93-56.72 5.76-60.34 0-.07 16.14-16.6 30.99-10.03 23.05 10.21 11.58 31.2 37.64 9.69 13.24-10.94 16.83 54.07 16.94 56.41 1.57 33.6 48.9 3.55 60.73 14.32 12.64 11.51 2.23 40.29 16.81 53.56 11.5 10.47 47.83-22.52 53.02-28.22 17-18.66 4.7-23.05 37.51 6.83 23.1 21.04 27.54-27.67 57.61 8.75 18.3 22.16 10.1-18.63 12.8-32.07 4.56-22.67-1.99-58.39-6.59-79.77-2.6-12.11 40.97 23.47 34.92 12.66-11.03-19.7-26.72-37.26-36.92-55.48-13.21-23.6-18.08-38.53-25.9-64.57-6.75-22.497-1.53-25.984-16.14-39.29-15.43-14.05-36.21 11.912-43.47-12.269-5.06-16.819-38.93 2.81-51.91-9.014-3.66-3.33-10.83-35.032-13.29-39.423-5.4-9.663-42.53-3.732-54.49-3.173-3.8.178-7.61.356-11.41.534-13.1.612-28.78-1.515-42.95-.853-1.03.048-15.69 17.054-24.75 21.179z" fill="url(#o)"/>
		<path d="m353.84 132.97c1.03 22.07-16.02 40.79-38.09 41.83-22.06 1.03-40.79-16.03-41.82-38.09-1.03-22.07 16.02-40.796 38.09-41.828 22.07-1.031 40.79 16.018 41.82 38.088z" fill="url(#g)"/>
		<path opacity=".6" d="m428.05 129.5c2.95 63.05-45.78 116.55-108.83 119.5s-116.55-45.77-119.49-108.82c-2.95-63.053 45.77-116.55 108.82-119.5 63.05-2.949 116.55 45.773 119.5 108.82z" fill="url(#h)"/>
		<path opacity=".4" d="m256.11.25493c-149.66 6.9965-264.2 160.98-255.66 343.73 8.5416 182.74 183.9 411.87 290.62 404.02 109.58-7.98 260.2-246.63 251.66-429.38-8.54-182.74-136.95-325.36-286.62-318.37zm-6.08 4.3826c5.4-.6913 11.29-.5064 17.78.7958 18.99 3.8163 27.65 31.708 32.97 32.778 20.08 4.035 33.57-13.781 48.14-10.854 18.22 3.661 19.38 12.215 29.6 21.516 9.48 8.639 20.47 24.082 33.14 35.617 10.37 9.448 28.12 29.24 41.69 35.25 12.73 5.64 29.35 16.26 30 30.07 1.36 29.18-17.89 18.59-21.25 35.31-4.62 22.97 38.28 23.16 39.65 52.49 1.41 30.31-37.43 35.45-29.54 41.42.16.12 60.62 72.97 20.21 64.85-22.62-4.55-60.88-45.59-72.43-19.52-4.2 9.48-35.98 56.09-50.05 30.97-30.11-53.8-18.22 4.79-68.88-5.39-16.69-3.35-11.28-21.28-7.59-39.69 15.43-76.78-51.84-20.63-47.93-46.37 11.79-77.65 8.21-8.87-10.56-42.4-11.3-20.19-18.95-40.61-47.27-32.11-43.66 13.12-11.35 27.95-14.57 55.03-2.99 25.17-34.99 15.96-24.09 35.44 3.66 6.54 21.34 57.68 13.83 50.85-2.99-2.72-6-5.46-8.99-8.19-32.2-29.32-43.95 36.66-63.57-14.17-15.256-39.51-24.258 16.96-55.893 28.36-16.74 31.11-16.817 7-17.641-10.62-.744-15.93 4.404-28.27 3.578-45.94-1.347-28.82 19.134-18.02 35.484-35.98 9.513-10.44 40.928-23.79 15.536-35.04-13.336-5.91-38.076.02-17.804-13.47 13.033-8.67 67.49-39.43 48.58-62.33-10.651-12.9-41.804-49.541.44-51.516 37.7-1.763 46.86-1.056 52.89-31.066 4.91-24.438 39.38-4.224 56.16-22.647 10.38-11.401 22.19-21.369 38.38-23.444z" fill="url(#p)"/>
		<path opacity="0.53" d="m366.7 415.88c51.3 117.93 25.43 242.87-57.77 279.07-83.2 36.19-192.23-30.07-243.53-148-51.303-117.93-25.441-242.87 57.76-279.06 83.2-36.19 192.24 30.07 243.54 147.99z" fill="url(#i)"/>
		<path opacity=".3" d="m337.17 514.41c28.74 66.07 11.84 137.11-37.74 158.68-49.59 21.57-113.09-14.5-141.82-80.57-28.74-66.06-11.85-137.11 37.74-158.68s113.08 14.5 141.82 80.57z" fill="url(#j)"/>
		<path opacity=".1" d="m149.96 620.47c-13.92-27.04-48.67-76.12-66.012-114.22-9.823-21.58-14.264-53.85 9.844-49 36.548 7.34 22.288 64.34 32.288-1.51.64-4.23 20.87 49.22 53.23 13.69 25.69-28.21 18.69 53.65 19.54 71.9.33 7.09 33.22 18.68 49 9.84 39.68-22.21.95 35.05-1.77 48.62-6.64 33.02 79.2-28.48 83.44-32.21 39.48-34.73 51.92-1.86 79.4-32.03 28.85-31.67 58.86-56.14 81.17-80.65 17.68-19.41-17.33-34.7 18.11-45.34 26.83-8.06 13.69 48.62 6.68 56.32-17.1 18.77-40.47 7.36-46.74 38.59-3.92 19.53-6.56 32.67-5.43 56.88 1.01 21.62-29.32 49.17-41.57 62.62-17.33 19.04-8.6 29.19-38.66 38.21-20.62 6.19-30.07 45.83-46.74 38.59-15.42 8.64-40.3 20.49-51.34 26.67-20.64 11.56-35.92-22.59-65.71-21.19-22.48 1.05-43.53-17.19-53.98-29.84-10.06-12.19-14.03-40.52-14.75-55.94z" fill="url(#q)"/>
		<path d="m542.72 318.64c8.54 182.75-142.08 421.38-251.65 429.36-106.73 7.85-282.07-221.26-290.62-404.01-8.5395-182.75 105.99-336.75 255.66-343.74 149.66-6.9998 278.07 135.64 286.61 318.39z" fill="url(#k)"/>
		<path opacity=".3" d="m327.63 731.88c.37 8.74-19.11 15.47-43.53 15.01-24.42-.45-44.51-7.91-44.87-16.65-.38-8.74 19.11-15.47 43.53-15.01 24.41.45 44.5 7.91 44.87 16.65z" fill="url(#l)"/>
		<path d="m282.32 732.62c-6.47 2.58-18.14 14.42-22.06 20.78-2.18 3.54-9.82 3.42-14.15 4.72-8.51 2.56-5.58 10.31 2.08 11.64 10.21 1.77 19.98 3.48 29.52 7.17 7.19 2.79 15.03 3.64 22.71 4.97 7.83 1.36 9.75-3.66 8.53-7.75-1.12-3.71-9.47-9.53-10.87-14.19-1.33-4.42 1.27-18.39-3.17-23.1-.32-.35-5.6-7.03-12.59-4.24z" fill="url(#r)"/>
		<path d="m282.32 732.62c-6.47 2.58-18.14 14.42-22.06 20.78-2.18 3.54-9.82 3.42-14.15 4.72-8.51 2.56-5.58 10.31 2.08 11.64 10.21 1.77 19.98 3.48 29.52 7.17 7.19 2.79 15.03 3.64 22.71 4.97 7.83 1.36 9.75-3.66 8.53-7.75-1.12-3.71-9.47-9.53-10.87-14.19-1.33-4.42 1.27-18.39-3.17-23.1-.32-.35-5.6-7.03-12.59-4.24z" fill="url(#s)"/>
		<path opacity=".46759" d="m282.32 732.62c-6.47 2.58-18.14 14.42-22.06 20.78-2.18 3.54-9.82 3.42-14.15 4.72-8.51 2.56-5.58 10.31 2.08 11.64 10.21 1.77 19.98 3.48 29.52 7.17 7.19 2.79 15.03 3.64 22.71 4.97 7.83 1.36 9.75-3.66 8.53-7.75-1.12-3.71-9.47-9.53-10.87-14.19-1.33-4.42 1.27-18.39-3.17-23.1-.32-.35-5.6-7.03-12.59-4.24z" fill="url(#t)"/>
		<path opacity=".50926" d="m282.32 732.62c-6.47 2.58-18.14 14.42-22.06 20.78-2.18 3.54-9.82 3.42-14.15 4.72-8.51 2.56-5.58 10.31 2.08 11.64 10.21 1.77 19.98 3.48 29.52 7.17 7.19 2.79 15.03 3.64 22.71 4.97 7.83 1.36 9.75-3.66 8.53-7.75-1.12-3.71-9.47-9.53-10.87-14.19-1.33-4.42 1.27-18.39-3.17-23.1-.32-.35-5.6-7.03-12.59-4.24z" fill="url(#u)"/>
		<path opacity=".67593" d="m263.06 760.87c3.26 1.01 11.16 1.62 16.6 1.32 4.61-.26 7.33-.06 10.46-2.09 4.51-2.93 3.87.14 8.65 3.43 2.36 3.58 6.72 3.27 8.62 9.71 2.42 3.18-11.63-2.02-15.72-2.72-4.38-.77-8.04-2.18-12.11-2.89-2.81-.49-8.36-2.51-10.36-3.36-3.1-1.31-1.33-1.62-6.14-3.4z" fill="url(#m)"/>
		<path opacity=".46759" d="m297.31 743.91c.84 4.66-.36 8.78-2.69 9.2-2.32.42-4.89-3.02-5.73-7.67-.85-4.66.35-8.78 2.68-9.2 2.32-.42 4.89 3.01 5.74 7.67z" fill="url(#n)"/>
	</g>
</svg>
