<?xml version="1.0" encoding="UTF-8" standalone="no"?>
<!-- Created with Inkscape (http://www.inkscape.org/) -->
<svg
   xmlns:dc="http://purl.org/dc/elements/1.1/"
   xmlns:cc="http://creativecommons.org/ns#"
   xmlns:rdf="http://www.w3.org/1999/02/22-rdf-syntax-ns#"
   xmlns:svg="http://www.w3.org/2000/svg"
   xmlns="http://www.w3.org/2000/svg"
   xmlns:xlink="http://www.w3.org/1999/xlink"
   xmlns:sodipodi="http://sodipodi.sourceforge.net/DTD/sodipodi-0.dtd"
   xmlns:inkscape="http://www.inkscape.org/namespaces/inkscape"
   width="184.22064"
   height="262.54742"
   id="svg3778"
   sodipodi:version="0.32"
   inkscape:version="0.46"
   sodipodi:docname="egg_2.svg"
   inkscape:output_extension="org.inkscape.output.svg.inkscape"
   version="1.0"
   inkscape:export-filename="/home/roger/mis-dibujos/open/uploaded/eggs.png"
   inkscape:export-xdpi="90"
   inkscape:export-ydpi="90">
  <defs
     id="defs3780">
    <linearGradient
       inkscape:collect="always"
       id="linearGradient5613">
      <stop
         style="stop-color: rgb(233, 182, 139); stop-opacity: 1;"
         offset="0"
         id="stop5615" />
      <stop
         style="stop-color: rgb(233, 182, 139); stop-opacity: 0;"
         offset="1"
         id="stop5617" />
    </linearGradient>
    <linearGradient
       inkscape:collect="always"
       id="linearGradient5602">
      <stop
         style="stop-color: rgb(85, 87, 83); stop-opacity: 1;"
         offset="0"
         id="stop5604" />
      <stop
         style="stop-color: rgb(85, 87, 83); stop-opacity: 0;"
         offset="1"
         id="stop5606" />
    </linearGradient>
    <linearGradient
       inkscape:collect="always"
       id="linearGradient5576">
      <stop
         style="stop-color: rgb(46, 52, 54); stop-opacity: 1;"
         offset="0"
         id="stop5578" />
      <stop
         style="stop-color: rgb(46, 52, 54); stop-opacity: 0;"
         offset="1"
         id="stop5580" />
    </linearGradient>
    <linearGradient
       id="linearGradient5471">
      <stop
         style="stop-color: rgb(233, 182, 139); stop-opacity: 1;"
         offset="0"
         id="stop5473" />
      <stop
         style="stop-color: rgb(255, 255, 255); stop-opacity: 1;"
         offset="1"
         id="stop5475" />
    </linearGradient>
    <linearGradient
       id="linearGradient5130">
      <stop
         style="stop-color: rgb(255, 255, 255); stop-opacity: 0.880795;"
         offset="0"
         id="stop5132" />
      <stop
         style="stop-color: rgb(240, 219, 196); stop-opacity: 0;"
         offset="1"
         id="stop5134" />
    </linearGradient>
    <inkscape:perspective
       sodipodi:type="inkscape:persp3d"
       inkscape:vp_x="0 : 526.18109 : 1"
       inkscape:vp_y="0 : 1000 : 0"
       inkscape:vp_z="744.09448 : 526.18109 : 1"
       inkscape:persp3d-origin="372.04724 : 350.78739 : 1"
       id="perspective3786" />
    <inkscape:perspective
       id="perspective3923"
       inkscape:persp3d-origin="372.04724 : 350.78739 : 1"
       inkscape:vp_z="744.09448 : 526.18109 : 1"
       inkscape:vp_y="0 : 1000 : 0"
       inkscape:vp_x="0 : 526.18109 : 1"
       sodipodi:type="inkscape:persp3d" />
    <linearGradient
       gradientUnits="userSpaceOnUse"
       gradientTransform="scale(2.04013,0.490164)"
       inkscape:collect="always"
       xlink:href="#linearGradient6038"
       id="linearGradient6037"
       x1="111.63761"
       y1="1159.5634"
       x2="137.22827"
       y2="1171.1079" />
    <linearGradient
       gradientUnits="userSpaceOnUse"
       gradientTransform="scale(2.25768,0.442932)"
       inkscape:collect="always"
       xlink:href="#linearGradient4791"
       id="linearGradient5415"
       x1="94.655075"
       y1="1353.3168"
       x2="127.61944"
       y2="1364.8903" />
    <linearGradient
       gradientUnits="userSpaceOnUse"
       gradientTransform="scale(1.02654,0.974149)"
       inkscape:collect="always"
       xlink:href="#linearGradient4791"
       id="linearGradient4790"
       x1="135.00397"
       y1="354.80746"
       x2="292.59247"
       y2="441.96683" />
    <linearGradient
       gradientUnits="userSpaceOnUse"
       gradientTransform="scale(1.09532,0.912975)"
       inkscape:collect="always"
       xlink:href="#linearGradient4164"
       id="linearGradient4168"
       x1="165.3101"
       y1="150.57979"
       x2="280.35352"
       y2="218.90958" />
    <linearGradient
       id="linearGradient4164">
      <stop
         style="stop-color: rgb(241, 220, 197); stop-opacity: 1;"
         offset="0.00000000"
         id="stop4165" />
      <stop
         style="stop-color: rgb(233, 182, 139); stop-opacity: 1;"
         offset="1.0000000"
         id="stop4166" />
    </linearGradient>
    <linearGradient
       id="linearGradient4791">
      <stop
         style="stop-color: rgb(50, 108, 179); stop-opacity: 1;"
         offset="0.00000000"
         id="stop4792" />
      <stop
         style="stop-color: rgb(50, 60, 129); stop-opacity: 1;"
         offset="1.0000000"
         id="stop4793" />
    </linearGradient>
    <linearGradient
       id="linearGradient6038">
      <stop
         style="stop-color: rgb(187, 104, 31); stop-opacity: 1;"
         offset="0.00000000"
         id="stop6039" />
      <stop
         style="stop-color: rgb(126, 60, 7); stop-opacity: 1;"
         offset="1.0000000"
         id="stop6040" />
    </linearGradient>
    <inkscape:perspective
       id="perspective4296"
       inkscape:persp3d-origin="160 : 190.66667 : 1"
       inkscape:vp_z="320 : 286 : 1"
       inkscape:vp_y="0 : 1000 : 0"
       inkscape:vp_x="0 : 286 : 1"
       sodipodi:type="inkscape:persp3d" />
    <linearGradient
       inkscape:collect="always"
       xlink:href="#linearGradient4791"
       id="linearGradient4323"
       gradientUnits="userSpaceOnUse"
       gradientTransform="matrix(2.25768,0,0,0.442932,-471.625,73.8153)"
       x1="94.655075"
       y1="1353.3168"
       x2="127.61944"
       y2="1364.8903" />
    <linearGradient
       inkscape:collect="always"
       xlink:href="#linearGradient6038"
       id="linearGradient4326"
       gradientUnits="userSpaceOnUse"
       gradientTransform="matrix(2.04013,0,0,0.490164,-501.625,95.2439)"
       x1="111.63761"
       y1="1159.5634"
       x2="137.22827"
       y2="1171.1079" />
    <linearGradient
       inkscape:collect="always"
       xlink:href="#linearGradient4791"
       id="linearGradient4329"
       gradientUnits="userSpaceOnUse"
       gradientTransform="matrix(1.02654,0,0,0.974149,-501.625,95.2439)"
       x1="135.00397"
       y1="354.80746"
       x2="292.59247"
       y2="441.96683" />
    <linearGradient
       inkscape:collect="always"
       xlink:href="#linearGradient4164"
       id="linearGradient4332"
       gradientUnits="userSpaceOnUse"
       gradientTransform="matrix(1.09532,0,0,0.912975,-498.768,83.8153)"
       x1="165.3101"
       y1="150.57979"
       x2="280.35352"
       y2="218.90958" />
    <inkscape:perspective
       id="perspective5463"
       inkscape:persp3d-origin="372.04724 : 350.78739 : 1"
       inkscape:vp_z="744.09448 : 526.18109 : 1"
       inkscape:vp_y="0 : 1000 : 0"
       inkscape:vp_x="0 : 526.18109 : 1"
       sodipodi:type="inkscape:persp3d" />
    <radialGradient
       inkscape:collect="always"
       xlink:href="#linearGradient5130"
       id="radialGradient5483"
       gradientUnits="userSpaceOnUse"
       gradientTransform="matrix(0.632543,7.15569e-3,-9.34982e-3,0.826491,-212.828,458.513)"
       spreadMethod="reflect"
       cx="370.71429"
       cy="282.56592"
       fx="370.71429"
       fy="282.56592"
       r="150.71426" />
    <linearGradient
       inkscape:collect="always"
       xlink:href="#linearGradient5471"
       id="linearGradient5485"
       gradientUnits="userSpaceOnUse"
       x1="255.61951"
       y1="744.62158"
       x2="167.05849"
       y2="662.64203"
       gradientTransform="matrix(0.898549,-0.438873,0.438873,0.898549,-337.2,231.949)" />
    <radialGradient
       inkscape:collect="always"
       xlink:href="#linearGradient5130"
       id="radialGradient5499"
       gradientUnits="userSpaceOnUse"
       gradientTransform="matrix(0.484197,0.407082,0.5319,-0.632659,-384.647,639.258)"
       spreadMethod="reflect"
       cx="370.71429"
       cy="282.56592"
       fx="370.71429"
       fy="282.56592"
       r="150.71426" />
    <linearGradient
       inkscape:collect="always"
       xlink:href="#linearGradient5471"
       id="linearGradient5501"
       gradientUnits="userSpaceOnUse"
       x1="255.61951"
       y1="744.62158"
       x2="167.05849"
       y2="662.64203"
       gradientTransform="matrix(0.394982,0.918689,0.918689,-0.394982,-626.684,729.907)" />
    <radialGradient
       inkscape:collect="always"
       xlink:href="#linearGradient5130"
       id="radialGradient5507"
       gradientUnits="userSpaceOnUse"
       gradientTransform="matrix(0.632543,7.15569e-3,-9.34982e-3,0.826491,364.449,697.753)"
       spreadMethod="reflect"
       cx="370.71429"
       cy="282.56592"
       fx="370.71429"
       fy="282.56592"
       r="150.71426" />
    <linearGradient
       inkscape:collect="always"
       xlink:href="#linearGradient5471"
       id="linearGradient5509"
       gradientUnits="userSpaceOnUse"
       gradientTransform="matrix(0.898549,-0.438873,0.438873,0.898549,240.077,471.189)"
       x1="255.61951"
       y1="744.62158"
       x2="167.05849"
       y2="662.64203" />
    <radialGradient
       inkscape:collect="always"
       xlink:href="#linearGradient4164"
       id="radialGradient5570"
       cx="338.86322"
       cy="534.54041"
       fx="338.86322"
       fy="534.54041"
       r="84.244652"
       gradientTransform="matrix(1,0,0,1.01067,0,-5.72836)"
       gradientUnits="userSpaceOnUse" />
    <radialGradient
       inkscape:collect="always"
       xlink:href="#linearGradient5576"
       id="radialGradient5582"
       cx="238.14325"
       cy="555.14624"
       fx="238.14325"
       fy="555.14624"
       r="84.244652"
       gradientTransform="matrix(0.330321,0.500936,-1.76299,1.16253,1137.57,-209.657)"
       gradientUnits="userSpaceOnUse" />
    <radialGradient
       inkscape:collect="always"
       xlink:href="#linearGradient4164"
       id="radialGradient5592"
       gradientUnits="userSpaceOnUse"
       gradientTransform="matrix(1.06447,0.119887,-9.06538e-2,0.804909,-13.1125,-8.39089)"
       cx="220.92735"
       cy="492.31613"
       fx="220.92735"
       fy="492.31613"
       r="81.545723" />
    <radialGradient
       inkscape:collect="always"
       xlink:href="#linearGradient4164"
       id="radialGradient5598"
       gradientUnits="userSpaceOnUse"
       gradientTransform="matrix(1.06447,0.119887,-9.06538e-2,0.804909,-13.1125,-8.39089)"
       cx="220.92735"
       cy="492.31613"
       fx="220.92735"
       fy="492.31613"
       r="81.545723" />
    <radialGradient
       inkscape:collect="always"
       xlink:href="#linearGradient5602"
       id="radialGradient5611"
       gradientUnits="userSpaceOnUse"
       gradientTransform="matrix(1.06611,-4.74107e-2,5.0185e-2,1.12849,-54.192,-76.6756)"
       cx="299.32776"
       cy="685.5426"
       fx="299.32776"
       fy="685.5426"
       r="92.988693" />
    <linearGradient
       inkscape:collect="always"
       xlink:href="#linearGradient5613"
       id="linearGradient5619"
       x1="149.9512"
       y1="432.01895"
       x2="328.86368"
       y2="432.01895"
       gradientUnits="userSpaceOnUse" />
    <linearGradient
       inkscape:collect="always"
       xlink:href="#linearGradient5613"
       id="linearGradient5621"
       gradientUnits="userSpaceOnUse"
       x1="242.5782"
       y1="436.99283"
       x2="195.21817"
       y2="364.7034" />
    <radialGradient
       inkscape:collect="always"
       xlink:href="#linearGradient5130"
       id="radialGradient5643"
       gradientUnits="userSpaceOnUse"
       gradientTransform="matrix(0.632543,7.15569e-3,-9.34982e-3,0.826491,-212.828,458.513)"
       spreadMethod="reflect"
       cx="370.71429"
       cy="282.56592"
       fx="370.71429"
       fy="282.56592"
       r="150.71426" />
    <linearGradient
       inkscape:collect="always"
       xlink:href="#linearGradient5471"
       id="linearGradient5645"
       gradientUnits="userSpaceOnUse"
       gradientTransform="matrix(0.898549,-0.438873,0.438873,0.898549,-337.2,231.949)"
       x1="255.61951"
       y1="744.62158"
       x2="167.05849"
       y2="662.64203" />
    <radialGradient
       inkscape:collect="always"
       xlink:href="#linearGradient5130"
       id="radialGradient5647"
       gradientUnits="userSpaceOnUse"
       gradientTransform="matrix(0.484197,0.407082,0.5319,-0.632659,-384.647,639.258)"
       spreadMethod="reflect"
       cx="370.71429"
       cy="282.56592"
       fx="370.71429"
       fy="282.56592"
       r="150.71426" />
    <linearGradient
       inkscape:collect="always"
       xlink:href="#linearGradient5471"
       id="linearGradient5649"
       gradientUnits="userSpaceOnUse"
       gradientTransform="matrix(0.394982,0.918689,0.918689,-0.394982,-626.684,729.907)"
       x1="255.61951"
       y1="744.62158"
       x2="167.05849"
       y2="662.64203" />
    <radialGradient
       inkscape:collect="always"
       xlink:href="#linearGradient4164"
       id="radialGradient5651"
       gradientUnits="userSpaceOnUse"
       gradientTransform="matrix(1,0,0,1.01067,0,-5.72836)"
       cx="338.86322"
       cy="534.54041"
       fx="338.86322"
       fy="534.54041"
       r="84.244652" />
    <radialGradient
       inkscape:collect="always"
       xlink:href="#linearGradient5130"
       id="radialGradient5653"
       gradientUnits="userSpaceOnUse"
       gradientTransform="matrix(0.632543,7.15569e-3,-9.34982e-3,0.826491,364.449,697.753)"
       spreadMethod="reflect"
       cx="370.71429"
       cy="282.56592"
       fx="370.71429"
       fy="282.56592"
       r="150.71426" />
    <linearGradient
       inkscape:collect="always"
       xlink:href="#linearGradient5471"
       id="linearGradient5655"
       gradientUnits="userSpaceOnUse"
       gradientTransform="matrix(0.898549,-0.438873,0.438873,0.898549,240.077,471.189)"
       x1="255.61951"
       y1="744.62158"
       x2="167.05849"
       y2="662.64203" />
    <radialGradient
       inkscape:collect="always"
       xlink:href="#linearGradient5576"
       id="radialGradient5657"
       gradientUnits="userSpaceOnUse"
       gradientTransform="matrix(0.330321,0.500936,-1.76299,1.16253,1137.57,-209.657)"
       cx="238.14325"
       cy="555.14624"
       fx="238.14325"
       fy="555.14624"
       r="84.244652" />
    <radialGradient
       inkscape:collect="always"
       xlink:href="#linearGradient4164"
       id="radialGradient5659"
       gradientUnits="userSpaceOnUse"
       gradientTransform="matrix(1.06447,0.119887,-9.06538e-2,0.804909,-13.1125,-8.39089)"
       cx="220.92735"
       cy="492.31613"
       fx="220.92735"
       fy="492.31613"
       r="81.545723" />
    <radialGradient
       inkscape:collect="always"
       xlink:href="#linearGradient5602"
       id="radialGradient5661"
       gradientUnits="userSpaceOnUse"
       gradientTransform="matrix(1.06611,-4.74107e-2,5.0185e-2,1.12849,-54.192,-76.6756)"
       cx="299.32776"
       cy="685.5426"
       fx="299.32776"
       fy="685.5426"
       r="92.988693" />
    <radialGradient
       inkscape:collect="always"
       xlink:href="#linearGradient4164"
       id="radialGradient5663"
       gradientUnits="userSpaceOnUse"
       gradientTransform="matrix(1.06447,0.119887,-9.06538e-2,0.804909,-13.1125,-8.39089)"
       cx="220.92735"
       cy="492.31613"
       fx="220.92735"
       fy="492.31613"
       r="81.545723" />
    <linearGradient
       inkscape:collect="always"
       xlink:href="#linearGradient5613"
       id="linearGradient5665"
       gradientUnits="userSpaceOnUse"
       x1="242.5782"
       y1="436.99283"
       x2="195.21817"
       y2="364.7034" />
    <linearGradient
       inkscape:collect="always"
       xlink:href="#linearGradient5613"
       id="linearGradient5667"
       gradientUnits="userSpaceOnUse"
       x1="149.9512"
       y1="432.01895"
       x2="328.86368"
       y2="432.01895" />
    <radialGradient
       inkscape:collect="always"
       xlink:href="#linearGradient5602"
       id="radialGradient5672"
       gradientUnits="userSpaceOnUse"
       gradientTransform="matrix(0.256003,1.036,1.09662,-0.270984,-387.396,496.777)"
       cx="299.32776"
       cy="685.5426"
       fx="299.32776"
       fy="685.5426"
       r="92.988693" />
    <radialGradient
       inkscape:collect="always"
       xlink:href="#linearGradient5576"
       id="radialGradient5677"
       gradientUnits="userSpaceOnUse"
       gradientTransform="matrix(0.573899,0.175182,0.616533,-2.01977,-135.936,1685.5)"
       cx="238.14325"
       cy="555.14624"
       fx="238.14325"
       fy="555.14624"
       r="84.244652" />
    <radialGradient
       inkscape:collect="always"
       xlink:href="#linearGradient5130"
       id="radialGradient5680"
       gradientUnits="userSpaceOnUse"
       gradientTransform="matrix(0.185737,0.604701,0.790112,-0.242687,269.808,653.334)"
       spreadMethod="reflect"
       cx="370.71429"
       cy="282.56592"
       fx="370.71429"
       fy="282.56592"
       r="150.71426" />
    <linearGradient
       inkscape:collect="always"
       xlink:href="#linearGradient5471"
       id="linearGradient5682"
       gradientUnits="userSpaceOnUse"
       gradientTransform="matrix(-0.166863,0.98598,0.98598,0.166863,17.3218,598.107)"
       x1="255.61951"
       y1="744.62158"
       x2="167.05849"
       y2="662.64203" />
    <radialGradient
       inkscape:collect="always"
       xlink:href="#linearGradient4164"
       id="radialGradient5685"
       gradientUnits="userSpaceOnUse"
       gradientTransform="matrix(0.282785,0.959183,0.96942,-0.285803,-262.02,536.694)"
       cx="338.86322"
       cy="534.54041"
       fx="338.86322"
       fy="534.54041"
       r="84.244652" />
    <radialGradient
       inkscape:collect="always"
       xlink:href="#linearGradient5130"
       id="radialGradient5689"
       gradientUnits="userSpaceOnUse"
       gradientTransform="matrix(0.52739,0.349317,-0.456423,0.689095,91.868,5.35532)"
       spreadMethod="reflect"
       cx="370.71429"
       cy="282.56592"
       fx="370.71429"
       fy="282.56592"
       r="150.71426" />
    <linearGradient
       inkscape:collect="always"
       xlink:href="#linearGradient5471"
       id="linearGradient5691"
       gradientUnits="userSpaceOnUse"
       gradientTransform="matrix(0.992886,0.11907,-0.11907,0.992886,110.373,-252.437)"
       x1="255.61951"
       y1="744.62158"
       x2="167.05849"
       y2="662.64203" />
    <radialGradient
       inkscape:collect="always"
       xlink:href="#linearGradient5130"
       id="radialGradient5695"
       gradientUnits="userSpaceOnUse"
       gradientTransform="matrix(0.185737,0.604701,0.790112,-0.242687,-32.9115,221.273)"
       spreadMethod="reflect"
       cx="370.71429"
       cy="282.56592"
       fx="370.71429"
       fy="282.56592"
       r="150.71426" />
    <linearGradient
       inkscape:collect="always"
       xlink:href="#linearGradient5471"
       id="linearGradient5697"
       gradientUnits="userSpaceOnUse"
       gradientTransform="matrix(-0.166863,0.98598,0.98598,0.166863,-285.398,166.046)"
       x1="255.61951"
       y1="744.62158"
       x2="167.05849"
       y2="662.64203" />
    <filter
       inkscape:collect="always"
       id="filter5834"
       x="-0.16246746"
       width="1.324935"
       y="-0.32513022"
       height="1.6502604">
      <feGaussianBlur
         inkscape:collect="always"
         stdDeviation="12.376592"
         id="feGaussianBlur5836" />
    </filter>
    <filter
       inkscape:collect="always"
       id="filter5844"
       x="-0.15209971"
       width="1.3041995"
       y="-0.37249148"
       height="1.744983">
      <feGaussianBlur
         inkscape:collect="always"
         stdDeviation="15.707477"
         id="feGaussianBlur5846" />
    </filter>
    <radialGradient
       inkscape:collect="always"
       xlink:href="#linearGradient5576"
       id="radialGradient5858"
       gradientUnits="userSpaceOnUse"
       gradientTransform="matrix(0.573899,0.175182,0.616533,-2.01977,-29.9364,2073.5)"
       cx="238.14325"
       cy="555.14624"
       fx="238.14325"
       fy="555.14624"
       r="84.244652" />
    <radialGradient
       inkscape:collect="always"
       xlink:href="#linearGradient4164"
       id="radialGradient5860"
       gradientUnits="userSpaceOnUse"
       gradientTransform="matrix(1.06447,0.119887,-9.06538e-2,0.804909,-13.1125,-8.39089)"
       cx="220.92735"
       cy="492.31613"
       fx="220.92735"
       fy="492.31613"
       r="81.545723" />
    <radialGradient
       inkscape:collect="always"
       xlink:href="#linearGradient4164"
       id="radialGradient5874"
       gradientUnits="userSpaceOnUse"
       gradientTransform="matrix(1.06447,0.119887,-9.06538e-2,0.804909,-13.1125,-8.39089)"
       cx="220.92735"
       cy="492.31613"
       fx="220.92735"
       fy="492.31613"
       r="81.545723" />
    <linearGradient
       inkscape:collect="always"
       xlink:href="#linearGradient5613"
       id="linearGradient5876"
       gradientUnits="userSpaceOnUse"
       x1="242.5782"
       y1="436.99283"
       x2="195.21817"
       y2="364.7034" />
    <linearGradient
       inkscape:collect="always"
       xlink:href="#linearGradient5613"
       id="linearGradient5878"
       gradientUnits="userSpaceOnUse"
       x1="149.9512"
       y1="432.01895"
       x2="328.86368"
       y2="432.01895" />
    <radialGradient
       inkscape:collect="always"
       xlink:href="#linearGradient4164"
       id="radialGradient5880"
       gradientUnits="userSpaceOnUse"
       gradientTransform="matrix(1.06447,0.119887,-9.06538e-2,0.804909,-13.1125,-8.39089)"
       cx="220.92735"
       cy="492.31613"
       fx="220.92735"
       fy="492.31613"
       r="81.545723" />
    <filter
       inkscape:collect="always"
       id="filter5886"
       x="-0.098971911"
       width="1.1979438"
       y="-0.15237422"
       height="1.3047484">
      <feGaussianBlur
         inkscape:collect="always"
         stdDeviation="6.6665451"
         id="feGaussianBlur5888" />
    </filter>
    <filter
       inkscape:collect="always"
       id="filter5890"
       x="-0.099045046"
       width="1.1980901"
       y="-0.15220121"
       height="1.3044024">
      <feGaussianBlur
         inkscape:collect="always"
         stdDeviation="6.2585397"
         id="feGaussianBlur5892" />
    </filter>
    <radialGradient
       inkscape:collect="always"
       xlink:href="#linearGradient4164"
       id="radialGradient2489"
       gradientUnits="userSpaceOnUse"
       gradientTransform="matrix(0.282785,0.959183,0.96942,-0.285803,-262.02,536.694)"
       cx="338.86322"
       cy="534.54041"
       fx="338.86322"
       fy="534.54041"
       r="84.244652" />
    <radialGradient
       inkscape:collect="always"
       xlink:href="#linearGradient5576"
       id="radialGradient2491"
       gradientUnits="userSpaceOnUse"
       gradientTransform="matrix(0.573899,0.175182,0.616533,-2.01977,-135.936,1685.5)"
       cx="238.14325"
       cy="555.14624"
       fx="238.14325"
       fy="555.14624"
       r="84.244652" />
    <radialGradient
       inkscape:collect="always"
       xlink:href="#linearGradient4164"
       id="radialGradient2493"
       gradientUnits="userSpaceOnUse"
       gradientTransform="matrix(1.06447,0.119887,-9.06538e-2,0.804909,-13.1125,-8.39089)"
       cx="220.92735"
       cy="492.31613"
       fx="220.92735"
       fy="492.31613"
       r="81.545723" />
    <radialGradient
       inkscape:collect="always"
       xlink:href="#linearGradient5602"
       id="radialGradient2495"
       gradientUnits="userSpaceOnUse"
       gradientTransform="matrix(0.256003,1.036,1.09662,-0.270984,-387.396,496.777)"
       cx="299.32776"
       cy="685.5426"
       fx="299.32776"
       fy="685.5426"
       r="92.988693" />
    <radialGradient
       inkscape:collect="always"
       xlink:href="#linearGradient4164"
       id="radialGradient2497"
       gradientUnits="userSpaceOnUse"
       gradientTransform="matrix(1.06447,0.119887,-9.06538e-2,0.804909,-13.1125,-8.39089)"
       cx="220.92735"
       cy="492.31613"
       fx="220.92735"
       fy="492.31613"
       r="81.545723" />
    <linearGradient
       inkscape:collect="always"
       xlink:href="#linearGradient5613"
       id="linearGradient2499"
       gradientUnits="userSpaceOnUse"
       x1="242.5782"
       y1="436.99283"
       x2="195.21817"
       y2="364.7034" />
    <linearGradient
       inkscape:collect="always"
       xlink:href="#linearGradient5613"
       id="linearGradient2501"
       gradientUnits="userSpaceOnUse"
       x1="149.9512"
       y1="432.01895"
       x2="328.86368"
       y2="432.01895" />
  </defs>
  <sodipodi:namedview
     id="base"
     pagecolor="#ffffff"
     bordercolor="#666666"
     borderopacity="1.0"
     inkscape:pageopacity="0.0"
     inkscape:pageshadow="2"
     inkscape:zoom="0.5"
     inkscape:cx="318.3064"
     inkscape:cy="387.38458"
     inkscape:document-units="px"
     inkscape:current-layer="layer1"
     showgrid="false"
     inkscape:window-width="1272"
     inkscape:window-height="783"
     inkscape:window-x="0"
     inkscape:window-y="0" />
  <metadata
     id="metadata3783">
    <rdf:RDF>
      <cc:Work
         rdf:about="">
        <dc:format>image/svg+xml</dc:format>
        <dc:type
           rdf:resource="http://purl.org/dc/dcmitype/StillImage" />
      </cc:Work>
    </rdf:RDF>
  </metadata>
  <g
     inkscape:label="Capa 1"
     inkscape:groupmode="layer"
     id="layer1"
     transform="translate(-216.54856,-474.25234)">
    <g
       id="g2479"
       transform="matrix(0.258819,0.9659258,-0.9659258,0.258819,846.08951,68.90438)">
      <path
         style="fill:#edcbac;fill-opacity:1;fill-rule:nonzero;stroke:none;stroke-width:0.5;stroke-linecap:round;stroke-linejoin:bevel;stroke-miterlimit:4;stroke-dashoffset:0;stroke-opacity:1"
         d="M 356.56137,744.87809 C 364.49372,747.38516 372.63304,749.38441 380.90512,750.78434 C 448.70473,762.25846 498.67913,729.6949 506.99887,680.53433 C 515.3186,631.37378 478.86099,584.16473 411.06136,572.69058 C 403.63017,571.43297 396.13199,570.73011 388.65511,570.40933 C 389.30784,570.70087 389.94617,570.9872 390.49886,571.37808 C 391.21106,571.88178 391.82674,572.47244 392.31136,573.15933 C 392.79598,573.84622 393.15479,574.64374 393.34261,575.53433 C 393.53044,576.42493 393.55202,577.4195 393.37386,578.53434 C 392.51324,579.22293 391.88989,579.88853 391.46761,580.53434 C 391.04533,581.18013 390.8334,581.79306 390.78011,582.37809 C 390.72683,582.96311 390.84626,583.52803 391.09261,584.03433 C 391.33896,584.54064 391.70973,584.99972 392.18636,585.40934 C 392.66299,585.81894 393.23631,586.17688 393.87386,586.47184 C 394.51142,586.76679 395.20723,586.997 395.93636,587.15933 C 397.39461,587.484 398.96548,587.53544 400.37387,587.22184 C 402.04018,587.769 403.60055,588.56663 405.09261,589.50308 C 406.58467,590.43954 408.00302,591.49579 409.43637,592.56558 C 410.8697,593.63538 412.32119,594.71212 413.81136,595.65934 C 415.30153,596.60654 416.83632,597.43441 418.49887,598.00308 C 419.9461,598.36176 421.02723,598.85978 421.78011,599.44059 C 422.53299,600.02138 422.98204,600.69551 423.15511,601.40933 C 423.32818,602.12315 423.22856,602.87037 422.93636,603.62808 C 422.64416,604.3858 422.1418,605.13434 421.49886,605.84683 C 420.85593,606.55933 420.06548,607.2374 419.18636,607.81559 C 418.30724,608.39377 417.34339,608.86709 416.34262,609.22183 C 415.34183,609.57658 414.31925,609.80466 413.31136,609.84683 C 412.30347,609.88901 411.30558,609.76882 410.40511,609.40933 C 409.10533,609.21125 408.0213,609.24338 407.12387,609.47184 C 406.22643,609.70028 405.53225,610.10133 404.93636,610.65933 C 404.34048,611.21733 403.86275,611.93128 403.46761,612.72183 C 403.07247,613.51239 402.73155,614.38944 402.43636,615.31558 C 401.84599,617.16787 401.35669,619.19037 400.56137,621.00309 C 400.1637,621.90944 399.69272,622.75211 399.09261,623.50309 C 398.49251,624.25406 397.77719,624.9107 396.87387,625.40933 C 395.18483,626.60434 393.75905,627.99577 392.62386,629.50308 C 391.48868,631.0104 390.63306,632.64959 390.12386,634.37808 C 389.86926,635.24234 389.70844,636.13186 389.62387,637.03433 C 389.53928,637.93681 389.5294,638.85503 389.62386,639.78433 C 389.71833,640.71364 389.90384,641.65209 390.18636,642.59683 C 390.4689,643.54158 390.863,644.49179 391.34261,645.44058 C 391.00171,647.53924 390.92942,649.59215 391.09261,651.62808 C 391.25581,653.66402 391.6608,655.66331 392.28012,657.59684 C 392.89943,659.53035 393.72138,661.39918 394.74887,663.19058 C 395.77635,664.98199 396.98618,666.70598 398.37387,668.31558 C 397.75946,670.22368 396.99391,672.08557 396.03012,673.84683 C 395.06633,675.6081 393.92565,677.25398 392.62387,678.75308 C 391.32208,680.25219 389.84605,681.60024 388.21761,682.72184 C 386.58919,683.84344 384.7863,684.74932 382.84261,685.37808 C 382.59355,686.13097 382.54359,686.82168 382.62386,687.44058 C 382.70414,688.05949 382.91386,688.61542 383.24886,689.12808 C 383.91888,690.15341 385.03883,690.9862 386.28012,691.75308 C 387.52141,692.51998 388.90818,693.21011 390.12387,693.94059 C 391.33955,694.67107 392.37441,695.43075 392.96761,696.34683 C 391.38915,696.86419 389.58352,697.12547 387.71762,697.34684 C 385.85171,697.56819 383.94743,697.76702 382.15512,698.15933 C 381.25895,698.3555 380.37143,698.58289 379.56136,698.90934 C 378.7513,699.23579 378.02145,699.64423 377.34262,700.15933 C 376.66378,700.67445 376.03259,701.30344 375.53012,702.06559 C 375.02763,702.82773 374.65485,703.74803 374.37386,704.81559 C 373.78534,706.81613 373.42841,708.8216 373.37386,710.78433 C 373.31932,712.74708 373.55273,714.64348 374.06136,716.47183 C 374.57,718.3002 375.36662,720.06193 376.46761,721.65934 C 377.01811,722.45804 377.63855,723.21772 378.34262,723.94059 C 379.04668,724.66345 379.82509,725.3369 380.68637,725.97184 C 381.2352,727.37282 381.47671,728.54364 381.46762,729.50309 C 381.45851,730.46253 381.20264,731.21693 380.74886,731.81559 C 380.29508,732.41425 379.65906,732.84071 378.87386,733.15934 C 378.08868,733.47796 377.15846,733.69625 376.15512,733.81558 C 374.14843,734.05424 371.82358,733.95209 369.62386,733.87809 C 367.42415,733.80409 365.36054,733.74377 363.87386,734.00309 C 364.14177,734.71683 364.25393,735.41835 364.24887,736.12809 C 364.24379,736.83782 364.11419,737.57001 363.87387,738.25309 C 363.63353,738.93616 363.28049,739.58809 362.84262,740.22183 C 362.40475,740.85557 361.8778,741.44133 361.28011,742.00309 C 360.08475,743.12661 358.60718,744.0847 356.99886,744.78433 C 356.86094,744.84434 356.70114,744.82193 356.56137,744.87809 z"
         id="path5539" />
      <path
         style="fill:url(#radialGradient2489);fill-opacity:1;fill-rule:nonzero;stroke:none;stroke-width:0.5;stroke-linecap:round;stroke-linejoin:bevel;stroke-miterlimit:4;stroke-dashoffset:0;stroke-opacity:1"
         d="M 361.75002,568.09376 C 329.32394,569.68722 295.62384,578.7322 270.93668,600.75227 C 255.12199,614.65266 245.839,636.66847 250.63972,657.64132 C 256.46412,684.50961 277.00185,705.43733 299.07261,720.39601 C 310.40248,727.98717 322.63439,734.20971 335.37502,739.06252 C 339.4303,745.23569 350.57632,744.41278 352.02573,735.97877 C 350.83883,727.47843 372.4572,738.51678 368.91741,725.7579 C 361.96478,719.91414 370.73962,727.26585 375.40627,718.84377 C 378.17703,712.43739 372.98304,706.73587 374.65533,700.85229 C 368.62939,698.67488 364.96682,681.9239 376.09377,681.50001 C 384.77265,668.18835 384.81507,662.05859 373.73757,659.22519 C 385.35552,658.33532 383.95454,642.90476 385.44584,633.8773 C 390.23806,626.64444 390.41704,619.59858 392.00286,610.38156 C 397.35399,609.05692 410.54159,611.05874 411.03127,600.18751 C 405.09522,595.34071 397.08992,591.94776 390.67475,586.99466 C 385.71028,587.01514 373.6145,583.78563 381.25002,577.31251 C 382.65822,567.97805 371.85406,568.66726 365.68334,568.97358 C 364.96503,568.53943 361.44525,573.0954 361.75002,568.09376 z M 364.06255,624.6875 C 363.92332,625.30932 362.37742,625.89565 364.06255,624.6875 z M 354.21875,665.78127 C 352.33551,667.84799 350.54695,668.90185 354.21875,665.78127 z M 336.21874,705.15627 C 334.6685,706.99395 333.97585,707.02182 336.21874,705.15627 z"
         id="path5503"
         sodipodi:nodetypes="cccccccccccccccccccccccc" />
      <path
         sodipodi:nodetypes="cccccccccccccccccccccccc"
         id="path5572"
         d="M 360.75002,568.09375 C 328.32395,569.68721 294.62384,578.73219 269.93668,600.75226 C 254.122,614.65266 244.839,636.66847 249.63973,657.64131 C 255.46413,684.5096 276.00185,705.43733 298.07261,720.39601 C 309.40248,727.98717 321.63439,734.2097 334.37502,739.06252 C 338.4303,745.23568 349.57632,744.41277 351.02574,735.97876 C 349.83883,727.47843 371.4572,738.51677 367.91741,725.75789 C 360.96479,719.91414 369.73962,727.26584 374.40627,718.84376 C 377.17703,712.43738 371.98304,706.73586 373.65533,700.85228 C 367.6294,698.67488 363.96682,681.92389 375.09378,681.50001 C 383.77266,668.18835 383.81507,662.05859 372.73757,659.22518 C 384.35552,658.33531 382.95454,642.90476 384.44584,633.87729 C 389.23806,626.64443 389.41704,619.59858 391.00286,610.38155 C 396.35399,609.05692 409.54159,611.05874 410.03127,600.18751 C 404.09522,595.3407 396.08992,591.94776 389.67475,586.99465 C 384.71028,587.01513 372.61451,583.78562 380.25002,577.31251 C 381.65822,567.97804 370.85406,568.66725 364.68335,568.97358 C 363.96503,568.53942 360.44526,573.09539 360.75002,568.09375 z M 363.06255,624.68749 C 362.92333,625.30931 361.37742,625.89564 363.06255,624.68749 z M 353.21875,665.78126 C 351.33552,667.84799 349.54696,668.90184 353.21875,665.78126 z M 335.21874,705.15627 C 333.6685,706.99394 332.97585,707.02182 335.21874,705.15627 z"
         style="opacity:0.37323902;fill:url(#radialGradient2491);fill-opacity:1;fill-rule:nonzero;stroke:none;stroke-width:0.5;stroke-linecap:round;stroke-linejoin:bevel;stroke-miterlimit:4;stroke-dashoffset:0;stroke-opacity:1" />
      <g
         id="g5588"
         transform="matrix(0.282785,0.959183,0.959183,-0.282785,-163.661,553.879)">
        <path
           sodipodi:nodetypes="ccccccccccccc"
           id="path5537"
           d="M 162.27111,500.14466 C 154.7668,469.21793 153.85077,435.20298 167.0365,405.64428 C 175.00746,387.49725 191.19659,372.22538 211.20482,368.98509 C 236.51632,364.67688 261.68175,375.69767 281.88283,390.16517 C 296.43607,400.6737 309.18987,413.59118 319.91857,427.96188 C 311.71155,428.38489 303.74652,428.71302 295.62246,428.6659 C 285.75765,431.96075 277.14489,426.65082 268.95472,432.31909 C 263.4228,440.14651 247.21596,433.73259 243.55913,444.04005 C 241.42046,455.33875 213.69081,434.3669 208.00715,440.56043 C 199.2512,445.03676 190.21044,464.22292 183.22523,470.08392 C 173.70659,472.67778 171.947,472.26037 164.66589,478.09886 C 154.22478,484.08501 175.35373,492.87838 165.40068,497.33126 C 164.1815,497.91625 162.59768,498.68552 162.27111,500.14466 z"
           style="fill:url(#radialGradient2493);fill-opacity:1;fill-rule:nonzero;stroke:none;stroke-width:0.5;stroke-linecap:round;stroke-linejoin:bevel;stroke-miterlimit:4;stroke-dashoffset:0;stroke-opacity:1" />
      </g>
      <path
         style="opacity:0.42253502;fill:url(#radialGradient2495);fill-opacity:1;fill-rule:nonzero;stroke:none;stroke-width:0.5;stroke-linecap:round;stroke-linejoin:bevel;stroke-miterlimit:4;stroke-dashoffset:0;stroke-opacity:1"
         d="M 355.5614,743.8781 C 390.69565,754.99097 431.25169,756.48112 464.21985,737.99421 C 488.76842,724.62908 505.83431,698.40054 507.03737,670.34784 C 509.06397,641.34931 493.5127,613.18802 470.39076,596.33868 C 446.69316,578.60264 416.92785,570.59301 387.65511,569.40934 C 395.33798,571.91317 390.63468,578.38651 390.09261,583.03434 C 395.8974,588.18632 405.26176,586.02397 410.60254,593.15843 C 415.89829,596.16872 428.20672,600.43869 418.18636,606.81559 C 412.35471,610.75081 401.62845,605.18043 401.00617,615.73079 C 399.73801,625.08107 386.55113,628.12412 388.62386,638.78434 C 391.0934,647.81382 389.03163,658.52843 396.36652,666.08767 C 398.64775,675.19086 385.78762,681.21492 381.62386,686.44059 C 382.43334,691.66877 398.32397,695.29854 386.71762,696.34685 C 376.56828,695.09377 370.0741,704.78537 372.73169,714.08784 C 373.14332,720.74549 387.66822,729.93317 375.15512,732.81559 C 369.36459,733.6633 361.46786,730.02238 362.43232,738.25597 C 360.96516,740.87041 358.38632,742.93535 355.5614,743.8781 z"
         id="path5600" />
      <g
         transform="matrix(-0.354385,-0.9351,-0.9351,0.354385,925.424,728.625)"
         id="g5594"
         style="stroke:url(#linearGradient2501);stroke-width:2;stroke-miterlimit:4;stroke-dasharray:none;stroke-opacity:1">
        <path
           style="fill:url(#radialGradient2497);fill-opacity:1;fill-rule:nonzero;stroke:url(#linearGradient2499);stroke-width:2;stroke-linecap:round;stroke-linejoin:bevel;stroke-miterlimit:4;stroke-dasharray:none;stroke-dashoffset:0;stroke-opacity:1"
           d="M 162.27111,500.14466 C 146.91223,471.43847 147.85456,436.34115 161.04029,406.78245 C 169.01125,388.63542 190.69541,370.90295 210.70364,367.66266 C 235.13809,361.0402 265.81225,361.65527 288.14332,381.7431 C 302.69656,392.25163 318.20683,412.44248 327.86368,427.97557 C 319.65666,428.39858 303.74652,428.71302 295.62246,428.6659 C 285.75765,431.96075 277.14489,426.65082 268.95472,432.31909 C 263.4228,440.14651 247.21596,433.73259 243.55913,444.04005 C 241.42046,455.33875 213.69081,434.3669 208.00715,440.56043 C 199.2512,445.03676 190.21044,464.22292 183.22523,470.08392 C 173.70659,472.67778 171.947,472.26037 164.66589,478.09886 C 154.22478,484.08501 175.35373,492.87838 165.40068,497.33126 C 164.1815,497.91625 162.59768,498.68552 162.27111,500.14466 z"
           id="path5596"
           sodipodi:nodetypes="ccccccccccccc" />
      </g>
    </g>
  </g>
</svg>
