<?xml version="1.0" encoding="UTF-8" standalone="no"?>
<!-- Created with Inkscape (http://www.inkscape.org/) -->

<svg
   xmlns:dc="http://purl.org/dc/elements/1.1/"
   xmlns:cc="http://creativecommons.org/ns#"
   xmlns:rdf="http://www.w3.org/1999/02/22-rdf-syntax-ns#"
   xmlns:svg="http://www.w3.org/2000/svg"
   xmlns="http://www.w3.org/2000/svg"
   xmlns:xlink="http://www.w3.org/1999/xlink"
   xmlns:sodipodi="http://sodipodi.sourceforge.net/DTD/sodipodi-0.dtd"
   xmlns:inkscape="http://www.inkscape.org/namespaces/inkscape"
   id="svg3716"
   sodipodi:docname="rotating_bar.svg"
   inkscape:export-filename="/DTP opdrachten/Affiche Herfstactiviteit/Werkmateriaal/plankje licht.png"
   viewBox="0 0 1000 120.00001"
   inkscape:export-xdpi="1033.2246"
   version="1.1"
   inkscape:export-ydpi="1033.2246"
   inkscape:version="0.48.4 r9939"
   width="1000"
   height="120">
  <defs
     id="defs3718">
    <linearGradient
       id="linearGradient15083">
      <stop
         offset="0"
         style="stop-color:#eed19e;stop-opacity:1"
         id="stop15085" />
      <stop
         offset="1"
         style="stop-color:#dbba83;stop-opacity:1"
         id="stop15087" />
    </linearGradient>
    <radialGradient
       inkscape:collect="always"
       xlink:href="#linearGradient15083"
       id="radialGradient3075"
       gradientUnits="userSpaceOnUse"
       gradientTransform="matrix(-0.49006615,0.90569604,-11.087736,-0.41045375,12147.105,-233.75145)"
       spreadMethod="reflect"
       cx="951.26935"
       cy="961.41724"
       fx="951.26935"
       fy="961.41724"
       r="54.688" />
    <radialGradient
       gradientTransform="matrix(-2.0140418,-0.00354545,0.00322266,-1.8306729,1623.5053,973.20774)"
       gradientUnits="userSpaceOnUse"
       r="221.5"
       fy="338.35117"
       fx="533.19055"
       cy="338.35117"
       cx="533.19055"
       id="radialGradient3393"
       xlink:href="#linearGradient3367"
       inkscape:collect="always" />
    <linearGradient
       gradientUnits="userSpaceOnUse"
       y2="617.6875"
       x2="313.20016"
       y1="435.73093"
       x1="540.97028"
       id="linearGradient3357"
       xlink:href="#linearGradient3351"
       inkscape:collect="always" />
    <radialGradient
       inkscape:collect="always"
       xlink:href="#linearGradient3227"
       id="radialGradient3233"
       cx="340.90607"
       cy="266.79605"
       fx="340.90607"
       fy="266.79605"
       r="37.055008"
       gradientTransform="matrix(1,0,0,2.7,0,-453.5533)"
       gradientUnits="userSpaceOnUse" />
    <inkscape:perspective
       id="perspective3219"
       inkscape:persp3d-origin="372.04724 : 350.78739 : 1"
       inkscape:vp_z="744.09448 : 526.18109 : 1"
       inkscape:vp_y="0 : 1000 : 0"
       inkscape:vp_x="0 : 526.18109 : 1"
       sodipodi:type="inkscape:persp3d" />
    <inkscape:perspective
       sodipodi:type="inkscape:persp3d"
       inkscape:vp_x="0 : 526.18109 : 1"
       inkscape:vp_y="0 : 1000 : 0"
       inkscape:vp_z="744.09448 : 526.18109 : 1"
       inkscape:persp3d-origin="372.04724 : 350.78739 : 1"
       id="perspective10" />
    <linearGradient
       id="linearGradient3227">
      <stop
         style="stop-color:#fdf8bf;stop-opacity:1;"
         offset="0"
         id="stop3229" />
      <stop
         id="stop3235"
         offset="0.69999999"
         style="stop-color:#fdf8bf;stop-opacity:1;" />
      <stop
         style="stop-color:#fdf8bf;stop-opacity:0;"
         offset="1"
         id="stop3231" />
    </linearGradient>
    <linearGradient
       id="linearGradient3351">
      <stop
         id="stop3353"
         offset="0"
         style="stop-color:#b1b1b1;stop-opacity:1;" />
      <stop
         id="stop3355"
         offset="1"
         style="stop-color:#5e5e5e;stop-opacity:1;" />
    </linearGradient>
    <linearGradient
       id="linearGradient3367">
      <stop
         style="stop-color:#b1b1b1;stop-opacity:1;"
         offset="0"
         id="stop3369" />
      <stop
         style="stop-color:#6d6d6d;stop-opacity:1;"
         offset="1"
         id="stop3371" />
    </linearGradient>
  </defs>
  <sodipodi:namedview
     id="base"
     bordercolor="#666666"
     inkscape:pageshadow="2"
     inkscape:window-y="-4"
     fit-margin-left="0"
     pagecolor="#ffffff"
     fit-margin-top="0"
     inkscape:window-maximized="1"
     inkscape:zoom="0.976"
     inkscape:window-x="-4"
     inkscape:window-height="720"
     showgrid="false"
     borderopacity="1.0"
     inkscape:current-layer="layer1"
     inkscape:cx="435.96311"
     inkscape:cy="60"
     fit-margin-right="0"
     fit-margin-bottom="0"
     inkscape:window-width="1366"
     inkscape:pageopacity="0.0"
     inkscape:document-units="px"
     showguides="true" />
  <g
     id="layer1"
     inkscape:label="Ebene 1"
     inkscape:groupmode="layer"
     transform="translate(-487.67525,-150.66499)">
    <g
       id="g3067"
       transform="translate(-15.124292,-20.415235)">
      <path
         d="m 1510.6501,178.23551 0.051,100.00001 -1013.88171,0 7e-5,-100.00001 z"
         inkscape:connector-curvature="0"
         style="color:#000000;fill:url(#radialGradient3075)"
         sodipodi:nodetypes="ccccc"
         id="rect3077" />
      <path
         id="path3256"
         style="fill:#b3793b;fill-opacity:0.34553001"
         inkscape:connector-curvature="0"
         d="m 495.80519,283.83701 c -2.51356,-1.65268 -1.34056,-4.45126 2.22031,-5.44284 3.89606,-1.21202 8.21104,-2.04936 12.31655,-3.06302 4.31502,-0.96957 8.54619,-2.09339 12.94495,-2.95282 4.65013,-0.66106 9.50968,-0.99161 14.28549,-1.36621 15.33286,-0.79329 30.74949,-1.30012 46.12417,-1.74085 14.62065,-0.48479 29.24129,-0.92552 43.90385,-1.12383 23.83712,-0.41867 47.71612,-0.90348 71.55321,-1.07973 26.47637,-0.19845 52.9527,-0.39668 79.42911,-0.57296 17.13423,0.0881 34.26841,0.17624 51.40266,0.13204 93.71463,0.0442 187.38731,0.11035 281.10191,0.13231 59.5719,-0.17623 119.1436,-0.35259 178.7154,-0.55091 41.3066,-0.59497 82.5711,-1.23402 123.8357,-1.65268 28.4034,-0.41868 56.765,-0.81533 85.1265,-1.23402 3.6866,-0.11034 7.457,-0.48481 11.1435,-0.1323 3.8123,0.1323 5.8651,2.49005 4.5664,4.27495 -2.5555,2.11545 -7.834,1.87307 -11.9814,1.96122 -15.1653,0.26434 -30.3305,-0.0881 -45.4958,-0.0661 -35.5252,-0.1323 -71.0505,-0.35259 -106.5757,-0.39664 -27.1466,-0.0661 -54.2933,-0.11035 -81.44,0.0439 -124.1708,0.44075 -248.3415,0.81533 -372.51233,1.23402 -73.85734,0.24237 -147.71466,0.48481 -221.5301,0.72721 -23.37629,0.39662 -46.71063,0.83735 -70.04506,1.32213 -11.05974,0.57293 -22.11948,1.01366 -33.09544,1.82899 -12.73548,0.77128 -25.47093,1.58658 -38.12263,2.66634 -4.98528,0.37463 -9.97052,0.88145 -14.95579,1.3442 -2.59737,0.57295 -5.23657,1.16792 -8.08531,1.23402 0.5446,-0.24238 -0.46084,-0.88144 -0.54465,-0.26435 -4.44063,1.67473 -9.17454,3.15112 -13.6152,4.82587 l -0.37706,0 -0.29301,-0.0881 z" />
      <path
         id="path3254"
         style="fill:#b3793b;fill-opacity:0.34553001"
         inkscape:connector-curvature="0"
         d="m 1506.7617,260.22901 c -40.7692,-0.37045 -81.5777,-0.79382 -122.347,-1.13781 -8.9158,0.1323 -17.8316,0.23815 -26.7475,0.0794 -9.5442,-0.0529 -19.0884,0.0529 -28.5934,0.15877 -87.4693,0 -174.9386,0.0265 -262.4079,0 -124.62508,-0.66152 -249.28939,-1.32304 -373.91448,-1.98455 -49.60652,0.58213 -99.21303,1.08488 -148.81955,1.69348 l -25.56915,0.55567 c -0.74626,-0.63505 0.1571,-2.43437 -1.84601,-2.01101 -5.2238,-0.74089 -10.56544,-1.08488 -15.82852,-1.64055 -2.55299,-0.76737 -6.16645,0.66151 -8.13028,-0.82029 -1.21758,-2.03747 2.67081,-3.59865 5.26307,-2.80482 5.22381,0.21168 10.44762,0.44982 15.67142,0.2646 11.42953,-0.18523 22.85906,-0.10584 34.28859,0.0529 6.83415,0.0529 13.62903,0.1323 20.4239,-0.0529 37.50929,-0.68798 74.97929,-1.0055 112.44929,-1.4818 38.05916,-0.42336 76.11832,-0.84673 114.21675,-1.24364 11.82228,-0.0794 23.68387,-0.26461 35.54546,-0.13231 11.39025,0.0794 22.81977,0.34399 34.21002,0.37045 151.45109,1.24365 302.86289,2.51376 454.27469,3.73095 54.4376,0.42337 108.8751,0.8732 163.3127,1.29657 7.4233,-0.21168 14.8073,-0.52921 22.1913,-0.74089 3.2207,-0.0794 7.9732,1.69347 6.5592,4.20724 -0.6677,1.05843 -2.3959,2.06393 -4.2026,1.64056 z" />
      <path
         id="path3252"
         style="fill:#b3793b;fill-opacity:0.34553001"
         inkscape:connector-curvature="0"
         d="m 1505.3085,248.66571 c -161.1132,-1.79933 -322.2264,-3.62511 -483.3395,-5.42444 -150.94051,-1.45533 -301.88098,-2.8842 -452.82147,-4.33954 -3.02431,-1.69348 -7.14836,-1.64057 -10.84037,-2.03747 -8.09101,-0.92613 -16.26057,-1.37595 -24.39085,-2.01101 -11.70447,-0.89967 -23.44822,-1.74641 -35.19196,-2.56669 -2.8672,0.10585 -6.00934,-0.63505 -7.61968,-2.30207 11.62591,-0.58213 23.2911,-1.13781 34.95629,-1.50826 21.64148,-0.10583 43.28296,-0.1323 64.92444,-0.39691 6.59849,0.0264 13.15771,0.31753 19.71692,0.34399 28.27924,0.39691 56.55849,1.08488 84.83774,1.42887 80.3602,1.16427 160.68109,2.355 241.04131,3.41343 133.89443,1.82579 267.82803,3.51926 401.72243,5.29213 47.9176,0.63505 95.8352,1.21719 143.7529,1.8787 8.6016,0.15876 17.2032,0.31753 25.8048,0.71444 3.7705,0.31753 7.1483,3.28112 4.4775,5.5832 -1.5318,1.48179 -4.399,2.22269 -7.0305,1.93163 z" />
      <path
         id="path3250"
         style="fill:#b3793b;fill-opacity:0.34553001"
         inkscape:connector-curvature="0"
         d="m 1392.1129,218.23596 c -139.7073,-1.19072 -279.4147,-2.38145 -419.12198,-3.54572 -69.87331,0.7409 -139.78588,1.53472 -209.65921,2.27561 -11.86158,0.0794 -23.72315,0.21169 -35.58472,0.26461 -57.34404,-1.69348 -114.68807,-3.33404 -172.0321,-5.02752 -15.43576,-0.55568 -30.87151,-1.03196 -46.26799,-1.93163 -4.67393,-0.34399 -9.38714,-0.68798 -14.06107,-1.05843 -3.61346,-0.55567 -5.77368,-3.54572 -4.0455,-5.76842 1.88528,-2.32853 6.16644,-1.98454 9.42641,-1.56117 5.7344,0.44983 11.54736,0.44983 17.32104,0.63505 7.06981,-0.0794 14.13962,-0.29107 21.20944,-0.29107 82.75607,1.13782 165.47288,2.30208 248.22896,3.41343 118.38007,1.29657 236.72092,2.6196 355.10092,3.88971 90.2972,0.92613 180.5552,1.82579 270.8524,2.75191 15.2001,-0.74089 30.4395,-1.37596 45.6002,-2.32853 10.6834,-0.63506 21.3273,-1.45534 31.9713,-2.24916 4.2812,-0.34398 8.6016,-0.63506 12.8042,-1.21719 3.4171,-0.58214 8.5624,0.31753 8.5231,3.22819 0.5499,2.32855 -2.4744,4.41894 -5.6951,4.92169 -3.6527,0.52921 -7.4233,0.52921 -11.1153,0.74089 -15.6322,0.58213 -31.3036,1.24366 -46.9357,1.64056 -15.7893,0.42338 -31.6178,0.92613 -47.4071,1.29658 -3.0243,0.0265 -6.0486,-0.0529 -9.1122,-0.0794 z" />
      <path
         id="path3248"
         style="fill:#b3793b;fill-opacity:0.34553001"
         inkscape:connector-curvature="0"
         d="m 1148.5972,197.41144 c -195.9909,-3.49281 -392.02109,-6.98562 -588.01199,-10.4255 -5.02742,-0.2646 -10.17267,-0.44983 -15.12154,0.31753 -8.01246,1.24365 -16.26057,1.32304 -24.43013,1.58763 -4.35972,0.0794 -8.75872,-0.26459 -13.0006,-1.00549 -4.39899,-0.31753 -8.91582,-0.21169 -13.27554,-0.76737 -1.92456,-0.2646 -2.63154,-1.79931 -2.90648,-2.93713 8.16956,0.0529 16.33912,0.13231 24.50869,0.0265 14.61094,-0.79383 29.22188,-1.03197 43.83283,-1.53472 6.16645,-0.0529 12.33289,-0.23815 18.49934,-0.31753 6.245,0.0794 12.45073,0.21168 18.69573,0.15876 8.05173,-0.0265 16.10346,0.0265 24.15519,0.18522 15.39648,0.26462 30.83223,0.26462 46.22871,0.50276 129.6525,1.50826 259.26573,3.01651 388.87899,4.49831 54.2411,0.52921 108.4823,1.11135 162.6842,1.6141 72.3477,0.44983 144.6562,0.8732 216.9646,1.32303 5.813,0.0794 11.626,0.29107 17.4389,-0.0265 17.0854,-0.26461 34.1315,-0.55568 51.1776,-0.82027 2.9065,0.18522 6.3236,0.23814 8.4838,-1.32304 -0.3928,2.54022 -3.5349,4.81584 -7.384,5.05398 -29.4969,0.66152 -59.033,1.3495 -88.5691,1.98455 -41.3191,0.47629 -82.6775,0.71444 -123.9966,1.05843 -43.2044,0.34399 -86.3695,0.68797 -129.5739,1.0055 -5.1061,0.0265 -10.1727,-0.0529 -15.2787,-0.15876 z" />
    </g>
    <path
       transform="matrix(0.26369623,0,0,0.26381424,887.47068,89.817893)"
       d="m 600,458.07648 a 220,220 0 1 1 -440,0 220,220 0 1 1 440,0 z"
       sodipodi:ry="220"
       sodipodi:rx="220"
       sodipodi:cy="458.07648"
       sodipodi:cx="380"
       id="path2383"
       style="fill:url(#radialGradient3393);fill-opacity:1;stroke:url(#linearGradient3357);stroke-width:11.37418175;stroke-miterlimit:4;stroke-opacity:1;stroke-dasharray:none"
       sodipodi:type="arc" />
    <g
       id="g3329"
       transform="matrix(0.23119185,-0.12688747,0.12683071,0.23129531,844.8774,201.10544)"
       inkscape:transform-center-x="-116.44979"
       inkscape:transform-center-y="-68.215594">
      <path
         inkscape:connector-curvature="0"
         id="path3273"
         d="m 672.95729,289.30935 c 0,66.9663 -56.09517,150.49871 -85.93721,162.56993 -2.40143,0.97139 -4.63286,1.48002 -6.65137,1.48002 -27.10204,0 9.21482,-104.92498 9.21482,-162.1972 0,-1.13083 -0.0117,-2.28279 -0.0344,-3.4546 -1.12722,-58.17563 -29.40949,-165.27615 -2.84258,-165.27615 2.70458,0 5.72829,0.91315 8.98052,2.6319 29.33766,15.50457 77.27021,96.5656 77.27021,164.2461 0,0 0,0 0,0"
         style="fill:#fcf7bf;fill-opacity:0.1372549;stroke:none" />
      <path
         inkscape:connector-curvature="0"
         id="path3275"
         d="m 672.95729,289.53684 c 0,62.0705 -51.5363,141.58998 -79.26684,152.31995 -2.23744,0.86346 -4.31528,1.27776 -6.19608,1.20701 -24.99763,-0.74122 7.23115,-98.36423 7.22926,-151.6414 -4e-5,-1.05832 -0.0104,-2.13442 -0.0306,-3.2271 -1.00197,-53.96968 -26.00312,-153.55461 -1.51563,-154.51445 2.51491,-0.12196 5.32536,0.62306 8.35199,2.15085 27.2822,13.78183 71.42793,90.99979 71.42793,153.70514 0,0 0,0 0,0"
         style="fill:#fcf7bf;fill-opacity:0.1372549;stroke:none" />
      <path
         inkscape:connector-curvature="0"
         id="path3277"
         d="m 672.95729,289.76432 c 0,57.17471 -46.97741,132.68126 -72.59646,142.06998 -2.07344,0.75553 -3.9977,1.07551 -5.74079,0.934 -22.89321,-1.48243 5.24747,-91.80347 5.24371,-141.08561 -9e-5,-0.98581 -0.009,-1.98605 -0.0269,-2.9996 -0.87673,-49.76373 -22.59675,-141.83306 -0.1887,-143.75274 2.32526,-0.24391 4.92243,0.33298 7.72346,1.66979 25.22675,12.0591 65.58565,85.43399 65.58565,143.16418 0,0 0,0 0,0"
         style="fill:#fcf7bf;fill-opacity:0.1372549;stroke:none" />
      <path
         inkscape:connector-curvature="0"
         id="path3279"
         d="m 672.95729,289.99181 c 0,52.27891 -42.41854,123.77253 -65.92609,131.82001 -1.90945,0.64759 -3.68012,0.87324 -5.2855,0.66098 -20.7888,-2.22365 3.2638,-85.24272 3.25815,-130.52981 -1.3e-4,-0.9133 -0.008,-1.83768 -0.0231,-2.7721 -0.75147,-45.55779 -19.19038,-130.11152 1.13825,-132.99105 2.1356,-0.36586 4.51949,0.0429 7.09493,1.18874 23.17129,10.33638 59.74337,79.86818 59.74337,132.62323 0,0 0,0 0,0"
         style="fill:#fcf7bf;fill-opacity:0.1372549;stroke:none" />
      <path
         inkscape:connector-curvature="0"
         id="path3281"
         d="m 672.95729,290.21929 c 0,47.38312 -37.85966,114.86381 -59.2557,121.57004 -1.74546,0.53966 -3.36255,0.67098 -4.83022,0.38797 -18.68438,-2.96486 1.28013,-78.68196 1.27259,-119.97401 -1.7e-4,-0.84079 -0.007,-1.68931 -0.0193,-2.54461 -0.62623,-41.35184 -15.78401,-118.38997 2.46519,-122.22934 1.94594,-0.48781 4.11656,-0.24718 6.4664,0.70768 21.11583,8.61365 53.90108,74.30238 53.90108,122.08227 0,0 0,0 0,0"
         style="fill:#fcf7bf;fill-opacity:0.1372549;stroke:none" />
      <path
         inkscape:connector-curvature="0"
         id="path3283"
         d="m 670.95729,290.44678 c 0,42.48731 -33.30078,105.95508 -52.58533,111.32006 -1.58147,0.43173 -3.04497,0.46872 -4.37493,0.11496 -16.57997,-3.70608 -0.70354,-72.12121 -0.71296,-109.41822 -2.1e-4,-0.76827 -0.005,-1.54094 -0.0156,-2.3171 -0.50099,-37.14589 -12.37765,-106.66843 3.79212,-111.46764 1.75628,-0.60977 3.71363,-0.53727 5.83787,0.22662 19.06038,6.89092 48.05881,68.73658 48.05881,111.54132 0,0 0,0 0,0"
         style="fill:#fcf7bf;fill-opacity:0.1372549;stroke:none" />
      <path
         inkscape:connector-curvature="0"
         id="path3285"
         d="m 670.95729,290.67426 c 0,37.59152 -28.7419,97.04635 -45.91495,101.07009 -1.41747,0.3238 -2.72739,0.26647 -3.91965,-0.15805 -14.47555,-4.44729 -2.68721,-65.56046 -2.69851,-98.86242 -2.5e-4,-0.69577 -0.004,-1.39257 -0.0118,-2.08961 -0.37574,-32.93994 -8.97127,-94.94688 5.11907,-100.70593 1.56662,-0.73172 3.3107,-0.82735 5.20934,-0.25444 17.00492,5.16819 42.21652,63.17078 42.21652,101.00036 0,0 0,0 0,0"
         style="fill:#fcf7bf;fill-opacity:0.1372549;stroke:none" />
      <path
         inkscape:connector-curvature="0"
         id="path3287"
         d="m 670.95729,290.90175 c 0,32.69572 -24.18303,88.13762 -39.24458,90.82012 -1.25348,0.21586 -2.40981,0.0642 -3.46436,-0.43107 -12.37113,-5.18851 -4.67088,-58.9997 -4.68407,-88.30662 -2.9e-4,-0.62326 -0.003,-1.2442 -0.008,-1.86211 -0.25049,-28.734 -5.5649,-83.22535 6.44601,-89.94424 1.37696,-0.85367 2.90776,-1.11743 4.58081,-0.73548 14.94946,3.44546 36.37424,57.60496 36.37424,90.4594 0,0 0,0 0,0"
         style="fill:#fcf7bf;fill-opacity:0.1372549;stroke:none" />
      <path
         inkscape:connector-curvature="0"
         id="path3289"
         d="m 668.95729,291.12923 c 0,27.79993 -19.62414,79.2289 -32.5742,80.57015 -1.08948,0.10793 -2.09223,-0.13806 -3.00907,-0.70408 -10.26672,-5.92972 -6.65455,-52.43895 -6.66962,-77.75083 -3.4e-4,-0.55074 -0.002,-1.09582 -0.004,-1.63461 -0.12524,-24.52805 -2.15853,-71.5038 7.77295,-79.18253 1.1873,-0.97562 2.50483,-1.40751 3.95228,-1.21654 12.89401,1.72273 30.53196,52.03916 30.53196,79.91844 0,0 0,0 0,0"
         style="fill:#fcf7bf;fill-opacity:0.1372549;stroke:none" />
      <path
         inkscape:connector-curvature="0"
         id="path3291"
         d="m 668.95729,291.35672 c 0,22.90413 -15.06527,70.32017 -25.90383,70.32017 -0.92548,0 -1.77465,-0.34031 -2.55378,-0.97709 -8.16231,-6.67094 -8.63822,-45.87819 -8.65518,-67.19503 -3.8e-4,-0.47823 -5.3e-4,-0.94746 -5.3e-4,-1.40711 0,-20.3221 1.24784,-59.78226 9.09989,-68.42083 0.99764,-1.09758 2.1019,-1.6976 3.32375,-1.6976 10.83855,0 24.68968,46.47336 24.68968,69.37749 0,0 0,0 0,0"
         style="fill:#fcf7bf;fill-opacity:0.1372549;stroke:none" />
    </g>
  </g>
  <metadata
     id="metadata14104">
    <rdf:RDF>
      <cc:Work>
        <dc:format>image/svg+xml</dc:format>
        <dc:type
           rdf:resource="http://purl.org/dc/dcmitype/StillImage" />
        <cc:license
           rdf:resource="http://creativecommons.org/publicdomain/zero/1.0/" />
        <dc:publisher>
          <cc:Agent
             rdf:about="http://openclipart.org/">
            <dc:title>Openclipart</dc:title>
          </cc:Agent>
        </dc:publisher>
        <dc:title />
        <dc:date>2011-10-04T16:55:38</dc:date>
        <dc:description>A light plank</dc:description>
        <dc:source>https://openclipart.org/detail/162781/wooden-plank-light-by-rdevries</dc:source>
        <dc:creator>
          <cc:Agent>
            <dc:title>rdevries</dc:title>
          </cc:Agent>
        </dc:creator>
        <dc:subject>
          <rdf:Bag>
            <rdf:li>light</rdf:li>
            <rdf:li>light plank</rdf:li>
            <rdf:li>light wood</rdf:li>
            <rdf:li>pattern</rdf:li>
            <rdf:li>plank</rdf:li>
            <rdf:li>structure</rdf:li>
            <rdf:li>wood</rdf:li>
            <rdf:li>wood structure</rdf:li>
            <rdf:li>wooden plank</rdf:li>
          </rdf:Bag>
        </dc:subject>
      </cc:Work>
      <cc:License
         rdf:about="http://creativecommons.org/publicdomain/zero/1.0/">
        <cc:permits
           rdf:resource="http://creativecommons.org/ns#Reproduction" />
        <cc:permits
           rdf:resource="http://creativecommons.org/ns#Distribution" />
        <cc:permits
           rdf:resource="http://creativecommons.org/ns#DerivativeWorks" />
      </cc:License>
    </rdf:RDF>
  </metadata>
</svg>
