<?xml version="1.0" encoding="UTF-8" standalone="no"?>
<!-- Created with Inkscape (http://www.inkscape.org/) -->
<svg
   xmlns:dc="http://purl.org/dc/elements/1.1/"
   xmlns:cc="http://creativecommons.org/ns#"
   xmlns:rdf="http://www.w3.org/1999/02/22-rdf-syntax-ns#"
   xmlns:svg="http://www.w3.org/2000/svg"
   xmlns="http://www.w3.org/2000/svg"
   xmlns:xlink="http://www.w3.org/1999/xlink"
   xmlns:sodipodi="http://sodipodi.sourceforge.net/DTD/sodipodi-0.dtd"
   xmlns:inkscape="http://www.inkscape.org/namespaces/inkscape"
   width="333.48383"
   height="221.39366"
   id="svg2"
   sodipodi:version="0.32"
   inkscape:version="0.46"
   sodipodi:docname="weight.svg"
   inkscape:output_extension="org.inkscape.output.svg.inkscape"
   version="1.0">
  <sodipodi:namedview
     id="base"
     pagecolor="#ffffff"
     bordercolor="#666666"
     borderopacity="1.0"
     gridtolerance="10000"
     guidetolerance="10"
     objecttolerance="10"
     inkscape:pageopacity="0.0"
     inkscape:pageshadow="2"
     inkscape:zoom="2.4438966"
     inkscape:cx="166.33273"
     inkscape:cy="110.69683"
     inkscape:document-units="px"
     inkscape:current-layer="layer1"
     showgrid="false"
     inkscape:snap-global="false"
     inkscape:window-width="1272"
     inkscape:window-height="783"
     inkscape:window-x="0"
     inkscape:window-y="0" />
  <defs
     id="defs4">
    <linearGradient
       id="linearGradient3366">
      <stop
         style="stop-color:#777777;stop-opacity:1;"
         offset="0"
         id="stop3368" />
      <stop
         style="stop-color:#282828;stop-opacity:1;"
         offset="1"
         id="stop3370" />
    </linearGradient>
    <linearGradient
       id="linearGradient3329">
      <stop
         style="stop-color:#444444;stop-opacity:1;"
         offset="0"
         id="stop3331" />
      <stop
         style="stop-color:#000000;stop-opacity:1;"
         offset="1"
         id="stop3333" />
    </linearGradient>
    <linearGradient
       id="linearGradient3321">
      <stop
         id="stop3323"
         offset="0"
         style="stop-color:#444444;stop-opacity:1;" />
      <stop
         id="stop3325"
         offset="1"
         style="stop-color:#000000;stop-opacity:1;" />
    </linearGradient>
    <linearGradient
       id="linearGradient3311">
      <stop
         id="stop3313"
         offset="0"
         style="stop-color:#ffffff;stop-opacity:0.35672516;" />
      <stop
         id="stop3315"
         offset="1"
         style="stop-color:#ffffff;stop-opacity:0;" />
    </linearGradient>
    <linearGradient
       id="linearGradient3297">
      <stop
         id="stop3299"
         offset="0"
         style="stop-color:#000000;stop-opacity:0;" />
      <stop
         id="stop3301"
         offset="1"
         style="stop-color:#000000;stop-opacity:1;" />
    </linearGradient>
    <linearGradient
       id="linearGradient3287">
      <stop
         style="stop-color:#000000;stop-opacity:0;"
         offset="0"
         id="stop3289" />
      <stop
         id="stop3295"
         offset="0.5"
         style="stop-color:#000000;stop-opacity:0.05490196;" />
      <stop
         style="stop-color:#777777;stop-opacity:0.60233921;"
         offset="1"
         id="stop3291" />
    </linearGradient>
    <linearGradient
       id="linearGradient3269">
      <stop
         id="stop3271"
         offset="0"
         style="stop-color:#ffffff;stop-opacity:1;" />
      <stop
         id="stop3273"
         offset="1"
         style="stop-color:#5f5f5f;stop-opacity:0;" />
    </linearGradient>
    <inkscape:perspective
       id="perspective10"
       inkscape:persp3d-origin="372.04724 : 350.78739 : 1"
       inkscape:vp_z="946.04427 : 498.38984 : 1"
       inkscape:vp_y="6.123234e-14 : 1000 : 0"
       inkscape:vp_x="-53.729759 : 513.21184 : 1"
       sodipodi:type="inkscape:persp3d" />
    <linearGradient
       gradientUnits="userSpaceOnUse"
       y2="610.86237"
       x2="516.95361"
       y1="466.44608"
       x1="436.88541"
       id="linearGradient3327"
       xlink:href="#linearGradient3329"
       inkscape:collect="always" />
    <linearGradient
       gradientUnits="userSpaceOnUse"
       y2="631.35199"
       x2="353.18198"
       y1="493.05499"
       x1="368.38394"
       id="linearGradient3341"
       xlink:href="#linearGradient3329"
       inkscape:collect="always" />
    <radialGradient
       r="9.484375"
       fy="444.92343"
       fx="406.46127"
       cy="444.92343"
       cx="406.46127"
       gradientTransform="matrix(1,0,0,0.9406919,0,26.387551)"
       gradientUnits="userSpaceOnUse"
       id="radialGradient3350"
       xlink:href="#linearGradient3269"
       inkscape:collect="always" />
    <radialGradient
       r="9.484375"
       fy="444.92343"
       fx="406.46127"
       cy="444.92343"
       cx="406.46127"
       spreadMethod="pad"
       gradientTransform="matrix(1,0,0,0.9406919,0,26.387551)"
       gradientUnits="userSpaceOnUse"
       id="radialGradient3352"
       xlink:href="#linearGradient3287"
       inkscape:collect="always" />
    <linearGradient
       y2="447.18417"
       x2="412.44916"
       y1="441.11554"
       x1="408.49771"
       gradientTransform="translate(0.1021883,5.1450614)"
       gradientUnits="userSpaceOnUse"
       id="linearGradient3354"
       xlink:href="#linearGradient3297"
       inkscape:collect="always" />
    <radialGradient
       r="9.484375"
       fy="437.35959"
       fx="387.77313"
       cy="437.35959"
       cx="387.77313"
       gradientTransform="matrix(0.1093718,0.1201607,-0.461819,0.420353,560.06499,207.89996)"
       gradientUnits="userSpaceOnUse"
       id="radialGradient3356"
       xlink:href="#linearGradient3311"
       inkscape:collect="always" />
    <linearGradient
       gradientUnits="userSpaceOnUse"
       y2="493.10587"
       x2="399.05618"
       y1="463.57184"
       x1="391.13251"
       id="linearGradient3364"
       xlink:href="#linearGradient3366"
       inkscape:collect="always" />
    <linearGradient
       gradientUnits="userSpaceOnUse"
       y2="493.87094"
       x2="432.40509"
       y1="482.04025"
       x1="429.60516"
       id="linearGradient3380"
       xlink:href="#linearGradient3297"
       inkscape:collect="always" />
    <linearGradient
       gradientUnits="userSpaceOnUse"
       y2="512.13708"
       x2="446.06134"
       y1="492.55524"
       x1="431.89789"
       id="linearGradient3388"
       xlink:href="#linearGradient3366"
       inkscape:collect="always" />
    <linearGradient
       inkscape:collect="always"
       xlink:href="#linearGradient3366"
       id="linearGradient4173"
       gradientUnits="userSpaceOnUse"
       x1="391.13251"
       y1="463.57184"
       x2="399.05618"
       y2="493.10587" />
    <linearGradient
       inkscape:collect="always"
       xlink:href="#linearGradient3329"
       id="linearGradient4175"
       gradientUnits="userSpaceOnUse"
       x1="368.38394"
       y1="493.05499"
       x2="353.18198"
       y2="631.35199" />
    <linearGradient
       inkscape:collect="always"
       xlink:href="#linearGradient3329"
       id="linearGradient4177"
       gradientUnits="userSpaceOnUse"
       x1="436.88541"
       y1="466.44608"
       x2="516.95361"
       y2="610.86237" />
    <linearGradient
       inkscape:collect="always"
       xlink:href="#linearGradient3366"
       id="linearGradient4179"
       gradientUnits="userSpaceOnUse"
       x1="431.89789"
       y1="492.55524"
       x2="446.06134"
       y2="512.13708" />
    <radialGradient
       inkscape:collect="always"
       xlink:href="#linearGradient3269"
       id="radialGradient4181"
       gradientUnits="userSpaceOnUse"
       gradientTransform="matrix(1,0,0,0.9406919,0,26.387551)"
       cx="406.46127"
       cy="444.92343"
       fx="406.46127"
       fy="444.92343"
       r="9.484375" />
    <radialGradient
       inkscape:collect="always"
       xlink:href="#linearGradient3287"
       id="radialGradient4183"
       gradientUnits="userSpaceOnUse"
       gradientTransform="matrix(1,0,0,0.9406919,0,26.387551)"
       spreadMethod="pad"
       cx="406.46127"
       cy="444.92343"
       fx="406.46127"
       fy="444.92343"
       r="9.484375" />
    <linearGradient
       inkscape:collect="always"
       xlink:href="#linearGradient3297"
       id="linearGradient4185"
       gradientUnits="userSpaceOnUse"
       gradientTransform="translate(0.1021883,5.1450614)"
       x1="408.49771"
       y1="441.11554"
       x2="412.44916"
       y2="447.18417" />
    <radialGradient
       inkscape:collect="always"
       xlink:href="#linearGradient3311"
       id="radialGradient4187"
       gradientUnits="userSpaceOnUse"
       gradientTransform="matrix(0.1093718,0.1201607,-0.461819,0.420353,560.06499,207.89996)"
       cx="387.77313"
       cy="437.35959"
       fx="387.77313"
       fy="437.35959"
       r="9.484375" />
    <linearGradient
       inkscape:collect="always"
       xlink:href="#linearGradient3297"
       id="linearGradient4189"
       gradientUnits="userSpaceOnUse"
       x1="429.60516"
       y1="482.04025"
       x2="432.40509"
       y2="493.87094" />
  </defs>
  <metadata
     id="metadata7">
    <rdf:RDF>
      <cc:Work
         rdf:about="">
        <dc:format>image/svg+xml</dc:format>
        <dc:type
           rdf:resource="http://purl.org/dc/dcmitype/StillImage" />
        <dc:date>2010-02-12</dc:date>
        <dc:creator>
          <cc:Agent>
            <dc:title>Klaas van Gend</dc:title>
          </cc:Agent>
        </dc:creator>
        <dc:rights>
          <cc:Agent>
            <dc:title>Public Domain</dc:title>
          </cc:Agent>
        </dc:rights>
        <cc:license
           rdf:resource="http://creativecommons.org/licenses/publicdomain/" />
      </cc:Work>
      <cc:License
         rdf:about="http://creativecommons.org/licenses/publicdomain/">
        <cc:permits
           rdf:resource="http://creativecommons.org/ns#Reproduction" />
        <cc:permits
           rdf:resource="http://creativecommons.org/ns#Distribution" />
        <cc:permits
           rdf:resource="http://creativecommons.org/ns#DerivativeWorks" />
      </cc:License>
    </rdf:RDF>
  </metadata>
  <g
     id="layer1"
     inkscape:groupmode="layer"
     inkscape:label="Layer 1"
     transform="translate(-269.23247,-430.69811)">
    <path
       sodipodi:nodetypes="ccccc"
       id="rect2423"
       d="M 346.66535,482.00897 L 432.36038,469.5299 L 520.21901,482.10482 L 427.58075,497.59338 L 346.66535,482.00897 z"
       style="fill:url(#linearGradient4173);fill-opacity:1;stroke:#000000;stroke-width:1;stroke-linecap:round;stroke-linejoin:round;stroke-miterlimit:4;stroke-opacity:1" />
    <path
       sodipodi:nodetypes="ccccc"
       id="rect2417"
       d="M 346.61114,482.01448 L 426.77523,497.12738 L 436.22352,651.59178 L 269.73247,600.94643 L 346.61114,482.01448 z"
       style="fill:url(#linearGradient4175);fill-opacity:1;stroke:#000000;stroke-width:1;stroke-linecap:round;stroke-linejoin:round;stroke-miterlimit:4;stroke-opacity:1" />
    <path
       sodipodi:nodetypes="ccccc"
       id="rect2419"
       d="M 426.68651,497.59501 L 520.08097,482.01448 L 602.2163,606.20309 L 437.03943,651.59177 L 426.68651,497.59501 z"
       style="fill:url(#linearGradient4177);fill-opacity:1;stroke:url(#linearGradient4179);stroke-width:1;stroke-linecap:round;stroke-linejoin:round;stroke-miterlimit:4;stroke-opacity:1" />
    <g
       transform="matrix(3.9894342,0,0,3.2405408,-1194.8955,-982.18273)"
       id="g3343">
      <path
         style="fill:#000000;fill-opacity:1;stroke:none;stroke-width:1;stroke-linecap:round;stroke-linejoin:round;stroke-miterlimit:4;stroke-dasharray:none;stroke-opacity:1"
         d="M 406.44566,436.00156 C 401.20975,436.00156 396.9769,440.0142 396.97691,444.93906 C 396.97691,449.86393 401.20974,453.8453 406.44566,453.84531 C 411.68157,453.84531 415.94567,449.86393 415.94566,444.93906 C 415.94566,440.01419 411.68156,436.00155 406.44566,436.00156 z M 406.44566,439.53281 C 409.61115,439.53281 412.19566,441.96161 412.19566,444.93906 C 412.19566,447.91652 409.61116,450.31406 406.44566,450.31406 C 403.28015,450.31405 400.72691,447.91651 400.72691,444.93906 C 400.72692,441.96162 403.28016,439.53281 406.44566,439.53281 z"
         id="path2446" />
      <path
         style="fill:url(#radialGradient4181);fill-opacity:1;stroke:none;stroke-width:1;stroke-linecap:round;stroke-linejoin:round;stroke-miterlimit:4;stroke-dasharray:none;stroke-opacity:1"
         d="M 406.44566,436.00156 C 401.20975,436.00156 396.9769,440.0142 396.97691,444.93906 C 396.97691,449.86393 401.20974,453.8453 406.44566,453.84531 C 411.68157,453.84531 415.94567,449.86393 415.94566,444.93906 C 415.94566,440.01419 411.68156,436.00155 406.44566,436.00156 z M 406.44566,439.53281 C 409.61115,439.53281 412.19566,441.96161 412.19566,444.93906 C 412.19566,447.91652 409.61116,450.31406 406.44566,450.31406 C 403.28015,450.31405 400.72691,447.91651 400.72691,444.93906 C 400.72692,441.96162 403.28016,439.53281 406.44566,439.53281 z"
         id="path2497" />
      <path
         style="fill:url(#radialGradient4183);fill-opacity:1;stroke:none;stroke-width:1;stroke-linecap:round;stroke-linejoin:round;stroke-miterlimit:4;stroke-dasharray:none;stroke-opacity:1"
         d="M 406.44566,436.00156 C 401.20975,436.00156 396.9769,440.0142 396.97691,444.93906 C 396.97691,449.86393 401.20974,453.8453 406.44566,453.84531 C 411.68157,453.84531 415.94567,449.86393 415.94566,444.93906 C 415.94566,440.01419 411.68156,436.00155 406.44566,436.00156 z M 406.44566,439.53281 C 409.61115,439.53281 412.19566,441.96161 412.19566,444.93906 C 412.19566,447.91652 409.61116,450.31406 406.44566,450.31406 C 403.28015,450.31405 400.72691,447.91651 400.72691,444.93906 C 400.72692,441.96162 403.28016,439.53281 406.44566,439.53281 z"
         id="path3277" />
      <path
         style="fill:url(#linearGradient4185);fill-opacity:1;stroke:none;stroke-width:1;stroke-linecap:round;stroke-linejoin:round;stroke-miterlimit:4;stroke-dasharray:none;stroke-opacity:1"
         d="M 406.44566,436.00156 C 401.20975,436.00156 396.9769,440.0142 396.97691,444.93906 C 396.97691,449.86393 401.20974,453.8453 406.44566,453.84531 C 411.68157,453.84531 415.94567,449.86393 415.94566,444.93906 C 415.94566,440.01419 411.68156,436.00155 406.44566,436.00156 z M 406.44566,439.53281 C 409.61115,439.53281 412.19566,441.96161 412.19566,444.93906 C 412.19566,447.91652 409.61116,450.31406 406.44566,450.31406 C 403.28015,450.31405 400.72691,447.91651 400.72691,444.93906 C 400.72692,441.96162 403.28016,439.53281 406.44566,439.53281 z"
         id="path2495" />
      <path
         style="fill:url(#radialGradient4187);fill-opacity:1;stroke:none;stroke-width:1;stroke-linecap:round;stroke-linejoin:round;stroke-miterlimit:4;stroke-dasharray:none;stroke-opacity:1"
         d="M 406.44566,436.00156 C 401.20975,436.00156 396.9769,440.0142 396.97691,444.93906 C 396.97691,449.86393 401.20974,453.8453 406.44566,453.84531 C 411.68157,453.84531 415.94567,449.86393 415.94566,444.93906 C 415.94566,440.01419 411.68156,436.00155 406.44566,436.00156 z M 406.44566,439.53281 C 409.61115,439.53281 412.19566,441.96161 412.19566,444.93906 C 412.19566,447.91652 409.61116,450.31406 406.44566,450.31406 C 403.28015,450.31405 400.72691,447.91651 400.72691,444.93906 C 400.72692,441.96162 403.28016,439.53281 406.44566,439.53281 z"
         id="path2493" />
    </g>
    <path
       transform="matrix(1.6027398,0,0,1,-262.23164,-1.6318225)"
       d="M 445.89551,487.9556 A 14.89038,5.9153566 0 1 1 416.11475,487.9556 A 14.89038,5.9153566 0 1 1 445.89551,487.9556 z"
       sodipodi:ry="5.9153566"
       sodipodi:rx="14.89038"
       sodipodi:cy="487.9556"
       sodipodi:cx="431.00513"
       id="path3372"
       style="fill:url(#linearGradient4189);fill-opacity:1;stroke:none;stroke-width:1;stroke-linecap:round;stroke-linejoin:round;stroke-miterlimit:4;stroke-dasharray:none;stroke-opacity:1"
       sodipodi:type="arc" />
    <path
       id="path3412"
       d="M 462.12048,589.25808 L 460.72041,584.20995 L 467.28888,582.38822 L 460.85121,559.17644 L 455.90325,566.03719 L 454.42279,560.69921 L 459.53248,553.32539 L 464.53881,551.93691 L 472.57752,580.92144 L 478.65664,579.23542 L 480.05671,584.28356 L 462.12048,589.25808 M 496.28153,561.44545 C 497.18364,564.69818 497.71296,567.50804 497.8695,569.87502 C 498.02154,572.22594 497.87555,574.20864 497.43151,575.82311 C 496.99554,577.41803 496.29779,578.67802 495.33826,579.6031 C 494.38678,580.50861 493.24605,581.14579 491.91606,581.51466 C 490.58604,581.88353 489.28007,581.92493 487.99814,581.63885 C 486.7162,581.35277 485.48392,580.63673 484.30129,579.49073 C 483.11419,578.32863 481.98665,576.69915 480.91865,574.60227 C 479.84618,572.48931 478.85666,569.79842 477.95007,566.52959 C 476.99883,563.09978 476.43239,560.20483 476.25077,557.84477 C 476.07724,555.46516 476.21292,553.494 476.65782,551.93127 C 477.10272,550.36861 477.8161,549.16497 478.79796,548.32035 C 479.78792,547.45623 480.97299,546.83276 482.35318,546.44994 C 483.64555,546.09154 484.91972,546.03295 486.17572,546.27417 C 487.43979,546.49588 488.65868,547.16362 489.83238,548.27737 C 491.01861,549.38772 492.1502,551.00741 493.22714,553.13646 C 494.31214,555.24598 495.33027,558.01565 496.28153,561.44545 M 490.97406,562.91745 C 490.30863,560.5182 489.69031,558.55673 489.1191,557.03304 C 488.54341,555.4933 487.97773,554.30626 487.42204,553.47191 C 486.86187,552.6215 486.28577,552.07897 485.69372,551.8443 C 485.1142,551.60621 484.47939,551.58284 483.78931,551.77421 C 483.04902,551.97955 482.48152,552.34504 482.08682,552.87067 C 481.68764,553.38025 481.46074,554.14549 481.40608,555.16641 C 481.36398,556.1839 481.49274,557.50079 481.79238,559.11709 C 482.10011,560.71386 482.58222,562.69576 483.23872,565.06281 C 483.88627,567.39769 484.49567,569.32695 485.06688,570.85061 C 485.63809,572.37428 486.20601,573.56937 486.77065,574.4359 C 487.3308,575.28634 487.90913,575.83692 488.50566,576.08766 C 489.10218,576.33841 489.75804,576.3646 490.47323,576.16625 C 491.16333,575.97485 491.69945,575.61807 492.08162,575.09589 C 492.46376,574.57371 492.68218,573.80216 492.73684,572.78121 C 492.78702,571.74417 492.66452,570.42554 492.36936,568.8253 C 492.08671,567.22162 491.62162,565.25233 490.97406,562.91745 M 518.3006,573.67681 L 509.57891,563.35001 L 507.8643,566.01052 L 510.58407,575.81695 L 505.29542,577.28373 L 495.35421,541.43953 L 500.64286,539.97275 L 506.33695,560.50347 L 510.60066,547.66771 L 516.28455,546.09132 L 511.95959,558.26774 L 524.07859,572.07432 L 518.3006,573.67681 M 538.1843,579.45124 C 536.84174,579.82358 535.6069,579.9753 534.47979,579.90641 C 533.36968,579.85012 532.36366,579.6089 531.46177,579.18274 C 530.57686,578.76919 529.79426,578.18855 529.11395,577.44082 C 528.45064,576.70571 527.89453,575.84549 527.4456,574.86017 L 532.51318,572.59631 C 532.99166,573.59078 533.62094,574.30065 534.401,574.72592 C 535.19359,575.14772 536.09178,575.21943 537.09557,574.94103 C 537.72292,574.76704 538.26255,574.49598 538.71447,574.12787 C 539.17893,573.75628 539.51716,573.24629 539.7292,572.59788 C 539.95823,571.9621 540.05031,571.17356 540.00546,570.23223 C 539.97312,569.28745 539.77609,568.16289 539.41435,566.85858 C 539.2893,566.40772 539.16202,565.9488 539.03252,565.48182 C 538.903,565.01486 538.79092,564.5864 538.69629,564.19646 C 538.58379,563.74212 538.46948,563.3056 538.35337,562.88693 L 538.31573,562.89737 C 538.16984,564.75866 537.64349,566.22256 536.7367,567.28908 C 535.84243,568.35214 534.62993,569.09594 533.09918,569.52048 C 531.80681,569.87892 530.60079,569.86657 529.48111,569.48347 C 528.36952,569.08077 527.34554,568.385 526.40918,567.39613 C 525.46835,566.39117 524.62408,565.12532 523.87635,563.59858 C 523.1367,562.05227 522.49669,560.30491 521.9563,558.35649 C 521.39807,556.3437 521.05025,554.48062 520.91287,552.76725 C 520.77102,551.03781 520.85705,549.49661 521.17094,548.14363 C 521.49739,546.78721 522.06286,545.65928 522.86736,544.75982 C 523.67996,543.84084 524.7638,543.19341 526.11889,542.81756 C 527.47399,542.44176 528.78751,542.47631 530.05946,542.9212 C 531.34395,543.36268 532.51733,544.32916 533.57959,545.82065 L 533.6737,545.79455 C 533.5799,545.45643 533.47899,545.06823 533.37097,544.62995 C 533.27101,544.17215 533.17776,543.73848 533.09121,543.32893 C 533.00018,542.90333 532.92256,542.52601 532.85834,542.19697 C 532.80666,541.86452 532.77773,541.63842 532.77158,541.51872 L 537.77791,540.13024 C 537.91358,540.71692 538.11401,541.53706 538.37921,542.59064 C 538.6444,543.64431 538.96456,544.84742 539.33972,546.2 L 544.69216,565.49887 C 545.21912,567.39897 545.46358,569.10863 545.42553,570.62786 C 545.39191,572.1632 545.09056,573.51267 544.52149,574.6763 C 543.96493,575.83644 543.14915,576.81702 542.07415,577.61808 C 541.01166,578.41563 539.71505,579.02668 538.1843,579.45124 M 535.97525,554.31234 C 535.51972,552.6699 535.01464,551.33599 534.46002,550.31059 C 533.90539,549.28525 533.33577,548.49814 532.75116,547.94927 C 532.16653,547.40045 531.57277,547.06223 530.96988,546.93462 C 530.37952,546.80358 529.82085,546.81112 529.29387,546.95725 C 528.61632,547.14519 528.06094,547.48131 527.62775,547.96559 C 527.2071,548.44644 526.91309,549.09157 526.74572,549.90097 C 526.57836,550.71042 526.55241,551.68872 526.66789,552.83587 C 526.78337,553.98306 527.051,555.31346 527.47081,556.82707 C 528.25234,559.64503 529.19316,561.67312 530.29329,562.91136 C 531.39339,564.14962 532.63981,564.57561 534.03257,564.18933 C 534.55954,564.04319 535.04451,563.76995 535.48751,563.36962 C 535.93856,562.94973 536.27956,562.35227 536.51053,561.57721 C 536.73701,560.78608 536.82165,559.80018 536.76445,558.61949 C 536.70723,557.43883 536.44417,556.00312 535.97525,554.31234"
       style="font-size:40px;font-style:normal;font-variant:normal;font-weight:bold;font-stretch:normal;text-align:start;line-height:125%;writing-mode:lr-tb;text-anchor:start;fill:#000000;fill-opacity:1;stroke:none;stroke-width:1px;stroke-linecap:butt;stroke-linejoin:miter;stroke-opacity:1;font-family:Liberation Sans;-inkscape-font-specification:Liberation Sans Bold" />
    <path
       id="path4165"
       d="M 323.60385,561.82997 L 325.12515,556.81703 L 331.64782,558.7965 L 338.64291,535.74658 L 330.78998,538.89041 L 332.39863,533.58964 L 340.66293,530.09916 L 345.63435,531.60787 L 336.89959,560.39028 L 342.93632,562.22229 L 341.41501,567.23522 L 323.60385,561.82997 M 367.34818,556.6383 C 366.36792,559.86834 365.31004,562.52472 364.17454,564.60744 C 363.04384,566.6742 361.85868,568.27037 360.61903,569.39596 C 359.39665,570.50936 358.13259,571.19971 356.82683,571.46703 C 355.53835,571.72214 354.23376,571.64928 352.91304,571.24847 C 351.5923,570.84766 350.46725,570.18318 349.5379,569.25502 C 348.60852,568.32685 347.95137,567.06218 347.56643,565.46102 C 347.18632,563.84386 347.10684,561.8639 347.32795,559.52112 C 347.55392,557.16236 348.15945,554.35997 349.14454,551.11394 C 350.17815,547.70804 351.25026,544.95993 352.36087,542.86961 C 353.48879,540.76712 354.65907,539.17517 355.87173,538.09373 C 357.08437,537.01236 358.33145,536.37796 359.61298,536.19056 C 360.91178,535.99101 362.24647,536.0992 363.61706,536.5151 C 364.9004,536.9046 366.0078,537.53753 366.93929,538.41392 C 367.88804,539.27816 368.55975,540.49486 368.95443,542.06401 C 369.36152,543.637 369.44966,545.61086 369.21887,547.9856 C 369.00533,550.34816 368.38177,553.2324 367.34818,556.6383 M 362.07772,555.03885 C 362.80075,552.65632 363.32909,550.66872 363.66277,549.07606 C 364.00124,547.46744 364.15928,546.16204 364.13687,545.15982 C 364.11927,544.14165 363.92333,543.37495 363.54903,542.85968 C 363.18714,542.34824 362.66357,541.98852 361.97831,541.78054 C 361.24317,541.55747 360.56818,541.56218 359.95335,541.79468 C 359.34333,542.01122 358.74186,542.53593 358.14892,543.36882 C 357.56843,544.20553 356.97187,545.38659 356.35927,546.91201 C 355.76396,548.42527 355.10964,550.35717 354.39631,552.70772 C 353.69266,555.02632 353.17403,556.98193 352.84038,558.57456 C 352.50672,560.16722 352.34627,561.48062 352.359,562.5148 C 352.37657,563.53298 352.57009,564.30768 352.93956,564.83892 C 353.30903,565.37015 353.84886,565.74353 354.55907,565.95906 C 355.24434,566.16703 355.88818,566.15286 356.49058,565.91657 C 357.09296,565.68027 357.69063,565.14567 358.28359,564.31277 C 358.88138,563.46387 359.48415,562.2847 360.09194,560.77524 C 360.71214,559.26957 361.37407,557.35744 362.07772,555.03885 M 379.39222,578.76038 L 377.55763,565.36841 L 374.68476,566.69688 L 371.7295,576.43493 L 366.47773,574.84115 L 377.27973,539.24689 L 382.53149,540.84067 L 376.34437,561.22823 L 386.81952,552.67212 L 392.46377,554.38501 L 382.29002,562.35152 L 385.12993,580.50164 L 379.39222,578.76038 M 393.09115,594.28602 C 391.75795,593.88141 390.63389,593.34819 389.71895,592.68636 C 388.81162,592.04428 388.09125,591.30177 387.55784,590.45886 C 387.03204,589.63569 386.68211,588.7262 386.50807,587.73039 C 386.34162,586.75435 386.33271,585.73007 386.4813,584.65754 L 391.97327,585.45981 C 391.84474,586.55588 391.99597,587.49238 392.42695,588.2693 C 392.87038,589.05 393.59048,589.5916 394.58727,589.8941 C 395.21025,590.08316 395.81114,590.14327 396.38993,590.07444 C 396.98117,590.00939 397.53994,589.75985 398.06628,589.32584 C 398.60019,588.9116 399.10028,588.295 399.56655,587.47604 C 400.04525,586.66086 400.48114,585.60566 400.87421,584.31045 C 401.01007,583.86273 401.14837,583.40701 401.28911,582.94329 C 401.42983,582.47957 401.56465,582.05773 401.69358,581.67774 C 401.84191,581.2338 401.97916,580.80394 402.10534,580.3882 L 402.06796,580.37686 C 400.9479,581.87056 399.71937,582.8249 398.3824,583.23992 C 397.05785,583.65871 395.63555,583.63746 394.11548,583.17615 C 392.83211,582.78668 391.82026,582.13034 391.07989,581.20715 C 390.35683,580.27173 389.86473,579.13575 389.6036,577.79917 C 389.34731,576.44661 389.31229,574.92544 389.49852,573.23566 C 389.70206,571.53368 390.09742,569.71528 390.68459,567.78046 C 391.29117,565.78169 391.99526,564.02207 392.79688,562.50157 C 393.60333,560.96511 394.50141,559.70965 395.49111,558.73519 C 396.49325,557.76455 397.57487,557.11487 398.736,556.78617 C 399.91441,556.4453 401.17645,556.47904 402.5221,556.88738 C 403.86773,557.29578 404.95849,558.02844 405.79435,559.08538 C 406.64265,560.14614 407.11593,561.59075 407.2142,563.41921 L 407.30765,563.44757 C 407.40952,563.11181 407.53222,562.72993 407.67573,562.30195 C 407.8365,561.86181 407.99001,561.44563 408.13626,561.05342 C 408.28733,560.64526 408.42386,560.28504 408.54586,559.97278 C 408.68027,559.66435 408.77693,559.45792 408.83584,559.35354 L 413.80727,560.86224 C 413.60763,561.43035 413.33764,562.23029 412.99733,563.26207 C 412.65696,564.2939 412.28298,565.48139 411.87538,566.82455 L 406.05949,585.98884 C 405.48685,587.87568 404.77765,589.4504 403.93186,590.71299 C 403.08117,591.99156 402.10395,592.96978 401.00016,593.64767 C 399.90881,594.32931 398.69473,594.72049 397.35787,594.82124 C 396.03347,594.92572 394.61122,594.74731 393.09115,594.28602 M 404.68937,571.8734 C 405.18433,570.24241 405.47221,568.84543 405.55301,567.68246 C 405.63378,566.51951 405.57429,565.54974 405.37455,564.77312 C 405.17478,563.99654 404.8545,563.39291 404.41371,562.96225 C 403.98534,562.53541 403.50951,562.24257 402.98622,562.08374 C 402.31338,561.87957 401.66436,561.86597 401.03916,562.04294 C 400.4264,562.22372 399.8326,562.61106 399.25776,563.20496 C 398.6829,563.79889 398.13704,564.61116 397.62018,565.64176 C 397.10329,566.67239 396.61677,567.93924 396.16064,569.4423 C 395.31141,572.24061 395.01974,574.45718 395.28561,576.09206 C 395.55145,577.72694 396.37589,578.75424 397.75894,579.17395 C 398.28223,579.33277 398.83813,579.36176 399.42664,579.26094 C 400.03242,579.14792 400.64039,578.82601 401.25053,578.29518 C 401.8655,577.74838 402.465,576.96113 403.04905,575.93342 C 403.63305,574.90572 404.17983,573.55238 404.68937,571.8734"
       style="font-size:40px;font-style:normal;font-variant:normal;font-weight:bold;font-stretch:normal;text-align:start;line-height:125%;writing-mode:lr-tb;text-anchor:start;fill:#000000;fill-opacity:1;stroke:none;stroke-width:1px;stroke-linecap:butt;stroke-linejoin:miter;stroke-opacity:1;font-family:Liberation Sans;-inkscape-font-specification:Liberation Sans Bold" />
  </g>
</svg>
