<?xml version="1.0" encoding="UTF-8" standalone="no"?>
<!-- Generator: Adobe Illustrator 13.0.0, SVG Export Plug-In . SVG Version: 6.00 Build 14948)  -->

<svg
   xmlns:dc="http://purl.org/dc/elements/1.1/"
   xmlns:cc="http://creativecommons.org/ns#"
   xmlns:rdf="http://www.w3.org/1999/02/22-rdf-syntax-ns#"
   xmlns:svg="http://www.w3.org/2000/svg"
   xmlns="http://www.w3.org/2000/svg"
   xmlns:sodipodi="http://sodipodi.sourceforge.net/DTD/sodipodi-0.dtd"
   xmlns:inkscape="http://www.inkscape.org/namespaces/inkscape"
   id="Layer_1"
   enable-background="new 0 0 462.325 73.735"
   xml:space="preserve"
   viewBox="0 0 244.47542 51.401591"
   version="1.0"
   y="0px"
   x="0px"
   inkscape:version="0.48.4 r9939"
   width="100%"
   height="100%"
   sodipodi:docname="clouds.svg"><defs
     id="defs135" /><sodipodi:namedview
     pagecolor="#ffffff"
     bordercolor="#666666"
     borderopacity="1"
     objecttolerance="10"
     gridtolerance="10"
     guidetolerance="10"
     inkscape:pageopacity="0"
     inkscape:pageshadow="2"
     inkscape:window-width="1366"
     inkscape:window-height="720"
     id="namedview133"
     showgrid="false"
     fit-margin-top="0"
     fit-margin-left="0"
     fit-margin-right="0"
     fit-margin-bottom="0"
     inkscape:zoom="1.5180575"
     inkscape:cx="131.63591"
     inkscape:cy="35.794501"
     inkscape:window-x="-4"
     inkscape:window-y="-4"
     inkscape:window-maximized="1"
     inkscape:current-layer="Layer_1" /><linearGradient
     id="SVGID_1_"
     y2="62.854"
     gradientUnits="userSpaceOnUse"
     x2="87.375"
     gradientTransform="matrix(0.9725,0.2328,-0.2328,0.9725,55.27,-30.363)"
     y1="62.854"
     x1="49.021999"><stop
       style="stop-color:#FCEE21"
       offset="0"
       id="stop8" /><stop
       style="stop-color:#FCEC21"
       offset=".4583"
       id="stop10" /><stop
       style="stop-color:#FCE521"
       offset=".6234"
       id="stop12" /><stop
       style="stop-color:#FBDA20"
       offset=".7411"
       id="stop14" /><stop
       style="stop-color:#FAC920"
       offset=".8363"
       id="stop16" /><stop
       style="stop-color:#F9B31F"
       offset=".9178"
       id="stop18" /><stop
       style="stop-color:#F7981E"
       offset=".9886"
       id="stop20" /><stop
       style="stop-color:#F7931E"
       offset="1"
       id="stop22" /></linearGradient><linearGradient
     id="SVGID_2_"
     y2="52.375999"
     gradientUnits="userSpaceOnUse"
     x2="89.161003"
     gradientTransform="matrix(0.9725,0.2328,-0.2328,0.9725,55.27,-30.363)"
     y1="52.375999"
     x1="69.471001"><stop
       style="stop-color:#FCEE21"
       offset="0"
       id="stop27" /><stop
       style="stop-color:#FCEC21"
       offset=".4583"
       id="stop29" /><stop
       style="stop-color:#FCE521"
       offset=".6234"
       id="stop31" /><stop
       style="stop-color:#FBDA20"
       offset=".7411"
       id="stop33" /><stop
       style="stop-color:#FAC920"
       offset=".8363"
       id="stop35" /><stop
       style="stop-color:#F9B31F"
       offset=".9178"
       id="stop37" /><stop
       style="stop-color:#F7981E"
       offset=".9886"
       id="stop39" /><stop
       style="stop-color:#F7931E"
       offset="1"
       id="stop41" /></linearGradient><linearGradient
     id="SVGID_3_"
     y2="82.475998"
     gradientUnits="userSpaceOnUse"
     x2="47.005001"
     gradientTransform="matrix(0.8395,0.5433,-0.5433,0.8395,140.04,-57.388)"
     y1="82.475998"
     x1="33.457001"><stop
       style="stop-color:#FCEE21"
       offset="0"
       id="stop46" /><stop
       style="stop-color:#FCEC21"
       offset=".4583"
       id="stop48" /><stop
       style="stop-color:#FCE521"
       offset=".6234"
       id="stop50" /><stop
       style="stop-color:#FBDA20"
       offset=".7411"
       id="stop52" /><stop
       style="stop-color:#FAC920"
       offset=".8363"
       id="stop54" /><stop
       style="stop-color:#F9B31F"
       offset=".9178"
       id="stop56" /><stop
       style="stop-color:#F7981E"
       offset=".9886"
       id="stop58" /><stop
       style="stop-color:#F7931E"
       offset="1"
       id="stop60" /></linearGradient><path
     d="m 62.13341,24.04859 c 0,0 13.239,-22.0149996 31.045,-17.6339996 1.169,0.288 7.441,4.9379996 7.441,4.9379996 l 1.657,2.288 c 0,0 4.096,-14.10099963 16.107,-13.62899963 12.638,0.496 14.125,11.15099963 14.125,11.15099963 0,0 9.416,-1.7339996 11.646,1.982 2.23,3.718 2.479,7.929 2.479,7.929 0,0 4.709,-13.6279996 15.336,-12.6079996 9.648,0.927 10.507,10.0919996 10.507,10.0919996 l 0.495,20.815 -102.84,-0.744 -8.02,-14.58 z"
     id="path64"
     inkscape:connector-curvature="0"
     style="fill:#d6dbee" /><path
     d="m 80.69341,25.99359 c -1.439,-0.618 7.672,-6.578 11.414,-8.154 3.911,-1.647 17.112,-2.515 22.052,5.513 l 5.301,-2.969 c 0,0 11.449,-8.693 18.446,1.272 1.349,1.921 5.427,-1.672 9.542,-0.849 3.754,0.751 2.219,0.198 5.513,6.785 1.456,2.911 4.234,-2.128 7.116,-6.45 1.647,-2.471 6.793,-4.94 6.793,-4.94 0,0 6.521,-5.059 13.38,-2.265 5.558,2.264 6.793,6.588 7.411,8.44 0,0 11.325,-10.703 18.525,-8.646 7.617,2.177 11.733,10.909 12.969,12.968 1.126,1.877 3.293,3.294 3.293,3.294 0,0 -0.811,-0.7 2.265,3.911 1.235,1.853 3.294,1.853 3.294,1.853 0,0 0.205,4.117 6.998,-2.471 6.857,-6.65 9.47,7.41 9.47,8.028 0,11.732 -10.498,8.439 -10.498,8.439 h -2.882 l -231.08999984,-0.5 c 0,0 -0.617,-17.292 11.32199984,-17.909 11.939,-0.617 3.499,-0.411 3.499,-0.411 0,0 6.72,-16.794 23.261,-18.938 21.539,-2.7929996 32.449,16.146 32.449,16.146 0,0 5.764,-2.882 9.263,-1.441 l 0.92,-0.706 z"
     id="path66"
     inkscape:connector-curvature="0"
     style="fill:#c5c6e4" /><path
     d="m 0.12541016,51.19559 c 0,0 -0.617,-17.292 11.32199984,-17.909 11.939,-0.617 3.499,-0.411 3.499,-0.411 0,0 6.587,-19.351 23.261,-18.938 16.674,0.413 24.702,23.879 24.702,23.879 0,0 6.177,-8.028 13.998,-6.588 6.685,1.231 8.234,8.852 8.234,8.852 0,0 2.696,-9.13 -4.323,-12.145 -1.439,-0.618 9.757,-8.063 13.792,-7.616 3.706,0.411 11.321,3.5 12.762,11.733 l 3.295,-4.323 c 0,0 9.217,-11.004 24.7,1.029 1.854,1.44 2.885,-5.352 7,-4.528 3.754,0.751 5.145,10.703 4.115,13.791 -1.03,3.088 3.504,-9.057 8.443,-7.204 2.78,1.043 2.673,3.705 2.673,3.705 0,0 3.952,-11.992 10.708,-15.026 10.086,-4.529 17.493,-0.824 18.934,4.116 0,0 8.859,-10.291 16.06,-8.233 7.617,2.177 8.441,9.675 7.818,15.026 -0.253,2.175 -2.265,3.5 -2.265,3.5 0,0 4.751,-3.171 7.826,1.44 1.235,1.853 -0.411,5.97 -0.411,5.97 0,0 -0.823,6.176 5.97,-0.412 6.857,-6.65 5.9,3.091 5.964,3.706 0.211,2.058 2.476,-0.206 2.476,-0.206 0,0 2.207,-5.029 5.347,-6.793 3.299,-1.853 7.622,3.705 4.534,13.791 L 0.13941016,51.19559 z"
     id="path68"
     inkscape:connector-curvature="0"
     style="fill:#f6f6f4" /><linearGradient
     id="SVGID_4_"
     y2="46.277"
     gradientUnits="userSpaceOnUse"
     x2="327.44"
     y1="46.277"
     x1="307.48999"><stop
       style="stop-color:#FCEE21"
       offset="0"
       id="stop75" /><stop
       style="stop-color:#FCEC21"
       offset=".4583"
       id="stop77" /><stop
       style="stop-color:#FCE521"
       offset=".6234"
       id="stop79" /><stop
       style="stop-color:#FBDA20"
       offset=".7411"
       id="stop81" /><stop
       style="stop-color:#FAC920"
       offset=".8363"
       id="stop83" /><stop
       style="stop-color:#F9B31F"
       offset=".9178"
       id="stop85" /><stop
       style="stop-color:#F7981E"
       offset=".9886"
       id="stop87" /><stop
       style="stop-color:#F7931E"
       offset="1"
       id="stop89" /></linearGradient><linearGradient
     id="SVGID_5_"
     y2="186.74001"
     gradientUnits="userSpaceOnUse"
     x2="46.862"
     gradientTransform="matrix(0.3992,0.9169,-0.9169,0.3992,316.27,-45.129)"
     y1="186.74001"
     x1="25.625999"><stop
       style="stop-color:#FCEE21"
       offset="0"
       id="stop94" /><stop
       style="stop-color:#FCEC21"
       offset=".4583"
       id="stop96" /><stop
       style="stop-color:#FCE521"
       offset=".6234"
       id="stop98" /><stop
       style="stop-color:#FBDA20"
       offset=".7411"
       id="stop100" /><stop
       style="stop-color:#FAC920"
       offset=".8363"
       id="stop102" /><stop
       style="stop-color:#F9B31F"
       offset=".9178"
       id="stop104" /><stop
       style="stop-color:#F7981E"
       offset=".9886"
       id="stop106" /><stop
       style="stop-color:#F7931E"
       offset="1"
       id="stop108" /></linearGradient><linearGradient
     id="SVGID_6_"
     y2="35.783001"
     gradientUnits="userSpaceOnUse"
     x2="611.03998"
     gradientTransform="matrix(0.6468,-0.7627,0.7627,0.6468,37.922,446.29)"
     y1="35.783001"
     x1="591.09998"><stop
       style="stop-color:#FCEE21"
       offset="0"
       id="stop113" /><stop
       style="stop-color:#FCEC21"
       offset=".4583"
       id="stop115" /><stop
       style="stop-color:#FCE521"
       offset=".6234"
       id="stop117" /><stop
       style="stop-color:#FBDA20"
       offset=".7411"
       id="stop119" /><stop
       style="stop-color:#FAC920"
       offset=".8363"
       id="stop121" /><stop
       style="stop-color:#F9B31F"
       offset=".9178"
       id="stop123" /><stop
       style="stop-color:#F7981E"
       offset=".9886"
       id="stop125" /><stop
       style="stop-color:#F7931E"
       offset="1"
       id="stop127" /></linearGradient><metadata
     id="metadata131"><rdf:RDF><cc:Work><dc:format>image/svg+xml</dc:format><dc:type
           rdf:resource="http://purl.org/dc/dcmitype/StillImage" /><cc:license
           rdf:resource="http://creativecommons.org/licenses/publicdomain/" /><dc:publisher><cc:Agent
             rdf:about="http://openclipart.org/"><dc:title>Openclipart</dc:title></cc:Agent></dc:publisher><dc:title>Cute cartoon clouds with stars</dc:title><dc:date>2009-04-24T09:33:29</dc:date><dc:description>Cute cartoony clouds with some stars. 
\n
\nThey go best on publications for little kids, or cartoon-related.</dc:description><dc:source>https://openclipart.org/detail/25281/cute-cartoon-clouds-with-stars-by-mokush</dc:source><dc:creator><cc:Agent><dc:title>mokush</dc:title></cc:Agent></dc:creator><dc:subject><rdf:Bag><rdf:li>cartoon</rdf:li><rdf:li>clouds</rdf:li><rdf:li>cute</rdf:li><rdf:li>kids</rdf:li><rdf:li>star</rdf:li></rdf:Bag></dc:subject></cc:Work><cc:License
         rdf:about="http://creativecommons.org/licenses/publicdomain/"><cc:permits
           rdf:resource="http://creativecommons.org/ns#Reproduction" /><cc:permits
           rdf:resource="http://creativecommons.org/ns#Distribution" /><cc:permits
           rdf:resource="http://creativecommons.org/ns#DerivativeWorks" /></cc:License></rdf:RDF></metadata></svg>