<?xml version="1.0" encoding="UTF-8" standalone="no"?>
<!-- Created with Inkscape (http://www.inkscape.org/) -->

<svg
   xmlns:dc="http://purl.org/dc/elements/1.1/"
   xmlns:cc="http://creativecommons.org/ns#"
   xmlns:rdf="http://www.w3.org/1999/02/22-rdf-syntax-ns#"
   xmlns:svg="http://www.w3.org/2000/svg"
   xmlns="http://www.w3.org/2000/svg"
   xmlns:sodipodi="http://sodipodi.sourceforge.net/DTD/sodipodi-0.dtd"
   xmlns:inkscape="http://www.inkscape.org/namespaces/inkscape"
   width="1400"
   height="2800"
   id="svg2"
   version="1.1"
   inkscape:version="0.48.2 r9819"
   sodipodi:docname="picnic-0-tent-canvas.svg">
  <defs
     id="defs4" />
  <sodipodi:namedview
     id="base"
     pagecolor="#ffffff"
     bordercolor="#666666"
     borderopacity="1.0"
     inkscape:pageopacity="0.0"
     inkscape:pageshadow="2"
     inkscape:zoom="0.95"
     inkscape:cx="744.52658"
     inkscape:cy="125.34698"
     inkscape:document-units="px"
     inkscape:current-layer="layer1"
     showgrid="false"
     inkscape:window-width="1600"
     inkscape:window-height="850"
     inkscape:window-x="-4"
     inkscape:window-y="-4"
     inkscape:window-maximized="1" />
  <metadata
     id="metadata7">
    <rdf:RDF>
      <cc:Work
         rdf:about="">
        <dc:format>image/svg+xml</dc:format>
        <dc:type
           rdf:resource="http://purl.org/dc/dcmitype/StillImage" />
        <dc:title></dc:title>
      </cc:Work>
    </rdf:RDF>
  </metadata>
  <g
     inkscape:label="Layer 1"
     inkscape:groupmode="layer"
     id="layer1"
     transform="translate(0,1747.6378)">
    <path
       style="fill:#00ff00;stroke:#000000;stroke-width:1px;stroke-linecap:butt;stroke-linejoin:miter;stroke-opacity:1"
       d="m 231.57895,2623.1579 c -1.98486,-3.9697 -2.65214,-8.4759 -4.21053,-12.6316 -1.15397,-3.0772 -11.26628,-26.8577 -12.63158,-33.6842 -0.5505,-2.7525 0.46147,-5.6522 0,-8.421 -0.95134,-5.7081 -2.38057,-11.3523 -4.21052,-16.8422 -1.79952,-5.3985 -5.56947,-7.1958 -4.21053,-12.6315 6.75131,-27.0053 3.78656,3.8156 8.42105,-37.8948 0.46498,-4.1847 -0.6922,-8.4783 0,-12.6315 0.72965,-4.3779 2.80702,-8.4211 4.21053,-12.6316 1.40351,-4.2106 2.22566,-8.6619 4.21052,-12.6316 2.26309,-4.5262 6.15797,-8.1054 8.42106,-12.6316 1.98486,-3.9697 2.56219,-8.5107 4.21052,-12.6316 2.3311,-5.8277 5.61404,-11.228 8.42106,-16.8421 1.40351,-2.807 2.46968,-5.8098 4.21052,-8.421 4.21053,-5.6141 8.42106,-11.2281 12.63158,-16.8421 0,-1.4035 -0.62767,-2.9552 0,-4.2106 0.88766,-1.7753 3.32287,-2.4352 4.21053,-4.2105 0.62767,-1.2553 -0.44383,-2.879 0,-4.2105 2.39009,-7.1703 5.76722,-13.9757 8.42105,-21.0526 1.55839,-4.1557 2.22567,-8.6619 4.21053,-12.6316 2.26309,-4.5262 6.54166,-7.9331 8.42105,-12.6316 1.0425,-2.6062 -0.6808,-5.6978 0,-8.421 2.15288,-8.6116 5.61403,-16.8422 8.42105,-25.2632 1.40351,-4.2105 3.48088,-8.2537 4.21053,-12.6316 5.61403,-33.6842 -1.87135,-1.8713 0,-16.8421 1.23096,-9.8477 3.22302,-19.5986 4.21052,-29.4737 0.97759,-9.7758 0,-19.6491 0,-29.4737 0,-15.4386 0,-30.8772 0,-46.3157 0,-19.6492 0,-39.2983 0,-58.9474 0,-8.4211 0,-16.8421 0,-25.2632 0,-4.2105 0.41897,-8.4419 0,-12.6316 -0.9875,-9.875 -3.22302,-19.5986 -4.21052,-29.4736 -0.41896,-4.1897 0.6922,-8.4784 0,-12.6316 -0.72965,-4.3779 -3.48088,-8.2537 -4.21053,-12.6316 -0.6922,-4.1532 0.46498,-8.4468 0,-12.6316 -0.94278,-8.485 -3.26775,-16.7781 -4.21052,-25.2631 -0.92995,-8.3696 1.38441,-16.9567 0,-25.2632 -0.72965,-4.3779 -2.80702,-8.421 -4.21053,-12.6316 -1.40351,-9.8245 -3.22302,-19.5986 -4.21053,-29.4737 -0.41896,-4.1896 0,-8.421 0,-12.6315 0,-11.2281 0,-22.4562 0,-33.6842 0,-5.6141 0,-11.2281 0,-16.8421 0,-2.8071 -0.5505,-5.6686 0,-8.4211 0.87042,-4.3521 3.13409,-8.3258 4.21053,-12.6316 0.3404,-1.3616 -0.62767,-2.9552 0,-4.2105 0.88766,-1.7753 3.32287,-2.4352 4.21053,-4.2105 0.62766,-1.2554 -0.62767,-2.9552 0,-4.2106 0.88765,-1.7753 3.32287,-2.4352 4.21052,-4.2105 0.62767,-1.2553 -0.62767,-2.9552 0,-4.2105 0.88766,-1.7753 3.32287,-2.4352 4.21053,-4.2105 0.62767,-1.2554 -0.62767,-2.9552 0,-4.2106 1.77531,-3.5506 6.21905,-5.118 8.42105,-8.421 1.74084,-2.6113 2.59586,-5.73 4.21053,-8.4211 2.60356,-4.3392 5.91038,-8.2379 8.42105,-12.6315 4.67116,-8.1746 7.40906,-17.4294 12.63158,-25.2632 8.42105,-12.6316 0,8.421 12.63158,-12.6316 8.49158,-14.1526 -0.0998,-9.6916 8.42105,-21.0526 2.38183,-3.1758 6.37865,-5.0171 8.42105,-8.4211 2.28348,-3.8058 2.56219,-8.5107 4.21053,-12.6315 3.2305,-8.0763 14.69533,-25.7169 16.8421,-29.4737 1.55706,-2.7249 2.32753,-5.9104 4.21053,-8.4211 2.38183,-3.1758 6.37865,-5.017 8.42105,-8.421 2.28348,-3.8058 2.56219,-8.5108 4.21053,-12.6316 2.96855,-7.4214 15.37839,-27.4245 16.84211,-29.4737 2.30735,-3.2303 6.03921,-5.2453 8.42105,-8.4211 1.883,-2.5106 2.32752,-5.9103 4.21052,-8.421 2.38184,-3.1758 6.21905,-5.118 8.42106,-8.4211 0.77852,-1.1677 -0.99243,-3.2181 0,-4.2105 0.99243,-0.9924 2.80701,0 4.21052,0 1.40351,0 3.2181,-0.9924 4.21053,0 1.98486,1.9849 -0.88766,5.7581 0,8.4211 1.98486,5.9546 6.89873,10.7528 8.42105,16.8421 0.6808,2.7232 -0.6808,5.6978 0,8.421 0.76116,3.0447 3.59505,5.3437 4.21053,8.4211 0.82575,4.1287 -1.0212,8.5467 0,12.6316 0.4814,1.9256 3.58286,2.3275 4.21052,4.2105 0.88766,2.663 -0.6808,5.6978 0,8.421 0.76116,3.0447 3.59505,5.3437 4.21053,8.4211 0.82575,4.1288 -0.59546,8.4634 0,12.6316 -0.39869,10.6614 6.74127,19.395 8.42105,29.4737 1.38442,8.3064 -1.38441,16.9566 0,25.2631 1.4593,8.7558 6.96176,16.5074 8.42106,25.2632 0.6922,4.1532 -0.69221,8.4783 0,12.6315 0.72965,4.3779 3.3401,8.2795 4.21052,12.6316 0.5505,2.7525 0,5.6141 0,8.4211 1.40351,8.421 2.13995,16.9808 4.21053,25.2631 0.76116,3.0447 3.44937,5.3765 4.21053,8.4211 0.6808,2.7232 -0.34817,5.6357 0,8.421 1.05891,8.4713 3.26774,16.7782 4.21052,25.2632 0.92995,8.3695 -1.6515,17.0056 0,25.2632 0.61548,3.0774 3.69459,5.3254 4.21053,8.421 0.92294,5.5377 -1.21786,11.3618 0,16.8421 1.63959,7.3782 6.58794,13.7202 8.42105,21.0526 1.0212,4.0849 -0.69221,8.4784 0,12.6316 0.72965,4.3779 3.58286,8.2379 4.21053,12.6316 4.30579,30.1405 -5.79991,3.6529 4.21052,33.6842 0.99243,2.9773 3.2181,5.4438 4.21053,8.4211 0.44383,1.3315 -0.52125,2.9074 0,4.2105 2.3311,5.8277 6.43619,10.8875 8.42105,16.8421 0.88766,2.663 -0.5505,5.6685 0,8.4211 0.87042,4.352 2.80702,8.421 4.21053,12.6315 1.40351,4.2106 2.56219,8.5108 4.21052,12.6316 2.33111,5.8278 5.61404,11.2281 8.42106,16.8421 2.80701,5.6141 4.93937,11.6196 8.42105,16.8421 1.101,1.6515 3.58286,2.3275 4.21053,4.2105 0.88765,2.663 -0.88766,5.7581 0,8.4211 1.25533,3.766 6.64574,4.8704 8.42105,8.4211 6.84727,13.6945 1.06296,10.0154 8.42105,21.0526 8.03232,12.0485 0.78886,-6.4489 8.42105,12.6316 1.64834,4.1208 2.22567,8.6618 4.21053,12.6315 2.26309,4.5262 6.15796,8.1054 8.42105,12.6316 0.62767,1.2554 -0.44383,2.8791 0,4.2105 0.99243,2.9773 2.80702,5.6141 4.21053,8.4211 1.40351,2.807 2.46969,5.8098 4.21053,8.4211 1.101,1.6515 3.10952,2.559 4.21052,4.2105 6.45418,9.6813 1.96687,11.3713 8.42105,21.0526 13.96456,13.9646 -1.98486,-3.9697 4.21053,8.4211 1.77531,3.5506 6.64574,4.8704 8.42105,8.421 1.98486,3.9697 2.22567,8.6619 4.21053,12.6316 1.77531,3.5506 6.64574,4.8704 8.42105,8.421 0.62767,1.2554 -0.62767,2.9552 0,4.2106 1.12439,2.2487 10.41489,10.4149 12.63158,12.6316 1.40351,1.4035 2.80702,2.807 4.21053,4.2105 1.40351,1.4035 3.32287,2.4352 4.21052,4.2105 0.62767,1.2553 -0.99243,3.2181 0,4.2105 0.99243,0.9925 3.04274,-0.7785 4.21053,0 4.8583,3.2389 7.77328,9.3927 12.63158,12.6316 5.22251,3.4817 11.61959,4.9394 16.8421,8.4211 3.30301,2.202 5.01705,6.3786 8.42106,8.421 5.38221,3.2293 11.45989,5.1917 16.8421,8.4211 1.70201,1.0212 2.32752,3.5828 4.21053,4.2105 2.66297,0.8877 5.75808,-0.8877 8.42105,0 1.88301,0.6277 2.43521,3.3229 4.21053,4.2105 6.76019,3.3801 14.10562,5.4438 21.05263,8.4211 2.88459,1.2362 5.50718,3.0449 8.42105,4.2105 8.24169,3.2967 17.02147,5.1244 25.26316,8.4211 9.81744,3.9269 9.08301,6.4261 21.05263,8.421 4.15324,0.6922 8.50282,-0.8257 12.63158,0 3.0774,0.6155 5.44376,3.2181 8.42105,4.2105 5.48986,1.83 11.16767,3.0757 16.84211,4.2106 1.37625,0.2752 2.87904,-0.4439 4.21052,0 2.9773,0.9924 5.37642,3.4493 8.42106,4.2105 2.7232,0.6808 5.61403,0 8.42105,0 7.01754,1.4035 14.17147,2.2445 21.05263,4.2105 26.19883,7.4854 -14.08378,1.3938 21.05263,8.4211 2.75251,0.5505 5.69785,-0.6808 8.42106,0 6.08927,1.5223 11.01435,6.0899 16.8421,8.421 5.69693,8.6765 14.26336,1.9475 21.05263,4.2105 1.88301,0.6277 2.43522,3.3229 4.21053,4.2106 5.46828,9.3006 14.40797,1.5526 21.05263,4.2105 4.69849,1.8794 8.10539,6.158 12.63159,8.421 1.2553,0.6277 2.807,0 4.2105,0 2.807,0 5.7581,-0.8876 8.4211,0 1.883,0.6277 2.3275,3.5829 4.2105,4.2106 19.1675,0 0.2408,-1.9849 12.6316,4.2105 2.3026,1.1513 9.7661,-0.7164 12.6316,0 4.3057,1.0764 8.2794,3.3401 12.6315,4.2105 7.504,1.5008 23.0537,-2.14 29.4737,0 1.3315,0.4439 -0.9924,3.2181 0,4.2106 0.021,0.021 12.4695,-0.032 12.6316,0 4.3521,0.8704 8.3258,3.134 12.6316,4.2105 2.7232,0.6808 5.614,0 8.421,0 4.2106,0 8.4211,0 12.6316,0 1.4035,0 2.807,0 4.2105,0 1.4035,0 5.6141,0 4.2106,0 -2.8071,0 -11.2281,0 -8.4211,0 4.2105,0 8.4211,0 12.6316,0 1.4035,0 3.2181,0.9924 4.2105,0 0.9924,-0.9925 -0.9924,-3.2181 0,-4.2105 0.9924,-0.9925 2.9552,0.6276 4.2105,0 19.27,-9.635 -17.867,1.7451 12.6316,-8.4211 2.663,-0.8877 6.4362,1.9849 8.4211,0 0.9924,-0.9924 -0.9925,-3.2181 0,-4.2105 0.9924,-0.9925 2.807,0 4.2105,0 2.7668,0 10.256,-0.7919 12.6316,0 2.9773,0.9924 5.3764,3.4493 8.421,4.2105 2.7232,0.6808 5.6141,0 8.4211,0 2.807,1.4035 5.4437,3.2181 8.421,4.2105 1.3315,0.4439 2.9552,-0.6276 4.2106,0 1.7753,0.8877 2.4352,3.3229 4.2105,4.2106 1.2553,0.6276 2.879,-0.4439 4.2105,0 2.9773,0.9924 5.4438,3.218 8.4211,4.2105 1.3314,0.4438 2.9552,-0.6277 4.2105,0 1.7753,0.8876 2.4352,3.3228 4.2105,4.2105 1.2554,0.6277 2.807,0 4.2105,0 2.8071,1.4035 5.9104,2.3275 8.4211,4.2105 3.1758,2.3819 4.8704,6.6458 8.421,8.4211 2.5107,1.2553 5.7581,-0.8877 8.4211,0 1.883,0.6277 2.4352,3.3229 4.2105,4.2105 1.2554,0.6277 2.9552,-0.6277 4.2106,0 2.6947,1.3474 5.7263,7.0737 8.421,8.4211 1.2553,0.6276 2.9552,-0.6277 4.2105,0 3.4134,1.7066 5.0078,6.7143 8.4211,8.421 1.2553,0.6277 3.2181,-0.9924 4.2105,0 2.2192,2.2192 1.9914,6.2019 4.2105,8.4211 0.9925,0.9924 2.8071,0 4.2106,0 2.807,2.807 6.219,5.118 8.421,8.421 0.7785,1.1678 -0.6277,2.9552 0,4.2105 2.9825,5.9651 5.4385,2.4561 8.4211,8.4211 0.6276,1.2553 0,2.807 0,4.2105 1.4035,2.807 2.3275,5.9104 4.2105,8.4211 2.807,2.807 5.614,5.614 8.421,8.421 0,1.4035 -0.6276,2.9552 0,4.2106 0.8877,1.7753 3.7292,2.2849 4.2106,4.2105 1.0212,4.0848 -0.8258,8.5028 0,12.6316 0.6155,3.0774 3.4493,5.3764 4.2105,8.421 0.6808,2.7232 -0.6808,5.6979 0,8.4211 0.7612,3.0446 3.595,5.3436 4.2105,8.421 0.8258,4.1288 0,8.4211 0,12.6316 0,8.4211 0,16.8421 0,25.2632 0,2.807 -0.5505,5.6685 0,8.421 0.8704,4.3521 3.3401,8.2795 4.2106,12.6316 0.5505,2.7525 0,5.614 0,8.421 0,7.0176 0,14.0351 0,21.0527 0,11.228 0,22.4561 0,33.6842 0,4.828 -1.0905,12.4804 0,16.8421 0.7611,3.0446 3.218,5.4438 4.2105,8.421 0.4438,1.3315 -0.6277,2.9552 0,4.2106 0.8876,1.7753 2.807,2.807 4.2105,4.2105 1.4035,1.4035 2.4352,3.3229 4.2105,4.2105 1.2554,0.6277 2.9552,-0.6276 4.2106,0 17.5232,8.7616 -4.5012,-0.2907 4.2105,8.4211 0.9924,0.9924 3.2181,-0.9925 4.2105,0 0.9924,0.9924 -0.6277,2.9552 0,4.2105 0.8877,1.7753 2.807,2.807 4.2105,4.2105 0,2.807 -0.6808,5.6979 0,8.4211 0.7612,3.0446 3.4494,5.3764 4.2106,8.421 2.0104,8.0419 -2.2912,13.3752 -4.2106,21.0527 -1.3166,5.2663 1.7184,11.6871 0,16.8421 -0.6276,1.883 -3.3228,2.4352 -4.2105,4.2105 -1.2553,2.5107 1.9849,6.4362 0,8.421 -0.9924,0.9925 -3.2181,-0.9924 -4.2105,0 -0.9924,0.9925 0.9924,3.2181 0,4.2106 -0.5938,0.5938 -11.7679,0.4318 -12.6316,0 -1.7753,-0.8877 -2.4352,-3.3229 -4.2105,-4.2106 -1.2554,-0.6276 -2.8791,0.4439 -4.2105,0 -30.4986,-10.1662 6.6383,1.214 -12.6316,-8.421 -1.2554,-0.6277 -2.8489,0.3404 -4.2106,0 -5.4778,-1.3695 -15.8255,-4.9364 -21.0526,-8.4211 -1.6515,-1.101 -2.4352,-3.3228 -4.2105,-4.2105 -4.2105,-1.4035 -8.4211,-2.807 -12.6316,-4.2105 -1.4035,0 -2.879,0.4438 -4.2105,0 -2.9773,-0.9924 -5.6141,-2.807 -8.4211,-4.2105 -7.0175,-1.4035 -14.1714,-2.2445 -21.0526,-4.2106 -6.0352,-1.7243 -10.7528,-6.8987 -16.8421,-8.421 -2.7232,-0.6808 -5.614,0 -8.4211,0 -7.0175,-1.4035 -14.1714,-2.2445 -21.0526,-4.2105 -6.0352,-1.7244 -10.6873,-7.1901 -16.8421,-8.4211 -36.5294,-7.3059 16.3444,11.0622 -29.4737,-4.2105 -5.9546,-1.9849 -10.7528,-6.8988 -16.8421,-8.4211 -5.4464,-1.3616 -11.3957,1.3616 -16.8421,0 -3.0446,-0.7611 -5.4438,-3.2181 -8.421,-4.2105 -1.3315,-0.4438 -2.8791,0.4438 -4.2106,0 -2.9773,-0.9924 -5.3436,-3.595 -8.421,-4.2105 -4.1288,-0.8258 -8.4211,0 -12.6316,0 -2.807,0 -5.7581,0.8876 -8.4211,0 -1.883,-0.6277 -2.4352,-3.3229 -4.2105,-4.2106 -0.3487,-0.1743 -12.0898,-0.1805 -12.6316,0 -2.9772,0.9925 -5.3764,3.4494 -8.421,4.2106 -5.4464,1.3616 -11.3371,-1.101 -16.8421,0 -11.3969,-7.1561 -10.8875,6.4362 -16.8421,8.421 -2.663,0.8877 -5.6686,-0.5505 -8.4211,0 -21.904,4.3808 -4.2105,2.807 -21.0526,8.4211 -1.3315,0.4438 -2.879,-0.4438 -4.2105,0 -26.13522,8.7117 13.9937,-0.3406 -21.05266,8.421 -1.36161,0.3404 -2.95519,-0.6276 -4.21053,0 -1.77531,0.8877 -2.43521,3.3229 -4.21053,4.2106 -3.96972,1.9848 -8.32581,3.134 -12.63157,4.2105 -1.36161,0.3404 -2.95519,-0.6277 -4.21053,0 -3.55063,1.7753 -4.73526,6.9467 -8.42105,8.421 -5.37293,2.1492 -11.35225,2.3806 -16.84211,4.2106 -2.97729,0.9924 -5.37641,3.4493 -8.42105,4.2105 -2.72321,0.6808 -5.75808,-0.8877 -8.42105,0 -1.88301,0.6277 -2.55903,3.1095 -4.21053,4.2105 -2.61126,1.7409 -5.50718,3.045 -8.42105,4.2105 -4.12085,1.6484 -8.32581,3.1341 -12.63158,4.2106 -2.86546,0.7163 -10.32891,-1.1514 -12.63158,0 -1.77531,0.8876 -2.43521,3.3228 -4.21053,4.2105 -1.25533,0.6277 -2.87904,-0.4438 -4.21052,0 -2.9773,0.9924 -5.44376,3.2181 -8.42106,4.2105 -2.37557,0.7919 -9.86481,0 -12.63158,0 -7.01754,0 -14.03508,0 -21.05263,0 -2.80701,0 -5.61403,0 -8.42105,0 -1.40351,0 -3.2181,-0.9924 -4.21053,0 -0.99243,0.9925 0.99243,3.2181 0,4.2105 -0.99243,0.9925 -2.80701,0 -4.21052,0 -1.40351,0 -2.80702,0 -4.21053,0 -25.26316,0 -50.52631,0 -75.78947,0 -15.4386,0 -30.8772,0 -46.31579,0 -0.72241,0 -23.71917,0.5147 -25.26316,0 -1.883,-0.6276 -2.28493,-3.7291 -4.21053,-4.2105 -3.60156,-0.9004 -24.09867,0 -29.47368,0 -18.24561,0 -36.49123,0 -54.73684,0 -18.24562,0 -36.49123,0 -54.73684,0 -6.23223,0 -14.88586,0.881 -21.05264,0 -7.08459,-1.0121 -13.96804,-3.1984 -21.05263,-4.2105 -5.55761,-0.7939 -11.39569,1.3616 -16.8421,0 -3.04464,-0.7612 -5.61404,-2.807 -8.42106,-4.2105 -4.21052,-1.4035 -8.27948,-3.3401 -12.63157,-4.2106 -2.75251,-0.5505 -5.69785,0.6808 -8.42106,0 -3.04463,-0.7611 -5.44376,-3.2181 -8.42105,-4.2105 -1.33148,-0.4438 -2.87904,0.4438 -4.21053,0 -0.89256,-0.2975 -23.87337,-8.898 -29.47368,-12.6316 -1.6515,-1.101 -2.55902,-3.1095 -4.21053,-4.2105 -9.83324,-6.5555 -23.85096,-10.2866 -33.68421,-16.8421 -1.6515,-1.101 -2.55902,-3.1095 -4.21052,-4.2105 -7.77328,-5.1822 -17.48988,-7.4494 -25.26316,-12.6316 -1.65151,-1.101 -2.55902,-3.1095 -4.21053,-4.2105 -2.61125,-1.7409 -5.80979,-2.4697 -8.42105,-4.2106 -1.6515,-1.101 -2.55902,-3.1095 -4.21053,-4.2105 -2.61125,-1.7408 -5.80979,-2.4697 -8.42105,-4.2105 -1.6515,-1.101 -2.62264,-3.0196 -4.21053,-4.2105 -4.04833,-3.0363 -8.58324,-5.3848 -12.63157,-8.4211 -1.58789,-1.1909 -2.43522,-3.3229 -4.21053,-4.2105 -6.76019,-3.3801 -14.86077,-4.0868 -21.05263,-8.4211 -11.22807,-18.2456 -22.45614,-36.4912 -33.68421,-54.7368 z"
       id="path3823"
       inkscape:connector-curvature="0"
       transform="translate(0,-1747.6378)"
       sodipodi:nodetypes="csssssssssssscccssssssssssssssssssssscssssssscccsccsssssssscsssscscsscsssssssscssssscsssssssssssssscssssssssssccssscsssccsscccssscsscccssccccccssscccscsccscsccccssssssccccscscccccccccccccscccccscccccccccssccsssscssscccsccscscccsccccccccscscccccsccssscccssccccccsccsccccsccsccccsscsssccsssscssssssccccsssssssccssccccc" />
    <path
       sodipodi:type="arc"
       style="fill:#ffffff;fill-opacity:1;stroke:#000000;stroke-width:12.50000004;stroke-linecap:round;stroke-miterlimit:4;stroke-opacity:1;stroke-dasharray:none;stroke-dashoffset:0"
       id="path3017"
       sodipodi:cx="271.57895"
       sodipodi:cy="1035.7894"
       sodipodi:rx="82.105263"
       sodipodi:ry="176.8421"
       d="m 353.68421,1035.7894 a 82.105263,176.8421 0 1 1 -164.21052,0 82.105263,176.8421 0 1 1 164.21052,0 z"
       transform="matrix(0.92922034,0.36952612,-0.36952612,0.92922034,519.86824,-2604.1542)" />
    <path
       sodipodi:type="arc"
       style="fill:#ffffff;fill-opacity:1;stroke:#000000;stroke-width:12.50000004;stroke-linecap:round;stroke-miterlimit:4;stroke-opacity:1;stroke-dasharray:none;stroke-dashoffset:0"
       id="path3017-1"
       sodipodi:cx="271.57895"
       sodipodi:cy="1035.7894"
       sodipodi:rx="82.105263"
       sodipodi:ry="176.8421"
       d="m 353.68421,1035.7894 a 82.105263,176.8421 0 1 1 -164.21052,0 82.105263,176.8421 0 1 1 164.21052,0 z"
       transform="matrix(-0.92922034,0.36952612,0.36952612,0.92922034,976.97385,-2359.9437)" />
    <path
       style="fill:none;stroke:#000000;stroke-width:12.5;stroke-linecap:butt;stroke-linejoin:miter;stroke-miterlimit:4;stroke-opacity:1;stroke-dasharray:none"
       d="M 37.894737,1043.9411 218.94737,-232.23718 357.89474,1044.697"
       id="path3039"
       inkscape:connector-curvature="0"
       sodipodi:nodetypes="ccc" />
    <path
       style="fill:none;stroke:#000000;stroke-width:12.5;stroke-linecap:butt;stroke-linejoin:miter;stroke-opacity:1;stroke-miterlimit:4;stroke-dasharray:none"
       d="M 1035.7895,1048.1516 1229.4737,-173.29404 1372.6316,1042.9318"
       id="path3041"
       inkscape:connector-curvature="0" />
    <path
       style="fill:none;stroke:#000000;stroke-width:12.5;stroke-linecap:butt;stroke-linejoin:miter;stroke-miterlimit:4;stroke-opacity:1;stroke-dasharray:none"
       d="m 1225.2633,-164.47989 -63.158,-968.42111"
       id="path3043"
       inkscape:connector-curvature="0"
       sodipodi:nodetypes="cc" />
    <path
       style="fill:none;stroke:#000000;stroke-width:12.5;stroke-linecap:butt;stroke-linejoin:miter;stroke-miterlimit:4;stroke-opacity:1;stroke-dasharray:none"
       d="M 328.42105,-1377.1115 214.73684,-214.66317"
       id="path3045"
       inkscape:connector-curvature="0"
       sodipodi:nodetypes="cc" />
    <path
       style="fill:none;stroke:#000000;stroke-width:12.5;stroke-linecap:butt;stroke-linejoin:miter;stroke-miterlimit:4;stroke-opacity:1;stroke-dasharray:none"
       d="m 458.94737,-1667.6378 172.63157,425.2632 -324.21052,37.8947 -122.10526,433.68424 164.21053,437.89467"
       id="path3047"
       inkscape:connector-curvature="0"
       sodipodi:nodetypes="ccccc" />
    <path
       style="fill:none;stroke:#000000;stroke-width:12.5;stroke-linecap:butt;stroke-linejoin:miter;stroke-opacity:1;stroke-miterlimit:4;stroke-dasharray:none"
       d="m 1162.1054,-1495.0063 235.7894,492.6316 -256.8421,42.10524 -294.73692,58.9474 101.05263,-606.31574"
       id="path3049"
       inkscape:connector-curvature="0"
       sodipodi:nodetypes="ccccc" />
    <path
       style="fill:#008000;stroke:#000000;stroke-width:6;stroke-linecap:butt;stroke-linejoin:miter;stroke-opacity:1;stroke-miterlimit:4;stroke-dasharray:none"
       d="m 218.94737,2572.6316 c 6.80802,-6.1795 -1.70201,-14.2446 0,-21.0527 1.07644,-4.3057 3.34011,-8.2794 4.21052,-12.6315 0.55051,-2.7525 -0.34816,-5.6357 0,-8.4211 1.05892,-8.4713 3.36105,-16.7683 4.21053,-25.2631 5.60694,-56.0694 -7.1411,23.0739 4.21053,-33.6843 0.27525,-1.3762 0,-2.807 0,-4.2105 1.40351,-7.0175 1.6977,-14.3518 4.21052,-21.0526 1.77684,-4.7382 6.15797,-8.1054 8.42106,-12.6316 1.98486,-3.9697 2.22566,-8.6618 4.21052,-12.6316 0.88766,-1.7753 3.32287,-2.4352 4.21053,-4.2105 1.98486,-3.9697 2.22566,-8.6619 4.21053,-12.6316 6.98436,-13.9687 22.59335,-26.8039 33.68421,-37.8947 8.70675,-8.7068 3.92482,-8.1354 12.63157,-16.8421 0.99244,-0.9924 2.95519,0.6277 4.21053,0 1.77531,-0.8877 2.80702,-2.807 4.21053,-4.2105 1.40351,-1.4036 2.80701,-2.8071 4.21052,-4.2106 4.21053,-4.2105 8.42106,-8.421 12.63158,-12.6315 2.80702,-2.8071 5.24528,-6.0393 8.42106,-8.4211 2.51067,-1.883 5.80979,-2.4697 8.42105,-4.2105 1.6515,-1.101 2.43521,-3.3229 4.21052,-4.2106 3.96973,-1.9848 8.82579,-1.927 12.63158,-4.2105 3.40401,-2.0424 5.61404,-5.614 8.42106,-8.421 1.4035,-1.4035 2.43521,-3.3229 4.21052,-4.2106 13.69454,-6.8472 10.0155,-1.0629 21.05263,-8.421 3.30301,-2.202 5.11805,-6.2191 8.42106,-8.4211 9.31892,-6.2126 9.5574,-1.7045 16.8421,-12.6315 1.55705,-2.3356 -1.25533,-5.9104 0,-8.4211 0.88766,-1.7753 3.58286,-2.3275 4.21053,-4.2105 0.88765,-2.663 -0.34817,-5.6357 0,-8.4211 1.64339,-13.1471 6.50558,-28.3349 4.21052,-42.1052 -0.51594,-3.0957 -3.59504,-5.3437 -4.21052,-8.4211 -0.82575,-4.1288 0.82575,-8.5028 0,-12.6316 -2.00386,-10.0192 -5.7326,-19.616 -8.42105,-29.4737 -3.04523,-11.1658 -4.35728,-22.8474 -8.42106,-33.6842 -2.20389,-5.877 -6.21716,-10.965 -8.42105,-16.8421 -14.69722,-39.1925 10.4029,9.7223 -12.63158,-42.1052 -2.05523,-4.6243 -5.81749,-8.2923 -8.42105,-12.6316 -9.37085,-15.6181 -15.31402,-33.3105 -21.05263,-50.5263 -1.40351,-4.2106 -3.13409,-8.3258 -4.21053,-12.6316 -1.45521,-5.8209 1.94029,-4.8704 0,-12.6316 -0.76116,-3.0446 -3.44937,-5.3764 -4.21053,-8.421 -0.19059,-0.7624 0.26214,-20.7905 0,-21.0527 -5.61403,-5.614 -4.21052,7.0176 -4.21052,-4.2105 0,-21.337 -1.25534,5.0214 4.21052,-16.8421 0.68081,-2.7232 0,-5.614 0,-8.4211 0,-11.228 0,-22.4561 0,-33.6842 0,-29.4736 0,-58.9473 0,-88.421 0,-5.6141 0,-11.2281 0,-16.8421 0,-1.4035 -0.99243,-3.2181 0,-4.2105 2.21915,-2.2192 5.8098,-2.4697 8.42106,-4.2106 1.6515,-1.101 2.32752,-3.5828 4.21052,-4.2105 0.0191,-0.01 12.62756,0 12.63158,0 0.99243,-0.9924 -0.99243,-3.2181 0,-4.2105 0.99243,-0.9925 3.2181,0.9924 4.21053,0 0.99243,-0.9925 -0.62767,-2.9552 0,-4.2106 0.88766,-1.7753 2.80702,-2.807 4.21052,-4.2105 0,-2.807 -0.88765,-5.7581 0,-8.421 0.62767,-1.883 3.32287,-2.4352 4.21053,-4.2106 0.76732,-1.5346 0,-18.6265 0,-21.0526 0,-19.6491 0,-39.2982 0,-58.9474 0,-7.0175 0,-14.035 0,-21.0526 0,-1.4035 -0.44383,-2.879 0,-4.2105 0.99243,-2.9773 3.2181,-5.4438 4.21053,-8.4211 0.88765,-2.6629 -1.25534,-5.9103 0,-8.421 0.88765,-1.7753 3.32287,-2.4352 4.21052,-4.2105 0.62767,-1.2554 -0.99243,-3.2181 0,-4.2106 0.99243,-0.9924 3.2181,0.9925 4.21053,0 0.99243,-0.9924 -1.40351,-4.2105 0,-4.2105 1.40351,0 0,5.614 0,4.2105 0,-2.807 0,-5.614 0,-8.421 0,-1.4035 0,-2.807 0,-4.2106 0,-1.4035 0.62767,-2.9551 0,-4.2105 -0.88766,-1.7753 -3.32287,-2.4352 -4.21053,-4.2105 -1.34531,-2.6906 1.12969,-13.4531 0,-16.8421 -0.99243,-2.9773 -3.44936,-5.3764 -4.21052,-8.4211 -0.6808,-2.7232 0.6808,-5.6978 0,-8.421 -0.76116,-3.0447 -3.2181,-5.4438 -4.21053,-8.4211 -0.44383,-1.3315 0.44383,-2.879 0,-4.2105 -0.99243,-2.9773 -3.59505,-5.3437 -4.21053,-8.421 0,-29.8642 2.9773,-2.4665 -4.21052,-16.8422 -1.25534,-2.5106 0.88766,-5.758 0,-8.421 -2.94737,-8.8421 -9.68421,-16.4211 -12.63158,-25.2632 -0.88766,-2.6629 1.25534,-5.9103 0,-8.421 -0.88766,-1.7753 -3.32287,-2.4352 -4.21053,-4.2105 -1.98486,-3.9698 -2.56219,-8.5108 -4.21052,-12.6316 -2.3311,-5.8278 -6.43619,-10.8875 -8.42106,-16.8421 -0.44382,-1.3315 0.44383,-2.8791 0,-4.2106 -0.99243,-2.9772 -2.46968,-5.8097 -4.21052,-8.421 -1.101,-1.6515 -3.72913,-2.2849 -4.21053,-4.2105 -1.0212,-4.0848 0.82575,-8.5028 0,-12.6316 -0.61548,-3.0774 -3.21809,-5.4438 -4.21052,-8.4211 -0.44383,-1.3314 0.44382,-2.879 0,-4.2105 -4.8382,-14.5146 -4.21053,-3.119 -4.21053,-12.6316 0,-1.4035 -0.99243,-3.2181 0,-4.2105 2.12819,-2.1282 8.99162,2.3906 12.63158,4.2105 2.80702,1.4035 5.80979,2.4697 8.42105,4.2106 0.65641,0.4376 7.76464,7.9834 8.42105,8.421 2.61126,1.7408 5.91038,2.3275 8.42106,4.2105 3.17577,2.3819 5.32122,5.9412 8.42105,8.4211 3.95152,3.1612 8.58324,5.3848 12.63158,8.421 1.58789,1.191 2.62263,3.0197 4.21052,4.2106 4.04834,3.0362 9.05332,4.8428 12.63158,8.421 3.57826,3.5783 5.81749,8.2923 8.42106,12.6316 1.61466,2.6911 1.99138,6.2019 4.21052,8.4211 4.96215,4.9621 11.45108,8.139 16.84211,12.6315 9.11251,7.5938 16.25582,17.5426 25.26315,25.2632 7.01755,5.614 14.03509,11.2281 21.05264,16.8421 2.80701,1.4035 5.91038,2.3275 8.42105,4.2105 29.39084,22.0432 -27.7652,-10.5111 29.47368,25.2632 3.76366,2.3523 8.82578,1.927 12.63158,4.2105 3.40401,2.0424 5.01705,6.3787 8.42105,8.4211 3.8058,2.2834 8.66186,2.2256 12.63158,4.2105 4.52618,2.2631 8.29231,5.8175 12.63158,8.421 2.69111,1.6147 5.72995,2.5959 8.42106,4.2106 4.33927,2.6035 8.2923,5.8174 12.63157,8.421 -0.47949,7.9766 9.82457,2.807 12.63158,4.2105 1.77532,0.8877 2.80702,2.8071 4.21053,4.2106 1.40351,1.4035 3.10952,2.559 4.21053,4.2105 1.74083,2.6113 1.99138,6.2019 4.21052,8.421 0.99243,0.9925 3.2181,-0.9924 4.21053,0 0.99243,0.9925 -0.62767,2.9552 0,4.2106 0.88766,1.7753 3.32287,2.4352 4.21052,4.2105 1.98487,3.9697 2.56219,8.5107 4.21053,12.6316 1.16555,2.9139 3.2181,5.4437 4.21053,8.421 0.75959,2.2788 0,15.4077 0,16.8421 0,8.4211 0.92995,16.8936 0,25.2632 -0.49013,4.4111 -2.80702,8.421 -4.21053,12.6316 -1.40351,4.2105 -2.80702,8.421 -4.21053,12.6316 -1.4035,4.2105 -3.48087,8.2536 -4.21052,12.6315 -0.69221,4.1533 0.6922,8.4784 0,12.6316 -0.72965,4.3779 -3.24773,8.299 -4.21053,12.6316 -1.85198,8.3339 -3.00318,16.8117 -4.21052,25.2631 -0.19849,1.3895 0.3404,2.849 0,4.2106 -1.07645,4.3057 -3.58286,8.2379 -4.21053,12.6316 -0.79394,5.5576 0,11.228 0,16.8421 0,4.2105 -0.69221,8.4783 0,12.6315 0.72965,4.3779 3.48088,8.2537 4.21053,12.6316 0.6922,4.1533 -0.59546,8.4634 0,12.6316 1.59085,11.136 9.70134,33.3146 12.63157,42.1053 1.40351,4.2105 2.22567,8.6618 4.21053,12.6315 4.52618,9.0524 11.63497,16.5846 16.84211,25.2632 1.61466,2.6911 1.99138,6.2019 4.21052,8.421 0.99243,0.9925 3.2181,-0.9924 4.21053,0 3.57826,3.5783 4.84279,9.0534 8.42105,12.6316 4.2604,4.2604 16.94185,5.9546 21.05263,8.4211 3.40401,2.0424 5.11805,6.219 8.42106,8.421 1.16779,0.7786 2.9074,-0.5212 4.21052,0 5.82776,2.3311 11.22807,5.6141 16.84211,8.4211 5.61403,2.807 11.61959,4.9394 16.8421,8.421 1.65151,1.101 2.32752,3.5829 4.21053,4.2106 2.66297,0.8876 5.91038,-1.2554 8.42105,0 1.25534,0.6276 -0.99243,3.2181 0,4.2105 2.21914,2.2191 5.8098,2.4697 8.42105,4.2105 1.65151,1.101 2.43522,3.3229 4.21053,4.2105 1.25534,0.6277 3.2181,-0.9924 4.21053,0 0.99243,0.9925 -0.99243,3.2181 0,4.2106 0.99243,0.9924 2.95519,-0.6277 4.21052,0 4.52618,2.2631 8.58324,5.3848 12.63158,8.421 1.58789,1.1909 2.55902,3.1095 4.21053,4.2105 6.13592,4.0907 8.76996,2.6287 12.63158,8.4211 1.74084,2.6113 2.32752,5.9104 4.21052,8.4211 10.4353,13.9137 6.80773,2.2824 12.63158,16.8421 1.64834,4.1208 2.80702,8.421 4.21053,12.6315 1.40351,4.2106 3.48088,8.2537 4.21053,12.6316 0.6922,4.1533 0,8.4211 0,12.6316 0,4.2105 0,8.421 0,12.6316 0,9.8245 0,19.6491 0,29.4737 0,4.2105 0.59545,8.4633 0,12.6315 -0.81838,5.7287 -3.39215,11.1135 -4.21053,16.8421 -0.59546,4.1683 0.46497,8.4468 0,12.6316 -4.44126,39.9714 -4.21053,14.5356 -4.21053,29.4737 0,2.2018 -0.55356,15.735 0,16.8421 0.88766,1.7753 3.32287,2.4352 4.21053,4.2105 3.72678,7.4536 -6.26289,1.4388 4.21053,8.4211 2.61125,1.7408 5.80979,2.4697 8.42105,4.2105 1.6515,1.101 2.43521,3.3229 4.21052,4.2105 11.37421,5.6871 26.25124,5.8337 37.89474,8.4211 4.3326,0.9628 8.25368,3.4809 12.63158,4.2105 4.15324,0.6922 8.42105,0 12.63158,0 9.82456,0 19.69788,-0.9776 29.47368,0 9.87506,0.9875 19.59014,3.312 29.47369,4.2105 16.89728,1.5362 34.64924,-3.728 50.52635,4.2106 1.7753,0.8876 2.559,3.1095 4.2105,4.2105 2.6112,1.7408 6.2019,1.9914 8.421,4.2105 0.9925,0.9925 -0.7785,3.0428 0,4.2106 3.3031,4.9545 8.4211,8.421 12.6316,12.6315 8.4211,8.4211 16.8421,16.8421 25.2632,25.2632 1.4035,1.4035 2.807,2.807 4.2105,4.2105 1.4035,1.4035 3.3229,2.4352 4.2105,4.2105 0.6277,1.2554 -0.9924,3.2181 0,4.2106 0.9925,0.9924 2.9552,-0.6277 4.2106,0 3.7319,1.8659 8.7986,10.0763 12.6315,12.6315 2.6113,1.7409 5.8098,2.4697 8.4211,4.2106 3.303,2.202 4.8704,6.6457 8.421,8.421 1.2554,0.6277 2.9552,-0.6276 4.2106,0 1.7753,0.8877 2.4352,3.3229 4.2105,4.2106 0.8782,0.4391 21.0509,4e-4 21.0526,0 3.0447,-0.7612 5.4438,-3.2181 8.4211,-4.2106 2.6629,-0.8876 6.4362,1.9849 8.421,0 0.9925,-0.9924 -0.9924,-3.2181 0,-4.2105 0.9925,-0.9924 2.807,0 4.2106,0 1.4035,0 2.9551,-0.6277 4.2105,0 1.7753,0.8877 2.4352,3.3229 4.2105,4.2105 1.2553,0.6277 2.807,0 4.2105,0 3.5722,0 22.4697,-0.6984 25.2632,0 3.0446,0.7612 5.4438,3.2181 8.421,4.2106 2.663,0.8876 5.6686,-0.5505 8.4211,0 5.6744,1.1348 11.1677,3.0756 16.8421,4.2105 5.505,1.101 11.3045,-0.923 16.8421,0 4.3779,0.7296 8.2795,3.3401 12.6316,4.2105 2.7525,0.5505 5.6978,-0.6808 8.421,0 3.0447,0.7612 5.4438,3.2181 8.4211,4.2105 1.3315,0.4439 3.2181,-0.9924 4.2105,0 0.9925,0.9925 -0.9924,3.2181 0,4.2106 0.9925,0.9924 3.2181,-0.9925 4.2105,0 0.9925,0.9924 -0.3404,2.8489 0,4.2105 7.5454,30.1815 4.5391,-1.6426 0,21.0526 -0.5952,2.9764 1.0893,21.9953 0,25.2632 -7.2671,21.8013 -2.5852,-9.7518 -8.421,25.2631 -0.4615,2.7689 0.6808,5.6979 0,8.4211 -0.7612,3.0446 -3.4494,5.3764 -4.2105,8.421 -0.6808,2.7232 0.5505,5.6686 0,8.4211 -1.7344,8.6716 -4.6784,13.5672 -8.4211,21.0526 -1.4035,2.807 -3.3483,5.4035 -4.2105,8.4211 -1.9661,6.8811 -2.2445,14.1714 -4.2105,21.0526 -0.8622,3.0176 -3.4494,5.3764 -4.2106,8.4211 -0.6808,2.7232 0.5505,5.6685 0,8.421 0.9663,8.4553 -6.5879,13.7202 -8.421,21.0526 -0.6808,2.7232 0.6808,5.6979 0,8.4211 -1.5223,6.0893 -6.09,11.0143 -8.4211,16.8421 -10.4059,26.0148 1.4534,1.3038 -8.421,21.0526 -1.4035,2.807 -3.2181,5.4438 -4.2105,8.4211 -0.4439,1.3315 0.9924,3.2181 0,4.2105 -0.9925,0.9924 -3.2181,-0.9924 -4.2106,0 -2.2191,2.2192 -3.2181,5.4438 -4.2105,8.4211 -0.4438,1.3314 0.9924,3.2181 0,4.2105 -2.2191,2.2191 -5.8098,2.4697 -8.4211,4.2105 -1.6515,1.101 -2.4352,3.3229 -4.2105,4.2105 -1.2553,0.6277 -2.9552,-0.6276 -4.2105,0 -19.2699,9.635 17.867,-1.7451 -12.6316,8.4211 -2.663,0.8877 -5.6978,-0.6808 -8.421,0 -11.3969,-7.1561 -10.8876,6.4362 -16.8421,8.421 -2.663,0.8877 -5.6141,0 -8.4211,0 -4.2105,0 -8.4634,-0.5954 -12.6316,0 -5.7286,0.8184 -11.1676,3.0757 -16.8421,4.2106 -2.7525,0.5505 -5.614,0 -8.421,0 -9.8246,0 -19.6492,0 -29.4737,0 -2.807,0 -5.6979,0.6808 -8.4211,0 -3.0446,-0.7612 -5.3254,-3.6946 -8.421,-4.2106 -8.3065,-1.3844 -16.8421,0 -25.2632,0 -11.228,0 -22.4561,0 -33.68419,0 -2.80702,0 -5.65223,-0.4614 -8.42105,0 -5.70808,0.9514 -11.09069,3.5715 -16.84211,4.2106 -6.97462,0.7749 -14.03509,0 -21.05263,0 -4.21053,0 -8.63712,-1.3315 -12.63158,0 -1.33148,0.4438 1.25534,3.5828 0,4.2105 -2.6156,1.3078 -21.0714,-1.0479 -25.26316,0 -3.04463,0.7612 -5.50717,3.045 -8.42105,4.2105 -4.12084,1.6484 -8.51073,2.5622 -12.63158,4.2106 -2.91387,1.1655 -5.37641,3.4493 -8.42105,4.2105 -2.72321,0.6808 -5.91038,-1.2554 -8.42105,0 -1.25534,0.6276 0.99243,3.2181 0,4.2105 -2.21914,2.2191 -6.20191,1.9914 -8.42106,4.2105 -0.99243,0.9925 0,2.807 0,4.2106 0,1.4035 -0.99243,3.2181 0,4.2105 0.99244,0.9924 3.2181,-0.9924 4.21053,0 0.99243,0.9924 0,2.807 0,4.2105 0,1.4035 0,2.807 0,4.2105 0,14.0351 0,28.0702 0,42.1053 0,1.0005 0.47185,15.8984 0,16.8421 -0.88766,1.7753 -3.32287,2.4352 -4.21053,4.2105 -0.62766,1.2554 0.99244,3.2181 0,4.2106 -1.01318,1.0131 -15.82892,-1.0132 -16.8421,0 -0.99243,0.9924 0.99243,3.2181 0,4.2105 -2.42763,2.4276 -8.38242,-2.7942 -12.63158,-4.2105 -3.38905,-1.1297 -14.15149,1.3453 -16.8421,0 -1.77532,-0.8877 -2.43522,-3.3229 -4.21053,-4.2106 -1.25534,-0.6276 -3.04274,0.7786 -4.21053,0 -13.70883,-9.1392 -2.44445,-7.8323 -16.8421,-12.6315 -1.33149,-0.4439 -2.80702,0 -4.21053,0 -4.21053,-1.4036 -8.55215,-2.4622 -12.63158,-4.2106 -5.76918,-2.4725 -11.01435,-6.0899 -16.8421,-8.421 -1.30313,-0.5213 -2.87904,0.4438 -4.21053,0 -2.97729,-0.9925 -5.44376,-3.2181 -8.42105,-4.2106 -1.33149,-0.4438 -2.87904,0.4439 -4.21053,0 -2.97729,-0.9924 -5.40346,-3.3483 -8.42105,-4.2105 -6.88117,-1.966 -14.17147,-2.2445 -21.05263,-4.2105 -3.01759,-0.8622 -5.34366,-3.5951 -8.42106,-4.2105 -1.71545,-0.3431 -31.96875,-0.3431 -33.68421,0 -3.07739,0.6154 -5.50717,3.0449 -8.42105,4.2105 -4.12084,1.6483 -8.51073,2.5622 -12.63158,4.2105 -2.91387,1.1656 -5.44376,3.2181 -8.42105,4.2105 -1.33149,0.4439 -3.08772,-0.8421 -4.21053,0 -4.76366,3.5728 -8.42105,8.4211 -12.63158,12.6316 -1.4035,1.4035 -2.55902,3.1095 -4.21052,4.2106 -2.61126,1.7408 -5.8098,2.4696 -8.42105,4.2105 -4.95452,3.303 -7.86792,9.0588 -12.63158,12.6316 -2.51068,1.883 -6.20191,1.9913 -8.42106,4.2105 -2.21914,2.2191 -2.46968,5.8098 -4.21052,8.421 -1.101,1.6515 -2.80702,2.8071 -4.21053,4.2106 -1.40351,1.4035 -2.80702,2.807 -4.21052,4.2105 -1.40351,1.4035 -2.43522,3.3229 -4.21053,4.2105 -1.25534,0.6277 -3.2181,-0.9924 -4.21053,0 -2.80701,2.807 4.21053,7.0176 -4.21052,4.2105 -2.9773,-0.9924 -5.61404,-2.807 -8.42106,-4.2105 -2.80701,-1.4035 -5.91038,-2.3275 -8.42105,-4.2105 -3.17578,-2.3818 -5.61403,-5.614 -8.42105,-8.4211 -2.80702,-2.807 -6.37865,-5.017 -8.42105,-8.421 -2.28348,-3.8058 -1.92705,-8.8258 -4.21053,-12.6316 -2.04241,-3.404 -6.03922,-5.2453 -8.42105,-8.421 -3.76601,-5.0214 -4.65505,-11.8208 -8.42106,-16.8422 -2.38183,-3.1757 -6.03922,-5.2452 -8.42105,-8.421 -1.883,-2.5107 -2.46969,-5.8098 -4.21052,-8.4211 -3.89264,-5.8389 -8.73895,-11.0031 -12.63158,-16.8421 -1.74084,-2.6112 -2.59587,-5.7299 -4.21053,-8.421 -2.60357,-4.3393 -6.15796,-8.1054 -8.42105,-12.6316 -1.98486,-3.9697 -1.92705,-8.8258 -4.21053,-12.6316 -4.08481,-6.808 -12.07844,-10.4905 -16.8421,-16.8421 -1.88301,-2.5107 -2.59587,-5.7299 -4.21053,-8.421 -2.60357,-4.3393 -5.3848,-8.5833 -8.42105,-12.6316 -2.10202,-2.8027 -9.8289,-10.5296 -12.63158,-12.6316 -4.04834,-3.0362 -8.58324,-5.3848 -12.63158,-8.421 -3.17578,-2.3819 -5.11805,-6.2191 -8.42105,-8.4211 -2.61126,-1.7408 -5.8098,-2.4697 -8.42106,-4.2105 -3.303,-2.202 -4.87042,-6.6458 -8.42105,-8.4211 -3.96972,-1.9848 -8.66186,-2.2256 -12.63158,-4.2105 -1.77531,-0.8877 -2.43521,-3.3229 -4.21052,-4.2105 -1.25534,-0.6277 -2.87905,0.4438 -4.21053,0 -2.97729,-0.9925 -5.37642,-3.4494 -8.42105,-4.2106 -2.72321,-0.6808 -5.75809,0.8877 -8.42106,0 -1.883,-0.6276 -2.32752,-3.5828 -4.21052,-4.2105 -0.31237,-0.1041 -24.3387,-0.4622 -25.26316,0 -1.77531,0.8877 -2.43521,3.3229 -4.21053,4.2105 -2.51067,1.2554 -6.43619,-1.9848 -8.42105,0 -0.99243,0.9925 0.99243,3.2181 0,4.2106 -0.99243,0.9924 -2.80702,0 -4.21053,0 -1.4035,0 -2.80701,0 -4.21052,0 -1.40351,0 -4.21053,1.4035 -4.21053,0 0,-1.4035 5.20296,-0.9925 4.21053,0 -16.43257,16.4325 -2.26126,-0.9747 -12.63158,4.2105 -1.77531,0.8877 -2.43521,3.3229 -4.21053,4.2105 -1.25533,0.6277 -2.95519,-0.6276 -4.21052,0 -1.77532,0.8877 -2.43522,3.3229 -4.21053,4.2106 -1.25534,0.6276 -2.80702,0 -4.21053,0 -1.4035,0 -5.61403,0 -4.21052,0 2.80702,0 10.40591,-1.9849 8.42105,0 -5.21518,5.2151 -14.37502,4.2105 -21.05263,4.2105 -1.40351,0 -3.2181,0.9924 -4.21053,0 -0.99243,-0.9925 0.99243,-3.2181 0,-4.2105 -0.99243,-0.9925 -2.80701,0 -4.21052,0 -1.40351,0 -2.82612,-0.2308 -4.21053,0 -7.05915,1.1765 -14.03509,2.807 -21.05263,4.2105 z"
       id="path3821"
       inkscape:connector-curvature="0"
       transform="translate(0,-1747.6378)" />
    <rect
       style="fill:#808000;fill-opacity:1;stroke:#000000;stroke-width:6;stroke-linecap:round;stroke-miterlimit:4;stroke-opacity:1;stroke-dasharray:none;stroke-dashoffset:0"
       id="rect3827"
       width="37.894737"
       height="75.789474"
       x="-391.64511"
       y="1323.0847"
       transform="matrix(0.26058131,-0.9654519,0.9654519,0.26058131,0,0)" />
    <rect
       style="fill:#808000;fill-opacity:1;stroke:#000000;stroke-width:6;stroke-linecap:round;stroke-miterlimit:4;stroke-opacity:1;stroke-dasharray:none;stroke-dashoffset:0"
       id="rect3827-6"
       width="37.894737"
       height="75.789474"
       x="556.00122"
       y="588.8205"
       transform="matrix(0.95739674,0.28877582,-0.28877582,0.95739674,0,0)" />
    <rect
       style="fill:#808000;fill-opacity:1;stroke:#000000;stroke-width:6;stroke-linecap:round;stroke-miterlimit:4;stroke-opacity:1;stroke-dasharray:none;stroke-dashoffset:0"
       id="rect3827-8"
       width="37.894737"
       height="75.789474"
       x="1051.076"
       y="127.85883"
       transform="matrix(0.62377047,0.78160757,-0.78160757,0.62377047,0,0)" />
    <rect
       style="fill:#808000;fill-opacity:1;stroke:#000000;stroke-width:6;stroke-linecap:round;stroke-miterlimit:4;stroke-opacity:1;stroke-dasharray:none;stroke-dashoffset:0"
       id="rect3827-1"
       width="37.894737"
       height="75.789474"
       x="1063.8203"
       y="531.6452"
       transform="matrix(0.92376225,0.38296646,-0.38296646,0.92376225,0,0)" />
    <rect
       style="fill:#808000;fill-opacity:1;stroke:#000000;stroke-width:6;stroke-linecap:round;stroke-miterlimit:4;stroke-opacity:1;stroke-dasharray:none;stroke-dashoffset:0"
       id="rect3827-4"
       width="37.894737"
       height="75.789474"
       x="523.7981"
       y="1084.8961"
       transform="matrix(0.93429161,-0.35650974,0.35650974,0.93429161,0,0)" />
    <rect
       style="fill:#808000;fill-opacity:1;stroke:#000000;stroke-width:6;stroke-linecap:round;stroke-miterlimit:4;stroke-opacity:1;stroke-dasharray:none;stroke-dashoffset:0"
       id="rect3827-5"
       width="37.894737"
       height="75.789474"
       x="1090.5264"
       y="808.15161" />
  </g>
</svg>
