<?xml version="1.0" encoding="UTF-8" standalone="no"?>
<!-- Created with Inkscape (http://www.inkscape.org/) -->

<svg
   xmlns:dc="http://purl.org/dc/elements/1.1/"
   xmlns:cc="http://creativecommons.org/ns#"
   xmlns:rdf="http://www.w3.org/1999/02/22-rdf-syntax-ns#"
   xmlns:svg="http://www.w3.org/2000/svg"
   xmlns="http://www.w3.org/2000/svg"
   xmlns:sodipodi="http://sodipodi.sourceforge.net/DTD/sodipodi-0.dtd"
   xmlns:inkscape="http://www.inkscape.org/namespaces/inkscape"
   width="340"
   height="340"
   id="svg2"
   version="1.1"
   inkscape:version="0.48.4 r9939"
   sodipodi:docname="ActionOverlapOK.svg">
  <defs
     id="defs4" />
  <sodipodi:namedview
     id="base"
     pagecolor="#ffffff"
     bordercolor="#666666"
     borderopacity="1.0"
     inkscape:pageopacity="0.0"
     inkscape:pageshadow="2"
     inkscape:zoom="1.1306558"
     inkscape:cx="-52.847394"
     inkscape:cy="139.93886"
     inkscape:document-units="px"
     inkscape:current-layer="layer1"
     showgrid="false"
     fit-margin-top="5"
     fit-margin-left="5"
     fit-margin-right="5"
     fit-margin-bottom="5"
     inkscape:window-width="1366"
     inkscape:window-height="720"
     inkscape:window-x="-4"
     inkscape:window-y="-4"
     inkscape:window-maximized="1" />
  <metadata
     id="metadata7">
    <rdf:RDF>
      <cc:Work
         rdf:about="">
        <dc:format>image/svg+xml</dc:format>
        <dc:type
           rdf:resource="http://purl.org/dc/dcmitype/StillImage" />
        <dc:title></dc:title>
      </cc:Work>
    </rdf:RDF>
  </metadata>
  <g
     inkscape:label="Layer 1"
     inkscape:groupmode="layer"
     id="layer1"
     transform="translate(-57.132084,-70.800171)">
    <path
       style="fill:#803300;fill-opacity:1;stroke:none"
       d="m 154.35152,76.800171 c -17.13648,0 -31.0405,13.904021 -31.0405,31.040499 0,9.93083 4.68208,18.75681 11.94068,24.43613 l -72.119616,0 0,26.91938 62.054576,0 0,62.97919 -41.44897,71.77619 33.68224,19.44324 36.93159,-63.95663 36.93158,63.95663 33.65583,-19.44324 -41.42256,-71.72336 0,-63.03202 62.05458,0 0,-26.91938 -72.11962,0 c 7.25355,-5.67958 11.91427,-14.50934 11.91427,-24.43613 0,-17.136478 -13.87761,-31.040499 -31.01408,-31.040499 z"
       id="path2984"
       inkscape:connector-curvature="0" />
    <path
       inkscape:connector-curvature="0"
       style="fill:#0000ff;fill-opacity:1;stroke:none"
       d="m 299.91264,166.20554 c -17.13648,0 -31.0405,13.90402 -31.0405,31.04049 0,9.93083 4.68209,18.75682 11.94069,24.43614 l -72.11962,0 0,26.91938 62.05457,0 0,62.97918 -41.44897,71.7762 33.68224,19.44324 36.93159,-63.95663 36.93159,63.95663 33.65582,-19.44324 -41.42255,-71.72336 0,-63.03202 62.05458,0 0,-26.91938 -72.11963,0 c 7.25356,-5.67958 11.91427,-14.50934 11.91427,-24.43614 0,-17.13647 -13.8776,-31.04049 -31.01408,-31.04049 z"
       id="path2984-9" />
    <g
       id="g3842"
       transform="translate(74.293169,-99.057563)"
       style="stroke-width:10;stroke-miterlimit:4;stroke-dasharray:none">
      <path
         transform="translate(57.132084,70.800171)"
         inkscape:connector-curvature="0"
         id="path3036"
         d="M 26.533275,223.25359 156.54632,305.50674"
         style="fill:none;stroke:#000000;stroke-width:10;stroke-linecap:butt;stroke-linejoin:miter;stroke-miterlimit:4;stroke-opacity:1;stroke-dasharray:none" />
      <path
         sodipodi:nodetypes="cc"
         inkscape:connector-curvature="0"
         id="path3036-0"
         d="m 216.55089,379.17902 -35.29957,0.91094"
         style="fill:none;stroke:#000000;stroke-width:10;stroke-linecap:butt;stroke-linejoin:miter;stroke-miterlimit:4;stroke-opacity:1;stroke-dasharray:none" />
      <path
         sodipodi:nodetypes="cc"
         inkscape:connector-curvature="0"
         id="path3036-0-8"
         d="M 216.55089,380.08996 203.28425,347.36557"
         style="fill:none;stroke:#000000;stroke-width:10;stroke-linecap:butt;stroke-linejoin:miter;stroke-miterlimit:4;stroke-opacity:1;stroke-dasharray:none" />
    </g>
  </g>
</svg>
