<?xml version="1.0" encoding="UTF-8" standalone="no"?>
<svg
   xmlns:dc="http://purl.org/dc/elements/1.1/"
   xmlns:cc="http://creativecommons.org/ns#"
   xmlns:rdf="http://www.w3.org/1999/02/22-rdf-syntax-ns#"
   xmlns:svg="http://www.w3.org/2000/svg"
   xmlns="http://www.w3.org/2000/svg"
   height="627"
   width="627"
   version="1.1"
   viewBox="0 0 626.99999 627"
   id="svg2">
  <defs
     id="defs3409" />
  <g
     transform="translate(-118.25174,-162.07653)"
     id="layer1">
    <g
       transform="matrix(1.035498,1.011162,-1.011162,1.035498,430.0527,-210.09515)"
       id="g4788">
      <path
         transform="translate(52.53,15.031)"
         style="fill:#ffffff;fill-opacity:1;stroke:#000000;stroke-width:1px"
         d="m 489.08,355.89 c 1.9487,1.1014 11.377,7.215 4.4774,22.251 -2.2888,4.9874 -20.597,24.421 -11.846,30.375 28.537,19.415 71.677,-101.73 71.677,-101.73 -75.351,-29.679 -148.59,-98.942 -261.32,-170.17 -3.4029,24.688 -23.178,39.927 -32.834,50.024"
         id="path4604" />
      <path
         transform="translate(52.53,151.15)"
         style="color:#000000;fill:#434343;stroke:#434343;stroke-linecap:round;stroke-linejoin:round"
         d="m 389.67,311.12 c -7.2174,-4.8294 -14.212,-9.2335 -14.226,-9.6222 -0.0469,-1.3536 11.521,-14.049 15.565,-17.135 2.5163,-1.9196 6.3899,-3.3771 8.1723,-3.3771 4.0286,0 8.3541,4.6015 10.49,9.4304 2.0025,4.5269 1.0228,7.4016 -2.6793,18.108 -1.0713,3.0984 -2.5808,6.5936 -2.6953,8.0967 -0.11453,1.5031 1.0434,4.7262 0.76085,4.6912 -0.28255,-0.035 -8.1713,-5.363 -15.389,-10.192 z"
         id="path4736" />
      <path
         transform="translate(52.53,151.15)"
         style="color:#000000;fill:#434343;stroke:#434343;stroke-linecap:round;stroke-linejoin:round"
         d="m 466.02,257.01 -7.7331,-8.0632 5.9967,-12.51 c 9.3958,-18.751 17.784,-21.843 26.793,-14.262 3.7503,3.1556 5.3551,9.3772 3.9281,14.776 -0.59073,2.235 -4.0044,8.0199 -7.5859,13.35 -3.5815,5.3297 -7.4792,10.891 -7.8376,12.523 -0.35849,1.6322 -0.21916,5.4917 -0.67892,5.7759 -0.45976,0.28415 -5.6571,-4.8238 -10.726,-9.7034 l -2.1568,-1.8872 z"
         id="path4738" />
      <path
         transform="translate(52.53,15.031)"
         style="fill:#ffffff;fill-opacity:1;stroke:#000000;stroke-width:1px"
         d="m 11.793,345.53 c 24.506,-28.2 51.593,-145.4 106.14,-147.42 18.815,-3.5938 205.68,172.75 283.41,219.35 -22.073,-12.227 -79.899,121.52 -111.23,150.95"
         id="path4600" />
      <path
         transform="translate(52.53,15.031)"
         style="fill:#ffffff;fill-opacity:1;stroke:#000000;stroke-width:1px"
         d="m 401.04,417.3 c 1.392,0.77334 6.8881,3.0236 9.5701,10.575 2.8828,10.513 -11.823,26.289 -2.5653,32.045 37.332,23.211 45.649,-125.24 81.373,-103.78 0,0 -259.1,-199.97 -284.22,-199.31 -28.699,1.4582 -52.575,62.785 -52.575,62.785"
         id="path4602" />
      <path
         transform="translate(52.53,151.15)"
         style="fill:none;stroke:#000000;stroke-width:1px"
         d="M 480.71,271.54 457.97,249.8"
         id="path4659" />
      <path
         transform="translate(52.53,151.15)"
         style="fill:none;stroke:#000000;stroke-width:1px"
         d="M 408.14,323.87 374.729,301.614"
         id="path4661" />
      <path
         transform="translate(52.53,151.15)"
         style="fill:none;stroke:#000000;stroke-width:1px"
         d="M 53.544,239.99 C 87.73,188.51 96.496,118.54 156.814,86.05"
         id="path4663" />
      <path
         d="M 151.01,428.91 C 185.2,377.43 194.92,307.46 255.23,274.97"
         style="fill:none;stroke:#000000;stroke-width:1px"
         id="path4663-6" />
      <path
         d="M 196.91,467.16 C 240.66,410.89 248.94,354.07 301.6,313.93"
         style="fill:none;stroke:#000000;stroke-width:1px"
         id="path4663-0" />
      <path
         d="m 247.58,507.32 c 42.8,-47.66 48.93,-119.55 102.55,-152.99"
         style="fill:none;stroke:#000000;stroke-width:1px"
         id="path4663-7" />
      <path
         d="m 293.48,546.52 c 42.79,-48.62 51.56,-109.98 109,-150.12"
         style="fill:none;stroke:#000000;stroke-width:1px"
         id="path4663-2" />
      <path
         transform="translate(52.53,151.15)"
         style="fill:none;stroke:#000000;stroke-width:1px"
         d="m 69.799,97.527 c 116.36,84.173 197.22,175.87 284.93,234.25"
         id="path4714" />
      <path
         transform="translate(52.53,151.15)"
         style="fill:none;stroke:#000000;stroke-width:1px"
         d="m 38.005,158.96 c 115.7,73.84 177.14,156.09 285.18,225.89"
         id="path4716" />
      <path
         transform="translate(52.53,151.15)"
         style="color:#000000;fill:#000000;stroke:#000000;stroke-linecap:round;stroke-linejoin:round"
         d="M 92.097,112.97 C 81.987,105.24 73.217,98.417 72.606,97.806 71.765,96.964 73.003,94.779 77.741,88.746 88.08,75.582 97.402,68.24 107.9,64.999 c 8.5214,-2.632 11.929,-2.421 18.242,1.1297 7.6678,4.3125 27.845,18.767 27.845,19.948 0,0.28644 -1.3984,1.3195 -3.1075,2.2957 -10.914,6.2339 -25.856,19.87 -34.915,31.864 -2.8798,3.8126 -5.2914,6.8995 -5.3592,6.8597 -0.0678,-0.0399 -8.3946,-6.3966 -18.504,-14.126 z"
         id="path4718" />
      <path
         transform="translate(52.53,151.15)"
         style="color:#000000;fill:#000000;stroke:#000000;stroke-linecap:round;stroke-linejoin:round"
         d="m 199.88,202.51 c -2.8924,-2.6975 -13.219,-11.784 -22.948,-20.192 -9.7288,-8.4082 -17.832,-15.651 -18.008,-16.095 -0.38565,-0.9763 4.5999,-7.5472 12.782,-16.826 6.815,-7.7283 16.636,-16.367 25.434,-21.711 l 5.6104,-2.568 22.007,18.426 c 12.104,10.134 22.387,18.733 22.246,19.11 -0.14071,0.37622 -4.3869,4.0249 -8.8305,8.1083 -10.315,9.4787 -17.735,17.838 -25.173,28.359 -3.2528,4.6015 -5.76,9.4362 -6.2958,9.4161 -0.53581,-0.02 -3.9332,-3.3297 -6.8255,-6.0272 z"
         id="path4720" />
      <path
         transform="translate(52.53,151.15)"
         style="color:#000000;fill:#000000;stroke:#000000;stroke-linecap:round;stroke-linejoin:round"
         d="m 299.22,288.91 c -2.3152,-1.8808 -13.03,-10.931 -23.811,-20.112 -10.781,-9.1808 -19.766,-16.821 -19.968,-16.978 -0.20163,-0.15704 2.8874,-5.1718 6.8645,-11.144 8.4897,-12.748 17.941,-23.183 27.921,-30.827 l 7.1695,-5.4914 4.6615,3.7165 c 29.238,23.311 47.033,36.969 46.433,37.454 -0.40135,0.32453 -4.9104,3.2398 -8.6522,6.237 -9.3435,7.4841 -20.88,19.698 -29.33,31.052 l -7.0798,9.5129 -4.2095,-3.4197 z"
         id="path4722" />
      <path
         transform="translate(52.53,151.15)"
         style="color:#000000;fill:#000000;stroke:#000000;stroke-linecap:round;stroke-linejoin:round"
         d="m 219.04,303.32 c -20.2,-17.492 -41.597,-36.908 -41.408,-37.578 0.37209,-1.3224 21.715,-41.059 25.54,-47.55 1.9541,-3.3164 3.6058,-7.083 4.0326,-6.9219 1.4749,0.55676 45.296,40.574 45.04,41.104 -5.1733,10.71 -27.568,55.504 -27.741,55.488 -0.13457,-0.0128 -2.5928,-2.0566 -5.4628,-4.5417 z"
         id="path4724" />
      <path
         transform="translate(52.53,151.15)"
         style="color:#000000;fill:#000000;stroke:#000000;stroke-linecap:round;stroke-linejoin:round"
         d="m 311.19,375.47 c -6.3567,-4.3054 -17.352,-12.096 -24.433,-17.312 l -12.876,-9.4843 8.7169,-15.854 c 12.2,-22.189 20.618,-36.411 21.551,-36.411 0.43645,0 6.9511,4.7446 14.477,10.543 7.5259,5.7989 18.459,13.866 24.296,17.928 l 10.613,7.3843 -3.5492,5.7369 c -1.9521,3.1553 -8.8166,14.665 -15.255,25.577 -6.438,10.912 -11.768,19.813 -11.844,19.78 -0.0765,-0.0332 -5.34,-3.5829 -11.697,-7.8882 z"
         id="path4726" />
      <path
         transform="translate(52.53,151.15)"
         style="color:#000000;fill:#000000;stroke:#000000;stroke-linecap:round;stroke-linejoin:round"
         d="m 123.9,220.92 c -0.72194,-1.1681 -20.285,-16.796 -32.302,-25.805 -5.1274,-3.8437 -9.3225,-7.3949 -9.3225,-7.8915 0,-2.0559 17.349,-37.6 22.904,-46.927 l 6.0057,-10.082 18.771,15.326 c 26.996,22.042 26.3,19.914 24.752,22.347 -6.1841,9.7208 -10.956,17.864 -19.16,34.575 -5.2286,10.649 -9.8628,19.362 -10.298,19.362 -0.4353,0 -1.0432,-0.40726 -1.3508,-0.90503 z"
         id="path4728" />
      <path
         transform="translate(52.53,151.15)"
         style="color:#000000;fill:#000000;stroke:#000000;stroke-linecap:round;stroke-linejoin:round"
         d="m 33.904,223.54 c -10.473,-8.46 -18.939,-15.73 -18.815,-16.16 0.12436,-0.4265 1.6797,-3.0518 3.4563,-5.834 1.7766,-2.7822 6.9894,-13.019 11.584,-22.747 4.5946,-9.7288 8.4409,-17.784 8.5474,-17.9 0.26824,-0.29272 10.966,6.857 27.046,18.076 l 13.57,9.4675 -5.2536,11.194 c -6.142,13.087 -14.189,28.44 -18.24,34.798 l -2.8545,4.4814 -19.041,-15.38 z"
         id="path4730" />
      <path
         transform="translate(52.53,151.15)"
         style="color:#000000;fill:#000000;stroke:#000000;stroke-linecap:round;stroke-linejoin:round"
         d="m 122.91,294.91 c -12.095,-9.7257 -21.862,-18.164 -21.705,-18.752 0.15782,-0.58794 2.3783,-4.6097 4.9344,-8.9373 2.5561,-4.3276 8.2615,-15.389 12.679,-24.582 l 8.0311,-16.713 11.894,10.043 c 16.966,14.325 34.789,30.003 35.152,30.922 0.63945,1.6181 -26.929,45.856 -28.503,45.739 -0.27018,-0.0201 -10.387,-7.994 -22.483,-17.72 z"
         id="path4732" />
      <path
         transform="translate(52.53,151.15)"
         style="color:#000000;fill:#000000;stroke:#000000;stroke-linecap:round;stroke-linejoin:round"
         d="m 220.76,373.21 c -12.276,-9.8017 -22.464,-17.934 -22.639,-18.071 -0.17552,-0.13742 2.2368,-3.6201 5.3608,-7.7393 6.7546,-8.9065 11.939,-17.066 17.692,-27.848 l 4.2309,-7.9283 13.319,11.275 c 10.337,8.7509 24.626,20.34 31.877,25.855 1.1924,0.90687 -16.945,29.637 -24.135,38.23 l -3.3861,4.0471 -22.32,-17.821 z"
         id="path4734" />
      <path
         transform="translate(52.53,151.15)"
         style="fill:none;stroke:#000000;stroke-width:1px"
         d="M 195.05,116.65 C 213.99,93.291 226.71,40.29 249.14,44.394"
         id="path4740" />
      <path
         transform="translate(52.53,151.15)"
         style="fill:none;stroke:#000000;stroke-width:1px"
         d="m 244.36,157.35 c 22.263,-22.639 33.968,-81.211 52.588,-80.088"
         id="path4742" />
      <path
         transform="translate(52.53,151.15)"
         style="fill:none;stroke:#000000;stroke-width:1px"
         d="m 287.62,194.83 c 19.384,-15.275 41.711,-94.064 58.689,-82.182"
         id="path4744" />
      <path
         transform="translate(52.53,151.15)"
         style="fill:none;stroke:#000000;stroke-width:1px"
         d="m 337.43,234.8 c 23.227,-24.331 37.613,-93.73 58.056,-85.684"
         id="path4746" />
      <path
         transform="translate(52.53,151.15)"
         style="fill:none;stroke:#000000;stroke-width:1px"
         d="m 388.59,272.99 c 14.246,-15.301 25.681,-92.47 49.099,-92.276"
         id="path4748" />
      <path
         transform="translate(52.53,151.15)"
         style="fill:none;stroke:#000000;stroke-width:1px"
         d="m 175.67,41.491 c 100.85,107.6 192.77,142.09 272.76,230.06"
         id="path4750" />
      <path
         transform="translate(52.53,151.15)"
         style="color:#000000;fill:#000000;stroke:#000000;stroke-linecap:round;stroke-linejoin:round"
         d="M 177.33,101.48 C 167.8325,93.7836 158.667,86.411 156.962,85.096 l -3.1,-2.3904 5.8,-11.768 c 6.3527,-12.889 15.126,-27.198 16.406,-26.758 0.44616,0.15367 9.1964,8.627 19.445,18.83 l 18.634,18.55 -5.8744,11.09 c -3.2309,6.0997 -7.6294,13.73 -9.7744,16.957 l -3.9,5.8662 -17.268,-13.993 z"
         id="path4752" />
      <path
         transform="translate(52.53,151.15)"
         style="color:#000000;fill:#000000;stroke:#000000;stroke-linecap:round;stroke-linejoin:round"
         d="m 267.65,176.72 c -10.716,-8.9548 -21.299,-18.068 -22.003,-18.739 -1.0612,-1.0107 0.54562,-0.75093 3.3922,-4.4801 3.7623,-4.9289 9.375,-14.313 13.466,-22.513 1.4429,-2.8924 2.5169,-7.1495 2.6894,-7.3414 0.29401,-0.32714 36.369,27.809 41.94,32.458 l 2.5562,2.1332 -5.7325,11.463 c -7.0575,12.893 -13.86,22.068 -16.112,23.475 -1.4545,0.90835 -3.5516,-2.5478 -20.196,-16.456 z"
         id="path4754" />
      <path
         transform="translate(52.53,151.15)"
         style="color:#000000;fill:#000000;stroke:#000000;stroke-linecap:round;stroke-linejoin:round"
         d="m 377.72,264.26 c -5.5218,-3.9216 -16.603,-12.144 -24.625,-18.272 l -14.585,-11.142 2.3302,-2.4469 c 3.0905,-3.2453 7.9712,-11.45 14.978,-25.18 l 5.7461,-11.259 10.229,7.8644 c 5.6261,4.3254 15.452,12.174 21.834,17.442 l 11.605,9.5774 -3.647,10.55 c -5.021,14.525 -10.271,26.799 -12.207,28.541 -1.4753,1.3271 -2.5114,0.82291 -11.659,-5.6736 z"
         id="path4756" />
      <path
         transform="translate(52.53,151.15)"
         style="color:#000000;fill:#000000;stroke:#000000;stroke-linecap:round;stroke-linejoin:round"
         d="m 436.52,257.73 c -6.8355,-6.9896 -16.167,-16.098 -20.736,-20.24 l -8.3075,-7.532 3.773,-10.04 c 5.6648,-15.074 11.772,-27.129 16.148,-31.876 4.3659,-4.7364 8.9146,-7.1318 10.798,-5.6866 0.65688,0.5039 11.032,8.4062 23.057,17.561 l 23.048,17.435 -4.8079,0.0668 c -7.9565,1.8817 -16.78,15.665 -25.778,40.268 -2.5003,6.8365 -4.5955,12.502 -4.656,12.591 -0.0605,0.0886 -5.7026,-5.5577 -12.538,-12.547 z"
         id="path4758" />
      <path
         transform="translate(52.53,151.15)"
         style="color:#000000;fill:#000000;stroke:#000000;stroke-linecap:round;stroke-linejoin:round"
         d="m 336.65,174.89 c -12.862,-9.4608 -23.507,-17.483 -23.8,-17.615 -1.8065,-0.81584 11.988,-27.837 15.59,-33.206 4.8902,-7.2902 11.135,-11.982 13.978,-11.982 1.7902,0 9.2862,5.7209 25.378,17.596 12.561,9.2691 23.997,17.747 24.204,17.931 0.20674,0.18441 -1.4293,-0.1188 -2.4249,0.23429 -6.8571,2.432 -13.097,12.412 -22.511,32.129 -3.5972,7.5343 -6.65,12.19 -6.7841,12.163 -0.1341,-0.0273 -10.768,-7.7902 -23.63,-17.251 z"
         id="path4760" />
      <path
         transform="translate(52.53,151.15)"
         style="color:#000000;fill:#000000;stroke:#000000;stroke-linecap:round;stroke-linejoin:round"
         d="M 257.67,116.32 C 240.84891,103.87584 228.24184,90.71233 216.10859,80.878825 l 3.97715,-7.686541 c 8.3484,-16.578 15.64997,-26.289113 23.06197,-28.510113 4.5523,-1.3639 3.78132,-1.497846 32.80202,18.482454 18.361,12.641 19.24441,12.563 17.13141,13.923 -5.5939,3.6004 -11.41084,10.062975 -19.39884,26.339975 -4.568,9.3084 -8.2404,18.175 -8.7663,18.191 -0.52589,0.0154 -4.8736,-3.3207 -7.2401,-5.2948 z"
         id="path4762" />
      <path
         transform="translate(52.53,151.15)"
         style="fill:none;stroke:#000000;stroke-width:1px"
         d="m 270.59,39.202 c 75.525,43.724 161.12,124.3 258.16,186.45"
         id="path4764" />
      <path
         transform="translate(52.53,151.15)"
         style="fill:none;stroke:#000000;stroke-width:1px"
         d="m 335.35,28.173 c -5.0901,35.404 -19.271,34.502 -31.101,54.764"
         id="path4766" />
      <path
         transform="translate(52.53,151.15)"
         style="fill:none;stroke:#000000;stroke-width:1px"
         d="m 382,63.331 c -6.59,29.468 -19.56,37.879 -27.72,54.759"
         id="path4768" />
      <path
         transform="translate(52.53,151.15)"
         style="fill:none;stroke:#000000;stroke-width:1px"
         d="m 423.92,91.727 c -7.602,39.181 -17.598,33.283 -22.311,60.849"
         id="path4770" />
      <path
         transform="translate(52.53,151.15)"
         style="fill:none;stroke:#000000;stroke-width:1px"
         d="m 465.16,121.48 c -5.3804,32.563 -11.4,39.619 -20.283,64.906"
         id="path4772" />
      <path
         transform="translate(52.53,151.15)"
         style="fill:none;stroke:#000000;stroke-width:1px"
         d="m 508.43,149.87 c -4.3229,19.532 -11.256,41.438 -27.044,62.877"
         id="path4774" />
      <path
         transform="translate(52.53,151.15)"
         style="color:#000000;fill:#000000;stroke:#000000;stroke-linecap:round;stroke-linejoin:round"
         d="m 305.46,60.335 c -5.3919,-3.7028 -14.976,-9.9535 -21.297,-13.89 -6.3216,-3.9369 -12.26941,-7.062342 -12.43241,-7.201042 -0.16274,-0.13869 1.5734,-1.747958 3.07291,-3.320558 8.0543,-8.4468 14.718,-20.171 17.094,-30.073 l 0.82206,-4.1830445 33.67254,22.2508445 7.9805,5.3466 -0.60462,3.2516 c -2.5076,13.486 -7.68077,24.828241 -15.70217,32.363241 l -2.50383,2.964232 -10.1023,-7.509273 z"
         id="path4776" />
      <path
         transform="translate(52.53,151.15)"
         style="color:#000000;fill:#000000;stroke:#000000;stroke-linecap:round;stroke-linejoin:round"
         d="m 385.15,119.38 -20.646,-15.961 3.5335,-5.431 c 7.1131,-10.933 9.809,-16.784 13.108,-28.448 l 1.7294,-6.1149 20.017,14.444 20.017,14.444 -1.2726,5.5313 c -2.6284,11.424 -5.3425,18.404 -11.538,29.672 l -4.302,7.8246 -20.646,-15.961 z"
         id="path4778" />
      <path
         transform="translate(52.53,151.15)"
         style="color:#000000;fill:#000000;stroke:#000000;stroke-linecap:round;stroke-linejoin:round"
         d="m 470.94,184.61 c -10.314,-7.4927 -18.757,-13.962 -18.762,-14.375 -0.005,-0.41367 0.85365,-2.8476 1.9076,-5.4088 4.5597,-11.081 8.7682,-25.55 10.932,-37.584 l 0.81475,-4.5315 6.8596,4.597 c 8.096,5.4257 27.042,17.302 31.919,20.007 l 3.4238,1.8998 -0.85111,2.7731 c -0.46812,1.5252 -1.9118,6.6038 -3.2081,11.286 -2.7699,10.004 -6.3883,19.377 -10.977,28.436 l -3.305,6.524 -18.753,-13.623 z"
         id="path4780" />
      <path
         transform="translate(52.53,151.15)"
         style="color:#000000;fill:#000000;stroke:#000000;stroke-linecap:round;stroke-linejoin:round"
         d="m 423.38,168.79 -21.021,-15.902 1.2026,-5.1491 c 0.66142,-2.832 1.6155,-6.1269 2.1202,-7.322 l 0.91763,-2.1728 7.069,5.5139 c 3.888,3.0326 13.306,10.22 20.929,15.972 7.623,5.7522 14.133,10.697 14.466,10.99 0.34487,0.30236 -0.49228,3.4581 -1.9441,7.3287 -1.4024,3.7387 -2.5877,6.7631 -2.634,6.7208 -0.0463,-0.0423 -9.5436,-7.2328 -21.105,-15.979 z"
         id="path4782" />
      <path
         transform="translate(52.53,151.15)"
         style="color:#000000;fill:#000000;stroke:#000000;stroke-linecap:round;stroke-linejoin:round"
         d="m 330.81,100.24 c -12.271,-8.9349 -22.893,-16.663 -23.604,-17.173 -1.2579,-0.90282 -1.2464,-0.99662 0.43222,-3.5332 1.9592,-2.9605 7.2014,-9.178 8.0037,-9.4928 0.60483,-0.2373 5.5681,3.3105 29.028,20.749 9.1105,6.7723 16.661,12.59 16.78,12.927 0.11831,0.33766 -0.97863,2.3772 -2.4377,4.5323 -1.459,2.1551 -3.1609,4.9071 -3.782,6.1157 -0.62108,1.2085 -1.3496,2.1798 -1.6189,2.1585 -0.26935,-0.0214 -10.53,-7.3492 -22.801,-16.284 z"
         id="path4784" />
      <path
         transform="translate(52.53,151.15)"
         style="color:#000000;fill:#000000;stroke:#000000;stroke-linecap:round;stroke-linejoin:round"
         d="m 483.42,272.06 c -5.1803,-3.1584 -3.9792,-7.706 5.8016,-21.966 7.1529,-10.429 9.1247,-17.631 6.5283,-23.845 -1.3297,-3.1825 -2.9236,-4.8655 -8.588,-9.0683 -2.51,-1.8623 -5.3537,-3.6719 -5.3537,-4.0212 0,-0.54042 7.0469,-10.964 8.4505,-12.609 0.25953,-0.30422 3.3954,2.6191 7.21,5.2894 3.8146,2.6703 12.352,8.4322 18.973,12.804 l 12.037,7.9491 -4.412,8.032 c -16.581,30.185 -30.904,43.376 -40.647,37.436 z"
         id="path4786" />
      <rect
         x="274.93338"
         y="238.16219"
         width="358.92865"
         height="4.7142854"
         ry="1.5794983"
         transform="matrix(0.78160112,0.62377855,-0.62583764,0.77995336,0,0)"
         style="color:#000000;fill:#000000;stroke:none;stroke-width:0.20078027;stroke-linecap:round;stroke-linejoin:round"
         id="rect2818" />
    </g>
  </g>
  <metadata
     id="metadata3407">
    <rdf:RDF>
      <cc:Work>
        <dc:format>image/svg+xml</dc:format>
        <dc:type
           rdf:resource="http://purl.org/dc/dcmitype/StillImage" />
        <cc:license
           rdf:resource="http://creativecommons.org/publicdomain/zero/1.0/" />
        <dc:publisher>
          <cc:Agent
             rdf:about="http://openclipart.org/">
            <dc:title>Openclipart</dc:title>
          </cc:Agent>
        </dc:publisher>
        <dc:title></dc:title>
        <dc:date>2010-05-25T14:01:00</dc:date>
        <dc:description>A checkered flag, used to mark the end of a car race, wavy version. Drawn in Inkscape.</dc:description>
        <dc:source>https://openclipart.org/detail/62779/wavy-checkered-flag-by-j_alves</dc:source>
        <dc:creator>
          <cc:Agent>
            <dc:title>J_Alves</dc:title>
          </cc:Agent>
        </dc:creator>
        <dc:subject>
          <rdf:Bag>
            <rdf:li>automotive</rdf:li>
            <rdf:li>car</rdf:li>
            <rdf:li>checkered</rdf:li>
            <rdf:li>finish</rdf:li>
            <rdf:li>flag</rdf:li>
            <rdf:li>race</rdf:li>
            <rdf:li>racing</rdf:li>
            <rdf:li>sports</rdf:li>
            <rdf:li>sports2010</rdf:li>
            <rdf:li>victory</rdf:li>
          </rdf:Bag>
        </dc:subject>
      </cc:Work>
      <cc:License
         rdf:about="http://creativecommons.org/publicdomain/zero/1.0/">
        <cc:permits
           rdf:resource="http://creativecommons.org/ns#Reproduction" />
        <cc:permits
           rdf:resource="http://creativecommons.org/ns#Distribution" />
        <cc:permits
           rdf:resource="http://creativecommons.org/ns#DerivativeWorks" />
      </cc:License>
    </rdf:RDF>
  </metadata>
</svg>
