<?xml version="1.0" encoding="UTF-8" standalone="no"?>
<!-- Created with Inkscape (http://www.inkscape.org/) -->

<svg
   xmlns:dc="http://purl.org/dc/elements/1.1/"
   xmlns:cc="http://creativecommons.org/ns#"
   xmlns:rdf="http://www.w3.org/1999/02/22-rdf-syntax-ns#"
   xmlns:svg="http://www.w3.org/2000/svg"
   xmlns="http://www.w3.org/2000/svg"
   xmlns:xlink="http://www.w3.org/1999/xlink"
   xmlns:sodipodi="http://sodipodi.sourceforge.net/DTD/sodipodi-0.dtd"
   xmlns:inkscape="http://www.inkscape.org/namespaces/inkscape"
   width="32"
   height="32"
   id="svg2"
   version="1.1"
   inkscape:version="0.48.4 r9939"
   sodipodi:docname="IconInfo.svg">
  <defs
     id="defs4">
    <linearGradient
       id="linearGradient3852">
      <stop
         style="stop-color:#000000;stop-opacity:1;"
         offset="0"
         id="stop3854" />
      <stop
         style="stop-color:#000080;stop-opacity:1;"
         offset="1"
         id="stop3856" />
    </linearGradient>
    <radialGradient
       inkscape:collect="always"
       xlink:href="#linearGradient3852"
       id="radialGradient3858"
       cx="16"
       cy="16"
       fx="16"
       fy="16"
       r="16"
       gradientUnits="userSpaceOnUse" />
  </defs>
  <sodipodi:namedview
     id="base"
     pagecolor="#ffffff"
     bordercolor="#666666"
     borderopacity="1.0"
     inkscape:pageopacity="0.0"
     inkscape:pageshadow="2"
     inkscape:zoom="17.03125"
     inkscape:cx="9.2183488"
     inkscape:cy="19.875229"
     inkscape:document-units="px"
     inkscape:current-layer="layer1"
     showgrid="false"
     inkscape:window-width="1366"
     inkscape:window-height="720"
     inkscape:window-x="-4"
     inkscape:window-y="-4"
     inkscape:window-maximized="1" />
  <metadata
     id="metadata7">
    <rdf:RDF>
      <cc:Work
         rdf:about="">
        <dc:format>image/svg+xml</dc:format>
        <dc:type
           rdf:resource="http://purl.org/dc/dcmitype/StillImage" />
        <dc:title></dc:title>
      </cc:Work>
    </rdf:RDF>
  </metadata>
  <g
     inkscape:label="Layer 1"
     inkscape:groupmode="layer"
     id="layer1"
     transform="translate(0,-1020.3622)">
    <path
       style="fill:url(#radialGradient3858);fill-opacity:1;stroke:none"
       d="M 16 0 C 7.1634442 8.2896653e-15 0 7.1634442 0 16 C -2.3684758e-15 24.836556 7.1634442 32 16 32 C 24.836556 32 32 24.836556 32 16 C 32 7.1634442 24.836556 -1.7763568e-15 16 0 z M 14 6.5 L 18 6.5 L 18 10.5 L 14 10.5 L 14 6.5 z M 12 12.46875 L 18 12.46875 L 18 21.1875 L 20 21.1875 L 20 25.1875 L 12 25.1875 L 12 21.1875 L 14 21.1875 L 14 16.46875 L 12 16.46875 L 12 12.46875 z "
       transform="translate(0,1020.3622)"
       id="path2987" />
  </g>
</svg>
