<?xml version="1.0" encoding="UTF-8" standalone="no"?>
<!-- Created with Inkscape (http://www.inkscape.org/) -->
<svg
   xmlns:dc="http://purl.org/dc/elements/1.1/"
   xmlns:cc="http://creativecommons.org/ns#"
   xmlns:rdf="http://www.w3.org/1999/02/22-rdf-syntax-ns#"
   xmlns:svg="http://www.w3.org/2000/svg"
   xmlns="http://www.w3.org/2000/svg"
   xmlns:sodipodi="http://sodipodi.sourceforge.net/DTD/sodipodi-0.dtd"
   xmlns:inkscape="http://www.inkscape.org/namespaces/inkscape"
   width="70.866135"
   height="35.433079"
   id="svg2"
   sodipodi:version="0.32"
   inkscape:version="0.46"
   version="1.0"
   sodipodi:docname="spring.svg"
   inkscape:output_extension="org.inkscape.output.svg.inkscape">
  <defs
     id="defs4">
    <inkscape:perspective
       sodipodi:type="inkscape:persp3d"
       inkscape:vp_x="0 : 526.18109 : 1"
       inkscape:vp_y="0 : 1000 : 0"
       inkscape:vp_z="744.09448 : 526.18109 : 1"
       inkscape:persp3d-origin="372.04724 : 350.78739 : 1"
       id="perspective10" />
    <inkscape:perspective
       id="perspective2447"
       inkscape:persp3d-origin="372.04724 : 350.78739 : 1"
       inkscape:vp_z="744.09448 : 526.18109 : 1"
       inkscape:vp_y="0 : 1000 : 0"
       inkscape:vp_x="0 : 526.18109 : 1"
       sodipodi:type="inkscape:persp3d" />
  </defs>
  <sodipodi:namedview
     id="base"
     pagecolor="#ffffff"
     bordercolor="#666666"
     borderopacity="1.0"
     gridtolerance="10000"
     guidetolerance="10"
     objecttolerance="10"
     inkscape:pageopacity="0.0"
     inkscape:pageshadow="2"
     inkscape:zoom="1.939613"
     inkscape:cx="191.53305"
     inkscape:cy="51.487759"
     inkscape:document-units="px"
     inkscape:current-layer="layer1"
     showgrid="false"
     inkscape:window-width="1200"
     inkscape:window-height="783"
     inkscape:window-x="72"
     inkscape:window-y="0"
     units="mm" />
  <metadata
     id="metadata7">
    <rdf:RDF>
      <cc:Work
         rdf:about="">
        <dc:format>image/svg+xml</dc:format>
        <dc:type
           rdf:resource="http://purl.org/dc/dcmitype/StillImage" />
        <dc:title>Spring</dc:title>
        <dc:date>Dec 18, 2010</dc:date>
        <dc:creator>
          <cc:Agent>
            <dc:title>Klaas van Gend</dc:title>
          </cc:Agent>
        </dc:creator>
        <dc:rights>
          <cc:Agent>
            <dc:title>PD</dc:title>
          </cc:Agent>
        </dc:rights>
        <dc:publisher>
          <cc:Agent>
            <dc:title>http://the-butterfly-effect.org/</dc:title>
          </cc:Agent>
        </dc:publisher>
        <cc:license
           rdf:resource="http://creativecommons.org/licenses/publicdomain/" />
      </cc:Work>
      <cc:License
         rdf:about="http://creativecommons.org/licenses/publicdomain/">
        <cc:permits
           rdf:resource="http://creativecommons.org/ns#Reproduction" />
        <cc:permits
           rdf:resource="http://creativecommons.org/ns#Distribution" />
        <cc:permits
           rdf:resource="http://creativecommons.org/ns#DerivativeWorks" />
      </cc:License>
    </rdf:RDF>
  </metadata>
  <g
     inkscape:label="Layer 1"
     inkscape:groupmode="layer"
     id="layer1"
     transform="translate(-125.05727,-201.72954)">
    <path
       style="fill:none;fill-rule:evenodd;stroke:#00d900;stroke-width:1.01260769;stroke-linecap:butt;stroke-linejoin:miter;stroke-miterlimit:4;stroke-dasharray:none;stroke-opacity:1"
       d="M 129.73322,209.37263 C 129.30314,206.97922 128.57722,202.94602 127.55676,203.13788 C 126.48924,203.3386 125.50058,214.52871 125.56672,220.17038 C 125.63082,225.63747 126.67777,236.64201 128.27924,236.44537 C 129.92798,236.24291 130.98831,224.84565 131.33751,219.27904 C 131.68673,213.71242 130.75611,203.0493 130.04275,203.06447 C 129.3768,203.07866 128.47711,214.45472 128.82229,219.98615 C 129.16792,225.52462 130.48143,236.3328 132.68238,236.08416 C 134.88331,235.83553 136.35312,222.9096 136.94318,217.2411 C 137.53325,211.57258 137.33904,202.25391 136.50997,202.23587 C 135.72826,202.21887 135.52061,211.09067 136.14638,217.34343 C 136.77215,223.59621 138.59925,236.47089 140.83253,236.2884 C 143.11318,236.10204 144.43613,222.62784 144.92044,217.8303 C 145.40473,213.03276 145.56705,202.89041 144.89411,202.86273 C 144.26851,202.83702 143.76511,211.0329 144.46744,216.67336 C 145.16976,222.31383 146.75516,236.30097 148.93048,236.187 C 151.10621,236.073 152.44776,221.76214 153.06452,216.24227 C 153.6813,210.7224 153.14813,202.82808 152.83174,202.88831 C 152.46829,202.95749 151.92283,210.56314 152.59722,216.22153 C 153.2716,221.87991 154.02719,236.23922 157.00744,236.02562 C 159.98768,235.81202 160.47055,223.22971 161.06533,216.62679 C 161.66172,210.0059 161.35275,203.18011 161.06698,203.4152 C 160.71201,203.70719 160.34462,210.26442 161.05047,215.85976 C 161.75631,221.45511 162.40767,236.6375 165.24326,236.27447 C 168.17338,235.89933 168.44866,221.65867 169.50627,212.51538 C 169.76098,210.31342 169.29291,202.94846 169.239,202.95152 C 169.18478,202.95459 168.68806,207.56928 168.94815,209.77197 C 170.03879,219.00846 169.99725,236.4598 173.46651,236.36389 C 176.84097,236.2706 178.74516,202.89243 177.41972,203.03389 C 176.09429,203.17536 178.18124,236.8968 181.56246,236.45109 C 184.94367,236.0054 186.71783,205.68655 185.79516,203.11469 C 185.06851,201.08919 186.8309,236.64465 189.35118,236.37669 C 191.82414,236.11375 192.12338,225.09626 192.79457,216.65019 C 193.04266,213.52829 192.52473,203.14442 192.40476,202.37214 C 192.2751,201.53745 191.58017,211.72642 191.84692,216.56771 C 192.21943,223.32848 192.71006,236.80302 194.07701,236.65511 C 195.32277,236.52031 195.36559,223.15706 195.41346,216.16741 C 195.44366,211.75932 195.29747,204.60047 194.55675,202.98509 C 193.98419,201.73642 193.37759,203.53159 192.89336,208.59236"
       id="path2461"
       sodipodi:nodetypes="czszzzzzzzzzzzzzzzzzzszzssszzzszsssssss" />
  </g>
</svg>
