<?xml version="1.0" encoding="UTF-8" standalone="no"?>
<!-- Created with Inkscape (http://www.inkscape.org/) -->

<svg
   xmlns:dc="http://purl.org/dc/elements/1.1/"
   xmlns:cc="http://creativecommons.org/ns#"
   xmlns:rdf="http://www.w3.org/1999/02/22-rdf-syntax-ns#"
   xmlns:svg="http://www.w3.org/2000/svg"
   xmlns="http://www.w3.org/2000/svg"
   xmlns:xlink="http://www.w3.org/1999/xlink"
   xmlns:sodipodi="http://sodipodi.sourceforge.net/DTD/sodipodi-0.dtd"
   xmlns:inkscape="http://www.inkscape.org/namespaces/inkscape"
   id="svg3716"
   sodipodi:docname="birch_bar.svg"
   inkscape:export-filename="/DTP opdrachten/Affiche Herfstactiviteit/Werkmateriaal/plankje licht.png"
   viewBox="0 0 1719.9998 654.99997"
   inkscape:export-xdpi="1033.2246"
   version="1.1"
   inkscape:export-ydpi="1033.2246"
   inkscape:version="0.91 r13725"
   width="1719.9998"
   height="654.99994">
  <defs
     id="defs3718">
    <linearGradient
       id="linearGradient15083">
      <stop
         offset="0"
         style="stop-color:#eed19e;stop-opacity:1"
         id="stop15085" />
      <stop
         offset="1"
         style="stop-color:#dbba83;stop-opacity:1"
         id="stop15087" />
    </linearGradient>
    <radialGradient
       inkscape:collect="always"
       xlink:href="#linearGradient15083"
       id="radialGradient14648"
       gradientUnits="userSpaceOnUse"
       gradientTransform="matrix(-0.83137283,5.9323083,-18.809793,-2.6884718,20251.805,-3082.8491)"
       cx="951.26935"
       cy="961.41724"
       r="54.688"
       fx="951.26935"
       fy="961.41724"
       spreadMethod="reflect" />
  </defs>
  <sodipodi:namedview
     id="base"
     bordercolor="#666666"
     inkscape:pageshadow="2"
     inkscape:window-y="31"
     fit-margin-left="0"
     pagecolor="#ffffff"
     fit-margin-top="0"
     inkscape:window-maximized="1"
     inkscape:zoom="0.14778822"
     inkscape:window-x="0"
     inkscape:window-height="1024"
     showgrid="false"
     borderopacity="1.0"
     inkscape:current-layer="g15160"
     inkscape:cx="1031.9348"
     inkscape:cy="-314.96995"
     fit-margin-right="0"
     fit-margin-bottom="0"
     inkscape:window-width="1920"
     inkscape:pageopacity="0.0"
     inkscape:document-units="px"
     showguides="true" />
  <g
     id="layer1"
     inkscape:label="Ebene 1"
     inkscape:groupmode="layer"
     transform="translate(-487.67525,384.33497)">
    <path
       id="rect3077"
       sodipodi:nodetypes="ccccc"
       style="color:#000000;opacity:1;fill:url(#radialGradient14648)"
       inkscape:connector-curvature="0"
       d="m 2207.5891,-384.33497 0.086,654.99997 -1719.99991,0 1.1e-4,-654.99997 z" />
    <path
       d="m 491.70694,-179.749 c 0.53305,0.51427 0.0666,-0.56103 0,0 z"
       inkscape:connector-curvature="0"
       style="fill:#b3793b;fill-opacity:0.34553001"
       id="path3244" />
    <path
       d="m 491.70684,147.46264 c 0.53305,0.48044 0.0666,-0.52412 0,0 z"
       inkscape:connector-curvature="0"
       style="fill:#b3793b;fill-opacity:0.34553001"
       id="path3244-7" />
    <g
       id="g15160"
       transform="matrix(1,0,0,1.6834316,0,262.97073)">
      <path
         id="path3256"
         style="fill:#b3793b;fill-opacity:0.34553001"
         inkscape:connector-curvature="0"
         d="m 485.95515,-384.62458 c -4.26412,2.92002 -2.27418,7.86469 3.76665,9.61666 6.60947,2.14143 13.92962,3.62089 20.89442,5.41186 7.32022,1.71308 14.49818,3.69872 21.96046,5.21718 7.88871,1.168 16.1327,1.75202 24.23463,2.41389 26.01142,1.40162 52.16497,2.2971 78.24735,3.0758 24.8032,0.85654 49.60639,1.63524 74.48069,1.98564 40.4385,0.73971 80.94803,1.5963 121.38647,1.90771 44.91584,0.35064 89.83161,0.70086 134.74752,1.01232 29.06738,-0.15568 58.13466,-0.31137 87.20206,-0.23329 158.9822,-0.0781 317.8932,-0.19496 476.8754,-0.23376 101.0607,0.31137 202.1212,0.62297 303.1818,0.97337 70.0745,1.05122 140.0778,2.18032 210.0811,2.92003 48.185,0.73975 96.299,1.44056 144.4129,2.18032 6.2541,0.19495 12.6503,0.85658 18.9044,0.23376 6.4674,-0.23376 9.9498,-4.39954 7.7466,-7.55318 -4.3353,-3.73767 -13.29,-3.30943 -20.3259,-3.46516 -25.7271,-0.46705 -51.4541,0.15569 -77.1813,0.11688 -60.2667,0.23376 -120.5336,0.62297 -180.8004,0.70081 -46.0529,0.11688 -92.1059,0.19496 -138.1588,-0.0776 -210.6496,-0.77875 -421.2991,-1.44057 -631.9487,-2.18032 -125.2953,-0.42825 -250.59056,-0.85659 -375.81478,-1.28488 -39.65672,-0.70077 -79.24227,-1.47947 -118.82797,-2.33601 -18.76229,-1.01227 -37.52459,-1.79097 -56.14476,-3.23153 -21.60511,-1.36272 -43.21016,-2.80324 -64.67314,-4.711 -8.45728,-0.66191 -16.91449,-1.55739 -25.37176,-2.37499 -4.40631,-1.01232 -8.88358,-2.06353 -13.71633,-2.18032 0.9239,0.42825 -0.78178,1.55735 -0.92397,0.46705 -7.53331,-2.95897 -15.56414,-5.56753 -23.09751,-8.52655 l -0.63966,0 -0.49707,0.15568 z" />
      <path
         id="path3254"
         style="fill:#b3793b;fill-opacity:0.34553001"
         inkscape:connector-curvature="0"
         d="m 2200.9926,-342.91292 c -69.163,0.65453 -138.3926,1.40256 -207.5556,2.01033 -15.1253,-0.23376 -30.2505,-0.42077 -45.3758,-0.14026 -16.1913,0.0935 -32.3826,-0.0935 -48.5074,-0.28051 -148.3872,0 -296.7745,-0.0468 -445.1618,0 -211.4203,1.1688 -422.9071,2.3376 -634.32737,3.50639 -84.15499,-1.02854 -168.30997,-1.91682 -252.46495,-2.99212 l -43.3768,-0.98178 c -1.26599,1.12204 0.26652,4.30116 -3.13166,3.55314 -8.86192,1.30905 -17.92374,1.91682 -26.8523,2.89861 -4.33102,1.3558 -10.46107,-1.1688 -13.79262,1.44931 -2.06556,3.59989 4.53091,6.35825 8.92855,4.95569 8.86193,-0.37401 17.72386,-0.79478 26.58578,-0.46752 19.38963,0.32727 38.77926,0.18701 58.16889,-0.0935 11.59379,-0.0935 23.12096,-0.23376 34.64813,0.0935 63.63263,1.21555 127.19862,1.77657 190.76462,2.61811 64.56546,0.74802 129.13093,1.49605 193.76302,2.19733 20.05591,0.14026 40.17851,0.46752 60.30111,0.23376 19.323,-0.14025 38.7126,-0.60777 58.0356,-0.65452 256.9292,-2.19734 513.7918,-4.44143 770.6544,-6.59201 92.3506,-0.74803 184.7012,-1.54281 277.0518,-2.29084 12.5933,0.37401 25.1199,0.93503 37.6465,1.30905 5.4638,0.14025 13.5261,-2.99212 11.1274,-7.43354 -1.1327,-1.87008 -4.0645,-3.64665 -7.1295,-2.89862 z" />
      <path
         id="path3252"
         style="fill:#b3793b;fill-opacity:0.34553001"
         inkscape:connector-curvature="0"
         d="m 2198.5273,-322.48237 c -273.3205,3.17913 -546.641,6.40501 -819.9614,9.58413 -256.0631,2.57135 -512.12608,5.09595 -768.18911,7.6673 -5.13059,2.99212 -12.12684,2.89862 -18.39016,3.59989 -13.72599,1.63632 -27.58524,2.4311 -41.37786,3.55314 -19.85605,1.58957 -39.77873,3.08563 -59.7014,4.53493 -4.86407,-0.18701 -10.19455,1.12205 -12.92642,4.06741 19.72278,1.02854 39.5122,2.01033 59.30161,2.66486 36.71369,0.187 73.42739,0.23376 110.14108,0.70127 11.19401,-0.0467 22.3214,-0.56102 33.44878,-0.60777 47.97433,-0.70128 95.94867,-1.91682 143.92301,-2.5246 136.32707,-2.05708 272.58747,-4.16091 408.91457,-6.03099 227.1452,-3.22587 454.357,-6.21799 681.5021,-9.35036 81.2899,-1.12205 162.5797,-2.15059 243.8696,-3.31938 14.5922,-0.28051 29.1844,-0.56103 43.7766,-1.2623 6.3965,-0.56103 12.1268,-5.79723 7.5959,-9.86464 -2.5986,-2.6181 -7.4627,-3.92716 -11.9269,-3.41289 z" />
      <path
         id="path3250"
         style="fill:#b3793b;fill-opacity:0.34553001"
         inkscape:connector-curvature="0"
         d="m 2006.4966,-268.71775 c -237.0065,2.10383 -474.0131,4.20766 -711.0196,6.26474 -118.5366,-1.30905 -237.1398,-2.7116 -355.67642,-4.02065 -20.12257,-0.14026 -40.24514,-0.37402 -60.36771,-0.46752 -97.2813,2.99212 -194.56259,5.89073 -291.84389,8.88285 -26.18599,0.98179 -52.37198,1.82332 -78.49134,3.41288 -7.92909,0.60778 -15.92482,1.21555 -23.85391,1.87007 -6.13005,0.98179 -9.79476,6.26475 -6.86299,10.19191 3.19828,4.11416 10.46107,3.50638 15.99144,2.75835 9.72813,-0.79478 19.58952,-0.79478 29.38428,-1.12204 11.99359,0.14026 23.98717,0.51427 35.98076,0.51427 140.39156,-2.01033 280.7165,-4.06741 421.10807,-6.03099 200.82591,-2.29084 401.58521,-4.62843 602.41111,-6.87252 153.1847,-1.63631 306.3028,-3.22587 459.4875,-4.86219 25.7862,1.30905 51.6391,2.4311 77.3586,4.11416 18.1237,1.12205 36.1807,2.57135 54.2377,3.97391 7.2628,0.60777 14.5922,1.12204 21.7217,2.15058 5.7969,1.02854 14.5256,-0.56102 14.4589,-5.70372 0.9329,-4.11416 -4.1977,-7.80756 -9.6615,-8.69584 -6.1966,-0.93504 -12.5932,-0.93504 -18.8565,-1.30905 -26.5192,-1.02854 -53.105,-2.19734 -79.6241,-2.89862 -26.7857,-0.74803 -53.638,-1.63631 -80.4237,-2.29084 -5.1306,-0.0468 -10.2611,0.0935 -15.4584,0.14026 z" />
      <path
         id="path3248"
         style="fill:#b3793b;fill-opacity:0.34553001"
         inkscape:connector-curvature="0"
         d="m 1593.3843,-231.92406 c -332.4888,6.17125 -665.04426,12.34249 -997.53307,18.42023 -8.52877,0.46752 -17.25743,0.79478 -25.65294,-0.56102 -13.59273,-2.19734 -27.58525,-2.3376 -41.4445,-2.80511 -7.39604,-0.14026 -14.85872,0.46751 -22.05487,1.77657 -7.46267,0.56102 -15.12524,0.37401 -22.52129,1.3558 -3.26492,0.46752 -4.46427,3.17912 -4.93069,5.18945 13.85925,-0.0935 27.7185,-0.23376 41.57776,-0.0468 24.78674,1.40256 49.57348,1.82332 74.36022,2.71161 10.46107,0.0935 20.92214,0.42076 31.38321,0.56102 10.59434,-0.14026 21.12204,-0.37401 31.71637,-0.28051 13.65936,0.0468 27.31872,-0.0468 40.97808,-0.32726 26.11936,-0.46752 52.30535,-0.46752 78.42471,-0.88829 219.94902,-2.66485 439.83141,-5.32971 659.71381,-7.94781 92.0174,-0.93504 184.0349,-1.96358 275.9857,-2.85186 122.7343,-0.79478 245.402,-1.54281 368.0697,-2.33759 9.8614,-0.14026 19.7228,-0.51428 29.5842,0.0468 28.9845,0.46752 57.9024,0.98179 86.8202,1.4493 4.9307,-0.32726 10.7276,-0.42076 14.3923,2.3376 -0.6663,-4.48818 -5.9968,-8.50884 -12.5266,-8.92961 -50.0399,-1.16879 -100.1464,-2.38434 -150.253,-3.50638 -70.0958,-0.84154 -140.2583,-1.2623 -210.3541,-1.87008 -73.2941,-0.60777 -146.5216,-1.21554 -219.8157,-1.77657 -8.6621,-0.0468 -17.2575,0.0935 -25.9195,0.28051 z" />
      <path
         id="path3246"
         style="fill:#b3793b;fill-opacity:0.34553001"
         inkscape:connector-curvature="0"
         d="m 484.44416,-190.40842 c -3.06503,3.83365 -3.19829,8.41533 -4.19776,12.66974 -0.99946,4.02066 4.26439,8.41534 10.19455,7.99457 6.46321,-0.23376 12.46,-2.24409 18.92321,-2.5246 16.85765,-1.68307 33.84856,-2.80511 50.83947,-4.02066 12.06022,-0.65452 24.18706,-1.44931 36.31391,-1.63631 9.32834,-0.23376 18.65669,-0.46752 27.98503,-0.18701 93.68322,1.40256 187.29981,2.89861 280.98303,4.30117 150.253,1.68307 300.5059,3.45964 450.6922,5.09595 18.3902,0.14026 36.7804,0.51427 55.1705,0.65453 120.3357,-1.0753 240.6047,-2.15059 360.9403,-3.22588 119.2029,1.07529 238.4724,2.15058 357.742,3.22588 7.1961,0.93503 14.4589,1.91682 21.4551,3.64664 8.5288,1.77657 16.9243,4.44142 25.9861,4.53493 7.7292,-0.18701 15.3252,-1.40256 22.9211,-2.33759 6.1301,-1.12205 11.6604,-5.09596 10.7942,-9.77114 -1.4658,-4.67518 -8.9285,-6.82577 -15.1918,-6.45175 -6.7964,0.42076 -13.5928,0.93503 -20.3891,0.28051 -20.6556,-1.30905 -41.3113,-2.89862 -62.0335,-3.45964 -15.0586,-0.74803 -30.1172,-0.60777 -45.1758,-0.88828 -139.4588,-0.37402 -278.8509,-0.79478 -418.3096,-1.1688 -56.0367,0.42077 -112.0734,0.88829 -168.0435,1.30905 -15.9914,0.70128 -31.9828,0.60778 -47.9077,0.88829 -64.9652,0.60777 -129.9305,1.02854 -194.8957,1.87007 -25.9861,0.0935 -51.9056,0.23376 -77.825,0.28051 -189.83183,-3.59989 -379.59698,-7.29328 -569.42877,-10.84642 -35.11455,-0.56103 -70.16247,-1.12205 -105.27702,-1.68307 -0.73294,0.46752 -1.53251,0.98179 -2.26545,1.44931 z m -8.12899,31.13672 c -1.39925,0.65453 0.79958,0.42077 0.59968,-0.18701 l -0.59968,0.18701 z" />
      <path
         id="path3223"
         style="fill:#b3793b;fill-opacity:0.34553001"
         inkscape:connector-curvature="0"
         d="m 551.27508,-153.75498 c -22.1215,0.60777 -44.10974,2.33759 -66.03135,4.39467 -0.79957,7.6673 10.19455,6.87252 17.52396,5.28296 28.38482,-2.47785 56.96953,-4.06741 85.62087,-3.17913 120.9353,1.02854 241.67072,4.86219 362.5394,7.15303 132.72904,2.61811 265.45804,5.09595 398.18704,4.76869 127.5317,-0.28051 255.0635,-1.40255 382.5953,-2.85186 92.6838,-0.88829 185.3675,-0.60777 278.0513,1.54281 55.8368,1.12204 111.6736,1.82332 167.5104,0.88829 8.1956,-2.19734 23.1876,2.10383 27.252,-0.88829 -7.2627,-5.56347 -19.323,-1.44931 -28.6513,-2.10383 -73.9604,2.10383 -147.9209,-1.35581 -221.8813,-2.5246 -111.1406,-2.24409 -222.3477,-1.07529 -333.4883,-0.18701 -130.197,0.60778 -260.3274,-0.37401 -390.4578,-2.71161 -197.0946,-3.08562 -394.25575,-6.26474 -591.41695,-9.0231 -29.11776,-0.0468 -58.23552,-1.02854 -87.35327,-0.56102 z m -66.43114,3.9739 c 0.86621,-0.65452 -0.53304,-2.05708 0,0 z" />
      <path
         id="path3258"
         sodipodi:nodetypes="ccccccccccccc"
         style="fill:#b3793b;fill-opacity:0.34553001"
         inkscape:connector-curvature="0"
         d="m 2187.4665,-114.7172 c -103.9444,3.50639 -208.0221,2.66486 -311.9665,4.16092 -281.1829,2.80511 -562.3658,4.72193 -843.5487,5.98423 -69.16302,0.0468 -138.39265,0.98179 -207.48903,0.18701 -91.01798,-1.68307 -181.90269,-6.07774 -272.85404,-8.78935 -21.12203,-0.28051 -42.3107,0.14026 -63.43273,-0.23376 2.83175,0.0842 -0.93497,22.503113 1.86566,23.703186 10.12792,3.272629 20.92215,-1.215548 31.38322,-0.233759 90.88471,-1.963578 181.90269,-0.140256 272.78741,-1.215548 454.15701,-2.103833 908.31411,-4.394673 1362.47121,-5.890732 15.4584,0.140256 30.9834,0.233759 46.3752,0.888285 9.928,-0.701277 15.2585,-10.332152 7.5293,-15.054092 -5.9302,-4.39467 -15.3252,-3.59989 -23.121,-3.50639 z" />
      <path
         id="path3260"
         inkscape:connector-curvature="0"
         sodipodi:nodetypes="cccccccccccccccc"
         style="fill:#b3793b;fill-opacity:0.34553001"
         d="m 2209.3215,-71.191236 c -17.9904,0.467518 -36.0474,0.233759 -54.1044,0.561022 -207.1559,1.729818 -414.2451,3.412884 -621.3343,5.142702 -10.9941,-2.898614 -22.6546,-0.420767 -33.9818,-0.748029 -29.984,-0.280511 -59.968,0.187007 -89.9519,0.140255 -219.2827,1.168796 -438.56542,2.384344 -657.91475,3.506388 -25.9861,-0.467518 -51.9722,-0.0935 -78.02493,0.04675 -63.09958,1.075292 -126.26579,1.636314 -189.36537,2.150584 -2.19882,2.945366 -1.0661,9.350368 3.13166,9.817886 7.86246,-0.748029 16.3246,0 24.45359,-0.04675 155.45017,0.327263 310.90035,-0.935036 466.41716,-1.496058 84.75464,-0.327263 169.57594,-1.122045 254.33064,-1.542811 207.4224,-1.215548 414.8447,-2.571351 622.3337,-3.740147 18.2569,-0.187007 36.5805,-0.04675 54.904,0.327263 56.6364,0.561022 113.3394,1.215548 169.9758,2.431095 33.7819,0.654526 67.5638,1.028541 101.2791,2.431096 8.662,-0.233759 16.9909,1.823322 25.5863,2.197336 8.5288,-1.916825 1.999,-9.724382 6.9963,-13.604785 1.9989,-2.80511 1.9989,-8.742593 -4.7308,-7.573797 z" />
      <path
         id="path3256-6"
         style="fill:#b3793b;fill-opacity:0.34553001"
         inkscape:connector-curvature="0"
         d="m 485.95505,-43.936714 c -4.26412,2.727954 -2.27418,7.347368 3.76665,8.984105 6.60947,2.000564 13.92962,3.38271 20.89442,5.055874 7.32022,1.600398 14.49818,3.455431 21.96046,4.874004 7.88871,1.091173 16.1327,1.636781 24.23463,2.255111 26.01142,1.309425 52.16497,2.146007 78.24735,2.873485 24.8032,0.800199 49.60639,1.527677 74.48069,1.855033 40.4385,0.691051 80.94803,1.491294 121.38647,1.782224 44.91584,0.327575 89.83161,0.654756 134.74752,0.94573 29.06738,-0.145443 58.13466,-0.290887 87.20206,-0.217947 158.9822,-0.07294 317.8932,-0.182131 476.8754,-0.218383 101.0607,0.290887 202.1212,0.581991 303.1818,0.909347 70.0745,0.982069 140.0778,2.036903 210.0811,2.727954 48.185,0.691095 96.299,1.345808 144.4129,2.036903 6.2541,0.1821315 12.6503,0.8002429 18.9044,0.218383 6.4674,-0.218383 9.9498,-4.110144 7.7466,-7.05635 -4.3353,-3.491814 -13.29,-3.091737 -20.3259,-3.237223 -25.7271,-0.43633 -51.4541,0.145443 -77.1813,0.109191 -60.2667,0.218383 -120.5336,0.581991 -180.8004,0.654713 -46.0529,0.109191 -92.1059,0.182131 -138.1588,-0.0725 -210.6496,-0.727521 -421.2991,-1.345807 -631.9487,-2.036902 -125.2953,-0.400078 -250.59056,-0.800243 -375.81478,-1.200364 -39.65672,-0.654669 -79.24227,-1.382147 -118.82797,-2.182346 -18.76229,-0.945686 -37.52459,-1.673164 -56.14476,-3.018971 -21.60511,-1.273086 -43.21016,-2.61885 -64.67314,-4.401118 -8.45728,-0.618374 -16.91449,-1.454955 -25.37176,-2.218772 -4.40631,-0.94573 -8.88358,-1.927798 -13.71633,-2.036903 0.9239,0.400078 -0.78178,1.454912 -0.92397,0.43633 -7.53331,-2.764337 -15.56414,-5.201317 -23.09751,-7.965697 l -0.63966,0 -0.49707,0.145443 z" />
      <path
         id="path3254-1"
         style="fill:#b3793b;fill-opacity:0.34553001"
         inkscape:connector-curvature="0"
         d="m 2200.9925,-4.9687445 c -69.163,0.6114726 -138.3926,1.3102985 -207.5556,1.8780944 -15.1253,-0.218383 -30.2505,-0.3930895 -45.3758,-0.1310298 -16.1913,0.087353 -32.3826,-0.087353 -48.5074,-0.2620597 -148.3872,0 -296.7745,-0.043677 -445.1618,0 -211.4203,1.0919154 -422.9071,2.1838307 -634.32737,3.27574606 C 735.90954,-1.168879 651.75456,-1.9987347 567.59958,-3.0032968 l -43.3768,-0.9172089 c -1.26599,1.0482387 0.26652,4.01824846 -3.13166,3.31942263 -8.86192,1.22294519 -17.92374,1.79074117 -26.8523,2.70795007 -4.33102,1.2666218 -10.46107,-1.0919153 -13.79262,1.353975 -2.06556,3.3630993 4.53091,5.9400195 8.92855,4.6297211 8.86193,-0.3494129 17.72386,-0.7425024 26.58578,-0.4367661 19.38963,0.3057363 38.77926,0.1747064 58.16889,-0.087353 11.59379,-0.087353 23.12096,-0.218383 34.64813,0.087353 63.63263,1.1355919 127.19862,1.6597113 190.76462,2.44589 64.56546,0.698826 129.13093,1.397652 193.76302,2.052801 20.05591,0.13103 40.17851,0.436766 60.30111,0.218383 19.323,-0.13103 38.7126,-0.567796 58.0356,-0.611472 256.9292,-2.0528012 513.7918,-4.1492786 770.6544,-6.1584029 92.3506,-0.6988258 184.7012,-1.4413282 277.0518,-2.1401541 12.5933,0.3494129 25.1199,0.8735323 37.6465,1.2229452 5.4638,0.1310299 13.5261,-2.7953033 11.1274,-6.9445816 -1.1327,-1.7470646 -4.0645,-3.4067759 -7.1295,-2.7079501 z" />
    </g>
  </g>
  <metadata
     id="metadata14104">
    <rdf:RDF>
      <cc:Work>
        <dc:format>image/svg+xml</dc:format>
        <dc:type
           rdf:resource="http://purl.org/dc/dcmitype/StillImage" />
        <cc:license
           rdf:resource="http://creativecommons.org/publicdomain/zero/1.0/" />
        <dc:publisher>
          <cc:Agent
             rdf:about="http://openclipart.org/">
            <dc:title>Openclipart</dc:title>
          </cc:Agent>
        </dc:publisher>
        <dc:title></dc:title>
        <dc:date>2011-10-04T16:55:38</dc:date>
        <dc:description>A light plank</dc:description>
        <dc:source>https://openclipart.org/detail/162781/wooden-plank-light-by-rdevries</dc:source>
        <dc:creator>
          <cc:Agent>
            <dc:title>rdevries</dc:title>
          </cc:Agent>
        </dc:creator>
        <dc:subject>
          <rdf:Bag>
            <rdf:li>light</rdf:li>
            <rdf:li>light plank</rdf:li>
            <rdf:li>light wood</rdf:li>
            <rdf:li>pattern</rdf:li>
            <rdf:li>plank</rdf:li>
            <rdf:li>structure</rdf:li>
            <rdf:li>wood</rdf:li>
            <rdf:li>wood structure</rdf:li>
            <rdf:li>wooden plank</rdf:li>
          </rdf:Bag>
        </dc:subject>
      </cc:Work>
      <cc:License
         rdf:about="http://creativecommons.org/publicdomain/zero/1.0/">
        <cc:permits
           rdf:resource="http://creativecommons.org/ns#Reproduction" />
        <cc:permits
           rdf:resource="http://creativecommons.org/ns#Distribution" />
        <cc:permits
           rdf:resource="http://creativecommons.org/ns#DerivativeWorks" />
      </cc:License>
    </rdf:RDF>
  </metadata>
</svg>
