<svg version="1.1" xmlns="http://www.w3.org/2000/svg" xmlns:xlink="http://www.w3.org/1999/xlink" width="764" height="539"><defs></defs><g><g transform="translate(-14,-86) scale(1,1)"><path fill="#C0C0C0" stroke="none" d="M 105 103 L 437 103 Q 447 103 447 113 L 447 381 Q 447 391 437 391 L 105 391 Q 95 391 95 381 L 95 113 Q 95 103 105 103 Z" opacity="0.2"></path></g><g transform="translate(-14,-86) scale(1,1)"><path fill="#ffffff" stroke="none" d="M 98 96 L 430 96 Q 440 96 440 106 L 440 374 Q 440 384 430 384 L 98 384 Q 88 384 88 374 L 88 106 Q 88 96 98 96 Z"></path></g><g transform="translate(-14,-86) scale(1,1)"><path fill="none" stroke="#000000" d="M 98 96 L 430 96 Q 440 96 440 106 L 440 374 Q 440 384 430 384 L 98 384 Q 88 384 88 374 L 88 106 Q 88 96 98 96 Z" stroke-miterlimit="10"></path></g><g transform="translate(-14,-86) scale(1,1)"><path fill="none" stroke="#000000" d="M 88 121 L 440 121" stroke-miterlimit="10"></path></g><g transform="translate(-14,-86) scale(1,1)"><path fill="none" stroke="#000000" d="M 88 189 L 440 189" stroke-miterlimit="10"></path></g><g transform="translate(-14,-86) scale(1,1)"><g><path fill="none" stroke="none"></path><text fill="#000000" stroke="none" font-family="Arial" font-size="13px" font-style="normal" font-weight="bold" text-decoration="none" x="225" y="115.5">RunningState</text></g></g><g transform="translate(-14,-86) scale(1,1)"><g><path fill="none" stroke="none"></path><text fill="#000000" stroke="none" font-family="Arial" font-size="13px" font-style="normal" font-weight="normal" text-decoration="none" x="93" y="138.5">do/AnyControls</text></g></g><g transform="translate(-14,-86) scale(1,1)"><g><path fill="none" stroke="none"></path><text fill="#000000" stroke="none" font-family="Arial" font-size="13px" font-style="normal" font-weight="normal" text-decoration="none" x="93" y="153.5">exit/FailEvent</text></g></g><g transform="translate(-14,-86) scale(1,1)"><g><path fill="none" stroke="none"></path><text fill="#000000" stroke="none" font-family="Arial" font-size="13px" font-style="normal" font-weight="normal" text-decoration="none" x="93" y="168.5">exit/WonEvent</text></g></g><g transform="translate(-14,-86) scale(1,1)"><g><path fill="none" stroke="none"></path><text fill="#000000" stroke="none" font-family="Arial" font-size="13px" font-style="normal" font-weight="normal" text-decoration="none" x="93" y="183.5">exit/ResetEvent</text></g></g><g transform="translate(-14,-86) scale(1,1)"><path fill="#C0C0C0" stroke="none" d="M 617 503 L 698 503 Q 708 503 708 513 L 708 540 Q 708 550 698 550 L 617 550 Q 607 550 607 540 L 607 513 Q 607 503 617 503 Z" opacity="0.2"></path></g><g transform="translate(-14,-86) scale(1,1)"><path fill="#ffffff" stroke="none" d="M 610 496 L 691 496 Q 701 496 701 506 L 701 533 Q 701 543 691 543 L 610 543 Q 600 543 600 533 L 600 506 Q 600 496 610 496 Z"></path></g><g transform="translate(-14,-86) scale(1,1)"><path fill="none" stroke="#000000" d="M 610 496 L 691 496 Q 701 496 701 506 L 701 533 Q 701 543 691 543 L 610 543 Q 600 543 600 533 L 600 506 Q 600 496 610 496 Z" stroke-miterlimit="10"></path></g><g transform="translate(-14,-86) scale(1,1)"><path fill="none" stroke="#000000" d="M 600 521 L 701 521" stroke-miterlimit="10"></path></g><g transform="translate(-14,-86) scale(1,1)"><g><path fill="none" stroke="none"></path><text fill="#000000" stroke="none" font-family="Arial" font-size="13px" font-style="normal" font-weight="bold" text-decoration="none" x="617.5" y="515.5">FailedState</text></g></g><g transform="translate(-14,-86) scale(1,1)"><g><path fill="none" stroke="none"></path><text fill="#000000" stroke="none" font-family="Arial" font-size="13px" font-style="normal" font-weight="normal" text-decoration="none" x="605" y="538.5">exit/ResetEvent</text></g></g><g transform="translate(-14,-86) scale(1,1)"><path fill="#C0C0C0" stroke="none" d="M 617 143 L 765 143 Q 775 143 775 153 L 775 349 Q 775 359 765 359 L 617 359 Q 607 359 607 349 L 607 153 Q 607 143 617 143 Z" opacity="0.2"></path></g><g transform="translate(-14,-86) scale(1,1)"><path fill="#ffffff" stroke="none" d="M 610 136 L 758 136 Q 768 136 768 146 L 768 342 Q 768 352 758 352 L 610 352 Q 600 352 600 342 L 600 146 Q 600 136 610 136 Z"></path></g><g transform="translate(-14,-86) scale(1,1)"><path fill="none" stroke="#000000" d="M 610 136 L 758 136 Q 768 136 768 146 L 768 342 Q 768 352 758 352 L 610 352 Q 600 352 600 342 L 600 146 Q 600 136 610 136 Z" stroke-miterlimit="10"></path></g><g transform="translate(-14,-86) scale(1,1)"><path fill="none" stroke="#000000" d="M 600 176 L 768 176" stroke-miterlimit="10"></path></g><g transform="translate(-14,-86) scale(1,1)"><g><path fill="none" stroke="none"></path><text fill="#000000" stroke="none" font-family="Arial" font-size="13px" font-style="normal" font-weight="bold" text-decoration="none" x="655" y="155.5">WonState</text></g></g><g transform="translate(-14,-86) scale(1,1)"><g><path fill="none" stroke="none"></path><text fill="#000000" stroke="none" font-family="Arial" font-size="13px" font-style="normal" font-weight="normal" text-decoration="none" x="665.5" y="170.5">(from )</text></g></g><g transform="translate(-14,-86) scale(1,1)"><path fill="none" stroke="#000000" d="M 678 248 L 681 295" stroke-miterlimit="10"></path></g><g transform="translate(-14,-86) scale(1,1)"><path fill="none" stroke="#000000" d="M 676.1516674699579 285.12611162316813 L 681 295 L 684.5536046184968 284.58981776262306" stroke-miterlimit="10"></path></g><g transform="translate(-14,-86) scale(1,1)"><g><path fill="none" stroke="none"></path><text fill="#000000" stroke="none" font-family="Arial" font-size="13px" font-style="normal" font-weight="normal" text-decoration="none" x="672" y="276">timeout</text></g></g><g transform="translate(-14,-86) scale(1,1)"><path fill="#C0C0C0" stroke="none" d="M 129 455 L 397 455 Q 407 455 407 465 L 407 589 Q 407 599 397 599 L 129 599 Q 119 599 119 589 L 119 465 Q 119 455 129 455 Z" opacity="0.2"></path></g><g transform="translate(-14,-86) scale(1,1)"><path fill="#ffffff" stroke="none" d="M 122 448 L 390 448 Q 400 448 400 458 L 400 582 Q 400 592 390 592 L 122 592 Q 112 592 112 582 L 112 458 Q 112 448 122 448 Z"></path></g><g transform="translate(-14,-86) scale(1,1)"><path fill="none" stroke="#000000" d="M 122 448 L 390 448 Q 400 448 400 458 L 400 582 Q 400 592 390 592 L 122 592 Q 112 592 112 582 L 112 458 Q 112 448 122 448 Z" stroke-miterlimit="10"></path></g><g transform="translate(-14,-86) scale(1,1)"><path fill="none" stroke="#000000" d="M 112 473 L 400 473" stroke-miterlimit="10"></path></g><g transform="translate(-14,-86) scale(1,1)"><path fill="none" stroke="#000000" d="M 112 526 L 400 526" stroke-miterlimit="10"></path></g><g transform="translate(-14,-86) scale(1,1)"><g><path fill="none" stroke="none"></path><text fill="#000000" stroke="none" font-family="Arial" font-size="13px" font-style="normal" font-weight="bold" text-decoration="none" x="216.5" y="467.5">StoppedState</text></g></g><g transform="translate(-14,-86) scale(1,1)"><g><path fill="none" stroke="none"></path><text fill="#000000" stroke="none" font-family="Arial" font-size="13px" font-style="normal" font-weight="normal" text-decoration="none" x="117" y="490.5">entry/ProblemEvent</text></g></g><g transform="translate(-14,-86) scale(1,1)"><g><path fill="none" stroke="none"></path><text fill="#000000" stroke="none" font-family="Arial" font-size="13px" font-style="normal" font-weight="normal" text-decoration="none" x="117" y="505.5">entry/ResetEvent</text></g></g><g transform="translate(-14,-86) scale(1,1)"><g><path fill="none" stroke="none"></path><text fill="#000000" stroke="none" font-family="Arial" font-size="13px" font-style="normal" font-weight="normal" text-decoration="none" x="117" y="520.5">exit/AnyControls</text></g></g><g transform="translate(-14,-86) scale(1,1)"><path fill="#C0C0C0" stroke="none" d="M 223 208.5 C 223 203.2532944 227.2532944 199 232.5 199 C 237.7467056 199 242 203.2532944 242 208.5 C 242 213.7467056 237.7467056 218 232.5 218 C 227.2532944 218 223 213.7467056 223 208.5 Z" opacity="0.2"></path></g><g transform="translate(-14,-86) scale(1,1)"><path fill="#000000" stroke="none" d="M 216 201.5 C 216 196.2532944 220.2532944 192 225.5 192 C 230.7467056 192 235 196.2532944 235 201.5 C 235 206.7467056 230.7467056 211 225.5 211 C 220.2532944 211 216 206.7467056 216 201.5 Z"></path></g><g transform="translate(-14,-86) scale(1,1)"><path fill="#C0C0C0" stroke="none" d="M 121 215 L 197 215 Q 207 215 207 225 L 207 244 Q 207 254 197 254 L 121 254 Q 111 254 111 244 L 111 225 Q 111 215 121 215 Z" opacity="0.2"></path></g><g transform="translate(-14,-86) scale(1,1)"><path fill="#ffffff" stroke="none" d="M 114 208 L 190 208 Q 200 208 200 218 L 200 237 Q 200 247 190 247 L 114 247 Q 104 247 104 237 L 104 218 Q 104 208 114 208 Z"></path></g><g transform="translate(-14,-86) scale(1,1)"><path fill="none" stroke="#000000" d="M 114 208 L 190 208 Q 200 208 200 218 L 200 237 Q 200 247 190 247 L 114 247 Q 104 247 104 237 L 104 218 Q 104 208 114 208 Z" stroke-miterlimit="10"></path></g><g transform="translate(-14,-86) scale(1,1)"><g><path fill="none" stroke="none"></path><text fill="#000000" stroke="none" font-family="Arial" font-size="13px" font-style="normal" font-weight="bold" text-decoration="none" x="113" y="227.5">NormalSpeed</text></g></g><g transform="translate(-14,-86) scale(1,1)"><g><path fill="none" stroke="none"></path><text fill="#000000" stroke="none" font-family="Arial" font-size="13px" font-style="normal" font-weight="normal" text-decoration="none" x="110" y="242.5">(from Region1)</text></g></g><g transform="translate(-14,-86) scale(1,1)"><path fill="none" stroke="#000000" d="M 215 205 L 201 210" stroke-miterlimit="10"></path></g><g transform="translate(-14,-86) scale(1,1)"><path fill="none" stroke="#000000" d="M 209.1548028121776 202.61764325608004 L 201 210 L 211.98643088249395 210.54620185296585" stroke-miterlimit="10"></path></g><g transform="translate(-14,-86) scale(1,1)"><path fill="#C0C0C0" stroke="none" d="M 329 215 L 385 215 Q 395 215 395 225 L 395 244 Q 395 254 385 254 L 329 254 Q 319 254 319 244 L 319 225 Q 319 215 329 215 Z" opacity="0.2"></path></g><g transform="translate(-14,-86) scale(1,1)"><path fill="#ffffff" stroke="none" d="M 322 208 L 378 208 Q 388 208 388 218 L 388 237 Q 388 247 378 247 L 322 247 Q 312 247 312 237 L 312 218 Q 312 208 322 208 Z"></path></g><g transform="translate(-14,-86) scale(1,1)"><path fill="none" stroke="#000000" d="M 322 208 L 378 208 Q 388 208 388 218 L 388 237 Q 388 247 378 247 L 322 247 Q 312 247 312 237 L 312 218 Q 312 208 322 208 Z" stroke-miterlimit="10"></path></g><g transform="translate(-14,-86) scale(1,1)"><g><path fill="none" stroke="none"></path><text fill="#000000" stroke="none" font-family="Arial" font-size="13px" font-style="normal" font-weight="bold" text-decoration="none" x="318.5" y="227.5">FastSpeed</text></g></g><g transform="translate(-14,-86) scale(1,1)"><path fill="#C0C0C0" stroke="none" d="M 321 319 L 398 319 Q 408 319 408 329 L 408 348 Q 408 358 398 358 L 321 358 Q 311 358 311 348 L 311 329 Q 311 319 321 319 Z" opacity="0.2"></path></g><g transform="translate(-14,-86) scale(1,1)"><path fill="#ffffff" stroke="none" d="M 314 312 L 391 312 Q 401 312 401 322 L 401 341 Q 401 351 391 351 L 314 351 Q 304 351 304 341 L 304 322 Q 304 312 314 312 Z"></path></g><g transform="translate(-14,-86) scale(1,1)"><path fill="none" stroke="#000000" d="M 314 312 L 391 312 Q 401 312 401 322 L 401 341 Q 401 351 391 351 L 314 351 Q 304 351 304 341 L 304 322 Q 304 312 314 312 Z" stroke-miterlimit="10"></path></g><g transform="translate(-14,-86) scale(1,1)"><g><path fill="none" stroke="none"></path><text fill="#000000" stroke="none" font-family="Arial" font-size="13px" font-style="normal" font-weight="bold" text-decoration="none" x="312" y="331.5">PausedSpeed</text></g></g><g transform="translate(-14,-86) scale(1,1)"><path fill="#C0C0C0" stroke="none" d="M 129 319 L 183 319 Q 193 319 193 329 L 193 348 Q 193 358 183 358 L 129 358 Q 119 358 119 348 L 119 329 Q 119 319 129 319 Z" opacity="0.2"></path></g><g transform="translate(-14,-86) scale(1,1)"><path fill="#ffffff" stroke="none" d="M 122 312 L 176 312 Q 186 312 186 322 L 186 341 Q 186 351 176 351 L 122 351 Q 112 351 112 341 L 112 322 Q 112 312 122 312 Z"></path></g><g transform="translate(-14,-86) scale(1,1)"><path fill="none" stroke="#000000" d="M 122 312 L 176 312 Q 186 312 186 322 L 186 341 Q 186 351 176 351 L 122 351 Q 112 351 112 341 L 112 322 Q 112 312 122 312 Z" stroke-miterlimit="10"></path></g><g transform="translate(-14,-86) scale(1,1)"><g><path fill="none" stroke="none"></path><text fill="#000000" stroke="none" font-family="Arial" font-size="13px" font-style="normal" font-weight="bold" text-decoration="none" x="118.5" y="331.5">FFFSpeed</text></g></g><g transform="translate(-14,-86) scale(1,1)"><path fill="none" stroke="#000000" d="M 201 227 L 311 227" stroke-miterlimit="10"></path></g><g transform="translate(-14,-86) scale(1,1)"><path fill="none" stroke="#000000" d="M 300.83732514237585 231.209517756016 L 311 227 L 300.83732514237585 222.790482243984" stroke-miterlimit="10"></path></g><g transform="translate(-14,-86) scale(1,1)"><g><path fill="none" stroke="none"></path><text fill="#000000" stroke="none" font-family="Arial" font-size="13px" font-style="normal" font-weight="normal" text-decoration="none" x="248" y="219">FF</text></g></g><g transform="translate(-14,-86) scale(1,1)"><path fill="none" stroke="#000000" d="M 151 248 L 150 311" stroke-miterlimit="10"></path></g><g transform="translate(-14,-86) scale(1,1)"><path fill="none" stroke="#000000" d="M 145.95230442497555 300.7717958305513 L 150 311 L 154.37027953829912 300.9054144831438" stroke-miterlimit="10"></path></g><g transform="translate(-14,-86) scale(1,1)"><g><path fill="none" stroke="none"></path><text fill="#000000" stroke="none" font-family="Arial" font-size="13px" font-style="normal" font-weight="normal" text-decoration="none" x="152" y="285">FFF</text></g></g><g transform="translate(-14,-86) scale(1,1)"><path fill="none" stroke="#000000" d="M 187 331 L 303 331" stroke-miterlimit="10"></path></g><g transform="translate(-14,-86) scale(1,1)"><path fill="none" stroke="#000000" d="M 292.83732514237585 335.209517756016 L 303 331 L 292.83732514237585 326.790482243984" stroke-miterlimit="10"></path></g><g transform="translate(-14,-86) scale(1,1)"><g><path fill="none" stroke="none"></path><text fill="#000000" stroke="none" font-family="Arial" font-size="13px" font-style="normal" font-weight="normal" text-decoration="none" x="223" y="323">Paused</text></g></g><g transform="translate(-14,-86) scale(1,1)"><path fill="none" stroke="#000000" d="M 192 248 L 314 311" stroke-miterlimit="10"></path></g><g transform="translate(-14,-86) scale(1,1)"><path fill="none" stroke="#000000" d="M 303.0387640599835 310.07733718656783 L 314 311 L 306.90165686875514 302.59681460450213" stroke-miterlimit="10"></path></g><g transform="translate(-14,-86) scale(1,1)"><g><path fill="none" stroke="none"></path><text fill="#000000" stroke="none" font-family="Arial" font-size="13px" font-style="normal" font-weight="normal" text-decoration="none" x="237" y="272">Paused</text></g></g><g transform="translate(-14,-86) scale(1,1)"><path fill="none" stroke="#000000" d="M 350 248 L 352 311" stroke-miterlimit="10"></path></g><g transform="translate(-14,-86) scale(1,1)"><path fill="none" stroke="#000000" d="M 347.47013969096975 300.976010495782 L 352 311 L 355.88493601063226 300.7088741046816" stroke-miterlimit="10"></path></g><g transform="translate(-14,-86) scale(1,1)"><g><path fill="none" stroke="none"></path><text fill="#000000" stroke="none" font-family="Arial" font-size="13px" font-style="normal" font-weight="normal" text-decoration="none" x="343" y="285">Paused</text></g></g><g transform="translate(-14,-86) scale(1,1)"><path fill="none" stroke="#000000" d="M 314 311 L 192 248" stroke-miterlimit="10"></path></g><g transform="translate(-14,-86) scale(1,1)"><path fill="none" stroke="#000000" d="M 202.9612359400165 248.92266281343214 L 192 248 L 199.09834313124483 256.40318539549787" stroke-miterlimit="10"></path></g><g transform="translate(-14,-86) scale(1,1)"><g><path fill="none" stroke="none"></path><text fill="#000000" stroke="none" font-family="Arial" font-size="13px" font-style="normal" font-weight="normal" text-decoration="none" x="214" y="285">Play</text></g></g><g transform="translate(-14,-86) scale(1,1)"><path fill="none" stroke="#000000" d="M 150 311 L 151 248" stroke-miterlimit="10"></path></g><g transform="translate(-14,-86) scale(1,1)"><path fill="none" stroke="#000000" d="M 155.04769557502445 258.2282041694487 L 151 248 L 146.62972046170088 258.0945855168562" stroke-miterlimit="10"></path></g><g transform="translate(-14,-86) scale(1,1)"><g><path fill="none" stroke="none"></path><text fill="#000000" stroke="none" font-family="Arial" font-size="13px" font-style="normal" font-weight="normal" text-decoration="none" x="122" y="285">Play</text></g></g><g transform="translate(-14,-86) scale(1,1)"><path fill="none" stroke="#000000" d="M 311 227 L 201 227" stroke-miterlimit="10"></path></g><g transform="translate(-14,-86) scale(1,1)"><path fill="none" stroke="#000000" d="M 211.16267485762415 222.790482243984 L 201 227 L 211.16267485762415 231.209517756016" stroke-miterlimit="10"></path></g><g transform="translate(-14,-86) scale(1,1)"><g><path fill="none" stroke="none"></path><text fill="#000000" stroke="none" font-family="Arial" font-size="13px" font-style="normal" font-weight="normal" text-decoration="none" x="241" y="237">Play</text></g></g><g transform="translate(-14,-86) scale(1,1)"><path fill="none" stroke="#000000" d="M 352 311 L 350 248" stroke-miterlimit="10"></path></g><g transform="translate(-14,-86) scale(1,1)"><path fill="none" stroke="#000000" d="M 354.52986030903025 258.023989504218 L 350 248 L 346.11506398936774 258.2911258953184" stroke-miterlimit="10"></path></g><g transform="translate(-14,-86) scale(1,1)"><g><path fill="none" stroke="none"></path><text fill="#000000" stroke="none" font-family="Arial" font-size="13px" font-style="normal" font-weight="normal" text-decoration="none" x="328" y="286">FF</text></g></g><g transform="translate(-14,-86) scale(1,1)"><path fill="none" stroke="#000000" d="M 187 311 L 311 247" stroke-miterlimit="10"></path></g><g transform="translate(-14,-86) scale(1,1)"><path fill="none" stroke="#000000" d="M 303.899902705027 255.40170330361153 L 311 247 L 300.0385716761392 247.92037443514144" stroke-miterlimit="10"></path></g><g transform="translate(-14,-86) scale(1,1)"><g><path fill="none" stroke="none"></path><text fill="#000000" stroke="none" font-family="Arial" font-size="13px" font-style="normal" font-weight="normal" text-decoration="none" x="234" y="272">FF</text></g></g><g transform="translate(-14,-86) scale(1,1)"><path fill="none" stroke="#000000" d="M 311 247 L 187 311" stroke-miterlimit="10"></path></g><g transform="translate(-14,-86) scale(1,1)"><path fill="none" stroke="#000000" d="M 194.10009729497304 302.5982966963885 L 187 311 L 197.96142832386082 310.0796255648586" stroke-miterlimit="10"></path></g><g transform="translate(-14,-86) scale(1,1)"><g><path fill="none" stroke="none"></path><text fill="#000000" stroke="none" font-family="Arial" font-size="13px" font-style="normal" font-weight="normal" text-decoration="none" x="243" y="299">FFF</text></g></g><g transform="translate(-14,-86) scale(1,1)"><path fill="none" stroke="#000000" d="M 310 385 L 320 416 L 301 447" stroke-miterlimit="10"></path></g><g transform="translate(-14,-86) scale(1,1)"><path fill="none" stroke="#000000" d="M 302.72158817684095 436.13555642707087 L 301 447 L 309.89966839849166 440.53502495001806" stroke-miterlimit="10"></path></g><g transform="translate(-14,-86) scale(1,1)"><g><path fill="none" stroke="none"></path><text fill="#000000" stroke="none" font-family="Arial" font-size="13px" font-style="normal" font-weight="normal" text-decoration="none" x="298" y="421">ResetEvent</text></g></g><g transform="translate(-14,-86) scale(1,1)"><path fill="none" stroke="#000000" d="M 441 242 L 599 243" stroke-miterlimit="10"></path></g><g transform="translate(-14,-86) scale(1,1)"><path fill="none" stroke="#000000" d="M 588.8108866990246 247.1451140080688 L 599 243 L 588.8641706667055 238.7262471144991" stroke-miterlimit="10"></path></g><g transform="translate(-14,-86) scale(1,1)"><g><path fill="none" stroke="none"></path><text fill="#000000" stroke="none" font-family="Arial" font-size="13px" font-style="normal" font-weight="normal" text-decoration="none" x="477" y="246">WonEvent</text></g></g><g transform="translate(-14,-86) scale(1,1)"><path fill="none" stroke="#000000" d="M 441 368 L 617 495" stroke-miterlimit="10"></path></g><g transform="translate(-14,-86) scale(1,1)"><path fill="none" stroke="#000000" d="M 606.2956454705504 492.4668608194866 L 617 495 L 611.2220782162316 485.6396784317709" stroke-miterlimit="10"></path></g><g transform="translate(-14,-86) scale(1,1)"><g><path fill="none" stroke="none"></path><text fill="#000000" stroke="none" font-family="Arial" font-size="13px" font-style="normal" font-weight="normal" text-decoration="none" x="511" y="425">FailEvent</text></g></g><g transform="translate(-14,-86) scale(1,1)"><path fill="none" stroke="#000000" d="M 599 519 L 401 520" stroke-miterlimit="10"></path></g><g transform="translate(-14,-86) scale(1,1)"><path fill="none" stroke="#000000" d="M 411.14128532783076 515.7392099442093 L 401 520 L 411.18380516691855 524.158138083595" stroke-miterlimit="10"></path></g><g transform="translate(-14,-86) scale(1,1)"><g><path fill="none" stroke="none"></path><text fill="#000000" stroke="none" font-family="Arial" font-size="13px" font-style="normal" font-weight="normal" text-decoration="none" x="471" y="511">ResetEvent</text></g></g><g transform="translate(-14,-86) scale(1,1)"><path fill="#C0C0C0" stroke="none" d="M 649 215 L 720 215 Q 730 215 730 225 L 730 244 Q 730 254 720 254 L 649 254 Q 639 254 639 244 L 639 225 Q 639 215 649 215 Z" opacity="0.2"></path></g><g transform="translate(-14,-86) scale(1,1)"><path fill="#ffffff" stroke="none" d="M 642 208 L 713 208 Q 723 208 723 218 L 723 237 Q 723 247 713 247 L 642 247 Q 632 247 632 237 L 632 218 Q 632 208 642 208 Z"></path></g><g transform="translate(-14,-86) scale(1,1)"><path fill="none" stroke="#000000" d="M 642 208 L 713 208 Q 723 208 723 218 L 723 237 Q 723 247 713 247 L 642 247 Q 632 247 632 237 L 632 218 Q 632 208 642 208 Z" stroke-miterlimit="10"></path></g><g transform="translate(-14,-86) scale(1,1)"><g><path fill="none" stroke="none"></path><text fill="#000000" stroke="none" font-family="Arial" font-size="13px" font-style="normal" font-weight="bold" text-decoration="none" x="640.5" y="227.5">WonRunning</text></g></g><g transform="translate(-14,-86) scale(1,1)"><g><path fill="none" stroke="none"></path><text fill="#000000" stroke="none" font-family="Arial" font-size="13px" font-style="normal" font-weight="normal" text-decoration="none" x="659" y="242.5">(from )</text></g></g><g transform="translate(-14,-86) scale(1,1)"><path fill="#C0C0C0" stroke="none" d="M 657 303 L 722 303 Q 732 303 732 313 L 732 332 Q 732 342 722 342 L 657 342 Q 647 342 647 332 L 647 313 Q 647 303 657 303 Z" opacity="0.2"></path></g><g transform="translate(-14,-86) scale(1,1)"><path fill="#ffffff" stroke="none" d="M 650 296 L 715 296 Q 725 296 725 306 L 725 325 Q 725 335 715 335 L 650 335 Q 640 335 640 325 L 640 306 Q 640 296 650 296 Z"></path></g><g transform="translate(-14,-86) scale(1,1)"><path fill="none" stroke="#000000" d="M 650 296 L 715 296 Q 725 296 725 306 L 725 325 Q 725 335 715 335 L 650 335 Q 640 335 640 325 L 640 306 Q 640 296 650 296 Z" stroke-miterlimit="10"></path></g><g transform="translate(-14,-86) scale(1,1)"><g><path fill="none" stroke="none"></path><text fill="#000000" stroke="none" font-family="Arial" font-size="13px" font-style="normal" font-weight="bold" text-decoration="none" x="647" y="315.5">WonPaused</text></g></g><g transform="translate(-14,-86) scale(1,1)"><g><path fill="none" stroke="none"></path><text fill="#000000" stroke="none" font-family="Arial" font-size="13px" font-style="normal" font-weight="normal" text-decoration="none" x="664" y="330.5">(from )</text></g></g><g transform="translate(-14,-86) scale(1,1)"><path fill="none" stroke="#000000" d="M 599 299 L 369 447" stroke-miterlimit="10"></path></g><g transform="translate(-14,-86) scale(1,1)"><path fill="none" stroke="#000000" d="M 375.26832371271803 437.960745725859 L 369 447 L 379.82409219805 445.0406562098208" stroke-miterlimit="10"></path></g><g transform="translate(-14,-86) scale(1,1)"><g><path fill="none" stroke="none"></path><text fill="#000000" stroke="none" font-family="Arial" font-size="13px" font-style="normal" font-weight="normal" text-decoration="none" x="503" y="349">ResetEvent</text></g></g><g transform="translate(-14,-86) scale(1,1)"><path fill="#C0C0C0" stroke="none" d="M 31 504.5 C 31 499.2532944 35.2532944 495 40.5 495 C 45.7467056 495 50 499.2532944 50 504.5 C 50 509.7467056 45.7467056 514 40.5 514 C 35.2532944 514 31 509.7467056 31 504.5 Z" opacity="0.2"></path></g><g transform="translate(-14,-86) scale(1,1)"><path fill="#000000" stroke="none" d="M 24 497.5 C 24 492.2532944 28.2532944 488 33.5 488 C 38.7467056 488 43 492.2532944 43 497.5 C 43 502.7467056 38.7467056 507 33.5 507 C 28.2532944 507 24 502.7467056 24 497.5 Z"></path></g><g transform="translate(-14,-86) scale(1,1)"><path fill="none" stroke="#000000" d="M 44 498 L 111 505" stroke-miterlimit="10"></path></g><g transform="translate(-14,-86) scale(1,1)"><path fill="none" stroke="#000000" d="M 100.45492135522551 508.1307054118075 L 111 505 L 101.32976035554798 499.757246408721" stroke-miterlimit="10"></path></g><g transform="translate(-14,-86) scale(1,1)"><path fill="none" stroke="#000000" d="M 201 447 L 184 424 L 201 385" stroke-miterlimit="10"></path></g><g transform="translate(-14,-86) scale(1,1)"><path fill="none" stroke="#000000" d="M 200.79799123377825 395.9981449553263 L 201 385 L 193.0802953531616 392.63402110992934" stroke-miterlimit="10"></path></g><g transform="translate(-14,-86) scale(1,1)"><g><path fill="none" stroke="none"></path><text fill="#000000" stroke="none" font-family="Arial" font-size="13px" font-style="normal" font-weight="normal" text-decoration="none" x="130" y="422">Any Controls</text></g></g><g transform="translate(-14,-86) scale(1,1)"><path fill="#C0C0C0" stroke="none" d="M 593 583 L 669 583 Q 679 583 679 593 L 679 612 Q 679 622 669 622 L 593 622 Q 583 622 583 612 L 583 593 Q 583 583 593 583 Z" opacity="0.2"></path></g><g transform="translate(-14,-86) scale(1,1)"><path fill="#ffffff" stroke="none" d="M 586 576 L 662 576 Q 672 576 672 586 L 672 605 Q 672 615 662 615 L 586 615 Q 576 615 576 605 L 576 586 Q 576 576 586 576 Z"></path></g><g transform="translate(-14,-86) scale(1,1)"><path fill="none" stroke="#000000" d="M 586 576 L 662 576 Q 672 576 672 586 L 672 605 Q 672 615 662 615 L 586 615 Q 576 615 576 605 L 576 586 Q 576 576 586 576 Z" stroke-miterlimit="10"></path></g><g transform="translate(-14,-86) scale(1,1)"><g><path fill="none" stroke="none"></path><text fill="#000000" stroke="none" font-family="Arial" font-size="13px" font-style="normal" font-weight="bold" text-decoration="none" x="584.5" y="595.5">ProblemState</text></g></g><g transform="translate(-14,-86) scale(1,1)"><path fill="none" stroke="#000000" d="M 401 550 L 575 585" stroke-miterlimit="10"></path></g><g transform="translate(-14,-86) scale(1,1)"><path fill="none" stroke="#000000" d="M 564.206770864707 587.1227823329448 L 575 585 L 565.8670007049259 578.8690682701423" stroke-miterlimit="10"></path></g><g transform="translate(-14,-86) scale(1,1)"><g><path fill="none" stroke="none"></path><text fill="#000000" stroke="none" font-family="Arial" font-size="13px" font-style="normal" font-weight="normal" text-decoration="none" x="471" y="565">ProblemEvent</text></g></g><g transform="translate(-14,-86) scale(1,1)"><path fill="none" stroke="#000000" d="M 575 597 L 480 600 L 401 572" stroke-miterlimit="10"></path></g><g transform="translate(-14,-86) scale(1,1)"><path fill="none" stroke="#000000" d="M 411.98508394930127 571.4273477260998 L 401 572 L 409.17255365859114 579.3627010463177" stroke-miterlimit="10"></path></g><g transform="translate(-14,-86) scale(1,1)"><g><path fill="none" stroke="none"></path><text fill="#000000" stroke="none" font-family="Arial" font-size="13px" font-style="normal" font-weight="normal" text-decoration="none" x="431" y="612">NoMoreProblems</text></g></g><g transform="translate(-14,-86) scale(1,1)"><path fill="#C0C0C0" stroke="none" d="M 615 192.5 C 615 187.2532944 619.2532944 183 624.5 183 C 629.7467056 183 634 187.2532944 634 192.5 C 634 197.7467056 629.7467056 202 624.5 202 C 619.2532944 202 615 197.7467056 615 192.5 Z" opacity="0.2"></path></g><g transform="translate(-14,-86) scale(1,1)"><path fill="#000000" stroke="none" d="M 608 185.5 C 608 180.2532944 612.2532944 176 617.5 176 C 622.7467056 176 627 180.2532944 627 185.5 C 627 190.7467056 622.7467056 195 617.5 195 C 612.2532944 195 608 190.7467056 608 185.5 Z"></path></g><g transform="translate(-14,-86) scale(1,1)"><path fill="none" stroke="#000000" d="M 628 193 L 648 207" stroke-miterlimit="10"></path></g><g transform="translate(-14,-86) scale(1,1)"><path fill="none" stroke="#000000" d="M 637.260412437774 204.6206599668646 L 648 207 L 642.088412279782 197.72351733542462" stroke-miterlimit="10"></path></g><g transform="translate(-14,-86) scale(1,1)"><path fill="#C0C0C0" stroke="none" d="M 743 403.5 C 743 396.59644 748.59644 391 755.5 391 C 762.40356 391 768 396.59644 768 403.5 C 768 410.40356 762.40356 416 755.5 416 C 748.59644 416 743 410.40356 743 403.5 Z" opacity="0.2"></path></g><g transform="translate(-14,-86) scale(1,1)"><path fill="none" stroke="#000000" d="M 736 396.5 C 736 389.59644 741.59644 384 748.5 384 C 755.40356 384 761 389.59644 761 396.5 C 761 403.40356 755.40356 409 748.5 409 C 741.59644 409 736 403.40356 736 396.5 Z" stroke-miterlimit="10"></path></g><g transform="translate(-14,-86) scale(1,1)"><path fill="#000000" stroke="none" d="M 741 396.5 C 741 392.357864 744.357864 389 748.5 389 C 752.642136 389 756 392.357864 756 396.5 C 756 400.642136 752.642136 404 748.5 404 C 744.357864 404 741 400.642136 741 396.5 Z"></path></g><g transform="translate(-14,-86) scale(1,1)"><path fill="none" stroke="#000000" d="M 699 336 L 737 383" stroke-miterlimit="10"></path></g><g transform="translate(-14,-86) scale(1,1)"><path fill="none" stroke="#000000" d="M 727.3370538134127 377.74381592834516 L 737 383 L 733.8839486254553 372.45058182499156" stroke-miterlimit="10"></path></g><g transform="translate(-14,-86) scale(1,1)"><g><path fill="none" stroke="none"></path><text fill="#000000" stroke="none" font-family="Arial" font-size="13px" font-style="normal" font-weight="normal" text-decoration="none" x="710" y="373">NextLevel</text></g></g></g></svg>