<?xml version="1.0" encoding="UTF-8" standalone="no"?>
<!-- Created with sK1/UniConvertor (http://sk1project.org/) -->
<svg
   xmlns:dc="http://purl.org/dc/elements/1.1/"
   xmlns:cc="http://creativecommons.org/ns#"
   xmlns:rdf="http://www.w3.org/1999/02/22-rdf-syntax-ns#"
   xmlns:svg="http://www.w3.org/2000/svg"
   xmlns="http://www.w3.org/2000/svg"
   xmlns:sodipodi="http://sodipodi.sourceforge.net/DTD/sodipodi-0.dtd"
   xmlns:inkscape="http://www.inkscape.org/namespaces/inkscape"
   width="187.087pt"
   height="187.087pt"
   viewBox="0 0 187.087 187.087"
   id="svg2"
   sodipodi:version="0.32"
   inkscape:version="0.46"
   sodipodi:docname="SoccerBall.svg"
   inkscape:output_extension="org.inkscape.output.svg.inkscape"
   fill-rule="evenodd">
  <metadata
     id="metadata563">
    <rdf:RDF>
      <cc:Work
         rdf:about="">
        <dc:format>image/svg+xml</dc:format>
        <dc:type
           rdf:resource="http://purl.org/dc/dcmitype/StillImage" />
      </cc:Work>
    </rdf:RDF>
  </metadata>
  <sodipodi:namedview
     inkscape:window-height="1004"
     inkscape:window-width="1241"
     inkscape:pageshadow="2"
     inkscape:pageopacity="0.0"
     guidetolerance="10.0"
     gridtolerance="10.0"
     objecttolerance="10.0"
     borderopacity="1.0"
     bordercolor="#666666"
     pagecolor="#ffffff"
     id="base"
     showgrid="false"
     inkscape:zoom="3.4422486"
     inkscape:cx="116.92938"
     inkscape:cy="116.92938"
     inkscape:window-x="1276"
     inkscape:window-y="-3"
     inkscape:current-layer="layer1" />
  <defs
     id="defs4">
    <inkscape:perspective
       sodipodi:type="inkscape:persp3d"
       inkscape:vp_x="0 : 116.92938 : 1"
       inkscape:vp_y="0 : 1000 : 0"
       inkscape:vp_z="233.85876 : 116.92938 : 1"
       inkscape:persp3d-origin="116.92938 : 77.952922 : 1"
       id="perspective565" />
    <marker
       id="ArrowEnd"
       viewBox="0 0 10 10"
       refX="0"
       refY="5"
       markerUnits="strokeWidth"
       markerWidth="4"
       markerHeight="3"
       orient="auto">
      <path
         d="M 0 0 L 10 5 L 0 10 z"
         id="path7" />
    </marker>
    <marker
       id="ArrowStart"
       viewBox="0 0 10 10"
       refX="10"
       refY="5"
       markerUnits="strokeWidth"
       markerWidth="4"
       markerHeight="3"
       orient="auto">
      <path
         d="M 10 0 L 0 5 L 10 10 z"
         id="path10" />
    </marker>
  </defs>
  <g
     inkscape:groupmode="layer"
     id="layer1"
     inkscape:label="basic layer">
    <g
       id="g3463"
       transform="matrix(1.3852583,0,0,1.380379,-11.374855,-58.568253)">
      <g
         id="g62">
        <path
           style="fill:#ffffff;stroke:none"
           d="M 99.76,97.0951 C 92.8961,90.4977 85.3833,84.489 75.8576,80.3065 C 75.8576,72.9945 75.8576,65.6825 75.8576,58.3706 C 78.7424,55.6494 91.4561,50.0786 97.58,51.233 C 106.971,55.8728 114.209,61.696 120.227,68.1895 C 123.398,76.0683 122.791,83.465 121.241,90.7416 C 114.081,92.8594 106.92,94.9772 99.76,97.0951 z"
           id="path64" />
        <g
           id="g66">
          <path
             style="fill:#f9f9f9;stroke:none"
             d="M 99.9997,96.9654 C 93.3489,90.2743 85.8861,84.4873 76.4844,80.3038 C 76.4844,73.1036 76.3405,66.2702 76.6573,59.1572 C 79.433,56.4069 91.1441,50.9633 97.6153,51.718 C 106.768,56.1501 114.336,62.2373 120.262,68.6315 C 123.385,76.3898 122.7,83.5437 121.174,90.709 C 114.123,92.7945 107.051,94.8799 99.9997,96.9654 z"
             id="path68" />
          <path
             style="fill:#f4f4f4;stroke:none"
             d="M 100.239,96.8357 C 93.8017,90.051 86.3889,84.4855 77.1113,80.3011 C 77.1113,73.2128 76.8235,66.858 77.4571,59.9439 C 80.1236,57.1644 90.832,51.848 97.6507,52.2031 C 106.564,56.4274 114.463,62.7785 120.297,69.0735 C 123.371,76.7113 122.609,83.6225 121.107,90.6765 C 114.166,92.7296 107.181,94.7826 100.239,96.8357 z"
             id="path70" />
          <path
             style="fill:#efefef;stroke:none"
             d="M 100.479,96.706 C 94.2545,89.8276 86.8917,84.4837 77.7381,80.2984 C 77.7381,73.3219 77.3065,67.4457 78.2569,60.7305 C 80.8141,57.922 90.52,52.7327 97.686,52.6882 C 106.361,56.7048 114.59,63.3198 120.332,69.5154 C 123.358,77.0328 122.519,83.7012 121.04,90.644 C 114.208,92.6646 107.311,94.6853 100.479,96.706 z"
             id="path72" />
          <path
             style="fill:#eaeaea;stroke:none"
             d="M 100.719,96.5763 C 94.7072,89.6043 87.3945,84.4819 78.3649,80.2957 C 78.3649,73.431 77.7895,68.0334 79.0566,61.5172 C 81.5047,58.6795 90.2079,53.6173 97.7213,53.1733 C 106.158,56.9821 114.717,63.8611 120.367,69.9574 C 123.344,77.3543 122.428,83.7799 120.973,90.6114 C 114.251,92.5997 107.442,94.588 100.719,96.5763 z"
             id="path74" />
          <path
             style="fill:#e5e5e5;stroke:none"
             d="M 100.959,96.4466 C 95.16,89.3809 87.8973,84.4801 78.9918,80.2931 C 78.9918,73.5401 78.2724,68.6211 79.8564,62.3038 C 82.1953,59.437 89.8959,54.502 97.7566,53.6584 C 105.954,57.2594 114.843,64.4023 120.401,70.3994 C 123.33,77.6758 122.337,83.8586 120.906,90.5789 C 114.293,92.5348 107.572,94.4907 100.959,96.4466 z"
             id="path76" />
          <path
             style="fill:#e0e0e0;stroke:none"
             d="M 101.198,96.3169 C 95.6128,89.1576 88.4001,84.4783 79.6186,80.2904 C 79.6186,73.6493 78.7554,69.2088 80.6561,63.0905 C 82.8858,60.1945 89.5838,55.3867 97.7919,54.1435 C 105.751,57.5368 114.97,64.9436 120.436,70.8414 C 123.317,77.9973 122.246,83.9373 120.839,90.5463 C 114.335,92.4699 107.702,94.3934 101.198,96.3169 z"
             id="path78" />
          <path
             style="fill:#dbdbdb;stroke:none"
             d="M 101.438,96.1872 C 96.0656,88.9342 88.903,84.4765 80.2454,80.2877 C 80.2454,73.7584 79.2384,69.7965 81.4559,63.8771 C 83.5764,60.9521 89.2718,56.2714 97.8272,54.6286 C 105.547,57.8141 115.097,65.4849 120.471,71.2833 C 123.303,78.3189 122.155,84.0161 120.772,90.5138 C 114.378,92.4049 107.832,94.2961 101.438,96.1872 z"
             id="path80" />
          <path
             style="fill:#d6d6d6;stroke:none"
             d="M 101.678,96.0575 C 96.5183,88.7109 89.4058,84.4747 80.8723,80.285 C 80.8723,73.8675 79.7214,70.3842 82.2557,64.6638 C 84.267,61.7096 88.9597,57.1561 97.8625,55.1137 C 105.344,58.0914 115.224,66.0261 120.506,71.7253 C 123.29,78.6404 122.065,84.0948 120.705,90.4812 C 114.42,92.34 107.963,94.1988 101.678,96.0575 z"
             id="path82" />
          <path
             style="fill:#d1d1d1;stroke:none"
             d="M 101.918,95.9278 C 96.9711,88.4875 89.9086,84.473 81.4991,80.2824 C 81.4991,73.9766 80.2043,70.9719 83.0554,65.4504 C 84.9576,62.4671 88.6477,58.0408 97.8979,55.5988 C 105.14,58.3688 115.351,66.5674 120.541,72.1673 C 123.276,78.9619 121.974,84.1735 120.638,90.4487 C 114.462,92.2751 108.093,94.1015 101.918,95.9278 z"
             id="path84" />
        </g>
        <path
           style="fill:#cccccc;stroke:none"
           d="M 102.157,95.7982 C 97.4239,88.2642 90.4114,84.4712 82.126,80.2797 C 82.126,74.0858 80.6873,71.5596 83.8552,66.2371 C 85.6481,63.2246 88.3356,58.9255 97.9332,56.0839 C 104.937,58.6461 115.478,67.1087 120.576,72.6093 C 123.262,79.2834 121.883,84.2522 120.571,90.4162 C 114.505,92.2102 108.223,94.0042 102.157,95.7982 z"
           id="path86" />
      </g>
      <g
         id="g88">
        <path
           style="fill:#ffffff;stroke:none"
           d="M 12.9006,88.8139 C 9.88589,98.0086 9.66003,101.425 10.388,103.833 C 11.2305,106.619 13.3171,110.028 17.3564,111.606 C 17.2988,122.977 19.5299,132.741 25.2689,140.045 C 25.1497,144.92 25.0306,149.794 24.9114,154.669 C 16.1765,143.518 6.13751,126.433 8.58496,102.404 C 9.33344,95.0013 10.8203,90.3844 12.0144,86.7432 C 12.0144,86.7432 12.0144,86.7432 12.0144,86.7432 C 19.918,63.2725 37.3306,48.4739 61.6953,43.8818 C 58.7848,46.3322 55.8742,48.7825 52.9637,51.233 C 38.7206,56.0281 34.1659,62.5589 29.919,68.8317 C 26.3208,69.8486 22.598,70.8812 19.7136,73.8399 C 16.9005,78.414 12.8366,88.6619 12.9006,88.8139 z"
           id="path90" />
        <g
           id="g92">
          <path
             style="fill:#f9f9f9;stroke:none"
             d="M 12.92,88.725 C 9.9345,97.8838 9.71711,101.3 10.3669,103.707 C 11.1147,106.677 13.3108,110.138 17.3109,111.709 C 17.2539,123.035 19.5498,132.74 25.2332,140.015 C 25.1151,144.871 25.0404,148.884 24.9224,153.74 C 15.5372,141.724 6.82769,124.9 8.55972,102.63 C 9.30093,95.2557 11.4073,89.102 12.7556,85.5816 C 12.9502,85.4087 13.0931,85.4011 13.7499,84.8035 C 21.52,63.0822 37.5199,48.7552 61.0901,44.4006 C 58.2078,46.8414 55.8442,48.8283 52.9619,51.2691 C 39.5397,55.6349 34.0006,62.3131 29.9679,68.7992 C 26.4045,69.8122 22.5233,71.3595 19.6669,74.3066 C 16.8811,78.8629 12.8566,88.5737 12.92,88.725 z"
             id="path94" />
          <path
             style="fill:#f4f4f4;stroke:none"
             d="M 12.9393,88.6361 C 9.9831,97.7591 9.77419,101.174 10.3458,103.581 C 10.999,106.735 13.3045,110.247 17.2654,111.812 C 17.209,123.094 19.5697,132.739 25.1974,139.986 C 25.0805,144.823 25.0501,147.974 24.9333,152.811 C 14.898,139.931 7.51788,123.368 8.53448,102.855 C 9.26843,95.5101 11.9943,87.8196 13.4969,84.4201 C 13.886,84.0742 14.1719,84.0591 15.4855,82.8638 C 23.122,62.892 37.7091,49.0365 60.4849,44.9193 C 57.6308,47.3506 55.8142,48.874 52.9601,51.3053 C 40.3587,55.2416 33.8353,62.0673 30.0167,68.7666 C 26.4883,69.7757 22.4486,71.8377 19.6201,74.7733 C 16.8616,79.3117 12.8765,88.4854 12.9393,88.6361 z"
             id="path96" />
          <path
             style="fill:#efefef;stroke:none"
             d="M 12.9587,88.5473 C 10.0317,97.6343 9.83127,101.049 10.3247,103.455 C 10.8832,106.792 13.2982,110.356 17.22,111.916 C 17.1641,123.153 19.5896,132.739 25.1616,139.956 C 25.0459,144.774 25.0599,147.063 24.9443,151.881 C 14.2587,138.137 8.20806,121.835 8.50924,103.081 C 9.23593,95.7646 12.5813,86.5372 14.2381,83.2585 C 14.8217,82.7398 15.2506,82.717 17.221,80.9241 C 24.724,62.7017 37.8984,49.3178 59.8797,45.4381 C 57.0538,47.8598 55.7842,48.9197 52.9584,51.3414 C 41.1777,54.8484 33.67,61.8215 30.0655,68.7341 C 26.572,69.7392 22.3739,72.316 19.5734,75.24 C 16.8422,79.7606 12.8965,88.3971 12.9587,88.5473 z"
             id="path98" />
          <path
             style="fill:#eaeaea;stroke:none"
             d="M 12.978,88.4584 C 10.0803,97.5096 9.88835,100.923 10.3035,103.329 C 10.7675,106.85 13.2919,110.466 17.1745,112.019 C 17.1191,123.212 19.6095,132.738 25.1259,139.927 C 25.0113,144.726 25.0697,146.153 24.9552,150.952 C 13.6195,136.343 8.89824,120.302 8.484,103.307 C 9.20343,96.019 13.1683,85.2548 14.9794,82.097 C 15.7575,81.4053 16.3294,81.375 18.9566,78.9844 C 26.3259,62.5114 38.0877,49.5991 59.2744,45.9568 C 56.4768,48.369 55.7542,48.9654 52.9566,51.3776 C 41.9968,54.4552 33.5048,61.5757 30.1143,68.7016 C 26.6557,69.7027 22.2992,72.7942 19.5267,75.7067 C 16.8228,80.2094 12.9165,88.3088 12.978,88.4584 z"
             id="path100" />
          <path
             style="fill:#e5e5e5;stroke:none"
             d="M 12.9974,88.3695 C 10.1289,97.3848 9.94543,100.798 10.2824,103.204 C 10.6517,106.908 13.2856,110.575 17.129,112.122 C 17.0742,123.271 19.6294,132.737 25.0901,139.898 C 24.9767,144.677 25.0795,145.242 24.9661,150.022 C 12.9802,134.549 9.58842,118.77 8.45876,103.532 C 9.17093,96.2735 13.7553,83.9724 15.7206,80.9355 C 16.6933,80.0708 17.4081,80.0329 20.6921,77.0447 C 27.9279,62.3212 38.2769,49.8804 58.6692,46.4756 C 55.8998,48.8782 55.7242,49.0112 52.9548,51.4138 C 42.8158,54.0619 33.3395,61.3299 30.1632,68.6691 C 26.7394,69.6662 22.2245,73.2725 19.48,76.1735 C 16.8033,80.6583 12.9365,88.2206 12.9974,88.3695 z"
             id="path102" />
          <path
             style="fill:#e0e0e0;stroke:none"
             d="M 13.0167,88.2807 C 10.1775,97.2601 10.0025,100.672 10.2613,103.078 C 10.536,106.966 13.2793,110.684 17.0835,112.225 C 17.0293,123.329 19.6493,132.736 25.0544,139.868 C 24.9421,144.629 25.0893,144.332 24.9771,149.093 C 12.341,132.756 10.2786,117.237 8.43351,103.758 C 9.13843,96.5279 14.3423,82.69 16.4619,79.7739 C 17.6291,78.7364 18.4869,78.6909 22.4277,75.105 C 29.5299,62.1309 38.4662,50.1617 58.064,46.9944 C 55.3228,49.3874 55.6942,49.0569 52.9531,51.4499 C 43.6348,53.6687 33.1742,61.0841 30.212,68.6366 C 26.8232,69.6298 22.1498,73.7507 19.4333,76.6402 C 16.7839,81.1072 12.9565,88.1323 13.0167,88.2807 z"
             id="path104" />
          <path
             style="fill:#dbdbdb;stroke:none"
             d="M 13.0361,88.1918 C 10.2261,97.1353 10.0596,100.546 10.2402,102.952 C 10.4202,107.024 13.273,110.794 17.0381,112.328 C 16.9844,123.388 19.6692,132.735 25.0186,139.839 C 24.9075,144.581 25.0991,143.421 24.988,148.163 C 11.7017,130.962 10.9688,115.705 8.40827,103.983 C 9.10593,96.7824 14.9293,81.4076 17.2031,78.6124 C 18.5649,77.4019 19.5656,77.3488 24.1632,73.1653 C 31.1319,61.9406 38.6554,50.443 57.4588,47.5132 C 54.7458,49.8966 55.6642,49.1026 52.9513,51.4861 C 44.4538,53.2754 33.0089,60.8383 30.2608,68.6041 C 26.9069,69.5933 22.0751,74.229 19.3865,77.1069 C 16.7645,81.556 12.9764,88.044 13.0361,88.1918 z"
             id="path106" />
          <path
             style="fill:#d6d6d6;stroke:none"
             d="M 13.0555,88.1029 C 10.2747,97.0106 10.1167,100.421 10.2191,102.826 C 10.3045,107.082 13.2667,110.903 16.9926,112.432 C 16.9395,123.447 19.6891,132.734 24.9828,139.809 C 24.8729,144.532 25.1089,142.511 24.9989,147.234 C 11.0624,129.168 11.659,114.172 8.38303,104.209 C 9.07343,97.0368 15.5163,80.1252 17.9444,77.4508 C 19.5007,76.0674 20.6444,76.0068 25.8988,71.2256 C 32.7339,61.7504 38.8447,50.7243 56.8535,48.0319 C 54.1688,50.4058 55.6342,49.1483 52.9495,51.5222 C 45.2729,52.8822 32.8436,60.5925 30.3097,68.5716 C 26.9906,69.5568 22.0004,74.7072 19.3398,77.5736 C 16.745,82.0049 12.9964,87.9557 13.0555,88.1029 z"
             id="path108" />
          <path
             style="fill:#d1d1d1;stroke:none"
             d="M 13.0748,88.0141 C 10.3233,96.8859 10.1738,100.295 10.198,102.7 C 10.1887,107.139 13.2604,111.012 16.9471,112.535 C 16.8946,123.506 19.709,132.733 24.9471,139.78 C 24.8383,144.484 25.1186,141.601 25.0099,146.304 C 10.4232,127.374 12.3492,112.64 8.35779,104.434 C 9.04092,97.2913 16.1033,78.8427 18.6857,76.2893 C 20.4365,74.733 21.7232,74.6647 27.6343,69.286 C 34.3359,61.5601 39.034,51.0056 56.2483,48.5507 C 53.5918,50.915 55.6042,49.194 52.9478,51.5584 C 46.0919,52.489 32.6783,60.3467 30.3585,68.5391 C 27.0744,69.5203 21.9257,75.1855 19.2931,78.0403 C 16.7256,82.4538 13.0164,87.8674 13.0748,88.0141 z"
             id="path110" />
        </g>
        <path
           style="fill:#cccccc;stroke:none"
           d="M 13.0942,87.9252 C 10.3719,96.7611 10.2308,100.17 10.1768,102.574 C 10.073,107.197 13.2541,111.122 16.9016,112.638 C 16.8496,123.565 19.7289,132.732 24.9113,139.751 C 24.8037,144.435 25.1284,140.69 25.0208,145.375 C 9.78394,125.58 13.0393,111.107 8.33255,104.66 C 9.00842,97.5457 16.6902,77.5603 19.4269,75.1277 C 21.3723,73.3985 22.8019,73.3227 29.3699,67.3463 C 35.9379,61.3698 39.2232,51.2869 55.6431,49.0694 C 53.0148,51.4242 55.5742,49.2398 52.946,51.5946 C 46.9109,52.0957 32.5131,60.1009 30.4073,68.5066 C 27.1581,69.4838 21.851,75.6638 19.2464,78.507 C 16.7061,82.9026 13.0364,87.7792 13.0942,87.9252 z"
           id="path112" />
      </g>
      <g
         id="g114">
        <path
           style="fill:#ffffff;stroke:none"
           d="M 124.332,140.474 C 130.055,131.785 134.782,122.791 134.513,112.267 C 131.67,104.729 128.05,97.361 121.008,90.7416 C 113.721,92.8967 106.435,95.0518 99.1483,97.2068 L 89.8882,125.188 L 103.01,146.866 C 110.234,146.306 118.666,144.321 124.332,140.474 z"
           id="path116" />
        <g
           id="g118">
          <path
             style="fill:#fbfbfb;stroke:none"
             d="M 123.962,139.527 C 129.83,131.224 134.383,122.507 134.161,112.236 C 131.358,104.775 127.878,97.4966 120.935,90.9444 C 113.359,93.2092 106.946,95.0939 99.3694,97.3587 C 93.6507,115.858 96.1055,106.82 90.1229,125.114 C 98.5317,138.948 94.694,132.651 103.103,146.485 C 110.094,145.593 118.148,143.311 123.962,139.527 z"
             id="path120" />
          <path
             style="fill:#f8f8f8;stroke:none"
             d="M 123.593,138.58 C 129.606,130.663 133.983,122.223 133.809,112.206 C 131.047,104.821 127.705,97.6323 120.862,91.1472 C 112.996,93.5218 107.456,95.1361 99.5906,97.5106 C 94.3265,115.856 96.1494,107.106 90.3575,125.041 C 98.4276,138.256 95.1259,132.889 103.196,146.104 C 109.953,144.88 117.63,142.301 123.593,138.58 z"
             id="path122" />
          <path
             style="fill:#f4f4f4;stroke:none"
             d="M 123.224,137.633 C 129.382,130.103 133.584,121.94 133.457,112.176 C 130.735,104.868 127.533,97.768 120.789,91.3501 C 112.633,93.8343 107.967,95.1783 99.8117,97.6625 C 95.0023,115.853 96.1933,107.393 90.5921,124.968 C 98.3235,137.564 95.5579,133.126 103.289,145.722 C 109.812,144.167 117.112,141.29 123.224,137.633 z"
             id="path124" />
          <path
             style="fill:#f1f1f1;stroke:none"
             d="M 122.855,136.686 C 129.157,129.542 133.184,121.656 133.106,112.146 C 130.423,104.914 127.36,97.9036 120.716,91.5529 C 112.271,94.1468 108.478,95.2204 100.033,97.8144 C 95.6781,115.851 96.2372,107.679 90.8267,124.894 C 98.2194,136.872 95.9899,133.363 103.383,145.341 C 109.671,143.455 116.594,140.28 122.855,136.686 z"
             id="path126" />
          <path
             style="fill:#ededed;stroke:none"
             d="M 122.485,135.739 C 128.933,128.981 132.785,121.373 132.754,112.116 C 130.112,104.96 127.188,98.0393 120.643,91.7557 C 111.908,94.4594 108.989,95.2626 100.254,97.9663 C 96.3539,115.849 96.2811,107.965 91.0613,124.821 C 98.1153,136.18 96.4218,133.601 103.476,144.96 C 109.531,142.742 116.076,139.269 122.485,135.739 z"
             id="path128" />
          <path
             style="fill:#eaeaea;stroke:none"
             d="M 122.116,134.792 C 128.709,128.421 132.385,121.089 132.402,112.085 C 129.8,105.006 127.015,98.1749 120.57,91.9585 C 111.545,94.7719 109.5,95.3048 100.475,98.1182 C 97.0297,115.846 96.325,108.251 91.296,124.748 C 98.0113,135.488 96.8538,133.838 103.569,144.579 C 109.39,142.029 115.558,138.259 122.116,134.792 z"
             id="path130" />
          <path
             style="fill:#e7e7e7;stroke:none"
             d="M 121.747,133.845 C 128.484,127.86 131.985,120.805 132.05,112.055 C 129.489,105.053 126.843,98.3106 120.497,92.1613 C 111.182,95.0844 110.01,95.3469 100.696,98.2701 C 97.7055,115.844 96.3689,108.538 91.5306,124.674 C 97.9072,134.796 97.2857,134.075 103.662,144.197 C 109.249,141.316 115.04,137.248 121.747,133.845 z"
             id="path132" />
          <path
             style="fill:#e3e3e3;stroke:none"
             d="M 121.378,132.898 C 128.26,127.3 131.586,120.522 131.699,112.025 C 129.177,105.099 126.67,98.4463 120.424,92.3641 C 110.82,95.397 110.521,95.3891 100.917,98.422 C 98.3813,115.841 96.4127,108.824 91.7652,124.601 C 97.8031,134.104 97.7177,134.313 103.756,143.816 C 109.108,140.603 114.522,136.238 121.378,132.898 z"
             id="path134" />
          <path
             style="fill:#e0e0e0;stroke:none"
             d="M 121.008,131.952 C 128.036,126.739 131.186,120.238 131.347,111.995 C 128.865,105.145 126.498,98.5819 120.351,92.567 C 110.457,95.7095 111.032,95.4313 101.138,98.5739 C 99.0571,115.839 96.4566,109.11 91.9998,124.528 C 97.699,133.413 98.1497,134.55 103.849,143.435 C 108.967,139.89 114.004,135.227 121.008,131.952 z"
             id="path136" />
          <path
             style="fill:#dddddd;stroke:none"
             d="M 120.639,131.005 C 127.811,126.178 130.787,119.954 130.995,111.964 C 128.554,105.191 126.325,98.7176 120.278,92.7698 C 110.094,96.0221 111.543,95.4735 101.359,98.7257 C 99.7329,115.836 96.5005,109.397 92.2344,124.454 C 97.5949,132.721 98.5816,134.787 103.942,143.054 C 108.827,139.178 113.486,134.217 120.639,131.005 z"
             id="path138" />
          <path
             style="fill:#d9d9d9;stroke:none"
             d="M 120.27,130.058 C 127.587,125.618 130.387,119.671 130.643,111.934 C 128.242,105.238 126.153,98.8532 120.205,92.9726 C 109.732,96.3346 112.054,95.5156 101.581,98.8776 C 100.409,115.834 96.5444,109.683 92.4691,124.381 C 97.4908,132.029 99.0136,135.025 104.035,142.672 C 108.686,138.465 112.968,133.207 120.27,130.058 z"
             id="path140" />
          <path
             style="fill:#d6d6d6;stroke:none"
             d="M 119.901,129.111 C 127.363,125.057 129.988,119.387 130.291,111.904 C 127.931,105.284 125.98,98.9889 120.132,93.1754 C 109.369,96.6471 112.564,95.5578 101.802,99.0295 C 101.084,115.832 96.5883,109.969 92.7037,124.308 C 97.3867,131.337 99.4455,135.262 104.129,142.291 C 108.545,137.752 112.45,132.196 119.901,129.111 z"
             id="path142" />
          <path
             style="fill:#d2d2d2;stroke:none"
             d="M 119.531,128.164 C 127.138,124.496 129.588,119.103 129.94,111.874 C 127.619,105.33 125.808,99.1246 120.059,93.3782 C 109.006,96.9597 113.075,95.6 102.023,99.1814 C 101.76,115.829 96.6322,110.255 92.9383,124.234 C 97.2826,130.645 99.8775,135.499 104.222,141.91 C 108.404,137.039 111.932,131.186 119.531,128.164 z"
             id="path144" />
          <path
             style="fill:#cfcfcf;stroke:none"
             d="M 119.162,127.217 C 126.914,123.936 129.188,118.82 129.588,111.844 C 127.307,105.376 125.635,99.2602 119.986,93.5811 C 108.644,97.2722 113.586,95.6421 102.244,99.3333 C 102.436,115.827 96.6761,110.542 93.1729,124.161 C 97.1786,129.953 100.309,135.737 104.315,141.529 C 108.263,136.326 111.414,130.175 119.162,127.217 z"
             id="path146" />
        </g>
        <path
           style="fill:#cccccc;stroke:none"
           d="M 118.793,126.27 C 126.69,123.375 128.789,118.536 129.236,111.813 C 126.996,105.423 125.463,99.3959 119.913,93.7839 L 102.465,99.4852 C 103.112,115.824 96.72,110.828 93.4075,124.088 C 97.0745,129.261 100.741,135.974 104.408,141.147 C 108.123,135.613 110.896,129.165 118.793,126.27 z"
           id="path148" />
      </g>
      <path
         style="fill:#ffffff;stroke:none"
         d="M 143.137,105.466 C 142.147,105.966 141.746,106.225 140.875,107.205 C 140.34,96.7139 137.213,84.4222 128.827,72.5116 C 130.817,73.0694 131.274,73.6273 133.971,74.5453 C 138.773,83.5541 142.479,93.3779 143.137,105.466 z"
         id="path150" />
      <g
         id="g152">
        <path
           style="fill:#000000;stroke:none"
           d="M 143.137,105.466 C 140.262,107.887 137.387,110.307 134.513,112.728 C 131.385,104.449 127.583,97.0272 121.241,91.1716 C 123.323,82.0009 122.605,74.5774 120.227,68.1895 C 124.808,70.3081 129.389,72.4267 133.971,74.5453 C 138.773,83.5541 142.479,93.3779 143.137,105.466 z"
           id="path154" />
        <g
           id="g156">
          <path
             style="fill:#050505;stroke:none"
             d="M 143.137,105.466 C 140.388,107.759 137.392,110.368 134.745,112.323 C 131.882,104.111 128.262,96.5182 122.306,90.9044 C 124.212,82.1963 123.254,74.7094 120.644,68.4642 C 124.75,70.2619 129.515,72.5067 133.971,74.5453 C 138.773,83.5541 142.479,93.3779 143.137,105.466 z"
             id="path158" />
          <path
             style="fill:#0a0a0a;stroke:none"
             d="M 143.137,105.466 C 140.513,107.631 137.396,110.429 134.976,111.918 C 132.379,103.773 128.942,96.0093 123.371,90.6371 C 125.101,82.3918 123.904,74.8415 121.06,68.7388 C 124.693,70.2156 129.641,72.5868 133.971,74.5453 C 138.773,83.5541 142.479,93.3779 143.137,105.466 z"
             id="path160" />
          <path
             style="fill:#0f0f0f;stroke:none"
             d="M 143.137,105.466 C 140.639,107.502 137.4,110.49 135.208,111.513 C 132.877,103.436 129.621,95.5003 124.436,90.3699 C 125.99,82.5873 124.553,74.9735 121.477,69.0135 C 124.635,70.1694 129.766,72.6668 133.971,74.5453 C 138.773,83.5541 142.479,93.3779 143.137,105.466 z"
             id="path162" />
          <path
             style="fill:#141414;stroke:none"
             d="M 143.137,105.466 C 140.765,107.374 137.404,110.551 135.44,111.108 C 133.374,103.098 130.3,94.9913 125.501,90.1026 C 126.879,82.7828 125.203,75.1055 121.894,69.2882 C 124.577,70.1232 129.892,72.7468 133.971,74.5453 C 138.773,83.5541 142.479,93.3779 143.137,105.466 z"
             id="path164" />
          <path
             style="fill:#191919;stroke:none"
             d="M 143.137,105.466 C 140.89,107.246 137.408,110.612 135.671,110.702 C 133.871,102.76 130.979,94.4824 126.566,89.8354 C 127.769,82.9782 125.852,75.2375 122.311,69.5628 C 124.519,70.0769 130.018,72.8269 133.971,74.5453 C 138.773,83.5541 142.479,93.3779 143.137,105.466 z"
             id="path166" />
          <path
             style="fill:#1e1e1e;stroke:none"
             d="M 143.137,105.466 C 141.016,107.118 137.412,110.673 135.903,110.297 C 134.369,102.422 131.658,93.9734 127.631,89.5681 C 128.658,83.1737 126.501,75.3695 122.727,69.8375 C 124.461,70.0307 130.143,72.9069 133.971,74.5453 C 138.773,83.5541 142.479,93.3779 143.137,105.466 z"
             id="path168" />
          <path
             style="fill:#232323;stroke:none"
             d="M 143.137,105.466 C 141.142,106.99 137.416,110.734 136.135,109.892 C 134.866,102.084 132.338,93.4644 128.696,89.3008 C 129.547,83.3692 127.151,75.5015 123.144,70.1122 C 124.404,69.9845 130.269,72.987 133.971,74.5453 C 138.773,83.5541 142.479,93.3779 143.137,105.466 z"
             id="path170" />
          <path
             style="fill:#282828;stroke:none"
             d="M 143.137,105.466 C 141.267,106.862 137.421,110.795 136.366,109.487 C 135.363,101.746 133.017,92.9554 129.761,89.0336 C 130.436,83.5647 127.8,75.6336 123.561,70.3868 C 124.346,69.9382 130.395,73.067 133.971,74.5453 C 138.773,83.5541 142.479,93.3779 143.137,105.466 z"
             id="path172" />
          <path
             style="fill:#2d2d2d;stroke:none"
             d="M 143.137,105.466 C 141.393,106.734 137.425,110.855 136.598,109.082 C 135.861,101.408 133.696,92.4465 130.826,88.7663 C 131.325,83.7601 128.45,75.7656 123.977,70.6615 C 124.288,69.892 130.52,73.147 133.971,74.5453 C 138.773,83.5541 142.479,93.3779 143.137,105.466 z"
             id="path174" />
          <path
             style="fill:#333333;stroke:none"
             d="M 143.137,105.466 C 141.519,106.606 137.429,110.916 136.83,108.677 C 136.358,101.07 134.375,91.9375 131.891,88.4991 C 132.214,83.9556 129.099,75.8976 124.394,70.9362 C 124.23,69.8458 130.646,73.2271 133.971,74.5453 C 138.773,83.5541 142.479,93.3779 143.137,105.466 z"
             id="path176" />
          <path
             style="fill:#383838;stroke:none"
             d="M 143.137,105.466 C 141.644,106.478 137.433,110.977 137.061,108.272 C 136.855,100.732 135.054,91.4285 132.955,88.2318 C 133.103,84.1511 129.748,76.0296 124.811,71.2109 C 124.172,69.7995 130.772,73.3071 133.971,74.5453 C 138.773,83.5541 142.479,93.3779 143.137,105.466 z"
             id="path178" />
          <path
             style="fill:#3d3d3d;stroke:none"
             d="M 143.137,105.466 C 141.77,106.35 137.437,111.038 137.293,107.867 C 137.353,100.394 135.734,90.9196 134.02,87.9646 C 133.992,84.3466 130.398,76.1616 125.228,71.4855 C 124.115,69.7533 130.897,73.3872 133.971,74.5453 C 138.773,83.5541 142.479,93.3779 143.137,105.466 z"
             id="path180" />
          <path
             style="fill:#424242;stroke:none"
             d="M 143.137,105.466 C 141.896,106.222 137.441,111.099 137.525,107.462 C 137.85,100.056 136.413,90.4106 135.085,87.6973 C 134.881,84.542 131.047,76.2936 125.644,71.7602 C 124.057,69.7071 131.023,73.4672 133.971,74.5453 C 138.773,83.5541 142.479,93.3779 143.137,105.466 z"
             id="path182" />
          <path
             style="fill:#474747;stroke:none"
             d="M 143.137,105.466 C 142.021,106.094 137.445,111.16 137.756,107.057 C 138.347,99.7182 137.092,89.9016 136.15,87.4301 C 135.77,84.7375 131.697,76.4257 126.061,72.0349 C 123.999,69.6608 131.149,73.5472 133.971,74.5453 C 138.773,83.5541 142.479,93.3779 143.137,105.466 z"
             id="path184" />
        </g>
        <path
           style="fill:#4c4c4c;stroke:none"
           d="M 143.137,105.466 C 142.147,105.966 137.45,111.221 137.988,106.651 C 138.845,99.3802 137.771,89.3926 137.215,87.1628 C 136.659,84.933 132.346,76.5577 126.478,72.3095 C 123.941,69.6146 131.274,73.6273 133.971,74.5453 C 138.773,83.5541 142.479,93.3779 143.137,105.466 z"
           id="path186" />
        <g
           id="g188">
          <path
             style="fill:#707070;stroke:none"
             d="M 143.123,105.321 C 142.285,105.849 138.55,109.989 138.934,106.462 C 139.591,99.8075 138.513,90.7732 137.736,87.8939 C 136.958,85.0145 133.061,77.1674 127.883,72.7262 C 125.923,70.5863 131.755,73.7884 133.981,74.5389 C 138.762,83.4772 142.519,93.5337 143.123,105.321 z"
             id="path190" />
          <path
             style="fill:#939393;stroke:none"
             d="M 143.109,105.175 C 142.423,105.732 139.651,108.757 139.881,106.273 C 140.338,100.235 139.255,92.1539 138.256,88.6249 C 137.257,85.096 133.776,77.7772 129.289,73.1429 C 127.905,71.558 132.236,73.9496 133.991,74.5324 C 138.751,83.4003 142.56,93.6894 143.109,105.175 z"
             id="path192" />
          <path
             style="fill:#b7b7b7;stroke:none"
             d="M 143.096,105.03 C 142.56,105.616 140.751,107.525 140.827,106.083 C 141.084,100.662 139.997,93.5345 138.777,89.356 C 137.556,85.1775 134.491,78.3869 130.694,73.5596 C 129.886,72.5297 132.716,74.1107 134.002,74.526 C 138.741,83.3234 142.6,93.8451 143.096,105.03 z"
             id="path194" />
          <path
             style="fill:#dbdbdb;stroke:none"
             d="M 143.082,104.884 C 142.698,105.499 141.852,106.293 141.774,105.894 C 141.831,101.089 140.739,94.9151 139.297,90.087 C 137.855,85.259 135.206,78.9967 132.1,73.9763 C 131.868,73.5014 133.197,74.2719 134.012,74.5196 C 138.73,83.2465 142.641,94.0009 143.082,104.884 z"
             id="path196" />
        </g>
        <path
           style="fill:#ffffff;stroke:none"
           d="M 143.068,104.739 L 142.72,105.704 C 142.577,101.517 141.481,96.2957 139.817,90.8181 C 138.154,85.3405 135.921,79.6064 133.505,74.393 L 134.022,74.5131 C 138.719,83.1696 142.681,94.1566 143.068,104.739 z"
           id="path198" />
      </g>
      <g
         id="g200">
        <path
           style="fill:#ffffff;stroke:none"
           d="M 87.4641,43.9404 C 94.3842,46.3743 95.7814,48.6792 97.58,51.233 C 105.779,55.4477 113.191,60.8564 120.227,68.1895 C 124.808,70.2685 129.389,72.3474 133.971,74.4264 C 123.635,58.7283 100.304,45.7921 87.4641,43.9404 z"
           id="path202" />
        <g
           id="g204">
          <path
             style="fill:#fbfbfb;stroke:none"
             d="M 88.2079,44.3123 C 94.7069,46.6508 96.0605,48.8718 97.8112,51.3661 C 105.676,55.3952 113.376,60.9749 120.209,68.1507 C 124.493,69.8601 128.786,71.8345 133.233,73.8084 C 123.019,58.684 100.59,46.1945 88.2079,44.3123 z"
             id="path206" />
          <path
             style="fill:#f8f8f8;stroke:none"
             d="M 88.9517,44.6842 C 95.0296,46.9273 96.3396,49.0644 98.0424,51.4993 C 105.573,55.3428 113.56,61.0934 120.191,68.112 C 124.178,69.4517 128.183,71.3216 132.496,73.1903 C 122.402,58.6397 100.877,46.5969 88.9517,44.6842 z"
             id="path208" />
          <path
             style="fill:#f4f4f4;stroke:none"
             d="M 89.6955,45.0562 C 95.3522,47.2039 96.6186,49.2571 98.2737,51.6325 C 105.469,55.2903 113.745,61.2119 120.173,68.0732 C 123.862,69.0434 127.58,70.8086 131.758,72.5723 C 121.785,58.5954 101.163,46.9993 89.6955,45.0562 z"
             id="path210" />
          <path
             style="fill:#f1f1f1;stroke:none"
             d="M 90.4393,45.4282 C 95.6749,47.4804 96.8977,49.4497 98.5049,51.7657 C 105.366,55.2378 113.93,61.3304 120.155,68.0345 C 123.547,68.635 126.976,70.2957 131.021,71.9543 C 121.168,58.5511 101.45,47.4017 90.4393,45.4282 z"
             id="path212" />
          <path
             style="fill:#ededed;stroke:none"
             d="M 91.1831,45.8001 C 95.9976,47.757 97.1768,49.6423 98.7361,51.8989 C 105.263,55.1853 114.115,61.4489 120.137,67.9957 C 123.232,68.2266 126.373,69.7828 130.283,71.3363 C 120.552,58.5068 101.736,47.8042 91.1831,45.8001 z"
             id="path214" />
          <path
             style="fill:#eaeaea;stroke:none"
             d="M 91.9269,46.1721 C 96.3203,48.0335 97.4558,49.835 98.9673,52.0321 C 105.16,55.1328 114.299,61.5674 120.119,67.9569 C 122.916,67.8183 125.77,69.2699 129.546,70.7183 C 119.935,58.4625 102.023,48.2066 91.9269,46.1721 z"
             id="path216" />
          <path
             style="fill:#e7e7e7;stroke:none"
             d="M 92.6707,46.544 C 96.6429,48.31 97.7349,50.0276 99.1985,52.1653 C 105.057,55.0803 114.484,61.6859 120.101,67.9182 C 122.601,67.4099 125.166,68.757 128.809,70.1002 C 119.318,58.4182 102.309,48.609 92.6707,46.544 z"
             id="path218" />
          <path
             style="fill:#e3e3e3;stroke:none"
             d="M 93.4145,46.916 C 96.9656,48.5866 98.014,50.2203 99.4298,52.2984 C 104.954,55.0278 114.669,61.8045 120.083,67.8794 C 122.285,67.0015 124.563,68.244 128.071,69.4822 C 118.701,58.3739 102.596,49.0114 93.4145,46.916 z"
             id="path220" />
          <path
             style="fill:#e0e0e0;stroke:none"
             d="M 94.1584,47.2879 C 97.2883,48.8631 98.293,50.4129 99.661,52.4316 C 104.85,54.9753 114.854,61.923 120.065,67.8407 C 121.97,66.5932 123.96,67.7311 127.334,68.8642 C 118.085,58.3296 102.882,49.4138 94.1584,47.2879 z"
             id="path222" />
          <path
             style="fill:#dddddd;stroke:none"
             d="M 94.9022,47.6599 C 97.6109,49.1397 98.5721,50.6055 99.8922,52.5648 C 104.747,54.9229 115.038,62.0415 120.047,67.8019 C 121.655,66.1848 123.356,67.2182 126.596,68.2462 C 117.468,58.2852 103.169,49.8162 94.9022,47.6599 z"
             id="path224" />
          <path
             style="fill:#d9d9d9;stroke:none"
             d="M 95.646,48.0318 C 97.9336,49.4162 98.8512,50.7982 100.123,52.698 C 104.644,54.8704 115.223,62.16 120.029,67.7631 C 121.339,65.7765 122.753,66.7053 125.859,67.6281 C 116.851,58.241 103.455,50.2186 95.646,48.0318 z"
             id="path226" />
          <path
             style="fill:#d6d6d6;stroke:none"
             d="M 96.3898,48.4038 C 98.2563,49.6928 99.1302,50.9908 100.355,52.8312 C 104.541,54.8179 115.408,62.2785 120.011,67.7244 C 121.024,65.3681 122.15,66.1923 125.121,67.0101 C 116.235,58.1966 103.742,50.621 96.3898,48.4038 z"
             id="path228" />
          <path
             style="fill:#d2d2d2;stroke:none"
             d="M 97.1336,48.7757 C 98.579,49.9693 99.4093,51.1835 100.586,52.9644 C 104.438,54.7654 115.592,62.397 119.993,67.6856 C 120.709,64.9597 121.547,65.6794 124.384,66.3921 C 115.618,58.1523 104.028,51.0235 97.1336,48.7757 z"
             id="path230" />
          <path
             style="fill:#cfcfcf;stroke:none"
             d="M 97.8774,49.1477 C 98.9016,50.2458 99.6884,51.3761 100.817,53.0976 C 104.334,54.7129 115.777,62.5155 119.975,67.6469 C 120.393,64.5514 120.943,65.1665 123.647,65.7741 C 115.001,58.108 104.315,51.4259 97.8774,49.1477 z"
             id="path232" />
        </g>
        <path
           style="fill:#cccccc;stroke:none"
           d="M 98.6212,49.5196 C 99.2243,50.5224 99.9674,51.5687 101.048,53.2308 C 104.231,54.6604 115.962,62.634 119.957,67.6081 C 120.078,64.143 120.34,64.6536 122.909,65.1561 C 114.384,58.0637 104.601,51.8283 98.6212,49.5196 z"
           id="path234" />
      </g>
      <g
         id="g236">
        <path
           style="fill:#ffffff;stroke:none"
           d="M 89.7088,167.005 C 79.2859,170.711 70.227,169.128 61.2756,167.129 C 55.2018,161.128 49.8683,154.646 47.063,146.522 C 51.7843,139.13 56.5056,131.737 61.2269,124.344 C 71.9154,126.184 81.3811,125.528 90.5884,124.344 C 94.9105,131.485 99.2325,138.625 103.554,145.766 C 100.699,155.001 95.5351,161.408 89.7088,167.005 z"
           id="path238" />
        <g
           id="g240">
          <path
             style="fill:#fbfbfb;stroke:none"
             d="M 88.8838,165.878 C 78.5901,169.661 70.4114,168.771 61.151,166.787 C 55.1242,160.832 49.963,154.517 47.1794,146.456 C 51.8642,139.121 56.572,131.727 61.2567,124.392 C 71.9376,126.588 81.3509,125.555 90.5066,124.448 C 94.7952,131.533 98.9304,138.693 103.219,145.779 C 100.124,154.403 94.7348,160.418 88.8838,165.878 z"
             id="path242" />
          <path
             style="fill:#f8f8f8;stroke:none"
             d="M 88.0588,164.751 C 77.8943,168.611 70.5959,168.413 61.0264,166.445 C 55.0466,160.537 50.0577,154.388 47.2959,146.39 C 51.9441,139.112 56.6383,131.717 61.2865,124.439 C 71.9598,126.993 81.3207,125.581 90.4248,124.552 C 94.6799,131.582 98.6283,138.761 102.883,145.791 C 99.5482,153.806 93.9345,159.428 88.0588,164.751 z"
             id="path244" />
          <path
             style="fill:#f4f4f4;stroke:none"
             d="M 87.2339,163.624 C 77.1986,167.561 70.7803,168.056 60.9018,166.103 C 54.9691,160.241 50.1524,154.259 47.4123,146.324 C 52.0239,139.103 56.7047,131.708 61.3163,124.487 C 71.982,127.397 81.2905,125.608 90.343,124.656 C 94.5646,131.631 98.3262,138.829 102.548,145.804 C 98.9728,153.209 93.1343,158.437 87.2339,163.624 z"
             id="path246" />
          <path
             style="fill:#f1f1f1;stroke:none"
             d="M 86.4089,162.497 C 76.5028,166.511 70.9648,167.698 60.7772,165.761 C 54.8915,159.946 50.2471,154.13 47.5287,146.258 C 52.1038,139.094 56.7711,131.698 61.3461,124.534 C 72.0042,127.802 81.2603,125.635 90.2611,124.76 C 94.4493,131.679 98.0241,138.897 102.212,145.816 C 98.3975,152.611 92.334,157.447 86.4089,162.497 z"
             id="path248" />
          <path
             style="fill:#ededed;stroke:none"
             d="M 85.584,161.37 C 75.807,165.461 71.1492,167.341 60.6526,165.419 C 54.814,159.65 50.3418,154.001 47.6452,146.192 C 52.1837,139.086 56.8374,131.688 61.3759,124.582 C 72.0264,128.206 81.2301,125.662 90.1793,124.864 C 94.334,131.728 97.722,138.965 101.877,145.829 C 97.8221,152.014 91.5337,156.457 85.584,161.37 z"
             id="path250" />
          <path
             style="fill:#eaeaea;stroke:none"
             d="M 84.759,160.244 C 75.1112,164.411 71.3336,166.983 60.5281,165.077 C 54.7364,159.354 50.4366,153.872 47.7616,146.126 C 52.2635,139.077 56.9038,131.678 61.4057,124.629 C 72.0486,128.61 81.1999,125.688 90.0975,124.968 C 94.2187,131.777 97.4199,139.033 101.541,145.842 C 97.2467,151.417 90.7335,155.467 84.759,160.244 z"
             id="path252" />
          <path
             style="fill:#e7e7e7;stroke:none"
             d="M 83.9341,159.117 C 74.4155,163.361 71.5181,166.626 60.4035,164.735 C 54.6589,159.059 50.5313,153.743 47.878,146.06 C 52.3434,139.068 56.9701,131.669 61.4355,124.677 C 72.0708,129.015 81.1697,125.715 90.0157,125.072 C 94.1034,131.825 97.1178,139.101 101.206,145.854 C 96.6713,150.819 89.9332,154.476 83.9341,159.117 z"
             id="path254" />
          <path
             style="fill:#e3e3e3;stroke:none"
             d="M 83.1091,157.99 C 73.7197,162.311 71.7025,166.268 60.2789,164.393 C 54.5813,158.763 50.626,153.614 47.9944,145.994 C 52.4233,139.059 57.0365,131.659 61.4653,124.724 C 72.093,129.419 81.1395,125.742 89.9338,125.176 C 93.9881,131.874 96.8157,139.168 100.87,145.867 C 96.096,150.222 89.1329,153.486 83.1091,157.99 z"
             id="path256" />
          <path
             style="fill:#e0e0e0;stroke:none"
             d="M 82.2842,156.863 C 73.0239,161.261 71.8869,165.911 60.1543,164.051 C 54.5038,158.468 50.7207,153.486 48.1109,145.928 C 52.5032,139.051 57.1029,131.649 61.4951,124.772 C 72.1152,129.824 81.1093,125.769 89.852,125.28 C 93.8728,131.922 96.5136,139.236 100.534,145.879 C 95.5206,149.625 88.3326,152.496 82.2842,156.863 z"
             id="path258" />
          <path
             style="fill:#dddddd;stroke:none"
             d="M 81.4592,155.736 C 72.3281,160.211 72.0714,165.553 60.0297,163.709 C 54.4262,158.172 50.8154,153.357 48.2273,145.862 C 52.583,139.042 57.1692,131.639 61.5249,124.819 C 72.1374,130.228 81.0791,125.796 89.7702,125.383 C 93.7575,131.971 96.2116,139.304 100.199,145.892 C 94.9452,149.027 87.5324,151.506 81.4592,155.736 z"
             id="path260" />
          <path
             style="fill:#d9d9d9;stroke:none"
             d="M 80.6343,154.61 C 71.6323,159.16 72.2558,165.196 59.9051,163.367 C 54.3486,157.877 50.9101,153.228 48.3437,145.796 C 52.6629,139.033 57.2356,131.63 61.5547,124.867 C 72.1596,130.632 81.0489,125.822 89.6884,125.487 C 93.6422,132.02 95.9095,139.372 99.8633,145.905 C 94.3699,148.43 86.7321,150.516 80.6343,154.61 z"
             id="path262" />
          <path
             style="fill:#d6d6d6;stroke:none"
             d="M 79.8093,153.483 C 70.9366,158.11 72.4403,164.839 59.7805,163.025 C 54.2711,157.581 51.0048,153.099 48.4602,145.73 C 52.7428,139.024 57.3019,131.62 61.5845,124.914 C 72.1818,131.037 81.0187,125.849 89.6065,125.591 C 93.5269,132.068 95.6074,139.44 99.5278,145.917 C 93.7945,147.833 85.9318,149.525 79.8093,153.483 z"
             id="path264" />
          <path
             style="fill:#d2d2d2;stroke:none"
             d="M 78.9844,152.356 C 70.2408,157.06 72.6247,164.481 59.6559,162.683 C 54.1935,157.286 51.0995,152.97 48.5766,145.664 C 52.8226,139.015 57.3683,131.61 61.6143,124.962 C 72.204,131.441 80.9885,125.876 89.5247,125.695 C 93.4116,132.117 95.3053,139.508 99.1922,145.93 C 93.2191,147.235 85.1316,148.535 78.9844,152.356 z"
             id="path266" />
          <path
             style="fill:#cfcfcf;stroke:none"
             d="M 78.1594,151.229 C 69.545,156.01 72.8091,164.124 59.5314,162.341 C 54.116,156.99 51.1942,152.841 48.693,145.598 C 52.9025,139.007 57.4346,131.601 61.6441,125.009 C 72.2262,131.845 80.9583,125.903 89.4429,125.799 C 93.2963,132.166 95.0032,139.576 98.8567,145.942 C 92.6437,146.638 84.3313,147.545 78.1594,151.229 z"
             id="path268" />
        </g>
        <path
           style="fill:#cccccc;stroke:none"
           d="M 77.3344,150.102 C 68.8492,154.96 72.9936,163.766 59.4068,161.999 C 54.0384,156.695 51.2889,152.712 48.8094,145.532 C 52.9824,138.998 57.501,131.591 61.6739,125.057 C 72.2484,132.25 80.9281,125.93 89.3611,125.903 C 93.181,132.214 94.7011,139.644 98.5211,145.955 C 92.0684,146.041 83.531,146.555 77.3344,150.102 z"
           id="path270" />
      </g>
      <g
         id="g272">
        <path
           style="fill:#ffffff;stroke:none"
           d="M 89.7852,167.017 C 80.1082,169.972 70.7457,169.512 61.7607,167.014 C 58.1233,169 54.2343,171.112 50.597,173.097 C 67.5104,179.271 84.5452,179.992 101.756,172.804 C 96.7339,171.717 93.3623,169.283 89.7852,167.017 z"
           id="path274" />
        <g
           id="g276">
          <path
             style="fill:#f9f9f9;stroke:none"
             d="M 89.7055,167.036 C 80.5301,170.011 70.6,169.548 61.7895,167.048 C 58.2244,168.959 55.0467,171.289 52.1572,173.158 C 67.7634,178.797 83.8626,179.55 99.8535,172.883 C 95.8345,171.706 93.2115,169.217 89.7055,167.036 z"
             id="path278" />
          <path
             style="fill:#f4f4f4;stroke:none"
             d="M 89.6257,167.055 C 80.9521,170.05 70.4542,169.583 61.8183,167.081 C 58.3254,168.917 55.859,171.467 53.7175,173.22 C 68.0165,178.323 83.1801,179.109 97.9508,172.961 C 94.935,171.694 93.0608,169.151 89.6257,167.055 z"
             id="path280" />
          <path
             style="fill:#efefef;stroke:none"
             d="M 89.546,167.073 C 81.374,170.09 70.3085,169.618 61.8472,167.114 C 58.4265,168.876 56.6713,171.645 55.2777,173.281 C 68.2695,177.849 82.4975,178.667 96.0482,173.04 C 94.0356,171.683 92.91,169.085 89.546,167.073 z"
             id="path282" />
          <path
             style="fill:#eaeaea;stroke:none"
             d="M 89.4662,167.092 C 81.7959,170.129 70.1627,169.653 61.876,167.147 C 58.5276,168.835 57.4837,171.823 56.8379,173.342 C 68.5226,177.374 81.815,178.226 94.1455,173.118 C 93.1362,171.671 92.7592,169.019 89.4662,167.092 z"
             id="path284" />
          <path
             style="fill:#e5e5e5;stroke:none"
             d="M 89.3864,167.111 C 82.2179,170.168 70.017,169.689 61.9049,167.18 C 58.6287,168.793 58.296,172.001 58.3981,173.403 C 68.7756,176.9 81.1324,177.784 92.2429,173.197 C 92.2367,171.66 92.6084,168.952 89.3864,167.111 z"
             id="path286" />
          <path
             style="fill:#e0e0e0;stroke:none"
             d="M 89.3067,167.13 C 82.6398,170.208 69.8712,169.724 61.9337,167.213 C 58.7297,168.752 59.1083,172.179 59.9583,173.465 C 69.0286,176.426 80.4499,177.343 90.3402,173.275 C 91.3373,171.648 92.4576,168.886 89.3067,167.13 z"
             id="path288" />
          <path
             style="fill:#dbdbdb;stroke:none"
             d="M 89.2269,167.149 C 83.0617,170.247 69.7255,169.759 61.9625,167.246 C 58.8308,168.71 59.9206,172.357 61.5186,173.526 C 69.2817,175.951 79.7673,176.901 88.4376,173.354 C 90.4379,171.636 92.3068,168.82 89.2269,167.149 z"
             id="path290" />
          <path
             style="fill:#d6d6d6;stroke:none"
             d="M 89.1472,167.168 C 83.4837,170.286 69.5798,169.795 61.9914,167.279 C 58.9319,168.669 60.733,172.534 63.0788,173.587 C 69.5347,175.477 79.0848,176.46 86.5349,173.432 C 89.5384,171.625 92.156,168.754 89.1472,167.168 z"
             id="path292" />
          <path
             style="fill:#d1d1d1;stroke:none"
             d="M 89.0674,167.187 C 83.9056,170.326 69.434,169.83 62.0202,167.312 C 59.033,168.628 61.5453,172.712 64.639,173.648 C 69.7878,175.003 78.4022,176.018 84.6323,173.511 C 88.639,171.613 92.0052,168.688 89.0674,167.187 z"
             id="path294" />
        </g>
        <path
           style="fill:#cccccc;stroke:none"
           d="M 88.9877,167.206 C 84.3275,170.365 69.2883,169.865 62.0491,167.346 C 59.134,168.586 62.3576,172.89 66.1992,173.709 C 70.0408,174.529 77.7197,175.576 82.7296,173.589 C 87.7396,171.602 91.8544,168.622 88.9877,167.206 z"
           id="path296" />
      </g>
      <g
         id="g298">
        <path
           style="fill:#000000;stroke:none"
           d="M 47.3749,146.648 C 50.4584,154.641 55.4538,161.269 61.509,167.14 C 57.8717,169.126 54.2343,171.112 50.597,173.097 C 42.5341,169.297 34.433,165.317 24.9114,154.669 C 25.0306,149.794 25.1497,144.92 25.2689,140.045 C 32.3221,144.016 39.7266,146.016 47.3749,146.648 z"
           id="path300" />
        <g
           id="g302">
          <path
             style="fill:#080808;stroke:none"
             d="M 46.6924,147.37 C 50.0985,155.335 54.8244,161.603 60.8324,167.28 C 57.5334,169.228 54.2068,171.125 50.5966,173.083 C 42.3408,169.193 34.3641,165.188 24.9289,154.654 C 25.047,149.83 25.1537,145.432 25.2718,140.609 C 32.1919,144.519 38.9497,146.399 46.6924,147.37 z"
             id="path304" />
          <path
             style="fill:#111111;stroke:none"
             d="M 46.0099,148.092 C 49.7386,156.028 54.195,161.936 60.1558,167.421 C 57.1952,169.331 54.1793,171.138 50.5962,173.07 C 42.1475,169.09 34.2953,165.059 24.9464,154.638 C 25.0634,149.867 25.1577,145.944 25.2747,141.173 C 32.0617,145.021 38.1728,146.782 46.0099,148.092 z"
             id="path306" />
          <path
             style="fill:#1a1a1a;stroke:none"
             d="M 45.3274,148.814 C 49.3787,156.721 53.5656,162.269 59.4792,167.561 C 56.8569,169.433 54.1517,171.151 50.5958,173.056 C 41.9543,168.986 34.2264,164.93 24.9638,154.622 C 25.0797,149.903 25.1617,146.456 25.2776,141.737 C 31.9315,145.523 37.3959,147.165 45.3274,148.814 z"
             id="path308" />
          <path
             style="fill:#232323;stroke:none"
             d="M 44.6449,149.536 C 49.0188,157.414 52.9361,162.602 58.8026,167.701 C 56.5186,169.536 54.1242,171.164 50.5954,173.042 C 41.761,168.883 34.1575,164.801 24.9813,154.606 C 25.0961,149.939 25.1657,146.969 25.2805,142.301 C 31.8013,146.025 36.6191,147.548 44.6449,149.536 z"
             id="path310" />
          <path
             style="fill:#2c2c2c;stroke:none"
             d="M 43.9624,150.258 C 48.6589,158.107 52.3067,162.935 58.126,167.841 C 56.1804,169.638 54.0967,171.178 50.5949,173.028 C 41.5677,168.779 34.0886,164.672 24.9988,154.59 C 25.1125,149.975 25.1697,147.481 25.2835,142.865 C 31.671,146.528 35.8422,147.931 43.9624,150.258 z"
             id="path312" />
          <path
             style="fill:#353535;stroke:none"
             d="M 43.2799,150.98 C 48.299,158.8 51.6773,163.268 57.4494,167.981 C 55.8421,169.74 54.0691,171.191 50.5945,173.014 C 41.3744,168.676 34.0197,164.543 25.0162,154.574 C 25.1289,150.011 25.1737,147.993 25.2864,143.43 C 31.5408,147.03 35.0653,148.314 43.2799,150.98 z"
             id="path314" />
          <path
             style="fill:#3e3e3e;stroke:none"
             d="M 42.5974,151.702 C 47.9391,159.493 51.0479,163.601 56.7728,168.121 C 55.5039,169.843 54.0416,171.204 50.5941,173.001 C 41.1811,168.572 33.9509,164.414 25.0337,154.559 C 25.1453,150.047 25.1777,148.506 25.2893,143.994 C 31.4106,147.532 34.2884,148.696 42.5974,151.702 z"
             id="path316" />
          <path
             style="fill:#474747;stroke:none"
             d="M 41.9148,152.424 C 47.5792,160.186 50.4185,163.934 56.0962,168.261 C 55.1656,169.945 54.0141,171.217 50.5937,172.987 C 40.9879,168.469 33.882,164.285 25.0512,154.543 C 25.1617,150.083 25.1817,149.018 25.2922,144.558 C 31.2804,148.035 33.5115,149.079 41.9148,152.424 z"
             id="path318" />
          <path
             style="fill:#505050;stroke:none"
             d="M 41.2323,153.146 C 47.2193,160.88 49.789,164.268 55.4196,168.401 C 54.8273,170.048 53.9865,171.23 50.5933,172.973 C 40.7946,168.365 33.8131,164.156 25.0687,154.527 C 25.1781,150.119 25.1856,149.53 25.2951,145.122 C 31.1502,148.537 32.7346,149.462 41.2323,153.146 z"
             id="path320" />
          <path
             style="fill:#595959;stroke:none"
             d="M 40.5498,153.868 C 46.8595,161.573 49.1596,164.601 54.743,168.542 C 54.4891,170.15 53.959,171.244 50.5929,172.959 C 40.6013,168.262 33.7442,164.027 25.0861,154.511 C 25.1945,150.155 25.1896,150.043 25.298,145.686 C 31.02,149.039 31.9578,149.845 40.5498,153.868 z"
             id="path322" />
          <path
             style="fill:#626262;stroke:none"
             d="M 39.8673,154.59 C 46.4996,162.266 48.5302,164.934 54.0663,168.682 C 54.1508,170.252 53.9315,171.257 50.5924,172.946 C 40.408,168.158 33.6753,163.897 25.1036,154.495 C 25.2108,150.191 25.1936,150.555 25.3009,146.251 C 30.8898,149.542 31.1809,150.228 39.8673,154.59 z"
             id="path324" />
          <path
             style="fill:#6b6b6b;stroke:none"
             d="M 39.1848,155.312 C 46.1397,162.959 47.9008,165.267 53.3897,168.822 C 53.8125,170.355 53.9039,171.27 50.592,172.932 C 40.2148,168.055 33.6065,163.768 25.1211,154.479 C 25.2272,150.227 25.1976,151.067 25.3038,146.815 C 30.7595,150.044 30.404,150.611 39.1848,155.312 z"
             id="path326" />
          <path
             style="fill:#747474;stroke:none"
             d="M 38.5023,156.034 C 45.7798,163.652 47.2714,165.6 52.7131,168.962 C 53.4743,170.457 53.8764,171.283 50.5916,172.918 C 40.0215,167.951 33.5376,163.639 25.1385,154.464 C 25.2436,150.263 25.2016,151.58 25.3067,147.379 C 30.6293,150.546 29.6271,150.993 38.5023,156.034 z"
             id="path328" />
          <path
             style="fill:#7c7c7c;stroke:none"
             d="M 37.8198,156.756 C 45.4199,164.345 46.6419,165.933 52.0365,169.102 C 53.136,170.56 53.8489,171.296 50.5912,172.904 C 39.8282,167.848 33.4687,163.51 25.156,154.448 C 25.26,150.299 25.2056,152.092 25.3096,147.943 C 30.4991,151.048 28.8502,151.376 37.8198,156.756 z"
             id="path330" />
          <path
             style="fill:#858585;stroke:none"
             d="M 37.1373,157.478 C 45.06,165.038 46.0125,166.266 51.3599,169.242 C 52.7977,170.662 53.8213,171.31 50.5908,172.89 C 39.6349,167.744 33.3998,163.381 25.1735,154.432 C 25.2764,150.335 25.2096,152.604 25.3125,148.507 C 30.3689,151.551 28.0733,151.759 37.1373,157.478 z"
             id="path332" />
          <path
             style="fill:#8e8e8e;stroke:none"
             d="M 36.4548,158.2 C 44.7001,165.731 45.3831,166.599 50.6833,169.382 C 52.4595,170.764 53.7938,171.323 50.5904,172.877 C 39.4417,167.641 33.3309,163.252 25.1909,154.416 C 25.2928,150.371 25.2136,153.117 25.3154,149.071 C 30.2387,152.053 27.2965,152.142 36.4548,158.2 z"
             id="path334" />
          <path
             style="fill:#979797;stroke:none"
             d="M 35.7722,158.922 C 44.3402,166.425 44.7537,166.933 50.0067,169.522 C 52.1212,170.867 53.7663,171.336 50.59,172.863 C 39.2484,167.537 33.2621,163.123 25.2084,154.4 C 25.3092,150.407 25.2176,153.629 25.3183,149.636 C 30.1085,152.555 26.5196,152.525 35.7722,158.922 z"
             id="path336" />
          <path
             style="fill:#a0a0a0;stroke:none"
             d="M 35.0897,159.645 C 43.9803,167.118 44.1243,167.266 49.3301,169.663 C 51.7829,170.969 53.7387,171.349 50.5895,172.849 C 39.0551,167.434 33.1932,162.994 25.2259,154.384 C 25.3256,150.443 25.2215,154.141 25.3212,150.2 C 29.9783,153.058 25.7427,152.908 35.0897,159.645 z"
             id="path338" />
          <path
             style="fill:#a9a9a9;stroke:none"
             d="M 34.4072,160.367 C 43.6204,167.811 43.4948,167.599 48.6535,169.803 C 51.4447,171.072 53.7112,171.362 50.5891,172.835 C 38.8618,167.33 33.1243,162.865 25.2433,154.369 C 25.3419,150.479 25.2255,154.654 25.3242,150.764 C 29.848,153.56 24.9658,153.29 34.4072,160.367 z"
             id="path340" />
        </g>
        <path
           style="fill:#b2b2b2;stroke:none"
           d="M 33.7247,161.089 C 43.2605,168.504 42.8654,167.932 47.9769,169.943 C 51.1064,171.174 53.6837,171.376 50.5887,172.822 C 38.6685,167.227 33.0554,162.736 25.2608,154.353 C 25.3583,150.515 25.2295,155.166 25.3271,151.328 C 29.7178,154.062 24.1889,153.673 33.7247,161.089 z"
           id="path342" />
      </g>
      <g
         id="g344">
        <path
           style="fill:#000000;stroke:none"
           d="M 89.7852,167.017 C 97.3158,160.33 101.052,153.187 103.554,145.896 C 111.116,145.274 118.138,143.275 124.508,139.614 C 127.658,143.747 126.497,150.195 124.03,157.344 C 118.175,163.922 110.271,168.639 101.756,172.804 C 97.5836,171.805 93.6638,169.516 89.7852,167.017 z"
           id="path346" />
        <g
           id="g348">
          <path
             style="fill:#080808;stroke:none"
             d="M 90.2478,167.208 C 97.6192,160.829 101.329,153.992 104.067,146.787 C 111.611,145.917 118.325,143.956 124.538,140.233 C 127.511,144.263 126.382,150.496 124.015,157.347 C 118.258,163.815 110.203,168.679 101.791,172.769 C 97.7247,171.799 94.0398,169.621 90.2478,167.208 z"
             id="path350" />
          <path
             style="fill:#111111;stroke:none"
             d="M 90.7103,167.399 C 97.9225,161.329 101.606,154.797 104.58,147.678 C 112.106,146.561 118.512,144.638 124.568,140.853 C 127.364,144.779 126.267,150.797 124,157.35 C 118.34,163.709 110.135,168.72 101.827,172.734 C 97.8658,171.793 94.4157,169.727 90.7103,167.399 z"
             id="path352" />
          <path
             style="fill:#1a1a1a;stroke:none"
             d="M 91.1729,167.59 C 98.2259,161.829 101.883,155.602 105.092,148.569 C 112.601,147.204 118.699,145.32 124.598,141.472 C 127.217,145.295 126.153,151.098 123.986,157.352 C 118.423,163.602 110.067,168.76 101.862,172.699 C 98.0069,171.787 94.7917,169.832 91.1729,167.59 z"
             id="path354" />
          <path
             style="fill:#232323;stroke:none"
             d="M 91.6355,167.781 C 98.5293,162.329 102.16,156.407 105.605,149.46 C 113.097,147.848 118.887,146.002 124.628,142.091 C 127.07,145.811 126.038,151.399 123.971,157.355 C 118.505,163.496 109.999,168.8 101.898,172.665 C 98.1481,171.781 95.1677,169.937 91.6355,167.781 z"
             id="path356" />
          <path
             style="fill:#2c2c2c;stroke:none"
             d="M 92.098,167.972 C 98.8326,162.828 102.437,157.212 106.117,150.35 C 113.592,148.491 119.074,146.683 124.658,142.71 C 126.924,146.327 125.924,151.7 123.956,157.358 C 118.588,163.389 109.931,168.84 101.933,172.63 C 98.2892,171.775 95.5437,170.043 92.098,167.972 z"
             id="path358" />
          <path
             style="fill:#353535;stroke:none"
             d="M 92.5606,168.163 C 99.136,163.328 102.714,158.017 106.63,151.241 C 114.087,149.135 119.261,147.365 124.688,143.329 C 126.777,146.843 125.809,152.002 123.941,157.361 C 118.67,163.283 109.863,168.88 101.968,172.595 C 98.4303,171.769 95.9197,170.148 92.5606,168.163 z"
             id="path360" />
          <path
             style="fill:#3e3e3e;stroke:none"
             d="M 93.0231,168.354 C 99.4393,163.828 102.991,158.822 107.142,152.132 C 114.582,149.778 119.448,148.047 124.718,143.949 C 126.63,147.359 125.695,152.303 123.926,157.364 C 118.752,163.177 109.795,168.921 102.004,172.56 C 98.5715,171.763 96.2956,170.253 93.0231,168.354 z"
             id="path362" />
          <path
             style="fill:#474747;stroke:none"
             d="M 93.4857,168.545 C 99.7427,164.328 103.268,159.627 107.655,153.023 C 115.077,150.421 119.636,148.728 124.748,144.568 C 126.483,147.876 125.58,152.604 123.911,157.367 C 118.835,163.07 109.727,168.961 102.039,172.525 C 98.7126,171.757 96.6716,170.359 93.4857,168.545 z"
             id="path364" />
          <path
             style="fill:#505050;stroke:none"
             d="M 93.9482,168.736 C 100.046,164.827 103.545,160.432 108.168,153.914 C 115.572,151.065 119.823,149.41 124.778,145.187 C 126.336,148.392 125.466,152.905 123.897,157.37 C 118.917,162.964 109.659,169.001 102.075,172.49 C 98.8537,171.751 97.0476,170.464 93.9482,168.736 z"
             id="path366" />
          <path
             style="fill:#595959;stroke:none"
             d="M 94.4108,168.927 C 100.349,165.327 103.822,161.237 108.68,154.805 C 116.068,151.708 120.01,150.092 124.808,145.806 C 126.189,148.908 125.351,153.206 123.882,157.372 C 119,162.857 109.591,169.041 102.11,172.455 C 98.9948,171.746 97.4236,170.569 94.4108,168.927 z"
             id="path368" />
          <path
             style="fill:#626262;stroke:none"
             d="M 94.8734,169.118 C 100.653,165.827 104.099,162.042 109.193,155.696 C 116.563,152.352 120.197,150.774 124.838,146.425 C 126.043,149.424 125.236,153.507 123.867,157.375 C 119.082,162.751 109.523,169.081 102.145,172.421 C 99.136,171.74 97.7996,170.675 94.8734,169.118 z"
             id="path370" />
          <path
             style="fill:#6b6b6b;stroke:none"
             d="M 95.3359,169.309 C 100.956,166.327 104.376,162.847 109.705,156.587 C 117.058,152.995 120.385,151.455 124.868,147.045 C 125.896,149.94 125.122,153.808 123.852,157.378 C 119.165,162.644 109.455,169.122 102.181,172.386 C 99.2771,171.734 98.1755,170.78 95.3359,169.309 z"
             id="path372" />
          <path
             style="fill:#747474;stroke:none"
             d="M 95.7985,169.5 C 101.26,166.826 104.653,163.652 110.218,157.478 C 117.553,153.639 120.572,152.137 124.898,147.664 C 125.749,150.456 125.007,154.11 123.837,157.381 C 119.247,162.538 109.387,169.162 102.216,172.351 C 99.4182,171.728 98.5515,170.885 95.7985,169.5 z"
             id="path374" />
          <path
             style="fill:#7c7c7c;stroke:none"
             d="M 96.261,169.691 C 101.563,167.326 104.93,164.457 110.73,158.369 C 118.048,154.282 120.759,152.819 124.928,148.283 C 125.602,150.972 124.893,154.411 123.822,157.384 C 119.329,162.432 109.319,169.202 102.251,172.316 C 99.5594,171.722 98.9275,170.991 96.261,169.691 z"
             id="path376" />
          <path
             style="fill:#858585;stroke:none"
             d="M 96.7236,169.882 C 101.866,167.826 105.207,165.262 111.243,159.26 C 118.543,154.926 120.947,153.5 124.958,148.902 C 125.455,151.488 124.778,154.712 123.808,157.387 C 119.412,162.325 109.251,169.242 102.287,172.281 C 99.7005,171.716 99.3035,171.096 96.7236,169.882 z"
             id="path378" />
          <path
             style="fill:#8e8e8e;stroke:none"
             d="M 97.1862,170.073 C 102.17,168.326 105.484,166.067 111.755,160.151 C 119.039,155.569 121.134,154.182 124.988,149.522 C 125.309,152.005 124.664,155.013 123.793,157.389 C 119.494,162.219 109.183,169.282 102.322,172.246 C 99.8416,171.71 99.6795,171.201 97.1862,170.073 z"
             id="path380" />
          <path
             style="fill:#979797;stroke:none"
             d="M 97.6487,170.264 C 102.473,168.825 105.761,166.872 112.268,161.042 C 119.534,156.213 121.321,154.864 125.018,150.141 C 125.162,152.521 124.549,155.314 123.778,157.392 C 119.577,162.112 109.115,169.322 102.358,172.211 C 99.9827,171.704 100.055,171.307 97.6487,170.264 z"
             id="path382" />
          <path
             style="fill:#a0a0a0;stroke:none"
             d="M 98.1113,170.455 C 102.776,169.325 106.038,167.677 112.781,161.933 C 120.029,156.856 121.508,155.546 125.048,150.76 C 125.015,153.037 124.435,155.615 123.763,157.395 C 119.659,162.006 109.047,169.363 102.393,172.177 C 100.124,171.698 100.431,171.412 98.1113,170.455 z"
             id="path384" />
          <path
             style="fill:#a9a9a9;stroke:none"
             d="M 98.5738,170.646 C 103.08,169.825 106.315,168.482 113.293,162.824 C 120.524,157.499 121.696,156.227 125.078,151.379 C 124.868,153.553 124.32,155.916 123.748,157.398 C 119.742,161.899 108.979,169.403 102.428,172.142 C 100.265,171.692 100.807,171.517 98.5738,170.646 z"
             id="path386" />
        </g>
        <path
           style="fill:#b2b2b2;stroke:none"
           d="M 99.0364,170.837 C 103.383,170.325 106.592,169.287 113.806,163.715 C 121.019,158.143 121.883,156.909 125.108,151.998 C 124.721,154.069 124.205,156.218 123.733,157.401 C 119.824,161.793 108.911,169.443 102.464,172.107 C 100.406,171.686 101.183,171.623 99.0364,170.837 z"
           id="path388" />
      </g>
      <g
         id="g390">
        <path
           style="fill:#ffffff;stroke:none"
           d="M 143.134,104.769 C 140.197,107.163 137.26,109.557 134.323,111.951 C 134.49,121.421 130.148,130.727 124.102,139.89 C 127.568,144.426 125.49,151.133 123.613,157.761 C 135.558,144.576 144.474,128.897 143.134,104.769 z"
           id="path392" />
        <g
           id="g394">
          <path
             style="fill:#f9f9f9;stroke:none"
             d="M 143.129,105.073 C 140.254,107.431 137.417,109.774 134.581,112.171 C 134.759,121.598 130.509,130.796 124.527,139.821 C 127.92,144.289 125.8,150.757 123.963,157.286 C 135.642,144.261 144.348,128.839 143.129,105.073 z"
             id="path396" />
          <path
             style="fill:#f4f4f4;stroke:none"
             d="M 143.125,105.378 C 140.311,107.7 137.575,109.992 134.839,112.391 C 135.029,121.776 130.869,130.864 124.952,139.753 C 128.273,144.152 126.111,150.382 124.313,156.811 C 135.726,143.945 144.222,128.782 143.125,105.378 z"
             id="path398" />
          <path
             style="fill:#efefef;stroke:none"
             d="M 143.121,105.682 C 140.368,107.969 137.732,110.209 135.096,112.611 C 135.299,121.953 131.23,130.933 125.377,139.684 C 128.625,144.016 126.421,150.007 124.663,156.336 C 135.811,143.63 144.097,128.725 143.121,105.682 z"
             id="path400" />
          <path
             style="fill:#eaeaea;stroke:none"
             d="M 143.116,105.987 C 140.425,108.237 137.89,110.427 135.354,112.83 C 135.569,122.131 131.59,131.002 125.801,139.615 C 128.978,143.879 126.732,149.631 125.012,155.862 C 135.895,143.315 143.971,128.667 143.116,105.987 z"
             id="path402" />
          <path
             style="fill:#e5e5e5;stroke:none"
             d="M 143.112,106.291 C 140.482,108.506 138.047,110.644 135.612,113.05 C 135.838,122.308 131.951,131.07 126.226,139.546 C 129.33,143.742 127.042,149.256 125.362,155.387 C 135.979,142.999 143.845,128.61 143.112,106.291 z"
             id="path404" />
          <path
             style="fill:#e0e0e0;stroke:none"
             d="M 143.107,106.596 C 140.539,108.775 138.204,110.861 135.869,113.27 C 136.108,122.486 132.311,131.139 126.651,139.477 C 129.683,143.605 127.353,148.88 125.712,154.912 C 136.063,142.684 143.72,128.553 143.107,106.596 z"
             id="path406" />
          <path
             style="fill:#dbdbdb;stroke:none"
             d="M 143.103,106.9 C 140.596,109.043 138.362,111.079 136.127,113.49 C 136.378,122.663 132.672,131.207 127.076,139.409 C 130.035,143.468 127.663,148.505 126.061,154.437 C 136.147,142.368 143.594,128.496 143.103,106.9 z"
             id="path408" />
          <path
             style="fill:#d6d6d6;stroke:none"
             d="M 143.099,107.205 C 140.653,109.312 138.519,111.296 136.385,113.71 C 136.648,122.841 133.032,131.276 127.501,139.34 C 130.387,143.332 127.974,148.13 126.411,153.962 C 136.232,142.053 143.468,128.438 143.099,107.205 z"
             id="path410" />
          <path
             style="fill:#d1d1d1;stroke:none"
             d="M 143.094,107.51 C 140.711,109.581 138.677,111.514 136.643,113.93 C 136.917,123.018 133.393,131.345 127.926,139.271 C 130.74,143.195 128.284,147.754 126.761,153.488 C 136.316,141.738 143.343,128.381 143.094,107.51 z"
             id="path412" />
        </g>
        <path
           style="fill:#cccccc;stroke:none"
           d="M 143.09,107.814 C 140.768,109.849 138.834,111.731 136.9,114.149 C 137.187,123.196 133.753,131.413 128.351,139.202 C 131.092,143.058 128.595,147.379 127.111,153.013 C 136.4,141.422 143.217,128.324 143.09,107.814 z"
           id="path414" />
      </g>
      <g
         id="g416">
        <path
           style="fill:#ffffff;stroke:none"
           d="M 61.4606,124.592 L 47.3749,146.648 C 39.4397,146.181 32.1164,143.841 25.2689,140.045 C 18.9247,132.457 17.2029,122.51 17.3564,111.606 C 20.4779,104.007 23.7234,96.4658 30.639,90.6536 C 38.0065,92.654 45.3739,94.6545 52.7414,96.6549 C 53.593,106.129 56.7408,115.422 61.4606,124.592 z"
           id="path418" />
        <g
           id="g420">
          <path
             style="fill:#f9f9f9;stroke:none"
             d="M 61.3255,124.44 L 47.4387,146.105 C 39.5394,145.646 32.2493,143.339 25.4329,139.596 C 19.1173,132.117 17.5615,122.619 17.8804,111.888 C 20.8283,104.346 23.9159,97.1801 30.5193,91.7318 C 37.5939,93.4227 45.3063,94.9353 52.6404,96.9072 C 53.4882,106.246 56.7189,115.574 61.3255,124.44 z"
             id="path422" />
          <path
             style="fill:#f4f4f4;stroke:none"
             d="M 61.1904,124.288 L 47.5025,145.563 C 39.6392,145.11 32.3823,142.837 25.5968,139.148 C 19.31,131.777 17.92,122.728 18.4044,112.17 C 21.1787,104.685 24.1085,97.8944 30.3995,92.8101 C 37.1814,94.1915 45.2387,95.2162 52.5394,97.1595 C 53.3833,106.363 56.6971,115.726 61.1904,124.288 z"
             id="path424" />
          <path
             style="fill:#efefef;stroke:none"
             d="M 61.0553,124.136 L 47.5663,145.021 C 39.7389,144.574 32.5152,142.334 25.7607,138.7 C 19.5027,131.437 18.2786,122.836 18.9284,112.452 C 21.5291,105.024 24.301,98.6087 30.2797,93.8884 C 36.7689,94.9602 45.171,95.497 52.4384,97.4118 C 53.2785,106.48 56.6752,115.878 61.0553,124.136 z"
             id="path426" />
          <path
             style="fill:#eaeaea;stroke:none"
             d="M 60.9202,123.985 L 47.6301,144.478 C 39.8387,144.038 32.6481,141.832 25.9246,138.252 C 19.6953,131.097 18.6371,122.945 19.4524,112.734 C 21.8794,105.363 24.4936,99.3231 30.1599,94.9667 C 36.3564,95.7289 45.1034,95.7779 52.3373,97.6641 C 53.1736,106.597 56.6534,116.03 60.9202,123.985 z"
             id="path428" />
          <path
             style="fill:#e5e5e5;stroke:none"
             d="M 60.7852,123.833 L 47.694,143.936 C 39.9384,143.503 32.781,141.33 26.0886,137.804 C 19.888,130.758 18.9957,123.054 19.9764,113.016 C 22.2298,105.702 24.6861,100.037 30.0402,96.045 C 35.9438,96.4977 45.0358,96.0587 52.2363,97.9164 C 53.0687,106.714 56.6315,116.182 60.7852,123.833 z"
             id="path430" />
          <path
             style="fill:#e0e0e0;stroke:none"
             d="M 60.6501,123.681 L 47.7578,143.394 C 40.0382,142.967 32.9139,140.827 26.2525,137.356 C 20.0807,130.418 19.3542,123.163 20.5004,113.298 C 22.5802,106.041 24.8787,100.752 29.9204,97.1232 C 35.5313,97.2664 44.9681,96.3396 52.1353,98.1687 C 52.9639,106.831 56.6096,116.334 60.6501,123.681 z"
             id="path432" />
          <path
             style="fill:#dbdbdb;stroke:none"
             d="M 60.515,123.529 L 47.8216,142.851 C 40.1379,142.431 33.0468,140.325 26.4164,136.908 C 20.2733,130.078 19.7128,123.272 21.0244,113.58 C 22.9306,106.381 25.0712,101.466 29.8006,98.2015 C 35.1188,98.0351 44.9005,96.6204 52.0343,98.421 C 52.859,106.948 56.5878,116.486 60.515,123.529 z"
             id="path434" />
          <path
             style="fill:#d6d6d6;stroke:none"
             d="M 60.3799,123.377 L 47.8854,142.309 C 40.2376,141.896 33.1798,139.823 26.5804,136.46 C 20.466,129.738 20.0713,123.381 21.5484,113.863 C 23.281,106.72 25.2638,102.18 29.6808,99.2798 C 34.7063,98.8038 44.8329,96.9013 51.9333,98.6733 C 52.7542,107.065 56.5659,116.638 60.3799,123.377 z"
             id="path436" />
          <path
             style="fill:#d1d1d1;stroke:none"
             d="M 60.2448,123.225 L 47.9492,141.766 C 40.3374,141.36 33.3127,139.321 26.7443,136.012 C 20.6587,129.398 20.4299,123.49 22.0724,114.145 C 23.6314,107.059 25.4563,102.895 29.5611,100.358 C 34.2938,99.5726 44.7652,97.1821 51.8323,98.9256 C 52.6493,107.182 56.5441,116.789 60.2448,123.225 z"
             id="path438" />
        </g>
        <path
           style="fill:#cccccc;stroke:none"
           d="M 60.1097,123.073 L 48.013,141.224 C 40.4371,140.824 33.4456,138.818 26.9082,135.564 C 20.8513,129.059 20.7885,123.599 22.5964,114.427 C 23.9818,107.398 25.6489,103.609 29.4413,101.436 C 33.8812,100.341 44.6976,97.463 51.7313,99.1779 C 52.5444,107.299 56.5222,116.941 60.1097,123.073 z"
           id="path440" />
      </g>
      <path
         style="fill:#ffffff;stroke:none"
         d="M 52.7414,96.6549 C 59.6626,91.2054 65.1554,85.7559 75.8576,80.3065 C 75.8576,72.9945 75.8576,65.6825 75.8576,58.3706 C 70.4465,54.1786 62.8423,51.7773 52.9637,51.233 C 41.3389,54.0587 34.8524,60.7603 30.0307,68.7177 C 28.1686,76.0296 28.6336,83.3416 30.639,90.6536 C 38.0065,92.654 45.3739,94.6545 52.7414,96.6549 z"
         id="path442" />
      <g
         id="g444">
        <path
           style="fill:#ffffff;stroke:none"
           d="M 53.0701,97.3018 C 60.0866,91.7747 65.6551,86.2477 76.5045,80.7206 C 76.5045,73.3045 76.5045,65.8884 76.5045,58.4722 C 71.019,54.2206 63.3101,51.785 53.2955,51.233 C 41.5107,54.0989 34.935,60.896 30.0469,68.9667 C 28.1591,76.3828 28.6306,83.7989 30.6636,91.215 C 38.1324,93.244 45.6013,95.2729 53.0701,97.3018 z"
           id="path446" />
        <g
           id="g448">
          <path
             style="fill:#fbfbfb;stroke:none"
             d="M 53.2007,97.0936 C 60.1059,91.5954 65.7107,86.0643 76.395,80.6648 C 76.384,73.3426 76.395,66.1848 76.4169,58.8078 C 70.9927,54.6037 63.7973,53.0723 53.8947,52.5264 C 42.2417,55.3603 35.9376,61.7303 30.9937,69.4809 C 28.9143,76.6057 29.2195,83.7534 31.3625,91.0091 C 38.671,93.1484 45.8154,95.0873 53.2007,97.0936 z"
             id="path450" />
          <path
             style="fill:#f7f7f7;stroke:none"
             d="M 53.3313,96.8853 C 60.1251,91.4161 65.7663,85.881 76.2854,80.6091 C 76.2635,73.3808 76.2854,66.4813 76.3292,59.1434 C 70.9664,54.9868 64.2845,54.3596 54.4939,53.8199 C 42.9727,56.6217 36.9402,62.5645 31.9405,69.9951 C 29.6694,76.8286 29.8083,83.7078 32.0614,90.8031 C 39.2096,93.0528 46.0295,94.9018 53.3313,96.8853 z"
             id="path452" />
          <path
             style="fill:#f3f3f3;stroke:none"
             d="M 53.4619,96.677 C 60.1444,91.2367 65.8219,85.6977 76.1758,80.5534 C 76.143,73.419 76.1758,66.7778 76.2416,59.479 C 70.9401,55.37 64.7717,55.6469 55.0931,55.1133 C 43.7037,57.8831 37.9429,63.3988 32.8874,70.5093 C 30.4246,77.0515 30.3972,83.6623 32.7603,90.5971 C 39.7481,92.9573 46.2436,94.7162 53.4619,96.677 z"
             id="path454" />
          <path
             style="fill:#efefef;stroke:none"
             d="M 53.5925,96.4688 C 60.1636,91.0574 65.8775,85.5144 76.0663,80.4977 C 76.0224,73.4572 76.0663,67.0743 76.1539,59.8146 C 70.9138,55.7531 65.2589,56.9342 55.6923,56.4068 C 44.4347,59.1446 38.9455,64.2331 33.8342,71.0234 C 31.1797,77.2744 30.9861,83.6167 33.4592,90.3912 C 40.2867,92.8617 46.4578,94.5306 53.5925,96.4688 z"
             id="path456" />
          <path
             style="fill:#ebebeb;stroke:none"
             d="M 53.7231,96.2605 C 60.1829,90.878 65.9331,85.3311 75.9567,80.4419 C 75.9019,73.4953 75.9567,67.3708 76.0663,60.1501 C 70.8875,56.1362 65.7461,58.2215 56.2915,57.7003 C 45.1657,60.406 39.9482,65.0673 34.7811,71.5376 C 31.9349,77.4973 31.575,83.5712 34.1581,90.1852 C 40.8253,92.7661 46.6719,94.345 53.7231,96.2605 z"
             id="path458" />
          <path
             style="fill:#e8e8e8;stroke:none"
             d="M 53.8537,96.0522 C 60.2021,90.6987 65.9886,85.1478 75.8471,80.3862 C 75.7814,73.5335 75.8471,67.6673 75.9786,60.4857 C 70.8612,56.5194 66.2333,59.5088 56.8907,58.9937 C 45.8966,61.6674 40.9508,65.9016 35.7279,72.0518 C 32.69,77.7202 32.1639,83.5256 34.857,89.9792 C 41.3638,92.6705 46.886,94.1594 53.8537,96.0522 z"
             id="path460" />
          <path
             style="fill:#e4e4e4;stroke:none"
             d="M 53.9843,95.844 C 60.2214,90.5193 66.0442,84.9645 75.7376,80.3305 C 75.6609,73.5717 75.7376,67.9638 75.891,60.8213 C 70.8348,56.9025 66.7205,60.796 57.4899,60.2872 C 46.6276,62.9288 41.9534,66.7359 36.6747,72.566 C 33.4451,77.9431 32.7528,83.4801 35.5559,89.7733 C 41.9024,92.5749 47.1001,93.9739 53.9843,95.844 z"
             id="path462" />
          <path
             style="fill:#e0e0e0;stroke:none"
             d="M 54.1149,95.6357 C 60.2407,90.34 66.0998,84.7812 75.628,80.2748 C 75.5404,73.6098 75.628,68.2603 75.8033,61.1569 C 70.8085,57.2856 67.2077,62.0833 58.0891,61.5806 C 47.3586,64.1902 42.9561,67.5701 37.6216,73.0802 C 34.2003,78.166 33.3417,83.4345 36.2548,89.5673 C 42.441,92.4794 47.3142,93.7883 54.1149,95.6357 z"
             id="path464" />
          <path
             style="fill:#dcdcdc;stroke:none"
             d="M 54.2455,95.4274 C 60.2599,90.1607 66.1554,84.5979 75.5185,80.219 C 75.4198,73.648 75.5185,68.5568 75.7157,61.4925 C 70.7822,57.6687 67.6949,63.3706 58.6883,62.8741 C 48.0896,65.4516 43.9587,68.4044 38.5684,73.5944 C 34.9554,78.3889 33.9306,83.389 36.9537,89.3613 C 42.9795,92.3838 47.5283,93.6027 54.2455,95.4274 z"
             id="path466" />
          <path
             style="fill:#d8d8d8;stroke:none"
             d="M 54.3761,95.2192 C 60.2792,89.9813 66.211,84.4146 75.4089,80.1633 C 75.2993,73.6862 75.4089,68.8533 75.628,61.828 C 70.7559,58.0519 68.1821,64.6579 59.2874,64.1675 C 48.8206,66.713 44.9613,69.2387 39.5152,74.1085 C 35.7106,78.6118 34.5195,83.3434 37.6526,89.1554 C 43.5181,92.2882 47.7424,93.4171 54.3761,95.2192 z"
             id="path468" />
          <path
             style="fill:#d4d4d4;stroke:none"
             d="M 54.5066,95.0109 C 60.2984,89.802 66.2666,84.2313 75.2993,80.1076 C 75.1788,73.7244 75.2993,69.1498 75.5404,62.1636 C 70.7296,58.435 68.6693,65.9452 59.8866,65.461 C 49.5516,67.9744 45.964,70.0729 40.4621,74.6227 C 36.4657,78.8347 35.1084,83.2979 38.3515,88.9494 C 44.0567,92.1926 47.9566,93.2316 54.5066,95.0109 z"
             id="path470" />
          <path
             style="fill:#d1d1d1;stroke:none"
             d="M 54.6372,94.8026 C 60.3177,89.6226 66.3222,84.048 75.1898,80.0519 C 75.0583,73.7625 75.1898,69.4462 75.4527,62.4992 C 70.7033,58.8181 69.1565,67.2325 60.4858,66.7545 C 50.2826,69.2358 46.9666,70.9072 41.4089,75.1369 C 37.2209,79.0576 35.6973,83.2523 39.0504,88.7434 C 44.5953,92.097 48.1707,93.046 54.6372,94.8026 z"
             id="path472" />
          <path
             style="fill:#cdcdcd;stroke:none"
             d="M 54.7678,94.5944 C 60.3369,89.4433 66.3778,83.8647 75.0802,79.9961 C 74.9378,73.8007 75.0802,69.7427 75.3651,62.8348 C 70.677,59.2013 69.6437,68.5198 61.085,68.0479 C 51.0135,70.4972 47.9693,71.7415 42.3558,75.6511 C 37.976,79.2805 36.2862,83.2068 39.7493,88.5375 C 45.1338,92.0015 48.3848,92.8604 54.7678,94.5944 z"
             id="path474" />
          <path
             style="fill:#c9c9c9;stroke:none"
             d="M 54.8984,94.3861 C 60.3562,89.2639 66.4334,83.6814 74.9706,79.9404 C 74.8172,73.8389 74.9706,70.0392 75.2774,63.1704 C 70.6507,59.5844 70.1309,69.807 61.6842,69.3414 C 51.7445,71.7586 48.9719,72.5757 43.3026,76.1653 C 38.7311,79.5034 36.8751,83.1612 40.4482,88.3315 C 45.6724,91.9059 48.5989,92.6748 54.8984,94.3861 z"
             id="path476" />
          <path
             style="fill:#c5c5c5;stroke:none"
             d="M 55.029,94.1778 C 60.3755,89.0846 66.489,83.4981 74.8611,79.8847 C 74.6967,73.8771 74.8611,70.3357 75.1898,63.5059 C 70.6244,59.9675 70.6181,71.0943 62.2834,70.6348 C 52.4755,73.0201 49.9745,73.41 44.2494,76.6794 C 39.4863,79.7263 37.464,83.1157 41.1471,88.1255 C 46.211,91.8103 48.813,92.4892 55.029,94.1778 z"
             id="path478" />
          <path
             style="fill:#c1c1c1;stroke:none"
             d="M 55.1596,93.9696 C 60.3947,88.9053 66.5446,83.3148 74.7515,79.829 C 74.5762,73.9152 74.7515,70.6322 75.1021,63.8415 C 70.5981,60.3506 71.1053,72.3816 62.8826,71.9283 C 53.2065,74.2815 50.9772,74.2442 45.1963,77.1936 C 40.2414,79.9492 38.0529,83.0701 41.846,87.9195 C 46.7495,91.7147 49.0271,92.3037 55.1596,93.9696 z"
             id="path480" />
          <path
             style="fill:#bdbdbd;stroke:none"
             d="M 55.2902,93.7613 C 60.414,88.7259 66.6002,83.1315 74.642,79.7733 C 74.4557,73.9534 74.642,70.9287 75.0145,64.1771 C 70.5718,60.7338 71.5925,73.6689 63.4818,73.2218 C 53.9375,75.5429 51.9798,75.0785 46.1431,77.7078 C 40.9966,80.1721 38.6418,83.0246 42.5449,87.7136 C 47.2881,91.6191 49.2413,92.1181 55.2902,93.7613 z"
             id="path482" />
          <path
             style="fill:#bababa;stroke:none"
             d="M 55.4208,93.553 C 60.4332,88.5466 66.6558,82.9482 74.5324,79.7175 C 74.3352,73.9916 74.5324,71.2252 74.9268,64.5127 C 70.5455,61.1169 72.0797,74.9562 64.081,74.5152 C 54.6685,76.8043 52.9825,75.9128 47.0899,78.222 C 41.7517,80.3951 39.2307,82.979 43.2438,87.5076 C 47.8267,91.5236 49.4554,91.9325 55.4208,93.553 z"
             id="path484" />
          <path
             style="fill:#b6b6b6;stroke:none"
             d="M 55.5514,93.3447 C 60.4525,88.3672 66.7113,82.7649 74.4228,79.6618 C 74.2147,74.0297 74.4228,71.5217 74.8391,64.8483 C 70.5192,61.5 72.5669,76.2435 64.6802,75.8087 C 55.3994,78.0657 53.9851,76.747 48.0368,78.7362 C 42.5069,80.618 39.8196,82.9335 43.9427,87.3016 C 48.3652,91.428 49.6695,91.7469 55.5514,93.3447 z"
             id="path486" />
        </g>
        <path
           style="fill:#b2b2b2;stroke:none"
           d="M 55.682,93.1365 C 60.4717,88.1879 66.7669,82.5816 74.3133,79.6061 C 74.0941,74.0679 74.3133,71.8182 74.7515,65.1838 C 70.4929,61.8831 73.0541,77.5307 65.2794,77.1021 C 56.1304,79.3271 54.9877,77.5813 48.9836,79.2504 C 43.262,80.8409 40.4085,82.8879 44.6416,87.0957 C 48.9038,91.3324 49.8836,91.5613 55.682,93.1365 z"
           id="path488" />
      </g>
      <path
         style="fill:#000000;stroke:none"
         d="M 87.4641,43.9404 C 93.0625,45.4973 95.8306,48.1652 97.58,51.233 C 93.1146,50.3716 78.1273,55.3945 75.8576,58.3706 C 70.2434,53.7612 62.1364,51.9079 52.9637,51.233 C 55.0217,48.3563 57.7029,45.7912 61.6953,43.8818 C 70.4373,41.88 79.0199,41.9911 87.4641,43.9404 z"
         id="path490" />
      <path
         style="fill:#000000;stroke:none"
         d="M 17.3527,112.136 C 14.2985,110.531 8.88715,106.994 10.2602,98.6666 C 12.3086,88.9968 15.1895,82.5634 19.6045,73.8109 C 22.7044,71.6131 25.1345,69.8769 30.0206,68.7177 C 28.7903,76.2435 28.3172,83.7041 30.6286,90.9248 C 23.7445,96.2357 20.4379,104.107 17.3527,112.136 z"
         id="path492" />
      <path
         style="fill:#000000;stroke:none"
         d="M 52.7414,96.6549 C 59.6867,90.5406 66.8585,84.6243 75.8576,80.3065 C 85.6302,84.4676 93.3316,90.7764 99.7849,97.0688 C 97.393,106.657 94.4105,115.772 90.66,124.592 C 80.7923,126.103 71.0311,126.418 61.4606,124.592 C 56.4887,115.224 53.3646,105.869 52.7414,96.6549 z"
         id="path494" />
      <g
         id="g496">
        <path
           style="fill:#000000;stroke:none"
           d="M 58.8417,116.716 C 60.2701,114.716 61.8622,121.44 65.562,121.779 C 70.3152,122.216 82.8041,121.972 87.7188,121.523 C 89.6352,121.348 90.8209,116.171 92.4423,114.31 C 91.4449,118.318 91.0908,120.484 90.1096,123.909 C 81.9185,124.454 71.0141,124.788 63.0697,124.129 C 60.8665,121.242 59.359,120.038 58.8417,116.716 z"
           id="path498" />
        <g
           id="g500">
          <path
             style="fill:#141414;stroke:none"
             d="M 59.2265,117.047 C 60.6455,115.909 62.1915,121.642 65.3083,121.956 C 69.7496,122.474 82.9822,122.245 87.8748,121.678 C 89.5802,121.501 90.6337,117.005 92.1407,115.045 C 91.1329,118.992 90.8563,120.744 89.9401,123.729 C 83.1842,124.273 69.8575,124.484 63.3505,123.921 C 61.4364,121.575 59.9831,120.333 59.2265,117.047 z"
             id="path502" />
          <path
             style="fill:#282828;stroke:none"
             d="M 59.6114,117.378 C 61.0209,117.103 62.5209,121.845 65.0546,122.132 C 69.1841,122.733 83.1602,122.517 88.0308,121.833 C 89.5252,121.654 90.4464,117.838 91.8391,115.78 C 90.8209,119.666 90.6217,121.005 89.7705,123.548 C 84.4499,124.092 68.701,124.18 63.6313,123.713 C 62.0063,121.908 60.6071,120.627 59.6114,117.378 z"
             id="path504" />
          <path
             style="fill:#3d3d3d;stroke:none"
             d="M 59.9962,117.709 C 61.3963,118.296 62.8502,122.048 64.8008,122.309 C 68.6186,122.991 83.3382,122.79 88.1868,121.988 C 89.4701,121.807 90.2592,118.671 91.5375,116.516 C 90.5089,120.34 90.3873,121.265 89.601,123.367 C 85.7156,123.912 67.5445,123.876 63.9121,123.504 C 62.5762,122.241 61.2311,120.921 59.9962,117.709 z"
             id="path506" />
          <path
             style="fill:#515151;stroke:none"
             d="M 60.381,118.04 C 61.7716,119.49 63.1795,122.251 64.5471,122.485 C 68.0531,123.249 83.5163,123.063 88.3428,122.143 C 89.4151,121.959 90.072,119.505 91.2359,117.251 C 90.1969,121.014 90.1527,121.526 89.4315,123.186 C 86.9813,123.731 66.3879,123.572 64.1929,123.296 C 63.1461,122.575 61.8551,121.215 60.381,118.04 z"
             id="path508" />
        </g>
        <path
           style="fill:#666666;stroke:none"
           d="M 60.7658,118.371 C 62.147,120.683 63.5089,122.454 64.2934,122.662 C 67.4875,123.508 83.6943,123.336 88.4988,122.298 C 89.3601,122.112 89.8848,120.338 90.9343,117.986 C 89.8849,121.688 89.9182,121.786 89.2619,123.005 C 88.247,123.55 65.2314,123.268 64.4737,123.088 C 63.716,122.908 62.4791,121.509 60.7658,118.371 z"
           id="path510" />
      </g>
      <g
         id="g512">
        <path
           style="fill:#7f7f7f;stroke:none"
           d="M 76.0277,82.0679 C 79.9088,83.8137 66.2633,88.2039 53.9617,96.8278 C 59.9601,91.6772 71.0205,84.344 76.0277,82.0679 z"
           id="path514" />
        <g
           id="g516">
          <path
             style="fill:#999999;stroke:none"
             d="M 75.9997,82.0876 C 79.4728,83.6414 65.9267,88.3667 54.7001,96.2371 C 60.2137,91.5858 71.4005,84.2042 75.9997,82.0876 z"
             id="path518" />
          <path
             style="fill:#b2b2b2;stroke:none"
             d="M 75.9717,82.1073 C 79.0367,83.4692 65.5902,88.5296 55.4385,95.6464 C 60.4674,91.4944 71.7805,84.0644 75.9717,82.1073 z"
             id="path520" />
          <path
             style="fill:#cccccc;stroke:none"
             d="M 75.9437,82.127 C 78.6006,83.2969 65.2537,88.6924 56.177,95.0556 C 60.721,91.4029 72.1605,83.9246 75.9437,82.127 z"
             id="path522" />
          <path
             style="fill:#e5e5e5;stroke:none"
             d="M 75.9157,82.1467 C 78.1645,83.1247 64.9171,88.8553 56.9154,94.4649 C 60.9747,91.3115 72.5405,83.7847 75.9157,82.1467 z"
             id="path524" />
        </g>
        <path
           style="fill:#ffffff;stroke:none"
           d="M 75.8877,82.1664 C 77.7285,82.9524 64.5806,89.0182 57.6538,93.8741 C 61.2283,91.2201 72.9205,83.6449 75.8877,82.1664 z"
           id="path526" />
      </g>
      <g
         id="g528">
        <path
           style="fill:#7f7f7f;stroke:none"
           d="M 74.7676,54.0193 C 75.7822,56.0798 66.5648,51.366 55.858,49.9646 C 62.2521,49.2743 71.185,52.5325 74.7676,54.0193 z"
           id="path530" />
        <g
           id="g532">
          <path
             style="fill:#999999;stroke:none"
             d="M 74.7238,54.0379 C 75.6362,55.8791 66.395,51.3307 56.3993,50.017 C 62.1789,49.4245 71.4364,52.6224 74.7238,54.0379 z"
             id="path534" />
          <path
             style="fill:#b2b2b2;stroke:none"
             d="M 74.6799,54.0564 C 75.4901,55.6784 66.2252,51.2955 56.9407,50.0694 C 62.1058,49.5747 71.6877,52.7123 74.6799,54.0564 z"
             id="path536" />
          <path
             style="fill:#cccccc;stroke:none"
             d="M 74.6361,54.075 C 75.344,55.4778 66.0554,51.2602 57.482,50.1217 C 62.0326,49.7249 71.939,52.8022 74.6361,54.075 z"
             id="path538" />
          <path
             style="fill:#e5e5e5;stroke:none"
             d="M 74.5922,54.0936 C 75.1979,55.2771 65.8856,51.225 58.0234,50.1741 C 61.9594,49.8751 72.1904,52.8921 74.5922,54.0936 z"
             id="path540" />
        </g>
        <path
           style="fill:#ffffff;stroke:none"
           d="M 74.5483,54.1121 C 75.0518,55.0764 65.7158,51.1897 58.5648,50.2265 C 61.8863,50.0253 72.4417,52.982 74.5483,54.1121 z"
           id="path542" />
      </g>
      <g
         id="g544">
        <path
           style="fill:#7f7f7f;stroke:none"
           d="M 27.6187,72.1716 C 29.3579,70.6716 27.1128,80.7781 28.4483,91.4934 C 26.1726,85.4781 27.0803,76.013 27.6187,72.1716 z"
           id="path546" />
        <g
           id="g548">
          <path
             style="fill:#999999;stroke:none"
             d="M 27.6477,72.2094 C 29.2004,70.8635 27.1214,80.9513 28.3629,90.9562 C 26.3364,85.5112 27.1042,75.7471 27.6477,72.2094 z"
             id="path550" />
          <path
             style="fill:#b2b2b2;stroke:none"
             d="M 27.6767,72.2472 C 29.0429,71.0553 27.13,81.1245 28.2775,90.4191 C 26.5002,85.5443 27.128,75.4813 27.6767,72.2472 z"
             id="path552" />
          <path
             style="fill:#cccccc;stroke:none"
             d="M 27.7056,72.285 C 28.8854,71.2471 27.1385,81.2977 28.1921,89.882 C 26.6639,85.5773 27.1518,75.2154 27.7056,72.285 z"
             id="path554" />
          <path
             style="fill:#e5e5e5;stroke:none"
             d="M 27.7346,72.3228 C 28.7278,71.439 27.1471,81.4709 28.1066,89.3448 C 26.8277,85.6104 27.1757,74.9495 27.7346,72.3228 z"
             id="path556" />
        </g>
        <path
           style="fill:#ffffff;stroke:none"
           d="M 27.7636,72.3606 C 28.5703,71.6308 27.1557,81.6441 28.0212,88.8077 C 26.9915,85.6434 27.1995,74.6837 27.7636,72.3606 z"
           id="path558" />
      </g>
      <g
         id="g560" />
    </g>
  </g>
</svg>
