<?xml version="1.0" encoding="UTF-8" standalone="no"?>
<!-- Created with Inkscape (http://www.inkscape.org/) -->
<svg
   xmlns:dc="http://purl.org/dc/elements/1.1/"
   xmlns:cc="http://creativecommons.org/ns#"
   xmlns:rdf="http://www.w3.org/1999/02/22-rdf-syntax-ns#"
   xmlns:svg="http://www.w3.org/2000/svg"
   xmlns="http://www.w3.org/2000/svg"
   xmlns:xlink="http://www.w3.org/1999/xlink"
   xmlns:sodipodi="http://sodipodi.sourceforge.net/DTD/sodipodi-0.dtd"
   xmlns:inkscape="http://www.inkscape.org/namespaces/inkscape"
   height="433.20999"
   id="svg1346"
   inkscape:version="0.46"
   sodipodi:docbase="/home/andrea/Documents/DISEGNI"
   sodipodi:docname="VolleyBall.svg"
   sodipodi:version="0.32"
   version="1.0"
   viewBox="0 0 215.9 279.4"
   width="433.20999"
   x="0.00000000"
   xml:space="preserve"
   y="0.00000000"
   inkscape:output_extension="org.inkscape.output.svg.inkscape"><metadata
   id="metadata2466"><rdf:RDF><cc:Work
       rdf:about=""><dc:title>Volley-ball</dc:title><dc:description>volley ball</dc:description><dc:subject><rdf:Bag><rdf:li>sports</rdf:li></rdf:Bag></dc:subject><dc:publisher><cc:Agent
           rdf:about="http://www.openclipart.org/"><dc:title>Open Clip Art Library</dc:title></cc:Agent></dc:publisher><dc:creator><cc:Agent><dc:title>Andrea Bianchini</dc:title></cc:Agent></dc:creator><dc:rights><cc:Agent><dc:title>Andrea Bianchini</dc:title></cc:Agent></dc:rights><dc:date /><dc:format>image/svg+xml</dc:format><dc:type
         rdf:resource="http://purl.org/dc/dcmitype/StillImage" /><cc:license
         rdf:resource="http://web.resource.org/cc/PublicDomain" /><dc:language>en</dc:language></cc:Work><cc:License
       rdf:about="http://web.resource.org/cc/PublicDomain"><cc:permits
         rdf:resource="http://web.resource.org/cc/Reproduction" /><cc:permits
         rdf:resource="http://web.resource.org/cc/Distribution" /><cc:permits
         rdf:resource="http://web.resource.org/cc/DerivativeWorks" /></cc:License></rdf:RDF></metadata>

<sodipodi:namedview
   bordercolor="#666666"
   borderopacity="1.0"
   id="base"
   inkscape:current-layer="svg1346"
   inkscape:cx="52.241755"
   inkscape:cy="96.976169"
   inkscape:pageopacity="0.0"
   inkscape:pageshadow="2"
   inkscape:window-height="959"
   inkscape:window-width="1270"
   inkscape:window-x="0"
   inkscape:window-y="0"
   inkscape:zoom="1.148285"
   pagecolor="#ffffff"
   showgrid="false"
   showborder="true"
   inkscape:showpageshadow="false" />


 <defs
   id="defs1348"><inkscape:perspective
   sodipodi:type="inkscape:persp3d"
   inkscape:vp_x="0 : 495 : 1"
   inkscape:vp_y="0 : 1000 : 0"
   inkscape:vp_z="765 : 495 : 1"
   inkscape:persp3d-origin="382.5 : 330 : 1"
   id="perspective2484" /><linearGradient
   id="linearGradient2140">
  <stop
   id="stop2142"
   offset="0.00000000"
   style="stop-color: rgb(255, 255, 234); stop-opacity: 1;" />


  <stop
   id="stop2148"
   offset="0.59036142"
   style="stop-color: rgb(255, 255, 193); stop-opacity: 1;" />


  <stop
   id="stop2144"
   offset="1.0000000"
   style="stop-color: rgb(191, 170, 10); stop-opacity: 1;" />


</linearGradient>



  <style
   id="style1350"
   type="text/css">
   
    .fil0 {fill:#663300}
    .fil1 {fill:url(#id0)}
   
  </style>



  <radialGradient
   cx="70.283798"
   cy="86.921097"
   fx="70.283798"
   fy="86.921097"
   gradientUnits="userSpaceOnUse"
   id="id0"
   r="79.476601">
   <stop
   id="stop1353"
   offset="0.00000000"
   style="stop-color: rgb(255, 255, 255); stop-opacity: 1;" />



   <stop
   id="stop1355"
   offset="0.36862701"
   style="stop-color: rgb(253, 252, 201); stop-opacity: 1;" />



   <stop
   id="stop1357"
   offset="1.0000000"
   style="stop-color: rgb(204, 153, 51); stop-opacity: 1;" />



  </radialGradient>



 
  
  
 
   
   
  <radialGradient
   cx="94.342743"
   cy="101.32678"
   fx="94.342743"
   fy="101.32678"
   gradientTransform="scale(1.00113,0.998866)"
   gradientUnits="userSpaceOnUse"
   id="radialGradient2146"
   r="130.28741"
   xlink:href="#linearGradient2140" />


<radialGradient
   cx="94.342743"
   cy="101.32678"
   fx="94.342743"
   fy="101.32678"
   gradientTransform="scale(1.00113,0.998866)"
   gradientUnits="userSpaceOnUse"
   id="radialGradient2209"
   r="130.28741"
   xlink:href="#linearGradient2140" />



  


  


<radialGradient
   inkscape:collect="always"
   xlink:href="#linearGradient2140"
   id="radialGradient2394"
   gradientUnits="userSpaceOnUse"
   gradientTransform="matrix(-1.6578926e-2,1.7368593,1.3614588,2.1054747e-2,-78.406911,-69.211997)"
   cx="94.342743"
   cy="101.32678"
   fx="94.342743"
   fy="101.32678"
   r="130.28741" /></defs>



 <path
   style="fill:url(#radialGradient2394);fill-opacity:1;stroke:#550800;stroke-width:1.11589253;stroke-linejoin:round;stroke-miterlimit:4;stroke-dasharray:none;stroke-opacity:1"
   id="_22009664"
   d="M 215.42165,134.86873 C 215.14792,130.89794 214.90881,126.92767 214.66971,122.95741 C 213.16748,109.84453 210.72462,97.334101 206.72131,85.063986 C 205.47192,81.739195 204.2225,78.414402 203.0073,75.134212 C 196.49985,60.40136 188.26306,45.465472 177.62835,35.076086 C 173.57176,32.016391 173.57176,32.016391 169.92471,29.580053 C 162.7265,25.54624 155.72509,22.661371 148.13133,20.163996 C 144.967,21.569467 142.31861,23.3355 139.42409,25.494383 C 132.89163,31.519498 128.2152,38.98365 124.04545,47.777827 C 123.89898,48.612947 123.78712,49.448604 123.67527,50.28426 C 137.92033,52.443767 151.43527,62.172527 163.25295,71.963186 C 169.05332,77.34164 174.57334,83.068343 179.84641,89.27603 C 181.86334,91.99567 183.88028,94.715311 185.93143,97.479554 C 188.18146,101.17241 190.46568,104.90986 192.74991,108.6473 C 200.56873,123.84117 205.75514,139.12654 207.52142,157.22376 C 207.99374,165.78121 208.05315,174.06785 207.17569,182.56035 C 206.17197,189.7728 205.4417,193.72806 205.47254,194.1252 C 208.20321,190.99417 209.34121,184.22454 210.52532,179.87964 C 211.83012,173.77368 212.96223,167.62096 213.95629,161.42206 C 214.95863,150.72784 214.95863,150.72784 215.24893,145.70801 C 215.28342,142.09457 215.35253,138.48165 215.42165,134.86873 L 215.42165,134.86873 z M 19.437389,62.775577 C 18.327015,63.022842 14.000702,73.709734 13.222232,75.460613 C 11.944773,78.702254 10.667316,81.943897 9.424057,85.23014 C 6.7096283,93.914603 4.4110649,102.56143 2.7310383,111.70261 C 2.2110223,115.39669 1.7256247,119.09132 1.2398066,122.83001 C 0.74738798,130.88774 0.28916928,138.99006 0.55797628,147.10365 C 0.59091388,147.28046 0.62385138,147.45725 0.69141018,147.63459 C 0.79611208,147.54807 1.9443431,143.33481 2.1934155,142.6335 C 3.0039831,141.14756 3.8829523,139.75081 4.8991385,138.48842 C 6.9663317,117.8061 6.9663317,117.8061 7.9434357,109.75586 C 9.9082866,96.167718 12.390339,82.807929 16.63256,70.048309 C 17.556243,67.594508 18.479506,65.184775 19.437389,62.775577 L 19.437389,62.775577 z M 78.355025,9.917745 C 76.553507,10.022104 74.786188,10.171064 73.01887,10.320023 C 61.15824,15.910156 50.21175,23.673999 40.351236,33.74643 C 33.807833,40.917273 27.674826,48.623336 22.397653,57.356313 C 18.19329,66.149955 15.339539,74.920408 12.822737,84.665678 C 8.947588,102.49937 6.9778174,120.23029 5.3829821,138.58405 C 12.074471,152.17384 25.435938,156.21482 36.936322,159.34556 C 37.628308,159.40034 38.320293,159.45512 39.046899,159.51043 C 39.707629,159.21213 40.402979,158.91438 41.098331,158.61661 C 39.099769,150.34407 37.653872,142.21229 36.696864,133.64733 C 35.995238,123.72008 36.020218,113.84812 36.738446,103.89874 C 37.835814,94.131528 39.517943,84.770006 41.651398,75.283245 C 43.551893,68.437258 43.551893,68.437258 45.48112,62.208736 C 51.630693,45.512047 58.596852,30.326468 69.416091,17.756707 C 72.28398,14.760027 75.146822,12.292143 78.355025,9.917745 L 78.355025,9.917745 z M 112.6712,6.0411454 C 111.00942,6.0154463 109.12634,3.7826777 107.78666,2.6601363 C 100.96647,2.554663 94.238762,3.6405895 87.575257,5.2563841 C 86.114474,5.9389603 84.445127,6.706457 83.323818,8.0994501 C 80.508215,9.2458767 80.508215,9.2458767 78.350398,10.402475 C 73.016475,14.198405 68.852071,18.805736 64.540773,24.292252 C 59.870232,31.139474 56.027637,38.308011 52.249653,45.962349 C 50.939678,48.983123 49.663903,52.0485 48.388127,55.113875 C 47.107304,58.708048 45.860682,62.346824 44.614058,65.985599 C 41.711806,76.209709 39.433981,86.31126 37.843515,96.952315 C 36.84538,107.20587 36.84538,107.20587 36.556768,112.04944 C 36.521857,115.70694 36.486524,119.40853 36.45119,123.11011 C 36.957,135.41428 38.545294,146.76559 41.445374,158.53383 C 42.549019,158.99163 43.546277,159.71223 44.543116,160.47688 C 50.806028,160.92632 57.072302,161.02321 63.343626,160.59134 C 63.936799,160.11571 64.564171,159.68468 65.191543,159.25365 C 65.323585,156.3028 65.323585,156.3028 65.476275,140.30669 C 65.950898,130.48577 66.840545,120.71533 68.075975,110.99432 C 69.62425,101.14593 71.552085,91.435619 73.894523,81.819872 C 75.148717,77.387901 76.437112,73.000532 77.725506,68.613162 C 86.299927,44.549722 96.648527,23.24624 112.6712,6.0411454 L 112.6712,6.0411454 z M 147.86068,19.498716 C 143.13202,7.0410926 130.41109,4.8170102 120.83305,3.4348448 C 118.12972,3.701549 115.76377,4.8990021 113.19134,5.9610435 C 107.03298,12.697111 101.45684,20.103276 96.359074,28.177933 C 93.189825,33.726184 90.158218,39.364709 87.263827,45.137577 C 83.368523,54.200435 83.368523,54.200435 81.487378,59.019366 C 79.885298,63.622249 78.282796,68.269198 76.714916,72.916683 C 74.850724,79.586941 74.850724,79.586941 72.908459,87.181522 C 69.939197,100.79822 67.732845,114.29449 66.525013,128.37915 C 66.278173,132.47412 66.031332,136.56907 65.818691,140.70864 C 65.759804,146.87795 65.735536,153.04778 65.710847,159.26169 C 66.955076,159.50129 67.574876,159.86346 68.474164,159.96552 C 74.717177,158.87209 74.717177,158.87209 79.574957,157.80132 C 87.18625,154.83392 94.252871,150.88849 101.12355,145.706 C 107.61719,140.12102 107.61719,140.12102 107.75861,139.81469 C 106.46521,133.84484 106.94333,127.28536 107.00222,121.11607 C 107.61785,111.03288 108.3449,100.15811 110.96473,90.502577 C 111.77698,88.840367 112.38108,87.219011 112.88343,85.375716 C 112.82681,84.052652 112.80481,82.730125 112.78281,81.407595 C 114.81662,71.478563 118.09212,62.053538 121.47022,52.762317 C 123.04538,50.979685 123.26151,50.101569 123.73598,47.552676 C 127.96864,39.420566 127.96864,39.420566 129.16509,37.411714 C 131.13243,34.44518 133.27119,31.657586 135.40953,28.914061 C 136.94713,27.43936 138.48472,25.964658 140.02231,24.489957 C 142.60189,22.678787 145.04044,21.129874 147.75346,19.849641 C 147.78933,19.717977 147.82522,19.586313 147.86068,19.498716 L 147.86068,19.498716 z M 146.79227,178.5855 C 146.03608,178.00086 145.71344,175.52778 145.48203,174.3783 C 135.3124,158.7955 122.87912,148.20201 108.2733,140.30744 C 108.13481,140.3053 107.99633,140.30315 107.85786,140.30101 C 96.015984,151.18021 82.502121,159.47729 67.742931,160.39494 C 65.811343,159.61582 65.118517,159.64917 63.37362,161.0766 C 57.068516,161.41983 50.730898,161.54218 44.435048,160.91593 C 42.235333,159.20715 41.37361,158.79716 39.008071,159.95056 C 35.236561,159.67187 31.543544,158.42478 27.884306,157.26637 C 19.567731,154.31709 9.8214991,148.78946 5.2402944,139.02257 C 5.1364334,139.02097 5.0325724,139.01936 4.9287115,139.01776 C -0.81800312,146.15684 1.0366094,155.00011 2.4724115,164.18949 C 3.4951658,169.49405 4.725642,174.80183 6.0261998,180.02256 C 6.9082408,181.93133 7.7902829,183.84011 8.6719025,185.79295 C 8.7065229,185.79348 8.7757635,185.79455 8.8450041,185.79562 C 10.542369,189.34771 14.400076,191.4788 17.151193,193.46056 C 43.405263,207.13253 73.546094,209.00898 101.43299,203.97519 C 108.58201,202.27876 115.4925,200.182 122.34172,197.24688 C 124.6034,196.0919 126.86507,194.9369 129.16094,193.82651 C 134.0748,190.50889 138.81513,187.23265 143.21893,182.93754 C 144.05865,182.02499 146.53815,179.81561 146.79227,178.5855 L 146.79227,178.5855 z M 156.16333,259.69241 C 153.81293,259.2594 151.70951,258.34542 151.49702,255.21296 C 146.10606,257.72989 141.28176,262.54737 136.36455,266.21752 C 131.80278,268.92358 127.34951,271.14649 122.55298,273.0556 C 116.71827,274.90458 110.75263,275.95822 104.75491,276.74692 C 118.22725,276.42641 131.48293,273.41408 144.27577,268.10279 C 148.72947,265.8358 148.72947,265.8358 152.73311,263.56185 C 154.33573,262.52889 155.4503,261.84096 156.16333,259.69241 L 156.16333,259.69241 z M 157.01849,206.37737 C 155.44126,197.49432 153.19489,189.7909 149.49573,181.93278 C 147.64389,180.05308 147.64389,180.05308 147.09754,179.25131 C 144.96466,181.42198 142.86599,183.63724 140.76733,185.85251 C 134.76426,190.82805 128.59903,194.65521 121.91954,197.94552 C 111.10889,202.36192 100.55865,204.88722 89.257279,206.29906 C 83.124016,206.77717 83.124016,206.77717 77.339478,206.99621 C 56.498049,206.67391 35.053646,204.22676 15.838985,193.08767 C 13.671787,191.59975 11.196369,189.75449 9.4521869,187.4798 C 9.980161,193.83447 13.007528,199.52261 15.379212,204.98026 C 16.636189,207.51186 17.927364,210.08806 19.218539,212.66426 C 21.705021,216.97779 24.153939,221.59924 27.129311,225.4796 C 28.365547,226.55646 29.601784,227.63333 30.87222,228.75481 C 31.011121,228.71289 31.225101,229.03164 31.364003,228.98971 C 31.778197,229.26992 32.078206,229.40176 32.501611,229.74527 C 37.875715,234.10762 43.468658,237.59416 49.244214,241.11491 C 54.034566,243.48079 54.034566,243.48079 59.65496,245.94765 C 66.317753,248.03396 72.534688,249.67266 79.346476,250.65947 C 81.873339,250.74262 84.434822,250.82631 86.996305,250.90999 C 94.133558,250.44741 100.7253,249.09495 107.70376,247.13144 C 113.36958,244.83912 113.36958,244.83912 118.20409,242.57802 C 124.78477,238.75731 130.78027,234.57495 136.88677,229.64506 C 143.31496,223.66242 143.31496,223.66242 147.72002,219.2351 C 153.14632,213.01658 153.14632,213.01658 156.72049,208.57641 C 156.79688,207.82836 156.9079,207.08084 157.01849,206.37737 L 157.01849,206.37737 z M 157.93511,219.17271 C 157.82313,216.39438 158.04082,211.72602 156.85393,209.10735 C 154.57796,211.76061 152.30155,214.45792 150.02515,217.15525 C 144.42743,223.19481 138.52361,228.6567 132.41499,233.80691 C 125.68701,238.55089 125.68701,238.55089 122.02915,240.87426 C 117.88705,243.14607 117.88705,243.14607 113.12135,245.4523 C 104.46766,248.80024 96.346313,250.79014 87.303682,251.35547 C 85.434185,251.32656 83.564688,251.29765 81.69519,251.26873 C 64.294632,249.5893 46.87447,242.70896 32.348695,230.05575 C 32.336076,231.37775 35.485858,235.95209 36.201527,237.15313 C 36.236148,237.15366 36.465825,237.65591 36.535066,237.65698 C 37.760365,239.87957 37.760365,239.87957 38.955252,241.66096 C 48.998473,252.34971 58.851637,261.18446 70.695828,268.19894 C 73.212174,269.38374 75.72852,270.56855 78.244447,271.79744 C 80.556856,272.58243 82.903467,273.41204 85.250077,274.24165 C 101.17303,278.36631 117.08941,275.924 132.15446,268.35606 C 135.98625,265.94723 135.98625,265.94723 139.89064,263.18694 C 143.72916,260.07307 147.3287,256.60289 151.64055,254.6863 C 151.71106,254.55517 151.78113,254.4681 151.88584,254.38157 C 154.14347,246.39522 155.84339,238.79689 157.20384,230.48815 C 157.48194,226.74624 157.76046,222.96028 157.93511,219.17271 L 157.93511,219.17271 z M 176.569,33.60495 C 172.48831,29.443059 168.19694,25.586421 163.79877,22.036642 C 156.57645,16.900634 148.83694,11.536265 140.79479,8.8556641 C 140.44861,8.8503101 140.1024,8.8449561 139.75619,8.8396021 C 142.57402,11.086826 144.77037,13.148148 146.88613,16.398191 C 147.32569,17.506812 147.79985,18.61597 148.27402,19.725126 C 153.66133,21.218773 158.903,23.459409 164.07418,25.831174 C 166.82908,27.41633 169.58356,29.045553 172.33805,30.674778 C 176.36129,33.601737 176.36129,33.601737 176.569,33.60495 z M 184.41733,201.68829 C 184.13477,198.64289 183.88683,195.59802 183.6389,192.55314 C 182.01346,181.46571 179.44191,171.55361 175.62614,161.40189 C 170.85362,149.91319 165.16835,139.73257 158.65009,129.75942 C 145.86783,112.19701 130.79683,94.995861 113.26258,85.557524 C 112.72687,87.268085 112.05352,88.888371 111.31135,90.463518 C 107.82994,103.32305 107.37829,117.99235 107.25,131.43261 C 107.32945,133.99007 107.26246,137.38266 108.14029,139.7321 C 118.26986,145.0012 127.54921,152.28452 135.9821,161.18545 C 139.37039,165.33664 143.06984,169.5367 145.82782,174.42738 C 146.62296,178.18588 147.64936,179.47986 149.91201,181.85072 C 150.62348,183.49242 151.33494,185.13413 152.0806,186.82043 C 154.47681,193.33621 156.18314,199.57687 157.29293,206.64571 C 156.9683,208.00696 157.43911,209.46864 157.8432,210.66486 C 158.36823,217.328 158.20085,223.98042 157.54921,230.58128 C 156.29052,239.11197 154.3795,247.05961 151.98213,255.17603 C 151.56387,259.09206 156.02905,259.24925 158.14426,258.92938 C 164.05536,256.33235 169.81147,251.83777 175.0128,247.42277 C 175.4333,246.90041 175.85378,246.37803 176.27426,245.85567 C 180.0831,238.59845 181.94043,229.01927 183.37096,220.62347 C 184.08931,214.28808 184.32172,208.07739 184.41733,201.68829 L 184.41733,201.68829 z M 207.63016,163.96825 C 207.35013,160.65845 207.1043,157.39325 206.85846,154.12804 C 205.10716,141.71647 202.26665,130.96282 197.73394,119.74227 C 196.00364,116.01338 194.16906,112.32697 192.33405,108.68459 C 191.31227,106.90588 190.29047,105.12716 189.26869,103.34845 C 182.0998,92.616001 174.81106,83.556475 166.06322,75.00326 C 164.10584,73.298218 162.14847,71.593176 160.2253,69.932735 C 152.69729,64.174979 145.40448,59.1701 137.23732,55.077233 C 132.92534,53.37985 127.96358,50.835033 123.35907,50.763825 C 122.8301,51.769322 122.19978,52.508815 121.60198,53.469173 C 118.22639,62.495997 114.49619,72.398794 113.1206,82.293931 C 113.18102,83.220398 113.24142,84.146863 113.33602,85.117931 C 129.59185,94.272058 143.61064,109.25329 155.95674,125.35455 C 157.52824,127.5825 159.09974,129.81045 160.67082,132.08247 C 168.44437,144.76346 174.76766,157.0254 179.68131,171.86582 C 180.24882,174.07825 180.85096,176.2912 181.45268,178.54823 C 183.93647,190.39817 185.21528,201.52435 184.47477,213.80923 C 183.66108,222.87567 181.78049,231.26452 179.13699,239.77379 C 179.86401,239.78504 182.27258,237.75087 182.93625,237.1441 C 187.98804,230.2587 192.93765,223.19543 197.13233,215.41532 C 198.93457,211.60884 200.73638,207.84643 202.57282,204.08456 C 204.99345,197.15847 205.97224,188.93197 206.94387,181.45459 C 207.34559,175.64319 207.53961,169.82855 207.63016,163.96825 L 207.63016,163.96825 z" />



</svg>