<?xml version="1.0" encoding="UTF-8" standalone="no"?>
<!-- Created with Inkscape (http://www.inkscape.org/) -->
<svg
   xmlns:dc="http://purl.org/dc/elements/1.1/"
   xmlns:cc="http://creativecommons.org/ns#"
   xmlns:rdf="http://www.w3.org/1999/02/22-rdf-syntax-ns#"
   xmlns:svg="http://www.w3.org/2000/svg"
   xmlns="http://www.w3.org/2000/svg"
   xmlns:xlink="http://www.w3.org/1999/xlink"
   xmlns:sodipodi="http://sodipodi.sourceforge.net/DTD/sodipodi-0.dtd"
   xmlns:inkscape="http://www.inkscape.org/namespaces/inkscape"
   width="120.00001"
   height="50"
   id="svg2640"
   sodipodi:version="0.32"
   inkscape:version="0.46"
   version="1.0"
   sodipodi:docname="button.svg"
   inkscape:output_extension="org.inkscape.output.svg.inkscape"
   inkscape:export-filename="/home/kaa-ching/Programming/tbe/trunk/images/illustrations/button.png"
   inkscape:export-xdpi="41.217896"
   inkscape:export-ydpi="41.217896">
  <defs
     id="defs2642">
    <linearGradient
       id="linearGradient3434">
      <stop
         id="stop3436"
         offset="0"
         style="stop-color:#252525;stop-opacity:1;" />
      <stop
         id="stop3438"
         offset="1"
         style="stop-color:#e5e5e5;stop-opacity:1;" />
    </linearGradient>
    <linearGradient
       id="linearGradient3422">
      <stop
         style="stop-color:#343434;stop-opacity:1;"
         offset="0"
         id="stop3424" />
      <stop
         style="stop-color:#d3d3d3;stop-opacity:1;"
         offset="1"
         id="stop3426" />
    </linearGradient>
    <inkscape:perspective
       sodipodi:type="inkscape:persp3d"
       inkscape:vp_x="0 : 526.18109 : 1"
       inkscape:vp_y="0 : 1000 : 0"
       inkscape:vp_z="744.09448 : 526.18109 : 1"
       inkscape:persp3d-origin="372.04724 : 350.78739 : 1"
       id="perspective2648" />
    <linearGradient
       inkscape:collect="always"
       xlink:href="#linearGradient3422"
       id="linearGradient3428"
       x1="154.83728"
       y1="253.34935"
       x2="253.68672"
       y2="193.83894"
       gradientUnits="userSpaceOnUse"
       gradientTransform="translate(0.5640952,-0.5640965)" />
  </defs>
  <sodipodi:namedview
     id="base"
     pagecolor="#ffffff"
     bordercolor="#666666"
     borderopacity="1.0"
     gridtolerance="10000"
     guidetolerance="10"
     objecttolerance="10"
     inkscape:pageopacity="0.0"
     inkscape:pageshadow="2"
     inkscape:zoom="6.8083331"
     inkscape:cx="56.622299"
     inkscape:cy="15.42759"
     inkscape:document-units="px"
     inkscape:current-layer="layer1"
     showgrid="false"
     showguides="true"
     inkscape:guide-bbox="true"
     inkscape:window-width="1272"
     inkscape:window-height="783"
     inkscape:window-x="0"
     inkscape:window-y="0" />
  <metadata
     id="metadata2645">
    <rdf:RDF>
      <cc:Work
         rdf:about="">
        <dc:format>image/svg+xml</dc:format>
        <dc:type
           rdf:resource="http://purl.org/dc/dcmitype/StillImage" />
      </cc:Work>
    </rdf:RDF>
  </metadata>
  <g
     inkscape:label="Layer 1"
     inkscape:groupmode="layer"
     id="layer1"
     transform="translate(-153.78571,-204.29076)">
    <path
       style="opacity:1;fill:none;fill-opacity:1;stroke:#2f007d;stroke-width:6.57068681999999971;stroke-linecap:round;stroke-linejoin:round;stroke-miterlimit:4;stroke-dasharray:none;stroke-dashoffset:0;stroke-opacity:0.66803277"
       d="M 168.58502,210.18757 C 167.82618,211.38474 166.36259,214.37061 165.22516,216.20931 C 164.36651,217.59734 162.78348,221.11777 164.20259,222.40816 C 166.86232,224.82668 173.22641,218.25656 175.01259,216.74064 C 175.61408,216.23017 183.33873,210.42449 182.17056,212.31289 C 174.60871,224.53699 173.2846,229.15594 166.3938,242.06739 C 165.60863,243.53858 164.83561,245.01923 164.05651,246.49514 C 164.00878,246.58556 166.28582,245.35805 167.85462,244.72403 C 173.79884,242.32176 183.19243,235.92243 188.59813,230.0239 C 193.23883,224.96013 199.80777,217.86886 202.76801,212.84422 C 203.33759,211.87744 201.81722,214.92908 201.45328,216.0322 C 201.2585,216.62257 201.06373,217.21295 200.86895,217.8033 C 198.57534,224.75531 197.53062,231.13317 196.34043,238.34809 C 196.09572,239.83157 195.66901,245.80943 196.34043,244.72403 C 201.57185,236.26722 206.09621,227.3462 211.09464,218.68886 C 211.40345,218.15396 216.60962,206.40055 215.18491,210.7189 C 210.38346,225.2722 213.64891,221.07244 209.34166,235.86853 C 209.08103,236.76385 204.82623,248.47573 208.17301,245.43249 C 217.34776,237.08981 216.18238,243.67889 223.36544,233.03477 C 226.37089,228.58122 229.99979,222.7923 232.13031,217.62619 C 232.61726,216.44546 231.07388,219.94272 230.6695,221.1684 C 230.1015,222.89002 222.50638,240.28362 226.14099,237.63963 C 232.63202,232.91776 237.45484,223.18237 241.77168,215.85508 C 242.15662,215.20168 250.43914,214.55629 250.82869,213.90689 C 253.96015,208.68653 240.80252,233.46689 240.16478,238.87941 C 238.91355,249.49839 251.9546,218.65439 252.87384,227.01303 C 253.12492,229.29618 249.46246,247.51735 249.95221,246.84936 C 255.87769,238.76723 260.37205,229.40513 265.29073,220.45995 C 268.29818,214.99058 268.64658,214.10835 267.62803,220.28283 C 266.912,224.62342 267.24421,229.53769 265.58289,233.56611 C 264.93637,235.13381 263.91502,236.40758 263.39168,237.99386"
       id="path3442"
       sodipodi:nodetypes="csssssssssssssssssssssssssssssc" />
  </g>
</svg>
