<?xml version="1.0" encoding="UTF-8" standalone="no"?>
<!-- Created with Inkscape (http://www.inkscape.org/) -->

<svg
   xmlns:dc="http://purl.org/dc/elements/1.1/"
   xmlns:cc="http://creativecommons.org/ns#"
   xmlns:rdf="http://www.w3.org/1999/02/22-rdf-syntax-ns#"
   xmlns:svg="http://www.w3.org/2000/svg"
   xmlns="http://www.w3.org/2000/svg"
   xmlns:xlink="http://www.w3.org/1999/xlink"
   xmlns:sodipodi="http://sodipodi.sourceforge.net/DTD/sodipodi-0.dtd"
   xmlns:inkscape="http://www.inkscape.org/namespaces/inkscape"
   width="325.00363"
   height="114.1875"
   id="svg2"
   sodipodi:version="0.32"
   inkscape:version="0.48.4 r9939"
   sodipodi:docname="ListViewItemTooltip_total.svg"
   inkscape:output_extension="org.inkscape.output.svg.inkscape"
   version="1.0"
   inkscape:export-filename="/home/klaas/Programming/tbe-github/imagery/style/ListViewItemTooltip.png"
   inkscape:export-xdpi="166.30542"
   inkscape:export-ydpi="166.30542">
  <defs
     id="defs4">
    <linearGradient
       id="linearGradient3587">
      <stop
         id="stop3589"
         offset="0"
         style="stop-color:#ffffff;stop-opacity:0.627451;" />
      <stop
         id="stop3591"
         offset="1"
         style="stop-color:#ffffff;stop-opacity:0;" />
    </linearGradient>
    <linearGradient
       id="linearGradient3161">
      <stop
         style="stop-color:#919191;stop-opacity:0.7647059;"
         offset="0"
         id="stop3163" />
      <stop
         style="stop-color:#f2f2f2;stop-opacity:0.7647059;"
         offset="1"
         id="stop3165" />
    </linearGradient>
    <inkscape:perspective
       sodipodi:type="inkscape:persp3d"
       inkscape:vp_x="0 : 526.18109 : 1"
       inkscape:vp_y="0 : 1000 : 0"
       inkscape:vp_z="744.09448 : 526.18109 : 1"
       inkscape:persp3d-origin="372.04724 : 350.78739 : 1"
       id="perspective10" />
    <inkscape:perspective
       sodipodi:type="inkscape:persp3d"
       inkscape:vp_x="0 : 526.18109 : 1"
       inkscape:vp_y="0 : 1000 : 0"
       inkscape:vp_z="744.09448 : 526.18109 : 1"
       inkscape:persp3d-origin="372.04724 : 350.78739 : 1"
       id="perspective3668" />
    <inkscape:perspective
       sodipodi:type="inkscape:persp3d"
       inkscape:vp_x="0 : 526.18109 : 1"
       inkscape:vp_y="0 : 1000 : 0"
       inkscape:vp_z="744.09448 : 526.18109 : 1"
       inkscape:persp3d-origin="372.04724 : 350.78739 : 1"
       id="perspective3566" />
    <radialGradient
       gradientUnits="userSpaceOnUse"
       gradientTransform="matrix(0.317734,-0.221314,0.248008,0.356058,112.194,649.365)"
       r="115.73589"
       fy="879.13922"
       fx="484.01529"
       cy="879.13922"
       cx="484.01529"
       id="radialGradient3437"
       xlink:href="#linearGradient3415"
       inkscape:collect="always" />
    <clipPath
       id="clipPath3411"
       clipPathUnits="userSpaceOnUse">
      <path
         id="path3413"
         d="m 471.74124,825.83547 c -0.56771,-0.12205 -1.55752,0.27369 -2.27284,0.63135 -0.93778,0.46889 -1.79176,0.89587 -2.77792,1.38896 -0.7729,0.38645 -1.08794,1.18189 -1.51523,1.89404 -0.43717,0.72862 -0.30159,1.83768 -0.50508,2.65165 -0.22764,0.91056 -0.63134,1.41867 -0.63134,2.39911 0,1.00379 -0.12627,1.91558 -0.12627,2.90419 0,0.83202 0.3788,1.77753 0.3788,2.65165 0,0.65468 0.86523,2.09993 1.13643,2.77792 0.39882,0.99706 0.88712,1.907 1.13642,2.90418 0.0421,0.16836 0.0842,0.33672 0.12627,0.50508 0.22084,0.88336 0.78582,1.62805 1.01015,2.52538 0.21261,0.85045 0.219,1.85261 0.37881,2.65165 0.21578,1.07893 0.16398,2.20889 0.3788,3.283 0.16323,0.81615 0.30766,1.60944 0.50508,2.39911 0.24545,0.98179 0.50508,1.83984 0.50508,2.90419 0,1.0004 0.0214,1.85356 0.25253,2.77792 0.28192,1.12765 0.37421,2.25904 0.75762,3.40926 0.31427,0.94283 0.38317,1.84182 0.75761,2.77792 0.33597,0.83991 0.43267,1.85694 0.63135,2.65165 0.23542,0.9417 0.52016,1.82811 0.75761,2.77792 0.18687,0.74747 0.55771,1.49422 0.88389,2.14658 0.41888,0.83776 0.84875,1.73264 1.51523,2.39911 1.12812,1.12813 1.24471,3.01249 2.39911,4.16688 0.66468,0.66468 1.601,0.81718 2.39911,1.13642 0.79954,0.31982 2.17939,0.37881 3.03046,0.37881 1.22424,0 1.6779,0.46867 2.65165,-0.50508 0.98666,-0.98666 2.11616,-1.27944 3.15672,-2.14657 0.85989,-0.71657 1.74832,-1.40254 2.77792,-2.02031 0.87191,-0.52314 3.00221,-0.29739 4.04061,-0.50507 0.34034,-0.0681 0.67344,-0.16836 1.01016,-0.25254 1.39577,-0.34895 2.92162,-0.0359 4.29315,-0.37881 1.04012,-0.26003 1.84849,-1.67668 2.27284,-2.52538 0.0842,-0.16836 0.16836,-0.33672 0.25254,-0.50508 0.41614,-0.83229 0.58096,-1.76837 0.75761,-2.65165 0.1637,-0.81849 -0.0995,-1.76039 -0.25254,-2.52538 -0.1359,-0.67949 -0.3788,-1.30858 -0.3788,-2.0203 0,-0.94772 -0.15203,-1.8953 -0.50508,-2.77792 -0.38836,-0.97091 -0.37239,-2.37343 -0.63135,-3.40927 -0.25322,-1.01288 -0.41245,-2.0876 -0.88388,-3.03046 -0.42451,-0.84901 -1.04091,-1.8908 -1.26269,-2.77792 -0.19487,-0.77947 -0.65277,-1.68433 -1.01015,-2.39911 -0.4029,-0.8058 -0.66339,-1.78474 -1.01016,-2.65165 -0.31751,-0.79378 -0.38253,-1.64895 -0.75761,-2.39911 -0.51421,-1.02843 -0.86399,-1.85426 -1.38896,-2.90419 -0.43074,-0.86148 -0.54748,-1.85257 -1.01015,-2.77792 -0.49817,-0.99634 -1.06139,-1.9965 -1.51523,-2.90419 -0.43784,-0.87567 -0.69458,-1.89416 -1.26269,-2.65165 -0.50926,-0.67901 -0.89342,-1.78683 -1.26269,-2.52538 -0.59621,-1.19241 -1.43593,-2.19354 -2.39911,-3.15673 -0.21045,-0.21044 -0.4209,-0.42089 -0.63135,-0.63134 -1.01895,-1.01895 -1.78896,-1.65209 -3.03046,-2.27284 -1.10411,-0.55206 -2.04176,-1.41042 -2.90419,-2.27285 -0.7568,-0.7568 -2.0351,-1.04542 -2.90418,-1.26269 -0.89377,-0.22344 -1.96854,-0.25254 -2.90419,-0.25254 -1.00332,0 -1.84867,-0.0202 -2.77792,-0.25253 -0.67165,-0.16792 -0.96147,-0.0875 -1.6415,0.25253 z"
         style="opacity:0.801724;fill:#cccccc;fill-rule:evenodd;stroke:#000000;stroke-width:1px;stroke-linecap:butt;stroke-linejoin:miter;stroke-opacity:1"
         inkscape:connector-curvature="0" />
    </clipPath>
    <inkscape:perspective
       sodipodi:type="inkscape:persp3d"
       inkscape:vp_x="0 : 526.18109 : 1"
       inkscape:vp_y="0 : 1000 : 0"
       inkscape:vp_z="744.09448 : 526.18109 : 1"
       inkscape:persp3d-origin="372.04724 : 350.78739 : 1"
       id="perspective2501" />
    <inkscape:perspective
       id="perspective3431"
       inkscape:persp3d-origin="372.04724 : 350.78739 : 1"
       inkscape:vp_z="744.09448 : 526.18109 : 1"
       inkscape:vp_y="0 : 1000 : 0"
       inkscape:vp_x="0 : 526.18109 : 1"
       sodipodi:type="inkscape:persp3d" />
    <linearGradient
       id="linearGradient3415">
      <stop
         id="stop3417"
         offset="0"
         style="stop-color: rgb(179, 98, 35); stop-opacity: 1;" />
      <stop
         id="stop3419"
         offset="1"
         style="stop-color: rgb(121, 79, 46); stop-opacity: 0;" />
    </linearGradient>
    <linearGradient
       id="linearGradient3453">
      <stop
         style="stop-color: rgb(179, 98, 35); stop-opacity: 1;"
         offset="0"
         id="stop3455" />
      <stop
         style="stop-color: rgb(121, 79, 46); stop-opacity: 0;"
         offset="1"
         id="stop3457" />
    </linearGradient>
    <linearGradient
       id="linearGradient3459">
      <stop
         id="stop3461"
         offset="0"
         style="stop-color: rgb(179, 98, 35); stop-opacity: 1;" />
      <stop
         style="stop-color: rgb(89, 71, 56); stop-opacity: 0.498039;"
         offset="1"
         id="stop3469" />
      <stop
         id="stop3463"
         offset="1"
         style="stop-color: rgb(179, 98, 35); stop-opacity: 0;" />
    </linearGradient>
    <inkscape:perspective
       sodipodi:type="inkscape:persp3d"
       inkscape:vp_x="0 : 526.18109 : 1"
       inkscape:vp_y="0 : 1000 : 0"
       inkscape:vp_z="744.09448 : 526.18109 : 1"
       inkscape:persp3d-origin="372.04724 : 350.78739 : 1"
       id="perspective2728" />
    <clipPath
       id="clipPath2625"
       clipPathUnits="userSpaceOnUse">
      <rect
         y="437.90347"
         x="-543.2406"
         height="406.8559"
         width="492.31775"
         id="rect2627"
         style="opacity:0.53879305;fill:#cccccc;fill-opacity:1;fill-rule:nonzero;stroke:#cccccc;stroke-width:1.10528004;stroke-linejoin:round;stroke-miterlimit:4;stroke-opacity:1;stroke-dasharray:none;stroke-dashoffset:0" />
    </clipPath>
    <inkscape:perspective
       sodipodi:type="inkscape:persp3d"
       inkscape:vp_x="0 : 526.18109 : 1"
       inkscape:vp_y="0 : 1000 : 0"
       inkscape:vp_z="744.09448 : 526.18109 : 1"
       inkscape:persp3d-origin="372.04724 : 350.78739 : 1"
       id="perspective2515" />
    <inkscape:perspective
       id="perspective3562"
       inkscape:persp3d-origin="372.04724 : 350.78739 : 1"
       inkscape:vp_z="744.09448 : 526.18109 : 1"
       inkscape:vp_y="0 : 1000 : 0"
       inkscape:vp_x="0 : 526.18109 : 1"
       sodipodi:type="inkscape:persp3d" />
    <linearGradient
       inkscape:collect="always"
       xlink:href="#linearGradient3161"
       id="linearGradient4095"
       gradientUnits="userSpaceOnUse"
       gradientTransform="translate(-172.95126,-233.62684)"
       x1="329.25214"
       y1="321.42578"
       x2="593.72583"
       y2="260.34561" />
    <linearGradient
       inkscape:collect="always"
       xlink:href="#linearGradient3161"
       id="linearGradient4097"
       gradientUnits="userSpaceOnUse"
       gradientTransform="translate(-172.95126,-233.62684)"
       x1="593.72583"
       y1="321.42578"
       x2="329.25214"
       y2="260.34561" />
    <radialGradient
       inkscape:collect="always"
       xlink:href="#linearGradient3587"
       id="radialGradient4126"
       cx="110.63387"
       cy="108.83603"
       fx="110.63387"
       fy="108.83603"
       r="29.409376"
       gradientTransform="matrix(1,0,0,1.0380188,0,-4.1378125)"
       gradientUnits="userSpaceOnUse" />
    <radialGradient
       inkscape:collect="always"
       xlink:href="#linearGradient3587"
       id="radialGradient4128"
       cx="110.63387"
       cy="108.83603"
       fx="110.63387"
       fy="108.83603"
       r="29.409376"
       gradientTransform="matrix(1,0,0,1.0380188,0,-4.1378125)"
       gradientUnits="userSpaceOnUse" />
    <radialGradient
       inkscape:collect="always"
       xlink:href="#linearGradient3587"
       id="radialGradient4130"
       cx="110.63387"
       cy="108.83603"
       fx="110.63387"
       fy="108.83603"
       r="29.409376"
       gradientTransform="matrix(1,0,0,1.0380188,0,-4.1378125)"
       gradientUnits="userSpaceOnUse" />
    <radialGradient
       inkscape:collect="always"
       xlink:href="#linearGradient3587"
       id="radialGradient4132"
       cx="110.63387"
       cy="108.83603"
       fx="110.63387"
       fy="108.83603"
       r="29.409376"
       gradientTransform="matrix(1,0,0,1.0380188,0,-4.1378125)"
       gradientUnits="userSpaceOnUse" />
    <radialGradient
       inkscape:collect="always"
       xlink:href="#linearGradient3587"
       id="radialGradient4134"
       cx="110.63387"
       cy="108.83603"
       fx="110.63387"
       fy="108.83603"
       r="29.409376"
       gradientTransform="matrix(1,0,0,1.0380188,0,-4.1378125)"
       gradientUnits="userSpaceOnUse" />
    <radialGradient
       inkscape:collect="always"
       xlink:href="#linearGradient3587"
       id="radialGradient4136"
       cx="110.63387"
       cy="108.83603"
       fx="110.63387"
       fy="108.83603"
       r="29.409376"
       gradientTransform="matrix(1,0,0,1.0380188,0,-4.1378125)"
       gradientUnits="userSpaceOnUse" />
    <radialGradient
       inkscape:collect="always"
       xlink:href="#linearGradient3587"
       id="radialGradient4138"
       cx="110.63387"
       cy="108.83603"
       fx="110.63387"
       fy="108.83603"
       r="29.409376"
       gradientTransform="matrix(1,0,0,1.0380188,0,-4.1378125)"
       gradientUnits="userSpaceOnUse" />
    <radialGradient
       inkscape:collect="always"
       xlink:href="#linearGradient3587"
       id="radialGradient4140"
       cx="110.63387"
       cy="108.83603"
       fx="110.63387"
       fy="108.83603"
       r="29.409376"
       gradientTransform="matrix(1,0,0,1.0380188,0,-4.1378125)"
       gradientUnits="userSpaceOnUse" />
    <radialGradient
       inkscape:collect="always"
       xlink:href="#linearGradient3587-4"
       id="radialGradient4138-8"
       cx="110.63387"
       cy="108.83603"
       fx="110.63387"
       fy="108.83603"
       r="29.409376"
       gradientTransform="matrix(1,0,0,1.0380188,0,-4.1378125)"
       gradientUnits="userSpaceOnUse" />
    <linearGradient
       id="linearGradient3587-4">
      <stop
         id="stop3589-2"
         offset="0"
         style="stop-color:#ffffff;stop-opacity:0.627451;" />
      <stop
         id="stop3591-7"
         offset="1"
         style="stop-color:#ffffff;stop-opacity:0;" />
    </linearGradient>
    <radialGradient
       inkscape:collect="always"
       xlink:href="#linearGradient3587"
       id="radialGradient4216"
       cx="110.63387"
       cy="108.83603"
       fx="110.63387"
       fy="108.83603"
       r="29.409376"
       gradientTransform="matrix(1,0,0,1.0380188,0,-4.1378125)"
       gradientUnits="userSpaceOnUse" />
    <radialGradient
       inkscape:collect="always"
       xlink:href="#linearGradient3587"
       id="radialGradient3822"
       cx="54.401638"
       cy="50.302425"
       fx="54.401638"
       fy="50.302425"
       r="5.5781765"
       gradientTransform="matrix(0.71810729,-0.03951301,0.04012386,0.72920877,16.470108,12.842529)"
       gradientUnits="userSpaceOnUse" />
    <radialGradient
       inkscape:collect="always"
       xlink:href="#linearGradient3587-5"
       id="radialGradient3822-6"
       cx="54.401638"
       cy="50.302425"
       fx="54.401638"
       fy="50.302425"
       r="5.5781765"
       gradientTransform="matrix(0.71810729,-0.03951301,0.04012386,0.72920877,16.470108,12.842529)"
       gradientUnits="userSpaceOnUse" />
    <linearGradient
       id="linearGradient3587-5">
      <stop
         id="stop3589-8"
         offset="0"
         style="stop-color:#ffffff;stop-opacity:0.627451;" />
      <stop
         id="stop3591-1"
         offset="1"
         style="stop-color:#ffffff;stop-opacity:0;" />
    </linearGradient>
    <radialGradient
       r="5.5781765"
       fy="50.302425"
       fx="54.401638"
       cy="50.302425"
       cx="54.401638"
       gradientTransform="matrix(0.71810729,-0.03951301,0.04012386,0.72920877,16.726575,3.2748063)"
       gradientUnits="userSpaceOnUse"
       id="radialGradient3839"
       xlink:href="#linearGradient3587-5"
       inkscape:collect="always" />
    <radialGradient
       inkscape:collect="always"
       xlink:href="#linearGradient3587-6"
       id="radialGradient3822-69"
       cx="54.401638"
       cy="50.302425"
       fx="54.401638"
       fy="50.302425"
       r="5.5781765"
       gradientTransform="matrix(0.71810729,-0.03951301,0.04012386,0.72920877,16.470108,12.842529)"
       gradientUnits="userSpaceOnUse" />
    <linearGradient
       id="linearGradient3587-6">
      <stop
         id="stop3589-1"
         offset="0"
         style="stop-color:#ffffff;stop-opacity:0.627451;" />
      <stop
         id="stop3591-74"
         offset="1"
         style="stop-color:#ffffff;stop-opacity:0;" />
    </linearGradient>
    <radialGradient
       r="5.5781765"
       fy="50.302425"
       fx="54.401638"
       cy="50.302425"
       cx="54.401638"
       gradientTransform="matrix(0.71810729,-0.03951301,0.04012386,0.72920877,16.470108,12.842529)"
       gradientUnits="userSpaceOnUse"
       id="radialGradient3873"
       xlink:href="#linearGradient3587-6"
       inkscape:collect="always" />
    <radialGradient
       inkscape:collect="always"
       xlink:href="#linearGradient3587-8"
       id="radialGradient3822-9"
       cx="54.401638"
       cy="50.302425"
       fx="54.401638"
       fy="50.302425"
       r="5.5781765"
       gradientTransform="matrix(0.71810729,-0.03951301,0.04012386,0.72920877,16.470108,12.842529)"
       gradientUnits="userSpaceOnUse" />
    <linearGradient
       id="linearGradient3587-8">
      <stop
         id="stop3589-9"
         offset="0"
         style="stop-color:#ffffff;stop-opacity:0.627451;" />
      <stop
         id="stop3591-4"
         offset="1"
         style="stop-color:#ffffff;stop-opacity:0;" />
    </linearGradient>
    <radialGradient
       r="5.5781765"
       fy="50.302425"
       fx="54.401638"
       cy="50.302425"
       cx="54.401638"
       gradientTransform="matrix(0.71810729,-0.03951301,0.04012386,0.72920877,16.470108,12.842529)"
       gradientUnits="userSpaceOnUse"
       id="radialGradient3873-4"
       xlink:href="#linearGradient3587-8"
       inkscape:collect="always" />
    <radialGradient
       inkscape:collect="always"
       xlink:href="#linearGradient3587-86"
       id="radialGradient3822-3"
       cx="54.401638"
       cy="50.302425"
       fx="54.401638"
       fy="50.302425"
       r="5.5781765"
       gradientTransform="matrix(0.71810729,-0.03951301,0.04012386,0.72920877,16.470108,12.842529)"
       gradientUnits="userSpaceOnUse" />
    <linearGradient
       id="linearGradient3587-86">
      <stop
         id="stop3589-22"
         offset="0"
         style="stop-color:#ffffff;stop-opacity:0.627451;" />
      <stop
         id="stop3591-5"
         offset="1"
         style="stop-color:#ffffff;stop-opacity:0;" />
    </linearGradient>
    <radialGradient
       r="5.5781765"
       fy="50.302425"
       fx="54.401638"
       cy="50.302425"
       cx="54.401638"
       gradientTransform="matrix(0.71810729,-0.03951301,0.04012386,0.72920877,16.470108,12.842529)"
       gradientUnits="userSpaceOnUse"
       id="radialGradient3873-2"
       xlink:href="#linearGradient3587-86"
       inkscape:collect="always" />
  </defs>
  <sodipodi:namedview
     id="base"
     pagecolor="#ffffff"
     bordercolor="#666666"
     borderopacity="1.0"
     gridtolerance="10000"
     guidetolerance="10"
     objecttolerance="10"
     inkscape:pageopacity="0.0"
     inkscape:pageshadow="2"
     inkscape:zoom="2.7476923"
     inkscape:cx="162.5"
     inkscape:cy="56.911779"
     inkscape:document-units="px"
     inkscape:current-layer="layer1"
     showgrid="false"
     inkscape:window-width="1366"
     inkscape:window-height="720"
     inkscape:window-x="-4"
     inkscape:window-y="-4"
     showguides="true"
     inkscape:guide-bbox="true"
     fit-margin-top="0"
     fit-margin-left="0"
     fit-margin-right="0"
     fit-margin-bottom="0"
     inkscape:window-maximized="1">
    <sodipodi:guide
       orientation="0,1"
       position="347.70735,87.468742"
       id="guide4047" />
    <sodipodi:guide
       orientation="0,1"
       position="334.88806,26.38856"
       id="guide4049" />
    <sodipodi:guide
       orientation="1,0"
       position="26.300872,126.61991"
       id="guide4051" />
    <sodipodi:guide
       orientation="1,0"
       position="290.77459,71.633139"
       id="guide4053" />
    <sodipodi:guide
       orientation="0,1"
       position="195.75363,63.122093"
       id="guide4118" />
  </sodipodi:namedview>
  <metadata
     id="metadata7">
    <rdf:RDF>
      <cc:Work
         rdf:about="">
        <dc:format>image/svg+xml</dc:format>
        <dc:type
           rdf:resource="http://purl.org/dc/dcmitype/StillImage" />
        <dc:title></dc:title>
        <dc:date>May 6, 2010</dc:date>
        <dc:creator>
          <cc:Agent>
            <dc:title>Klaas van Gend</dc:title>
          </cc:Agent>
        </dc:creator>
        <dc:rights>
          <cc:Agent>
            <dc:title>PD</dc:title>
          </cc:Agent>
        </dc:rights>
        <dc:description>This is the background for the TBE &quot;Congratulations&quot; and &quot;Death - you lost&quot; messages.</dc:description>
        <dc:contributor>
          <cc:Agent>
            <dc:title>This image uses butterfly images from &quot;jbruce&quot; as found on openclipart.org.</dc:title>
          </cc:Agent>
        </dc:contributor>
      </cc:Work>
    </rdf:RDF>
  </metadata>
  <g
     inkscape:label="Layer 1"
     inkscape:groupmode="layer"
     id="layer1"
     transform="translate(-281.47563,-116.81342)">
    <path
       style="fill:url(#linearGradient4095);fill-opacity:1;stroke:url(#linearGradient4097);stroke-width:3;stroke-linecap:round;stroke-linejoin:round;stroke-miterlimit:4;stroke-opacity:1;stroke-dasharray:none"
       d="M 156.40625,1.5 C 142.61622,1.5 131.5,12.61622 131.5,26.40625 l 0,61.40625 c 0,13.79003 11.11622,24.875 24.90625,24.875 l 127.53125,0 11.8125,0 125.03125,0 c 13.79003,0 24.875,-11.08497 24.875,-24.875 l 0,-41.46875 7.84375,-7.875 -7.84375,-7.875 0,-4.1875 C 445.65625,12.61622 434.57128,1.5 420.78125,1.5 l -125.03125,0 -11.8125,0 -127.53125,0 z"
       id="path4076"
       transform="translate(151.47563,116.81342)"
       inkscape:connector-curvature="0" />
    <path
       sodipodi:type="star"
       style="fill:url(#radialGradient4140);fill-opacity:1.0;stroke:none"
       id="path3625"
       sodipodi:sides="5"
       sodipodi:cx="113.32299"
       sodipodi:cy="108.44067"
       sodipodi:r1="12.849594"
       sodipodi:r2="32.123985"
       sodipodi:arg1="1.2167989"
       sodipodi:arg2="1.8451174"
       inkscape:flatsided="false"
       inkscape:rounded="0"
       inkscape:randomized="0"
       d="m 117.7773,120.49351 -13.15649,18.87 -1.3843,-22.962 -22.012017,-6.68142 21.410397,-8.4122 -0.44768,-22.999345 14.61665,17.762982 21.73533,-7.532959 -12.3768,19.390332 13.88086,18.34371 z"
       transform="matrix(0.2761152,0,0,0.2761152,529.7753,134.28556)" />
    <path
       sodipodi:type="star"
       style="fill:url(#radialGradient4138);fill-opacity:1.0;stroke:none"
       id="path3593"
       sodipodi:sides="5"
       sodipodi:cx="113.32299"
       sodipodi:cy="108.44067"
       sodipodi:r1="12.849594"
       sodipodi:r2="32.123985"
       sodipodi:arg1="1.2167989"
       sodipodi:arg2="1.8451174"
       inkscape:flatsided="false"
       inkscape:rounded="0"
       inkscape:randomized="0"
       d="m 117.7773,120.49351 -13.15649,18.87 -1.3843,-22.962 -22.012017,-6.68142 21.410397,-8.4122 -0.44768,-22.999345 14.61665,17.762982 21.73533,-7.532959 -12.3768,19.390332 13.88086,18.34371 z"
       transform="matrix(-0.2761152,0,0,0.2761152,427.83262,125.39661)" />
    <path
       sodipodi:type="star"
       style="fill:url(#radialGradient4136);fill-opacity:1.0;stroke:none"
       id="path3597"
       sodipodi:sides="5"
       sodipodi:cx="113.32299"
       sodipodi:cy="108.44067"
       sodipodi:r1="12.849594"
       sodipodi:r2="32.123985"
       sodipodi:arg1="1.2167989"
       sodipodi:arg2="1.8451174"
       inkscape:flatsided="false"
       inkscape:rounded="0"
       inkscape:randomized="0"
       d="m 117.7773,120.49351 -13.15649,18.87 -1.3843,-22.962 -22.012017,-6.68142 21.410397,-8.4122 -0.44768,-22.999345 14.61665,17.762982 21.73533,-7.532959 -12.3768,19.390332 13.88086,18.34371 z"
       transform="matrix(0.2761152,0,0,0.2761152,427.47097,140.06823)" />
    <path
       sodipodi:type="star"
       style="fill:url(#radialGradient4134);fill-opacity:1.0;stroke:none"
       id="path3601"
       sodipodi:sides="5"
       sodipodi:cx="113.32299"
       sodipodi:cy="108.44067"
       sodipodi:r1="12.849594"
       sodipodi:r2="32.123985"
       sodipodi:arg1="1.2167989"
       sodipodi:arg2="1.8451174"
       inkscape:flatsided="false"
       inkscape:rounded="0"
       inkscape:randomized="0"
       d="m 117.7773,120.49351 -13.15649,18.87 -1.3843,-22.962 -22.012017,-6.68142 21.410397,-8.4122 -0.44768,-22.999345 14.61665,17.762982 21.73533,-7.532959 -12.3768,19.390332 13.88086,18.34371 z"
       transform="matrix(0.2761152,0,0,0.2761152,516.80734,163.82862)" />
    <path
       sodipodi:type="star"
       style="fill:url(#radialGradient4132);fill-opacity:1.0;stroke:none"
       id="path3609"
       sodipodi:sides="5"
       sodipodi:cx="113.32299"
       sodipodi:cy="108.44067"
       sodipodi:r1="12.849594"
       sodipodi:r2="32.123985"
       sodipodi:arg1="1.2167989"
       sodipodi:arg2="1.8451174"
       inkscape:flatsided="false"
       inkscape:rounded="0"
       inkscape:randomized="0"
       d="m 117.7773,120.49351 -13.15649,18.87 -1.3843,-22.962 -22.012017,-6.68142 21.410397,-8.4122 -0.44768,-22.999345 14.61665,17.762982 21.73533,-7.532959 -12.3768,19.390332 13.88086,18.34371 z"
       transform="matrix(0.2761152,0,0,0.2761152,287.51531,137.17718)" />
    <path
       sodipodi:type="star"
       style="fill:url(#radialGradient4130);fill-opacity:1.0;stroke:none"
       id="path3629"
       sodipodi:sides="5"
       sodipodi:cx="113.32299"
       sodipodi:cy="108.44067"
       sodipodi:r1="12.849594"
       sodipodi:r2="32.123985"
       sodipodi:arg1="1.2167989"
       sodipodi:arg2="1.8451174"
       inkscape:flatsided="false"
       inkscape:rounded="0"
       inkscape:randomized="0"
       d="m 117.7773,120.49351 -13.15649,18.87 -1.3843,-22.962 -22.012017,-6.68142 21.410397,-8.4122 -0.44768,-22.999345 14.61665,17.762982 21.73533,-7.532959 -12.3768,19.390332 13.88086,18.34371 z"
       transform="matrix(0.2761152,0,0,0.2761152,336.19068,163.30606)" />
    <path
       sodipodi:type="star"
       style="fill:url(#radialGradient4128);fill-opacity:1.0;stroke:none"
       id="path3617"
       sodipodi:sides="5"
       sodipodi:cx="113.32299"
       sodipodi:cy="108.44067"
       sodipodi:r1="12.849594"
       sodipodi:r2="32.123985"
       sodipodi:arg1="1.2167989"
       sodipodi:arg2="1.8451174"
       inkscape:flatsided="false"
       inkscape:rounded="0"
       inkscape:randomized="0"
       d="m 117.7773,120.49351 -13.15649,18.87 -1.3843,-22.962 -22.012017,-6.68142 21.410397,-8.4122 -0.44768,-22.999345 14.61665,17.762982 21.73533,-7.532959 -12.3768,19.390332 13.88086,18.34371 z"
       transform="matrix(0.2761152,0,0,0.2761152,496.56227,124.63957)" />
    <path
       sodipodi:type="star"
       style="fill:url(#radialGradient4126);fill-opacity:1.0;stroke:none"
       id="path3621"
       sodipodi:sides="5"
       sodipodi:cx="113.32299"
       sodipodi:cy="108.44067"
       sodipodi:r1="12.849594"
       sodipodi:r2="32.123985"
       sodipodi:arg1="1.2167989"
       sodipodi:arg2="1.8451174"
       inkscape:flatsided="false"
       inkscape:rounded="0"
       inkscape:randomized="0"
       d="m 117.7773,120.49351 -13.15649,18.87 -1.3843,-22.962 -22.012017,-6.68142 21.410397,-8.4122 -0.44768,-22.999345 14.61665,17.762982 21.73533,-7.532959 -12.3768,19.390332 13.88086,18.34371 z"
       transform="matrix(-0.2761152,0,0,0.2761152,528.6405,162.67727)" />
    <path
       sodipodi:type="star"
       style="fill:url(#radialGradient3822);fill-opacity:1;stroke:none"
       id="path3808"
       sodipodi:sides="5"
       sodipodi:cx="57.486191"
       sodipodi:cy="47.30814"
       sodipodi:r1="4.5087209"
       sodipodi:r2="1.8034884"
       sodipodi:arg1="0"
       sodipodi:arg2="0.62831853"
       inkscape:flatsided="false"
       inkscape:rounded="0"
       inkscape:randomized="0"
       d="m 61.994912,47.30814 -3.049668,1.060064 -0.06578,3.227984 -1.95058,-2.572829 -3.090323,0.93494 1.844143,-2.650159 -1.844143,-2.65016 3.090323,0.93494 1.95058,-2.572829 0.06578,3.227985 z"
       transform="matrix(1.7190117,0,0,1.7190117,196.55068,115.76144)"
       inkscape:transform-center-x="-0.74010527" />
    <path
       sodipodi:type="star"
       style="fill:url(#radialGradient3839);fill-opacity:1;stroke:none"
       id="path3808-7"
       sodipodi:sides="5"
       sodipodi:cx="57.486191"
       sodipodi:cy="47.30814"
       sodipodi:r1="4.5087209"
       sodipodi:r2="1.8034884"
       sodipodi:arg1="0"
       sodipodi:arg2="0.62831853"
       inkscape:flatsided="false"
       inkscape:rounded="0"
       inkscape:randomized="0"
       d="m 61.994912,47.30814 -3.049668,1.060064 -0.06578,3.227984 -1.95058,-2.572829 -3.090323,0.93494 1.844143,-2.650159 -1.844143,-2.65016 3.090323,0.93494 1.95058,-2.572829 0.06578,3.227985 z"
       transform="matrix(1.7190117,0,0,1.7190117,196.10981,115.10321)"
       inkscape:transform-center-x="-0.74010527" />
    <path
       sodipodi:type="star"
       style="fill:url(#radialGradient3873);fill-opacity:1;stroke:none"
       id="path3808-4"
       sodipodi:sides="5"
       sodipodi:cx="57.486191"
       sodipodi:cy="47.30814"
       sodipodi:r1="4.5087209"
       sodipodi:r2="1.8034884"
       sodipodi:arg1="0"
       sodipodi:arg2="0.62831853"
       inkscape:flatsided="false"
       inkscape:rounded="0"
       inkscape:randomized="0"
       d="m 61.994912,47.30814 -3.049668,1.060064 -0.06578,3.227984 -1.95058,-2.572829 -3.090323,0.93494 1.844143,-2.650159 -1.844143,-2.65016 3.090323,0.93494 1.95058,-2.572829 0.06578,3.227985 z"
       transform="matrix(1.7190117,0,0,1.7190117,318.7582,139.85124)"
       inkscape:transform-center-x="-0.74010527" />
    <path
       sodipodi:type="star"
       style="fill:url(#radialGradient3873-4);fill-opacity:1;stroke:none"
       id="path3808-40"
       sodipodi:sides="5"
       sodipodi:cx="57.486191"
       sodipodi:cy="47.30814"
       sodipodi:r1="4.5087209"
       sodipodi:r2="1.8034884"
       sodipodi:arg1="0"
       sodipodi:arg2="0.62831853"
       inkscape:flatsided="false"
       inkscape:rounded="0"
       inkscape:randomized="0"
       d="m 61.994912,47.30814 -3.049668,1.060064 -0.06578,3.227984 -1.95058,-2.572829 -3.090323,0.93494 1.844143,-2.650159 -1.844143,-2.65016 3.090323,0.93494 1.95058,-2.572829 0.06578,3.227985 z"
       transform="matrix(1.7190117,0,0,1.7190117,411.56334,48.865801)"
       inkscape:transform-center-x="-0.74010527" />
    <path
       sodipodi:type="star"
       style="fill:url(#radialGradient3873-2);fill-opacity:1;stroke:none"
       id="path3808-2"
       sodipodi:sides="5"
       sodipodi:cx="57.486191"
       sodipodi:cy="47.30814"
       sodipodi:r1="4.5087209"
       sodipodi:r2="1.8034884"
       sodipodi:arg1="0"
       sodipodi:arg2="0.62831853"
       inkscape:flatsided="false"
       inkscape:rounded="0"
       inkscape:randomized="0"
       d="m 61.994912,47.30814 -3.049668,1.060064 -0.06578,3.227984 -1.95058,-2.572829 -3.090323,0.93494 1.844143,-2.650159 -1.844143,-2.65016 3.090323,0.93494 1.95058,-2.572829 0.06578,3.227985 z"
       transform="matrix(1.7190117,0,0,1.7190117,464.69884,131.48059)"
       inkscape:transform-center-x="-0.74010527" />
  </g>
</svg>
