<?xml version="1.0" encoding="UTF-8" standalone="no"?>
<!-- Created with Inkscape (http://www.inkscape.org/) -->
<svg
   xmlns:dc="http://purl.org/dc/elements/1.1/"
   xmlns:cc="http://creativecommons.org/ns#"
   xmlns:rdf="http://www.w3.org/1999/02/22-rdf-syntax-ns#"
   xmlns:svg="http://www.w3.org/2000/svg"
   xmlns="http://www.w3.org/2000/svg"
   xmlns:xlink="http://www.w3.org/1999/xlink"
   xmlns:sodipodi="http://sodipodi.sourceforge.net/DTD/sodipodi-0.dtd"
   xmlns:inkscape="http://www.inkscape.org/namespaces/inkscape"
   width="54.70816"
   height="171.17062"
   id="svg4174"
   sodipodi:version="0.32"
   inkscape:version="0.46"
   version="1.0"
   sodipodi:docname="Bowling_Pin.svg"
   inkscape:output_extension="org.inkscape.output.svg.inkscape">
  <defs
     id="defs4176">
    <filter
       inkscape:collect="always"
       id="filter3308">
      <feGaussianBlur
         inkscape:collect="always"
         stdDeviation="0.22859289"
         id="feGaussianBlur3310" />
    </filter>
    <filter
       inkscape:collect="always"
       id="filter3284">
      <feGaussianBlur
         inkscape:collect="always"
         stdDeviation="0.32704082"
         id="feGaussianBlur3286" />
    </filter>
    <linearGradient
       id="linearGradient3312">
      <stop
         style="stop-color:#d40000;stop-opacity:1;"
         offset="0"
         id="stop3314" />
      <stop
         style="stop-color:#8b0000;stop-opacity:1;"
         offset="1"
         id="stop3316" />
    </linearGradient>
    <linearGradient
       inkscape:collect="always"
       xlink:href="#linearGradient3312"
       id="linearGradient3159"
       gradientUnits="userSpaceOnUse"
       gradientTransform="translate(-124,0)"
       x1="570.65625"
       y1="319.75"
       x2="606.34375"
       y2="319.75" />
    <linearGradient
       id="linearGradient3367">
      <stop
         id="stop3369"
         offset="0"
         style="stop-color:#000000;stop-opacity:0;" />
      <stop
         style="stop-color:#000000;stop-opacity:0;"
         offset="0.62277478"
         id="stop3371" />
      <stop
         id="stop3373"
         offset="0.88651276"
         style="stop-color:#000000;stop-opacity:0.14901961;" />
      <stop
         id="stop3375"
         offset="1"
         style="stop-color:#000000;stop-opacity:0.19827586;" />
    </linearGradient>
    <radialGradient
       inkscape:collect="always"
       xlink:href="#linearGradient3367"
       id="radialGradient3157"
       gradientUnits="userSpaceOnUse"
       gradientTransform="matrix(2.0969342,-0.1473899,0.2899959,4.1258072,-848.60537,-1243.3235)"
       cx="547.17755"
       cy="423.89868"
       fx="547.17755"
       fy="423.89868"
       r="42.5" />
    <linearGradient
       id="linearGradient3328">
      <stop
         style="stop-color:#000000;stop-opacity:0;"
         offset="0"
         id="stop3330" />
      <stop
         id="stop3340"
         offset="0.71377301"
         style="stop-color:#000000;stop-opacity:0;" />
      <stop
         style="stop-color:#000000;stop-opacity:0.14901961;"
         offset="0.82863009"
         id="stop3342" />
      <stop
         style="stop-color:#000000;stop-opacity:0.19827586;"
         offset="1"
         id="stop3332" />
    </linearGradient>
    <radialGradient
       inkscape:collect="always"
       xlink:href="#linearGradient3328"
       id="radialGradient3155"
       gradientUnits="userSpaceOnUse"
       gradientTransform="matrix(2.4535818,-3.700729,1.7609055,1.1674798,-1446.4131,2005.347)"
       cx="548.32672"
       cy="296.48825"
       fx="548.32672"
       fy="296.48825"
       r="22.585911" />
    <inkscape:perspective
       sodipodi:type="inkscape:persp3d"
       inkscape:vp_x="0 : 526.18109 : 1"
       inkscape:vp_y="0 : 1000 : 0"
       inkscape:vp_z="744.09448 : 526.18109 : 1"
       inkscape:persp3d-origin="372.04724 : 350.78739 : 1"
       id="perspective4182" />
    <radialGradient
       inkscape:collect="always"
       xlink:href="#linearGradient3328"
       id="radialGradient3371"
       gradientUnits="userSpaceOnUse"
       gradientTransform="matrix(2.4535818,-3.700729,1.7609055,1.1674798,-1446.4131,2005.347)"
       cx="548.32672"
       cy="296.48825"
       fx="548.32672"
       fy="296.48825"
       r="22.585911" />
    <radialGradient
       inkscape:collect="always"
       xlink:href="#linearGradient3367"
       id="radialGradient3373"
       gradientUnits="userSpaceOnUse"
       gradientTransform="matrix(2.0969342,-0.1473899,0.2899959,4.1258072,-848.60537,-1243.3235)"
       cx="547.17755"
       cy="423.89868"
       fx="547.17755"
       fy="423.89868"
       r="42.5" />
    <linearGradient
       inkscape:collect="always"
       xlink:href="#linearGradient3312"
       id="linearGradient3375"
       gradientUnits="userSpaceOnUse"
       gradientTransform="translate(-124,0)"
       x1="570.65625"
       y1="319.75"
       x2="606.34375"
       y2="319.75" />
    <radialGradient
       inkscape:collect="always"
       xlink:href="#linearGradient3367"
       id="radialGradient3380"
       gradientUnits="userSpaceOnUse"
       gradientTransform="matrix(1.3496401,-9.4863883e-2,0.1866487,2.6554743,-469.96695,-508.38393)"
       cx="547.17755"
       cy="423.89868"
       fx="547.17755"
       fy="423.89868"
       r="42.5" />
    <radialGradient
       inkscape:collect="always"
       xlink:href="#linearGradient3328"
       id="radialGradient3383"
       gradientUnits="userSpaceOnUse"
       gradientTransform="matrix(1.5791876,-2.3818832,1.1333635,0.7514197,-854.73119,1582.5429)"
       cx="548.32672"
       cy="296.48825"
       fx="548.32672"
       fy="296.48825"
       r="22.585911" />
  </defs>
  <sodipodi:namedview
     id="base"
     pagecolor="#ffffff"
     bordercolor="#666666"
     borderopacity="1.0"
     gridtolerance="10000"
     guidetolerance="10"
     objecttolerance="10"
     inkscape:pageopacity="0.0"
     inkscape:pageshadow="2"
     inkscape:zoom="4.5919096"
     inkscape:cx="-6.5098273"
     inkscape:cy="85.58531"
     inkscape:document-units="px"
     inkscape:current-layer="layer1"
     showgrid="false"
     inkscape:window-width="1270"
     inkscape:window-height="959"
     inkscape:window-x="0"
     inkscape:window-y="0" />
  <metadata
     id="metadata4179">
    <rdf:RDF>
      <cc:Work
         rdf:about="">
        <dc:format>image/svg+xml</dc:format>
        <dc:type
           rdf:resource="http://purl.org/dc/dcmitype/StillImage" />
        <dc:title>Bowling Pin</dc:title>
        <dc:date>2008-12-30</dc:date>
        <dc:creator>
          <cc:Agent>
            <dc:title>Jurgen Gaeremyn</dc:title>
          </cc:Agent>
        </dc:creator>
        <dc:rights>
          <cc:Agent>
            <dc:title />
          </cc:Agent>
        </dc:rights>
        <dc:description>Created with Inkscape</dc:description>
        <cc:license
           rdf:resource="http://creativecommons.org/licenses/publicdomain/" />
      </cc:Work>
      <cc:License
         rdf:about="http://creativecommons.org/licenses/publicdomain/">
        <cc:permits
           rdf:resource="http://creativecommons.org/ns#Reproduction" />
        <cc:permits
           rdf:resource="http://creativecommons.org/ns#Distribution" />
        <cc:permits
           rdf:resource="http://creativecommons.org/ns#DerivativeWorks" />
      </cc:License>
    </rdf:RDF>
  </metadata>
  <g
     inkscape:label="Layer 1"
     inkscape:groupmode="layer"
     id="layer1"
     transform="translate(-347.64592,-446.77687)">
    <path
       style="fill:#ffffb9;fill-opacity:1;fill-rule:evenodd;stroke:none;stroke-width:1px;stroke-linecap:butt;stroke-linejoin:miter;stroke-opacity:1"
       d="M 388.45534,617.94212 L 361.4379,617.94212 C 361.4379,617.94212 347.64593,586.54369 347.64593,563.23396 C 347.64593,540.36684 365.11576,517.58899 365.11576,504.15834 C 365.11576,488.14764 360.53209,470.61619 360.97816,461.40322 C 361.91286,442.09848 388.43098,441.39818 389.35847,462.32269 C 389.72325,470.46176 384.88425,485.3837 384.88425,503.00901 C 384.88425,516.2611 402.35408,539.24405 402.35408,560.47556 C 402.35408,586.53895 388.45534,617.94212 388.45534,617.94212 z"
       id="path3228"
       sodipodi:nodetypes="ccssssssc" />
    <path
       style="fill:url(#radialGradient3380);fill-opacity:1;fill-rule:evenodd;stroke:none;stroke-width:1px;stroke-linecap:butt;stroke-linejoin:miter;stroke-opacity:1"
       d="M 364.52097,508.8731 C 361.49835,522.55741 347.64592,542.86386 347.64592,563.23933 C 347.64592,586.54906 361.44363,617.9475 361.44364,617.94749 L 388.45579,617.94749 C 388.45579,617.94749 402.35407,586.5472 402.35408,560.48381 C 402.35408,542.11266 389.28489,522.4282 385.76061,508.8731 L 364.52097,508.8731 z"
       id="path3321" />
    <path
       style="fill:url(#radialGradient3383);fill-opacity:1;fill-rule:evenodd;stroke:none;stroke-width:1px;stroke-linecap:butt;stroke-linejoin:miter;stroke-opacity:1"
       d="M 375.16091,446.78336 C 368.2986,446.75596 361.44838,451.75335 360.98103,461.40573 C 360.53496,470.61869 365.10424,488.15589 365.10426,504.16659 C 365.10426,505.24345 364.98906,506.37346 364.78245,507.56574 L 385.45891,507.56574 C 385.10446,505.94653 384.87563,504.41213 384.87563,503.00002 C 384.87563,485.3747 389.72567,470.47001 389.36089,462.33094 C 388.89715,451.86868 382.02321,446.81076 375.16091,446.78336 z"
       id="path3323" />
    <path
       style="fill:url(#linearGradient3375);fill-opacity:1;fill-rule:evenodd;stroke:none;stroke-width:1px;stroke-linecap:butt;stroke-linejoin:miter;stroke-opacity:1;filter:url(#filter3284)"
       d="M 458.09375,297.53125 L 451.78125,324.28125 L 448.15625,315.03125 C 448.59327,319.98828 448.84374,324.98445 448.84375,329.875 C 448.84375,333.49656 448.00759,337.54752 446.65625,341.96875 L 482.34375,341.96875 C 480.63277,336.83666 479.5625,332.14492 479.5625,328.0625 C 479.5625,327.9781 479.56235,327.89681 479.5625,327.8125 L 468.90625,327.25 L 476.96875,306.3125 L 480.3125,313 C 480.43125,311.70746 480.55002,310.42265 480.6875,309.15625 L 476.78125,298.78125 L 466.6875,325.0625 L 458.09375,297.53125 z"
       id="path3234"
       transform="matrix(0.6436254,0,0,0.6436254,76.21702,291.85066)" />
    <path
       style="fill:#000080;stroke:none;filter:url(#filter3308)"
       d="M 441,356.96875 C 440.69311,357.69375 440.40942,358.41999 440.09375,359.15625 C 444.01227,360.80512 446.77433,363.34131 446.875,365.78125 C 447.01661,369.2139 441.86292,371.15449 435.34375,370.125 C 435.04994,370.81288 434.76208,371.52413 434.46875,372.21875 C 434.77485,372.27552 435.06532,372.35652 435.375,372.40625 C 445.08861,373.96621 452.81907,371.42328 452.625,366.71875 C 452.47526,363.08899 447.65088,359.25547 441,356.96875 z M 433.625,374.21875 C 433.29648,375.00761 432.98135,375.79709 432.65625,376.59375 C 435.51998,378.18796 437.41681,380.29621 437.5,382.3125 C 437.62132,385.25387 433.8662,387.08412 428.6875,386.90625 C 428.41963,387.66023 428.13319,388.39756 427.875,389.15625 C 436.69396,390.1253 443.43151,387.61883 443.25,383.21875 C 443.11583,379.96671 439.21295,376.54191 433.625,374.21875 z"
       id="path3291"
       transform="matrix(0.6436254,0,0,0.6436254,76.21702,291.85066)" />
  </g>
</svg>
