<?xml version="1.0" encoding="UTF-8" standalone="no"?>
<!-- Created with Inkscape (http://www.inkscape.org/) -->
<svg
   xmlns:dc="http://purl.org/dc/elements/1.1/"
   xmlns:cc="http://creativecommons.org/ns#"
   xmlns:rdf="http://www.w3.org/1999/02/22-rdf-syntax-ns#"
   xmlns:svg="http://www.w3.org/2000/svg"
   xmlns="http://www.w3.org/2000/svg"
   xmlns:xlink="http://www.w3.org/1999/xlink"
   xmlns:sodipodi="http://sodipodi.sourceforge.net/DTD/sodipodi-0.dtd"
   xmlns:inkscape="http://www.inkscape.org/namespaces/inkscape"
   height="433.20999"
   id="svg1346"
   inkscape:version="0.46"
   sodipodi:docbase="/home/andrea/Documents/DISEGNI"
   sodipodi:docname="VolleyBall.svg"
   sodipodi:version="0.32"
   version="1.0"
   viewBox="0 0 215.9 279.4"
   width="433.20999"
   x="0.00000000"
   xml:space="preserve"
   y="0.00000000"
   inkscape:output_extension="org.inkscape.output.svg.inkscape"><metadata
   id="metadata2466"><rdf:RDF><cc:Work
       rdf:about=""><dc:title>Volley-ball</dc:title><dc:description>volley ball</dc:description><dc:subject><rdf:Bag><rdf:li>sports</rdf:li></rdf:Bag></dc:subject><dc:publisher><cc:Agent
           rdf:about="http://www.openclipart.org/"><dc:title>Open Clip Art Library</dc:title></cc:Agent></dc:publisher><dc:creator><cc:Agent><dc:title>Andrea Bianchini</dc:title></cc:Agent></dc:creator><dc:rights><cc:Agent><dc:title>Andrea Bianchini</dc:title></cc:Agent></dc:rights><dc:date /><dc:format>image/svg+xml</dc:format><dc:type
         rdf:resource="http://purl.org/dc/dcmitype/StillImage" /><cc:license
         rdf:resource="http://web.resource.org/cc/PublicDomain" /><dc:language>en</dc:language></cc:Work><cc:License
       rdf:about="http://web.resource.org/cc/PublicDomain"><cc:permits
         rdf:resource="http://web.resource.org/cc/Reproduction" /><cc:permits
         rdf:resource="http://web.resource.org/cc/Distribution" /><cc:permits
         rdf:resource="http://web.resource.org/cc/DerivativeWorks" /></cc:License></rdf:RDF></metadata>

<sodipodi:namedview
   bordercolor="#666666"
   borderopacity="1.0"
   id="base"
   inkscape:current-layer="svg1346"
   inkscape:cx="150.64938"
   inkscape:cy="96.976169"
   inkscape:pageopacity="0.0"
   inkscape:pageshadow="2"
   inkscape:window-height="959"
   inkscape:window-width="1270"
   inkscape:window-x="0"
   inkscape:window-y="0"
   inkscape:zoom="1.148285"
   pagecolor="#ffffff"
   showgrid="false"
   showborder="true"
   inkscape:showpageshadow="false" />


 <defs
   id="defs1348"><inkscape:perspective
   sodipodi:type="inkscape:persp3d"
   inkscape:vp_x="0 : 495 : 1"
   inkscape:vp_y="0 : 1000 : 0"
   inkscape:vp_z="765 : 495 : 1"
   inkscape:persp3d-origin="382.5 : 330 : 1"
   id="perspective2484" /><linearGradient
   id="linearGradient2140">
  <stop
   id="stop2142"
   offset="0.00000000"
   style="stop-color: rgb(255, 255, 234); stop-opacity: 1;" />


  <stop
   id="stop2148"
   offset="0.59036142"
   style="stop-color: rgb(255, 255, 193); stop-opacity: 1;" />


  <stop
   id="stop2144"
   offset="1.0000000"
   style="stop-color: rgb(191, 170, 10); stop-opacity: 1;" />


</linearGradient>



  <style
   id="style1350"
   type="text/css">
   
    .fil0 {fill:#663300}
    .fil1 {fill:url(#id0)}
   
  </style>



  <radialGradient
   cx="70.283798"
   cy="86.921097"
   fx="70.283798"
   fy="86.921097"
   gradientUnits="userSpaceOnUse"
   id="id0"
   r="79.476601">
   <stop
   id="stop1353"
   offset="0.00000000"
   style="stop-color: rgb(255, 255, 255); stop-opacity: 1;" />



   <stop
   id="stop1355"
   offset="0.36862701"
   style="stop-color: rgb(253, 252, 201); stop-opacity: 1;" />



   <stop
   id="stop1357"
   offset="1.0000000"
   style="stop-color: rgb(204, 153, 51); stop-opacity: 1;" />



  </radialGradient>



 
  
  
 
   
   
  <radialGradient
   cx="94.342743"
   cy="101.32678"
   fx="94.342743"
   fy="101.32678"
   gradientTransform="scale(1.00113,0.998866)"
   gradientUnits="userSpaceOnUse"
   id="radialGradient2146"
   r="130.28741"
   xlink:href="#linearGradient2140" />


<radialGradient
   cx="94.342743"
   cy="101.32678"
   fx="94.342743"
   fy="101.32678"
   gradientTransform="scale(1.00113,0.998866)"
   gradientUnits="userSpaceOnUse"
   id="radialGradient2209"
   r="130.28741"
   xlink:href="#linearGradient2140" />



  


  


<radialGradient
   inkscape:collect="always"
   xlink:href="#linearGradient2140"
   id="radialGradient2394"
   gradientUnits="userSpaceOnUse"
   gradientTransform="matrix(-1.6876637e-2,1.7367963,1.3859067,2.1053983e-2,-81.753349,-69.204411)"
   cx="94.342743"
   cy="101.32678"
   fx="94.342743"
   fy="101.32678"
   r="130.28741" /></defs>



 <path
   style="fill:url(#radialGradient2394);fill-opacity:1;stroke:#550800;stroke-width:1.12584662;stroke-linejoin:round;stroke-miterlimit:4;stroke-dasharray:none;stroke-opacity:1"
   id="_22009664"
   d="M 217.35153,134.86891 C 217.07289,130.89826 216.82948,126.92813 216.58609,122.95802 C 215.05688,109.84561 212.57016,97.33564 208.49496,85.06597 C 207.22313,81.7413 205.95128,78.416628 204.71425,75.136557 C 198.08995,60.40424 189.70525,45.468894 178.87957,35.079886 C 174.75014,32.020302 174.75014,32.020302 171.0376,29.584052 C 163.71013,25.550386 156.58299,22.665621 148.85287,20.168337 C 145.63172,21.573757 142.93577,23.339726 139.98927,25.498531 C 133.33951,31.523427 128.5791,38.987308 124.33448,47.781165 C 124.18538,48.616255 124.07151,49.451882 123.95765,50.287507 C 138.45851,52.446936 152.21614,62.175343 164.24603,71.965646 C 170.15056,77.343905 175.7697,83.0704 181.13746,89.277861 C 183.19061,91.997402 185.24377,94.716945 187.33175,97.481087 C 189.62218,101.17381 191.94742,104.91112 194.27267,108.64843 C 202.23189,123.84175 207.51144,139.12656 209.30943,157.22312 C 209.79024,165.78026 209.85071,174.0666 208.9575,182.55879 C 207.93575,189.77098 207.19237,193.7261 207.22376,194.12322 C 210.00347,190.99231 211.1619,184.22292 212.36728,179.87818 C 213.69551,173.77244 214.84795,167.61995 215.85986,161.42127 C 216.8802,150.72744 216.8802,150.72744 217.17571,145.70779 C 217.21082,142.09448 217.28117,138.48169 217.35153,134.86891 L 217.35153,134.86891 z M 17.847957,62.778371 C 16.717644,63.025627 12.313643,73.712131 11.521193,75.462946 C 10.220795,78.704469 8.9203981,81.945994 7.6548141,85.232118 C 4.8916421,93.916266 2.5518031,102.56278 0.8416081,111.70363 C 0.3122541,115.39757 -0.1818599,119.09207 -0.6764019,122.83062 C -1.1776629,130.88806 -1.6441099,138.99009 -1.3704759,147.10338 C -1.3369469,147.28018 -1.3034179,147.45697 -1.2346459,147.6343 C -1.1280639,147.54778 0.040786097,143.33468 0.2943311,142.63339 C 1.1194541,141.14751 2.0142071,139.75081 3.0486411,138.48846 C 5.1529551,117.8069 5.1529551,117.8069 6.1476051,109.75695 C 8.1477391,96.169299 10.674362,82.809995 14.992761,70.050838 C 15.933031,67.597127 16.872873,65.187481 17.847957,62.778371 L 17.847957,62.778371 z M 77.823584,9.9224582 C 75.989716,10.026813 74.190661,10.175768 72.391607,10.324722 C 60.317994,15.914652 49.174937,23.678213 39.137356,33.750278 C 32.476453,40.92086 26.233315,48.626644 20.861379,57.359303 C 16.581517,66.152626 13.676521,74.922761 11.114525,84.667677 C 7.1697891,102.50072 5.1646471,120.231 3.5411731,138.58409 C 10.352822,152.17339 23.954223,156.21422 35.66112,159.34485 C 36.365532,159.39962 37.069943,159.4544 37.809597,159.50971 C 38.482192,159.21142 39.190029,158.91368 39.897867,158.61592 C 37.863417,150.34368 36.391555,142.2122 35.417362,133.64755 C 34.703137,123.72066 34.728566,113.84906 35.459691,103.90004 C 36.576765,94.133183 38.2891,84.772001 40.460866,75.285584 C 42.395488,68.439846 42.395488,68.439846 44.359358,62.21155 C 50.61936,45.515468 57.710611,30.33044 68.724133,17.761136 C 71.643521,14.764564 74.557771,12.29677 77.823584,9.9224582 L 77.823584,9.9224582 z M 112.75598,6.0459994 C 111.06436,6.0203012 109.14746,3.7876137 107.78373,2.6651131 C 100.84106,2.5596436 93.992547,3.6455307 87.209385,5.2612666 C 85.72237,5.943818 84.023047,6.7112868 82.881602,8.1042294 C 80.015439,9.2506143 80.015439,9.2506143 77.818874,10.407171 C 72.389169,14.202963 68.149984,18.810126 63.761268,24.296443 C 59.006857,31.143417 55.09526,38.311693 51.249435,45.965753 C 49.915936,48.986418 48.617252,52.051683 47.318567,55.116947 C 46.014744,58.710989 44.745736,62.349633 43.476726,65.988276 C 40.522358,76.212015 38.20363,86.313199 36.584604,96.953867 C 35.568545,107.20705 35.568545,107.20705 35.274751,112.05044 C 35.239213,115.70781 35.203245,119.40927 35.167277,123.11071 C 35.68217,135.41444 37.298985,146.76533 40.251142,158.53315 C 41.374605,158.99093 42.389771,159.7115 43.40451,160.47613 C 49.779886,160.92555 56.158685,161.02244 62.542624,160.59058 C 63.146448,160.11497 63.785086,159.68395 64.423724,159.25294 C 64.558137,156.3022 64.558137,156.3022 64.713569,140.30667 C 65.196715,130.4861 66.102337,120.71602 67.359952,110.99536 C 68.936029,101.14733 70.898483,91.437372 73.282984,81.821974 C 74.5597,77.390164 75.871231,73.002954 77.182761,68.615744 C 85.911154,44.553178 96.445585,23.250469 112.75598,6.0459994 L 112.75598,6.0459994 z M 148.57736,19.503081 C 143.76379,7.0459103 130.81443,4.8219087 121.06439,3.4397935 C 118.31252,3.706488 115.90408,4.9038976 113.28546,5.9659004 C 107.01651,12.701723 101.34024,20.107619 96.150934,28.181983 C 92.924774,33.730033 89.838728,39.368353 86.892363,45.141011 C 82.92711,54.20354 82.92711,54.20354 81.012185,59.022296 C 79.381336,63.625012 77.750058,68.271792 76.154023,72.919108 C 74.256356,79.589124 74.256356,79.589124 72.279213,87.183429 C 69.256632,100.79963 67.01066,114.29541 65.781139,128.37956 C 65.529867,132.47438 65.278593,136.56918 65.062134,140.7086 C 65.002189,146.87769 64.977485,153.0473 64.952353,159.26098 C 66.218925,159.50057 66.849855,159.86273 67.765291,159.96478 C 74.120411,158.87139 74.120411,158.87139 79.065423,157.80066 C 86.813392,154.83337 94.00691,150.88808 101.00097,145.70578 C 107.61121,140.121 107.61121,140.121 107.75517,139.81469 C 106.43855,133.84505 106.92525,127.28581 106.9852,121.11674 C 107.61188,111.03392 108.35199,100.15955 111.01886,90.504364 C 111.8457,88.842214 112.46065,87.220917 112.97202,85.377689 C 112.91438,84.054673 112.89199,82.732194 112.86959,81.409712 C 114.93992,71.481041 118.27424,62.056358 121.713,52.765474 C 123.31645,50.982907 123.53646,50.104823 124.01945,47.556022 C 128.32812,39.424208 128.32812,39.424208 129.54605,37.415429 C 131.54872,34.449002 133.72588,31.66151 135.90262,28.918084 C 137.46783,27.443437 139.03303,25.968788 140.59824,24.494141 C 143.22414,22.683037 145.70648,21.13418 148.46821,19.853994 C 148.50473,19.722334 148.54126,19.590675 148.57736,19.503081 L 148.57736,19.503081 z M 147.48976,178.58409 C 146.72,177.99947 146.39156,175.52648 146.156,174.37704 C 135.80375,158.79481 123.1472,148.2017 108.2791,140.30742 C 108.13813,140.30528 107.99716,140.30313 107.8562,140.30099 C 95.801683,151.17979 82.04515,159.47657 67.020927,160.39419 C 65.054654,159.6151 64.349386,159.64845 62.573156,161.07582 C 56.154831,161.41904 49.703407,161.54139 43.294502,160.91516 C 41.055286,159.20644 40.178089,158.79647 37.770072,159.94982 C 33.930836,159.67114 30.171504,158.4241 26.446556,157.26573 C 17.980639,154.31656 8.0593931,148.78913 3.3959231,139.02259 C 3.2901971,139.02099 3.1844711,139.01938 3.0787451,139.01778 C -2.7711639,146.15661 -0.8832479,154.99955 0.5783371,164.1886 C 1.6194571,169.49297 2.8720291,174.80056 4.1959411,180.0211 C 5.0938211,181.9298 5.9917021,183.83851 6.8891531,185.79128 C 6.9243951,185.79181 6.9948791,185.79288 7.0653631,185.79395 C 8.7932081,189.34591 12.720188,191.47692 15.520707,193.45861 C 42.246225,207.13008 72.928299,209.00646 101.31596,203.97286 C 108.59336,202.27649 115.62794,200.1798 122.60015,197.24479 C 124.90245,196.08985 127.20473,194.93489 129.54183,193.82454 C 134.54393,190.50704 139.36938,187.23092 143.85226,182.93597 C 144.70706,182.02345 147.23108,179.81415 147.48976,178.58409 L 147.48976,178.58409 z M 157.0291,259.68805 C 154.63649,259.25506 152.4953,258.34111 152.279,255.20876 C 146.79123,257.7256 141.8803,262.54291 136.87479,266.21293 C 132.23111,268.91889 127.69787,271.14172 122.81521,273.05076 C 116.87572,274.89967 110.80296,275.95327 104.69753,276.74194 C 118.4118,276.42144 131.90551,273.40922 144.92807,268.09813 C 149.46175,265.83122 149.46175,265.83122 153.53728,263.55735 C 155.16868,262.52443 156.30327,261.83652 157.0291,259.68805 L 157.0291,259.68805 z M 157.89962,206.37495 C 156.29406,197.49222 154.00736,189.78908 150.24177,181.93125 C 148.35668,180.05161 148.35668,180.05161 147.80052,179.24987 C 145.62934,181.42046 143.49298,183.63564 141.35663,185.85083 C 135.24577,190.82619 128.96983,194.65321 122.17039,197.9434 C 111.16561,202.35964 100.42592,204.88485 88.921611,206.29664 C 82.678212,206.77473 82.678212,206.77473 76.789801,206.99377 C 55.57412,206.67148 33.744637,204.22442 14.184936,193.08573 C 11.978821,191.59787 9.4589521,189.75267 7.6834491,187.47806 C 8.2209041,193.8325 11.302634,199.52044 13.716907,204.97789 C 14.996455,207.5094 16.310816,210.0855 17.625177,212.66161 C 20.156309,216.97498 22.649202,221.59627 25.678004,225.47648 C 26.936439,226.55331 28.194875,227.63014 29.488124,228.75158 C 29.62952,228.70966 29.847342,229.0284 29.988739,228.98647 C 30.41037,229.26667 30.715767,229.3985 31.146775,229.742 C 36.617382,234.10419 42.310758,237.5906 48.190027,241.11123 C 53.0664,243.47702 53.0664,243.47702 58.78772,245.94379 C 65.570157,248.03003 71.898731,249.66867 78.832839,250.65544 C 81.405077,250.73859 84.012557,250.82227 86.620037,250.90595 C 93.885454,250.44339 100.59556,249.09098 107.69934,247.12754 C 113.4669,244.8353 113.4669,244.8353 118.38822,242.57428 C 125.08707,238.75371 131.19023,234.5715 137.40639,229.64179 C 143.95001,223.65937 143.95001,223.65937 148.43417,219.23221 C 153.95791,213.01392 153.95791,213.01392 157.59627,208.57391 C 157.67403,207.82589 157.78704,207.07839 157.89962,206.37495 L 157.89962,206.37495 z M 158.8327,219.16982 C 158.71871,216.39159 158.94031,211.7234 157.7321,209.10483 C 155.41526,211.75799 153.09798,214.45521 150.7807,217.15244 C 145.08246,223.19178 139.07262,228.65347 132.85431,233.80349 C 126.00551,238.5473 126.00551,238.5473 122.28197,240.87059 C 118.06549,243.14231 118.06549,243.14231 113.21421,245.44846 C 104.40513,248.79628 96.137944,250.78611 86.932933,251.35142 C 85.029865,251.32251 83.126798,251.2936 81.223729,251.26468 C 63.510707,249.58531 45.777729,242.70522 30.991113,230.05247 C 30.978267,231.37442 34.18461,235.94859 34.913131,237.14959 C 34.948373,237.15012 35.182175,237.65235 35.252659,237.65342 C 36.499961,239.87593 36.499961,239.87593 37.716304,241.65726 C 47.939873,252.34562 57.969971,261.18005 70.02685,268.19427 C 72.588382,269.37903 75.149915,270.5638 77.71102,271.79264 C 80.064954,272.5776 82.453703,273.40718 84.842451,274.23676 C 101.05133,278.36127 117.25353,275.91905 132.5891,268.35139 C 136.4897,265.94265 136.4897,265.94265 140.4642,263.18246 C 144.37165,260.0687 148.03583,256.59864 152.42511,254.68212 C 152.49688,254.551 152.56821,254.46393 152.6748,254.37741 C 154.97297,246.39135 156.70342,238.79329 158.0883,230.48485 C 158.37139,226.74308 158.65491,222.95726 158.8327,219.16982 L 158.8327,219.16982 z M 177.8012,33.608803 C 173.64723,29.447063 169.2788,25.590565 164.80165,22.040915 C 157.44964,16.905094 149.57115,11.540919 141.38459,8.8604159 C 141.03219,8.8550621 140.67976,8.8497083 140.32734,8.8443545 C 143.19577,11.091497 145.43156,13.152744 147.58531,16.402669 C 148.03276,17.51125 148.51544,18.620367 148.99812,19.729483 C 154.48217,21.223076 159.81797,23.46363 165.08201,25.835309 C 167.88638,27.420408 170.69032,29.049572 173.49427,30.678737 C 177.58976,33.60559 177.58976,33.60559 177.8012,33.608803 z M 185.79046,201.68604 C 185.50283,198.64075 185.25044,195.59599 184.99805,192.55122 C 183.34343,181.46419 180.7257,171.55245 176.84141,161.4011 C 171.98319,149.91282 166.19583,139.73257 159.56052,129.75978 C 146.54872,112.19801 131.20709,94.997484 113.35798,85.55949 C 112.81265,87.269989 112.12721,88.890216 111.37171,90.465306 C 107.82778,103.32437 107.36802,117.99314 107.23743,131.43291 C 107.31831,133.99028 107.25011,137.38274 108.14371,139.7321 C 118.45517,145.00101 127.90115,152.28406 136.48547,161.18467 C 139.93461,165.33571 143.70049,169.53562 146.508,174.42612 C 147.31741,178.18448 148.36225,179.47842 150.66553,181.84919 C 151.38977,183.49083 152.11401,185.13248 152.87306,186.81872 C 155.3123,193.33426 157.04927,199.5747 158.17899,206.64328 C 157.84853,208.00448 158.32779,209.46611 158.73914,210.66228 C 159.27359,217.32518 159.10321,223.97736 158.43987,230.57798 C 157.15858,239.10836 155.21324,247.05571 152.77282,255.17184 C 152.34705,259.08772 156.89241,259.24491 159.0456,258.92505 C 165.06285,256.32811 170.92232,251.8337 176.21705,247.41886 C 176.6451,246.89652 177.07314,246.37416 177.50117,245.85181 C 181.3784,238.59486 183.26908,229.01603 184.7253,220.62053 C 185.45655,214.28537 185.69314,208.07491 185.79046,201.68604 L 185.79046,201.68604 z M 209.42013,163.96737 C 209.13507,160.65769 208.88482,157.39261 208.63457,154.12752 C 206.85182,141.7164 203.9603,130.96314 199.3462,119.74299 C 197.58483,116.01424 195.7173,112.32796 193.84934,108.68572 C 192.80922,106.90707 191.76907,105.12842 190.72894,103.34977 C 183.43132,92.617711 176.01169,83.558514 167.10676,75.00561 C 165.11424,73.300629 163.12172,71.595649 161.16401,69.935269 C 153.50082,64.177722 146.07705,59.173025 137.76323,55.080306 C 133.37382,53.382985 128.32296,50.83826 123.63577,50.767055 C 123.0973,51.772515 122.45566,52.511981 121.84713,53.472305 C 118.41092,62.498801 114.61374,72.401238 113.21345,82.296016 C 113.27495,83.222449 113.33644,84.14888 113.43274,85.119913 C 129.98047,94.273708 144.251,109.2544 156.8188,125.35507 C 158.41852,127.58294 160.01824,129.81081 161.61753,132.08275 C 169.53067,144.76328 175.96751,157.02477 180.9694,171.86465 C 181.5471,174.077 182.16005,176.28987 182.77258,178.54682 C 185.30097,190.39633 186.60274,201.5221 185.84893,213.80654 C 185.02063,222.87265 183.10627,231.26119 180.4153,239.77016 C 181.15538,239.78141 183.6072,237.74731 184.28279,237.14056 C 189.42529,230.25541 194.46378,223.1924 198.73379,215.41257 C 200.56839,211.60623 202.40256,207.84396 204.27197,204.08222 C 206.73607,197.15638 207.73244,188.93018 208.72151,181.45307 C 209.13045,175.64188 209.32795,169.82746 209.42013,163.96737 L 209.42013,163.96737 z" />



</svg>