<?xml version="1.0" encoding="UTF-8" standalone="no"?>
<!-- Created with Inkscape (http://www.inkscape.org/) -->
<svg
   xmlns:dc="http://purl.org/dc/elements/1.1/"
   xmlns:cc="http://creativecommons.org/ns#"
   xmlns:rdf="http://www.w3.org/1999/02/22-rdf-syntax-ns#"
   xmlns:svg="http://www.w3.org/2000/svg"
   xmlns="http://www.w3.org/2000/svg"
   xmlns:xlink="http://www.w3.org/1999/xlink"
   xmlns:sodipodi="http://sodipodi.sourceforge.net/DTD/sodipodi-0.dtd"
   xmlns:inkscape="http://www.inkscape.org/namespaces/inkscape"
   width="194.63289"
   height="246.28464"
   id="svg2"
   sodipodi:version="0.32"
   inkscape:version="0.46"
   sodipodi:docname="goal-scenery.svg"
   inkscape:output_extension="org.inkscape.output.svg.inkscape"
   version="1.0">
  <defs
     id="defs4">
    <linearGradient
       id="linearGradient3389">
      <stop
         style="stop-color:#b6ff26;stop-opacity:1;"
         offset="0"
         id="stop3391" />
      <stop
         style="stop-color:#cdff6b;stop-opacity:1;"
         offset="1"
         id="stop3393" />
    </linearGradient>
    <linearGradient
       id="linearGradient3260">
      <stop
         id="stop3262"
         offset="0"
         style="stop-color:#c3c3c3;stop-opacity:1;" />
      <stop
         id="stop3264"
         offset="1"
         style="stop-color:#757575;stop-opacity:1;" />
    </linearGradient>
    <inkscape:perspective
       sodipodi:type="inkscape:persp3d"
       inkscape:vp_x="-697.14286 : 820.46681 : 1"
       inkscape:vp_y="0 : 1000 : 0"
       inkscape:vp_z="906.95162 : 380.4668 : 1"
       inkscape:persp3d-origin="372.04724 : 350.78739 : 1"
       id="perspective10" />
    <linearGradient
       inkscape:collect="always"
       xlink:href="#linearGradient3260"
       id="linearGradient3258"
       x1="217.98953"
       y1="650.8465"
       x2="148.07449"
       y2="754.92108"
       gradientUnits="userSpaceOnUse"
       gradientTransform="matrix(1,0,0,1.0392375,0,-33.343929)" />
    <linearGradient
       inkscape:collect="always"
       xlink:href="#linearGradient3389"
       id="linearGradient3395"
       x1="116.58334"
       y1="807.73425"
       x2="243.68504"
       y2="650.16785"
       gradientUnits="userSpaceOnUse" />
    <linearGradient
       inkscape:collect="always"
       xlink:href="#linearGradient3389"
       id="linearGradient3397"
       gradientUnits="userSpaceOnUse"
       x1="116.58334"
       y1="807.73425"
       x2="243.68504"
       y2="650.16785" />
    <linearGradient
       inkscape:collect="always"
       xlink:href="#linearGradient3389"
       id="linearGradient3399"
       gradientUnits="userSpaceOnUse"
       x1="116.58334"
       y1="807.73425"
       x2="243.68504"
       y2="650.16785" />
    <linearGradient
       inkscape:collect="always"
       xlink:href="#linearGradient3389"
       id="linearGradient3401"
       gradientUnits="userSpaceOnUse"
       x1="116.58334"
       y1="807.73425"
       x2="243.68504"
       y2="650.16785" />
    <linearGradient
       inkscape:collect="always"
       xlink:href="#linearGradient3389"
       id="linearGradient3403"
       gradientUnits="userSpaceOnUse"
       x1="116.58334"
       y1="807.73425"
       x2="243.68504"
       y2="650.16785" />
    <linearGradient
       inkscape:collect="always"
       xlink:href="#linearGradient3389"
       id="linearGradient3405"
       gradientUnits="userSpaceOnUse"
       x1="116.58334"
       y1="807.73425"
       x2="243.68504"
       y2="650.16785" />
    <linearGradient
       inkscape:collect="always"
       xlink:href="#linearGradient3389"
       id="linearGradient3407"
       gradientUnits="userSpaceOnUse"
       x1="116.58334"
       y1="807.73425"
       x2="243.68504"
       y2="650.16785" />
    <linearGradient
       inkscape:collect="always"
       xlink:href="#linearGradient3389"
       id="linearGradient3409"
       gradientUnits="userSpaceOnUse"
       x1="116.58334"
       y1="807.73425"
       x2="243.68504"
       y2="650.16785" />
    <linearGradient
       inkscape:collect="always"
       xlink:href="#linearGradient3389"
       id="linearGradient3411"
       gradientUnits="userSpaceOnUse"
       x1="116.58334"
       y1="807.73425"
       x2="243.68504"
       y2="650.16785" />
    <linearGradient
       inkscape:collect="always"
       xlink:href="#linearGradient3389"
       id="linearGradient3413"
       gradientUnits="userSpaceOnUse"
       x1="116.58334"
       y1="807.73425"
       x2="243.68504"
       y2="650.16785" />
    <linearGradient
       inkscape:collect="always"
       xlink:href="#linearGradient3389"
       id="linearGradient3415"
       gradientUnits="userSpaceOnUse"
       x1="116.58334"
       y1="807.73425"
       x2="243.68504"
       y2="650.16785" />
    <linearGradient
       inkscape:collect="always"
       xlink:href="#linearGradient3389"
       id="linearGradient3417"
       gradientUnits="userSpaceOnUse"
       x1="116.58334"
       y1="807.73425"
       x2="243.68504"
       y2="650.16785" />
    <linearGradient
       inkscape:collect="always"
       xlink:href="#linearGradient3389"
       id="linearGradient3419"
       gradientUnits="userSpaceOnUse"
       x1="116.58334"
       y1="807.73425"
       x2="243.68504"
       y2="650.16785" />
    <linearGradient
       inkscape:collect="always"
       xlink:href="#linearGradient3389"
       id="linearGradient3421"
       gradientUnits="userSpaceOnUse"
       x1="116.58334"
       y1="807.73425"
       x2="243.68504"
       y2="650.16785" />
    <linearGradient
       inkscape:collect="always"
       xlink:href="#linearGradient3389"
       id="linearGradient3423"
       gradientUnits="userSpaceOnUse"
       x1="116.58334"
       y1="807.73425"
       x2="243.68504"
       y2="650.16785" />
    <linearGradient
       inkscape:collect="always"
       xlink:href="#linearGradient3389"
       id="linearGradient3425"
       gradientUnits="userSpaceOnUse"
       x1="116.58334"
       y1="807.73425"
       x2="243.68504"
       y2="650.16785" />
    <linearGradient
       inkscape:collect="always"
       xlink:href="#linearGradient3389"
       id="linearGradient3427"
       gradientUnits="userSpaceOnUse"
       x1="116.58334"
       y1="807.73425"
       x2="243.68504"
       y2="650.16785" />
  </defs>
  <sodipodi:namedview
     id="base"
     pagecolor="#ffffff"
     bordercolor="#666666"
     borderopacity="1.0"
     gridtolerance="10000"
     guidetolerance="10"
     objecttolerance="10"
     inkscape:pageopacity="0.0"
     inkscape:pageshadow="2"
     inkscape:zoom="0.50362889"
     inkscape:cx="372.04724"
     inkscape:cy="526.18109"
     inkscape:document-units="px"
     inkscape:current-layer="layer1"
     showgrid="false"
     inkscape:window-width="859"
     inkscape:window-height="729"
     inkscape:window-x="371"
     inkscape:window-y="0"
     showguides="true"
     inkscape:guide-bbox="true">
    <sodipodi:guide
       orientation="0,1"
       position="271.66384,674.08703"
       id="guide3266" />
  </sodipodi:namedview>
  <metadata
     id="metadata7">
    <rdf:RDF>
      <cc:Work
         rdf:about="">
        <dc:format>image/svg+xml</dc:format>
        <dc:type
           rdf:resource="http://purl.org/dc/dcmitype/StillImage" />
      </cc:Work>
    </rdf:RDF>
  </metadata>
  <g
     inkscape:label="Layer 1"
     inkscape:groupmode="layer"
     id="layer1"
     transform="translate(-67.108372,-603.51255)">
    <g
       id="g3292"
       style="stroke:#d2ff5d;stroke-opacity:1">
      <path
         id="path3268"
         d="M 103.05502,610.26583 C 103.40959,614.14729 102.17818,621.69767 102.17818,627.43921 C 102.17818,634.05581 102.67489,641.24115 104.8087,645.88468 C 106.98923,650.62991 107.73149,652.26111 107.73149,658.60569 C 107.73149,664.85763 106.85465,670.43582 106.85465,676.41511 C 106.85465,677.26317 106.85465,678.11123 106.85465,678.95931 C 106.85465,684.7873 106.03109,691.85263 105.39326,697.40478 C 104.70112,703.42962 104.62569,709.81057 103.93185,715.85026 C 103.73699,717.54637 103.54214,719.24251 103.34729,720.93865 C 102.27997,730.22943 101.77593,739.70534 100.71678,748.92488 C 100.09893,754.30313 100.71678,761.77612 100.71678,767.37035 C 100.71678,774.13113 101.30134,781.67765 101.30134,788.99608 C 101.30134,796.76609 100.13223,804.09027 100.13223,811.8939 C 100.13223,816.08561 99.324958,821.94972 98.963104,825.88701 C 98.523429,830.67105 99.255385,835.28293 99.255385,839.88014 C 99.255385,842.74152 98.679774,844.89064 98.378545,847.51274"
         style="fill:none;fill-rule:evenodd;stroke:#d2ff5d;stroke-width:1.2303369;stroke-linecap:butt;stroke-linejoin:miter;stroke-miterlimit:4;stroke-dasharray:none;stroke-opacity:1" />
      <path
         id="path3270"
         d="M 134.62214,613.10066 C 134.62214,616.36914 134.54525,624.90767 134.78431,629.84368 C 135.12081,636.79183 135.75736,641.22947 135.75736,648.59586 C 135.75736,655.56116 135.55962,661.68775 134.94649,668.01775 C 134.29064,674.78886 135.96482,677.37211 137.05477,680.07274 C 137.99058,682.39145 138.02782,685.89608 138.02782,690.11854 C 138.02782,696.23892 137.54129,701.41486 137.54129,707.53128 C 137.54129,712.69788 137.37912,718.2592 137.37912,723.60458 C 137.37912,735.81165 134.39616,749.17478 133.48691,760.43922 C 132.06751,778.02399 129.73928,793.54626 128.62166,812.0077 C 128.18751,819.1791 129.36788,824.4654 130.40559,828.75072 C 131.5527,833.48785 132.51386,830.84816 132.51386,839.46626 C 132.51386,843.9515 132.0096,846.48002 133.00038,847.50291"
         style="fill:none;fill-rule:evenodd;stroke:#d2ff5d;stroke-width:1.25;stroke-linecap:butt;stroke-linejoin:miter;stroke-miterlimit:4;stroke-dasharray:none;stroke-opacity:1" />
      <path
         id="path3274"
         d="M 150.4545,613.42478 C 150.4545,617.13474 150.4545,625.52727 150.4545,631.32877 C 150.4545,638.05192 151.13467,642.52342 152.03583,648.56965 C 152.1676,649.45381 152.29937,650.33795 152.43116,651.22209 C 153.20709,656.42811 153.17377,664.1436 152.43116,669.12609 C 151.11425,677.96181 150.27916,686.5112 149.2685,694.98741 C 148.54566,701.04967 149.2685,708.6754 149.2685,714.88074 C 149.2685,725.09267 147.56198,736.94018 146.10583,746.71006 C 145.81116,748.68706 145.57871,750.68873 145.31516,752.67806 C 144.16245,761.37877 145.28057,770.51161 144.12916,779.20249 C 143.34344,785.13321 144.12916,792.96954 144.12916,799.09581 C 144.12916,805.58187 144.5245,812.37213 144.5245,818.98914 C 144.5245,825.43916 144.12916,831.98859 144.12916,838.21936 C 144.12916,841.31388 144.12916,844.4084 144.12916,847.50291"
         style="fill:none;fill-rule:evenodd;stroke:#d2ff5d;stroke-width:1.25;stroke-linecap:butt;stroke-linejoin:miter;stroke-miterlimit:4;stroke-dasharray:none;stroke-opacity:1" />
      <path
         id="path3276"
         d="M 167.06877,612.05534 C 167.06877,615.61764 168.75737,621.69874 167.84795,627.83954 C 166.51002,636.87379 166.16784,645.55562 164.34161,654.8042 C 163.09957,661.09427 163.01746,668.22393 163.95202,674.53444 C 164.6405,679.18336 165.5104,685.5088 165.5104,690.31864 C 165.5104,699.04591 164.46997,707.20915 163.17283,715.96796 C 162.02265,723.73442 163.14492,732.59833 162.00406,740.30192 C 161.74432,742.05572 161.48459,743.80952 161.22487,745.56331 C 160.93447,747.52412 160.7054,749.50937 160.44567,751.48239 C 159.40171,759.41287 158.24128,765.52672 160.05608,773.18566 C 161.41613,778.92542 161.22487,786.07741 161.22487,792.25822 C 161.22487,799.81761 158.8873,806.85044 158.8873,814.61917 C 158.8873,821.12986 159.36013,825.84444 160.05608,831.71871 C 160.72353,837.35234 161.70371,841.63884 160.83528,847.50291"
         style="fill:none;fill-rule:evenodd;stroke:#d2ff5d;stroke-width:1.25;stroke-linecap:butt;stroke-linejoin:miter;stroke-miterlimit:4;stroke-dasharray:none;stroke-opacity:1" />
      <path
         id="path3278"
         d="M 195.48975,616.71415 C 195.11719,619.55856 194.78878,627.51977 194.78878,632.76901 C 194.78878,638.11225 195.11995,644.10435 196.8917,647.48598 C 198.81109,651.14944 198.29364,657.22489 198.29364,662.20294 C 198.29364,668.08122 197.28962,675.21987 196.54121,680.93364 C 195.80659,686.54219 196.54121,694.52799 196.54121,700.33326 C 196.54121,712.92513 192.68099,728.45723 190.58295,740.47044 C 189.23787,748.17231 189.5315,755.83683 189.5315,763.8838 C 189.5315,770.80865 189.88198,777.29202 189.88198,783.95238 C 189.88198,790.24669 190.93344,796.62953 190.93344,803.35201 C 190.93344,812.68669 191.06616,823.32966 189.5315,832.11699 C 188.72634,836.72728 189.14514,844.69014 189.88198,847.50291"
         style="fill:none;fill-rule:evenodd;stroke:#d2ff5d;stroke-width:1.25;stroke-linecap:butt;stroke-linejoin:miter;stroke-miterlimit:4;stroke-dasharray:none;stroke-opacity:1" />
      <path
         id="path3280"
         d="M 212.71179,667.96922 C 212.52313,669.21279 213.41623,683.26327 213.41623,688.08938 C 213.41623,699.98625 212.11703,711.38148 210.9507,722.91271 C 209.23007,739.92445 206.37187,756.32283 206.37187,773.98696 C 206.37187,780.90659 205.66743,788.37392 205.66743,795.65482 C 205.66743,802.53921 206.37187,809.35848 206.37187,816.54882 C 206.37187,823.86663 206.30512,831.21152 205.66743,838.21668 C 205.35236,841.678 204.60691,844.44151 204.25856,847.50291"
         style="fill:none;fill-rule:evenodd;stroke:#d2ff5d;stroke-width:1.25;stroke-linecap:butt;stroke-linejoin:miter;stroke-miterlimit:4;stroke-dasharray:none;stroke-opacity:1" />
      <path
         id="path3282"
         d="M 239.4855,772.13367 C 238.78073,774.38025 234.55978,780.03362 234.55978,784.69521 C 234.55978,789.24735 237.49947,794.97198 241.12741,798.82694 C 245.51852,803.49282 242.99131,808.20535 241.12741,812.95867 C 239.47325,817.1771 239.4855,821.57025 239.4855,826.04361 C 239.4855,830.66427 240.38804,835.7801 238.66455,840.17535 C 237.67944,842.68753 237.99652,845.21431 236.20169,847.50291"
         style="fill:none;fill-rule:evenodd;stroke:#d2ff5d;stroke-width:1.25;stroke-linecap:butt;stroke-linejoin:miter;stroke-miterlimit:4;stroke-dasharray:none;stroke-opacity:1" />
      <path
         id="path3284"
         d="M 228.50544,725.86482 C 228.17549,727.92486 227.13856,733.55592 227.13856,738.66556 C 227.13856,745.78618 224.48475,753.22536 223.0379,760.00014 C 221.73946,766.07996 222.0816,771.09736 223.0379,777.06781 C 223.94497,782.73095 223.49352,789.6039 223.49352,795.55776 C 223.49352,800.7729 223.49352,805.98801 223.49352,811.20314 C 223.49352,817.61296 220.75975,823.20452 220.75975,829.6931 C 220.75975,833.48591 220.75975,837.27873 220.75975,841.07155 C 220.75975,842.89292 219.68568,845.64375 219.39287,847.47191"
         style="fill:none;fill-rule:evenodd;stroke:#d2ff5d;stroke-width:1.31199408;stroke-linecap:butt;stroke-linejoin:miter;stroke-miterlimit:4;stroke-dasharray:none;stroke-opacity:1" />
      <path
         id="path3288"
         d="M 179.95745,613.10066 C 179.95745,616.36914 179.88056,624.90767 180.11962,629.84368 C 180.45612,636.79183 181.09267,641.22947 181.09267,648.59586 C 181.09267,655.56116 180.89493,661.68775 180.2818,668.01775 C 179.62595,674.78886 181.30013,677.37211 182.39008,680.07274 C 183.32589,682.39145 183.36313,685.89608 183.36313,690.11854 C 183.36313,696.23892 182.8766,701.41486 182.8766,707.53128 C 182.8766,712.69788 182.71443,718.2592 182.71443,723.60458 C 182.71443,735.81165 179.73147,749.17478 178.82222,760.43922 C 177.40282,778.02399 175.07459,793.54626 173.95697,812.0077 C 173.52282,819.1791 174.70319,824.4654 175.7409,828.75072 C 176.88801,833.48785 177.84917,830.84816 177.84917,839.46626 C 177.84917,843.9515 177.34491,846.48002 178.33569,847.50291"
         style="fill:none;fill-rule:evenodd;stroke:#d2ff5d;stroke-width:1.25;stroke-linecap:butt;stroke-linejoin:miter;stroke-miterlimit:4;stroke-dasharray:none;stroke-opacity:1" />
      <path
         id="path3290"
         d="M 120.23097,613.42478 C 120.23097,617.13474 120.23097,625.52727 120.23097,631.32877 C 120.23097,638.05192 120.91114,642.52342 121.8123,648.56965 C 121.94407,649.45381 122.07584,650.33795 122.20763,651.22209 C 122.98356,656.42811 122.95024,664.1436 122.20763,669.12609 C 120.89072,677.96181 120.05563,686.5112 119.04497,694.98741 C 118.32213,701.04967 119.04497,708.6754 119.04497,714.88074 C 119.04497,725.09267 117.33845,736.94018 115.8823,746.71006 C 115.58763,748.68706 115.35518,750.68873 115.09163,752.67806 C 113.93892,761.37877 115.05704,770.51161 113.90563,779.20249 C 113.11991,785.13321 113.90563,792.96954 113.90563,799.09581 C 113.90563,805.58187 114.30097,812.37213 114.30097,818.98914 C 114.30097,825.43916 113.90563,831.98859 113.90563,838.21936 C 113.90563,841.31388 113.90563,844.4084 113.90563,847.50291"
         style="fill:none;fill-rule:evenodd;stroke:#d2ff5d;stroke-width:1.25;stroke-linecap:butt;stroke-linejoin:miter;stroke-miterlimit:4;stroke-dasharray:none;stroke-opacity:1" />
    </g>
    <g
       id="g3371"
       style="stroke:url(#linearGradient3395);stroke-opacity:1">
      <path
         id="path3306"
         d="M 78.045587,713.00421 C 80.537678,712.64877 85.3854,713.88321 89.071755,713.88321 C 93.319947,713.88321 97.933294,713.38528 100.91467,711.2462 C 103.96135,709.06029 105.00866,708.3162 109.0822,708.3162 C 113.09626,708.3162 116.67773,709.19521 120.51674,709.19521 C 121.06123,709.19521 121.60573,709.19521 122.15024,709.19521 C 125.8921,709.19521 130.4284,710.0208 133.99315,710.6602 C 137.8614,711.35405 141.95829,711.42967 145.83607,712.12522 C 146.92506,712.32056 148.01407,712.51589 149.10307,712.71122 C 155.06822,713.78117 161.15223,714.28645 167.07163,715.34822 C 170.52474,715.96759 175.32277,715.34822 178.91455,715.34822 C 183.25531,715.34822 188.10055,714.76222 192.79935,714.76222 C 197.78808,714.76222 202.49057,715.93421 207.50089,715.93421 C 210.19218,715.93421 213.95723,716.74347 216.48517,717.10622 C 219.55676,717.54698 222.51782,716.81321 225.46946,716.81321 C 227.30661,716.81321 228.68645,717.39025 230.36997,717.69222"
         style="fill:none;fill-rule:evenodd;stroke:url(#linearGradient3397);stroke-width:0.98705983;stroke-linecap:butt;stroke-linejoin:miter;stroke-miterlimit:4;stroke-dasharray:none;stroke-opacity:1" />
      <path
         id="path3308"
         d="M 79.846959,683.07081 C 81.784021,683.07081 86.84437,683.14819 89.769691,682.9076 C 93.887507,682.56894 96.51747,681.92831 100.88316,681.92831 C 105.01113,681.92831 108.64204,682.12732 112.39351,682.74438 C 116.4064,683.40444 117.93737,681.71953 119.53789,680.62259 C 120.91207,679.68078 122.98908,679.6433 125.49152,679.6433 C 129.11875,679.6433 132.18627,680.13295 135.81116,680.13295 C 138.87314,680.13295 142.16905,680.29616 145.33698,680.29616 C 152.57149,680.29616 160.49113,683.29824 167.167,684.21332 C 177.58859,685.64182 186.78784,687.98498 197.72899,689.10976 C 201.97912,689.54669 205.11203,688.35875 207.65172,687.31439 C 210.45918,686.15993 208.89477,685.19261 214.00228,685.19261 C 216.66045,685.19261 218.15897,685.70009 218.76519,684.70297"
         style="fill:none;fill-rule:evenodd;stroke:url(#linearGradient3399);stroke-width:0.9653756;stroke-linecap:butt;stroke-linejoin:miter;stroke-miterlimit:4;stroke-dasharray:none;stroke-opacity:1" />
      <path
         id="path3310"
         d="M 80.051213,668.05298 C 82.21296,668.05298 87.103182,668.05298 90.483643,668.05298 C 94.401141,668.05298 97.006628,667.36781 100.52969,666.46001 C 101.04488,666.32727 101.56005,666.19453 102.07524,666.06177 C 105.10871,665.28012 109.60443,665.3137 112.50767,666.06177 C 117.65613,667.38838 122.63775,668.22962 127.57673,669.24772 C 131.10913,669.97588 135.55255,669.24772 139.16832,669.24772 C 145.11869,669.24772 152.02209,670.96681 157.71487,672.43368 C 158.86684,672.73052 160.03319,672.96468 161.19235,673.23017 C 166.26214,674.39137 171.58373,673.26502 176.6478,674.42491 C 180.10355,675.21641 184.66969,674.42491 188.23939,674.42491 C 192.01873,674.42491 195.97533,674.02665 199.83098,674.02665 C 203.58933,674.02665 207.4056,674.42491 211.03618,674.42491 C 212.83932,674.42491 214.64247,674.42491 216.4456,674.42491"
         style="fill:none;fill-rule:evenodd;stroke:url(#linearGradient3401);stroke-width:0.9576813;stroke-linecap:butt;stroke-linejoin:miter;stroke-miterlimit:4;stroke-dasharray:none;stroke-opacity:1" />
      <path
         id="path3312"
         d="M 79.166684,652.2448 C 81.194566,652.2448 84.656306,650.54185 88.15203,651.459 C 93.29489,652.8083 98.237126,653.15339 103.50199,654.99515 C 107.08269,656.24775 111.14134,656.33056 114.73367,655.38805 C 117.38012,654.69372 120.98096,653.81642 123.71902,653.81642 C 128.68712,653.81642 133.33414,654.8657 138.3202,656.17387 C 142.74135,657.33383 147.78724,656.20202 152.1726,657.35257 C 153.17097,657.61453 154.16935,657.87647 155.16771,658.1384 C 156.28393,658.43126 157.41406,658.66228 158.53722,658.92422 C 163.05174,659.97705 166.53212,661.14736 170.89207,659.31712 C 174.1595,657.9455 178.23086,658.1384 181.74935,658.1384 C 186.05263,658.1384 190.05615,660.49584 194.47859,660.49584 C 198.18488,660.49584 200.86872,660.01899 204.21271,659.31712 C 207.41972,658.64399 209.85987,657.65549 213.19806,658.5313"
         style="fill:none;fill-rule:evenodd;stroke:url(#linearGradient3403);stroke-width:0.94711959;stroke-linecap:butt;stroke-linejoin:miter;stroke-miterlimit:4;stroke-dasharray:none;stroke-opacity:1" />
      <path
         id="path3314"
         d="M 82.143536,625.47606 C 83.661563,625.85293 87.910364,626.18514 90.711823,626.18514 C 93.563445,626.18514 96.761356,625.85014 98.566093,624.05788 C 100.52123,622.11627 103.76363,622.63971 106.42035,622.63971 C 109.55752,622.63971 113.36733,623.65535 116.4167,624.41243 C 119.40992,625.15555 123.67184,624.41243 126.77004,624.41243 C 133.49017,624.41243 141.77947,628.31734 148.19077,630.43967 C 152.30117,631.80032 156.39163,631.50329 160.6862,631.50329 C 164.38191,631.50329 167.842,631.14876 171.39655,631.14876 C 174.75575,631.14876 178.16219,630.08512 181.7499,630.08512 C 186.7317,630.08512 192.41173,629.95086 197.10142,631.50329 C 199.56187,632.31778 203.81156,631.89412 205.3127,631.14876"
         style="fill:none;fill-rule:evenodd;stroke:url(#linearGradient3405);stroke-width:0.91844511;stroke-linecap:butt;stroke-linejoin:miter;stroke-miterlimit:4;stroke-dasharray:none;stroke-opacity:1" />
      <path
         id="path3322"
         d="M 79.82655,640.19322 C 81.595712,640.19322 86.217444,640.27093 88.889205,640.02931 C 92.6501,639.68921 95.052104,639.04584 99.039384,639.04584 C 102.80956,639.04584 106.12575,639.24569 109.55205,639.86539 C 113.21712,640.52826 114.61538,638.83615 116.07718,637.73454 C 117.33224,636.78871 119.22923,636.75107 121.51476,636.75107 C 124.8276,636.75107 127.62922,637.24281 130.93992,637.24281 C 133.7365,637.24281 136.74672,637.40672 139.64007,637.40672 C 146.24751,637.40672 153.4807,640.42161 159.57791,641.3406 C 169.09619,642.7752 177.49808,645.12836 187.49088,646.25795 C 191.37261,646.69675 194.23397,645.50374 196.55353,644.45492 C 199.11764,643.29552 197.68884,642.32407 202.35364,642.32407 C 204.78141,642.32407 206.15004,642.83373 206.70371,641.83234"
         style="fill:none;fill-rule:evenodd;stroke:url(#linearGradient3407);stroke-width:0.92455697;stroke-linecap:butt;stroke-linejoin:miter;stroke-miterlimit:4;stroke-dasharray:none;stroke-opacity:1" />
      <path
         id="path3324"
         d="M 80.064903,696.64034 C 82.358785,696.64034 87.547918,696.64034 91.135007,696.64034 C 95.291959,696.64034 98.056705,695.95718 101.79511,695.05206 C 102.34179,694.91971 102.88845,694.78736 103.43513,694.65499 C 106.65402,693.87566 111.42454,693.90912 114.50523,694.65499 C 119.96839,695.97769 125.25451,696.81645 130.49538,697.83156 C 134.2437,698.55757 138.95872,697.83156 142.7955,697.83156 C 149.10958,697.83156 156.43494,699.54558 162.4757,701.00812 C 163.69808,701.30408 164.93572,701.53756 166.16573,701.80227 C 171.54541,702.96004 177.19228,701.837 182.56588,702.99347 C 186.23287,703.78265 191.07811,702.99347 194.866,702.99347 C 198.87635,702.99347 203.0748,702.5964 207.16612,702.5964 C 211.15419,702.5964 215.20373,702.99347 219.05623,702.99347 C 220.96959,702.99347 222.88294,702.99347 224.79629,702.99347"
         style="fill:none;fill-rule:evenodd;stroke:url(#linearGradient3409);stroke-width:0.98506093;stroke-linecap:butt;stroke-linejoin:miter;stroke-miterlimit:4;stroke-dasharray:none;stroke-opacity:1" />
      <path
         id="path3336"
         d="M 252.71242,827.32896 C 249.88288,827.68416 244.37875,826.45053 240.19323,826.45053 C 235.36981,826.45053 230.13179,826.94813 226.74671,829.08582 C 223.28749,831.27031 222.09837,832.01391 217.47325,832.01391 C 212.91566,832.01391 208.84923,831.13548 204.4904,831.13548 C 203.87218,831.13548 203.25395,831.13548 202.63571,831.13548 C 198.38718,831.13548 193.23663,830.31042 189.18919,829.67144 C 184.79715,828.97804 180.14552,828.90247 175.74266,828.20737 C 174.50622,828.01216 173.26975,827.81696 172.03329,827.62175 C 165.26042,826.5525 158.35259,826.04755 151.63167,824.98647 C 147.71099,824.3675 142.26327,824.98647 138.18514,824.98647 C 133.25661,824.98647 127.7553,825.57209 122.42025,825.57209 C 116.75601,825.57209 111.41677,824.40086 105.72802,824.40086 C 102.67231,824.40086 98.39745,823.59213 95.52721,823.22962 C 92.039707,822.78914 88.6777,823.52243 85.326389,823.52243 C 83.240477,823.52243 81.673798,822.94577 79.762318,822.644"
         style="fill:none;fill-rule:evenodd;stroke:url(#linearGradient3411);stroke-width:1.05142367;stroke-linecap:butt;stroke-linejoin:miter;stroke-miterlimit:4;stroke-dasharray:none;stroke-opacity:1" />
      <path
         id="path3338"
         d="M 250.64586,797.40176 C 248.26318,797.40176 242.0387,797.47879 238.4404,797.23929 C 233.37528,796.90218 230.1403,796.26448 224.77029,796.26448 C 219.69267,796.26448 215.22647,796.46258 210.61197,797.07682 C 205.67592,797.73386 203.79276,796.05664 201.82403,794.96471 C 200.13373,794.0272 197.57889,793.9899 194.50077,793.9899 C 190.03909,793.9899 186.26589,794.47731 181.8071,794.47731 C 178.0407,794.47731 173.98657,794.63978 170.08986,794.63978 C 161.19105,794.63978 151.44949,797.62815 143.23785,798.53905 C 130.41877,799.96102 119.10323,802.29348 105.64506,803.41312 C 100.41719,803.84806 96.563553,802.66555 93.439607,801.62595 C 89.98629,800.47676 91.910589,799.51386 85.628101,799.51386 C 82.358414,799.51386 80.515161,800.01903 79.769482,799.02646"
         style="fill:none;fill-rule:evenodd;stroke:url(#linearGradient3413);stroke-width:1.06822741;stroke-linecap:butt;stroke-linejoin:miter;stroke-miterlimit:4;stroke-dasharray:none;stroke-opacity:1" />
      <path
         id="path3340"
         d="M 244.37764,782.38521 C 241.76858,782.38521 235.86648,782.38521 231.78652,782.38521 C 227.05842,782.38521 223.9138,781.70248 219.66175,780.79792 C 219.03996,780.66567 218.41819,780.53339 217.7964,780.40111 C 214.13523,779.62226 208.70926,779.6557 205.20529,780.40111 C 198.9915,781.72298 192.97908,782.56121 187.01812,783.57569 C 182.7548,784.30124 177.39195,783.57569 173.028,783.57569 C 165.84638,783.57569 157.51453,785.28863 150.64379,786.75026 C 149.25345,787.04604 147.84576,787.27937 146.44676,787.54391 C 140.32792,788.70096 133.90519,787.57863 127.79326,788.73438 C 123.62244,789.52306 118.11147,788.73438 113.80313,788.73438 C 109.24177,788.73438 104.46647,788.33755 99.813007,788.33755 C 95.276974,788.33755 90.671042,788.73438 86.289214,788.73438 C 84.112966,788.73438 81.936719,788.73438 79.760482,788.73438"
         style="fill:none;fill-rule:evenodd;stroke:url(#linearGradient3415);stroke-width:1.05022764;stroke-linecap:butt;stroke-linejoin:miter;stroke-miterlimit:4;stroke-dasharray:none;stroke-opacity:1" />
      <path
         id="path3342"
         d="M 238.8801,766.57889 C 236.47248,766.57889 232.36251,764.88036 228.2122,765.79513 C 222.10632,767.14093 216.23863,767.48512 209.98789,769.3221 C 205.73669,770.57145 200.91804,770.65404 196.65303,769.71399 C 193.51101,769.02146 189.2359,768.14643 185.98512,768.14643 C 180.08672,768.14643 174.56952,769.19299 168.6498,770.49776 C 163.40077,771.65471 157.41001,770.52583 152.20347,771.67341 C 151.01815,771.93469 149.83283,772.19594 148.64751,772.45719 C 147.32228,772.74929 145.98052,772.97972 144.64706,773.24097 C 139.28716,774.29107 135.15506,775.45834 129.97869,773.63286 C 126.09943,772.26479 121.26568,772.45719 117.08834,772.45719 C 111.97925,772.45719 107.22604,774.80851 101.97548,774.80851 C 97.575166,774.80851 94.388769,774.3329 90.418596,773.63286 C 86.611057,772.96147 83.713984,771.97553 79.750695,772.84907"
         style="fill:none;fill-rule:evenodd;stroke:url(#linearGradient3417);stroke-width:1.03065264;stroke-linecap:butt;stroke-linejoin:miter;stroke-miterlimit:4;stroke-dasharray:none;stroke-opacity:1" />
      <path
         id="path3344"
         d="M 233.62843,739.80963 C 231.7319,740.18464 226.42367,740.51521 222.92367,740.51521 C 219.36101,740.51521 215.3657,740.18186 213.11096,738.39845 C 210.66831,736.46643 206.61744,736.98728 203.29826,736.98728 C 199.37886,736.98728 194.61908,737.99791 190.80935,738.75125 C 187.06979,739.4907 181.74517,738.75125 177.87445,738.75125 C 169.47867,738.75125 159.12246,742.63688 151.11252,744.74874 C 145.97721,746.10266 140.8668,745.8071 135.50139,745.8071 C 130.88416,745.8071 126.5613,745.45432 122.12044,745.45432 C 117.92363,745.45432 113.6678,744.39594 109.18552,744.39594 C 102.96151,744.39594 95.865187,744.26233 90.00613,745.8071 C 86.932173,746.61757 81.62284,746.19601 79.747392,745.45432"
         style="fill:none;fill-rule:evenodd;stroke:url(#linearGradient3419);stroke-width:1.02404761;stroke-linecap:butt;stroke-linejoin:miter;stroke-miterlimit:4;stroke-dasharray:none;stroke-opacity:1" />
      <path
         id="path3346"
         d="M 237.65421,754.5244 C 235.45241,754.5244 229.70046,754.60175 226.37533,754.36127 C 221.69472,754.02277 218.70533,753.38243 213.74298,753.38243 C 209.05083,753.38243 204.92368,753.58135 200.65948,754.19813 C 196.09815,754.85787 194.35795,753.17373 192.53868,752.07731 C 190.9767,751.13594 188.61581,751.09848 185.77136,751.09848 C 181.64839,751.09848 178.16163,751.5879 174.04133,751.5879 C 170.56085,751.5879 166.81449,751.75103 163.2136,751.75103 C 154.99034,751.75103 145.98831,754.75172 138.40005,755.66638 C 126.55413,757.09422 116.0976,759.43629 103.66111,760.56055 C 98.830109,760.99728 95.26902,759.80989 92.382227,758.76602 C 89.191068,757.61209 90.969284,756.64522 85.163729,756.64522 C 82.14226,756.64522 80.438937,757.15247 79.749866,756.15581"
         style="fill:none;fill-rule:evenodd;stroke:url(#linearGradient3421);stroke-width:1.0289948;stroke-linecap:butt;stroke-linejoin:miter;stroke-miterlimit:4;stroke-dasharray:none;stroke-opacity:1" />
      <path
         id="path3348"
         d="M 230.4435,725.21191 C 228.08408,725.21191 222.74668,725.21191 219.0571,725.21191 C 214.78138,725.21191 211.93764,724.52558 208.09242,723.61625 C 207.53013,723.48327 206.96785,723.35032 206.40554,723.21732 C 203.09468,722.43437 198.18786,722.46799 195.01915,723.21732 C 189.3999,724.54618 183.96274,725.38884 178.57213,726.40867 C 174.71671,727.13807 169.86699,726.40867 165.92057,726.40867 C 159.4261,726.40867 151.89142,728.13067 145.67808,729.60002 C 144.42076,729.89734 143.14777,730.13191 141.88262,730.39785 C 136.34923,731.56102 130.54102,730.43276 125.01388,731.59461 C 121.24212,732.38745 116.25844,731.59461 112.36233,731.59461 C 108.23739,731.59461 103.91899,731.19568 99.71077,731.19568 C 95.608747,731.19568 91.443502,731.59461 87.480926,731.59461 C 85.512902,731.59461 83.544877,731.59461 81.576863,731.59461"
         style="fill:none;fill-rule:evenodd;stroke:url(#linearGradient3423);stroke-width:1.00135529;stroke-linecap:butt;stroke-linejoin:miter;stroke-miterlimit:4;stroke-dasharray:none;stroke-opacity:1" />
      <path
         id="path3350"
         d="M 86.295123,813.03837 C 88.984284,812.68431 94.215355,813.91397 98.193216,813.91397 C 102.77735,813.91397 107.75551,813.41796 110.97265,811.28717 C 114.26026,809.10972 115.39039,808.36851 119.78606,808.36851 C 124.11754,808.36851 127.98223,809.24412 132.12483,809.24412 C 132.71237,809.24412 133.29993,809.24412 133.8875,809.24412 C 137.92526,809.24412 142.82029,810.06651 146.66693,810.70343 C 150.84108,811.3946 155.26194,811.46993 159.44637,812.16278 C 160.62148,812.35737 161.7966,812.55194 162.97172,812.74651 C 169.40859,813.81232 175.97371,814.31565 182.36121,815.37331 C 186.08739,815.99028 191.26484,815.37331 195.14065,815.37331 C 199.82467,815.37331 205.05306,814.78957 210.12344,814.78957 C 215.50667,814.78957 220.58103,815.95703 225.98756,815.95703 C 228.89167,815.95703 232.95445,816.76315 235.6823,817.1245 C 238.99679,817.56355 242.192,816.83262 245.37705,816.83262 C 247.35948,816.83262 248.84844,817.40743 250.66509,817.70823"
         style="fill:none;fill-rule:evenodd;stroke:url(#linearGradient3425);stroke-width:1.02335823;stroke-linecap:butt;stroke-linejoin:miter;stroke-miterlimit:4;stroke-dasharray:none;stroke-opacity:1" />
      <path
         id="path3352"
         d="M 77.846533,841.61957 C 80.801699,841.97186 86.550215,840.74835 90.921556,840.74835 C 95.95915,840.74835 101.42973,841.24187 104.96511,843.36201 C 108.57792,845.52856 109.81984,846.26606 114.65032,846.26606 C 119.41027,846.26606 123.65724,845.39484 128.20961,845.39484 C 128.85527,845.39484 129.50095,845.39484 130.14664,845.39484 C 134.58381,845.39484 139.96304,844.57656 144.19018,843.94282 C 148.77722,843.25512 153.63539,843.18017 158.23373,842.49078 C 159.52508,842.29717 160.81645,842.10357 162.1078,841.90997 C 169.18139,840.84949 176.39592,840.34869 183.41525,839.29632 C 187.51001,838.68243 193.19961,839.29632 197.4588,839.29632 C 202.60616,839.29632 208.35173,839.87713 213.92366,839.87713 C 219.83938,839.87713 225.41568,838.71552 231.35701,838.71552 C 234.54839,838.71552 239.01306,837.91342 242.01074,837.55389 C 245.65308,837.11703 249.16436,837.8443 252.66447,837.8443 C 254.843,837.8443 256.47924,837.27237 258.47559,836.97308"
         style="fill:none;fill-rule:evenodd;stroke:url(#linearGradient3427);stroke-width:1.07009172;stroke-linecap:butt;stroke-linejoin:miter;stroke-miterlimit:4;stroke-dasharray:none;stroke-opacity:1" />
    </g>
    <path
       style="fill:url(#linearGradient3258);fill-opacity:1;stroke:none;stroke-width:0.125;stroke-linecap:round;stroke-linejoin:round;stroke-miterlimit:4;stroke-opacity:1"
       d="M 77.384377,606.16962 C 77.384377,606.16962 191.50462,605.86139 201.8693,614.51071 C 213.14914,623.92374 261.74126,847.43187 261.74126,847.43187 L 254.91322,849.79718 C 254.91322,849.79718 207.91699,634.74835 196.36822,620.88368 C 186.84366,615.52784 77.384377,614.44823 77.384377,614.44823 L 77.384377,606.16962 z"
       id="rect2479"
       sodipodi:nodetypes="czccccc" />
    <g
       id="g2435"
       transform="matrix(0.5315932,0,0,0.8740066,134.6061,278.06554)">
      <rect
         y="372.36218"
         x="-126.97252"
         height="280"
         width="40"
         id="rect2437"
         style="fill:#ff0000;fill-opacity:1;stroke:none;stroke-width:0.125;stroke-linecap:round;stroke-linejoin:round;stroke-miterlimit:4;stroke-dasharray:none;stroke-opacity:1" />
      <rect
         y="572.36218"
         x="-125.47252"
         height="40"
         width="37"
         id="rect2439"
         style="fill:#ffffff;fill-opacity:1;stroke:none;stroke-width:0.125;stroke-linecap:round;stroke-linejoin:round;stroke-miterlimit:4;stroke-dasharray:none;stroke-opacity:1" />
      <rect
         y="492.36218"
         x="-125.47252"
         height="40"
         width="37"
         id="rect2441"
         style="fill:#ffffff;fill-opacity:1;stroke:none;stroke-width:0.125;stroke-linecap:round;stroke-linejoin:round;stroke-miterlimit:4;stroke-dasharray:none;stroke-opacity:1" />
      <rect
         y="412.36218"
         x="-125.47252"
         height="40"
         width="37"
         id="rect2443"
         style="fill:#ffffff;fill-opacity:1;stroke:none;stroke-width:0.125;stroke-linecap:round;stroke-linejoin:round;stroke-miterlimit:4;stroke-dasharray:none;stroke-opacity:1" />
    </g>
  </g>
</svg>
