<?xml version="1.0" encoding="UTF-8" standalone="no"?>
<!-- Created with Inkscape (http://www.inkscape.org/) -->
<svg height="990.00000" id="svg1346" inkscape:version="0.41" sodipodi:docbase="/home/andrea/Documents/DISEGNI" sodipodi:docname="volley-ball.svg" sodipodi:version="0.32" version="1.0" viewBox="0 0 215.9 279.4" width="765.00000" x="0.00000000" xml:space="preserve" xmlns="http://www.w3.org/2000/svg" xmlns:cc="http://web.resource.org/cc/" xmlns:dc="http://purl.org/dc/elements/1.1/" xmlns:inkscape="http://www.inkscape.org/namespaces/inkscape" xmlns:rdf="http://www.w3.org/1999/02/22-rdf-syntax-ns#" xmlns:sodipodi="http://inkscape.sourceforge.net/DTD/sodipodi-0.dtd" xmlns:svg="http://www.w3.org/2000/svg" xmlns:xlink="http://www.w3.org/1999/xlink" xmlns:xml="http://www.w3.org/XML/1998/namespace" y="0.00000000"><metadata><rdf:RDF xmlns:cc="http://web.resource.org/cc/" xmlns:dc="http://purl.org/dc/elements/1.1/" xmlns:rdf="http://www.w3.org/1999/02/22-rdf-syntax-ns#"><cc:Work rdf:about=""><dc:title>Volley-ball</dc:title><dc:description>volley ball</dc:description><dc:subject><rdf:Bag><rdf:li>sports</rdf:li></rdf:Bag></dc:subject><dc:publisher><cc:Agent rdf:about="http://www.openclipart.org/"><dc:title>Open Clip Art Library</dc:title></cc:Agent></dc:publisher><dc:creator><cc:Agent><dc:title>Andrea Bianchini</dc:title></cc:Agent></dc:creator><dc:rights><cc:Agent><dc:title>Andrea Bianchini</dc:title></cc:Agent></dc:rights><dc:date/><dc:format>image/svg+xml</dc:format><dc:type rdf:resource="http://purl.org/dc/dcmitype/StillImage"/><cc:license rdf:resource="http://web.resource.org/cc/PublicDomain"/><dc:language>en</dc:language></cc:Work><cc:License rdf:about="http://web.resource.org/cc/PublicDomain"><cc:permits rdf:resource="http://web.resource.org/cc/Reproduction"/><cc:permits rdf:resource="http://web.resource.org/cc/Distribution"/><cc:permits rdf:resource="http://web.resource.org/cc/DerivativeWorks"/></cc:License></rdf:RDF></metadata>

<sodipodi:namedview bordercolor="#666666" borderopacity="1.0" id="base" inkscape:current-layer="svg1346" inkscape:cx="382.50001" inkscape:cy="532.44967" inkscape:pageopacity="0.0" inkscape:pageshadow="2" inkscape:window-height="543" inkscape:window-width="640" inkscape:window-x="132" inkscape:window-y="73" inkscape:zoom="0.25855824" pagecolor="#ffffff"/>


 <defs id="defs1348"><linearGradient id="linearGradient2140">
  <stop id="stop2142" offset="0.00000000" style="stop-color: rgb(255, 255, 234); stop-opacity: 1;"/>


  <stop id="stop2148" offset="0.59036142" style="stop-color: rgb(255, 255, 193); stop-opacity: 1;"/>


  <stop id="stop2144" offset="1.0000000" style="stop-color: rgb(191, 170, 10); stop-opacity: 1;"/>


</linearGradient>



  <style id="style1350" type="text/css">
   
    .fil0 {fill:#663300}
    .fil1 {fill:url(#id0)}
   
  </style>



  <radialGradient cx="70.283798" cy="86.921097" fx="70.283798" fy="86.921097" gradientUnits="userSpaceOnUse" id="id0" r="79.476601">
   <stop id="stop1353" offset="0.00000000" style="stop-color: rgb(255, 255, 255); stop-opacity: 1;"/>



   <stop id="stop1355" offset="0.36862701" style="stop-color: rgb(253, 252, 201); stop-opacity: 1;"/>



   <stop id="stop1357" offset="1.0000000" style="stop-color: rgb(204, 153, 51); stop-opacity: 1;"/>



  </radialGradient>



 
  
  
 
   
   
  <radialGradient cx="94.342743" cy="101.32678" fx="94.342743" fy="101.32678" gradientTransform="scale(1.00113, 0.998866)" gradientUnits="userSpaceOnUse" id="radialGradient2146" r="130.28741" xlink:href="#linearGradient2140"/>


<radialGradient cx="94.342743" cy="101.32678" fx="94.342743" fy="101.32678" gradientTransform="scale(1.00113, 0.998866)" gradientUnits="userSpaceOnUse" id="radialGradient2209" r="130.28741" xlink:href="#linearGradient2140"/>


</defs>



 <g id="volley" inkscape:label="volley-ball" transform="matrix(-0.0121489, 0.999927, 0.999927, 0.0121489, -28.9655, 19.2412)">
  <path d="M 114.77548,217.24135 C 109.94948,216.80955 105.19968,216.19995 100.47528,215.23475 C 98.062280,214.70135 95.649280,213.91395 93.261680,213.20275 C 84.016080,209.87535 76.015080,205.45575 68.242680,199.43595 C 65.245480,196.84515 62.400680,194.10195 59.581280,191.28255 C 58.826780,190.39395 57.422780,188.69115 56.923980,188.04815 C 55.933280,186.77135 54.900880,185.52005 53.942480,184.24675 C 49.980080,178.48095 46.881280,172.61355 44.290480,166.13655 C 43.655480,164.18075 42.664880,162.19955 42.766480,160.11675 C 40.886880,156.00195 40.074080,151.09975 39.794680,146.60395 C 39.972480,144.62275 40.683680,142.89555 41.318680,141.01595 C 41.318680,139.41575 40.404280,138.52675 39.515280,137.23135 C 39.515280,132.12595 40.124880,127.22375 41.140880,122.21995 C 41.902880,120.39115 42.918880,118.68935 43.579280,116.83515 C 43.934880,115.10795 44.138080,113.38075 44.188880,111.62815 C 46.754280,105.04955 49.853080,99.105952 53.790080,93.238552 C 57.193680,88.742752 57.193680,88.742752 58.870080,86.710752 C 62.857880,82.392752 66.998080,78.506552 71.570080,74.848952 C 75.253080,72.308952 78.961480,69.819752 82.923880,67.736952 C 84.854280,66.822552 86.784680,65.933552 88.715080,65.044552 C 92.931480,63.444352 97.122480,62.123552 101.46588,60.980552 C 108.98428,59.405752 116.29948,58.770752 123.99568,59.202552 C 124.30048,59.253352 124.37668,59.329552 124.57988,59.532752 C 128.79628,59.278752 133.06348,60.599552 137.12748,61.564752 C 141.31848,62.910952 141.31848,62.910952 144.06168,63.901552 C 144.06168,64.384152 146.29688,65.476352 146.72868,65.730352 C 148.40508,66.289152 150.08148,66.847952 151.75788,67.406752 C 157.87928,70.810352 164.00068,74.493352 169.08068,79.370152 C 169.81728,80.513152 170.57928,81.656152 171.34128,82.824552 C 173.72888,84.526352 176.06568,86.253552 178.30088,88.158552 C 179.87568,90.088952 181.45048,92.044752 183.05068,94.000552 C 184.49848,96.108752 185.97168,98.216952 187.44488,100.35055 C 190.26428,105.30355 190.26428,105.30355 191.61048,107.94515 C 194.25208,113.86335 196.33488,119.67995 197.37628,126.10615 C 197.63028,129.48435 197.80808,132.88795 197.70648,136.29155 C 198.13828,136.87575 197.96048,137.71395 197.96048,138.42515 C 197.32548,144.62275 196.66508,150.74415 195.34428,156.86555 C 193.89648,162.50435 191.91528,168.11775 189.24828,173.29935 C 188.81648,173.90895 188.13068,174.39155 187.47028,174.72175 C 186.75908,178.27775 184.47308,181.52895 182.79668,184.67855 C 182.00928,185.84695 181.22188,187.04075 180.43448,188.23455 C 179.01208,189.63155 177.15788,190.06335 175.86248,191.48575 C 175.48148,192.17155 175.10048,192.85735 174.74488,193.56855 C 171.59528,196.71815 168.16628,199.53755 164.68648,202.28075 C 161.07968,204.66835 157.39668,207.30995 153.38348,208.98635 C 152.18968,209.21495 150.84348,209.39275 149.77668,209.97695 C 149.29408,210.43415 148.81148,210.89135 148.32888,211.34855 C 144.03628,212.97415 139.79448,214.26955 135.34948,215.41255 C 130.70128,216.32695 126.02768,216.83495 121.30328,217.19055 C 119.11888,217.19055 116.93448,217.21595 114.77548,217.24135 L 114.77548,217.24135 z " id="_128508744" style="fill: rgb(114, 11, 0); fill-opacity: 1;"/>


  <path d="M 114.99648,216.97135 C 112.71048,216.74275 110.42448,216.53955 108.13848,216.33635 C 100.59468,215.14255 93.406480,213.26295 86.370680,210.24035 C 84.465680,209.30055 82.560680,208.36075 80.681080,207.44635 C 72.248280,202.56955 63.713880,196.42275 57.821080,188.54875 C 56.093880,185.55155 56.093880,185.55155 54.722280,182.85915 C 52.461680,177.55055 50.861480,172.39435 49.489880,166.80635 C 50.328080,164.49495 51.369480,162.56455 52.639480,160.45635 C 56.170080,155.70655 60.513480,152.32835 65.618880,149.33115 C 66.101480,149.22955 66.584080,149.15335 67.066680,149.07715 C 68.184280,159.54195 73.670680,169.52415 79.207880,178.26175 C 82.255880,182.55435 85.507080,186.64375 89.037680,190.55535 C 90.587080,192.05395 92.136480,193.55255 93.711280,195.07655 C 95.819480,196.75295 97.953080,198.45475 100.08668,200.15655 C 108.77348,205.99855 117.53648,209.91015 127.95048,211.33255 C 132.87808,211.73895 137.65328,211.84055 142.55548,211.25635 C 146.72108,210.57055 149.00708,210.06255 149.23568,210.08795 C 147.40688,212.06915 143.49528,212.85655 140.98068,213.69475 C 137.45008,214.60915 133.89408,215.39655 130.31268,216.08235 C 124.14048,216.74275 124.14048,216.74275 121.24488,216.92055 C 119.16208,216.92055 117.07928,216.94595 114.99648,216.97135 L 114.99648,216.97135 z M 75.194680,72.699352 C 75.347080,71.886552 81.544680,68.787752 82.560680,68.228952 C 84.440280,67.314552 86.319880,66.400152 88.224880,65.511152 C 93.254080,63.580752 98.257880,61.955152 103.54108,60.786752 C 105.67468,60.431152 107.80828,60.100952 109.96728,59.770752 C 114.61548,59.465952 119.28908,59.186552 123.96268,59.440552 C 124.06428,59.465952 124.16588,59.491352 124.26748,59.542152 C 124.21668,59.618352 121.77828,60.431152 121.37188,60.608952 C 120.50828,61.193152 119.69548,61.828152 118.95888,62.564752 C 107.02088,63.936352 107.02088,63.936352 102.37268,64.596752 C 94.524080,65.942952 86.802480,67.670152 79.411080,70.692752 C 77.988680,71.353152 76.591680,72.013552 75.194680,72.699352 L 75.194680,72.699352 z M 44.206680,115.54915 C 44.282880,114.22835 44.384480,112.93295 44.486080,111.63755 C 47.813480,102.97615 52.385480,95.000552 58.278280,87.837752 C 62.469280,83.087952 66.965080,78.642952 72.045080,74.832952 C 77.150480,71.810352 82.230480,69.778352 87.869280,68.000352 C 98.181680,65.282552 108.41788,63.961752 119.00968,62.920352 C 126.78208,67.924152 128.99188,77.753952 130.69368,86.212152 C 130.71908,86.720152 130.74448,87.228152 130.76988,87.761552 C 130.59208,88.244152 130.41428,88.752152 130.23648,89.260152 C 125.48668,87.736152 120.81308,86.618552 115.88548,85.856552 C 110.17048,85.272352 104.48088,85.221552 98.740480,85.678752 C 93.101680,86.415352 87.691480,87.583752 82.205080,89.082352 C 78.242680,90.428552 78.242680,90.428552 74.635880,91.800152 C 64.958480,96.194352 56.144680,101.19815 48.804080,109.04675 C 47.051480,111.12955 45.603680,113.21235 44.206680,115.54915 L 44.206680,115.54915 z M 41.666680,140.69515 C 41.666680,139.47595 40.396680,138.07895 39.761680,137.08835 C 39.761680,132.08455 40.447480,127.15695 41.438080,122.28015 C 41.844480,121.21335 42.301680,119.99415 43.114480,119.18135 C 43.800280,117.12395 43.800280,117.12395 44.486080,115.54915 C 46.721280,111.66295 49.413680,108.64035 52.614080,105.51615 C 56.601880,102.13795 60.767480,99.369352 65.212480,96.651552 C 66.965080,95.711752 68.743080,94.797352 70.521080,93.882952 C 72.603880,92.968552 74.712080,92.079552 76.820280,91.190552 C 82.738480,89.133152 88.580480,87.532952 94.727280,86.440752 C 100.64548,85.780352 100.64548,85.780352 103.43948,85.602552 C 105.54768,85.602552 107.68128,85.602552 109.81488,85.602552 C 116.90148,86.059752 123.42928,87.304352 130.18568,89.514152 C 130.43968,90.326952 130.84608,91.063552 131.27788,91.800152 C 131.48108,96.397552 131.48108,100.99495 131.17628,105.59235 C 130.89688,106.02415 130.64288,106.48135 130.38888,106.93855 C 128.68708,107.01475 128.68708,107.01475 119.46688,107.01475 C 113.80268,107.29415 108.16388,107.87835 102.55048,108.71655 C 96.860880,109.78335 91.247480,111.12955 85.684880,112.78055 C 83.119480,113.66955 80.579480,114.58395 78.039480,115.49835 C 64.094880,121.61975 51.725080,129.06195 41.666680,140.69515 L 41.666680,140.69515 z M 49.108880,166.60315 C 41.971480,163.04715 40.803080,153.69995 40.091880,146.66415 C 40.269680,144.68295 40.980880,142.95575 41.615880,141.07615 C 45.552880,136.60575 49.870880,132.56715 54.569880,128.88415 C 57.795680,126.59815 61.072280,124.41375 64.425080,122.33095 C 69.682880,119.53695 69.682880,119.53695 72.476880,118.19075 C 75.143880,117.04775 77.836280,115.90475 80.528680,114.78715 C 84.389480,113.46635 84.389480,113.46635 88.783680,112.09475 C 96.657680,110.01195 104.45548,108.48795 112.58348,107.70055 C 114.94568,107.54815 117.30788,107.39575 119.69548,107.26875 C 123.25148,107.26875 126.80748,107.29415 130.38888,107.31955 C 130.51588,108.23395 130.71908,108.69115 130.76988,109.35155 C 130.08408,113.92355 130.08408,113.92355 129.42368,117.47955 C 127.64568,123.04215 125.30888,128.19835 122.26088,133.20215 C 118.98428,137.92655 118.98428,137.92655 118.80648,138.02815 C 115.37748,137.03755 111.59288,137.34235 108.03688,137.34235 C 102.22028,137.72335 95.946480,138.18055 90.358480,140.03475 C 89.393280,140.61895 88.453480,141.05075 87.386680,141.40635 C 86.624680,141.35555 85.862680,141.33015 85.100680,141.30475 C 79.360280,142.72715 73.899280,145.06395 68.514480,147.47695 C 67.473080,148.61995 66.965080,148.77235 65.491880,149.10255 C 60.767480,152.15055 60.767480,152.15055 59.599080,153.01415 C 57.871880,154.43655 56.246280,155.98595 54.646080,157.53535 C 53.782480,158.65295 52.918880,159.77055 52.055280,160.88815 C 50.988480,162.76775 50.074080,164.54575 49.312080,166.52695 C 49.235880,166.55235 49.159680,166.57775 49.108880,166.60315 L 49.108880,166.60315 z M 140.80288,166.93335 C 140.47268,166.37455 139.05028,166.12055 138.38988,165.94275 C 129.49988,158.37355 123.50548,149.17875 119.08588,138.40915 C 119.08588,138.30755 119.08588,138.20595 119.08588,138.10435 C 125.46128,129.49375 130.36348,119.63855 131.02388,108.81815 C 130.59208,107.39575 130.61748,106.88775 131.45568,105.61775 C 131.70968,100.99495 131.83668,96.346752 131.53188,91.723952 C 130.56668,90.098352 130.33808,89.463352 131.02388,87.736152 C 130.89688,84.967552 130.21108,82.249752 129.57608,79.557352 C 127.95048,73.435952 124.85168,66.247752 119.26368,62.818752 C 119.26368,62.742552 119.26368,62.666352 119.26368,62.590152 C 123.42928,58.424552 128.50928,59.846952 133.79248,60.964552 C 136.84048,61.751952 139.88848,62.691752 142.88568,63.682352 C 143.97788,64.342752 145.07008,65.003152 146.18768,65.663552 C 146.18768,65.688952 146.18768,65.739752 146.18768,65.790552 C 148.21968,67.060552 149.41348,69.905352 150.53108,71.937352 C 158.17648,91.292152 158.98928,113.41555 155.83968,133.83715 C 154.79828,139.06955 153.52828,144.12415 151.77568,149.12795 C 151.08988,150.77895 150.40408,152.42995 149.74368,154.10635 C 147.78788,157.68775 145.85748,161.14215 143.34288,164.34255 C 142.80948,164.95215 141.51408,166.75555 140.80288,166.93335 L 140.80288,166.93335 z M 187.46268,174.37555 C 187.23408,172.64835 186.72608,171.09895 184.92268,170.92115 C 186.42128,166.98415 189.24068,163.47895 191.39968,159.89755 C 192.99988,156.57015 194.32068,153.31895 195.46368,149.81375 C 196.58128,145.54655 197.24168,141.17775 197.74968,136.78355 C 197.44488,146.66415 195.59068,156.36695 192.41568,165.71415 C 191.06948,168.96535 191.06948,168.96535 189.72328,171.88635 C 189.11368,173.05475 188.70728,173.86755 187.46268,174.37555 L 187.46268,174.37555 z M 156.72868,174.62955 C 151.62328,173.41035 147.20368,171.70855 142.70788,168.93995 C 141.64108,167.56835 141.64108,167.56835 141.18388,167.16195 C 142.45388,165.61255 143.74928,164.08855 145.04468,162.56455 C 147.96568,158.19575 150.22628,153.69995 152.18208,148.82315 C 154.82368,140.92375 156.37308,133.20215 157.28748,124.92175 C 157.61768,120.42595 157.61768,120.42595 157.79548,116.18415 C 157.79548,100.89335 156.57628,85.145352 150.32788,70.972152 C 149.48968,69.371952 148.44828,67.543152 147.15288,66.247752 C 150.81048,66.679552 154.06168,68.940152 157.18588,70.718152 C 158.63368,71.657952 160.10688,72.623152 161.58008,73.588352 C 164.04388,75.442552 166.68548,77.271352 168.89528,79.481152 C 169.50488,80.395552 170.11448,81.309952 170.74948,82.249752 C 170.72408,82.351352 170.90588,82.510552 170.88048,82.612152 C 171.03828,82.917952 171.11158,83.138952 171.30578,83.451952 C 173.77198,87.424752 175.73148,91.551952 177.70908,95.813352 C 179.02988,99.343952 179.02988,99.343952 180.40148,103.48415 C 181.54448,108.38635 182.43348,112.95835 182.94148,117.96215 C 182.96688,119.81635 182.99228,121.69595 183.01768,123.57555 C 182.68748,128.80795 181.84928,133.63395 180.65548,138.73935 C 179.28388,142.87955 179.28388,142.87955 177.93768,146.41015 C 175.67708,151.21075 173.21328,155.57955 170.31768,160.02455 C 166.81248,164.69815 166.81248,164.69815 164.22168,167.89855 C 160.58948,171.83555 160.58948,171.83555 157.99868,174.42635 C 157.56688,174.47715 157.13508,174.55335 156.72868,174.62955 L 156.72868,174.62955 z M 164.09468,175.39155 C 162.49448,175.28995 159.80208,175.41695 158.30348,174.52795 C 159.85288,172.87695 161.42768,171.22595 163.00248,169.57495 C 166.53308,165.51095 169.73348,161.21835 172.75608,156.77335 C 175.55008,151.87115 175.55008,151.87115 176.92168,149.20415 C 178.26788,146.18155 178.26788,146.18155 179.63948,142.70175 C 181.64608,136.37715 182.86528,130.43355 183.27168,123.80415 C 183.27168,122.43255 183.27168,121.06095 183.27168,119.68935 C 182.45888,106.91315 178.64888,94.086152 171.48608,83.341952 C 172.24808,83.341952 174.85628,85.684552 175.54208,86.217952 C 175.54208,86.243352 175.82948,86.415352 175.82948,86.466152 C 177.09948,87.380552 177.09948,87.380552 178.11548,88.269552 C 184.18608,95.711752 189.18988,103.00155 193.12688,111.73915 C 193.78728,113.59335 194.44768,115.44755 195.13348,117.30175 C 195.56528,119.00355 196.02248,120.73075 196.47968,122.45795 C 198.71488,134.16735 197.16548,145.82595 192.66968,156.82415 C 191.24728,159.61815 191.24728,159.61815 189.62168,162.46295 C 187.79288,165.25695 185.76088,167.87315 184.61788,171.02275 C 184.54168,171.07355 184.49088,171.12435 184.44008,171.20055 C 179.81728,172.80075 175.42308,173.99455 170.62248,174.93435 C 168.46348,175.11215 166.27908,175.28995 164.09468,175.39155 L 164.09468,175.39155 z M 56.982680,187.76135 C 54.620480,184.73875 52.436080,181.56375 50.429480,178.31255 C 47.533880,172.97855 44.511280,167.26355 43.038080,161.34535 C 43.038080,161.09135 43.038080,160.83735 43.038080,160.58335 C 44.308080,162.66615 45.476480,164.29175 47.330680,165.86655 C 47.965680,166.19675 48.600680,166.55235 49.235680,166.90795 C 50.048480,170.87035 51.293080,174.73115 52.613880,178.54115 C 53.502880,180.57315 54.417280,182.60515 55.331680,184.63715 C 56.982680,187.60895 56.982680,187.60895 56.982680,187.76135 z M 153.78208,194.69555 C 152.02948,194.46695 150.27688,194.26375 148.52428,194.06055 C 142.14888,192.79055 136.45928,190.83475 130.64268,187.96455 C 124.06408,184.38315 118.24748,180.14135 112.55788,175.28995 C 102.55028,165.79035 92.771280,154.61435 87.488080,141.68575 C 88.478680,141.30475 89.418480,140.82215 90.332880,140.28875 C 97.775080,137.82495 106.23328,137.59635 113.98028,137.59635 C 115.45348,137.67255 117.40928,137.64715 118.75548,138.30755 C 121.70188,145.77515 125.81668,152.63315 130.87128,158.88155 C 133.23348,161.39615 135.62108,164.13935 138.41508,166.19675 C 140.57408,166.80635 141.31068,167.56835 142.65688,169.24475 C 143.59668,169.77815 144.53648,170.31155 145.50168,170.87035 C 149.23548,172.67375 152.81688,173.96915 156.88088,174.83275 C 157.66828,174.60415 158.50648,174.95975 159.19228,175.26455 C 163.02768,175.69635 166.86308,175.62015 170.67308,175.18835 C 175.60068,174.32475 180.19808,172.97855 184.89708,171.27675 C 187.15768,170.99735 187.20848,174.27395 187.00528,175.82335 C 185.45588,180.14135 182.81428,184.33235 180.22348,188.11695 C 179.91868,188.42175 179.61388,188.72655 179.30908,189.03135 C 175.09268,191.77455 169.55548,193.06995 164.70408,194.06055 C 161.04648,194.54315 157.46508,194.67015 153.78208,194.69555 L 153.78208,194.69555 z M 131.83648,211.45955 C 129.93148,211.23095 128.05188,211.02775 126.17228,210.82455 C 119.03488,209.45295 112.86268,207.29395 106.43648,203.89035 C 104.30288,202.59495 102.19468,201.22335 100.11188,199.85175 C 99.095880,199.08975 98.079880,198.32775 97.063880,197.56575 C 90.942480,192.23175 85.786280,186.82155 80.934880,180.34455 C 79.969680,178.89675 79.004480,177.44895 78.064680,176.02655 C 74.813480,170.46395 71.994080,165.07915 69.708080,159.05935 C 68.768280,155.88435 67.345880,152.22675 67.345880,148.84855 C 67.930080,148.46755 68.361880,148.01035 68.920680,147.57855 C 74.153080,145.16555 79.893480,142.49855 85.608480,141.55875 C 86.141880,141.60955 86.675280,141.66035 87.234080,141.73655 C 92.364880,153.72535 100.87388,164.11395 110.04328,173.28335 C 111.31328,174.45175 112.58328,175.62015 113.87868,176.78855 C 121.11768,182.57975 128.12808,187.30415 136.63708,191.01255 C 137.90708,191.44435 139.17708,191.90155 140.47248,192.35875 C 147.27968,194.26375 153.68048,195.27975 160.76708,194.82255 C 165.99948,194.28915 170.85088,192.96835 175.77848,191.08875 C 175.77848,191.62215 174.58468,193.37475 174.22908,193.85735 C 170.21588,197.51495 166.10108,201.09635 161.57988,204.11895 C 159.37008,205.41435 157.18568,206.70975 155.00128,208.03055 C 150.98808,209.75775 146.23828,210.41815 141.92028,211.07855 C 138.56748,211.33255 135.21468,211.43415 131.83648,211.45955 L 131.83648,211.45955 z " id="_22009664" style="fill: url(#radialGradient2209) rgb(0, 0, 0); fill-opacity: 1;"/>


</g>



</svg>