<?xml version="1.0" encoding="UTF-8" standalone="yes"?>
<!-- Created with sK1/UniConvertor (http://sk1project.org/) -->
<svg xmlns="http://www.w3.org/2000/svg" xmlns:xlink="http://www.w3.org/1999/xlink"
  width="187.087pt" height="187.087pt" viewBox="0 0 187.087 187.087"
  fill-rule="evenodd">
  <defs> 
	<marker id="ArrowEnd" viewBox="0 0 10 10" refX="0" refY="5" 
		markerUnits="strokeWidth" 
		markerWidth="4" 
		markerHeight="3" 
		orient="auto"> 
		<path d="M 0 0 L 10 5 L 0 10 z" /> 
	</marker>
	<marker id="ArrowStart" viewBox="0 0 10 10" refX="10" refY="5" 
		markerUnits="strokeWidth" 
		markerWidth="4" 
		markerHeight="3" 
		orient="auto"> 
		<path d="M 10 0 L 0 5 L 10 10 z" /> 
	</marker> </defs>
<g>
<path style="stroke:none; fill:#0000e4" d="M 187.087 93.5433C 187.087 145.176 145.176 187.087 93.5433 187.087C 41.9102 187.087 -1.10262e-06 145.176 -1.10262e-06 93.5433C -1.10262e-06 41.9102 41.9102 -1.52588e-05 93.5433 -1.52588e-05C 145.176 -1.52588e-05 187.087 41.9102 187.087 93.5433z"/>
<g>
<path style="stroke:none; fill:#00be00" d="M 187.087 93.5433C 187.087 145.176 145.176 187.087 93.5433 187.087C 41.9102 187.087 -1.10262e-06 145.176 -1.10262e-06 93.5433C -1.10262e-06 41.9102 41.9102 -1.52588e-05 93.5433 -1.52588e-05C 145.176 -1.52588e-05 187.087 41.9102 187.087 93.5433z"/>
<g>
<path style="stroke:none; fill:#0ac200" d="M 185.147 94.3635C 185.147 145.335 143.727 186.708 92.698 186.708C 41.6689 186.708 0.248901 145.335 0.248901 94.3635C 0.248901 43.392 41.6689 2.01881 92.698 2.01881C 143.727 2.01881 185.147 43.392 185.147 94.3635z"/>
<path style="stroke:none; fill:#17c500" d="M 183.207 95.1838C 183.207 145.494 142.278 186.33 91.8526 186.33C 41.4275 186.33 0.497804 145.494 0.497804 95.1838C 0.497804 44.8738 41.4275 4.03763 91.8526 4.03763C 142.278 4.03763 183.207 44.8738 183.207 95.1838z"/>
<path style="stroke:none; fill:#24c800" d="M 181.268 96.004C 181.268 145.652 140.828 185.952 91.0073 185.952C 41.1862 185.952 0.746707 145.652 0.746707 96.004C 0.746707 46.3557 41.1862 6.05646 91.0073 6.05646C 140.828 6.05646 181.268 46.3557 181.268 96.004z"/>
<path style="stroke:none; fill:#31cb00" d="M 179.328 96.8242C 179.328 145.811 139.379 185.573 90.162 185.573C 40.9448 185.573 0.995609 145.811 0.995609 96.8242C 0.995609 47.8375 40.9448 8.07527 90.162 8.07527C 139.379 8.07527 179.328 47.8375 179.328 96.8242z"/>
<path style="stroke:none; fill:#3ecf0f" d="M 177.389 97.6444C 177.389 145.97 137.93 185.195 89.3166 185.195C 40.7035 185.195 1.24451 145.97 1.24451 97.6444C 1.24451 49.3193 40.7035 10.0941 89.3166 10.0941C 137.93 10.0941 177.389 49.3193 177.389 97.6444z"/>
<path style="stroke:none; fill:#4ad21f" d="M 175.449 98.4647C 175.449 146.128 136.48 184.816 88.4713 184.816C 40.4621 184.816 1.49341 146.128 1.49341 98.4647C 1.49341 50.8011 40.4621 12.1129 88.4713 12.1129C 136.48 12.1129 175.449 50.8011 175.449 98.4647z"/>
<path style="stroke:none; fill:#57d52f" d="M 173.51 99.2849C 173.51 146.287 135.031 184.438 87.626 184.438C 40.2208 184.438 1.74232 146.287 1.74232 99.2849C 1.74232 52.2829 40.2208 14.1317 87.626 14.1317C 135.031 14.1317 173.51 52.2829 173.51 99.2849z"/>
<path style="stroke:none; fill:#64d83f" d="M 171.57 100.105C 171.57 146.446 133.582 184.06 86.7806 184.06C 39.9794 184.06 1.99122 146.446 1.99122 100.105C 1.99122 53.7647 39.9794 16.1506 86.7806 16.1506C 133.582 16.1506 171.57 53.7647 171.57 100.105z"/>
<path style="stroke:none; fill:#71db4f" d="M 169.63 100.925C 169.63 146.604 132.133 183.681 85.9353 183.681C 39.7381 183.681 2.24012 146.604 2.24012 100.925C 2.24012 55.2465 39.7381 18.1694 85.9353 18.1694C 132.133 18.1694 169.63 55.2465 169.63 100.925z"/>
<path style="stroke:none; fill:#7edf5f" d="M 167.691 101.746C 167.691 146.763 130.683 183.303 85.09 183.303C 39.4967 183.303 2.48902 146.763 2.48902 101.746C 2.48902 56.7283 39.4967 20.1882 85.09 20.1882C 130.683 20.1882 167.691 56.7283 167.691 101.746z"/>
<path style="stroke:none; fill:#8be26f" d="M 165.751 102.566C 165.751 146.921 129.234 182.925 84.2446 182.925C 39.2554 182.925 2.73793 146.921 2.73793 102.566C 2.73793 58.2102 39.2554 22.207 84.2446 22.207C 129.234 22.207 165.751 58.2102 165.751 102.566z"/>
<path style="stroke:none; fill:#98e57f" d="M 163.812 103.386C 163.812 147.08 127.785 182.546 83.3993 182.546C 39.014 182.546 2.98683 147.08 2.98683 103.386C 2.98683 59.692 39.014 24.2258 83.3993 24.2258C 127.785 24.2258 163.812 59.692 163.812 103.386z"/>
<path style="stroke:none; fill:#a4e88f" d="M 161.872 104.206C 161.872 147.239 126.335 182.168 82.554 182.168C 38.7727 182.168 3.23573 147.239 3.23573 104.206C 3.23573 61.1738 38.7727 26.2447 82.554 26.2447C 126.335 26.2447 161.872 61.1738 161.872 104.206z"/>
<path style="stroke:none; fill:#b1eb9f" d="M 159.933 105.026C 159.933 147.397 124.886 181.789 81.7086 181.789C 38.5313 181.789 3.48463 147.397 3.48463 105.026C 3.48463 62.6556 38.5313 28.2635 81.7086 28.2635C 124.886 28.2635 159.933 62.6556 159.933 105.026z"/>
<path style="stroke:none; fill:#beeeaf" d="M 157.993 105.847C 157.993 147.556 123.437 181.411 80.8633 181.411C 38.29 181.411 3.73354 147.556 3.73354 105.847C 3.73354 64.1374 38.29 30.2823 80.8633 30.2823C 123.437 30.2823 157.993 64.1374 157.993 105.847z"/>
<path style="stroke:none; fill:#cbf2bf" d="M 156.053 106.667C 156.053 147.715 121.987 181.033 80.018 181.033C 38.0486 181.033 3.98244 147.715 3.98244 106.667C 3.98244 65.6192 38.0486 32.3011 80.018 32.3011C 121.987 32.3011 156.053 65.6192 156.053 106.667z"/>
<path style="stroke:none; fill:#d8f5cf" d="M 154.114 107.487C 154.114 147.873 120.538 180.654 79.1726 180.654C 37.8073 180.654 4.23134 147.873 4.23134 107.487C 4.23134 67.1011 37.8073 34.32 79.1726 34.32C 120.538 34.32 154.114 67.1011 154.114 107.487z"/>
<path style="stroke:none; fill:#e5f8df" d="M 152.174 108.307C 152.174 148.032 119.089 180.276 78.3273 180.276C 37.5659 180.276 4.48024 148.032 4.48024 108.307C 4.48024 68.5829 37.5659 36.3388 78.3273 36.3388C 119.089 36.3388 152.174 68.5829 152.174 108.307z"/>
<path style="stroke:none; fill:#f2fbee" d="M 150.235 109.128C 150.235 148.191 117.639 179.898 77.482 179.898C 37.3246 179.898 4.72915 148.191 4.72915 109.128C 4.72915 70.0647 37.3246 38.3576 77.482 38.3576C 117.639 38.3576 150.235 70.0647 150.235 109.128z"/>
</g>
<path style="stroke:none; fill:#ffffff" d="M 148.295 109.948C 148.295 148.349 116.19 179.519 76.6366 179.519C 37.0832 179.519 4.97805 148.349 4.97805 109.948C 4.97805 71.5465 37.0832 40.3764 76.6366 40.3764C 116.19 40.3764 148.295 71.5465 148.295 109.948z"/>
</g>
<g>
<path style="stroke:none; fill:#ffffff" d="M 99.76 97.0951C 92.8961 90.4977 85.3833 84.489 75.8576 80.3065C 75.8576 72.9945 75.8576 65.6825 75.8576 58.3706C 78.7424 55.6494 91.4561 50.0786 97.58 51.233C 106.971 55.8728 114.209 61.696 120.227 68.1895C 123.398 76.0683 122.791 83.465 121.241 90.7416C 114.081 92.8594 106.92 94.9772 99.76 97.0951z"/>
<g>
<path style="stroke:none; fill:#f9f9f9" d="M 99.9997 96.9654C 93.3489 90.2743 85.8861 84.4873 76.4844 80.3038C 76.4844 73.1036 76.3405 66.2702 76.6573 59.1572C 79.433 56.4069 91.1441 50.9633 97.6153 51.718C 106.768 56.1501 114.336 62.2373 120.262 68.6315C 123.385 76.3898 122.7 83.5437 121.174 90.709C 114.123 92.7945 107.051 94.8799 99.9997 96.9654z"/>
<path style="stroke:none; fill:#f4f4f4" d="M 100.239 96.8357C 93.8017 90.051 86.3889 84.4855 77.1113 80.3011C 77.1113 73.2128 76.8235 66.858 77.4571 59.9439C 80.1236 57.1644 90.832 51.848 97.6507 52.2031C 106.564 56.4274 114.463 62.7785 120.297 69.0735C 123.371 76.7113 122.609 83.6225 121.107 90.6765C 114.166 92.7296 107.181 94.7826 100.239 96.8357z"/>
<path style="stroke:none; fill:#efefef" d="M 100.479 96.706C 94.2545 89.8276 86.8917 84.4837 77.7381 80.2984C 77.7381 73.3219 77.3065 67.4457 78.2569 60.7305C 80.8141 57.922 90.52 52.7327 97.686 52.6882C 106.361 56.7048 114.59 63.3198 120.332 69.5154C 123.358 77.0328 122.519 83.7012 121.04 90.644C 114.208 92.6646 107.311 94.6853 100.479 96.706z"/>
<path style="stroke:none; fill:#eaeaea" d="M 100.719 96.5763C 94.7072 89.6043 87.3945 84.4819 78.3649 80.2957C 78.3649 73.431 77.7895 68.0334 79.0566 61.5172C 81.5047 58.6795 90.2079 53.6173 97.7213 53.1733C 106.158 56.9821 114.717 63.8611 120.367 69.9574C 123.344 77.3543 122.428 83.7799 120.973 90.6114C 114.251 92.5997 107.442 94.588 100.719 96.5763z"/>
<path style="stroke:none; fill:#e5e5e5" d="M 100.959 96.4466C 95.16 89.3809 87.8973 84.4801 78.9918 80.2931C 78.9918 73.5401 78.2724 68.6211 79.8564 62.3038C 82.1953 59.437 89.8959 54.502 97.7566 53.6584C 105.954 57.2594 114.843 64.4023 120.401 70.3994C 123.33 77.6758 122.337 83.8586 120.906 90.5789C 114.293 92.5348 107.572 94.4907 100.959 96.4466z"/>
<path style="stroke:none; fill:#e0e0e0" d="M 101.198 96.3169C 95.6128 89.1576 88.4001 84.4783 79.6186 80.2904C 79.6186 73.6493 78.7554 69.2088 80.6561 63.0905C 82.8858 60.1945 89.5838 55.3867 97.7919 54.1435C 105.751 57.5368 114.97 64.9436 120.436 70.8414C 123.317 77.9973 122.246 83.9373 120.839 90.5463C 114.335 92.4699 107.702 94.3934 101.198 96.3169z"/>
<path style="stroke:none; fill:#dbdbdb" d="M 101.438 96.1872C 96.0656 88.9342 88.903 84.4765 80.2454 80.2877C 80.2454 73.7584 79.2384 69.7965 81.4559 63.8771C 83.5764 60.9521 89.2718 56.2714 97.8272 54.6286C 105.547 57.8141 115.097 65.4849 120.471 71.2833C 123.303 78.3189 122.155 84.0161 120.772 90.5138C 114.378 92.4049 107.832 94.2961 101.438 96.1872z"/>
<path style="stroke:none; fill:#d6d6d6" d="M 101.678 96.0575C 96.5183 88.7109 89.4058 84.4747 80.8723 80.285C 80.8723 73.8675 79.7214 70.3842 82.2557 64.6638C 84.267 61.7096 88.9597 57.1561 97.8625 55.1137C 105.344 58.0914 115.224 66.0261 120.506 71.7253C 123.29 78.6404 122.065 84.0948 120.705 90.4812C 114.42 92.34 107.963 94.1988 101.678 96.0575z"/>
<path style="stroke:none; fill:#d1d1d1" d="M 101.918 95.9278C 96.9711 88.4875 89.9086 84.473 81.4991 80.2824C 81.4991 73.9766 80.2043 70.9719 83.0554 65.4504C 84.9576 62.4671 88.6477 58.0408 97.8979 55.5988C 105.14 58.3688 115.351 66.5674 120.541 72.1673C 123.276 78.9619 121.974 84.1735 120.638 90.4487C 114.462 92.2751 108.093 94.1015 101.918 95.9278z"/>
</g>
<path style="stroke:none; fill:#cccccc" d="M 102.157 95.7982C 97.4239 88.2642 90.4114 84.4712 82.126 80.2797C 82.126 74.0858 80.6873 71.5596 83.8552 66.2371C 85.6481 63.2246 88.3356 58.9255 97.9332 56.0839C 104.937 58.6461 115.478 67.1087 120.576 72.6093C 123.262 79.2834 121.883 84.2522 120.571 90.4162C 114.505 92.2102 108.223 94.0042 102.157 95.7982z"/>
</g>
<g>
<path style="stroke:none; fill:#ffffff" d="M 12.9006 88.8139C 9.88589 98.0086 9.66003 101.425 10.388 103.833C 11.2305 106.619 13.3171 110.028 17.3564 111.606C 17.2988 122.977 19.5299 132.741 25.2689 140.045C 25.1497 144.92 25.0306 149.794 24.9114 154.669C 16.1765 143.518 6.13751 126.433 8.58496 102.404C 9.33344 95.0013 10.8203 90.3844 12.0144 86.7432C 12.0144 86.7432 12.0144 86.7432 12.0144 86.7432C 19.918 63.2725 37.3306 48.4739 61.6953 43.8818C 58.7848 46.3322 55.8742 48.7825 52.9637 51.233C 38.7206 56.0281 34.1659 62.5589 29.919 68.8317C 26.3208 69.8486 22.598 70.8812 19.7136 73.8399C 16.9005 78.414 12.8366 88.6619 12.9006 88.8139z"/>
<g>
<path style="stroke:none; fill:#f9f9f9" d="M 12.92 88.725C 9.9345 97.8838 9.71711 101.3 10.3669 103.707C 11.1147 106.677 13.3108 110.138 17.3109 111.709C 17.2539 123.035 19.5498 132.74 25.2332 140.015C 25.1151 144.871 25.0404 148.884 24.9224 153.74C 15.5372 141.724 6.82769 124.9 8.55972 102.63C 9.30093 95.2557 11.4073 89.102 12.7556 85.5816C 12.9502 85.4087 13.0931 85.4011 13.7499 84.8035C 21.52 63.0822 37.5199 48.7552 61.0901 44.4006C 58.2078 46.8414 55.8442 48.8283 52.9619 51.2691C 39.5397 55.6349 34.0006 62.3131 29.9679 68.7992C 26.4045 69.8122 22.5233 71.3595 19.6669 74.3066C 16.8811 78.8629 12.8566 88.5737 12.92 88.725z"/>
<path style="stroke:none; fill:#f4f4f4" d="M 12.9393 88.6361C 9.9831 97.7591 9.77419 101.174 10.3458 103.581C 10.999 106.735 13.3045 110.247 17.2654 111.812C 17.209 123.094 19.5697 132.739 25.1974 139.986C 25.0805 144.823 25.0501 147.974 24.9333 152.811C 14.898 139.931 7.51788 123.368 8.53448 102.855C 9.26843 95.5101 11.9943 87.8196 13.4969 84.4201C 13.886 84.0742 14.1719 84.0591 15.4855 82.8638C 23.122 62.892 37.7091 49.0365 60.4849 44.9193C 57.6308 47.3506 55.8142 48.874 52.9601 51.3053C 40.3587 55.2416 33.8353 62.0673 30.0167 68.7666C 26.4883 69.7757 22.4486 71.8377 19.6201 74.7733C 16.8616 79.3117 12.8765 88.4854 12.9393 88.6361z"/>
<path style="stroke:none; fill:#efefef" d="M 12.9587 88.5473C 10.0317 97.6343 9.83127 101.049 10.3247 103.455C 10.8832 106.792 13.2982 110.356 17.22 111.916C 17.1641 123.153 19.5896 132.739 25.1616 139.956C 25.0459 144.774 25.0599 147.063 24.9443 151.881C 14.2587 138.137 8.20806 121.835 8.50924 103.081C 9.23593 95.7646 12.5813 86.5372 14.2381 83.2585C 14.8217 82.7398 15.2506 82.717 17.221 80.9241C 24.724 62.7017 37.8984 49.3178 59.8797 45.4381C 57.0538 47.8598 55.7842 48.9197 52.9584 51.3414C 41.1777 54.8484 33.67 61.8215 30.0655 68.7341C 26.572 69.7392 22.3739 72.316 19.5734 75.24C 16.8422 79.7606 12.8965 88.3971 12.9587 88.5473z"/>
<path style="stroke:none; fill:#eaeaea" d="M 12.978 88.4584C 10.0803 97.5096 9.88835 100.923 10.3035 103.329C 10.7675 106.85 13.2919 110.466 17.1745 112.019C 17.1191 123.212 19.6095 132.738 25.1259 139.927C 25.0113 144.726 25.0697 146.153 24.9552 150.952C 13.6195 136.343 8.89824 120.302 8.484 103.307C 9.20343 96.019 13.1683 85.2548 14.9794 82.097C 15.7575 81.4053 16.3294 81.375 18.9566 78.9844C 26.3259 62.5114 38.0877 49.5991 59.2744 45.9568C 56.4768 48.369 55.7542 48.9654 52.9566 51.3776C 41.9968 54.4552 33.5048 61.5757 30.1143 68.7016C 26.6557 69.7027 22.2992 72.7942 19.5267 75.7067C 16.8228 80.2094 12.9165 88.3088 12.978 88.4584z"/>
<path style="stroke:none; fill:#e5e5e5" d="M 12.9974 88.3695C 10.1289 97.3848 9.94543 100.798 10.2824 103.204C 10.6517 106.908 13.2856 110.575 17.129 112.122C 17.0742 123.271 19.6294 132.737 25.0901 139.898C 24.9767 144.677 25.0795 145.242 24.9661 150.022C 12.9802 134.549 9.58842 118.77 8.45876 103.532C 9.17093 96.2735 13.7553 83.9724 15.7206 80.9355C 16.6933 80.0708 17.4081 80.0329 20.6921 77.0447C 27.9279 62.3212 38.2769 49.8804 58.6692 46.4756C 55.8998 48.8782 55.7242 49.0112 52.9548 51.4138C 42.8158 54.0619 33.3395 61.3299 30.1632 68.6691C 26.7394 69.6662 22.2245 73.2725 19.48 76.1735C 16.8033 80.6583 12.9365 88.2206 12.9974 88.3695z"/>
<path style="stroke:none; fill:#e0e0e0" d="M 13.0167 88.2807C 10.1775 97.2601 10.0025 100.672 10.2613 103.078C 10.536 106.966 13.2793 110.684 17.0835 112.225C 17.0293 123.329 19.6493 132.736 25.0544 139.868C 24.9421 144.629 25.0893 144.332 24.9771 149.093C 12.341 132.756 10.2786 117.237 8.43351 103.758C 9.13843 96.5279 14.3423 82.69 16.4619 79.7739C 17.6291 78.7364 18.4869 78.6909 22.4277 75.105C 29.5299 62.1309 38.4662 50.1617 58.064 46.9944C 55.3228 49.3874 55.6942 49.0569 52.9531 51.4499C 43.6348 53.6687 33.1742 61.0841 30.212 68.6366C 26.8232 69.6298 22.1498 73.7507 19.4333 76.6402C 16.7839 81.1072 12.9565 88.1323 13.0167 88.2807z"/>
<path style="stroke:none; fill:#dbdbdb" d="M 13.0361 88.1918C 10.2261 97.1353 10.0596 100.546 10.2402 102.952C 10.4202 107.024 13.273 110.794 17.0381 112.328C 16.9844 123.388 19.6692 132.735 25.0186 139.839C 24.9075 144.581 25.0991 143.421 24.988 148.163C 11.7017 130.962 10.9688 115.705 8.40827 103.983C 9.10593 96.7824 14.9293 81.4076 17.2031 78.6124C 18.5649 77.4019 19.5656 77.3488 24.1632 73.1653C 31.1319 61.9406 38.6554 50.443 57.4588 47.5132C 54.7458 49.8966 55.6642 49.1026 52.9513 51.4861C 44.4538 53.2754 33.0089 60.8383 30.2608 68.6041C 26.9069 69.5933 22.0751 74.229 19.3865 77.1069C 16.7645 81.556 12.9764 88.044 13.0361 88.1918z"/>
<path style="stroke:none; fill:#d6d6d6" d="M 13.0555 88.1029C 10.2747 97.0106 10.1167 100.421 10.2191 102.826C 10.3045 107.082 13.2667 110.903 16.9926 112.432C 16.9395 123.447 19.6891 132.734 24.9828 139.809C 24.8729 144.532 25.1089 142.511 24.9989 147.234C 11.0624 129.168 11.659 114.172 8.38303 104.209C 9.07343 97.0368 15.5163 80.1252 17.9444 77.4508C 19.5007 76.0674 20.6444 76.0068 25.8988 71.2256C 32.7339 61.7504 38.8447 50.7243 56.8535 48.0319C 54.1688 50.4058 55.6342 49.1483 52.9495 51.5222C 45.2729 52.8822 32.8436 60.5925 30.3097 68.5716C 26.9906 69.5568 22.0004 74.7072 19.3398 77.5736C 16.745 82.0049 12.9964 87.9557 13.0555 88.1029z"/>
<path style="stroke:none; fill:#d1d1d1" d="M 13.0748 88.0141C 10.3233 96.8859 10.1738 100.295 10.198 102.7C 10.1887 107.139 13.2604 111.012 16.9471 112.535C 16.8946 123.506 19.709 132.733 24.9471 139.78C 24.8383 144.484 25.1186 141.601 25.0099 146.304C 10.4232 127.374 12.3492 112.64 8.35779 104.434C 9.04092 97.2913 16.1033 78.8427 18.6857 76.2893C 20.4365 74.733 21.7232 74.6647 27.6343 69.286C 34.3359 61.5601 39.034 51.0056 56.2483 48.5507C 53.5918 50.915 55.6042 49.194 52.9478 51.5584C 46.0919 52.489 32.6783 60.3467 30.3585 68.5391C 27.0744 69.5203 21.9257 75.1855 19.2931 78.0403C 16.7256 82.4538 13.0164 87.8674 13.0748 88.0141z"/>
</g>
<path style="stroke:none; fill:#cccccc" d="M 13.0942 87.9252C 10.3719 96.7611 10.2308 100.17 10.1768 102.574C 10.073 107.197 13.2541 111.122 16.9016 112.638C 16.8496 123.565 19.7289 132.732 24.9113 139.751C 24.8037 144.435 25.1284 140.69 25.0208 145.375C 9.78394 125.58 13.0393 111.107 8.33255 104.66C 9.00842 97.5457 16.6902 77.5603 19.4269 75.1277C 21.3723 73.3985 22.8019 73.3227 29.3699 67.3463C 35.9379 61.3698 39.2232 51.2869 55.6431 49.0694C 53.0148 51.4242 55.5742 49.2398 52.946 51.5946C 46.9109 52.0957 32.5131 60.1009 30.4073 68.5066C 27.1581 69.4838 21.851 75.6638 19.2464 78.507C 16.7061 82.9026 13.0364 87.7792 13.0942 87.9252z"/>
</g>
<g>
<path style="stroke:none; fill:#ffffff" d="M 124.332 140.474C 130.055 131.785 134.782 122.791 134.513 112.267C 131.67 104.729 128.05 97.361 121.008 90.7416C 113.721 92.8967 106.435 95.0518 99.1483 97.2068L 89.8882 125.188L 103.01 146.866C 110.234 146.306 118.666 144.321 124.332 140.474z"/>
<g>
<path style="stroke:none; fill:#fbfbfb" d="M 123.962 139.527C 129.83 131.224 134.383 122.507 134.161 112.236C 131.358 104.775 127.878 97.4966 120.935 90.9444C 113.359 93.2092 106.946 95.0939 99.3694 97.3587C 93.6507 115.858 96.1055 106.82 90.1229 125.114C 98.5317 138.948 94.694 132.651 103.103 146.485C 110.094 145.593 118.148 143.311 123.962 139.527z"/>
<path style="stroke:none; fill:#f8f8f8" d="M 123.593 138.58C 129.606 130.663 133.983 122.223 133.809 112.206C 131.047 104.821 127.705 97.6323 120.862 91.1472C 112.996 93.5218 107.456 95.1361 99.5906 97.5106C 94.3265 115.856 96.1494 107.106 90.3575 125.041C 98.4276 138.256 95.1259 132.889 103.196 146.104C 109.953 144.88 117.63 142.301 123.593 138.58z"/>
<path style="stroke:none; fill:#f4f4f4" d="M 123.224 137.633C 129.382 130.103 133.584 121.94 133.457 112.176C 130.735 104.868 127.533 97.768 120.789 91.3501C 112.633 93.8343 107.967 95.1783 99.8117 97.6625C 95.0023 115.853 96.1933 107.393 90.5921 124.968C 98.3235 137.564 95.5579 133.126 103.289 145.722C 109.812 144.167 117.112 141.29 123.224 137.633z"/>
<path style="stroke:none; fill:#f1f1f1" d="M 122.855 136.686C 129.157 129.542 133.184 121.656 133.106 112.146C 130.423 104.914 127.36 97.9036 120.716 91.5529C 112.271 94.1468 108.478 95.2204 100.033 97.8144C 95.6781 115.851 96.2372 107.679 90.8267 124.894C 98.2194 136.872 95.9899 133.363 103.383 145.341C 109.671 143.455 116.594 140.28 122.855 136.686z"/>
<path style="stroke:none; fill:#ededed" d="M 122.485 135.739C 128.933 128.981 132.785 121.373 132.754 112.116C 130.112 104.96 127.188 98.0393 120.643 91.7557C 111.908 94.4594 108.989 95.2626 100.254 97.9663C 96.3539 115.849 96.2811 107.965 91.0613 124.821C 98.1153 136.18 96.4218 133.601 103.476 144.96C 109.531 142.742 116.076 139.269 122.485 135.739z"/>
<path style="stroke:none; fill:#eaeaea" d="M 122.116 134.792C 128.709 128.421 132.385 121.089 132.402 112.085C 129.8 105.006 127.015 98.1749 120.57 91.9585C 111.545 94.7719 109.5 95.3048 100.475 98.1182C 97.0297 115.846 96.325 108.251 91.296 124.748C 98.0113 135.488 96.8538 133.838 103.569 144.579C 109.39 142.029 115.558 138.259 122.116 134.792z"/>
<path style="stroke:none; fill:#e7e7e7" d="M 121.747 133.845C 128.484 127.86 131.985 120.805 132.05 112.055C 129.489 105.053 126.843 98.3106 120.497 92.1613C 111.182 95.0844 110.01 95.3469 100.696 98.2701C 97.7055 115.844 96.3689 108.538 91.5306 124.674C 97.9072 134.796 97.2857 134.075 103.662 144.197C 109.249 141.316 115.04 137.248 121.747 133.845z"/>
<path style="stroke:none; fill:#e3e3e3" d="M 121.378 132.898C 128.26 127.3 131.586 120.522 131.699 112.025C 129.177 105.099 126.67 98.4463 120.424 92.3641C 110.82 95.397 110.521 95.3891 100.917 98.422C 98.3813 115.841 96.4127 108.824 91.7652 124.601C 97.8031 134.104 97.7177 134.313 103.756 143.816C 109.108 140.603 114.522 136.238 121.378 132.898z"/>
<path style="stroke:none; fill:#e0e0e0" d="M 121.008 131.952C 128.036 126.739 131.186 120.238 131.347 111.995C 128.865 105.145 126.498 98.5819 120.351 92.567C 110.457 95.7095 111.032 95.4313 101.138 98.5739C 99.0571 115.839 96.4566 109.11 91.9998 124.528C 97.699 133.413 98.1497 134.55 103.849 143.435C 108.967 139.89 114.004 135.227 121.008 131.952z"/>
<path style="stroke:none; fill:#dddddd" d="M 120.639 131.005C 127.811 126.178 130.787 119.954 130.995 111.964C 128.554 105.191 126.325 98.7176 120.278 92.7698C 110.094 96.0221 111.543 95.4735 101.359 98.7257C 99.7329 115.836 96.5005 109.397 92.2344 124.454C 97.5949 132.721 98.5816 134.787 103.942 143.054C 108.827 139.178 113.486 134.217 120.639 131.005z"/>
<path style="stroke:none; fill:#d9d9d9" d="M 120.27 130.058C 127.587 125.618 130.387 119.671 130.643 111.934C 128.242 105.238 126.153 98.8532 120.205 92.9726C 109.732 96.3346 112.054 95.5156 101.581 98.8776C 100.409 115.834 96.5444 109.683 92.4691 124.381C 97.4908 132.029 99.0136 135.025 104.035 142.672C 108.686 138.465 112.968 133.207 120.27 130.058z"/>
<path style="stroke:none; fill:#d6d6d6" d="M 119.901 129.111C 127.363 125.057 129.988 119.387 130.291 111.904C 127.931 105.284 125.98 98.9889 120.132 93.1754C 109.369 96.6471 112.564 95.5578 101.802 99.0295C 101.084 115.832 96.5883 109.969 92.7037 124.308C 97.3867 131.337 99.4455 135.262 104.129 142.291C 108.545 137.752 112.45 132.196 119.901 129.111z"/>
<path style="stroke:none; fill:#d2d2d2" d="M 119.531 128.164C 127.138 124.496 129.588 119.103 129.94 111.874C 127.619 105.33 125.808 99.1246 120.059 93.3782C 109.006 96.9597 113.075 95.6 102.023 99.1814C 101.76 115.829 96.6322 110.255 92.9383 124.234C 97.2826 130.645 99.8775 135.499 104.222 141.91C 108.404 137.039 111.932 131.186 119.531 128.164z"/>
<path style="stroke:none; fill:#cfcfcf" d="M 119.162 127.217C 126.914 123.936 129.188 118.82 129.588 111.844C 127.307 105.376 125.635 99.2602 119.986 93.5811C 108.644 97.2722 113.586 95.6421 102.244 99.3333C 102.436 115.827 96.6761 110.542 93.1729 124.161C 97.1786 129.953 100.309 135.737 104.315 141.529C 108.263 136.326 111.414 130.175 119.162 127.217z"/>
</g>
<path style="stroke:none; fill:#cccccc" d="M 118.793 126.27C 126.69 123.375 128.789 118.536 129.236 111.813C 126.996 105.423 125.463 99.3959 119.913 93.7839L 102.465 99.4852C 103.112 115.824 96.72 110.828 93.4075 124.088C 97.0745 129.261 100.741 135.974 104.408 141.147C 108.123 135.613 110.896 129.165 118.793 126.27z"/>
</g>
<path style="stroke:none; fill:#ffffff" d="M 143.137 105.466C 142.147 105.966 141.746 106.225 140.875 107.205C 140.34 96.7139 137.213 84.4222 128.827 72.5116C 130.817 73.0694 131.274 73.6273 133.971 74.5453C 138.773 83.5541 142.479 93.3779 143.137 105.466z"/>
<g>
<path style="stroke:none; fill:#000000" d="M 143.137 105.466C 140.262 107.887 137.387 110.307 134.513 112.728C 131.385 104.449 127.583 97.0272 121.241 91.1716C 123.323 82.0009 122.605 74.5774 120.227 68.1895C 124.808 70.3081 129.389 72.4267 133.971 74.5453C 138.773 83.5541 142.479 93.3779 143.137 105.466z"/>
<g>
<path style="stroke:none; fill:#050505" d="M 143.137 105.466C 140.388 107.759 137.392 110.368 134.745 112.323C 131.882 104.111 128.262 96.5182 122.306 90.9044C 124.212 82.1963 123.254 74.7094 120.644 68.4642C 124.75 70.2619 129.515 72.5067 133.971 74.5453C 138.773 83.5541 142.479 93.3779 143.137 105.466z"/>
<path style="stroke:none; fill:#0a0a0a" d="M 143.137 105.466C 140.513 107.631 137.396 110.429 134.976 111.918C 132.379 103.773 128.942 96.0093 123.371 90.6371C 125.101 82.3918 123.904 74.8415 121.06 68.7388C 124.693 70.2156 129.641 72.5868 133.971 74.5453C 138.773 83.5541 142.479 93.3779 143.137 105.466z"/>
<path style="stroke:none; fill:#0f0f0f" d="M 143.137 105.466C 140.639 107.502 137.4 110.49 135.208 111.513C 132.877 103.436 129.621 95.5003 124.436 90.3699C 125.99 82.5873 124.553 74.9735 121.477 69.0135C 124.635 70.1694 129.766 72.6668 133.971 74.5453C 138.773 83.5541 142.479 93.3779 143.137 105.466z"/>
<path style="stroke:none; fill:#141414" d="M 143.137 105.466C 140.765 107.374 137.404 110.551 135.44 111.108C 133.374 103.098 130.3 94.9913 125.501 90.1026C 126.879 82.7828 125.203 75.1055 121.894 69.2882C 124.577 70.1232 129.892 72.7468 133.971 74.5453C 138.773 83.5541 142.479 93.3779 143.137 105.466z"/>
<path style="stroke:none; fill:#191919" d="M 143.137 105.466C 140.89 107.246 137.408 110.612 135.671 110.702C 133.871 102.76 130.979 94.4824 126.566 89.8354C 127.769 82.9782 125.852 75.2375 122.311 69.5628C 124.519 70.0769 130.018 72.8269 133.971 74.5453C 138.773 83.5541 142.479 93.3779 143.137 105.466z"/>
<path style="stroke:none; fill:#1e1e1e" d="M 143.137 105.466C 141.016 107.118 137.412 110.673 135.903 110.297C 134.369 102.422 131.658 93.9734 127.631 89.5681C 128.658 83.1737 126.501 75.3695 122.727 69.8375C 124.461 70.0307 130.143 72.9069 133.971 74.5453C 138.773 83.5541 142.479 93.3779 143.137 105.466z"/>
<path style="stroke:none; fill:#232323" d="M 143.137 105.466C 141.142 106.99 137.416 110.734 136.135 109.892C 134.866 102.084 132.338 93.4644 128.696 89.3008C 129.547 83.3692 127.151 75.5015 123.144 70.1122C 124.404 69.9845 130.269 72.987 133.971 74.5453C 138.773 83.5541 142.479 93.3779 143.137 105.466z"/>
<path style="stroke:none; fill:#282828" d="M 143.137 105.466C 141.267 106.862 137.421 110.795 136.366 109.487C 135.363 101.746 133.017 92.9554 129.761 89.0336C 130.436 83.5647 127.8 75.6336 123.561 70.3868C 124.346 69.9382 130.395 73.067 133.971 74.5453C 138.773 83.5541 142.479 93.3779 143.137 105.466z"/>
<path style="stroke:none; fill:#2d2d2d" d="M 143.137 105.466C 141.393 106.734 137.425 110.855 136.598 109.082C 135.861 101.408 133.696 92.4465 130.826 88.7663C 131.325 83.7601 128.45 75.7656 123.977 70.6615C 124.288 69.892 130.52 73.147 133.971 74.5453C 138.773 83.5541 142.479 93.3779 143.137 105.466z"/>
<path style="stroke:none; fill:#333333" d="M 143.137 105.466C 141.519 106.606 137.429 110.916 136.83 108.677C 136.358 101.07 134.375 91.9375 131.891 88.4991C 132.214 83.9556 129.099 75.8976 124.394 70.9362C 124.23 69.8458 130.646 73.2271 133.971 74.5453C 138.773 83.5541 142.479 93.3779 143.137 105.466z"/>
<path style="stroke:none; fill:#383838" d="M 143.137 105.466C 141.644 106.478 137.433 110.977 137.061 108.272C 136.855 100.732 135.054 91.4285 132.955 88.2318C 133.103 84.1511 129.748 76.0296 124.811 71.2109C 124.172 69.7995 130.772 73.3071 133.971 74.5453C 138.773 83.5541 142.479 93.3779 143.137 105.466z"/>
<path style="stroke:none; fill:#3d3d3d" d="M 143.137 105.466C 141.77 106.35 137.437 111.038 137.293 107.867C 137.353 100.394 135.734 90.9196 134.02 87.9646C 133.992 84.3466 130.398 76.1616 125.228 71.4855C 124.115 69.7533 130.897 73.3872 133.971 74.5453C 138.773 83.5541 142.479 93.3779 143.137 105.466z"/>
<path style="stroke:none; fill:#424242" d="M 143.137 105.466C 141.896 106.222 137.441 111.099 137.525 107.462C 137.85 100.056 136.413 90.4106 135.085 87.6973C 134.881 84.542 131.047 76.2936 125.644 71.7602C 124.057 69.7071 131.023 73.4672 133.971 74.5453C 138.773 83.5541 142.479 93.3779 143.137 105.466z"/>
<path style="stroke:none; fill:#474747" d="M 143.137 105.466C 142.021 106.094 137.445 111.16 137.756 107.057C 138.347 99.7182 137.092 89.9016 136.15 87.4301C 135.77 84.7375 131.697 76.4257 126.061 72.0349C 123.999 69.6608 131.149 73.5472 133.971 74.5453C 138.773 83.5541 142.479 93.3779 143.137 105.466z"/>
</g>
<path style="stroke:none; fill:#4c4c4c" d="M 143.137 105.466C 142.147 105.966 137.45 111.221 137.988 106.651C 138.845 99.3802 137.771 89.3926 137.215 87.1628C 136.659 84.933 132.346 76.5577 126.478 72.3095C 123.941 69.6146 131.274 73.6273 133.971 74.5453C 138.773 83.5541 142.479 93.3779 143.137 105.466z"/>
<g>
<path style="stroke:none; fill:#707070" d="M 143.123 105.321C 142.285 105.849 138.55 109.989 138.934 106.462C 139.591 99.8075 138.513 90.7732 137.736 87.8939C 136.958 85.0145 133.061 77.1674 127.883 72.7262C 125.923 70.5863 131.755 73.7884 133.981 74.5389C 138.762 83.4772 142.519 93.5337 143.123 105.321z"/>
<path style="stroke:none; fill:#939393" d="M 143.109 105.175C 142.423 105.732 139.651 108.757 139.881 106.273C 140.338 100.235 139.255 92.1539 138.256 88.6249C 137.257 85.096 133.776 77.7772 129.289 73.1429C 127.905 71.558 132.236 73.9496 133.991 74.5324C 138.751 83.4003 142.56 93.6894 143.109 105.175z"/>
<path style="stroke:none; fill:#b7b7b7" d="M 143.096 105.03C 142.56 105.616 140.751 107.525 140.827 106.083C 141.084 100.662 139.997 93.5345 138.777 89.356C 137.556 85.1775 134.491 78.3869 130.694 73.5596C 129.886 72.5297 132.716 74.1107 134.002 74.526C 138.741 83.3234 142.6 93.8451 143.096 105.03z"/>
<path style="stroke:none; fill:#dbdbdb" d="M 143.082 104.884C 142.698 105.499 141.852 106.293 141.774 105.894C 141.831 101.089 140.739 94.9151 139.297 90.087C 137.855 85.259 135.206 78.9967 132.1 73.9763C 131.868 73.5014 133.197 74.2719 134.012 74.5196C 138.73 83.2465 142.641 94.0009 143.082 104.884z"/>
</g>
<path style="stroke:none; fill:#ffffff" d="M 143.068 104.739L 142.72 105.704C 142.577 101.517 141.481 96.2957 139.817 90.8181C 138.154 85.3405 135.921 79.6064 133.505 74.393L 134.022 74.5131C 138.719 83.1696 142.681 94.1566 143.068 104.739z"/>
</g>
<g>
<path style="stroke:none; fill:#ffffff" d="M 87.4641 43.9404C 94.3842 46.3743 95.7814 48.6792 97.58 51.233C 105.779 55.4477 113.191 60.8564 120.227 68.1895C 124.808 70.2685 129.389 72.3474 133.971 74.4264C 123.635 58.7283 100.304 45.7921 87.4641 43.9404z"/>
<g>
<path style="stroke:none; fill:#fbfbfb" d="M 88.2079 44.3123C 94.7069 46.6508 96.0605 48.8718 97.8112 51.3661C 105.676 55.3952 113.376 60.9749 120.209 68.1507C 124.493 69.8601 128.786 71.8345 133.233 73.8084C 123.019 58.684 100.59 46.1945 88.2079 44.3123z"/>
<path style="stroke:none; fill:#f8f8f8" d="M 88.9517 44.6842C 95.0296 46.9273 96.3396 49.0644 98.0424 51.4993C 105.573 55.3428 113.56 61.0934 120.191 68.112C 124.178 69.4517 128.183 71.3216 132.496 73.1903C 122.402 58.6397 100.877 46.5969 88.9517 44.6842z"/>
<path style="stroke:none; fill:#f4f4f4" d="M 89.6955 45.0562C 95.3522 47.2039 96.6186 49.2571 98.2737 51.6325C 105.469 55.2903 113.745 61.2119 120.173 68.0732C 123.862 69.0434 127.58 70.8086 131.758 72.5723C 121.785 58.5954 101.163 46.9993 89.6955 45.0562z"/>
<path style="stroke:none; fill:#f1f1f1" d="M 90.4393 45.4282C 95.6749 47.4804 96.8977 49.4497 98.5049 51.7657C 105.366 55.2378 113.93 61.3304 120.155 68.0345C 123.547 68.635 126.976 70.2957 131.021 71.9543C 121.168 58.5511 101.45 47.4017 90.4393 45.4282z"/>
<path style="stroke:none; fill:#ededed" d="M 91.1831 45.8001C 95.9976 47.757 97.1768 49.6423 98.7361 51.8989C 105.263 55.1853 114.115 61.4489 120.137 67.9957C 123.232 68.2266 126.373 69.7828 130.283 71.3363C 120.552 58.5068 101.736 47.8042 91.1831 45.8001z"/>
<path style="stroke:none; fill:#eaeaea" d="M 91.9269 46.1721C 96.3203 48.0335 97.4558 49.835 98.9673 52.0321C 105.16 55.1328 114.299 61.5674 120.119 67.9569C 122.916 67.8183 125.77 69.2699 129.546 70.7183C 119.935 58.4625 102.023 48.2066 91.9269 46.1721z"/>
<path style="stroke:none; fill:#e7e7e7" d="M 92.6707 46.544C 96.6429 48.31 97.7349 50.0276 99.1985 52.1653C 105.057 55.0803 114.484 61.6859 120.101 67.9182C 122.601 67.4099 125.166 68.757 128.809 70.1002C 119.318 58.4182 102.309 48.609 92.6707 46.544z"/>
<path style="stroke:none; fill:#e3e3e3" d="M 93.4145 46.916C 96.9656 48.5866 98.014 50.2203 99.4298 52.2984C 104.954 55.0278 114.669 61.8045 120.083 67.8794C 122.285 67.0015 124.563 68.244 128.071 69.4822C 118.701 58.3739 102.596 49.0114 93.4145 46.916z"/>
<path style="stroke:none; fill:#e0e0e0" d="M 94.1584 47.2879C 97.2883 48.8631 98.293 50.4129 99.661 52.4316C 104.85 54.9753 114.854 61.923 120.065 67.8407C 121.97 66.5932 123.96 67.7311 127.334 68.8642C 118.085 58.3296 102.882 49.4138 94.1584 47.2879z"/>
<path style="stroke:none; fill:#dddddd" d="M 94.9022 47.6599C 97.6109 49.1397 98.5721 50.6055 99.8922 52.5648C 104.747 54.9229 115.038 62.0415 120.047 67.8019C 121.655 66.1848 123.356 67.2182 126.596 68.2462C 117.468 58.2852 103.169 49.8162 94.9022 47.6599z"/>
<path style="stroke:none; fill:#d9d9d9" d="M 95.646 48.0318C 97.9336 49.4162 98.8512 50.7982 100.123 52.698C 104.644 54.8704 115.223 62.16 120.029 67.7631C 121.339 65.7765 122.753 66.7053 125.859 67.6281C 116.851 58.241 103.455 50.2186 95.646 48.0318z"/>
<path style="stroke:none; fill:#d6d6d6" d="M 96.3898 48.4038C 98.2563 49.6928 99.1302 50.9908 100.355 52.8312C 104.541 54.8179 115.408 62.2785 120.011 67.7244C 121.024 65.3681 122.15 66.1923 125.121 67.0101C 116.235 58.1966 103.742 50.621 96.3898 48.4038z"/>
<path style="stroke:none; fill:#d2d2d2" d="M 97.1336 48.7757C 98.579 49.9693 99.4093 51.1835 100.586 52.9644C 104.438 54.7654 115.592 62.397 119.993 67.6856C 120.709 64.9597 121.547 65.6794 124.384 66.3921C 115.618 58.1523 104.028 51.0235 97.1336 48.7757z"/>
<path style="stroke:none; fill:#cfcfcf" d="M 97.8774 49.1477C 98.9016 50.2458 99.6884 51.3761 100.817 53.0976C 104.334 54.7129 115.777 62.5155 119.975 67.6469C 120.393 64.5514 120.943 65.1665 123.647 65.7741C 115.001 58.108 104.315 51.4259 97.8774 49.1477z"/>
</g>
<path style="stroke:none; fill:#cccccc" d="M 98.6212 49.5196C 99.2243 50.5224 99.9674 51.5687 101.048 53.2308C 104.231 54.6604 115.962 62.634 119.957 67.6081C 120.078 64.143 120.34 64.6536 122.909 65.1561C 114.384 58.0637 104.601 51.8283 98.6212 49.5196z"/>
</g>
<g>
<path style="stroke:none; fill:#ffffff" d="M 89.7088 167.005C 79.2859 170.711 70.227 169.128 61.2756 167.129C 55.2018 161.128 49.8683 154.646 47.063 146.522C 51.7843 139.13 56.5056 131.737 61.2269 124.344C 71.9154 126.184 81.3811 125.528 90.5884 124.344C 94.9105 131.485 99.2325 138.625 103.554 145.766C 100.699 155.001 95.5351 161.408 89.7088 167.005z"/>
<g>
<path style="stroke:none; fill:#fbfbfb" d="M 88.8838 165.878C 78.5901 169.661 70.4114 168.771 61.151 166.787C 55.1242 160.832 49.963 154.517 47.1794 146.456C 51.8642 139.121 56.572 131.727 61.2567 124.392C 71.9376 126.588 81.3509 125.555 90.5066 124.448C 94.7952 131.533 98.9304 138.693 103.219 145.779C 100.124 154.403 94.7348 160.418 88.8838 165.878z"/>
<path style="stroke:none; fill:#f8f8f8" d="M 88.0588 164.751C 77.8943 168.611 70.5959 168.413 61.0264 166.445C 55.0466 160.537 50.0577 154.388 47.2959 146.39C 51.9441 139.112 56.6383 131.717 61.2865 124.439C 71.9598 126.993 81.3207 125.581 90.4248 124.552C 94.6799 131.582 98.6283 138.761 102.883 145.791C 99.5482 153.806 93.9345 159.428 88.0588 164.751z"/>
<path style="stroke:none; fill:#f4f4f4" d="M 87.2339 163.624C 77.1986 167.561 70.7803 168.056 60.9018 166.103C 54.9691 160.241 50.1524 154.259 47.4123 146.324C 52.0239 139.103 56.7047 131.708 61.3163 124.487C 71.982 127.397 81.2905 125.608 90.343 124.656C 94.5646 131.631 98.3262 138.829 102.548 145.804C 98.9728 153.209 93.1343 158.437 87.2339 163.624z"/>
<path style="stroke:none; fill:#f1f1f1" d="M 86.4089 162.497C 76.5028 166.511 70.9648 167.698 60.7772 165.761C 54.8915 159.946 50.2471 154.13 47.5287 146.258C 52.1038 139.094 56.7711 131.698 61.3461 124.534C 72.0042 127.802 81.2603 125.635 90.2611 124.76C 94.4493 131.679 98.0241 138.897 102.212 145.816C 98.3975 152.611 92.334 157.447 86.4089 162.497z"/>
<path style="stroke:none; fill:#ededed" d="M 85.584 161.37C 75.807 165.461 71.1492 167.341 60.6526 165.419C 54.814 159.65 50.3418 154.001 47.6452 146.192C 52.1837 139.086 56.8374 131.688 61.3759 124.582C 72.0264 128.206 81.2301 125.662 90.1793 124.864C 94.334 131.728 97.722 138.965 101.877 145.829C 97.8221 152.014 91.5337 156.457 85.584 161.37z"/>
<path style="stroke:none; fill:#eaeaea" d="M 84.759 160.244C 75.1112 164.411 71.3336 166.983 60.5281 165.077C 54.7364 159.354 50.4366 153.872 47.7616 146.126C 52.2635 139.077 56.9038 131.678 61.4057 124.629C 72.0486 128.61 81.1999 125.688 90.0975 124.968C 94.2187 131.777 97.4199 139.033 101.541 145.842C 97.2467 151.417 90.7335 155.467 84.759 160.244z"/>
<path style="stroke:none; fill:#e7e7e7" d="M 83.9341 159.117C 74.4155 163.361 71.5181 166.626 60.4035 164.735C 54.6589 159.059 50.5313 153.743 47.878 146.06C 52.3434 139.068 56.9701 131.669 61.4355 124.677C 72.0708 129.015 81.1697 125.715 90.0157 125.072C 94.1034 131.825 97.1178 139.101 101.206 145.854C 96.6713 150.819 89.9332 154.476 83.9341 159.117z"/>
<path style="stroke:none; fill:#e3e3e3" d="M 83.1091 157.99C 73.7197 162.311 71.7025 166.268 60.2789 164.393C 54.5813 158.763 50.626 153.614 47.9944 145.994C 52.4233 139.059 57.0365 131.659 61.4653 124.724C 72.093 129.419 81.1395 125.742 89.9338 125.176C 93.9881 131.874 96.8157 139.168 100.87 145.867C 96.096 150.222 89.1329 153.486 83.1091 157.99z"/>
<path style="stroke:none; fill:#e0e0e0" d="M 82.2842 156.863C 73.0239 161.261 71.8869 165.911 60.1543 164.051C 54.5038 158.468 50.7207 153.486 48.1109 145.928C 52.5032 139.051 57.1029 131.649 61.4951 124.772C 72.1152 129.824 81.1093 125.769 89.852 125.28C 93.8728 131.922 96.5136 139.236 100.534 145.879C 95.5206 149.625 88.3326 152.496 82.2842 156.863z"/>
<path style="stroke:none; fill:#dddddd" d="M 81.4592 155.736C 72.3281 160.211 72.0714 165.553 60.0297 163.709C 54.4262 158.172 50.8154 153.357 48.2273 145.862C 52.583 139.042 57.1692 131.639 61.5249 124.819C 72.1374 130.228 81.0791 125.796 89.7702 125.383C 93.7575 131.971 96.2116 139.304 100.199 145.892C 94.9452 149.027 87.5324 151.506 81.4592 155.736z"/>
<path style="stroke:none; fill:#d9d9d9" d="M 80.6343 154.61C 71.6323 159.16 72.2558 165.196 59.9051 163.367C 54.3486 157.877 50.9101 153.228 48.3437 145.796C 52.6629 139.033 57.2356 131.63 61.5547 124.867C 72.1596 130.632 81.0489 125.822 89.6884 125.487C 93.6422 132.02 95.9095 139.372 99.8633 145.905C 94.3699 148.43 86.7321 150.516 80.6343 154.61z"/>
<path style="stroke:none; fill:#d6d6d6" d="M 79.8093 153.483C 70.9366 158.11 72.4403 164.839 59.7805 163.025C 54.2711 157.581 51.0048 153.099 48.4602 145.73C 52.7428 139.024 57.3019 131.62 61.5845 124.914C 72.1818 131.037 81.0187 125.849 89.6065 125.591C 93.5269 132.068 95.6074 139.44 99.5278 145.917C 93.7945 147.833 85.9318 149.525 79.8093 153.483z"/>
<path style="stroke:none; fill:#d2d2d2" d="M 78.9844 152.356C 70.2408 157.06 72.6247 164.481 59.6559 162.683C 54.1935 157.286 51.0995 152.97 48.5766 145.664C 52.8226 139.015 57.3683 131.61 61.6143 124.962C 72.204 131.441 80.9885 125.876 89.5247 125.695C 93.4116 132.117 95.3053 139.508 99.1922 145.93C 93.2191 147.235 85.1316 148.535 78.9844 152.356z"/>
<path style="stroke:none; fill:#cfcfcf" d="M 78.1594 151.229C 69.545 156.01 72.8091 164.124 59.5314 162.341C 54.116 156.99 51.1942 152.841 48.693 145.598C 52.9025 139.007 57.4346 131.601 61.6441 125.009C 72.2262 131.845 80.9583 125.903 89.4429 125.799C 93.2963 132.166 95.0032 139.576 98.8567 145.942C 92.6437 146.638 84.3313 147.545 78.1594 151.229z"/>
</g>
<path style="stroke:none; fill:#cccccc" d="M 77.3344 150.102C 68.8492 154.96 72.9936 163.766 59.4068 161.999C 54.0384 156.695 51.2889 152.712 48.8094 145.532C 52.9824 138.998 57.501 131.591 61.6739 125.057C 72.2484 132.25 80.9281 125.93 89.3611 125.903C 93.181 132.214 94.7011 139.644 98.5211 145.955C 92.0684 146.041 83.531 146.555 77.3344 150.102z"/>
</g>
<g>
<path style="stroke:none; fill:#ffffff" d="M 89.7852 167.017C 80.1082 169.972 70.7457 169.512 61.7607 167.014C 58.1233 169 54.2343 171.112 50.597 173.097C 67.5104 179.271 84.5452 179.992 101.756 172.804C 96.7339 171.717 93.3623 169.283 89.7852 167.017z"/>
<g>
<path style="stroke:none; fill:#f9f9f9" d="M 89.7055 167.036C 80.5301 170.011 70.6 169.548 61.7895 167.048C 58.2244 168.959 55.0467 171.289 52.1572 173.158C 67.7634 178.797 83.8626 179.55 99.8535 172.883C 95.8345 171.706 93.2115 169.217 89.7055 167.036z"/>
<path style="stroke:none; fill:#f4f4f4" d="M 89.6257 167.055C 80.9521 170.05 70.4542 169.583 61.8183 167.081C 58.3254 168.917 55.859 171.467 53.7175 173.22C 68.0165 178.323 83.1801 179.109 97.9508 172.961C 94.935 171.694 93.0608 169.151 89.6257 167.055z"/>
<path style="stroke:none; fill:#efefef" d="M 89.546 167.073C 81.374 170.09 70.3085 169.618 61.8472 167.114C 58.4265 168.876 56.6713 171.645 55.2777 173.281C 68.2695 177.849 82.4975 178.667 96.0482 173.04C 94.0356 171.683 92.91 169.085 89.546 167.073z"/>
<path style="stroke:none; fill:#eaeaea" d="M 89.4662 167.092C 81.7959 170.129 70.1627 169.653 61.876 167.147C 58.5276 168.835 57.4837 171.823 56.8379 173.342C 68.5226 177.374 81.815 178.226 94.1455 173.118C 93.1362 171.671 92.7592 169.019 89.4662 167.092z"/>
<path style="stroke:none; fill:#e5e5e5" d="M 89.3864 167.111C 82.2179 170.168 70.017 169.689 61.9049 167.18C 58.6287 168.793 58.296 172.001 58.3981 173.403C 68.7756 176.9 81.1324 177.784 92.2429 173.197C 92.2367 171.66 92.6084 168.952 89.3864 167.111z"/>
<path style="stroke:none; fill:#e0e0e0" d="M 89.3067 167.13C 82.6398 170.208 69.8712 169.724 61.9337 167.213C 58.7297 168.752 59.1083 172.179 59.9583 173.465C 69.0286 176.426 80.4499 177.343 90.3402 173.275C 91.3373 171.648 92.4576 168.886 89.3067 167.13z"/>
<path style="stroke:none; fill:#dbdbdb" d="M 89.2269 167.149C 83.0617 170.247 69.7255 169.759 61.9625 167.246C 58.8308 168.71 59.9206 172.357 61.5186 173.526C 69.2817 175.951 79.7673 176.901 88.4376 173.354C 90.4379 171.636 92.3068 168.82 89.2269 167.149z"/>
<path style="stroke:none; fill:#d6d6d6" d="M 89.1472 167.168C 83.4837 170.286 69.5798 169.795 61.9914 167.279C 58.9319 168.669 60.733 172.534 63.0788 173.587C 69.5347 175.477 79.0848 176.46 86.5349 173.432C 89.5384 171.625 92.156 168.754 89.1472 167.168z"/>
<path style="stroke:none; fill:#d1d1d1" d="M 89.0674 167.187C 83.9056 170.326 69.434 169.83 62.0202 167.312C 59.033 168.628 61.5453 172.712 64.639 173.648C 69.7878 175.003 78.4022 176.018 84.6323 173.511C 88.639 171.613 92.0052 168.688 89.0674 167.187z"/>
</g>
<path style="stroke:none; fill:#cccccc" d="M 88.9877 167.206C 84.3275 170.365 69.2883 169.865 62.0491 167.346C 59.134 168.586 62.3576 172.89 66.1992 173.709C 70.0408 174.529 77.7197 175.576 82.7296 173.589C 87.7396 171.602 91.8544 168.622 88.9877 167.206z"/>
</g>
<g>
<path style="stroke:none; fill:#000000" d="M 47.3749 146.648C 50.4584 154.641 55.4538 161.269 61.509 167.14C 57.8717 169.126 54.2343 171.112 50.597 173.097C 42.5341 169.297 34.433 165.317 24.9114 154.669C 25.0306 149.794 25.1497 144.92 25.2689 140.045C 32.3221 144.016 39.7266 146.016 47.3749 146.648z"/>
<g>
<path style="stroke:none; fill:#080808" d="M 46.6924 147.37C 50.0985 155.335 54.8244 161.603 60.8324 167.28C 57.5334 169.228 54.2068 171.125 50.5966 173.083C 42.3408 169.193 34.3641 165.188 24.9289 154.654C 25.047 149.83 25.1537 145.432 25.2718 140.609C 32.1919 144.519 38.9497 146.399 46.6924 147.37z"/>
<path style="stroke:none; fill:#111111" d="M 46.0099 148.092C 49.7386 156.028 54.195 161.936 60.1558 167.421C 57.1952 169.331 54.1793 171.138 50.5962 173.07C 42.1475 169.09 34.2953 165.059 24.9464 154.638C 25.0634 149.867 25.1577 145.944 25.2747 141.173C 32.0617 145.021 38.1728 146.782 46.0099 148.092z"/>
<path style="stroke:none; fill:#1a1a1a" d="M 45.3274 148.814C 49.3787 156.721 53.5656 162.269 59.4792 167.561C 56.8569 169.433 54.1517 171.151 50.5958 173.056C 41.9543 168.986 34.2264 164.93 24.9638 154.622C 25.0797 149.903 25.1617 146.456 25.2776 141.737C 31.9315 145.523 37.3959 147.165 45.3274 148.814z"/>
<path style="stroke:none; fill:#232323" d="M 44.6449 149.536C 49.0188 157.414 52.9361 162.602 58.8026 167.701C 56.5186 169.536 54.1242 171.164 50.5954 173.042C 41.761 168.883 34.1575 164.801 24.9813 154.606C 25.0961 149.939 25.1657 146.969 25.2805 142.301C 31.8013 146.025 36.6191 147.548 44.6449 149.536z"/>
<path style="stroke:none; fill:#2c2c2c" d="M 43.9624 150.258C 48.6589 158.107 52.3067 162.935 58.126 167.841C 56.1804 169.638 54.0967 171.178 50.5949 173.028C 41.5677 168.779 34.0886 164.672 24.9988 154.59C 25.1125 149.975 25.1697 147.481 25.2835 142.865C 31.671 146.528 35.8422 147.931 43.9624 150.258z"/>
<path style="stroke:none; fill:#353535" d="M 43.2799 150.98C 48.299 158.8 51.6773 163.268 57.4494 167.981C 55.8421 169.74 54.0691 171.191 50.5945 173.014C 41.3744 168.676 34.0197 164.543 25.0162 154.574C 25.1289 150.011 25.1737 147.993 25.2864 143.43C 31.5408 147.03 35.0653 148.314 43.2799 150.98z"/>
<path style="stroke:none; fill:#3e3e3e" d="M 42.5974 151.702C 47.9391 159.493 51.0479 163.601 56.7728 168.121C 55.5039 169.843 54.0416 171.204 50.5941 173.001C 41.1811 168.572 33.9509 164.414 25.0337 154.559C 25.1453 150.047 25.1777 148.506 25.2893 143.994C 31.4106 147.532 34.2884 148.696 42.5974 151.702z"/>
<path style="stroke:none; fill:#474747" d="M 41.9148 152.424C 47.5792 160.186 50.4185 163.934 56.0962 168.261C 55.1656 169.945 54.0141 171.217 50.5937 172.987C 40.9879 168.469 33.882 164.285 25.0512 154.543C 25.1617 150.083 25.1817 149.018 25.2922 144.558C 31.2804 148.035 33.5115 149.079 41.9148 152.424z"/>
<path style="stroke:none; fill:#505050" d="M 41.2323 153.146C 47.2193 160.88 49.789 164.268 55.4196 168.401C 54.8273 170.048 53.9865 171.23 50.5933 172.973C 40.7946 168.365 33.8131 164.156 25.0687 154.527C 25.1781 150.119 25.1856 149.53 25.2951 145.122C 31.1502 148.537 32.7346 149.462 41.2323 153.146z"/>
<path style="stroke:none; fill:#595959" d="M 40.5498 153.868C 46.8595 161.573 49.1596 164.601 54.743 168.542C 54.4891 170.15 53.959 171.244 50.5929 172.959C 40.6013 168.262 33.7442 164.027 25.0861 154.511C 25.1945 150.155 25.1896 150.043 25.298 145.686C 31.02 149.039 31.9578 149.845 40.5498 153.868z"/>
<path style="stroke:none; fill:#626262" d="M 39.8673 154.59C 46.4996 162.266 48.5302 164.934 54.0663 168.682C 54.1508 170.252 53.9315 171.257 50.5924 172.946C 40.408 168.158 33.6753 163.897 25.1036 154.495C 25.2108 150.191 25.1936 150.555 25.3009 146.251C 30.8898 149.542 31.1809 150.228 39.8673 154.59z"/>
<path style="stroke:none; fill:#6b6b6b" d="M 39.1848 155.312C 46.1397 162.959 47.9008 165.267 53.3897 168.822C 53.8125 170.355 53.9039 171.27 50.592 172.932C 40.2148 168.055 33.6065 163.768 25.1211 154.479C 25.2272 150.227 25.1976 151.067 25.3038 146.815C 30.7595 150.044 30.404 150.611 39.1848 155.312z"/>
<path style="stroke:none; fill:#747474" d="M 38.5023 156.034C 45.7798 163.652 47.2714 165.6 52.7131 168.962C 53.4743 170.457 53.8764 171.283 50.5916 172.918C 40.0215 167.951 33.5376 163.639 25.1385 154.464C 25.2436 150.263 25.2016 151.58 25.3067 147.379C 30.6293 150.546 29.6271 150.993 38.5023 156.034z"/>
<path style="stroke:none; fill:#7c7c7c" d="M 37.8198 156.756C 45.4199 164.345 46.6419 165.933 52.0365 169.102C 53.136 170.56 53.8489 171.296 50.5912 172.904C 39.8282 167.848 33.4687 163.51 25.156 154.448C 25.26 150.299 25.2056 152.092 25.3096 147.943C 30.4991 151.048 28.8502 151.376 37.8198 156.756z"/>
<path style="stroke:none; fill:#858585" d="M 37.1373 157.478C 45.06 165.038 46.0125 166.266 51.3599 169.242C 52.7977 170.662 53.8213 171.31 50.5908 172.89C 39.6349 167.744 33.3998 163.381 25.1735 154.432C 25.2764 150.335 25.2096 152.604 25.3125 148.507C 30.3689 151.551 28.0733 151.759 37.1373 157.478z"/>
<path style="stroke:none; fill:#8e8e8e" d="M 36.4548 158.2C 44.7001 165.731 45.3831 166.599 50.6833 169.382C 52.4595 170.764 53.7938 171.323 50.5904 172.877C 39.4417 167.641 33.3309 163.252 25.1909 154.416C 25.2928 150.371 25.2136 153.117 25.3154 149.071C 30.2387 152.053 27.2965 152.142 36.4548 158.2z"/>
<path style="stroke:none; fill:#979797" d="M 35.7722 158.922C 44.3402 166.425 44.7537 166.933 50.0067 169.522C 52.1212 170.867 53.7663 171.336 50.59 172.863C 39.2484 167.537 33.2621 163.123 25.2084 154.4C 25.3092 150.407 25.2176 153.629 25.3183 149.636C 30.1085 152.555 26.5196 152.525 35.7722 158.922z"/>
<path style="stroke:none; fill:#a0a0a0" d="M 35.0897 159.645C 43.9803 167.118 44.1243 167.266 49.3301 169.663C 51.7829 170.969 53.7387 171.349 50.5895 172.849C 39.0551 167.434 33.1932 162.994 25.2259 154.384C 25.3256 150.443 25.2215 154.141 25.3212 150.2C 29.9783 153.058 25.7427 152.908 35.0897 159.645z"/>
<path style="stroke:none; fill:#a9a9a9" d="M 34.4072 160.367C 43.6204 167.811 43.4948 167.599 48.6535 169.803C 51.4447 171.072 53.7112 171.362 50.5891 172.835C 38.8618 167.33 33.1243 162.865 25.2433 154.369C 25.3419 150.479 25.2255 154.654 25.3242 150.764C 29.848 153.56 24.9658 153.29 34.4072 160.367z"/>
</g>
<path style="stroke:none; fill:#b2b2b2" d="M 33.7247 161.089C 43.2605 168.504 42.8654 167.932 47.9769 169.943C 51.1064 171.174 53.6837 171.376 50.5887 172.822C 38.6685 167.227 33.0554 162.736 25.2608 154.353C 25.3583 150.515 25.2295 155.166 25.3271 151.328C 29.7178 154.062 24.1889 153.673 33.7247 161.089z"/>
</g>
<g>
<path style="stroke:none; fill:#000000" d="M 89.7852 167.017C 97.3158 160.33 101.052 153.187 103.554 145.896C 111.116 145.274 118.138 143.275 124.508 139.614C 127.658 143.747 126.497 150.195 124.03 157.344C 118.175 163.922 110.271 168.639 101.756 172.804C 97.5836 171.805 93.6638 169.516 89.7852 167.017z"/>
<g>
<path style="stroke:none; fill:#080808" d="M 90.2478 167.208C 97.6192 160.829 101.329 153.992 104.067 146.787C 111.611 145.917 118.325 143.956 124.538 140.233C 127.511 144.263 126.382 150.496 124.015 157.347C 118.258 163.815 110.203 168.679 101.791 172.769C 97.7247 171.799 94.0398 169.621 90.2478 167.208z"/>
<path style="stroke:none; fill:#111111" d="M 90.7103 167.399C 97.9225 161.329 101.606 154.797 104.58 147.678C 112.106 146.561 118.512 144.638 124.568 140.853C 127.364 144.779 126.267 150.797 124 157.35C 118.34 163.709 110.135 168.72 101.827 172.734C 97.8658 171.793 94.4157 169.727 90.7103 167.399z"/>
<path style="stroke:none; fill:#1a1a1a" d="M 91.1729 167.59C 98.2259 161.829 101.883 155.602 105.092 148.569C 112.601 147.204 118.699 145.32 124.598 141.472C 127.217 145.295 126.153 151.098 123.986 157.352C 118.423 163.602 110.067 168.76 101.862 172.699C 98.0069 171.787 94.7917 169.832 91.1729 167.59z"/>
<path style="stroke:none; fill:#232323" d="M 91.6355 167.781C 98.5293 162.329 102.16 156.407 105.605 149.46C 113.097 147.848 118.887 146.002 124.628 142.091C 127.07 145.811 126.038 151.399 123.971 157.355C 118.505 163.496 109.999 168.8 101.898 172.665C 98.1481 171.781 95.1677 169.937 91.6355 167.781z"/>
<path style="stroke:none; fill:#2c2c2c" d="M 92.098 167.972C 98.8326 162.828 102.437 157.212 106.117 150.35C 113.592 148.491 119.074 146.683 124.658 142.71C 126.924 146.327 125.924 151.7 123.956 157.358C 118.588 163.389 109.931 168.84 101.933 172.63C 98.2892 171.775 95.5437 170.043 92.098 167.972z"/>
<path style="stroke:none; fill:#353535" d="M 92.5606 168.163C 99.136 163.328 102.714 158.017 106.63 151.241C 114.087 149.135 119.261 147.365 124.688 143.329C 126.777 146.843 125.809 152.002 123.941 157.361C 118.67 163.283 109.863 168.88 101.968 172.595C 98.4303 171.769 95.9197 170.148 92.5606 168.163z"/>
<path style="stroke:none; fill:#3e3e3e" d="M 93.0231 168.354C 99.4393 163.828 102.991 158.822 107.142 152.132C 114.582 149.778 119.448 148.047 124.718 143.949C 126.63 147.359 125.695 152.303 123.926 157.364C 118.752 163.177 109.795 168.921 102.004 172.56C 98.5715 171.763 96.2956 170.253 93.0231 168.354z"/>
<path style="stroke:none; fill:#474747" d="M 93.4857 168.545C 99.7427 164.328 103.268 159.627 107.655 153.023C 115.077 150.421 119.636 148.728 124.748 144.568C 126.483 147.876 125.58 152.604 123.911 157.367C 118.835 163.07 109.727 168.961 102.039 172.525C 98.7126 171.757 96.6716 170.359 93.4857 168.545z"/>
<path style="stroke:none; fill:#505050" d="M 93.9482 168.736C 100.046 164.827 103.545 160.432 108.168 153.914C 115.572 151.065 119.823 149.41 124.778 145.187C 126.336 148.392 125.466 152.905 123.897 157.37C 118.917 162.964 109.659 169.001 102.075 172.49C 98.8537 171.751 97.0476 170.464 93.9482 168.736z"/>
<path style="stroke:none; fill:#595959" d="M 94.4108 168.927C 100.349 165.327 103.822 161.237 108.68 154.805C 116.068 151.708 120.01 150.092 124.808 145.806C 126.189 148.908 125.351 153.206 123.882 157.372C 119 162.857 109.591 169.041 102.11 172.455C 98.9948 171.746 97.4236 170.569 94.4108 168.927z"/>
<path style="stroke:none; fill:#626262" d="M 94.8734 169.118C 100.653 165.827 104.099 162.042 109.193 155.696C 116.563 152.352 120.197 150.774 124.838 146.425C 126.043 149.424 125.236 153.507 123.867 157.375C 119.082 162.751 109.523 169.081 102.145 172.421C 99.136 171.74 97.7996 170.675 94.8734 169.118z"/>
<path style="stroke:none; fill:#6b6b6b" d="M 95.3359 169.309C 100.956 166.327 104.376 162.847 109.705 156.587C 117.058 152.995 120.385 151.455 124.868 147.045C 125.896 149.94 125.122 153.808 123.852 157.378C 119.165 162.644 109.455 169.122 102.181 172.386C 99.2771 171.734 98.1755 170.78 95.3359 169.309z"/>
<path style="stroke:none; fill:#747474" d="M 95.7985 169.5C 101.26 166.826 104.653 163.652 110.218 157.478C 117.553 153.639 120.572 152.137 124.898 147.664C 125.749 150.456 125.007 154.11 123.837 157.381C 119.247 162.538 109.387 169.162 102.216 172.351C 99.4182 171.728 98.5515 170.885 95.7985 169.5z"/>
<path style="stroke:none; fill:#7c7c7c" d="M 96.261 169.691C 101.563 167.326 104.93 164.457 110.73 158.369C 118.048 154.282 120.759 152.819 124.928 148.283C 125.602 150.972 124.893 154.411 123.822 157.384C 119.329 162.432 109.319 169.202 102.251 172.316C 99.5594 171.722 98.9275 170.991 96.261 169.691z"/>
<path style="stroke:none; fill:#858585" d="M 96.7236 169.882C 101.866 167.826 105.207 165.262 111.243 159.26C 118.543 154.926 120.947 153.5 124.958 148.902C 125.455 151.488 124.778 154.712 123.808 157.387C 119.412 162.325 109.251 169.242 102.287 172.281C 99.7005 171.716 99.3035 171.096 96.7236 169.882z"/>
<path style="stroke:none; fill:#8e8e8e" d="M 97.1862 170.073C 102.17 168.326 105.484 166.067 111.755 160.151C 119.039 155.569 121.134 154.182 124.988 149.522C 125.309 152.005 124.664 155.013 123.793 157.389C 119.494 162.219 109.183 169.282 102.322 172.246C 99.8416 171.71 99.6795 171.201 97.1862 170.073z"/>
<path style="stroke:none; fill:#979797" d="M 97.6487 170.264C 102.473 168.825 105.761 166.872 112.268 161.042C 119.534 156.213 121.321 154.864 125.018 150.141C 125.162 152.521 124.549 155.314 123.778 157.392C 119.577 162.112 109.115 169.322 102.358 172.211C 99.9827 171.704 100.055 171.307 97.6487 170.264z"/>
<path style="stroke:none; fill:#a0a0a0" d="M 98.1113 170.455C 102.776 169.325 106.038 167.677 112.781 161.933C 120.029 156.856 121.508 155.546 125.048 150.76C 125.015 153.037 124.435 155.615 123.763 157.395C 119.659 162.006 109.047 169.363 102.393 172.177C 100.124 171.698 100.431 171.412 98.1113 170.455z"/>
<path style="stroke:none; fill:#a9a9a9" d="M 98.5738 170.646C 103.08 169.825 106.315 168.482 113.293 162.824C 120.524 157.499 121.696 156.227 125.078 151.379C 124.868 153.553 124.32 155.916 123.748 157.398C 119.742 161.899 108.979 169.403 102.428 172.142C 100.265 171.692 100.807 171.517 98.5738 170.646z"/>
</g>
<path style="stroke:none; fill:#b2b2b2" d="M 99.0364 170.837C 103.383 170.325 106.592 169.287 113.806 163.715C 121.019 158.143 121.883 156.909 125.108 151.998C 124.721 154.069 124.205 156.218 123.733 157.401C 119.824 161.793 108.911 169.443 102.464 172.107C 100.406 171.686 101.183 171.623 99.0364 170.837z"/>
</g>
<g>
<path style="stroke:none; fill:#ffffff" d="M 143.134 104.769C 140.197 107.163 137.26 109.557 134.323 111.951C 134.49 121.421 130.148 130.727 124.102 139.89C 127.568 144.426 125.49 151.133 123.613 157.761C 135.558 144.576 144.474 128.897 143.134 104.769z"/>
<g>
<path style="stroke:none; fill:#f9f9f9" d="M 143.129 105.073C 140.254 107.431 137.417 109.774 134.581 112.171C 134.759 121.598 130.509 130.796 124.527 139.821C 127.92 144.289 125.8 150.757 123.963 157.286C 135.642 144.261 144.348 128.839 143.129 105.073z"/>
<path style="stroke:none; fill:#f4f4f4" d="M 143.125 105.378C 140.311 107.7 137.575 109.992 134.839 112.391C 135.029 121.776 130.869 130.864 124.952 139.753C 128.273 144.152 126.111 150.382 124.313 156.811C 135.726 143.945 144.222 128.782 143.125 105.378z"/>
<path style="stroke:none; fill:#efefef" d="M 143.121 105.682C 140.368 107.969 137.732 110.209 135.096 112.611C 135.299 121.953 131.23 130.933 125.377 139.684C 128.625 144.016 126.421 150.007 124.663 156.336C 135.811 143.63 144.097 128.725 143.121 105.682z"/>
<path style="stroke:none; fill:#eaeaea" d="M 143.116 105.987C 140.425 108.237 137.89 110.427 135.354 112.83C 135.569 122.131 131.59 131.002 125.801 139.615C 128.978 143.879 126.732 149.631 125.012 155.862C 135.895 143.315 143.971 128.667 143.116 105.987z"/>
<path style="stroke:none; fill:#e5e5e5" d="M 143.112 106.291C 140.482 108.506 138.047 110.644 135.612 113.05C 135.838 122.308 131.951 131.07 126.226 139.546C 129.33 143.742 127.042 149.256 125.362 155.387C 135.979 142.999 143.845 128.61 143.112 106.291z"/>
<path style="stroke:none; fill:#e0e0e0" d="M 143.107 106.596C 140.539 108.775 138.204 110.861 135.869 113.27C 136.108 122.486 132.311 131.139 126.651 139.477C 129.683 143.605 127.353 148.88 125.712 154.912C 136.063 142.684 143.72 128.553 143.107 106.596z"/>
<path style="stroke:none; fill:#dbdbdb" d="M 143.103 106.9C 140.596 109.043 138.362 111.079 136.127 113.49C 136.378 122.663 132.672 131.207 127.076 139.409C 130.035 143.468 127.663 148.505 126.061 154.437C 136.147 142.368 143.594 128.496 143.103 106.9z"/>
<path style="stroke:none; fill:#d6d6d6" d="M 143.099 107.205C 140.653 109.312 138.519 111.296 136.385 113.71C 136.648 122.841 133.032 131.276 127.501 139.34C 130.387 143.332 127.974 148.13 126.411 153.962C 136.232 142.053 143.468 128.438 143.099 107.205z"/>
<path style="stroke:none; fill:#d1d1d1" d="M 143.094 107.51C 140.711 109.581 138.677 111.514 136.643 113.93C 136.917 123.018 133.393 131.345 127.926 139.271C 130.74 143.195 128.284 147.754 126.761 153.488C 136.316 141.738 143.343 128.381 143.094 107.51z"/>
</g>
<path style="stroke:none; fill:#cccccc" d="M 143.09 107.814C 140.768 109.849 138.834 111.731 136.9 114.149C 137.187 123.196 133.753 131.413 128.351 139.202C 131.092 143.058 128.595 147.379 127.111 153.013C 136.4 141.422 143.217 128.324 143.09 107.814z"/>
</g>
<g>
<path style="stroke:none; fill:#ffffff" d="M 61.4606 124.592L 47.3749 146.648C 39.4397 146.181 32.1164 143.841 25.2689 140.045C 18.9247 132.457 17.2029 122.51 17.3564 111.606C 20.4779 104.007 23.7234 96.4658 30.639 90.6536C 38.0065 92.654 45.3739 94.6545 52.7414 96.6549C 53.593 106.129 56.7408 115.422 61.4606 124.592z"/>
<g>
<path style="stroke:none; fill:#f9f9f9" d="M 61.3255 124.44L 47.4387 146.105C 39.5394 145.646 32.2493 143.339 25.4329 139.596C 19.1173 132.117 17.5615 122.619 17.8804 111.888C 20.8283 104.346 23.9159 97.1801 30.5193 91.7318C 37.5939 93.4227 45.3063 94.9353 52.6404 96.9072C 53.4882 106.246 56.7189 115.574 61.3255 124.44z"/>
<path style="stroke:none; fill:#f4f4f4" d="M 61.1904 124.288L 47.5025 145.563C 39.6392 145.11 32.3823 142.837 25.5968 139.148C 19.31 131.777 17.92 122.728 18.4044 112.17C 21.1787 104.685 24.1085 97.8944 30.3995 92.8101C 37.1814 94.1915 45.2387 95.2162 52.5394 97.1595C 53.3833 106.363 56.6971 115.726 61.1904 124.288z"/>
<path style="stroke:none; fill:#efefef" d="M 61.0553 124.136L 47.5663 145.021C 39.7389 144.574 32.5152 142.334 25.7607 138.7C 19.5027 131.437 18.2786 122.836 18.9284 112.452C 21.5291 105.024 24.301 98.6087 30.2797 93.8884C 36.7689 94.9602 45.171 95.497 52.4384 97.4118C 53.2785 106.48 56.6752 115.878 61.0553 124.136z"/>
<path style="stroke:none; fill:#eaeaea" d="M 60.9202 123.985L 47.6301 144.478C 39.8387 144.038 32.6481 141.832 25.9246 138.252C 19.6953 131.097 18.6371 122.945 19.4524 112.734C 21.8794 105.363 24.4936 99.3231 30.1599 94.9667C 36.3564 95.7289 45.1034 95.7779 52.3373 97.6641C 53.1736 106.597 56.6534 116.03 60.9202 123.985z"/>
<path style="stroke:none; fill:#e5e5e5" d="M 60.7852 123.833L 47.694 143.936C 39.9384 143.503 32.781 141.33 26.0886 137.804C 19.888 130.758 18.9957 123.054 19.9764 113.016C 22.2298 105.702 24.6861 100.037 30.0402 96.045C 35.9438 96.4977 45.0358 96.0587 52.2363 97.9164C 53.0687 106.714 56.6315 116.182 60.7852 123.833z"/>
<path style="stroke:none; fill:#e0e0e0" d="M 60.6501 123.681L 47.7578 143.394C 40.0382 142.967 32.9139 140.827 26.2525 137.356C 20.0807 130.418 19.3542 123.163 20.5004 113.298C 22.5802 106.041 24.8787 100.752 29.9204 97.1232C 35.5313 97.2664 44.9681 96.3396 52.1353 98.1687C 52.9639 106.831 56.6096 116.334 60.6501 123.681z"/>
<path style="stroke:none; fill:#dbdbdb" d="M 60.515 123.529L 47.8216 142.851C 40.1379 142.431 33.0468 140.325 26.4164 136.908C 20.2733 130.078 19.7128 123.272 21.0244 113.58C 22.9306 106.381 25.0712 101.466 29.8006 98.2015C 35.1188 98.0351 44.9005 96.6204 52.0343 98.421C 52.859 106.948 56.5878 116.486 60.515 123.529z"/>
<path style="stroke:none; fill:#d6d6d6" d="M 60.3799 123.377L 47.8854 142.309C 40.2376 141.896 33.1798 139.823 26.5804 136.46C 20.466 129.738 20.0713 123.381 21.5484 113.863C 23.281 106.72 25.2638 102.18 29.6808 99.2798C 34.7063 98.8038 44.8329 96.9013 51.9333 98.6733C 52.7542 107.065 56.5659 116.638 60.3799 123.377z"/>
<path style="stroke:none; fill:#d1d1d1" d="M 60.2448 123.225L 47.9492 141.766C 40.3374 141.36 33.3127 139.321 26.7443 136.012C 20.6587 129.398 20.4299 123.49 22.0724 114.145C 23.6314 107.059 25.4563 102.895 29.5611 100.358C 34.2938 99.5726 44.7652 97.1821 51.8323 98.9256C 52.6493 107.182 56.5441 116.789 60.2448 123.225z"/>
</g>
<path style="stroke:none; fill:#cccccc" d="M 60.1097 123.073L 48.013 141.224C 40.4371 140.824 33.4456 138.818 26.9082 135.564C 20.8513 129.059 20.7885 123.599 22.5964 114.427C 23.9818 107.398 25.6489 103.609 29.4413 101.436C 33.8812 100.341 44.6976 97.463 51.7313 99.1779C 52.5444 107.299 56.5222 116.941 60.1097 123.073z"/>
</g>
<path style="stroke:none; fill:#ffffff" d="M 52.7414 96.6549C 59.6626 91.2054 65.1554 85.7559 75.8576 80.3065C 75.8576 72.9945 75.8576 65.6825 75.8576 58.3706C 70.4465 54.1786 62.8423 51.7773 52.9637 51.233C 41.3389 54.0587 34.8524 60.7603 30.0307 68.7177C 28.1686 76.0296 28.6336 83.3416 30.639 90.6536C 38.0065 92.654 45.3739 94.6545 52.7414 96.6549z"/>
<g>
<path style="stroke:none; fill:#ffffff" d="M 53.0701 97.3018C 60.0866 91.7747 65.6551 86.2477 76.5045 80.7206C 76.5045 73.3045 76.5045 65.8884 76.5045 58.4722C 71.019 54.2206 63.3101 51.785 53.2955 51.233C 41.5107 54.0989 34.935 60.896 30.0469 68.9667C 28.1591 76.3828 28.6306 83.7989 30.6636 91.215C 38.1324 93.244 45.6013 95.2729 53.0701 97.3018z"/>
<g>
<path style="stroke:none; fill:#fbfbfb" d="M 53.2007 97.0936C 60.1059 91.5954 65.7107 86.0643 76.395 80.6648C 76.384 73.3426 76.395 66.1848 76.4169 58.8078C 70.9927 54.6037 63.7973 53.0723 53.8947 52.5264C 42.2417 55.3603 35.9376 61.7303 30.9937 69.4809C 28.9143 76.6057 29.2195 83.7534 31.3625 91.0091C 38.671 93.1484 45.8154 95.0873 53.2007 97.0936z"/>
<path style="stroke:none; fill:#f7f7f7" d="M 53.3313 96.8853C 60.1251 91.4161 65.7663 85.881 76.2854 80.6091C 76.2635 73.3808 76.2854 66.4813 76.3292 59.1434C 70.9664 54.9868 64.2845 54.3596 54.4939 53.8199C 42.9727 56.6217 36.9402 62.5645 31.9405 69.9951C 29.6694 76.8286 29.8083 83.7078 32.0614 90.8031C 39.2096 93.0528 46.0295 94.9018 53.3313 96.8853z"/>
<path style="stroke:none; fill:#f3f3f3" d="M 53.4619 96.677C 60.1444 91.2367 65.8219 85.6977 76.1758 80.5534C 76.143 73.419 76.1758 66.7778 76.2416 59.479C 70.9401 55.37 64.7717 55.6469 55.0931 55.1133C 43.7037 57.8831 37.9429 63.3988 32.8874 70.5093C 30.4246 77.0515 30.3972 83.6623 32.7603 90.5971C 39.7481 92.9573 46.2436 94.7162 53.4619 96.677z"/>
<path style="stroke:none; fill:#efefef" d="M 53.5925 96.4688C 60.1636 91.0574 65.8775 85.5144 76.0663 80.4977C 76.0224 73.4572 76.0663 67.0743 76.1539 59.8146C 70.9138 55.7531 65.2589 56.9342 55.6923 56.4068C 44.4347 59.1446 38.9455 64.2331 33.8342 71.0234C 31.1797 77.2744 30.9861 83.6167 33.4592 90.3912C 40.2867 92.8617 46.4578 94.5306 53.5925 96.4688z"/>
<path style="stroke:none; fill:#ebebeb" d="M 53.7231 96.2605C 60.1829 90.878 65.9331 85.3311 75.9567 80.4419C 75.9019 73.4953 75.9567 67.3708 76.0663 60.1501C 70.8875 56.1362 65.7461 58.2215 56.2915 57.7003C 45.1657 60.406 39.9482 65.0673 34.7811 71.5376C 31.9349 77.4973 31.575 83.5712 34.1581 90.1852C 40.8253 92.7661 46.6719 94.345 53.7231 96.2605z"/>
<path style="stroke:none; fill:#e8e8e8" d="M 53.8537 96.0522C 60.2021 90.6987 65.9886 85.1478 75.8471 80.3862C 75.7814 73.5335 75.8471 67.6673 75.9786 60.4857C 70.8612 56.5194 66.2333 59.5088 56.8907 58.9937C 45.8966 61.6674 40.9508 65.9016 35.7279 72.0518C 32.69 77.7202 32.1639 83.5256 34.857 89.9792C 41.3638 92.6705 46.886 94.1594 53.8537 96.0522z"/>
<path style="stroke:none; fill:#e4e4e4" d="M 53.9843 95.844C 60.2214 90.5193 66.0442 84.9645 75.7376 80.3305C 75.6609 73.5717 75.7376 67.9638 75.891 60.8213C 70.8348 56.9025 66.7205 60.796 57.4899 60.2872C 46.6276 62.9288 41.9534 66.7359 36.6747 72.566C 33.4451 77.9431 32.7528 83.4801 35.5559 89.7733C 41.9024 92.5749 47.1001 93.9739 53.9843 95.844z"/>
<path style="stroke:none; fill:#e0e0e0" d="M 54.1149 95.6357C 60.2407 90.34 66.0998 84.7812 75.628 80.2748C 75.5404 73.6098 75.628 68.2603 75.8033 61.1569C 70.8085 57.2856 67.2077 62.0833 58.0891 61.5806C 47.3586 64.1902 42.9561 67.5701 37.6216 73.0802C 34.2003 78.166 33.3417 83.4345 36.2548 89.5673C 42.441 92.4794 47.3142 93.7883 54.1149 95.6357z"/>
<path style="stroke:none; fill:#dcdcdc" d="M 54.2455 95.4274C 60.2599 90.1607 66.1554 84.5979 75.5185 80.219C 75.4198 73.648 75.5185 68.5568 75.7157 61.4925C 70.7822 57.6687 67.6949 63.3706 58.6883 62.8741C 48.0896 65.4516 43.9587 68.4044 38.5684 73.5944C 34.9554 78.3889 33.9306 83.389 36.9537 89.3613C 42.9795 92.3838 47.5283 93.6027 54.2455 95.4274z"/>
<path style="stroke:none; fill:#d8d8d8" d="M 54.3761 95.2192C 60.2792 89.9813 66.211 84.4146 75.4089 80.1633C 75.2993 73.6862 75.4089 68.8533 75.628 61.828C 70.7559 58.0519 68.1821 64.6579 59.2874 64.1675C 48.8206 66.713 44.9613 69.2387 39.5152 74.1085C 35.7106 78.6118 34.5195 83.3434 37.6526 89.1554C 43.5181 92.2882 47.7424 93.4171 54.3761 95.2192z"/>
<path style="stroke:none; fill:#d4d4d4" d="M 54.5066 95.0109C 60.2984 89.802 66.2666 84.2313 75.2993 80.1076C 75.1788 73.7244 75.2993 69.1498 75.5404 62.1636C 70.7296 58.435 68.6693 65.9452 59.8866 65.461C 49.5516 67.9744 45.964 70.0729 40.4621 74.6227C 36.4657 78.8347 35.1084 83.2979 38.3515 88.9494C 44.0567 92.1926 47.9566 93.2316 54.5066 95.0109z"/>
<path style="stroke:none; fill:#d1d1d1" d="M 54.6372 94.8026C 60.3177 89.6226 66.3222 84.048 75.1898 80.0519C 75.0583 73.7625 75.1898 69.4462 75.4527 62.4992C 70.7033 58.8181 69.1565 67.2325 60.4858 66.7545C 50.2826 69.2358 46.9666 70.9072 41.4089 75.1369C 37.2209 79.0576 35.6973 83.2523 39.0504 88.7434C 44.5953 92.097 48.1707 93.046 54.6372 94.8026z"/>
<path style="stroke:none; fill:#cdcdcd" d="M 54.7678 94.5944C 60.3369 89.4433 66.3778 83.8647 75.0802 79.9961C 74.9378 73.8007 75.0802 69.7427 75.3651 62.8348C 70.677 59.2013 69.6437 68.5198 61.085 68.0479C 51.0135 70.4972 47.9693 71.7415 42.3558 75.6511C 37.976 79.2805 36.2862 83.2068 39.7493 88.5375C 45.1338 92.0015 48.3848 92.8604 54.7678 94.5944z"/>
<path style="stroke:none; fill:#c9c9c9" d="M 54.8984 94.3861C 60.3562 89.2639 66.4334 83.6814 74.9706 79.9404C 74.8172 73.8389 74.9706 70.0392 75.2774 63.1704C 70.6507 59.5844 70.1309 69.807 61.6842 69.3414C 51.7445 71.7586 48.9719 72.5757 43.3026 76.1653C 38.7311 79.5034 36.8751 83.1612 40.4482 88.3315C 45.6724 91.9059 48.5989 92.6748 54.8984 94.3861z"/>
<path style="stroke:none; fill:#c5c5c5" d="M 55.029 94.1778C 60.3755 89.0846 66.489 83.4981 74.8611 79.8847C 74.6967 73.8771 74.8611 70.3357 75.1898 63.5059C 70.6244 59.9675 70.6181 71.0943 62.2834 70.6348C 52.4755 73.0201 49.9745 73.41 44.2494 76.6794C 39.4863 79.7263 37.464 83.1157 41.1471 88.1255C 46.211 91.8103 48.813 92.4892 55.029 94.1778z"/>
<path style="stroke:none; fill:#c1c1c1" d="M 55.1596 93.9696C 60.3947 88.9053 66.5446 83.3148 74.7515 79.829C 74.5762 73.9152 74.7515 70.6322 75.1021 63.8415C 70.5981 60.3506 71.1053 72.3816 62.8826 71.9283C 53.2065 74.2815 50.9772 74.2442 45.1963 77.1936C 40.2414 79.9492 38.0529 83.0701 41.846 87.9195C 46.7495 91.7147 49.0271 92.3037 55.1596 93.9696z"/>
<path style="stroke:none; fill:#bdbdbd" d="M 55.2902 93.7613C 60.414 88.7259 66.6002 83.1315 74.642 79.7733C 74.4557 73.9534 74.642 70.9287 75.0145 64.1771C 70.5718 60.7338 71.5925 73.6689 63.4818 73.2218C 53.9375 75.5429 51.9798 75.0785 46.1431 77.7078C 40.9966 80.1721 38.6418 83.0246 42.5449 87.7136C 47.2881 91.6191 49.2413 92.1181 55.2902 93.7613z"/>
<path style="stroke:none; fill:#bababa" d="M 55.4208 93.553C 60.4332 88.5466 66.6558 82.9482 74.5324 79.7175C 74.3352 73.9916 74.5324 71.2252 74.9268 64.5127C 70.5455 61.1169 72.0797 74.9562 64.081 74.5152C 54.6685 76.8043 52.9825 75.9128 47.0899 78.222C 41.7517 80.3951 39.2307 82.979 43.2438 87.5076C 47.8267 91.5236 49.4554 91.9325 55.4208 93.553z"/>
<path style="stroke:none; fill:#b6b6b6" d="M 55.5514 93.3447C 60.4525 88.3672 66.7113 82.7649 74.4228 79.6618C 74.2147 74.0297 74.4228 71.5217 74.8391 64.8483C 70.5192 61.5 72.5669 76.2435 64.6802 75.8087C 55.3994 78.0657 53.9851 76.747 48.0368 78.7362C 42.5069 80.618 39.8196 82.9335 43.9427 87.3016C 48.3652 91.428 49.6695 91.7469 55.5514 93.3447z"/>
</g>
<path style="stroke:none; fill:#b2b2b2" d="M 55.682 93.1365C 60.4717 88.1879 66.7669 82.5816 74.3133 79.6061C 74.0941 74.0679 74.3133 71.8182 74.7515 65.1838C 70.4929 61.8831 73.0541 77.5307 65.2794 77.1021C 56.1304 79.3271 54.9877 77.5813 48.9836 79.2504C 43.262 80.8409 40.4085 82.8879 44.6416 87.0957C 48.9038 91.3324 49.8836 91.5613 55.682 93.1365z"/>
</g>
<path style="stroke:none; fill:#000000" d="M 87.4641 43.9404C 93.0625 45.4973 95.8306 48.1652 97.58 51.233C 93.1146 50.3716 78.1273 55.3945 75.8576 58.3706C 70.2434 53.7612 62.1364 51.9079 52.9637 51.233C 55.0217 48.3563 57.7029 45.7912 61.6953 43.8818C 70.4373 41.88 79.0199 41.9911 87.4641 43.9404z"/>
<path style="stroke:none; fill:#000000" d="M 17.3527 112.136C 14.2985 110.531 8.88715 106.994 10.2602 98.6666C 12.3086 88.9968 15.1895 82.5634 19.6045 73.8109C 22.7044 71.6131 25.1345 69.8769 30.0206 68.7177C 28.7903 76.2435 28.3172 83.7041 30.6286 90.9248C 23.7445 96.2357 20.4379 104.107 17.3527 112.136z"/>
<path style="stroke:none; fill:#000000" d="M 52.7414 96.6549C 59.6867 90.5406 66.8585 84.6243 75.8576 80.3065C 85.6302 84.4676 93.3316 90.7764 99.7849 97.0688C 97.393 106.657 94.4105 115.772 90.66 124.592C 80.7923 126.103 71.0311 126.418 61.4606 124.592C 56.4887 115.224 53.3646 105.869 52.7414 96.6549z"/>
<g>
<path style="stroke:none; fill:#000000" d="M 58.8417 116.716C 60.2701 114.716 61.8622 121.44 65.562 121.779C 70.3152 122.216 82.8041 121.972 87.7188 121.523C 89.6352 121.348 90.8209 116.171 92.4423 114.31C 91.4449 118.318 91.0908 120.484 90.1096 123.909C 81.9185 124.454 71.0141 124.788 63.0697 124.129C 60.8665 121.242 59.359 120.038 58.8417 116.716z"/>
<g>
<path style="stroke:none; fill:#141414" d="M 59.2265 117.047C 60.6455 115.909 62.1915 121.642 65.3083 121.956C 69.7496 122.474 82.9822 122.245 87.8748 121.678C 89.5802 121.501 90.6337 117.005 92.1407 115.045C 91.1329 118.992 90.8563 120.744 89.9401 123.729C 83.1842 124.273 69.8575 124.484 63.3505 123.921C 61.4364 121.575 59.9831 120.333 59.2265 117.047z"/>
<path style="stroke:none; fill:#282828" d="M 59.6114 117.378C 61.0209 117.103 62.5209 121.845 65.0546 122.132C 69.1841 122.733 83.1602 122.517 88.0308 121.833C 89.5252 121.654 90.4464 117.838 91.8391 115.78C 90.8209 119.666 90.6217 121.005 89.7705 123.548C 84.4499 124.092 68.701 124.18 63.6313 123.713C 62.0063 121.908 60.6071 120.627 59.6114 117.378z"/>
<path style="stroke:none; fill:#3d3d3d" d="M 59.9962 117.709C 61.3963 118.296 62.8502 122.048 64.8008 122.309C 68.6186 122.991 83.3382 122.79 88.1868 121.988C 89.4701 121.807 90.2592 118.671 91.5375 116.516C 90.5089 120.34 90.3873 121.265 89.601 123.367C 85.7156 123.912 67.5445 123.876 63.9121 123.504C 62.5762 122.241 61.2311 120.921 59.9962 117.709z"/>
<path style="stroke:none; fill:#515151" d="M 60.381 118.04C 61.7716 119.49 63.1795 122.251 64.5471 122.485C 68.0531 123.249 83.5163 123.063 88.3428 122.143C 89.4151 121.959 90.072 119.505 91.2359 117.251C 90.1969 121.014 90.1527 121.526 89.4315 123.186C 86.9813 123.731 66.3879 123.572 64.1929 123.296C 63.1461 122.575 61.8551 121.215 60.381 118.04z"/>
</g>
<path style="stroke:none; fill:#666666" d="M 60.7658 118.371C 62.147 120.683 63.5089 122.454 64.2934 122.662C 67.4875 123.508 83.6943 123.336 88.4988 122.298C 89.3601 122.112 89.8848 120.338 90.9343 117.986C 89.8849 121.688 89.9182 121.786 89.2619 123.005C 88.247 123.55 65.2314 123.268 64.4737 123.088C 63.716 122.908 62.4791 121.509 60.7658 118.371z"/>
</g>
<g>
<path style="stroke:none; fill:#7f7f7f" d="M 76.0277 82.0679C 79.9088 83.8137 66.2633 88.2039 53.9617 96.8278C 59.9601 91.6772 71.0205 84.344 76.0277 82.0679z"/>
<g>
<path style="stroke:none; fill:#999999" d="M 75.9997 82.0876C 79.4728 83.6414 65.9267 88.3667 54.7001 96.2371C 60.2137 91.5858 71.4005 84.2042 75.9997 82.0876z"/>
<path style="stroke:none; fill:#b2b2b2" d="M 75.9717 82.1073C 79.0367 83.4692 65.5902 88.5296 55.4385 95.6464C 60.4674 91.4944 71.7805 84.0644 75.9717 82.1073z"/>
<path style="stroke:none; fill:#cccccc" d="M 75.9437 82.127C 78.6006 83.2969 65.2537 88.6924 56.177 95.0556C 60.721 91.4029 72.1605 83.9246 75.9437 82.127z"/>
<path style="stroke:none; fill:#e5e5e5" d="M 75.9157 82.1467C 78.1645 83.1247 64.9171 88.8553 56.9154 94.4649C 60.9747 91.3115 72.5405 83.7847 75.9157 82.1467z"/>
</g>
<path style="stroke:none; fill:#ffffff" d="M 75.8877 82.1664C 77.7285 82.9524 64.5806 89.0182 57.6538 93.8741C 61.2283 91.2201 72.9205 83.6449 75.8877 82.1664z"/>
</g>
<g>
<path style="stroke:none; fill:#7f7f7f" d="M 74.7676 54.0193C 75.7822 56.0798 66.5648 51.366 55.858 49.9646C 62.2521 49.2743 71.185 52.5325 74.7676 54.0193z"/>
<g>
<path style="stroke:none; fill:#999999" d="M 74.7238 54.0379C 75.6362 55.8791 66.395 51.3307 56.3993 50.017C 62.1789 49.4245 71.4364 52.6224 74.7238 54.0379z"/>
<path style="stroke:none; fill:#b2b2b2" d="M 74.6799 54.0564C 75.4901 55.6784 66.2252 51.2955 56.9407 50.0694C 62.1058 49.5747 71.6877 52.7123 74.6799 54.0564z"/>
<path style="stroke:none; fill:#cccccc" d="M 74.6361 54.075C 75.344 55.4778 66.0554 51.2602 57.482 50.1217C 62.0326 49.7249 71.939 52.8022 74.6361 54.075z"/>
<path style="stroke:none; fill:#e5e5e5" d="M 74.5922 54.0936C 75.1979 55.2771 65.8856 51.225 58.0234 50.1741C 61.9594 49.8751 72.1904 52.8921 74.5922 54.0936z"/>
</g>
<path style="stroke:none; fill:#ffffff" d="M 74.5483 54.1121C 75.0518 55.0764 65.7158 51.1897 58.5648 50.2265C 61.8863 50.0253 72.4417 52.982 74.5483 54.1121z"/>
</g>
<g>
<path style="stroke:none; fill:#7f7f7f" d="M 27.6187 72.1716C 29.3579 70.6716 27.1128 80.7781 28.4483 91.4934C 26.1726 85.4781 27.0803 76.013 27.6187 72.1716z"/>
<g>
<path style="stroke:none; fill:#999999" d="M 27.6477 72.2094C 29.2004 70.8635 27.1214 80.9513 28.3629 90.9562C 26.3364 85.5112 27.1042 75.7471 27.6477 72.2094z"/>
<path style="stroke:none; fill:#b2b2b2" d="M 27.6767 72.2472C 29.0429 71.0553 27.13 81.1245 28.2775 90.4191C 26.5002 85.5443 27.128 75.4813 27.6767 72.2472z"/>
<path style="stroke:none; fill:#cccccc" d="M 27.7056 72.285C 28.8854 71.2471 27.1385 81.2977 28.1921 89.882C 26.6639 85.5773 27.1518 75.2154 27.7056 72.285z"/>
<path style="stroke:none; fill:#e5e5e5" d="M 27.7346 72.3228C 28.7278 71.439 27.1471 81.4709 28.1066 89.3448C 26.8277 85.6104 27.1757 74.9495 27.7346 72.3228z"/>
</g>
<path style="stroke:none; fill:#ffffff" d="M 27.7636 72.3606C 28.5703 71.6308 27.1557 81.6441 28.0212 88.8077C 26.9915 85.6434 27.1995 74.6837 27.7636 72.3606z"/>
</g>
</g>
<g>
</g>
</svg>