<?xml version="1.0" encoding="UTF-8" standalone="no"?>
<!-- Created with Inkscape (http://www.inkscape.org/) -->
<svg xmlns:dc="http://purl.org/dc/elements/1.1/" xmlns:cc="http://web.resource.org/cc/" xmlns:rdf="http://www.w3.org/1999/02/22-rdf-syntax-ns#" xmlns:svg="http://www.w3.org/2000/svg" xmlns="http://www.w3.org/2000/svg" xmlns:sodipodi="http://sodipodi.sourceforge.net/DTD/sodipodi-0.dtd" xmlns:inkscape="http://www.inkscape.org/namespaces/inkscape" width="267.05399" height="243.96185" id="svg2" sodipodi:version="0.32" inkscape:version="0.45.1" sodipodi:docbase="/home/melissa/Desktop" sodipodi:docname="bluegift.svg" inkscape:output_extension="org.inkscape.output.svg.inkscape" version="1.0">
  <defs id="defs4"/>
  <sodipodi:namedview id="base" pagecolor="#ffffff" bordercolor="#666666" borderopacity="1.0" gridtolerance="10000" guidetolerance="10" objecttolerance="10" inkscape:pageopacity="0.0" inkscape:pageshadow="2" inkscape:zoom="1.8957146" inkscape:cx="249.8039" inkscape:cy="137.82864" inkscape:document-units="px" inkscape:current-layer="layer1" showguides="true" inkscape:guide-bbox="true" inkscape:window-width="1213" inkscape:window-height="928" inkscape:window-x="0" inkscape:window-y="0"/>
  <metadata id="metadata7">
    <rdf:RDF>
      <cc:Work rdf:about="">
        <dc:format>image/svg+xml</dc:format>
        <dc:type rdf:resource="http://purl.org/dc/dcmitype/StillImage"/>
      </cc:Work>
    </rdf:RDF>
  </metadata>
  <g inkscape:label="Layer 1" inkscape:groupmode="layer" id="layer1" transform="translate(-69.1189, -629.29)">
    <g id="g28544" transform="matrix(0.303629, 0.0600499, -0.0641534, 0.10056, 175.519, 591.909)" style="stroke: rgb(218, 166, 77); stroke-width: 9.31701; stroke-miterlimit: 4; stroke-dasharray: none; stroke-opacity: 1;">
      <path style="fill: rgb(159, 93, 0); fill-opacity: 1; fill-rule: evenodd; stroke: rgb(218, 166, 77); stroke-width: 9.31701; stroke-linecap: butt; stroke-linejoin: miter; stroke-miterlimit: 4; stroke-dasharray: none; stroke-opacity: 1;" d="M 239.57823,544.07939 L 229.29835,532.65731 C 212.99455,516.49612 201.45286,511.17637 189.60661,504.6732 L 183.61002,511.812 L 190.46327,525.80406 L 216.73406,540.08166 L 231.29722,544.93605 L 239.57823,544.07939 z " id="path28546" sodipodi:nodetypes="cccccccc"/>
      <g id="g28548" style="stroke: rgb(218, 166, 77); stroke-width: 9.31701; stroke-miterlimit: 4; stroke-dasharray: none; stroke-opacity: 1;">
        <path sodipodi:nodetypes="cccccc" id="path28550" d="M 240.86322,545.64993 C 240.86322,545.64993 204.45533,550.93264 149.91487,542.93718 C 99.10846,523.6953 115.73762,487.63171 147.916,489.53893 C 171.90243,491.44229 192.03663,482.66557 240.4349,544.93604 C 240.4349,544.93604 189.26953,493.55016 186.17999,511.81199 C 184.46668,531.5151 240.86322,545.64993 240.86322,545.64993 z " style="fill: rgb(193, 113, 0); fill-opacity: 1; fill-rule: evenodd; stroke: rgb(218, 166, 77); stroke-width: 9.31701; stroke-linecap: butt; stroke-linejoin: miter; stroke-miterlimit: 4; stroke-dasharray: none; stroke-opacity: 1;"/>
        <path style="fill: rgb(255, 255, 255); fill-opacity: 0.156863; fill-rule: evenodd; stroke: rgb(218, 166, 77); stroke-width: 9.31701; stroke-linecap: butt; stroke-linejoin: miter; stroke-miterlimit: 4; stroke-dasharray: none; stroke-opacity: 1;" d="M 197.45929,525.94683 C 197.45929,525.94683 173.6157,529.23068 119.07524,521.23522 C 110.24499,497.4245 129.78627,492.65989 148.77267,494.96442 C 162.66294,497.38242 190.47717,493.83245 187.3222,512.09755 C 187.46497,517.66582 218.8359,508.76957 192.49783,523.19839 C 195.07755,524.75739 197.45929,525.94683 197.45929,525.94683 z " id="path28552" sodipodi:nodetypes="cccccc"/>
      </g>
    </g>
    <path sodipodi:nodetypes="ccccc" style="fill: rgb(0, 68, 170); fill-opacity: 1; stroke: rgb(42, 127, 255); stroke-width: 3; stroke-linecap: round; stroke-linejoin: round; stroke-miterlimit: 4; stroke-dasharray: none; stroke-opacity: 1;" d="M 334.5776,651.01508 L 287.75747,687.44478 L 70.618865,675.72762 C 98.397874,661.7136 120.92057,656.05087 146.12978,645.89155 L 334.5776,651.01508 z " id="path9071"/>
    <path id="path6107" d="M 332.0654,658.20182 L 288.48836,685.39611 L 288.24607,725.69658 L 332.18195,698.11884 L 332.0654,658.20182 z " style="fill: rgb(0, 68, 170); fill-opacity: 1; stroke: rgb(42, 127, 255); stroke-width: 7.98181; stroke-linecap: round; stroke-linejoin: miter; stroke-miterlimit: 4; stroke-dasharray: none; stroke-opacity: 1;" sodipodi:nodetypes="ccccc"/>
    <path sodipodi:nodetypes="ccccc" style="fill: rgb(0, 68, 170); fill-opacity: 1; stroke: rgb(42, 127, 255); stroke-width: 8; stroke-linecap: round; stroke-linejoin: miter; stroke-miterlimit: 4; stroke-opacity: 1;" d="M 76.42858,690.93365 L 283.57143,698.93365 L 282.08228,869.03293 L 76.42858,860.93365 L 76.42858,690.93365 z " id="rect4143"/>
    <path sodipodi:nodetypes="ccccc" style="fill: rgb(0, 68, 170); fill-opacity: 1; stroke: rgb(42, 127, 255); stroke-width: 8; stroke-linecap: round; stroke-linejoin: miter; stroke-miterlimit: 4; stroke-opacity: 1;" d="M 73.13562,679.49774 L 286.72156,687.49774 L 286.72156,728.94082 L 73.13562,720.94082 L 73.13562,679.49774 z " id="rect4145"/>
    <path sodipodi:nodetypes="ccccc" style="fill: rgb(0, 68, 170); fill-opacity: 1; stroke: rgb(128, 179, 255); stroke-width: 2.5; stroke-linecap: round; stroke-linejoin: miter; stroke-miterlimit: 4; stroke-opacity: 1;" d="M 76.42858,690.93365 L 283.57143,698.93365 L 283.57143,868.93365 L 76.42858,860.93365 L 76.42858,690.93365 z " id="rect5116"/>
    <path sodipodi:nodetypes="ccccc" style="fill: rgb(0, 68, 170); fill-opacity: 1; stroke: rgb(128, 179, 255); stroke-width: 2.5; stroke-linecap: round; stroke-linejoin: miter; stroke-miterlimit: 4; stroke-opacity: 1;" d="M 73.13562,679.49774 L 286.22517,687.59702 L 286.22517,729.0401 L 73.13562,720.94082 L 73.13562,679.49774 z " id="rect5118"/>
    <path id="path14897" d="M 175.18165,740.03024 C 285.37714,740.32791 286.27137,813.99391 286.06493,873.25167 L 72.475465,864.70431 C 72.623595,812.41531 75.122183,740.19091 175.18165,740.03024 z " style="fill: rgb(255, 255, 255); fill-opacity: 0.0588235; stroke: none; stroke-width: 2.5; stroke-linecap: round; stroke-linejoin: miter; stroke-miterlimit: 4; stroke-opacity: 1;" sodipodi:nodetypes="cccc"/>
    <path id="path6103" d="M 331.60531,665.95015 L 291.2131,697.96817 L 289.92251,865.67065 L 331.50603,836.33309 L 331.60531,665.95015 z " style="fill: rgb(0, 68, 170); fill-opacity: 1; stroke: rgb(42, 127, 255); stroke-width: 7.77305; stroke-linecap: round; stroke-linejoin: miter; stroke-miterlimit: 4; stroke-dasharray: none; stroke-opacity: 1;" sodipodi:nodetypes="ccccc"/>
    <path id="path6105" d="M 331.49009,666.06549 L 288.17752,698.40702 L 288.87246,866.78267 L 331.49009,836.22812 L 331.49009,666.06549 z " style="fill: rgb(0, 68, 170); fill-opacity: 1; stroke: rgb(128, 179, 255); stroke-width: 2.50113; stroke-linecap: round; stroke-linejoin: miter; stroke-miterlimit: 4; stroke-dasharray: none; stroke-opacity: 1;" sodipodi:nodetypes="ccccc"/>
    <path id="path6109" d="M 332.17494,656.5373 L 286.18062,687.74184 L 286.18062,727.85223 L 332.17494,697.83901 L 332.17494,656.5373 z " style="fill: rgb(0, 68, 170); fill-opacity: 1; stroke: rgb(128, 179, 255); stroke-width: 2.49584; stroke-linecap: round; stroke-linejoin: miter; stroke-miterlimit: 4; stroke-dasharray: none; stroke-opacity: 1;" sodipodi:nodetypes="ccccc"/>
    <path sodipodi:nodetypes="ccccc" style="fill: rgb(0, 68, 170); fill-opacity: 1; stroke: rgb(128, 179, 255); stroke-width: 2.49584; stroke-linecap: round; stroke-linejoin: miter; stroke-miterlimit: 4; stroke-dasharray: none; stroke-opacity: 1;" d="M 332.17494,656.5373 L 286.18062,687.74184 L 286.18062,727.85223 L 332.17494,697.83901 L 332.17494,656.5373 z " id="path9069"/>
    <path sodipodi:nodetypes="cccssssssscc" style="fill: rgb(0, 68, 170); fill-opacity: 1; stroke: rgb(128, 179, 255); stroke-width: 2.51394; stroke-linecap: round; stroke-linejoin: miter; stroke-miterlimit: 4; stroke-dasharray: none; stroke-opacity: 1;" d="M 327.88294,653.51752 L 285.16468,682.35534 C 284.39675,682.86729 113.07881,676.07573 78.302653,673.89788 C 78.378508,673.88577 79.702153,673.11206 83.368659,671.46363 C 85.709789,670.41108 88.669531,669.22955 91.991828,667.90606 C 95.314125,666.58257 99.011852,665.14624 102.86758,663.67144 C 106.72331,662.19664 110.73704,660.68338 114.69134,659.20603 C 118.64564,657.72868 122.54052,656.28725 126.15853,654.9561 C 129.77655,653.62496 133.1177,652.4041 135.96457,651.36792 C 138.81144,650.33173 141.16402,649.48021 142.80489,648.88774 C 144.44575,648.29527 145.3749,647.96185 145.3749,647.96185 L 327.88294,653.51752 z " id="path9073"/>
    <path sodipodi:nodetypes="cccc" style="fill: rgb(255, 255, 255); fill-opacity: 0.0588235; stroke: none; stroke-width: 2.50113; stroke-linecap: round; stroke-linejoin: miter; stroke-miterlimit: 4; stroke-dasharray: none; stroke-opacity: 1;" d="M 306.41149,730.727 C 285.93254,749.23264 293.08202,828.39107 285.98653,873.15875 L 335.38607,838.25727 C 328.33178,803.54742 334.8888,707.30977 306.41149,730.727 z " id="path16844"/>
    <path sodipodi:nodetypes="cccc" style="fill: rgb(255, 255, 255); fill-opacity: 0.0588235; stroke: none; stroke-width: 2.5; stroke-linecap: round; stroke-linejoin: miter; stroke-miterlimit: 4; stroke-opacity: 1;" d="M 173.46434,688.41279 C 283.08302,692.74812 287.23001,708.70208 287.05141,730.21007 L 69.135875,722.05927 C 76.615503,697.05398 92.918416,684.56363 173.46434,688.41279 z " id="path17815"/>
    <path id="path17817" d="M 304.10425,684.58233 C 286.34594,698.39721 288.39795,713.64794 285.91693,730.15201 L 336.067,696.9392 C 333.62718,685.30169 328.68978,667.33628 304.10425,684.58233 z " style="fill: rgb(255, 255, 255); fill-opacity: 0.0588235; stroke: none; stroke-width: 2.50113; stroke-linecap: round; stroke-linejoin: miter; stroke-miterlimit: 4; stroke-dasharray: none; stroke-opacity: 1;" sodipodi:nodetypes="cccc"/>
    <path style="fill: rgb(193, 113, 0); fill-opacity: 1; stroke: rgb(214, 156, 58); stroke-width: 3; stroke-linecap: round; stroke-linejoin: round; stroke-miterlimit: 4; stroke-opacity: 1;" d="M 166.23627,679.72848 L 227.50457,645.95503 L 247.08205,646.70555 L 189.12716,680.85426 L 183.78026,869.14633 C 183.78026,869.14633 162.76567,868.39581 162.76567,868.39581 L 166.23627,679.72848 z " id="rect17819" sodipodi:nodetypes="ccccccc"/>
    <path sodipodi:nodetypes="cccccccccccc" id="path20737" d="M 321.14502,659.98755 L 111.15502,653.8806 C 106.99864,656.00425 89.431278,660.09999 89.398904,663.47607 L 89.408645,664.35315 L 89.786605,664.18696 L 303.88031,673.31712 L 305.21914,861.15932 L 303.53694,862.42899 L 304.841,862.50714 L 321.95268,849.30245 L 322.56619,661.64041 C 322.75837,659.68367 321.83442,660.08319 321.14502,659.98755 z " style="fill: rgb(193, 113, 0); fill-opacity: 1; stroke: rgb(214, 156, 58); stroke-width: 3; stroke-linecap: round; stroke-linejoin: miter; stroke-miterlimit: 4; stroke-opacity: 1;"/>
    <path sodipodi:nodetypes="ccccccccsc" id="path21711" d="M 166.23627,679.72848 C 177.81989,672.8868 186.8527,672.9297 197.68205,675.2187 L 190.26937,681.71091 L 188.09929,733.27703 C 183.56119,736.50363 180.08087,747.55038 172.05152,745.88923 C 170.54388,761.31797 173.27394,824.09604 183.1275,868.63345 C 165.38686,843.65847 162.97303,848.56909 163.97649,736.78889 C 172.19444,736.43759 180.00975,738.47821 185.95168,732.81617 C 180.42967,730.15375 171.16343,731.26761 167.58803,722.142 C 164.01263,713.0164 166.12806,693.65133 166.23627,679.72848 z " style="fill: rgb(255, 255, 255); fill-opacity: 0.0980392; stroke: none; stroke-width: 3; stroke-linecap: round; stroke-linejoin: round; stroke-miterlimit: 4; stroke-opacity: 1;"/>
    <path style="fill: rgb(255, 255, 255); fill-opacity: 0.0980392; stroke: none; stroke-width: 3; stroke-linecap: round; stroke-linejoin: round; stroke-miterlimit: 4; stroke-opacity: 1;" d="M 317.01573,673.99763 C 310.1961,674.08829 288.58998,670.01288 277.68893,670.27147 C 254.9923,670.79932 267.87229,663.75059 252.63574,662.87925 C 258.75191,659.35112 285.59754,665.11135 323.69516,659.4727 L 323.57085,719.65078 C 319.18311,723.07906 316.49085,739.41166 308.39466,738.11488 C 323.00525,805.2809 324.80553,666.44665 322.38304,849.84298 C 303.53246,825.69479 307.96094,848.52435 303.91457,736.81291 C 312.10826,736.09078 320.86443,717.21656 320.83351,710.72082 C 315.19688,708.31054 303.22023,734.10303 303.14868,724.30225 C 302.87693,687.36335 317.25093,680.20124 317.01573,673.99763 z " id="path22682" sodipodi:nodetypes="cscccccccsc"/>
    <path sodipodi:nodetypes="cccccccc" id="path28536" d="M 212.23616,660.91108 L 206.47838,658.95354 C 201.26459,657.22192 193.26862,656.56457 189.3985,655.84258 L 187.27653,656.54456 L 189.3557,658.00914 L 197.94053,659.59551 L 202.74731,660.16172 L 212.23616,660.91108 z " style="fill: rgb(159, 93, 0); fill-opacity: 1; fill-rule: evenodd; stroke: rgb(218, 166, 77); stroke-width: 1.72767; stroke-linecap: butt; stroke-linejoin: miter; stroke-miterlimit: 4; stroke-dasharray: none; stroke-opacity: 1;"/>
    <g transform="matrix(0.247325, 0.000742369, 0.15663, 0.222904, 67.5904, 538.553)" id="g28584" style="stroke: rgb(218, 166, 77); stroke-width: 7.36593; stroke-miterlimit: 4; stroke-dasharray: none; stroke-opacity: 1;">
      <path sodipodi:nodetypes="cccccccc" id="path28586" d="M 239.57823,544.07939 L 229.29835,532.65731 C 212.99455,516.49612 201.45286,511.17637 189.60661,504.6732 L 183.61002,511.812 L 190.46327,525.80406 L 216.73406,540.08166 L 231.29722,544.93605 L 239.57823,544.07939 z " style="fill: rgb(159, 93, 0); fill-opacity: 1; fill-rule: evenodd; stroke: rgb(218, 166, 77); stroke-width: 7.36593; stroke-linecap: butt; stroke-linejoin: miter; stroke-miterlimit: 4; stroke-dasharray: none; stroke-opacity: 1;"/>
      <g id="g28588" style="stroke: rgb(218, 166, 77); stroke-width: 7.36593; stroke-miterlimit: 4; stroke-dasharray: none; stroke-opacity: 1;">
        <path style="fill: rgb(193, 113, 0); fill-opacity: 1; fill-rule: evenodd; stroke: rgb(218, 166, 77); stroke-width: 7.36593; stroke-linecap: butt; stroke-linejoin: miter; stroke-miterlimit: 4; stroke-dasharray: none; stroke-opacity: 1;" d="M 240.86322,545.64993 C 240.86322,545.64993 204.45533,550.93264 149.91487,542.93718 C 99.10846,523.6953 115.73762,487.63171 147.916,489.53893 C 171.90243,491.44229 192.03663,482.66557 240.4349,544.93604 C 240.4349,544.93604 189.26953,493.55016 186.17999,511.81199 C 184.46668,531.5151 240.86322,545.64993 240.86322,545.64993 z " id="path28590" sodipodi:nodetypes="cccccc"/>
        <path sodipodi:nodetypes="cccccc" id="path28592" d="M 197.45929,525.94683 C 197.45929,525.94683 179.26173,511.12 124.72127,503.12454 C 122.54722,493.93746 139.55448,491.33508 158.54088,493.63961 C 172.43115,496.05761 190.47717,493.83245 187.3222,512.09755 C 187.46497,517.66582 218.8359,508.76957 192.49783,523.19839 C 195.07755,524.75739 197.45929,525.94683 197.45929,525.94683 z " style="fill: rgb(255, 255, 255); fill-opacity: 0.156863; fill-rule: evenodd; stroke: rgb(218, 166, 77); stroke-width: 7.36593; stroke-linecap: butt; stroke-linejoin: miter; stroke-miterlimit: 4; stroke-dasharray: none; stroke-opacity: 1;"/>
      </g>
    </g>
    <g transform="matrix(0.18262, -0.0918878, 0.0968482, 0.173266, 101.912, 585.204)" id="g28554" style="stroke: rgb(218, 166, 77); stroke-width: 8.58055; stroke-miterlimit: 4; stroke-dasharray: none; stroke-opacity: 1;">
      <path sodipodi:nodetypes="cccccccc" id="path28556" d="M 259.87839,550.92717 L 241.85289,532.63858 C 225.54909,516.47739 201.45286,511.17637 189.60661,504.6732 L 183.61002,511.812 L 190.46327,525.80406 L 216.73406,540.08166 L 231.29722,544.93605 L 259.87839,550.92717 z " style="fill: rgb(159, 93, 0); fill-opacity: 1; fill-rule: evenodd; stroke: rgb(218, 166, 77); stroke-width: 8.58055; stroke-linecap: butt; stroke-linejoin: miter; stroke-miterlimit: 4; stroke-dasharray: none; stroke-opacity: 1;"/>
      <g id="g28558" style="stroke: rgb(218, 166, 77); stroke-width: 8.58055; stroke-miterlimit: 4; stroke-dasharray: none; stroke-opacity: 1;">
        <path style="fill: rgb(193, 113, 0); fill-opacity: 1; fill-rule: evenodd; stroke: rgb(218, 166, 77); stroke-width: 8.58055; stroke-linecap: butt; stroke-linejoin: miter; stroke-miterlimit: 4; stroke-dasharray: none; stroke-opacity: 1;" d="M 262.02448,550.67137 C 262.02448,550.67137 204.45533,550.93264 149.91487,542.93718 C 99.10846,523.6953 107.96391,492.37574 147.916,489.53893 C 171.90243,491.44229 213.19789,487.68701 261.59616,549.95748 C 261.59616,549.95748 189.26953,493.55016 186.17999,511.81199 C 184.46668,531.5151 262.02448,550.67137 262.02448,550.67137 z " id="path28560" sodipodi:nodetypes="cccccc"/>
        <path sodipodi:nodetypes="cccccc" id="path28562" d="M 197.45929,525.94683 C 197.45929,525.94683 173.6157,529.23068 119.07524,521.23522 C 110.24499,497.4245 128.08385,497.85287 147.07025,500.1574 C 160.96052,502.5754 183.6084,501.82724 185.08937,510.35926 C 185.23214,515.92753 218.8359,508.76957 192.49783,523.19839 C 195.07755,524.75739 197.45929,525.94683 197.45929,525.94683 z " style="fill: rgb(255, 255, 255); fill-opacity: 0.156863; fill-rule: evenodd; stroke: rgb(218, 166, 77); stroke-width: 8.58055; stroke-linecap: butt; stroke-linejoin: miter; stroke-miterlimit: 4; stroke-dasharray: none; stroke-opacity: 1;"/>
      </g>
    </g>
    <g id="g29686" transform="matrix(0.103241, 0.155803, -0.160801, 0.187937, 265.659, 517.421)" style="stroke: rgb(218, 166, 77); stroke-width: 8.194; stroke-miterlimit: 4; stroke-dasharray: none; stroke-opacity: 1;">
      <path style="fill: rgb(159, 93, 0); fill-opacity: 1; fill-rule: evenodd; stroke: rgb(218, 166, 77); stroke-width: 8.194; stroke-linecap: butt; stroke-linejoin: miter; stroke-miterlimit: 4; stroke-dasharray: none; stroke-opacity: 1;" d="M 259.87839,550.92717 L 241.85289,532.63858 C 225.54909,516.47739 201.45286,511.17637 189.60661,504.6732 L 183.61002,511.812 L 190.46327,525.80406 L 216.73406,540.08166 L 231.29722,544.93605 L 259.87839,550.92717 z " id="path29688" sodipodi:nodetypes="cccccccc"/>
      <g id="g29690" style="stroke: rgb(218, 166, 77); stroke-width: 8.194; stroke-miterlimit: 4; stroke-dasharray: none; stroke-opacity: 1;">
        <path sodipodi:nodetypes="cccccc" id="path29692" d="M 262.02448,550.67137 C 262.02448,550.67137 204.45533,550.93264 149.91487,542.93718 C 99.10846,523.6953 115.73762,487.63171 147.916,489.53893 C 171.90243,491.44229 213.19789,487.68701 261.59616,549.95748 C 261.59616,549.95748 189.26953,493.55016 186.17999,511.81199 C 184.46668,531.5151 262.02448,550.67137 262.02448,550.67137 z " style="fill: rgb(193, 113, 0); fill-opacity: 1; fill-rule: evenodd; stroke: rgb(218, 166, 77); stroke-width: 8.194; stroke-linecap: butt; stroke-linejoin: miter; stroke-miterlimit: 4; stroke-dasharray: none; stroke-opacity: 1;"/>
        <path style="fill: rgb(255, 255, 255); fill-opacity: 0.156863; fill-rule: evenodd; stroke: rgb(218, 166, 77); stroke-width: 8.194; stroke-linecap: butt; stroke-linejoin: miter; stroke-miterlimit: 4; stroke-dasharray: none; stroke-opacity: 1;" d="M 197.45929,525.94683 C 197.45929,525.94683 176.97588,528.99956 122.43542,521.0041 C 113.60517,497.19338 129.78627,492.65989 148.77267,494.96442 C 162.66294,497.38242 190.47717,493.83245 187.3222,512.09755 C 187.46497,517.66582 218.8359,508.76957 192.49783,523.19839 C 195.07755,524.75739 197.45929,525.94683 197.45929,525.94683 z " id="path29694" sodipodi:nodetypes="cccccc"/>
      </g>
    </g>
    <g transform="matrix(0.170513, 0.0765406, -0.0355131, 0.244778, 182.758, 508.239)" id="g28594" style="stroke: rgb(218, 166, 77); stroke-width: 8.19401; stroke-miterlimit: 4; stroke-dasharray: none; stroke-opacity: 1;">
      <path sodipodi:nodetypes="cccccccc" id="path28596" d="M 259.87839,550.92717 L 241.85289,532.63858 C 225.54909,516.47739 201.45286,511.17637 189.60661,504.6732 L 183.61002,511.812 L 190.46327,525.80406 L 216.73406,540.08166 L 231.29722,544.93605 L 259.87839,550.92717 z " style="fill: rgb(159, 93, 0); fill-opacity: 1; fill-rule: evenodd; stroke: rgb(218, 166, 77); stroke-width: 8.19401; stroke-linecap: butt; stroke-linejoin: miter; stroke-miterlimit: 4; stroke-dasharray: none; stroke-opacity: 1;"/>
      <g id="g28598" style="stroke: rgb(218, 166, 77); stroke-width: 8.19401; stroke-miterlimit: 4; stroke-dasharray: none; stroke-opacity: 1;">
        <path style="fill: rgb(193, 113, 0); fill-opacity: 1; fill-rule: evenodd; stroke: rgb(218, 166, 77); stroke-width: 8.19401; stroke-linecap: butt; stroke-linejoin: miter; stroke-miterlimit: 4; stroke-dasharray: none; stroke-opacity: 1;" d="M 262.02448,550.67137 C 262.02448,550.67137 204.45533,550.93264 149.91487,542.93718 C 99.10846,523.6953 115.73762,487.63171 147.916,489.53893 C 171.90243,491.44229 213.19789,487.68701 261.59616,549.95748 C 261.59616,549.95748 189.26953,493.55016 186.17999,511.81199 C 184.46668,531.5151 262.02448,550.67137 262.02448,550.67137 z " id="path28600" sodipodi:nodetypes="cccccc"/>
        <path sodipodi:nodetypes="ccccc" id="path28602" d="M 191.4904,527.02874 C 191.4904,527.02874 178.30537,530.11785 123.76491,522.12239 C 114.93466,498.31167 134.47594,493.54706 153.46234,495.85159 C 184.57358,496.76224 190.26129,496.6311 197.93847,498.75864 C 182.57876,506.21068 180.55924,522.40635 191.4904,527.02874 z " style="fill: rgb(255, 255, 255); fill-opacity: 0.156863; fill-rule: evenodd; stroke: rgb(218, 166, 77); stroke-width: 8.19401; stroke-linecap: butt; stroke-linejoin: miter; stroke-miterlimit: 4; stroke-dasharray: none; stroke-opacity: 1;"/>
      </g>
    </g>
    <g id="g28614" transform="matrix(-0.140902, 0.148936, 0.302626, 0.0693446, 81.0626, 580.884)" style="stroke: rgb(218, 166, 77); stroke-width: 7.8342; stroke-miterlimit: 4; stroke-dasharray: none; stroke-opacity: 1;">
      <path sodipodi:nodetypes="cccccccc" id="path28616" d="M 239.57823,544.07939 L 229.29835,532.65731 C 212.99455,516.49612 201.45286,511.17637 189.60661,504.6732 L 183.61002,511.812 L 190.46327,525.80406 L 216.73406,540.08166 L 231.29722,544.93605 L 239.57823,544.07939 z " style="fill: rgb(159, 93, 0); fill-opacity: 1; fill-rule: evenodd; stroke: rgb(218, 166, 77); stroke-width: 7.8342; stroke-linecap: butt; stroke-linejoin: miter; stroke-miterlimit: 4; stroke-dasharray: none; stroke-opacity: 1;"/>
      <g id="g28618" style="stroke: rgb(218, 166, 77); stroke-width: 7.8342; stroke-miterlimit: 4; stroke-dasharray: none; stroke-opacity: 1;">
        <path style="fill: rgb(193, 113, 0); fill-opacity: 1; fill-rule: evenodd; stroke: rgb(218, 166, 77); stroke-width: 7.8342; stroke-linecap: butt; stroke-linejoin: miter; stroke-miterlimit: 4; stroke-dasharray: none; stroke-opacity: 1;" d="M 240.86322,545.64993 C 240.86322,545.64993 204.45533,550.93264 149.91487,542.93718 C 99.10846,523.6953 115.73762,487.63171 147.916,489.53893 C 171.90243,491.44229 192.03663,482.66557 240.4349,544.93604 C 240.4349,544.93604 189.26953,493.55016 186.17999,511.81199 C 184.46668,531.5151 240.86322,545.64993 240.86322,545.64993 z " id="path28620" sodipodi:nodetypes="cccccc"/>
        <path sodipodi:nodetypes="cccccc" id="path28622" d="M 197.45929,525.94683 C 197.45929,525.94683 175.54469,526.65756 121.00423,518.6621 C 112.17398,494.85138 129.78627,492.65989 148.77267,494.96442 C 162.66294,497.38242 190.47717,493.83245 187.3222,512.09755 C 187.46497,517.66582 218.8359,508.76957 192.49783,523.19839 C 195.07755,524.75739 197.45929,525.94683 197.45929,525.94683 z " style="fill: rgb(255, 255, 255); fill-opacity: 0.156863; fill-rule: evenodd; stroke: rgb(218, 166, 77); stroke-width: 7.8342; stroke-linecap: butt; stroke-linejoin: miter; stroke-miterlimit: 4; stroke-dasharray: none; stroke-opacity: 1;"/>
      </g>
    </g>
    <g id="g28634" transform="matrix(-0.216235, 0.0130612, 0.0142273, 0.198511, 252.61, 541.658)" style="stroke: rgb(218, 166, 77); stroke-width: 8.32085; stroke-miterlimit: 4; stroke-dasharray: none; stroke-opacity: 1;">
      <path sodipodi:nodetypes="cccccccc" id="path28636" d="M 239.57823,544.07939 L 229.29835,532.65731 C 212.99455,516.49612 201.45286,511.17637 189.60661,504.6732 L 183.61002,511.812 L 190.46327,525.80406 L 216.73406,540.08166 L 231.29722,544.93605 L 239.57823,544.07939 z " style="fill: rgb(159, 93, 0); fill-opacity: 1; fill-rule: evenodd; stroke: rgb(218, 166, 77); stroke-width: 8.32085; stroke-linecap: butt; stroke-linejoin: miter; stroke-miterlimit: 4; stroke-dasharray: none; stroke-opacity: 1;"/>
      <g id="g28638" style="stroke: rgb(218, 166, 77); stroke-width: 8.32085; stroke-miterlimit: 4; stroke-dasharray: none; stroke-opacity: 1;">
        <path style="fill: rgb(193, 113, 0); fill-opacity: 1; fill-rule: evenodd; stroke: rgb(218, 166, 77); stroke-width: 8.32085; stroke-linecap: butt; stroke-linejoin: miter; stroke-miterlimit: 4; stroke-dasharray: none; stroke-opacity: 1;" d="M 240.86322,545.64993 C 240.86322,545.64993 204.45533,550.93264 149.91487,542.93718 C 99.10846,523.6953 115.73762,487.63171 147.916,489.53893 C 171.90243,491.44229 192.03663,482.66557 240.4349,544.93604 C 240.4349,544.93604 189.26953,493.55016 186.17999,511.81199 C 184.46668,531.5151 240.86322,545.64993 240.86322,545.64993 z " id="path28640" sodipodi:nodetypes="cccccc"/>
        <path sodipodi:nodetypes="cccccc" id="path28642" d="M 197.45929,525.94683 C 197.45929,525.94683 176.26848,529.05614 121.72802,521.06068 C 112.89777,497.24996 129.78627,492.65989 148.77267,494.96442 C 162.66294,497.38242 190.47717,493.83245 187.3222,512.09755 C 187.46497,517.66582 218.8359,508.76957 192.49783,523.19839 C 195.07755,524.75739 197.45929,525.94683 197.45929,525.94683 z " style="fill: rgb(255, 255, 255); fill-opacity: 0.156863; fill-rule: evenodd; stroke: rgb(218, 166, 77); stroke-width: 8.32085; stroke-linecap: butt; stroke-linejoin: miter; stroke-miterlimit: 4; stroke-dasharray: none; stroke-opacity: 1;"/>
      </g>
    </g>
    <g id="g29664" transform="matrix(-0.18262, -0.0918878, -0.0968482, 0.173266, 308.301, 582.131)" style="stroke: rgb(218, 166, 77); stroke-width: 8.58055; stroke-miterlimit: 4; stroke-dasharray: none; stroke-opacity: 1;">
      <path style="fill: rgb(159, 93, 0); fill-opacity: 1; fill-rule: evenodd; stroke: rgb(218, 166, 77); stroke-width: 8.58055; stroke-linecap: butt; stroke-linejoin: miter; stroke-miterlimit: 4; stroke-dasharray: none; stroke-opacity: 1;" d="M 259.87839,550.92717 L 241.85289,532.63858 C 225.54909,516.47739 201.45286,511.17637 189.60661,504.6732 L 183.61002,511.812 L 190.46327,525.80406 L 216.73406,540.08166 L 231.29722,544.93605 L 259.87839,550.92717 z " id="path29666" sodipodi:nodetypes="cccccccc"/>
      <g id="g29668" style="stroke: rgb(218, 166, 77); stroke-width: 8.58055; stroke-miterlimit: 4; stroke-dasharray: none; stroke-opacity: 1;">
        <path sodipodi:nodetypes="cccccc" id="path29670" d="M 262.02448,550.67137 C 262.02448,550.67137 204.45533,550.93264 149.91487,542.93718 C 99.10846,523.6953 115.73762,487.63171 147.916,489.53893 C 171.90243,491.44229 213.19789,487.68701 261.59616,549.95748 C 261.59616,549.95748 189.26953,493.55016 186.17999,511.81199 C 184.46668,531.5151 262.02448,550.67137 262.02448,550.67137 z " style="fill: rgb(193, 113, 0); fill-opacity: 1; fill-rule: evenodd; stroke: rgb(218, 166, 77); stroke-width: 8.58055; stroke-linecap: butt; stroke-linejoin: miter; stroke-miterlimit: 4; stroke-dasharray: none; stroke-opacity: 1;"/>
        <path style="fill: rgb(255, 255, 255); fill-opacity: 0.156863; fill-rule: evenodd; stroke: rgb(218, 166, 77); stroke-width: 8.58055; stroke-linecap: butt; stroke-linejoin: miter; stroke-miterlimit: 4; stroke-dasharray: none; stroke-opacity: 1;" d="M 197.45929,525.94683 C 197.45929,525.94683 175.76431,528.15349 121.22385,520.15803 C 112.3936,496.34731 129.78627,492.65989 148.77267,494.96442 C 162.66294,497.38242 190.47717,493.83245 187.3222,512.09755 C 187.46497,517.66582 218.8359,508.76957 192.49783,523.19839 C 195.07755,524.75739 197.45929,525.94683 197.45929,525.94683 z " id="path29672" sodipodi:nodetypes="cccccc"/>
      </g>
    </g>
    <path style="fill: rgb(193, 113, 0); fill-opacity: 1; fill-rule: evenodd; stroke: rgb(218, 166, 77); stroke-width: 1.85757; stroke-linecap: butt; stroke-linejoin: miter; stroke-miterlimit: 4; stroke-dasharray: none; stroke-opacity: 1;" d="M 199.14921,642.69852 C 199.14921,642.69852 191.80691,652.19072 200.90167,657.94333 C 216.49785,660.29228 217.1829,657.88525 217.07831,658.29787 C 217.07831,658.29787 223.41416,649.55277 218.02195,643.52575 C 209.2596,641.04404 199.41882,642.34399 199.14921,642.69852 z " id="path28664" sodipodi:nodetypes="ccccc"/>
    <path sodipodi:nodetypes="cccc" id="path29635" d="M 196.97001,649.12941 C 196.29615,644.60352 200.90673,644.05279 207.07851,644.6294 C 211.58258,645.1836 220.92148,644.77598 219.61194,648.052 C 220.49893,651.10676 214.67818,651.03448 196.97001,649.12941 z " style="fill: rgb(255, 255, 255); fill-opacity: 0.156863; fill-rule: evenodd; stroke: rgb(218, 166, 77); stroke-width: 1.44653; stroke-linecap: butt; stroke-linejoin: miter; stroke-miterlimit: 4; stroke-dasharray: none; stroke-opacity: 1;"/>
    <g id="g29658" transform="matrix(0.00609419, 0.332705, -0.196292, -0.0151614, 299.295, 657.293)" style="stroke: rgb(218, 166, 77); stroke-width: 6.76531; stroke-miterlimit: 4; stroke-dasharray: none; stroke-opacity: 1;">
      <path sodipodi:nodetypes="ccccc" id="path29660" d="M 7.2689702,524.95798 C 7.2689702,524.95798 -14.726106,557.39457 12.518782,577.05227 C 59.239733,585.07903 63.069419,571.5282 62.756085,572.9382 C 62.756085,572.9382 79.958676,548.38022 63.805408,527.7848 C 37.556348,519.30434 8.0766332,523.74649 7.2689702,524.95798 z " style="fill: rgb(193, 113, 0); fill-opacity: 1; fill-rule: evenodd; stroke: rgb(218, 166, 77); stroke-width: 6.76531; stroke-linecap: butt; stroke-linejoin: miter; stroke-miterlimit: 4; stroke-dasharray: none; stroke-opacity: 1;"/>
      <path style="fill: rgb(255, 255, 255); fill-opacity: 0.156863; fill-rule: evenodd; stroke: rgb(218, 166, 77); stroke-width: 6.76531; stroke-linecap: butt; stroke-linejoin: miter; stroke-miterlimit: 4; stroke-dasharray: none; stroke-opacity: 1;" d="M -0.65301662,557.51506 C -2.7121191,532.51158 11.376055,529.46907 30.234658,532.65457 C 43.997371,535.71628 71.94666,533.46438 67.94521,551.56289 C 70.65555,568.43907 53.456331,568.03969 -0.65301662,557.51506 z " id="path29662" sodipodi:nodetypes="cccc"/>
    </g>
    <g transform="matrix(0.0830125, 0.30599, -0.236222, 0.0563605, 328.782, 621.276)" id="g29652" style="stroke: rgb(218, 166, 77); stroke-width: 6.04972; stroke-miterlimit: 4; stroke-dasharray: none; stroke-opacity: 1;">
      <path style="fill: rgb(193, 113, 0); fill-opacity: 1; fill-rule: evenodd; stroke: rgb(218, 166, 77); stroke-width: 6.04972; stroke-linecap: butt; stroke-linejoin: miter; stroke-miterlimit: 4; stroke-dasharray: none; stroke-opacity: 1;" d="M 7.2689702,524.95798 C 7.2689702,524.95798 -14.726106,557.39457 12.518782,577.05227 C 59.239733,585.07903 59.342628,572.104 59.029294,573.514 C 59.029294,573.514 79.958676,548.38022 63.805408,527.7848 C 37.556348,519.30434 8.0766332,523.74649 7.2689702,524.95798 z " id="path29654" sodipodi:nodetypes="ccccc"/>
      <path sodipodi:nodetypes="cccc" id="path29656" d="M -0.65301662,557.51506 C -2.7121191,532.51158 11.376055,529.46907 30.234658,532.65457 C 43.997371,535.71628 71.94666,533.46438 67.94521,551.56289 C 70.65555,568.43907 53.456331,568.03969 -0.65301662,557.51506 z " style="fill: rgb(255, 255, 255); fill-opacity: 0.156863; fill-rule: evenodd; stroke: rgb(218, 166, 77); stroke-width: 6.04972; stroke-linecap: butt; stroke-linejoin: miter; stroke-miterlimit: 4; stroke-dasharray: none; stroke-opacity: 1;"/>
    </g>
    <g transform="matrix(-0.0329448, 0.264373, -0.240706, -0.0045771, 345.64, 656.084)" id="g29674" style="stroke: rgb(218, 166, 77); stroke-width: 6.84064; stroke-miterlimit: 4; stroke-dasharray: none; stroke-opacity: 1;">
      <path style="fill: rgb(193, 113, 0); fill-opacity: 1; fill-rule: evenodd; stroke: rgb(218, 166, 77); stroke-width: 6.84064; stroke-linecap: butt; stroke-linejoin: miter; stroke-miterlimit: 4; stroke-dasharray: none; stroke-opacity: 1;" d="M 7.2689702,524.95798 C 7.2689702,524.95798 -14.726106,557.39457 12.518782,577.05227 C 59.239733,585.07903 64.387566,566.85642 64.074232,568.26642 C 64.074232,568.26642 79.958676,548.38022 63.805408,527.7848 C 37.556348,519.30434 8.0766332,523.74649 7.2689702,524.95798 z " id="path29676" sodipodi:nodetypes="ccccc"/>
      <path sodipodi:nodetypes="cccc" id="path29678" d="M -0.65301662,557.51506 C -2.7121191,532.51158 11.376055,529.46907 30.234658,532.65457 C 43.997371,535.71628 71.94666,533.46438 67.94521,551.56289 C 70.65555,568.43907 53.456331,568.03969 -0.65301662,557.51506 z " style="fill: rgb(255, 255, 255); fill-opacity: 0.156863; fill-rule: evenodd; stroke: rgb(218, 166, 77); stroke-width: 6.84064; stroke-linecap: butt; stroke-linejoin: miter; stroke-miterlimit: 4; stroke-dasharray: none; stroke-opacity: 1;"/>
    </g>
    <g id="g29680" transform="matrix(0.162714, 0.293554, -0.212525, 0.117801, 332.958, 585.293)" style="stroke: rgb(218, 166, 77); stroke-width: 6.04972; stroke-miterlimit: 4; stroke-dasharray: none; stroke-opacity: 1;">
      <path sodipodi:nodetypes="ccccc" id="path29682" d="M 7.2689702,524.95798 C 7.2689702,524.95798 -14.726106,557.39457 12.518782,577.05227 C 59.239733,585.07903 58.683965,582.53759 60.978586,578.26376 C 60.978586,578.26376 79.958676,548.38022 63.805408,527.7848 C 37.556348,519.30434 8.0766332,523.74649 7.2689702,524.95798 z " style="fill: rgb(193, 113, 0); fill-opacity: 1; fill-rule: evenodd; stroke: rgb(218, 166, 77); stroke-width: 6.04972; stroke-linecap: butt; stroke-linejoin: miter; stroke-miterlimit: 4; stroke-dasharray: none; stroke-opacity: 1;"/>
      <path style="fill: rgb(255, 255, 255); fill-opacity: 0.156863; fill-rule: evenodd; stroke: rgb(218, 166, 77); stroke-width: 6.04972; stroke-linecap: butt; stroke-linejoin: miter; stroke-miterlimit: 4; stroke-dasharray: none; stroke-opacity: 1;" d="M -0.65301662,557.51506 C -2.7121191,532.51158 11.376055,529.46907 30.234658,532.65457 C 43.997371,535.71628 71.94666,533.46438 67.94521,551.56289 C 70.65555,568.43907 53.456331,568.03969 -0.65301662,557.51506 z " id="path29684" sodipodi:nodetypes="cccc"/>
    </g>
    <path style="fill: rgb(255, 255, 255); fill-opacity: 0.117647; stroke: none; stroke-width: 3; stroke-linecap: round; stroke-linejoin: miter; stroke-miterlimit: 4; stroke-opacity: 1;" d="M 145.96795,656.87527 L 111.15502,653.8806 C 106.99864,656.00425 89.431278,660.09999 89.398904,663.47607 L 89.408645,664.35315 L 89.786605,664.18696 C 115.06381,663.48632 142.94912,666.69785 165.61821,662.08503 C 155.12973,660.43345 111.03975,660.46567 145.96795,656.87527 z " id="path30677" sodipodi:nodetypes="ccccccc"/>
  </g>
</svg>